G04 #@! TF.GenerationSoftware,KiCad,Pcbnew,5.1.5-52549c5~84~ubuntu18.04.1*
G04 #@! TF.CreationDate,2020-06-09T16:27:21+02:00*
G04 #@! TF.ProjectId,roboy_3.0_40mm_ball_sensor,726f626f-795f-4332-9e30-5f34306d6d5f,rev?*
G04 #@! TF.SameCoordinates,Original*
G04 #@! TF.FileFunction,Copper,L1,Top*
G04 #@! TF.FilePolarity,Positive*
%FSLAX46Y46*%
G04 Gerber Fmt 4.6, Leading zero omitted, Abs format (unit mm)*
G04 Created by KiCad (PCBNEW 5.1.5-52549c5~84~ubuntu18.04.1) date 2020-06-09 16:27:21*
%MOMM*%
%LPD*%
G04 APERTURE LIST*
%ADD10C,0.100000*%
%ADD11C,1.800000*%
%ADD12R,1.800000X1.800000*%
%ADD13C,0.500000*%
%ADD14C,0.800000*%
%ADD15C,0.250000*%
%ADD16C,0.254000*%
G04 APERTURE END LIST*
G04 #@! TA.AperFunction,SMDPad,CuDef*
D10*
G36*
X150219868Y-80340313D02*
G01*
X149583832Y-80737753D01*
X149318872Y-80313729D01*
X149954908Y-79916289D01*
X150219868Y-80340313D01*
G37*
G04 #@! TD.AperFunction*
G04 #@! TA.AperFunction,SMDPad,CuDef*
G36*
X150723291Y-81145959D02*
G01*
X150087255Y-81543399D01*
X149822295Y-81119375D01*
X150458331Y-80721935D01*
X150723291Y-81145959D01*
G37*
G04 #@! TD.AperFunction*
G04 #@! TA.AperFunction,SMDPad,CuDef*
G36*
X149716444Y-79534667D02*
G01*
X149080408Y-79932107D01*
X148815448Y-79508083D01*
X149451484Y-79110643D01*
X149716444Y-79534667D01*
G37*
G04 #@! TD.AperFunction*
G04 #@! TA.AperFunction,SMDPad,CuDef*
G36*
X148475963Y-82550245D02*
G01*
X147839927Y-82947685D01*
X147574967Y-82523661D01*
X148211003Y-82126221D01*
X148475963Y-82550245D01*
G37*
G04 #@! TD.AperFunction*
G04 #@! TA.AperFunction,SMDPad,CuDef*
G36*
X147972540Y-81744599D02*
G01*
X147336504Y-82142039D01*
X147071544Y-81718015D01*
X147707580Y-81320575D01*
X147972540Y-81744599D01*
G37*
G04 #@! TD.AperFunction*
G04 #@! TA.AperFunction,SMDPad,CuDef*
G36*
X147469117Y-80938954D02*
G01*
X146833081Y-81336394D01*
X146568121Y-80912370D01*
X147204157Y-80514930D01*
X147469117Y-80938954D01*
G37*
G04 #@! TD.AperFunction*
G04 #@! TA.AperFunction,SMDPad,CuDef*
G36*
X151215967Y-78979103D02*
G01*
X151230214Y-78981663D01*
X151244141Y-78985608D01*
X151257615Y-78990898D01*
X151270505Y-78997484D01*
X151282688Y-79005301D01*
X151294045Y-79014275D01*
X151304469Y-79024318D01*
X151313857Y-79035336D01*
X151322121Y-79047220D01*
X151478447Y-79297394D01*
X151485506Y-79310031D01*
X151491292Y-79323299D01*
X151495750Y-79337070D01*
X151498837Y-79351213D01*
X151500523Y-79365589D01*
X151500791Y-79380061D01*
X151499640Y-79394491D01*
X151497080Y-79408737D01*
X151493135Y-79422665D01*
X151487845Y-79436138D01*
X151481259Y-79449028D01*
X151473442Y-79461211D01*
X151464468Y-79472568D01*
X151454424Y-79482992D01*
X151443407Y-79492380D01*
X151431523Y-79500644D01*
X151138947Y-79683466D01*
X151126310Y-79690525D01*
X151113042Y-79696311D01*
X151099271Y-79700769D01*
X151085129Y-79703856D01*
X151070752Y-79705542D01*
X151056280Y-79705810D01*
X151041851Y-79704659D01*
X151027604Y-79702099D01*
X151013677Y-79698154D01*
X151000203Y-79692864D01*
X150987313Y-79686278D01*
X150975130Y-79678461D01*
X150963773Y-79669487D01*
X150953349Y-79659444D01*
X150943961Y-79648426D01*
X150935697Y-79636542D01*
X150779371Y-79386368D01*
X150772312Y-79373731D01*
X150766526Y-79360463D01*
X150762068Y-79346692D01*
X150758981Y-79332549D01*
X150757295Y-79318173D01*
X150757027Y-79303701D01*
X150758178Y-79289271D01*
X150760738Y-79275025D01*
X150764683Y-79261097D01*
X150769973Y-79247624D01*
X150776559Y-79234734D01*
X150784376Y-79222551D01*
X150793350Y-79211194D01*
X150803394Y-79200770D01*
X150814411Y-79191382D01*
X150826295Y-79183118D01*
X151118871Y-79000296D01*
X151131508Y-78993237D01*
X151144776Y-78987451D01*
X151158547Y-78982993D01*
X151172689Y-78979906D01*
X151187066Y-78978220D01*
X151201538Y-78977952D01*
X151215967Y-78979103D01*
G37*
G04 #@! TD.AperFunction*
G04 #@! TA.AperFunction,SMDPad,CuDef*
G36*
X151729989Y-79801709D02*
G01*
X151744236Y-79804269D01*
X151758163Y-79808214D01*
X151771637Y-79813504D01*
X151784527Y-79820090D01*
X151796710Y-79827907D01*
X151808067Y-79836881D01*
X151818491Y-79846924D01*
X151827879Y-79857942D01*
X151836143Y-79869826D01*
X151992469Y-80120000D01*
X151999528Y-80132637D01*
X152005314Y-80145905D01*
X152009772Y-80159676D01*
X152012859Y-80173819D01*
X152014545Y-80188195D01*
X152014813Y-80202667D01*
X152013662Y-80217097D01*
X152011102Y-80231343D01*
X152007157Y-80245271D01*
X152001867Y-80258744D01*
X151995281Y-80271634D01*
X151987464Y-80283817D01*
X151978490Y-80295174D01*
X151968446Y-80305598D01*
X151957429Y-80314986D01*
X151945545Y-80323250D01*
X151652969Y-80506072D01*
X151640332Y-80513131D01*
X151627064Y-80518917D01*
X151613293Y-80523375D01*
X151599151Y-80526462D01*
X151584774Y-80528148D01*
X151570302Y-80528416D01*
X151555873Y-80527265D01*
X151541626Y-80524705D01*
X151527699Y-80520760D01*
X151514225Y-80515470D01*
X151501335Y-80508884D01*
X151489152Y-80501067D01*
X151477795Y-80492093D01*
X151467371Y-80482050D01*
X151457983Y-80471032D01*
X151449719Y-80459148D01*
X151293393Y-80208974D01*
X151286334Y-80196337D01*
X151280548Y-80183069D01*
X151276090Y-80169298D01*
X151273003Y-80155155D01*
X151271317Y-80140779D01*
X151271049Y-80126307D01*
X151272200Y-80111877D01*
X151274760Y-80097631D01*
X151278705Y-80083703D01*
X151283995Y-80070230D01*
X151290581Y-80057340D01*
X151298398Y-80045157D01*
X151307372Y-80033800D01*
X151317416Y-80023376D01*
X151328433Y-80013988D01*
X151340317Y-80005724D01*
X151632893Y-79822902D01*
X151645530Y-79815843D01*
X151658798Y-79810057D01*
X151672569Y-79805599D01*
X151686711Y-79802512D01*
X151701088Y-79800826D01*
X151715560Y-79800558D01*
X151729989Y-79801709D01*
G37*
G04 #@! TD.AperFunction*
D11*
X166850000Y-77540000D03*
X165580000Y-75000000D03*
X164310000Y-77540000D03*
X163040000Y-75000000D03*
X161770000Y-77540000D03*
X160500000Y-75000000D03*
D12*
X155420000Y-75000000D03*
D11*
X156690000Y-77540000D03*
X157960000Y-75000000D03*
X159230000Y-77540000D03*
G04 #@! TA.AperFunction,SMDPad,CuDef*
D10*
G36*
X140717097Y-108486338D02*
G01*
X140731343Y-108488898D01*
X140745271Y-108492843D01*
X140758744Y-108498133D01*
X140771634Y-108504719D01*
X140783817Y-108512536D01*
X140795174Y-108521510D01*
X140805598Y-108531554D01*
X140814986Y-108542571D01*
X140823250Y-108554455D01*
X141006072Y-108847031D01*
X141013131Y-108859668D01*
X141018917Y-108872936D01*
X141023375Y-108886707D01*
X141026462Y-108900849D01*
X141028148Y-108915226D01*
X141028416Y-108929698D01*
X141027265Y-108944127D01*
X141024705Y-108958374D01*
X141020760Y-108972301D01*
X141015470Y-108985775D01*
X141008884Y-108998665D01*
X141001067Y-109010848D01*
X140992093Y-109022205D01*
X140982050Y-109032629D01*
X140971032Y-109042017D01*
X140959148Y-109050281D01*
X140708974Y-109206607D01*
X140696337Y-109213666D01*
X140683069Y-109219452D01*
X140669298Y-109223910D01*
X140655155Y-109226997D01*
X140640779Y-109228683D01*
X140626307Y-109228951D01*
X140611877Y-109227800D01*
X140597631Y-109225240D01*
X140583703Y-109221295D01*
X140570230Y-109216005D01*
X140557340Y-109209419D01*
X140545157Y-109201602D01*
X140533800Y-109192628D01*
X140523376Y-109182584D01*
X140513988Y-109171567D01*
X140505724Y-109159683D01*
X140322902Y-108867107D01*
X140315843Y-108854470D01*
X140310057Y-108841202D01*
X140305599Y-108827431D01*
X140302512Y-108813289D01*
X140300826Y-108798912D01*
X140300558Y-108784440D01*
X140301709Y-108770011D01*
X140304269Y-108755764D01*
X140308214Y-108741837D01*
X140313504Y-108728363D01*
X140320090Y-108715473D01*
X140327907Y-108703290D01*
X140336881Y-108691933D01*
X140346924Y-108681509D01*
X140357942Y-108672121D01*
X140369826Y-108663857D01*
X140620000Y-108507531D01*
X140632637Y-108500472D01*
X140645905Y-108494686D01*
X140659676Y-108490228D01*
X140673819Y-108487141D01*
X140688195Y-108485455D01*
X140702667Y-108485187D01*
X140717097Y-108486338D01*
G37*
G04 #@! TD.AperFunction*
G04 #@! TA.AperFunction,SMDPad,CuDef*
G36*
X139894491Y-109000360D02*
G01*
X139908737Y-109002920D01*
X139922665Y-109006865D01*
X139936138Y-109012155D01*
X139949028Y-109018741D01*
X139961211Y-109026558D01*
X139972568Y-109035532D01*
X139982992Y-109045576D01*
X139992380Y-109056593D01*
X140000644Y-109068477D01*
X140183466Y-109361053D01*
X140190525Y-109373690D01*
X140196311Y-109386958D01*
X140200769Y-109400729D01*
X140203856Y-109414871D01*
X140205542Y-109429248D01*
X140205810Y-109443720D01*
X140204659Y-109458149D01*
X140202099Y-109472396D01*
X140198154Y-109486323D01*
X140192864Y-109499797D01*
X140186278Y-109512687D01*
X140178461Y-109524870D01*
X140169487Y-109536227D01*
X140159444Y-109546651D01*
X140148426Y-109556039D01*
X140136542Y-109564303D01*
X139886368Y-109720629D01*
X139873731Y-109727688D01*
X139860463Y-109733474D01*
X139846692Y-109737932D01*
X139832549Y-109741019D01*
X139818173Y-109742705D01*
X139803701Y-109742973D01*
X139789271Y-109741822D01*
X139775025Y-109739262D01*
X139761097Y-109735317D01*
X139747624Y-109730027D01*
X139734734Y-109723441D01*
X139722551Y-109715624D01*
X139711194Y-109706650D01*
X139700770Y-109696606D01*
X139691382Y-109685589D01*
X139683118Y-109673705D01*
X139500296Y-109381129D01*
X139493237Y-109368492D01*
X139487451Y-109355224D01*
X139482993Y-109341453D01*
X139479906Y-109327311D01*
X139478220Y-109312934D01*
X139477952Y-109298462D01*
X139479103Y-109284033D01*
X139481663Y-109269786D01*
X139485608Y-109255859D01*
X139490898Y-109242385D01*
X139497484Y-109229495D01*
X139505301Y-109217312D01*
X139514275Y-109205955D01*
X139524318Y-109195531D01*
X139535336Y-109186143D01*
X139547220Y-109177879D01*
X139797394Y-109021553D01*
X139810031Y-109014494D01*
X139823299Y-109008708D01*
X139837070Y-109004250D01*
X139851213Y-109001163D01*
X139865589Y-108999477D01*
X139880061Y-108999209D01*
X139894491Y-109000360D01*
G37*
G04 #@! TD.AperFunction*
G04 #@! TA.AperFunction,SMDPad,CuDef*
G36*
X169958149Y-120295341D02*
G01*
X169972396Y-120297901D01*
X169986323Y-120301846D01*
X169999797Y-120307136D01*
X170012687Y-120313722D01*
X170024870Y-120321539D01*
X170036227Y-120330513D01*
X170046651Y-120340556D01*
X170056039Y-120351574D01*
X170064303Y-120363458D01*
X170220629Y-120613632D01*
X170227688Y-120626269D01*
X170233474Y-120639537D01*
X170237932Y-120653308D01*
X170241019Y-120667451D01*
X170242705Y-120681827D01*
X170242973Y-120696299D01*
X170241822Y-120710729D01*
X170239262Y-120724975D01*
X170235317Y-120738903D01*
X170230027Y-120752376D01*
X170223441Y-120765266D01*
X170215624Y-120777449D01*
X170206650Y-120788806D01*
X170196606Y-120799230D01*
X170185589Y-120808618D01*
X170173705Y-120816882D01*
X169881129Y-120999704D01*
X169868492Y-121006763D01*
X169855224Y-121012549D01*
X169841453Y-121017007D01*
X169827311Y-121020094D01*
X169812934Y-121021780D01*
X169798462Y-121022048D01*
X169784033Y-121020897D01*
X169769786Y-121018337D01*
X169755859Y-121014392D01*
X169742385Y-121009102D01*
X169729495Y-121002516D01*
X169717312Y-120994699D01*
X169705955Y-120985725D01*
X169695531Y-120975682D01*
X169686143Y-120964664D01*
X169677879Y-120952780D01*
X169521553Y-120702606D01*
X169514494Y-120689969D01*
X169508708Y-120676701D01*
X169504250Y-120662930D01*
X169501163Y-120648787D01*
X169499477Y-120634411D01*
X169499209Y-120619939D01*
X169500360Y-120605509D01*
X169502920Y-120591263D01*
X169506865Y-120577335D01*
X169512155Y-120563862D01*
X169518741Y-120550972D01*
X169526558Y-120538789D01*
X169535532Y-120527432D01*
X169545576Y-120517008D01*
X169556593Y-120507620D01*
X169568477Y-120499356D01*
X169861053Y-120316534D01*
X169873690Y-120309475D01*
X169886958Y-120303689D01*
X169900729Y-120299231D01*
X169914871Y-120296144D01*
X169929248Y-120294458D01*
X169943720Y-120294190D01*
X169958149Y-120295341D01*
G37*
G04 #@! TD.AperFunction*
G04 #@! TA.AperFunction,SMDPad,CuDef*
G36*
X169444127Y-119472735D02*
G01*
X169458374Y-119475295D01*
X169472301Y-119479240D01*
X169485775Y-119484530D01*
X169498665Y-119491116D01*
X169510848Y-119498933D01*
X169522205Y-119507907D01*
X169532629Y-119517950D01*
X169542017Y-119528968D01*
X169550281Y-119540852D01*
X169706607Y-119791026D01*
X169713666Y-119803663D01*
X169719452Y-119816931D01*
X169723910Y-119830702D01*
X169726997Y-119844845D01*
X169728683Y-119859221D01*
X169728951Y-119873693D01*
X169727800Y-119888123D01*
X169725240Y-119902369D01*
X169721295Y-119916297D01*
X169716005Y-119929770D01*
X169709419Y-119942660D01*
X169701602Y-119954843D01*
X169692628Y-119966200D01*
X169682584Y-119976624D01*
X169671567Y-119986012D01*
X169659683Y-119994276D01*
X169367107Y-120177098D01*
X169354470Y-120184157D01*
X169341202Y-120189943D01*
X169327431Y-120194401D01*
X169313289Y-120197488D01*
X169298912Y-120199174D01*
X169284440Y-120199442D01*
X169270011Y-120198291D01*
X169255764Y-120195731D01*
X169241837Y-120191786D01*
X169228363Y-120186496D01*
X169215473Y-120179910D01*
X169203290Y-120172093D01*
X169191933Y-120163119D01*
X169181509Y-120153076D01*
X169172121Y-120142058D01*
X169163857Y-120130174D01*
X169007531Y-119880000D01*
X169000472Y-119867363D01*
X168994686Y-119854095D01*
X168990228Y-119840324D01*
X168987141Y-119826181D01*
X168985455Y-119811805D01*
X168985187Y-119797333D01*
X168986338Y-119782903D01*
X168988898Y-119768657D01*
X168992843Y-119754729D01*
X168998133Y-119741256D01*
X169004719Y-119728366D01*
X169012536Y-119716183D01*
X169021510Y-119704826D01*
X169031554Y-119694402D01*
X169042571Y-119685014D01*
X169054455Y-119676750D01*
X169347031Y-119493928D01*
X169359668Y-119486869D01*
X169372936Y-119481083D01*
X169386707Y-119476625D01*
X169400849Y-119473538D01*
X169415226Y-119471852D01*
X169429698Y-119471584D01*
X169444127Y-119472735D01*
G37*
G04 #@! TD.AperFunction*
G04 #@! TA.AperFunction,SMDPad,CuDef*
G36*
X181210729Y-90258178D02*
G01*
X181224975Y-90260738D01*
X181238903Y-90264683D01*
X181252376Y-90269973D01*
X181265266Y-90276559D01*
X181277449Y-90284376D01*
X181288806Y-90293350D01*
X181299230Y-90303394D01*
X181308618Y-90314411D01*
X181316882Y-90326295D01*
X181499704Y-90618871D01*
X181506763Y-90631508D01*
X181512549Y-90644776D01*
X181517007Y-90658547D01*
X181520094Y-90672689D01*
X181521780Y-90687066D01*
X181522048Y-90701538D01*
X181520897Y-90715967D01*
X181518337Y-90730214D01*
X181514392Y-90744141D01*
X181509102Y-90757615D01*
X181502516Y-90770505D01*
X181494699Y-90782688D01*
X181485725Y-90794045D01*
X181475682Y-90804469D01*
X181464664Y-90813857D01*
X181452780Y-90822121D01*
X181202606Y-90978447D01*
X181189969Y-90985506D01*
X181176701Y-90991292D01*
X181162930Y-90995750D01*
X181148787Y-90998837D01*
X181134411Y-91000523D01*
X181119939Y-91000791D01*
X181105509Y-90999640D01*
X181091263Y-90997080D01*
X181077335Y-90993135D01*
X181063862Y-90987845D01*
X181050972Y-90981259D01*
X181038789Y-90973442D01*
X181027432Y-90964468D01*
X181017008Y-90954424D01*
X181007620Y-90943407D01*
X180999356Y-90931523D01*
X180816534Y-90638947D01*
X180809475Y-90626310D01*
X180803689Y-90613042D01*
X180799231Y-90599271D01*
X180796144Y-90585129D01*
X180794458Y-90570752D01*
X180794190Y-90556280D01*
X180795341Y-90541851D01*
X180797901Y-90527604D01*
X180801846Y-90513677D01*
X180807136Y-90500203D01*
X180813722Y-90487313D01*
X180821539Y-90475130D01*
X180830513Y-90463773D01*
X180840556Y-90453349D01*
X180851574Y-90443961D01*
X180863458Y-90435697D01*
X181113632Y-90279371D01*
X181126269Y-90272312D01*
X181139537Y-90266526D01*
X181153308Y-90262068D01*
X181167451Y-90258981D01*
X181181827Y-90257295D01*
X181196299Y-90257027D01*
X181210729Y-90258178D01*
G37*
G04 #@! TD.AperFunction*
G04 #@! TA.AperFunction,SMDPad,CuDef*
G36*
X180388123Y-90772200D02*
G01*
X180402369Y-90774760D01*
X180416297Y-90778705D01*
X180429770Y-90783995D01*
X180442660Y-90790581D01*
X180454843Y-90798398D01*
X180466200Y-90807372D01*
X180476624Y-90817416D01*
X180486012Y-90828433D01*
X180494276Y-90840317D01*
X180677098Y-91132893D01*
X180684157Y-91145530D01*
X180689943Y-91158798D01*
X180694401Y-91172569D01*
X180697488Y-91186711D01*
X180699174Y-91201088D01*
X180699442Y-91215560D01*
X180698291Y-91229989D01*
X180695731Y-91244236D01*
X180691786Y-91258163D01*
X180686496Y-91271637D01*
X180679910Y-91284527D01*
X180672093Y-91296710D01*
X180663119Y-91308067D01*
X180653076Y-91318491D01*
X180642058Y-91327879D01*
X180630174Y-91336143D01*
X180380000Y-91492469D01*
X180367363Y-91499528D01*
X180354095Y-91505314D01*
X180340324Y-91509772D01*
X180326181Y-91512859D01*
X180311805Y-91514545D01*
X180297333Y-91514813D01*
X180282903Y-91513662D01*
X180268657Y-91511102D01*
X180254729Y-91507157D01*
X180241256Y-91501867D01*
X180228366Y-91495281D01*
X180216183Y-91487464D01*
X180204826Y-91478490D01*
X180194402Y-91468446D01*
X180185014Y-91457429D01*
X180176750Y-91445545D01*
X179993928Y-91152969D01*
X179986869Y-91140332D01*
X179981083Y-91127064D01*
X179976625Y-91113293D01*
X179973538Y-91099151D01*
X179971852Y-91084774D01*
X179971584Y-91070302D01*
X179972735Y-91055873D01*
X179975295Y-91041626D01*
X179979240Y-91027699D01*
X179984530Y-91014225D01*
X179991116Y-91001335D01*
X179998933Y-90989152D01*
X180007907Y-90977795D01*
X180017950Y-90967371D01*
X180028968Y-90957983D01*
X180040852Y-90949719D01*
X180291026Y-90793393D01*
X180303663Y-90786334D01*
X180316931Y-90780548D01*
X180330702Y-90776090D01*
X180344845Y-90773003D01*
X180359221Y-90771317D01*
X180373693Y-90771049D01*
X180388123Y-90772200D01*
G37*
G04 #@! TD.AperFunction*
G04 #@! TA.AperFunction,SMDPad,CuDef*
G36*
X140840313Y-110280132D02*
G01*
X141237753Y-110916168D01*
X140813729Y-111181128D01*
X140416289Y-110545092D01*
X140840313Y-110280132D01*
G37*
G04 #@! TD.AperFunction*
G04 #@! TA.AperFunction,SMDPad,CuDef*
G36*
X141645959Y-109776709D02*
G01*
X142043399Y-110412745D01*
X141619375Y-110677705D01*
X141221935Y-110041669D01*
X141645959Y-109776709D01*
G37*
G04 #@! TD.AperFunction*
G04 #@! TA.AperFunction,SMDPad,CuDef*
G36*
X140034667Y-110783556D02*
G01*
X140432107Y-111419592D01*
X140008083Y-111684552D01*
X139610643Y-111048516D01*
X140034667Y-110783556D01*
G37*
G04 #@! TD.AperFunction*
G04 #@! TA.AperFunction,SMDPad,CuDef*
G36*
X143050245Y-112024037D02*
G01*
X143447685Y-112660073D01*
X143023661Y-112925033D01*
X142626221Y-112288997D01*
X143050245Y-112024037D01*
G37*
G04 #@! TD.AperFunction*
G04 #@! TA.AperFunction,SMDPad,CuDef*
G36*
X142244599Y-112527460D02*
G01*
X142642039Y-113163496D01*
X142218015Y-113428456D01*
X141820575Y-112792420D01*
X142244599Y-112527460D01*
G37*
G04 #@! TD.AperFunction*
G04 #@! TA.AperFunction,SMDPad,CuDef*
G36*
X141438954Y-113030883D02*
G01*
X141836394Y-113666919D01*
X141412370Y-113931879D01*
X141014930Y-113295843D01*
X141438954Y-113030883D01*
G37*
G04 #@! TD.AperFunction*
G04 #@! TA.AperFunction,SMDPad,CuDef*
G36*
X173530883Y-119061046D02*
G01*
X174166919Y-118663606D01*
X174431879Y-119087630D01*
X173795843Y-119485070D01*
X173530883Y-119061046D01*
G37*
G04 #@! TD.AperFunction*
G04 #@! TA.AperFunction,SMDPad,CuDef*
G36*
X173027460Y-118255401D02*
G01*
X173663496Y-117857961D01*
X173928456Y-118281985D01*
X173292420Y-118679425D01*
X173027460Y-118255401D01*
G37*
G04 #@! TD.AperFunction*
G04 #@! TA.AperFunction,SMDPad,CuDef*
G36*
X172524037Y-117449755D02*
G01*
X173160073Y-117052315D01*
X173425033Y-117476339D01*
X172788997Y-117873779D01*
X172524037Y-117449755D01*
G37*
G04 #@! TD.AperFunction*
G04 #@! TA.AperFunction,SMDPad,CuDef*
G36*
X171283556Y-120465333D02*
G01*
X171919592Y-120067893D01*
X172184552Y-120491917D01*
X171548516Y-120889357D01*
X171283556Y-120465333D01*
G37*
G04 #@! TD.AperFunction*
G04 #@! TA.AperFunction,SMDPad,CuDef*
G36*
X170276709Y-118854041D02*
G01*
X170912745Y-118456601D01*
X171177705Y-118880625D01*
X170541669Y-119278065D01*
X170276709Y-118854041D01*
G37*
G04 #@! TD.AperFunction*
G04 #@! TA.AperFunction,SMDPad,CuDef*
G36*
X170780132Y-119659687D02*
G01*
X171416168Y-119262247D01*
X171681128Y-119686271D01*
X171045092Y-120083711D01*
X170780132Y-119659687D01*
G37*
G04 #@! TD.AperFunction*
G04 #@! TA.AperFunction,SMDPad,CuDef*
G36*
X179561046Y-86969117D02*
G01*
X179163606Y-86333081D01*
X179587630Y-86068121D01*
X179985070Y-86704157D01*
X179561046Y-86969117D01*
G37*
G04 #@! TD.AperFunction*
G04 #@! TA.AperFunction,SMDPad,CuDef*
G36*
X178755401Y-87472540D02*
G01*
X178357961Y-86836504D01*
X178781985Y-86571544D01*
X179179425Y-87207580D01*
X178755401Y-87472540D01*
G37*
G04 #@! TD.AperFunction*
G04 #@! TA.AperFunction,SMDPad,CuDef*
G36*
X177949755Y-87975963D02*
G01*
X177552315Y-87339927D01*
X177976339Y-87074967D01*
X178373779Y-87711003D01*
X177949755Y-87975963D01*
G37*
G04 #@! TD.AperFunction*
G04 #@! TA.AperFunction,SMDPad,CuDef*
G36*
X180965333Y-89216444D02*
G01*
X180567893Y-88580408D01*
X180991917Y-88315448D01*
X181389357Y-88951484D01*
X180965333Y-89216444D01*
G37*
G04 #@! TD.AperFunction*
G04 #@! TA.AperFunction,SMDPad,CuDef*
G36*
X179354041Y-90223291D02*
G01*
X178956601Y-89587255D01*
X179380625Y-89322295D01*
X179778065Y-89958331D01*
X179354041Y-90223291D01*
G37*
G04 #@! TD.AperFunction*
G04 #@! TA.AperFunction,SMDPad,CuDef*
G36*
X180159687Y-89719868D02*
G01*
X179762247Y-89083832D01*
X180186271Y-88818872D01*
X180583711Y-89454908D01*
X180159687Y-89719868D01*
G37*
G04 #@! TD.AperFunction*
D13*
X137400000Y-94400000D03*
X184100000Y-96900000D03*
X154900000Y-123800000D03*
D14*
X146300000Y-79700000D03*
X138600000Y-109700000D03*
X182800000Y-92200000D03*
X150500000Y-77000000D03*
X152500000Y-78700000D03*
X147900000Y-78000000D03*
X168500000Y-76000000D03*
X174500000Y-80900000D03*
X181000000Y-87400000D03*
D15*
X151128909Y-79341881D02*
X149769370Y-80327021D01*
X149769370Y-80327021D02*
X147522042Y-81731307D01*
X147522042Y-81731307D02*
X148025465Y-82536953D01*
X142231307Y-112977958D02*
X143036953Y-112474535D01*
X140827021Y-110730630D02*
X142231307Y-112977958D01*
X139841881Y-109371091D02*
X140827021Y-110730630D01*
X169871091Y-120658119D02*
X171230630Y-119672979D01*
X171230630Y-119672979D02*
X173477958Y-118268693D01*
X173477958Y-118268693D02*
X172974535Y-117463047D01*
X181158119Y-90628909D02*
X180172979Y-89269370D01*
X180172979Y-89269370D02*
X178768693Y-87022042D01*
X178768693Y-87022042D02*
X177963047Y-87525465D01*
X156690000Y-77540000D02*
X151642931Y-80164487D01*
X151642931Y-80164487D02*
X150272793Y-81132667D01*
X141000000Y-108700000D02*
X140664487Y-108857069D01*
X141000000Y-108700000D02*
X141632667Y-110227207D01*
X165800000Y-120600000D02*
X167900000Y-120000000D01*
X144300000Y-113000000D02*
X146000000Y-115600000D01*
X150900000Y-119000000D02*
X152900000Y-119900000D01*
X161800000Y-121300000D02*
X163800000Y-121000000D01*
X149100000Y-118000000D02*
X150900000Y-119000000D01*
X141632667Y-110227207D02*
X143000000Y-111000000D01*
X146000000Y-115600000D02*
X147500000Y-116900000D01*
X143000000Y-111000000D02*
X144300000Y-113000000D01*
X157700000Y-121100000D02*
X159900000Y-121300000D01*
X152900000Y-119900000D02*
X155700000Y-120800000D01*
X169200000Y-119500000D02*
X170727207Y-118867333D01*
X167900000Y-120000000D02*
X169200000Y-119500000D01*
X155700000Y-120800000D02*
X157700000Y-121100000D01*
X163800000Y-121000000D02*
X165800000Y-120600000D01*
X147500000Y-116900000D02*
X149100000Y-118000000D01*
X159900000Y-121300000D02*
X161800000Y-121300000D01*
X169200000Y-119500000D02*
X169357069Y-119835513D01*
X181800000Y-100600000D02*
X181800000Y-98700000D01*
X180000000Y-91300000D02*
X180335513Y-91142931D01*
X181800000Y-98700000D02*
X181500000Y-96700000D01*
X170727207Y-118867333D02*
X171500000Y-117500000D01*
X181100000Y-94700000D02*
X180500000Y-92600000D01*
X180400000Y-107600000D02*
X181300000Y-104800000D01*
X180000000Y-91300000D02*
X179367333Y-89772793D01*
X180500000Y-92600000D02*
X180000000Y-91300000D01*
X181300000Y-104800000D02*
X181600000Y-102800000D01*
X178500000Y-111400000D02*
X179500000Y-109600000D01*
X181500000Y-96700000D02*
X181100000Y-94700000D01*
X177400000Y-113000000D02*
X178500000Y-111400000D01*
X173500000Y-116200000D02*
X176100000Y-114500000D01*
X171500000Y-117500000D02*
X173500000Y-116200000D01*
X181600000Y-102800000D02*
X181800000Y-100600000D01*
X176100000Y-114500000D02*
X177400000Y-113000000D01*
X179500000Y-109600000D02*
X180400000Y-107600000D01*
X139900000Y-105300000D02*
X140500000Y-107400000D01*
X139500000Y-103300000D02*
X139900000Y-105300000D01*
X139200000Y-99400000D02*
X139200000Y-101300000D01*
X139400000Y-97200000D02*
X139200000Y-99400000D01*
X140600000Y-92400000D02*
X139700000Y-95200000D01*
X139700000Y-95200000D02*
X139400000Y-97200000D01*
X150272793Y-81132667D02*
X149500000Y-82500000D01*
X141500000Y-90400000D02*
X140600000Y-92400000D01*
X149500000Y-82500000D02*
X147500000Y-83800000D01*
X143600000Y-87000000D02*
X142500000Y-88600000D01*
X140500000Y-107400000D02*
X141000000Y-108700000D01*
X144300000Y-87000000D02*
X143600000Y-87000000D01*
X139200000Y-101300000D02*
X139500000Y-103300000D01*
X147500000Y-83800000D02*
X144300000Y-87000000D01*
X142500000Y-88600000D02*
X141500000Y-90400000D01*
X147018619Y-80925662D02*
X147018619Y-80081381D01*
X147018619Y-80081381D02*
X150100000Y-77000000D01*
X150100000Y-77000000D02*
X150500000Y-77000000D01*
X149265946Y-79226581D02*
X150192527Y-78300000D01*
X149265946Y-79521375D02*
X149265946Y-79226581D01*
X152100001Y-78300001D02*
X152500000Y-78700000D01*
X150192527Y-78300000D02*
X152100001Y-78300001D01*
X137600000Y-112900000D02*
X141425662Y-113481381D01*
X135900000Y-109300000D02*
X136700000Y-111300000D01*
X135100000Y-106700000D02*
X135900000Y-109300000D01*
X134700000Y-104800000D02*
X135100000Y-106700000D01*
X134300000Y-102400000D02*
X134700000Y-104800000D01*
X134300000Y-98500000D02*
X134300000Y-102400000D01*
X136100000Y-90200000D02*
X135400000Y-92100000D01*
X136900000Y-88400000D02*
X136100000Y-90200000D01*
X138400000Y-85800000D02*
X137600000Y-87100000D01*
X137600000Y-87100000D02*
X136900000Y-88400000D01*
X146600000Y-77700000D02*
X145700000Y-78300000D01*
X134400000Y-96700000D02*
X134300000Y-98500000D01*
X145700000Y-78300000D02*
X144600000Y-79100000D01*
X136700000Y-111300000D02*
X137600000Y-112900000D01*
X147625001Y-77074999D02*
X146600000Y-77700000D01*
X135000000Y-93500000D02*
X134400000Y-96700000D01*
X143600000Y-79900000D02*
X142400000Y-80900000D01*
X144600000Y-79100000D02*
X143600000Y-79900000D01*
X135400000Y-92100000D02*
X135000000Y-93500000D01*
X140200000Y-83300000D02*
X139100000Y-84700000D01*
X142400000Y-80900000D02*
X141100000Y-82200000D01*
X141100000Y-82200000D02*
X140200000Y-83300000D01*
X139100000Y-84700000D02*
X138400000Y-85800000D01*
X154536025Y-77875051D02*
X153175051Y-77875051D01*
X156096077Y-76314999D02*
X154536025Y-77875051D01*
X160500000Y-75000000D02*
X159185001Y-76314999D01*
X159185001Y-76314999D02*
X156096077Y-76314999D01*
X153175051Y-77875051D02*
X151400000Y-76100000D01*
X151400000Y-76100000D02*
X149600000Y-76100000D01*
X149600000Y-76100000D02*
X147625001Y-77074999D01*
X147900000Y-78000000D02*
X145700000Y-78900000D01*
X145700000Y-78900000D02*
X144300000Y-80000000D01*
X144300000Y-80000000D02*
X143100000Y-81000000D01*
X143100000Y-81000000D02*
X141900000Y-82100000D01*
X141900000Y-82100000D02*
X140600000Y-83600000D01*
X140600000Y-83600000D02*
X139400000Y-85100000D01*
X139400000Y-85100000D02*
X138400000Y-86700000D01*
X138400000Y-86700000D02*
X137400000Y-88500000D01*
X137400000Y-88500000D02*
X136500000Y-90600000D01*
X136500000Y-90600000D02*
X136000000Y-92000000D01*
X136000000Y-92000000D02*
X135400000Y-94300000D01*
X135400000Y-94300000D02*
X135000000Y-96100000D01*
X135000000Y-96100000D02*
X134800000Y-98400000D01*
X134800000Y-98400000D02*
X134800000Y-101400000D01*
X134800000Y-101400000D02*
X135000000Y-103800000D01*
X135000000Y-103800000D02*
X135400000Y-105800000D01*
X135400000Y-105800000D02*
X135800000Y-107200000D01*
X135800000Y-107200000D02*
X136500000Y-109300000D01*
X136500000Y-109300000D02*
X137100000Y-110700000D01*
X137100000Y-110700000D02*
X140021375Y-111234054D01*
X173981381Y-119074338D02*
X177300000Y-119300000D01*
X177300000Y-119300000D02*
X178500000Y-118600000D01*
X178500000Y-118600000D02*
X180100000Y-116700000D01*
X180100000Y-116700000D02*
X181700000Y-114600000D01*
X181700000Y-114600000D02*
X182900000Y-112500000D01*
X182900000Y-112500000D02*
X184200000Y-110100000D01*
X184200000Y-110100000D02*
X185300000Y-106900000D01*
X185300000Y-106900000D02*
X185900000Y-103700000D01*
X185900000Y-103700000D02*
X186200000Y-100100000D01*
X186200000Y-100100000D02*
X186100000Y-96900000D01*
X186100000Y-96900000D02*
X185200000Y-92900000D01*
X185200000Y-92900000D02*
X184200000Y-90000000D01*
X184200000Y-90000000D02*
X182400000Y-86700000D01*
X182400000Y-86700000D02*
X180900000Y-84400000D01*
X180900000Y-84400000D02*
X179300000Y-82500000D01*
X179300000Y-82500000D02*
X176700000Y-80000000D01*
X176700000Y-80000000D02*
X173400000Y-77700000D01*
X173400000Y-77700000D02*
X170000000Y-76100000D01*
X170000000Y-76100000D02*
X168600000Y-75800000D01*
X168600000Y-75800000D02*
X168500000Y-76000000D01*
X171734054Y-120478625D02*
X175300000Y-121700000D01*
X175300000Y-121700000D02*
X177400000Y-120200000D01*
X177400000Y-120200000D02*
X179300000Y-118500000D01*
X179300000Y-118500000D02*
X180900000Y-116600000D01*
X180900000Y-116600000D02*
X182600000Y-114300000D01*
X182600000Y-114300000D02*
X184000000Y-111800000D01*
X184000000Y-111800000D02*
X185300000Y-108900000D01*
X185300000Y-108900000D02*
X186100000Y-106200000D01*
X186100000Y-106200000D02*
X186600000Y-103100000D01*
X186600000Y-103100000D02*
X186800000Y-99300000D01*
X186800000Y-99300000D02*
X186500000Y-96000000D01*
X186500000Y-96000000D02*
X185700000Y-92800000D01*
X185700000Y-92800000D02*
X184700000Y-89800000D01*
X184700000Y-89800000D02*
X183300000Y-87000000D01*
X183300000Y-87000000D02*
X181200000Y-83800000D01*
X181200000Y-83800000D02*
X179200000Y-81600000D01*
X179200000Y-81600000D02*
X177400000Y-79900000D01*
X177400000Y-79900000D02*
X175300000Y-78300000D01*
X175300000Y-78300000D02*
X172800000Y-76700000D01*
X172800000Y-76700000D02*
X170000000Y-75500000D01*
X170000000Y-75500000D02*
X168400000Y-75000000D01*
X164310000Y-77540000D02*
X168400000Y-75000000D01*
X175192008Y-84306992D02*
X176385016Y-85500000D01*
X174500000Y-80900000D02*
X175192008Y-81592008D01*
X175192008Y-81592008D02*
X175192008Y-84306992D01*
X178555719Y-85500000D02*
X179574338Y-86518619D01*
X176385016Y-85500000D02*
X178555719Y-85500000D01*
X181000000Y-88744571D02*
X180978625Y-88765946D01*
X181000000Y-87400000D02*
X181000000Y-88744571D01*
D16*
G36*
X140016727Y-107535854D02*
G01*
X140022611Y-107557197D01*
X140023443Y-107559361D01*
X140024087Y-107561614D01*
X140032312Y-107582420D01*
X140294536Y-108264203D01*
X140169080Y-108342596D01*
X140087361Y-108405585D01*
X140019500Y-108483306D01*
X139968107Y-108572773D01*
X139935155Y-108670547D01*
X139921910Y-108772871D01*
X139928883Y-108875813D01*
X139955805Y-108975416D01*
X140001641Y-109067853D01*
X140184463Y-109360429D01*
X140247452Y-109442148D01*
X140325173Y-109510008D01*
X140414640Y-109561402D01*
X140512414Y-109594354D01*
X140614738Y-109607599D01*
X140717679Y-109600626D01*
X140817283Y-109573704D01*
X140818354Y-109573173D01*
X140918801Y-109815646D01*
X140913528Y-109821685D01*
X140876538Y-109886079D01*
X140852820Y-109956452D01*
X140843288Y-110030101D01*
X140848306Y-110104193D01*
X140867683Y-110175883D01*
X140900674Y-110242415D01*
X141298114Y-110878451D01*
X141343451Y-110937269D01*
X141399391Y-110986112D01*
X141463785Y-111023102D01*
X141534158Y-111046820D01*
X141607807Y-111056352D01*
X141681899Y-111051334D01*
X141753589Y-111031957D01*
X141820121Y-110998966D01*
X141895062Y-110952137D01*
X142646051Y-111376584D01*
X143866040Y-113253491D01*
X143866350Y-113254085D01*
X143879298Y-113273888D01*
X143892536Y-113294254D01*
X143892966Y-113294791D01*
X145577571Y-115871248D01*
X145601616Y-115909415D01*
X145621577Y-115930479D01*
X145639775Y-115953109D01*
X145674428Y-115982131D01*
X147136475Y-117249239D01*
X147138625Y-117251931D01*
X147173738Y-117281534D01*
X147189854Y-117295501D01*
X147192664Y-117297490D01*
X147195288Y-117299702D01*
X147212798Y-117311740D01*
X147250348Y-117338317D01*
X147253501Y-117339723D01*
X148815314Y-118413470D01*
X148834657Y-118426854D01*
X148835303Y-118427213D01*
X148835917Y-118427635D01*
X148856673Y-118439085D01*
X150653262Y-119437190D01*
X150671516Y-119447667D01*
X150674692Y-119449096D01*
X150677757Y-119450799D01*
X150697194Y-119459222D01*
X152652077Y-120338920D01*
X152654919Y-120340888D01*
X152697032Y-120359150D01*
X152716478Y-120367901D01*
X152719754Y-120369004D01*
X152722914Y-120370374D01*
X152743146Y-120376877D01*
X152786718Y-120391543D01*
X152790151Y-120391986D01*
X155514703Y-121267735D01*
X155529291Y-121274664D01*
X155561654Y-121282826D01*
X155569853Y-121285462D01*
X155585561Y-121288856D01*
X155601153Y-121292789D01*
X155609676Y-121294067D01*
X155642294Y-121301116D01*
X155658440Y-121301382D01*
X157615649Y-121594963D01*
X157630000Y-121597706D01*
X157639984Y-121598614D01*
X157649913Y-121600103D01*
X157664526Y-121600845D01*
X159529976Y-121770431D01*
X159239736Y-121964364D01*
X158964364Y-122239736D01*
X158748005Y-122563539D01*
X158598975Y-122923330D01*
X158523000Y-123305282D01*
X158523000Y-123694718D01*
X158598975Y-124076670D01*
X158748005Y-124436461D01*
X158964364Y-124760264D01*
X159239736Y-125035636D01*
X159563539Y-125251995D01*
X159923330Y-125401025D01*
X160305282Y-125477000D01*
X160694718Y-125477000D01*
X161076670Y-125401025D01*
X161436461Y-125251995D01*
X161760264Y-125035636D01*
X162035636Y-124760264D01*
X162251995Y-124436461D01*
X162401025Y-124076670D01*
X162477000Y-123694718D01*
X162477000Y-123305282D01*
X162401025Y-122923330D01*
X162251995Y-122563539D01*
X162035636Y-122239736D01*
X161760264Y-121964364D01*
X161517270Y-121802000D01*
X161763388Y-121802000D01*
X161776070Y-121803860D01*
X161812714Y-121802000D01*
X161824653Y-121802000D01*
X161837351Y-121800749D01*
X161850086Y-121800103D01*
X161861885Y-121798333D01*
X161898409Y-121794736D01*
X161910678Y-121791014D01*
X163862138Y-121498294D01*
X163874276Y-121497086D01*
X163886523Y-121494637D01*
X163898847Y-121492788D01*
X163910650Y-121489811D01*
X165894244Y-121093092D01*
X165914205Y-121089457D01*
X165918372Y-121088266D01*
X165922624Y-121087416D01*
X165942033Y-121081506D01*
X168035854Y-120483273D01*
X168057197Y-120477389D01*
X168059361Y-120476557D01*
X168061614Y-120475913D01*
X168082420Y-120467688D01*
X168764203Y-120205464D01*
X168842596Y-120330920D01*
X168905585Y-120412639D01*
X168983306Y-120480500D01*
X169072773Y-120531893D01*
X169170547Y-120564845D01*
X169272871Y-120578090D01*
X169375813Y-120571117D01*
X169475416Y-120544195D01*
X169567853Y-120498359D01*
X169860429Y-120315537D01*
X169942148Y-120252548D01*
X170010008Y-120174827D01*
X170061402Y-120085360D01*
X170094354Y-119987586D01*
X170107599Y-119885262D01*
X170100626Y-119782321D01*
X170073704Y-119682717D01*
X170073173Y-119681646D01*
X170315646Y-119581199D01*
X170321685Y-119586472D01*
X170386079Y-119623462D01*
X170456452Y-119647180D01*
X170530101Y-119656712D01*
X170604193Y-119651694D01*
X170675883Y-119632317D01*
X170742415Y-119599326D01*
X171378451Y-119201886D01*
X171437269Y-119156549D01*
X171486112Y-119100609D01*
X171523102Y-119036215D01*
X171546820Y-118965842D01*
X171556352Y-118892193D01*
X171551334Y-118818101D01*
X171531957Y-118746411D01*
X171498966Y-118679879D01*
X171452137Y-118604938D01*
X171876584Y-117853949D01*
X173753491Y-116633960D01*
X173754085Y-116633650D01*
X173773888Y-116620702D01*
X173794254Y-116607464D01*
X173794791Y-116607034D01*
X176371248Y-114922429D01*
X176409415Y-114898384D01*
X176430479Y-114878423D01*
X176453109Y-114860225D01*
X176482131Y-114825572D01*
X177749239Y-113363525D01*
X177751931Y-113361375D01*
X177781534Y-113326262D01*
X177795501Y-113310146D01*
X177797490Y-113307336D01*
X177799702Y-113304712D01*
X177811740Y-113287202D01*
X177838317Y-113249652D01*
X177839723Y-113246499D01*
X178913470Y-111684686D01*
X178926854Y-111665343D01*
X178927213Y-111664697D01*
X178927635Y-111664083D01*
X178939085Y-111643327D01*
X179937190Y-109846738D01*
X179947667Y-109828484D01*
X179949096Y-109825308D01*
X179950799Y-109822243D01*
X179959222Y-109802806D01*
X180838920Y-107847923D01*
X180840888Y-107845081D01*
X180859150Y-107802968D01*
X180867901Y-107783522D01*
X180869004Y-107780246D01*
X180870374Y-107777086D01*
X180876877Y-107756854D01*
X180891543Y-107713282D01*
X180891986Y-107709849D01*
X181384294Y-106178225D01*
X181400925Y-106261835D01*
X181549955Y-106621626D01*
X181766314Y-106945429D01*
X182041686Y-107220801D01*
X182365489Y-107437160D01*
X182725280Y-107586190D01*
X183107232Y-107662165D01*
X183496668Y-107662165D01*
X183878620Y-107586190D01*
X184238411Y-107437160D01*
X184562214Y-107220801D01*
X184709534Y-107073481D01*
X183738788Y-109897473D01*
X182461328Y-112255863D01*
X181280598Y-114322142D01*
X179708133Y-116386003D01*
X178171993Y-118210171D01*
X177180233Y-118788698D01*
X174581359Y-118611977D01*
X174488180Y-118462860D01*
X174442843Y-118404042D01*
X174386903Y-118355199D01*
X174322509Y-118318209D01*
X174252136Y-118294491D01*
X174178487Y-118284959D01*
X174104395Y-118289977D01*
X174032705Y-118309354D01*
X173966173Y-118342345D01*
X173330137Y-118739785D01*
X173271319Y-118785122D01*
X173222476Y-118841062D01*
X173185486Y-118905456D01*
X173161768Y-118975829D01*
X173152236Y-119049478D01*
X173157254Y-119123570D01*
X173176631Y-119195260D01*
X173209622Y-119261792D01*
X173474582Y-119685816D01*
X173519919Y-119744634D01*
X173575859Y-119793477D01*
X173640253Y-119830467D01*
X173710626Y-119854185D01*
X173784275Y-119863717D01*
X173858367Y-119858699D01*
X173930057Y-119839322D01*
X173996589Y-119806331D01*
X174325368Y-119600887D01*
X177105460Y-119789930D01*
X177085805Y-119807516D01*
X175218358Y-121141407D01*
X172443134Y-120190864D01*
X172240853Y-119867147D01*
X172195516Y-119808329D01*
X172139576Y-119759486D01*
X172075182Y-119722496D01*
X172004809Y-119698778D01*
X171931160Y-119689246D01*
X171857068Y-119694264D01*
X171785378Y-119713641D01*
X171718846Y-119746632D01*
X171082810Y-120144072D01*
X171023992Y-120189409D01*
X170975149Y-120245349D01*
X170938159Y-120309743D01*
X170914441Y-120380116D01*
X170904909Y-120453765D01*
X170909927Y-120527857D01*
X170929304Y-120599547D01*
X170962295Y-120666079D01*
X171227255Y-121090103D01*
X171272592Y-121148921D01*
X171328532Y-121197764D01*
X171392926Y-121234754D01*
X171463299Y-121258472D01*
X171536948Y-121268004D01*
X171611040Y-121262986D01*
X171682730Y-121243609D01*
X171749262Y-121210618D01*
X171952032Y-121083913D01*
X175088340Y-122158133D01*
X174066524Y-122819854D01*
X172279874Y-123791403D01*
X170424096Y-124623335D01*
X168510078Y-125310767D01*
X166549055Y-125849666D01*
X164552533Y-126236869D01*
X162532230Y-126470103D01*
X160500000Y-126548000D01*
X158467770Y-126470103D01*
X156447467Y-126236869D01*
X154450945Y-125849666D01*
X152489922Y-125310767D01*
X150575904Y-124623335D01*
X148720126Y-123791403D01*
X148622372Y-123738246D01*
X154273000Y-123738246D01*
X154273000Y-123861754D01*
X154297095Y-123982889D01*
X154344360Y-124096996D01*
X154412977Y-124199689D01*
X154500311Y-124287023D01*
X154603004Y-124355640D01*
X154717111Y-124402905D01*
X154838246Y-124427000D01*
X154961754Y-124427000D01*
X155082889Y-124402905D01*
X155196996Y-124355640D01*
X155299689Y-124287023D01*
X155387023Y-124199689D01*
X155455640Y-124096996D01*
X155502905Y-123982889D01*
X155527000Y-123861754D01*
X155527000Y-123738246D01*
X155502905Y-123617111D01*
X155455640Y-123503004D01*
X155387023Y-123400311D01*
X155299689Y-123312977D01*
X155196996Y-123244360D01*
X155082889Y-123197095D01*
X154961754Y-123173000D01*
X154838246Y-123173000D01*
X154717111Y-123197095D01*
X154603004Y-123244360D01*
X154500311Y-123312977D01*
X154412977Y-123400311D01*
X154344360Y-123503004D01*
X154297095Y-123617111D01*
X154273000Y-123738246D01*
X148622372Y-123738246D01*
X146933476Y-122819854D01*
X145226440Y-121714389D01*
X143609036Y-120481495D01*
X142090754Y-119128407D01*
X140680505Y-117663067D01*
X139386565Y-116094072D01*
X138216527Y-114430631D01*
X137609263Y-113409170D01*
X140956942Y-113917913D01*
X141091109Y-114132625D01*
X141136446Y-114191443D01*
X141192386Y-114240286D01*
X141256780Y-114277276D01*
X141327153Y-114300994D01*
X141400802Y-114310526D01*
X141474894Y-114305508D01*
X141546584Y-114286131D01*
X141613116Y-114253140D01*
X142037140Y-113988180D01*
X142095958Y-113942843D01*
X142144801Y-113886903D01*
X142181791Y-113822509D01*
X142205509Y-113752136D01*
X142215041Y-113678487D01*
X142210023Y-113604395D01*
X142190646Y-113532705D01*
X142157655Y-113466173D01*
X141760215Y-112830137D01*
X141714878Y-112771319D01*
X141658938Y-112722476D01*
X141594544Y-112685486D01*
X141524171Y-112661768D01*
X141450522Y-112652236D01*
X141376430Y-112657254D01*
X141304740Y-112676631D01*
X141238208Y-112709622D01*
X140935046Y-112899059D01*
X137917492Y-112440486D01*
X137239909Y-111235896D01*
X139544260Y-111657152D01*
X139686822Y-111885298D01*
X139732159Y-111944116D01*
X139788099Y-111992959D01*
X139852493Y-112029949D01*
X139922866Y-112053667D01*
X139996515Y-112063199D01*
X140070607Y-112058181D01*
X140142297Y-112038804D01*
X140208829Y-112005813D01*
X140632853Y-111740853D01*
X140691671Y-111695516D01*
X140740514Y-111639576D01*
X140777504Y-111575182D01*
X140801222Y-111504809D01*
X140810754Y-111431160D01*
X140805736Y-111357068D01*
X140786359Y-111285378D01*
X140753368Y-111218846D01*
X140355928Y-110582810D01*
X140310591Y-110523992D01*
X140254651Y-110475149D01*
X140190257Y-110438159D01*
X140119884Y-110414441D01*
X140046235Y-110404909D01*
X139972143Y-110409927D01*
X139900453Y-110429304D01*
X139833921Y-110462295D01*
X139552656Y-110638049D01*
X137455287Y-110254631D01*
X136969635Y-109121442D01*
X136285238Y-107068252D01*
X136437787Y-107220801D01*
X136761590Y-107437160D01*
X137121381Y-107586190D01*
X137503333Y-107662165D01*
X137892769Y-107662165D01*
X138274721Y-107586190D01*
X138634512Y-107437160D01*
X138958315Y-107220801D01*
X139233687Y-106945429D01*
X139450046Y-106621626D01*
X139599076Y-106261835D01*
X139621095Y-106151138D01*
X140016727Y-107535854D01*
G37*
X140016727Y-107535854D02*
X140022611Y-107557197D01*
X140023443Y-107559361D01*
X140024087Y-107561614D01*
X140032312Y-107582420D01*
X140294536Y-108264203D01*
X140169080Y-108342596D01*
X140087361Y-108405585D01*
X140019500Y-108483306D01*
X139968107Y-108572773D01*
X139935155Y-108670547D01*
X139921910Y-108772871D01*
X139928883Y-108875813D01*
X139955805Y-108975416D01*
X140001641Y-109067853D01*
X140184463Y-109360429D01*
X140247452Y-109442148D01*
X140325173Y-109510008D01*
X140414640Y-109561402D01*
X140512414Y-109594354D01*
X140614738Y-109607599D01*
X140717679Y-109600626D01*
X140817283Y-109573704D01*
X140818354Y-109573173D01*
X140918801Y-109815646D01*
X140913528Y-109821685D01*
X140876538Y-109886079D01*
X140852820Y-109956452D01*
X140843288Y-110030101D01*
X140848306Y-110104193D01*
X140867683Y-110175883D01*
X140900674Y-110242415D01*
X141298114Y-110878451D01*
X141343451Y-110937269D01*
X141399391Y-110986112D01*
X141463785Y-111023102D01*
X141534158Y-111046820D01*
X141607807Y-111056352D01*
X141681899Y-111051334D01*
X141753589Y-111031957D01*
X141820121Y-110998966D01*
X141895062Y-110952137D01*
X142646051Y-111376584D01*
X143866040Y-113253491D01*
X143866350Y-113254085D01*
X143879298Y-113273888D01*
X143892536Y-113294254D01*
X143892966Y-113294791D01*
X145577571Y-115871248D01*
X145601616Y-115909415D01*
X145621577Y-115930479D01*
X145639775Y-115953109D01*
X145674428Y-115982131D01*
X147136475Y-117249239D01*
X147138625Y-117251931D01*
X147173738Y-117281534D01*
X147189854Y-117295501D01*
X147192664Y-117297490D01*
X147195288Y-117299702D01*
X147212798Y-117311740D01*
X147250348Y-117338317D01*
X147253501Y-117339723D01*
X148815314Y-118413470D01*
X148834657Y-118426854D01*
X148835303Y-118427213D01*
X148835917Y-118427635D01*
X148856673Y-118439085D01*
X150653262Y-119437190D01*
X150671516Y-119447667D01*
X150674692Y-119449096D01*
X150677757Y-119450799D01*
X150697194Y-119459222D01*
X152652077Y-120338920D01*
X152654919Y-120340888D01*
X152697032Y-120359150D01*
X152716478Y-120367901D01*
X152719754Y-120369004D01*
X152722914Y-120370374D01*
X152743146Y-120376877D01*
X152786718Y-120391543D01*
X152790151Y-120391986D01*
X155514703Y-121267735D01*
X155529291Y-121274664D01*
X155561654Y-121282826D01*
X155569853Y-121285462D01*
X155585561Y-121288856D01*
X155601153Y-121292789D01*
X155609676Y-121294067D01*
X155642294Y-121301116D01*
X155658440Y-121301382D01*
X157615649Y-121594963D01*
X157630000Y-121597706D01*
X157639984Y-121598614D01*
X157649913Y-121600103D01*
X157664526Y-121600845D01*
X159529976Y-121770431D01*
X159239736Y-121964364D01*
X158964364Y-122239736D01*
X158748005Y-122563539D01*
X158598975Y-122923330D01*
X158523000Y-123305282D01*
X158523000Y-123694718D01*
X158598975Y-124076670D01*
X158748005Y-124436461D01*
X158964364Y-124760264D01*
X159239736Y-125035636D01*
X159563539Y-125251995D01*
X159923330Y-125401025D01*
X160305282Y-125477000D01*
X160694718Y-125477000D01*
X161076670Y-125401025D01*
X161436461Y-125251995D01*
X161760264Y-125035636D01*
X162035636Y-124760264D01*
X162251995Y-124436461D01*
X162401025Y-124076670D01*
X162477000Y-123694718D01*
X162477000Y-123305282D01*
X162401025Y-122923330D01*
X162251995Y-122563539D01*
X162035636Y-122239736D01*
X161760264Y-121964364D01*
X161517270Y-121802000D01*
X161763388Y-121802000D01*
X161776070Y-121803860D01*
X161812714Y-121802000D01*
X161824653Y-121802000D01*
X161837351Y-121800749D01*
X161850086Y-121800103D01*
X161861885Y-121798333D01*
X161898409Y-121794736D01*
X161910678Y-121791014D01*
X163862138Y-121498294D01*
X163874276Y-121497086D01*
X163886523Y-121494637D01*
X163898847Y-121492788D01*
X163910650Y-121489811D01*
X165894244Y-121093092D01*
X165914205Y-121089457D01*
X165918372Y-121088266D01*
X165922624Y-121087416D01*
X165942033Y-121081506D01*
X168035854Y-120483273D01*
X168057197Y-120477389D01*
X168059361Y-120476557D01*
X168061614Y-120475913D01*
X168082420Y-120467688D01*
X168764203Y-120205464D01*
X168842596Y-120330920D01*
X168905585Y-120412639D01*
X168983306Y-120480500D01*
X169072773Y-120531893D01*
X169170547Y-120564845D01*
X169272871Y-120578090D01*
X169375813Y-120571117D01*
X169475416Y-120544195D01*
X169567853Y-120498359D01*
X169860429Y-120315537D01*
X169942148Y-120252548D01*
X170010008Y-120174827D01*
X170061402Y-120085360D01*
X170094354Y-119987586D01*
X170107599Y-119885262D01*
X170100626Y-119782321D01*
X170073704Y-119682717D01*
X170073173Y-119681646D01*
X170315646Y-119581199D01*
X170321685Y-119586472D01*
X170386079Y-119623462D01*
X170456452Y-119647180D01*
X170530101Y-119656712D01*
X170604193Y-119651694D01*
X170675883Y-119632317D01*
X170742415Y-119599326D01*
X171378451Y-119201886D01*
X171437269Y-119156549D01*
X171486112Y-119100609D01*
X171523102Y-119036215D01*
X171546820Y-118965842D01*
X171556352Y-118892193D01*
X171551334Y-118818101D01*
X171531957Y-118746411D01*
X171498966Y-118679879D01*
X171452137Y-118604938D01*
X171876584Y-117853949D01*
X173753491Y-116633960D01*
X173754085Y-116633650D01*
X173773888Y-116620702D01*
X173794254Y-116607464D01*
X173794791Y-116607034D01*
X176371248Y-114922429D01*
X176409415Y-114898384D01*
X176430479Y-114878423D01*
X176453109Y-114860225D01*
X176482131Y-114825572D01*
X177749239Y-113363525D01*
X177751931Y-113361375D01*
X177781534Y-113326262D01*
X177795501Y-113310146D01*
X177797490Y-113307336D01*
X177799702Y-113304712D01*
X177811740Y-113287202D01*
X177838317Y-113249652D01*
X177839723Y-113246499D01*
X178913470Y-111684686D01*
X178926854Y-111665343D01*
X178927213Y-111664697D01*
X178927635Y-111664083D01*
X178939085Y-111643327D01*
X179937190Y-109846738D01*
X179947667Y-109828484D01*
X179949096Y-109825308D01*
X179950799Y-109822243D01*
X179959222Y-109802806D01*
X180838920Y-107847923D01*
X180840888Y-107845081D01*
X180859150Y-107802968D01*
X180867901Y-107783522D01*
X180869004Y-107780246D01*
X180870374Y-107777086D01*
X180876877Y-107756854D01*
X180891543Y-107713282D01*
X180891986Y-107709849D01*
X181384294Y-106178225D01*
X181400925Y-106261835D01*
X181549955Y-106621626D01*
X181766314Y-106945429D01*
X182041686Y-107220801D01*
X182365489Y-107437160D01*
X182725280Y-107586190D01*
X183107232Y-107662165D01*
X183496668Y-107662165D01*
X183878620Y-107586190D01*
X184238411Y-107437160D01*
X184562214Y-107220801D01*
X184709534Y-107073481D01*
X183738788Y-109897473D01*
X182461328Y-112255863D01*
X181280598Y-114322142D01*
X179708133Y-116386003D01*
X178171993Y-118210171D01*
X177180233Y-118788698D01*
X174581359Y-118611977D01*
X174488180Y-118462860D01*
X174442843Y-118404042D01*
X174386903Y-118355199D01*
X174322509Y-118318209D01*
X174252136Y-118294491D01*
X174178487Y-118284959D01*
X174104395Y-118289977D01*
X174032705Y-118309354D01*
X173966173Y-118342345D01*
X173330137Y-118739785D01*
X173271319Y-118785122D01*
X173222476Y-118841062D01*
X173185486Y-118905456D01*
X173161768Y-118975829D01*
X173152236Y-119049478D01*
X173157254Y-119123570D01*
X173176631Y-119195260D01*
X173209622Y-119261792D01*
X173474582Y-119685816D01*
X173519919Y-119744634D01*
X173575859Y-119793477D01*
X173640253Y-119830467D01*
X173710626Y-119854185D01*
X173784275Y-119863717D01*
X173858367Y-119858699D01*
X173930057Y-119839322D01*
X173996589Y-119806331D01*
X174325368Y-119600887D01*
X177105460Y-119789930D01*
X177085805Y-119807516D01*
X175218358Y-121141407D01*
X172443134Y-120190864D01*
X172240853Y-119867147D01*
X172195516Y-119808329D01*
X172139576Y-119759486D01*
X172075182Y-119722496D01*
X172004809Y-119698778D01*
X171931160Y-119689246D01*
X171857068Y-119694264D01*
X171785378Y-119713641D01*
X171718846Y-119746632D01*
X171082810Y-120144072D01*
X171023992Y-120189409D01*
X170975149Y-120245349D01*
X170938159Y-120309743D01*
X170914441Y-120380116D01*
X170904909Y-120453765D01*
X170909927Y-120527857D01*
X170929304Y-120599547D01*
X170962295Y-120666079D01*
X171227255Y-121090103D01*
X171272592Y-121148921D01*
X171328532Y-121197764D01*
X171392926Y-121234754D01*
X171463299Y-121258472D01*
X171536948Y-121268004D01*
X171611040Y-121262986D01*
X171682730Y-121243609D01*
X171749262Y-121210618D01*
X171952032Y-121083913D01*
X175088340Y-122158133D01*
X174066524Y-122819854D01*
X172279874Y-123791403D01*
X170424096Y-124623335D01*
X168510078Y-125310767D01*
X166549055Y-125849666D01*
X164552533Y-126236869D01*
X162532230Y-126470103D01*
X160500000Y-126548000D01*
X158467770Y-126470103D01*
X156447467Y-126236869D01*
X154450945Y-125849666D01*
X152489922Y-125310767D01*
X150575904Y-124623335D01*
X148720126Y-123791403D01*
X148622372Y-123738246D01*
X154273000Y-123738246D01*
X154273000Y-123861754D01*
X154297095Y-123982889D01*
X154344360Y-124096996D01*
X154412977Y-124199689D01*
X154500311Y-124287023D01*
X154603004Y-124355640D01*
X154717111Y-124402905D01*
X154838246Y-124427000D01*
X154961754Y-124427000D01*
X155082889Y-124402905D01*
X155196996Y-124355640D01*
X155299689Y-124287023D01*
X155387023Y-124199689D01*
X155455640Y-124096996D01*
X155502905Y-123982889D01*
X155527000Y-123861754D01*
X155527000Y-123738246D01*
X155502905Y-123617111D01*
X155455640Y-123503004D01*
X155387023Y-123400311D01*
X155299689Y-123312977D01*
X155196996Y-123244360D01*
X155082889Y-123197095D01*
X154961754Y-123173000D01*
X154838246Y-123173000D01*
X154717111Y-123197095D01*
X154603004Y-123244360D01*
X154500311Y-123312977D01*
X154412977Y-123400311D01*
X154344360Y-123503004D01*
X154297095Y-123617111D01*
X154273000Y-123738246D01*
X148622372Y-123738246D01*
X146933476Y-122819854D01*
X145226440Y-121714389D01*
X143609036Y-120481495D01*
X142090754Y-119128407D01*
X140680505Y-117663067D01*
X139386565Y-116094072D01*
X138216527Y-114430631D01*
X137609263Y-113409170D01*
X140956942Y-113917913D01*
X141091109Y-114132625D01*
X141136446Y-114191443D01*
X141192386Y-114240286D01*
X141256780Y-114277276D01*
X141327153Y-114300994D01*
X141400802Y-114310526D01*
X141474894Y-114305508D01*
X141546584Y-114286131D01*
X141613116Y-114253140D01*
X142037140Y-113988180D01*
X142095958Y-113942843D01*
X142144801Y-113886903D01*
X142181791Y-113822509D01*
X142205509Y-113752136D01*
X142215041Y-113678487D01*
X142210023Y-113604395D01*
X142190646Y-113532705D01*
X142157655Y-113466173D01*
X141760215Y-112830137D01*
X141714878Y-112771319D01*
X141658938Y-112722476D01*
X141594544Y-112685486D01*
X141524171Y-112661768D01*
X141450522Y-112652236D01*
X141376430Y-112657254D01*
X141304740Y-112676631D01*
X141238208Y-112709622D01*
X140935046Y-112899059D01*
X137917492Y-112440486D01*
X137239909Y-111235896D01*
X139544260Y-111657152D01*
X139686822Y-111885298D01*
X139732159Y-111944116D01*
X139788099Y-111992959D01*
X139852493Y-112029949D01*
X139922866Y-112053667D01*
X139996515Y-112063199D01*
X140070607Y-112058181D01*
X140142297Y-112038804D01*
X140208829Y-112005813D01*
X140632853Y-111740853D01*
X140691671Y-111695516D01*
X140740514Y-111639576D01*
X140777504Y-111575182D01*
X140801222Y-111504809D01*
X140810754Y-111431160D01*
X140805736Y-111357068D01*
X140786359Y-111285378D01*
X140753368Y-111218846D01*
X140355928Y-110582810D01*
X140310591Y-110523992D01*
X140254651Y-110475149D01*
X140190257Y-110438159D01*
X140119884Y-110414441D01*
X140046235Y-110404909D01*
X139972143Y-110409927D01*
X139900453Y-110429304D01*
X139833921Y-110462295D01*
X139552656Y-110638049D01*
X137455287Y-110254631D01*
X136969635Y-109121442D01*
X136285238Y-107068252D01*
X136437787Y-107220801D01*
X136761590Y-107437160D01*
X137121381Y-107586190D01*
X137503333Y-107662165D01*
X137892769Y-107662165D01*
X138274721Y-107586190D01*
X138634512Y-107437160D01*
X138958315Y-107220801D01*
X139233687Y-106945429D01*
X139450046Y-106621626D01*
X139599076Y-106261835D01*
X139621095Y-106151138D01*
X140016727Y-107535854D01*
G36*
X167723000Y-76076528D02*
G01*
X167752859Y-76226643D01*
X167811431Y-76368048D01*
X167896464Y-76495309D01*
X168004691Y-76603536D01*
X168131952Y-76688569D01*
X168273357Y-76747141D01*
X168423472Y-76777000D01*
X168576528Y-76777000D01*
X168726643Y-76747141D01*
X168868048Y-76688569D01*
X168995309Y-76603536D01*
X169103536Y-76495309D01*
X169146796Y-76430566D01*
X169838432Y-76578774D01*
X173147814Y-78136132D01*
X176380547Y-80389249D01*
X177470883Y-81437649D01*
X177311727Y-81405991D01*
X176922291Y-81405991D01*
X176540339Y-81481966D01*
X176180548Y-81630996D01*
X175856745Y-81847355D01*
X175694008Y-82010092D01*
X175694008Y-81616650D01*
X175696435Y-81592007D01*
X175694008Y-81567364D01*
X175694008Y-81567355D01*
X175686744Y-81493599D01*
X175658039Y-81398972D01*
X175611425Y-81311763D01*
X175587283Y-81282346D01*
X175564407Y-81254472D01*
X175564405Y-81254470D01*
X175548692Y-81235324D01*
X175529546Y-81219611D01*
X175277000Y-80967065D01*
X175277000Y-80823472D01*
X175247141Y-80673357D01*
X175188569Y-80531952D01*
X175103536Y-80404691D01*
X174995309Y-80296464D01*
X174868048Y-80211431D01*
X174726643Y-80152859D01*
X174576528Y-80123000D01*
X174423472Y-80123000D01*
X174273357Y-80152859D01*
X174131952Y-80211431D01*
X174004691Y-80296464D01*
X173896464Y-80404691D01*
X173811431Y-80531952D01*
X173752859Y-80673357D01*
X173723000Y-80823472D01*
X173723000Y-80976528D01*
X173752859Y-81126643D01*
X173811431Y-81268048D01*
X173896464Y-81395309D01*
X174004691Y-81503536D01*
X174131952Y-81588569D01*
X174273357Y-81647141D01*
X174423472Y-81677000D01*
X174567065Y-81677000D01*
X174690008Y-81799943D01*
X174690009Y-84282339D01*
X174687581Y-84306992D01*
X174697273Y-84405401D01*
X174725978Y-84500028D01*
X174772592Y-84587237D01*
X174819609Y-84644527D01*
X174819612Y-84644530D01*
X174835325Y-84663676D01*
X174854471Y-84679389D01*
X176012619Y-85837538D01*
X176028332Y-85856684D01*
X176104771Y-85919417D01*
X176191980Y-85966031D01*
X176286607Y-85994736D01*
X176360363Y-86002000D01*
X176360372Y-86002000D01*
X176385015Y-86004427D01*
X176409658Y-86002000D01*
X178347785Y-86002000D01*
X178807974Y-86462190D01*
X178809354Y-86467295D01*
X178842345Y-86533827D01*
X179239785Y-87169863D01*
X179285122Y-87228681D01*
X179341062Y-87277524D01*
X179405456Y-87314514D01*
X179475829Y-87338232D01*
X179549478Y-87347764D01*
X179623570Y-87342746D01*
X179695260Y-87323369D01*
X179761792Y-87290378D01*
X180185816Y-87025418D01*
X180244634Y-86980081D01*
X180293477Y-86924141D01*
X180330467Y-86859747D01*
X180354185Y-86789374D01*
X180363717Y-86715725D01*
X180358699Y-86641633D01*
X180339322Y-86569943D01*
X180306331Y-86503411D01*
X179908891Y-85867375D01*
X179863554Y-85808557D01*
X179807614Y-85759714D01*
X179743220Y-85722724D01*
X179672847Y-85699006D01*
X179599198Y-85689474D01*
X179525106Y-85694492D01*
X179473968Y-85708314D01*
X178928120Y-85162467D01*
X178912403Y-85143316D01*
X178835964Y-85080583D01*
X178748755Y-85033969D01*
X178654128Y-85005264D01*
X178580372Y-84998000D01*
X178580362Y-84998000D01*
X178555719Y-84995573D01*
X178531076Y-84998000D01*
X178258483Y-84998000D01*
X178377273Y-84918627D01*
X178652645Y-84643255D01*
X178869004Y-84319452D01*
X179018034Y-83959661D01*
X179094009Y-83577709D01*
X179094009Y-83188273D01*
X179054020Y-82987237D01*
X180496272Y-84699912D01*
X181968750Y-86957714D01*
X183739146Y-90203441D01*
X184716355Y-93037350D01*
X185599740Y-96963512D01*
X185697347Y-100086958D01*
X185401867Y-103632717D01*
X185149407Y-104979171D01*
X185053945Y-104748704D01*
X184837586Y-104424901D01*
X184562214Y-104149529D01*
X184238411Y-103933170D01*
X183878620Y-103784140D01*
X183496668Y-103708165D01*
X183107232Y-103708165D01*
X182725280Y-103784140D01*
X182365489Y-103933170D01*
X182041686Y-104149529D01*
X181881099Y-104310116D01*
X182094963Y-102884351D01*
X182097706Y-102870000D01*
X182098614Y-102860016D01*
X182100103Y-102850087D01*
X182100845Y-102835474D01*
X182299773Y-100647267D01*
X182302000Y-100624653D01*
X182302000Y-100622768D01*
X182302170Y-100620898D01*
X182302000Y-100598279D01*
X182302000Y-98736612D01*
X182303860Y-98723931D01*
X182302000Y-98687286D01*
X182302000Y-98675347D01*
X182300749Y-98662650D01*
X182300103Y-98649913D01*
X182298333Y-98638112D01*
X182294736Y-98601591D01*
X182291014Y-98589323D01*
X182028354Y-96838246D01*
X183473000Y-96838246D01*
X183473000Y-96961754D01*
X183497095Y-97082889D01*
X183544360Y-97196996D01*
X183612977Y-97299689D01*
X183700311Y-97387023D01*
X183803004Y-97455640D01*
X183917111Y-97502905D01*
X184038246Y-97527000D01*
X184161754Y-97527000D01*
X184282889Y-97502905D01*
X184396996Y-97455640D01*
X184499689Y-97387023D01*
X184587023Y-97299689D01*
X184655640Y-97196996D01*
X184702905Y-97082889D01*
X184727000Y-96961754D01*
X184727000Y-96838246D01*
X184702905Y-96717111D01*
X184655640Y-96603004D01*
X184587023Y-96500311D01*
X184499689Y-96412977D01*
X184396996Y-96344360D01*
X184282889Y-96297095D01*
X184161754Y-96273000D01*
X184038246Y-96273000D01*
X183917111Y-96297095D01*
X183803004Y-96344360D01*
X183700311Y-96412977D01*
X183612977Y-96500311D01*
X183544360Y-96603004D01*
X183497095Y-96717111D01*
X183473000Y-96838246D01*
X182028354Y-96838246D01*
X181998293Y-96637843D01*
X181997086Y-96625724D01*
X181994641Y-96613497D01*
X181992789Y-96601153D01*
X181989808Y-96589334D01*
X181593094Y-94605766D01*
X181589457Y-94585794D01*
X181588266Y-94581624D01*
X181587416Y-94577376D01*
X181581510Y-94557981D01*
X180983308Y-92464272D01*
X180977389Y-92442802D01*
X180976552Y-92440625D01*
X180975912Y-92438386D01*
X180967737Y-92417707D01*
X180705464Y-91735798D01*
X180830920Y-91657404D01*
X180912639Y-91594415D01*
X180980500Y-91516694D01*
X181031893Y-91427227D01*
X181064845Y-91329453D01*
X181078090Y-91227129D01*
X181071117Y-91124187D01*
X181044195Y-91024584D01*
X180998359Y-90932147D01*
X180815537Y-90639571D01*
X180752548Y-90557852D01*
X180674827Y-90489992D01*
X180585360Y-90438598D01*
X180487586Y-90405646D01*
X180385262Y-90392401D01*
X180282321Y-90399374D01*
X180182717Y-90426296D01*
X180181646Y-90426827D01*
X180081198Y-90184355D01*
X180086472Y-90178315D01*
X180123462Y-90113921D01*
X180147180Y-90043548D01*
X180156712Y-89969899D01*
X180151694Y-89895807D01*
X180132317Y-89824117D01*
X180099326Y-89757585D01*
X179701886Y-89121549D01*
X179656549Y-89062731D01*
X179600609Y-89013888D01*
X179536215Y-88976898D01*
X179465842Y-88953180D01*
X179392193Y-88943648D01*
X179318101Y-88948666D01*
X179246411Y-88968043D01*
X179179879Y-89001034D01*
X178755855Y-89265994D01*
X178697037Y-89311331D01*
X178648194Y-89367271D01*
X178611204Y-89431665D01*
X178587486Y-89502038D01*
X178577954Y-89575687D01*
X178582972Y-89649779D01*
X178602349Y-89721469D01*
X178635340Y-89788001D01*
X179032780Y-90424037D01*
X179078117Y-90482855D01*
X179134057Y-90531698D01*
X179139690Y-90534934D01*
X179531135Y-91479851D01*
X179543156Y-91513870D01*
X179546708Y-91519850D01*
X180023451Y-92759385D01*
X180611736Y-94818384D01*
X181005359Y-96786498D01*
X181298001Y-98737440D01*
X181298000Y-100577234D01*
X181101385Y-102740002D01*
X180809604Y-104685202D01*
X179930683Y-107419625D01*
X179050902Y-109374694D01*
X178072789Y-111135300D01*
X177002250Y-112692448D01*
X175766581Y-114118221D01*
X174601796Y-114879812D01*
X175332430Y-114181255D01*
X176543917Y-112794597D01*
X177626228Y-111304924D01*
X178570648Y-109724230D01*
X179369574Y-108065243D01*
X180016574Y-106341319D01*
X180506437Y-104566339D01*
X180835221Y-102754593D01*
X181000277Y-100920668D01*
X181000277Y-99079332D01*
X180835221Y-97245407D01*
X180506437Y-95433661D01*
X180016574Y-93658681D01*
X179369574Y-91934757D01*
X178570648Y-90275770D01*
X177626228Y-88695076D01*
X177534513Y-88568840D01*
X180189246Y-88568840D01*
X180194264Y-88642932D01*
X180213641Y-88714622D01*
X180246632Y-88781154D01*
X180644072Y-89417190D01*
X180689409Y-89476008D01*
X180745349Y-89524851D01*
X180809743Y-89561841D01*
X180880116Y-89585559D01*
X180953765Y-89595091D01*
X181027857Y-89590073D01*
X181099547Y-89570696D01*
X181166079Y-89537705D01*
X181590103Y-89272745D01*
X181648921Y-89227408D01*
X181697764Y-89171468D01*
X181734754Y-89107074D01*
X181758472Y-89036701D01*
X181768004Y-88963052D01*
X181762986Y-88888960D01*
X181743609Y-88817270D01*
X181710618Y-88750738D01*
X181502000Y-88416880D01*
X181502000Y-87996845D01*
X181603536Y-87895309D01*
X181688569Y-87768048D01*
X181747141Y-87626643D01*
X181777000Y-87476528D01*
X181777000Y-87323472D01*
X181747141Y-87173357D01*
X181688569Y-87031952D01*
X181603536Y-86904691D01*
X181495309Y-86796464D01*
X181368048Y-86711431D01*
X181226643Y-86652859D01*
X181076528Y-86623000D01*
X180923472Y-86623000D01*
X180773357Y-86652859D01*
X180631952Y-86711431D01*
X180504691Y-86796464D01*
X180396464Y-86904691D01*
X180311431Y-87031952D01*
X180252859Y-87173357D01*
X180223000Y-87323472D01*
X180223000Y-87476528D01*
X180252859Y-87626643D01*
X180311431Y-87768048D01*
X180396464Y-87895309D01*
X180498000Y-87996845D01*
X180498001Y-88177380D01*
X180367147Y-88259147D01*
X180308329Y-88304484D01*
X180259486Y-88360424D01*
X180222496Y-88424818D01*
X180198778Y-88495191D01*
X180189246Y-88568840D01*
X177534513Y-88568840D01*
X176543917Y-87205403D01*
X175332430Y-85818745D01*
X174001521Y-84546266D01*
X172561906Y-83398211D01*
X171025175Y-82383824D01*
X169403702Y-81511272D01*
X167710542Y-80787580D01*
X165959326Y-80218576D01*
X164164155Y-79808840D01*
X162339483Y-79561671D01*
X160500000Y-79479060D01*
X158660517Y-79561671D01*
X156835845Y-79808840D01*
X155040674Y-80218576D01*
X153289458Y-80787580D01*
X151596298Y-81511272D01*
X150215483Y-82254320D01*
X150516362Y-81721964D01*
X150924037Y-81467220D01*
X150982855Y-81421883D01*
X151031698Y-81365943D01*
X151068688Y-81301549D01*
X151092406Y-81231176D01*
X151101379Y-81161847D01*
X151476925Y-80896475D01*
X151558733Y-80907064D01*
X151661675Y-80900091D01*
X151761278Y-80873169D01*
X151853715Y-80827333D01*
X152146291Y-80644511D01*
X152228010Y-80581522D01*
X152295870Y-80503801D01*
X152347264Y-80414334D01*
X152367813Y-80353361D01*
X155874122Y-78530073D01*
X155875960Y-78531911D01*
X156085114Y-78671663D01*
X156317513Y-78767926D01*
X156564226Y-78817000D01*
X156815774Y-78817000D01*
X157062487Y-78767926D01*
X157294886Y-78671663D01*
X157504040Y-78531911D01*
X157681911Y-78354040D01*
X157821663Y-78144886D01*
X157917926Y-77912487D01*
X157960000Y-77700966D01*
X158002074Y-77912487D01*
X158098337Y-78144886D01*
X158238089Y-78354040D01*
X158415960Y-78531911D01*
X158625114Y-78671663D01*
X158857513Y-78767926D01*
X159104226Y-78817000D01*
X159355774Y-78817000D01*
X159602487Y-78767926D01*
X159834886Y-78671663D01*
X160044040Y-78531911D01*
X160221911Y-78354040D01*
X160361663Y-78144886D01*
X160457926Y-77912487D01*
X160500000Y-77700966D01*
X160542074Y-77912487D01*
X160638337Y-78144886D01*
X160778089Y-78354040D01*
X160955960Y-78531911D01*
X161165114Y-78671663D01*
X161397513Y-78767926D01*
X161644226Y-78817000D01*
X161895774Y-78817000D01*
X162142487Y-78767926D01*
X162374886Y-78671663D01*
X162584040Y-78531911D01*
X162761911Y-78354040D01*
X162901663Y-78144886D01*
X162997926Y-77912487D01*
X163040000Y-77700966D01*
X163082074Y-77912487D01*
X163178337Y-78144886D01*
X163318089Y-78354040D01*
X163495960Y-78531911D01*
X163705114Y-78671663D01*
X163937513Y-78767926D01*
X164184226Y-78817000D01*
X164435774Y-78817000D01*
X164682487Y-78767926D01*
X164914886Y-78671663D01*
X165124040Y-78531911D01*
X165301911Y-78354040D01*
X165441663Y-78144886D01*
X165537926Y-77912487D01*
X165580000Y-77700966D01*
X165622074Y-77912487D01*
X165718337Y-78144886D01*
X165858089Y-78354040D01*
X166035960Y-78531911D01*
X166245114Y-78671663D01*
X166477513Y-78767926D01*
X166724226Y-78817000D01*
X166975774Y-78817000D01*
X167222487Y-78767926D01*
X167454886Y-78671663D01*
X167664040Y-78531911D01*
X167841911Y-78354040D01*
X167981663Y-78144886D01*
X168077926Y-77912487D01*
X168127000Y-77665774D01*
X168127000Y-77414226D01*
X168077926Y-77167513D01*
X167981663Y-76935114D01*
X167841911Y-76725960D01*
X167664040Y-76548089D01*
X167454886Y-76408337D01*
X167232263Y-76316123D01*
X167723000Y-76011362D01*
X167723000Y-76076528D01*
G37*
X167723000Y-76076528D02*
X167752859Y-76226643D01*
X167811431Y-76368048D01*
X167896464Y-76495309D01*
X168004691Y-76603536D01*
X168131952Y-76688569D01*
X168273357Y-76747141D01*
X168423472Y-76777000D01*
X168576528Y-76777000D01*
X168726643Y-76747141D01*
X168868048Y-76688569D01*
X168995309Y-76603536D01*
X169103536Y-76495309D01*
X169146796Y-76430566D01*
X169838432Y-76578774D01*
X173147814Y-78136132D01*
X176380547Y-80389249D01*
X177470883Y-81437649D01*
X177311727Y-81405991D01*
X176922291Y-81405991D01*
X176540339Y-81481966D01*
X176180548Y-81630996D01*
X175856745Y-81847355D01*
X175694008Y-82010092D01*
X175694008Y-81616650D01*
X175696435Y-81592007D01*
X175694008Y-81567364D01*
X175694008Y-81567355D01*
X175686744Y-81493599D01*
X175658039Y-81398972D01*
X175611425Y-81311763D01*
X175587283Y-81282346D01*
X175564407Y-81254472D01*
X175564405Y-81254470D01*
X175548692Y-81235324D01*
X175529546Y-81219611D01*
X175277000Y-80967065D01*
X175277000Y-80823472D01*
X175247141Y-80673357D01*
X175188569Y-80531952D01*
X175103536Y-80404691D01*
X174995309Y-80296464D01*
X174868048Y-80211431D01*
X174726643Y-80152859D01*
X174576528Y-80123000D01*
X174423472Y-80123000D01*
X174273357Y-80152859D01*
X174131952Y-80211431D01*
X174004691Y-80296464D01*
X173896464Y-80404691D01*
X173811431Y-80531952D01*
X173752859Y-80673357D01*
X173723000Y-80823472D01*
X173723000Y-80976528D01*
X173752859Y-81126643D01*
X173811431Y-81268048D01*
X173896464Y-81395309D01*
X174004691Y-81503536D01*
X174131952Y-81588569D01*
X174273357Y-81647141D01*
X174423472Y-81677000D01*
X174567065Y-81677000D01*
X174690008Y-81799943D01*
X174690009Y-84282339D01*
X174687581Y-84306992D01*
X174697273Y-84405401D01*
X174725978Y-84500028D01*
X174772592Y-84587237D01*
X174819609Y-84644527D01*
X174819612Y-84644530D01*
X174835325Y-84663676D01*
X174854471Y-84679389D01*
X176012619Y-85837538D01*
X176028332Y-85856684D01*
X176104771Y-85919417D01*
X176191980Y-85966031D01*
X176286607Y-85994736D01*
X176360363Y-86002000D01*
X176360372Y-86002000D01*
X176385015Y-86004427D01*
X176409658Y-86002000D01*
X178347785Y-86002000D01*
X178807974Y-86462190D01*
X178809354Y-86467295D01*
X178842345Y-86533827D01*
X179239785Y-87169863D01*
X179285122Y-87228681D01*
X179341062Y-87277524D01*
X179405456Y-87314514D01*
X179475829Y-87338232D01*
X179549478Y-87347764D01*
X179623570Y-87342746D01*
X179695260Y-87323369D01*
X179761792Y-87290378D01*
X180185816Y-87025418D01*
X180244634Y-86980081D01*
X180293477Y-86924141D01*
X180330467Y-86859747D01*
X180354185Y-86789374D01*
X180363717Y-86715725D01*
X180358699Y-86641633D01*
X180339322Y-86569943D01*
X180306331Y-86503411D01*
X179908891Y-85867375D01*
X179863554Y-85808557D01*
X179807614Y-85759714D01*
X179743220Y-85722724D01*
X179672847Y-85699006D01*
X179599198Y-85689474D01*
X179525106Y-85694492D01*
X179473968Y-85708314D01*
X178928120Y-85162467D01*
X178912403Y-85143316D01*
X178835964Y-85080583D01*
X178748755Y-85033969D01*
X178654128Y-85005264D01*
X178580372Y-84998000D01*
X178580362Y-84998000D01*
X178555719Y-84995573D01*
X178531076Y-84998000D01*
X178258483Y-84998000D01*
X178377273Y-84918627D01*
X178652645Y-84643255D01*
X178869004Y-84319452D01*
X179018034Y-83959661D01*
X179094009Y-83577709D01*
X179094009Y-83188273D01*
X179054020Y-82987237D01*
X180496272Y-84699912D01*
X181968750Y-86957714D01*
X183739146Y-90203441D01*
X184716355Y-93037350D01*
X185599740Y-96963512D01*
X185697347Y-100086958D01*
X185401867Y-103632717D01*
X185149407Y-104979171D01*
X185053945Y-104748704D01*
X184837586Y-104424901D01*
X184562214Y-104149529D01*
X184238411Y-103933170D01*
X183878620Y-103784140D01*
X183496668Y-103708165D01*
X183107232Y-103708165D01*
X182725280Y-103784140D01*
X182365489Y-103933170D01*
X182041686Y-104149529D01*
X181881099Y-104310116D01*
X182094963Y-102884351D01*
X182097706Y-102870000D01*
X182098614Y-102860016D01*
X182100103Y-102850087D01*
X182100845Y-102835474D01*
X182299773Y-100647267D01*
X182302000Y-100624653D01*
X182302000Y-100622768D01*
X182302170Y-100620898D01*
X182302000Y-100598279D01*
X182302000Y-98736612D01*
X182303860Y-98723931D01*
X182302000Y-98687286D01*
X182302000Y-98675347D01*
X182300749Y-98662650D01*
X182300103Y-98649913D01*
X182298333Y-98638112D01*
X182294736Y-98601591D01*
X182291014Y-98589323D01*
X182028354Y-96838246D01*
X183473000Y-96838246D01*
X183473000Y-96961754D01*
X183497095Y-97082889D01*
X183544360Y-97196996D01*
X183612977Y-97299689D01*
X183700311Y-97387023D01*
X183803004Y-97455640D01*
X183917111Y-97502905D01*
X184038246Y-97527000D01*
X184161754Y-97527000D01*
X184282889Y-97502905D01*
X184396996Y-97455640D01*
X184499689Y-97387023D01*
X184587023Y-97299689D01*
X184655640Y-97196996D01*
X184702905Y-97082889D01*
X184727000Y-96961754D01*
X184727000Y-96838246D01*
X184702905Y-96717111D01*
X184655640Y-96603004D01*
X184587023Y-96500311D01*
X184499689Y-96412977D01*
X184396996Y-96344360D01*
X184282889Y-96297095D01*
X184161754Y-96273000D01*
X184038246Y-96273000D01*
X183917111Y-96297095D01*
X183803004Y-96344360D01*
X183700311Y-96412977D01*
X183612977Y-96500311D01*
X183544360Y-96603004D01*
X183497095Y-96717111D01*
X183473000Y-96838246D01*
X182028354Y-96838246D01*
X181998293Y-96637843D01*
X181997086Y-96625724D01*
X181994641Y-96613497D01*
X181992789Y-96601153D01*
X181989808Y-96589334D01*
X181593094Y-94605766D01*
X181589457Y-94585794D01*
X181588266Y-94581624D01*
X181587416Y-94577376D01*
X181581510Y-94557981D01*
X180983308Y-92464272D01*
X180977389Y-92442802D01*
X180976552Y-92440625D01*
X180975912Y-92438386D01*
X180967737Y-92417707D01*
X180705464Y-91735798D01*
X180830920Y-91657404D01*
X180912639Y-91594415D01*
X180980500Y-91516694D01*
X181031893Y-91427227D01*
X181064845Y-91329453D01*
X181078090Y-91227129D01*
X181071117Y-91124187D01*
X181044195Y-91024584D01*
X180998359Y-90932147D01*
X180815537Y-90639571D01*
X180752548Y-90557852D01*
X180674827Y-90489992D01*
X180585360Y-90438598D01*
X180487586Y-90405646D01*
X180385262Y-90392401D01*
X180282321Y-90399374D01*
X180182717Y-90426296D01*
X180181646Y-90426827D01*
X180081198Y-90184355D01*
X180086472Y-90178315D01*
X180123462Y-90113921D01*
X180147180Y-90043548D01*
X180156712Y-89969899D01*
X180151694Y-89895807D01*
X180132317Y-89824117D01*
X180099326Y-89757585D01*
X179701886Y-89121549D01*
X179656549Y-89062731D01*
X179600609Y-89013888D01*
X179536215Y-88976898D01*
X179465842Y-88953180D01*
X179392193Y-88943648D01*
X179318101Y-88948666D01*
X179246411Y-88968043D01*
X179179879Y-89001034D01*
X178755855Y-89265994D01*
X178697037Y-89311331D01*
X178648194Y-89367271D01*
X178611204Y-89431665D01*
X178587486Y-89502038D01*
X178577954Y-89575687D01*
X178582972Y-89649779D01*
X178602349Y-89721469D01*
X178635340Y-89788001D01*
X179032780Y-90424037D01*
X179078117Y-90482855D01*
X179134057Y-90531698D01*
X179139690Y-90534934D01*
X179531135Y-91479851D01*
X179543156Y-91513870D01*
X179546708Y-91519850D01*
X180023451Y-92759385D01*
X180611736Y-94818384D01*
X181005359Y-96786498D01*
X181298001Y-98737440D01*
X181298000Y-100577234D01*
X181101385Y-102740002D01*
X180809604Y-104685202D01*
X179930683Y-107419625D01*
X179050902Y-109374694D01*
X178072789Y-111135300D01*
X177002250Y-112692448D01*
X175766581Y-114118221D01*
X174601796Y-114879812D01*
X175332430Y-114181255D01*
X176543917Y-112794597D01*
X177626228Y-111304924D01*
X178570648Y-109724230D01*
X179369574Y-108065243D01*
X180016574Y-106341319D01*
X180506437Y-104566339D01*
X180835221Y-102754593D01*
X181000277Y-100920668D01*
X181000277Y-99079332D01*
X180835221Y-97245407D01*
X180506437Y-95433661D01*
X180016574Y-93658681D01*
X179369574Y-91934757D01*
X178570648Y-90275770D01*
X177626228Y-88695076D01*
X177534513Y-88568840D01*
X180189246Y-88568840D01*
X180194264Y-88642932D01*
X180213641Y-88714622D01*
X180246632Y-88781154D01*
X180644072Y-89417190D01*
X180689409Y-89476008D01*
X180745349Y-89524851D01*
X180809743Y-89561841D01*
X180880116Y-89585559D01*
X180953765Y-89595091D01*
X181027857Y-89590073D01*
X181099547Y-89570696D01*
X181166079Y-89537705D01*
X181590103Y-89272745D01*
X181648921Y-89227408D01*
X181697764Y-89171468D01*
X181734754Y-89107074D01*
X181758472Y-89036701D01*
X181768004Y-88963052D01*
X181762986Y-88888960D01*
X181743609Y-88817270D01*
X181710618Y-88750738D01*
X181502000Y-88416880D01*
X181502000Y-87996845D01*
X181603536Y-87895309D01*
X181688569Y-87768048D01*
X181747141Y-87626643D01*
X181777000Y-87476528D01*
X181777000Y-87323472D01*
X181747141Y-87173357D01*
X181688569Y-87031952D01*
X181603536Y-86904691D01*
X181495309Y-86796464D01*
X181368048Y-86711431D01*
X181226643Y-86652859D01*
X181076528Y-86623000D01*
X180923472Y-86623000D01*
X180773357Y-86652859D01*
X180631952Y-86711431D01*
X180504691Y-86796464D01*
X180396464Y-86904691D01*
X180311431Y-87031952D01*
X180252859Y-87173357D01*
X180223000Y-87323472D01*
X180223000Y-87476528D01*
X180252859Y-87626643D01*
X180311431Y-87768048D01*
X180396464Y-87895309D01*
X180498000Y-87996845D01*
X180498001Y-88177380D01*
X180367147Y-88259147D01*
X180308329Y-88304484D01*
X180259486Y-88360424D01*
X180222496Y-88424818D01*
X180198778Y-88495191D01*
X180189246Y-88568840D01*
X177534513Y-88568840D01*
X176543917Y-87205403D01*
X175332430Y-85818745D01*
X174001521Y-84546266D01*
X172561906Y-83398211D01*
X171025175Y-82383824D01*
X169403702Y-81511272D01*
X167710542Y-80787580D01*
X165959326Y-80218576D01*
X164164155Y-79808840D01*
X162339483Y-79561671D01*
X160500000Y-79479060D01*
X158660517Y-79561671D01*
X156835845Y-79808840D01*
X155040674Y-80218576D01*
X153289458Y-80787580D01*
X151596298Y-81511272D01*
X150215483Y-82254320D01*
X150516362Y-81721964D01*
X150924037Y-81467220D01*
X150982855Y-81421883D01*
X151031698Y-81365943D01*
X151068688Y-81301549D01*
X151092406Y-81231176D01*
X151101379Y-81161847D01*
X151476925Y-80896475D01*
X151558733Y-80907064D01*
X151661675Y-80900091D01*
X151761278Y-80873169D01*
X151853715Y-80827333D01*
X152146291Y-80644511D01*
X152228010Y-80581522D01*
X152295870Y-80503801D01*
X152347264Y-80414334D01*
X152367813Y-80353361D01*
X155874122Y-78530073D01*
X155875960Y-78531911D01*
X156085114Y-78671663D01*
X156317513Y-78767926D01*
X156564226Y-78817000D01*
X156815774Y-78817000D01*
X157062487Y-78767926D01*
X157294886Y-78671663D01*
X157504040Y-78531911D01*
X157681911Y-78354040D01*
X157821663Y-78144886D01*
X157917926Y-77912487D01*
X157960000Y-77700966D01*
X158002074Y-77912487D01*
X158098337Y-78144886D01*
X158238089Y-78354040D01*
X158415960Y-78531911D01*
X158625114Y-78671663D01*
X158857513Y-78767926D01*
X159104226Y-78817000D01*
X159355774Y-78817000D01*
X159602487Y-78767926D01*
X159834886Y-78671663D01*
X160044040Y-78531911D01*
X160221911Y-78354040D01*
X160361663Y-78144886D01*
X160457926Y-77912487D01*
X160500000Y-77700966D01*
X160542074Y-77912487D01*
X160638337Y-78144886D01*
X160778089Y-78354040D01*
X160955960Y-78531911D01*
X161165114Y-78671663D01*
X161397513Y-78767926D01*
X161644226Y-78817000D01*
X161895774Y-78817000D01*
X162142487Y-78767926D01*
X162374886Y-78671663D01*
X162584040Y-78531911D01*
X162761911Y-78354040D01*
X162901663Y-78144886D01*
X162997926Y-77912487D01*
X163040000Y-77700966D01*
X163082074Y-77912487D01*
X163178337Y-78144886D01*
X163318089Y-78354040D01*
X163495960Y-78531911D01*
X163705114Y-78671663D01*
X163937513Y-78767926D01*
X164184226Y-78817000D01*
X164435774Y-78817000D01*
X164682487Y-78767926D01*
X164914886Y-78671663D01*
X165124040Y-78531911D01*
X165301911Y-78354040D01*
X165441663Y-78144886D01*
X165537926Y-77912487D01*
X165580000Y-77700966D01*
X165622074Y-77912487D01*
X165718337Y-78144886D01*
X165858089Y-78354040D01*
X166035960Y-78531911D01*
X166245114Y-78671663D01*
X166477513Y-78767926D01*
X166724226Y-78817000D01*
X166975774Y-78817000D01*
X167222487Y-78767926D01*
X167454886Y-78671663D01*
X167664040Y-78531911D01*
X167841911Y-78354040D01*
X167981663Y-78144886D01*
X168077926Y-77912487D01*
X168127000Y-77665774D01*
X168127000Y-77414226D01*
X168077926Y-77167513D01*
X167981663Y-76935114D01*
X167841911Y-76725960D01*
X167664040Y-76548089D01*
X167454886Y-76408337D01*
X167232263Y-76316123D01*
X167723000Y-76011362D01*
X167723000Y-76076528D01*
G36*
X147651838Y-78738227D02*
G01*
X146681082Y-79708984D01*
X146661936Y-79724697D01*
X146646223Y-79743843D01*
X146646220Y-79743846D01*
X146599203Y-79801136D01*
X146552589Y-79888345D01*
X146523884Y-79982972D01*
X146514192Y-80081381D01*
X146516620Y-80106033D01*
X146516620Y-80497851D01*
X146367375Y-80591109D01*
X146308557Y-80636446D01*
X146259714Y-80692386D01*
X146222724Y-80756780D01*
X146199006Y-80827153D01*
X146189474Y-80900802D01*
X146194492Y-80974894D01*
X146213869Y-81046584D01*
X146246860Y-81113116D01*
X146511820Y-81537140D01*
X146557157Y-81595958D01*
X146613097Y-81644801D01*
X146677491Y-81681791D01*
X146747864Y-81705509D01*
X146821513Y-81715041D01*
X146895605Y-81710023D01*
X146967295Y-81690646D01*
X147033827Y-81657655D01*
X147669863Y-81260215D01*
X147728681Y-81214878D01*
X147777524Y-81158938D01*
X147814514Y-81094544D01*
X147838232Y-81024171D01*
X147847764Y-80950522D01*
X147842746Y-80876430D01*
X147823369Y-80804740D01*
X147790378Y-80738208D01*
X147525418Y-80314184D01*
X147520619Y-80307958D01*
X147520619Y-80289315D01*
X148487071Y-79322864D01*
X148470051Y-79352493D01*
X148446333Y-79422866D01*
X148436801Y-79496515D01*
X148441819Y-79570607D01*
X148461196Y-79642297D01*
X148494187Y-79708829D01*
X148759147Y-80132853D01*
X148804484Y-80191671D01*
X148860424Y-80240514D01*
X148924818Y-80277504D01*
X148995191Y-80301222D01*
X149068840Y-80310754D01*
X149142932Y-80305736D01*
X149214622Y-80286359D01*
X149281154Y-80253368D01*
X149917190Y-79855928D01*
X149976008Y-79810591D01*
X150024851Y-79754651D01*
X150061841Y-79690257D01*
X150085559Y-79619884D01*
X150095091Y-79546235D01*
X150090073Y-79472143D01*
X150070696Y-79400453D01*
X150037705Y-79333921D01*
X149972650Y-79229811D01*
X150400463Y-78801999D01*
X151728067Y-78802001D01*
X151752859Y-78926643D01*
X151811431Y-79068048D01*
X151896464Y-79195309D01*
X152004691Y-79303536D01*
X152094762Y-79363720D01*
X151907077Y-79461316D01*
X151829453Y-79435155D01*
X151727129Y-79421910D01*
X151624187Y-79428883D01*
X151524584Y-79455805D01*
X151432147Y-79501641D01*
X151139571Y-79684463D01*
X151057852Y-79747452D01*
X150989992Y-79825173D01*
X150938598Y-79914640D01*
X150905646Y-80012414D01*
X150897329Y-80076668D01*
X150512259Y-80348770D01*
X150469899Y-80343288D01*
X150395807Y-80348306D01*
X150324117Y-80367683D01*
X150257585Y-80400674D01*
X149621549Y-80798114D01*
X149562731Y-80843451D01*
X149513888Y-80899391D01*
X149476898Y-80963785D01*
X149453180Y-81034158D01*
X149443648Y-81107807D01*
X149448666Y-81181899D01*
X149468043Y-81253589D01*
X149501034Y-81320121D01*
X149547862Y-81395062D01*
X149123417Y-82146050D01*
X147244412Y-83367404D01*
X147219754Y-83380584D01*
X147183982Y-83409941D01*
X147147865Y-83438824D01*
X147129858Y-83460207D01*
X144092066Y-86498000D01*
X143627986Y-86498000D01*
X143606678Y-86495616D01*
X143578681Y-86498000D01*
X143575347Y-86498000D01*
X143554055Y-86500097D01*
X143508149Y-86504006D01*
X143504935Y-86504935D01*
X143501591Y-86505264D01*
X143457403Y-86518669D01*
X143413149Y-86531455D01*
X143410172Y-86532996D01*
X143406964Y-86533969D01*
X143366270Y-86555721D01*
X143325331Y-86576911D01*
X143322714Y-86579001D01*
X143319755Y-86580583D01*
X143284122Y-86609827D01*
X143248068Y-86638625D01*
X143245903Y-86641193D01*
X143243316Y-86643316D01*
X143214082Y-86678937D01*
X143200297Y-86695288D01*
X143198408Y-86698035D01*
X143180583Y-86719755D01*
X143170476Y-86738664D01*
X142086790Y-88314936D01*
X142073145Y-88334657D01*
X142072779Y-88335316D01*
X142072365Y-88335918D01*
X142061107Y-88356325D01*
X141062856Y-90153178D01*
X141052332Y-90171516D01*
X141050896Y-90174707D01*
X141049201Y-90177758D01*
X141040815Y-90197109D01*
X140161083Y-92152071D01*
X140159111Y-92154919D01*
X140140811Y-92197119D01*
X140132099Y-92216479D01*
X140131001Y-92219740D01*
X140129625Y-92222914D01*
X140123091Y-92243242D01*
X140108457Y-92286720D01*
X140108015Y-92290145D01*
X139232266Y-95014701D01*
X139225336Y-95029291D01*
X139217174Y-95061652D01*
X139214538Y-95069854D01*
X139211140Y-95085577D01*
X139207212Y-95101153D01*
X139205935Y-95109664D01*
X139198884Y-95142295D01*
X139198618Y-95158447D01*
X138905037Y-97115646D01*
X138902294Y-97130000D01*
X138901386Y-97139986D01*
X138899897Y-97149914D01*
X138899155Y-97164525D01*
X138700227Y-99352734D01*
X138698000Y-99375348D01*
X138698000Y-99377233D01*
X138697830Y-99379103D01*
X138698000Y-99401724D01*
X138698001Y-101263382D01*
X138696140Y-101276070D01*
X138698001Y-101312733D01*
X138698001Y-101324653D01*
X138699250Y-101337330D01*
X138699897Y-101350086D01*
X138701670Y-101361905D01*
X138705265Y-101398409D01*
X138708985Y-101410672D01*
X139001706Y-103362138D01*
X139002914Y-103374276D01*
X139005363Y-103386523D01*
X139007212Y-103398847D01*
X139010189Y-103410650D01*
X139207877Y-104399091D01*
X138958315Y-104149529D01*
X138634512Y-103933170D01*
X138274721Y-103784140D01*
X137892769Y-103708165D01*
X137503333Y-103708165D01*
X137121381Y-103784140D01*
X136761590Y-103933170D01*
X136437787Y-104149529D01*
X136162415Y-104424901D01*
X135946056Y-104748704D01*
X135797026Y-105108495D01*
X135785365Y-105167119D01*
X135497882Y-103729705D01*
X135302000Y-101379128D01*
X135302000Y-98421783D01*
X135497240Y-96176522D01*
X135888059Y-94417838D01*
X135908822Y-94338246D01*
X136773000Y-94338246D01*
X136773000Y-94461754D01*
X136797095Y-94582889D01*
X136844360Y-94696996D01*
X136912977Y-94799689D01*
X137000311Y-94887023D01*
X137103004Y-94955640D01*
X137217111Y-95002905D01*
X137338246Y-95027000D01*
X137461754Y-95027000D01*
X137582889Y-95002905D01*
X137696996Y-94955640D01*
X137799689Y-94887023D01*
X137887023Y-94799689D01*
X137955640Y-94696996D01*
X138002905Y-94582889D01*
X138027000Y-94461754D01*
X138027000Y-94338246D01*
X138002905Y-94217111D01*
X137955640Y-94103004D01*
X137887023Y-94000311D01*
X137799689Y-93912977D01*
X137696996Y-93844360D01*
X137582889Y-93797095D01*
X137461754Y-93773000D01*
X137338246Y-93773000D01*
X137217111Y-93797095D01*
X137103004Y-93844360D01*
X137000311Y-93912977D01*
X136912977Y-94000311D01*
X136844360Y-94103004D01*
X136797095Y-94217111D01*
X136773000Y-94338246D01*
X135908822Y-94338246D01*
X136480174Y-92148063D01*
X136967532Y-90783464D01*
X137851298Y-88721343D01*
X138832549Y-86955093D01*
X139810231Y-85390802D01*
X140985836Y-83921296D01*
X142009263Y-82740421D01*
X141981966Y-82806321D01*
X141905991Y-83188273D01*
X141905991Y-83577709D01*
X141981966Y-83959661D01*
X142130996Y-84319452D01*
X142347355Y-84643255D01*
X142622727Y-84918627D01*
X142946530Y-85134986D01*
X143306321Y-85284016D01*
X143688273Y-85359991D01*
X144077709Y-85359991D01*
X144459661Y-85284016D01*
X144819452Y-85134986D01*
X145143255Y-84918627D01*
X145418627Y-84643255D01*
X145634986Y-84319452D01*
X145784016Y-83959661D01*
X145859991Y-83577709D01*
X145859991Y-83188273D01*
X145784016Y-82806321D01*
X145634986Y-82446530D01*
X145418627Y-82122727D01*
X145143255Y-81847355D01*
X144819452Y-81630996D01*
X144459661Y-81481966D01*
X144077709Y-81405991D01*
X143688273Y-81405991D01*
X143320119Y-81479222D01*
X143430484Y-81378053D01*
X144615848Y-80390251D01*
X145954993Y-79338067D01*
X147537270Y-78690772D01*
X147651838Y-78738227D01*
G37*
X147651838Y-78738227D02*
X146681082Y-79708984D01*
X146661936Y-79724697D01*
X146646223Y-79743843D01*
X146646220Y-79743846D01*
X146599203Y-79801136D01*
X146552589Y-79888345D01*
X146523884Y-79982972D01*
X146514192Y-80081381D01*
X146516620Y-80106033D01*
X146516620Y-80497851D01*
X146367375Y-80591109D01*
X146308557Y-80636446D01*
X146259714Y-80692386D01*
X146222724Y-80756780D01*
X146199006Y-80827153D01*
X146189474Y-80900802D01*
X146194492Y-80974894D01*
X146213869Y-81046584D01*
X146246860Y-81113116D01*
X146511820Y-81537140D01*
X146557157Y-81595958D01*
X146613097Y-81644801D01*
X146677491Y-81681791D01*
X146747864Y-81705509D01*
X146821513Y-81715041D01*
X146895605Y-81710023D01*
X146967295Y-81690646D01*
X147033827Y-81657655D01*
X147669863Y-81260215D01*
X147728681Y-81214878D01*
X147777524Y-81158938D01*
X147814514Y-81094544D01*
X147838232Y-81024171D01*
X147847764Y-80950522D01*
X147842746Y-80876430D01*
X147823369Y-80804740D01*
X147790378Y-80738208D01*
X147525418Y-80314184D01*
X147520619Y-80307958D01*
X147520619Y-80289315D01*
X148487071Y-79322864D01*
X148470051Y-79352493D01*
X148446333Y-79422866D01*
X148436801Y-79496515D01*
X148441819Y-79570607D01*
X148461196Y-79642297D01*
X148494187Y-79708829D01*
X148759147Y-80132853D01*
X148804484Y-80191671D01*
X148860424Y-80240514D01*
X148924818Y-80277504D01*
X148995191Y-80301222D01*
X149068840Y-80310754D01*
X149142932Y-80305736D01*
X149214622Y-80286359D01*
X149281154Y-80253368D01*
X149917190Y-79855928D01*
X149976008Y-79810591D01*
X150024851Y-79754651D01*
X150061841Y-79690257D01*
X150085559Y-79619884D01*
X150095091Y-79546235D01*
X150090073Y-79472143D01*
X150070696Y-79400453D01*
X150037705Y-79333921D01*
X149972650Y-79229811D01*
X150400463Y-78801999D01*
X151728067Y-78802001D01*
X151752859Y-78926643D01*
X151811431Y-79068048D01*
X151896464Y-79195309D01*
X152004691Y-79303536D01*
X152094762Y-79363720D01*
X151907077Y-79461316D01*
X151829453Y-79435155D01*
X151727129Y-79421910D01*
X151624187Y-79428883D01*
X151524584Y-79455805D01*
X151432147Y-79501641D01*
X151139571Y-79684463D01*
X151057852Y-79747452D01*
X150989992Y-79825173D01*
X150938598Y-79914640D01*
X150905646Y-80012414D01*
X150897329Y-80076668D01*
X150512259Y-80348770D01*
X150469899Y-80343288D01*
X150395807Y-80348306D01*
X150324117Y-80367683D01*
X150257585Y-80400674D01*
X149621549Y-80798114D01*
X149562731Y-80843451D01*
X149513888Y-80899391D01*
X149476898Y-80963785D01*
X149453180Y-81034158D01*
X149443648Y-81107807D01*
X149448666Y-81181899D01*
X149468043Y-81253589D01*
X149501034Y-81320121D01*
X149547862Y-81395062D01*
X149123417Y-82146050D01*
X147244412Y-83367404D01*
X147219754Y-83380584D01*
X147183982Y-83409941D01*
X147147865Y-83438824D01*
X147129858Y-83460207D01*
X144092066Y-86498000D01*
X143627986Y-86498000D01*
X143606678Y-86495616D01*
X143578681Y-86498000D01*
X143575347Y-86498000D01*
X143554055Y-86500097D01*
X143508149Y-86504006D01*
X143504935Y-86504935D01*
X143501591Y-86505264D01*
X143457403Y-86518669D01*
X143413149Y-86531455D01*
X143410172Y-86532996D01*
X143406964Y-86533969D01*
X143366270Y-86555721D01*
X143325331Y-86576911D01*
X143322714Y-86579001D01*
X143319755Y-86580583D01*
X143284122Y-86609827D01*
X143248068Y-86638625D01*
X143245903Y-86641193D01*
X143243316Y-86643316D01*
X143214082Y-86678937D01*
X143200297Y-86695288D01*
X143198408Y-86698035D01*
X143180583Y-86719755D01*
X143170476Y-86738664D01*
X142086790Y-88314936D01*
X142073145Y-88334657D01*
X142072779Y-88335316D01*
X142072365Y-88335918D01*
X142061107Y-88356325D01*
X141062856Y-90153178D01*
X141052332Y-90171516D01*
X141050896Y-90174707D01*
X141049201Y-90177758D01*
X141040815Y-90197109D01*
X140161083Y-92152071D01*
X140159111Y-92154919D01*
X140140811Y-92197119D01*
X140132099Y-92216479D01*
X140131001Y-92219740D01*
X140129625Y-92222914D01*
X140123091Y-92243242D01*
X140108457Y-92286720D01*
X140108015Y-92290145D01*
X139232266Y-95014701D01*
X139225336Y-95029291D01*
X139217174Y-95061652D01*
X139214538Y-95069854D01*
X139211140Y-95085577D01*
X139207212Y-95101153D01*
X139205935Y-95109664D01*
X139198884Y-95142295D01*
X139198618Y-95158447D01*
X138905037Y-97115646D01*
X138902294Y-97130000D01*
X138901386Y-97139986D01*
X138899897Y-97149914D01*
X138899155Y-97164525D01*
X138700227Y-99352734D01*
X138698000Y-99375348D01*
X138698000Y-99377233D01*
X138697830Y-99379103D01*
X138698000Y-99401724D01*
X138698001Y-101263382D01*
X138696140Y-101276070D01*
X138698001Y-101312733D01*
X138698001Y-101324653D01*
X138699250Y-101337330D01*
X138699897Y-101350086D01*
X138701670Y-101361905D01*
X138705265Y-101398409D01*
X138708985Y-101410672D01*
X139001706Y-103362138D01*
X139002914Y-103374276D01*
X139005363Y-103386523D01*
X139007212Y-103398847D01*
X139010189Y-103410650D01*
X139207877Y-104399091D01*
X138958315Y-104149529D01*
X138634512Y-103933170D01*
X138274721Y-103784140D01*
X137892769Y-103708165D01*
X137503333Y-103708165D01*
X137121381Y-103784140D01*
X136761590Y-103933170D01*
X136437787Y-104149529D01*
X136162415Y-104424901D01*
X135946056Y-104748704D01*
X135797026Y-105108495D01*
X135785365Y-105167119D01*
X135497882Y-103729705D01*
X135302000Y-101379128D01*
X135302000Y-98421783D01*
X135497240Y-96176522D01*
X135888059Y-94417838D01*
X135908822Y-94338246D01*
X136773000Y-94338246D01*
X136773000Y-94461754D01*
X136797095Y-94582889D01*
X136844360Y-94696996D01*
X136912977Y-94799689D01*
X137000311Y-94887023D01*
X137103004Y-94955640D01*
X137217111Y-95002905D01*
X137338246Y-95027000D01*
X137461754Y-95027000D01*
X137582889Y-95002905D01*
X137696996Y-94955640D01*
X137799689Y-94887023D01*
X137887023Y-94799689D01*
X137955640Y-94696996D01*
X138002905Y-94582889D01*
X138027000Y-94461754D01*
X138027000Y-94338246D01*
X138002905Y-94217111D01*
X137955640Y-94103004D01*
X137887023Y-94000311D01*
X137799689Y-93912977D01*
X137696996Y-93844360D01*
X137582889Y-93797095D01*
X137461754Y-93773000D01*
X137338246Y-93773000D01*
X137217111Y-93797095D01*
X137103004Y-93844360D01*
X137000311Y-93912977D01*
X136912977Y-94000311D01*
X136844360Y-94103004D01*
X136797095Y-94217111D01*
X136773000Y-94338246D01*
X135908822Y-94338246D01*
X136480174Y-92148063D01*
X136967532Y-90783464D01*
X137851298Y-88721343D01*
X138832549Y-86955093D01*
X139810231Y-85390802D01*
X140985836Y-83921296D01*
X142009263Y-82740421D01*
X141981966Y-82806321D01*
X141905991Y-83188273D01*
X141905991Y-83577709D01*
X141981966Y-83959661D01*
X142130996Y-84319452D01*
X142347355Y-84643255D01*
X142622727Y-84918627D01*
X142946530Y-85134986D01*
X143306321Y-85284016D01*
X143688273Y-85359991D01*
X144077709Y-85359991D01*
X144459661Y-85284016D01*
X144819452Y-85134986D01*
X145143255Y-84918627D01*
X145418627Y-84643255D01*
X145634986Y-84319452D01*
X145784016Y-83959661D01*
X145859991Y-83577709D01*
X145859991Y-83188273D01*
X145784016Y-82806321D01*
X145634986Y-82446530D01*
X145418627Y-82122727D01*
X145143255Y-81847355D01*
X144819452Y-81630996D01*
X144459661Y-81481966D01*
X144077709Y-81405991D01*
X143688273Y-81405991D01*
X143320119Y-81479222D01*
X143430484Y-81378053D01*
X144615848Y-80390251D01*
X145954993Y-79338067D01*
X147537270Y-78690772D01*
X147651838Y-78738227D01*
G36*
X162532230Y-73529897D02*
G01*
X164552533Y-73763131D01*
X165013346Y-73852501D01*
X164975114Y-73868337D01*
X164765960Y-74008089D01*
X164588089Y-74185960D01*
X164448337Y-74395114D01*
X164352074Y-74627513D01*
X164310000Y-74839034D01*
X164267926Y-74627513D01*
X164171663Y-74395114D01*
X164031911Y-74185960D01*
X163854040Y-74008089D01*
X163644886Y-73868337D01*
X163412487Y-73772074D01*
X163165774Y-73723000D01*
X162914226Y-73723000D01*
X162667513Y-73772074D01*
X162435114Y-73868337D01*
X162225960Y-74008089D01*
X162048089Y-74185960D01*
X161908337Y-74395114D01*
X161812074Y-74627513D01*
X161770000Y-74839034D01*
X161727926Y-74627513D01*
X161631663Y-74395114D01*
X161491911Y-74185960D01*
X161314040Y-74008089D01*
X161104886Y-73868337D01*
X160872487Y-73772074D01*
X160625774Y-73723000D01*
X160374226Y-73723000D01*
X160127513Y-73772074D01*
X159895114Y-73868337D01*
X159685960Y-74008089D01*
X159508089Y-74185960D01*
X159368337Y-74395114D01*
X159272074Y-74627513D01*
X159230000Y-74839034D01*
X159187926Y-74627513D01*
X159091663Y-74395114D01*
X158951911Y-74185960D01*
X158774040Y-74008089D01*
X158564886Y-73868337D01*
X158332487Y-73772074D01*
X158085774Y-73723000D01*
X157834226Y-73723000D01*
X157587513Y-73772074D01*
X157355114Y-73868337D01*
X157145960Y-74008089D01*
X156968089Y-74185960D01*
X156828337Y-74395114D01*
X156732074Y-74627513D01*
X156683000Y-74874226D01*
X156683000Y-75125774D01*
X156732074Y-75372487D01*
X156828337Y-75604886D01*
X156967393Y-75812999D01*
X156120720Y-75812999D01*
X156096077Y-75810572D01*
X156071434Y-75812999D01*
X156071424Y-75812999D01*
X155997668Y-75820263D01*
X155903041Y-75848968D01*
X155862445Y-75870667D01*
X155815831Y-75895582D01*
X155758541Y-75942599D01*
X155758533Y-75942607D01*
X155739393Y-75958315D01*
X155723684Y-75977456D01*
X155124668Y-76576473D01*
X155103738Y-76471252D01*
X155018778Y-76266142D01*
X154895437Y-76081548D01*
X154738452Y-75924563D01*
X154553858Y-75801222D01*
X154348748Y-75716262D01*
X154131005Y-75672950D01*
X153908995Y-75672950D01*
X153691252Y-75716262D01*
X153486142Y-75801222D01*
X153301548Y-75924563D01*
X153144563Y-76081548D01*
X153021222Y-76266142D01*
X152936262Y-76471252D01*
X152892950Y-76688995D01*
X152892950Y-76883015D01*
X151772401Y-75762467D01*
X151756684Y-75743316D01*
X151680245Y-75680583D01*
X151593036Y-75633969D01*
X151498409Y-75605264D01*
X151424653Y-75598000D01*
X151424643Y-75598000D01*
X151400000Y-75595573D01*
X151375357Y-75598000D01*
X150082175Y-75598000D01*
X150575904Y-75376665D01*
X152489922Y-74689233D01*
X154450945Y-74150334D01*
X156447467Y-73763131D01*
X158467770Y-73529897D01*
X160500000Y-73452000D01*
X162532230Y-73529897D01*
G37*
X162532230Y-73529897D02*
X164552533Y-73763131D01*
X165013346Y-73852501D01*
X164975114Y-73868337D01*
X164765960Y-74008089D01*
X164588089Y-74185960D01*
X164448337Y-74395114D01*
X164352074Y-74627513D01*
X164310000Y-74839034D01*
X164267926Y-74627513D01*
X164171663Y-74395114D01*
X164031911Y-74185960D01*
X163854040Y-74008089D01*
X163644886Y-73868337D01*
X163412487Y-73772074D01*
X163165774Y-73723000D01*
X162914226Y-73723000D01*
X162667513Y-73772074D01*
X162435114Y-73868337D01*
X162225960Y-74008089D01*
X162048089Y-74185960D01*
X161908337Y-74395114D01*
X161812074Y-74627513D01*
X161770000Y-74839034D01*
X161727926Y-74627513D01*
X161631663Y-74395114D01*
X161491911Y-74185960D01*
X161314040Y-74008089D01*
X161104886Y-73868337D01*
X160872487Y-73772074D01*
X160625774Y-73723000D01*
X160374226Y-73723000D01*
X160127513Y-73772074D01*
X159895114Y-73868337D01*
X159685960Y-74008089D01*
X159508089Y-74185960D01*
X159368337Y-74395114D01*
X159272074Y-74627513D01*
X159230000Y-74839034D01*
X159187926Y-74627513D01*
X159091663Y-74395114D01*
X158951911Y-74185960D01*
X158774040Y-74008089D01*
X158564886Y-73868337D01*
X158332487Y-73772074D01*
X158085774Y-73723000D01*
X157834226Y-73723000D01*
X157587513Y-73772074D01*
X157355114Y-73868337D01*
X157145960Y-74008089D01*
X156968089Y-74185960D01*
X156828337Y-74395114D01*
X156732074Y-74627513D01*
X156683000Y-74874226D01*
X156683000Y-75125774D01*
X156732074Y-75372487D01*
X156828337Y-75604886D01*
X156967393Y-75812999D01*
X156120720Y-75812999D01*
X156096077Y-75810572D01*
X156071434Y-75812999D01*
X156071424Y-75812999D01*
X155997668Y-75820263D01*
X155903041Y-75848968D01*
X155862445Y-75870667D01*
X155815831Y-75895582D01*
X155758541Y-75942599D01*
X155758533Y-75942607D01*
X155739393Y-75958315D01*
X155723684Y-75977456D01*
X155124668Y-76576473D01*
X155103738Y-76471252D01*
X155018778Y-76266142D01*
X154895437Y-76081548D01*
X154738452Y-75924563D01*
X154553858Y-75801222D01*
X154348748Y-75716262D01*
X154131005Y-75672950D01*
X153908995Y-75672950D01*
X153691252Y-75716262D01*
X153486142Y-75801222D01*
X153301548Y-75924563D01*
X153144563Y-76081548D01*
X153021222Y-76266142D01*
X152936262Y-76471252D01*
X152892950Y-76688995D01*
X152892950Y-76883015D01*
X151772401Y-75762467D01*
X151756684Y-75743316D01*
X151680245Y-75680583D01*
X151593036Y-75633969D01*
X151498409Y-75605264D01*
X151424653Y-75598000D01*
X151424643Y-75598000D01*
X151400000Y-75595573D01*
X151375357Y-75598000D01*
X150082175Y-75598000D01*
X150575904Y-75376665D01*
X152489922Y-74689233D01*
X154450945Y-74150334D01*
X156447467Y-73763131D01*
X158467770Y-73529897D01*
X160500000Y-73452000D01*
X162532230Y-73529897D01*
M02*
