G04 #@! TF.GenerationSoftware,KiCad,Pcbnew,5.1.2-f72e74a~84~ubuntu18.04.1*
G04 #@! TF.CreationDate,2019-09-23T03:00:40+02:00*
G04 #@! TF.ProjectId,roboy_3.0_40mm_ball_sensor,726f626f-795f-4332-9e30-5f34306d6d5f,rev?*
G04 #@! TF.SameCoordinates,Original*
G04 #@! TF.FileFunction,Paste,Top*
G04 #@! TF.FilePolarity,Positive*
%FSLAX46Y46*%
G04 Gerber Fmt 4.6, Leading zero omitted, Abs format (unit mm)*
G04 Created by KiCad (PCBNEW 5.1.2-f72e74a~84~ubuntu18.04.1) date 2019-09-23 03:00:40*
%MOMM*%
%LPD*%
G04 APERTURE LIST*
%ADD10R,1.060000X0.650000*%
%ADD11C,0.100000*%
%ADD12C,0.590000*%
G04 APERTURE END LIST*
D10*
X139200000Y-92450000D03*
X139200000Y-91500000D03*
X139200000Y-93400000D03*
X137000000Y-93400000D03*
X137000000Y-92450000D03*
X137000000Y-91500000D03*
X145400000Y-118250000D03*
X145400000Y-119200000D03*
X145400000Y-120150000D03*
X147600000Y-120150000D03*
X147600000Y-118250000D03*
X147600000Y-119200000D03*
X173700000Y-118350000D03*
X173700000Y-119300000D03*
X173700000Y-120250000D03*
X175900000Y-120250000D03*
X175900000Y-118350000D03*
X175900000Y-119300000D03*
D11*
G36*
X138246958Y-94580710D02*
G01*
X138261276Y-94582834D01*
X138275317Y-94586351D01*
X138288946Y-94591228D01*
X138302031Y-94597417D01*
X138314447Y-94604858D01*
X138326073Y-94613481D01*
X138336798Y-94623202D01*
X138346519Y-94633927D01*
X138355142Y-94645553D01*
X138362583Y-94657969D01*
X138368772Y-94671054D01*
X138373649Y-94684683D01*
X138377166Y-94698724D01*
X138379290Y-94713042D01*
X138380000Y-94727500D01*
X138380000Y-95072500D01*
X138379290Y-95086958D01*
X138377166Y-95101276D01*
X138373649Y-95115317D01*
X138368772Y-95128946D01*
X138362583Y-95142031D01*
X138355142Y-95154447D01*
X138346519Y-95166073D01*
X138336798Y-95176798D01*
X138326073Y-95186519D01*
X138314447Y-95195142D01*
X138302031Y-95202583D01*
X138288946Y-95208772D01*
X138275317Y-95213649D01*
X138261276Y-95217166D01*
X138246958Y-95219290D01*
X138232500Y-95220000D01*
X137937500Y-95220000D01*
X137923042Y-95219290D01*
X137908724Y-95217166D01*
X137894683Y-95213649D01*
X137881054Y-95208772D01*
X137867969Y-95202583D01*
X137855553Y-95195142D01*
X137843927Y-95186519D01*
X137833202Y-95176798D01*
X137823481Y-95166073D01*
X137814858Y-95154447D01*
X137807417Y-95142031D01*
X137801228Y-95128946D01*
X137796351Y-95115317D01*
X137792834Y-95101276D01*
X137790710Y-95086958D01*
X137790000Y-95072500D01*
X137790000Y-94727500D01*
X137790710Y-94713042D01*
X137792834Y-94698724D01*
X137796351Y-94684683D01*
X137801228Y-94671054D01*
X137807417Y-94657969D01*
X137814858Y-94645553D01*
X137823481Y-94633927D01*
X137833202Y-94623202D01*
X137843927Y-94613481D01*
X137855553Y-94604858D01*
X137867969Y-94597417D01*
X137881054Y-94591228D01*
X137894683Y-94586351D01*
X137908724Y-94582834D01*
X137923042Y-94580710D01*
X137937500Y-94580000D01*
X138232500Y-94580000D01*
X138246958Y-94580710D01*
X138246958Y-94580710D01*
G37*
D12*
X138085000Y-94900000D03*
D11*
G36*
X137276958Y-94580710D02*
G01*
X137291276Y-94582834D01*
X137305317Y-94586351D01*
X137318946Y-94591228D01*
X137332031Y-94597417D01*
X137344447Y-94604858D01*
X137356073Y-94613481D01*
X137366798Y-94623202D01*
X137376519Y-94633927D01*
X137385142Y-94645553D01*
X137392583Y-94657969D01*
X137398772Y-94671054D01*
X137403649Y-94684683D01*
X137407166Y-94698724D01*
X137409290Y-94713042D01*
X137410000Y-94727500D01*
X137410000Y-95072500D01*
X137409290Y-95086958D01*
X137407166Y-95101276D01*
X137403649Y-95115317D01*
X137398772Y-95128946D01*
X137392583Y-95142031D01*
X137385142Y-95154447D01*
X137376519Y-95166073D01*
X137366798Y-95176798D01*
X137356073Y-95186519D01*
X137344447Y-95195142D01*
X137332031Y-95202583D01*
X137318946Y-95208772D01*
X137305317Y-95213649D01*
X137291276Y-95217166D01*
X137276958Y-95219290D01*
X137262500Y-95220000D01*
X136967500Y-95220000D01*
X136953042Y-95219290D01*
X136938724Y-95217166D01*
X136924683Y-95213649D01*
X136911054Y-95208772D01*
X136897969Y-95202583D01*
X136885553Y-95195142D01*
X136873927Y-95186519D01*
X136863202Y-95176798D01*
X136853481Y-95166073D01*
X136844858Y-95154447D01*
X136837417Y-95142031D01*
X136831228Y-95128946D01*
X136826351Y-95115317D01*
X136822834Y-95101276D01*
X136820710Y-95086958D01*
X136820000Y-95072500D01*
X136820000Y-94727500D01*
X136820710Y-94713042D01*
X136822834Y-94698724D01*
X136826351Y-94684683D01*
X136831228Y-94671054D01*
X136837417Y-94657969D01*
X136844858Y-94645553D01*
X136853481Y-94633927D01*
X136863202Y-94623202D01*
X136873927Y-94613481D01*
X136885553Y-94604858D01*
X136897969Y-94597417D01*
X136911054Y-94591228D01*
X136924683Y-94586351D01*
X136938724Y-94582834D01*
X136953042Y-94580710D01*
X136967500Y-94580000D01*
X137262500Y-94580000D01*
X137276958Y-94580710D01*
X137276958Y-94580710D01*
G37*
D12*
X137115000Y-94900000D03*
D11*
G36*
X149186958Y-118920710D02*
G01*
X149201276Y-118922834D01*
X149215317Y-118926351D01*
X149228946Y-118931228D01*
X149242031Y-118937417D01*
X149254447Y-118944858D01*
X149266073Y-118953481D01*
X149276798Y-118963202D01*
X149286519Y-118973927D01*
X149295142Y-118985553D01*
X149302583Y-118997969D01*
X149308772Y-119011054D01*
X149313649Y-119024683D01*
X149317166Y-119038724D01*
X149319290Y-119053042D01*
X149320000Y-119067500D01*
X149320000Y-119362500D01*
X149319290Y-119376958D01*
X149317166Y-119391276D01*
X149313649Y-119405317D01*
X149308772Y-119418946D01*
X149302583Y-119432031D01*
X149295142Y-119444447D01*
X149286519Y-119456073D01*
X149276798Y-119466798D01*
X149266073Y-119476519D01*
X149254447Y-119485142D01*
X149242031Y-119492583D01*
X149228946Y-119498772D01*
X149215317Y-119503649D01*
X149201276Y-119507166D01*
X149186958Y-119509290D01*
X149172500Y-119510000D01*
X148827500Y-119510000D01*
X148813042Y-119509290D01*
X148798724Y-119507166D01*
X148784683Y-119503649D01*
X148771054Y-119498772D01*
X148757969Y-119492583D01*
X148745553Y-119485142D01*
X148733927Y-119476519D01*
X148723202Y-119466798D01*
X148713481Y-119456073D01*
X148704858Y-119444447D01*
X148697417Y-119432031D01*
X148691228Y-119418946D01*
X148686351Y-119405317D01*
X148682834Y-119391276D01*
X148680710Y-119376958D01*
X148680000Y-119362500D01*
X148680000Y-119067500D01*
X148680710Y-119053042D01*
X148682834Y-119038724D01*
X148686351Y-119024683D01*
X148691228Y-119011054D01*
X148697417Y-118997969D01*
X148704858Y-118985553D01*
X148713481Y-118973927D01*
X148723202Y-118963202D01*
X148733927Y-118953481D01*
X148745553Y-118944858D01*
X148757969Y-118937417D01*
X148771054Y-118931228D01*
X148784683Y-118926351D01*
X148798724Y-118922834D01*
X148813042Y-118920710D01*
X148827500Y-118920000D01*
X149172500Y-118920000D01*
X149186958Y-118920710D01*
X149186958Y-118920710D01*
G37*
D12*
X149000000Y-119215000D03*
D11*
G36*
X149186958Y-119890710D02*
G01*
X149201276Y-119892834D01*
X149215317Y-119896351D01*
X149228946Y-119901228D01*
X149242031Y-119907417D01*
X149254447Y-119914858D01*
X149266073Y-119923481D01*
X149276798Y-119933202D01*
X149286519Y-119943927D01*
X149295142Y-119955553D01*
X149302583Y-119967969D01*
X149308772Y-119981054D01*
X149313649Y-119994683D01*
X149317166Y-120008724D01*
X149319290Y-120023042D01*
X149320000Y-120037500D01*
X149320000Y-120332500D01*
X149319290Y-120346958D01*
X149317166Y-120361276D01*
X149313649Y-120375317D01*
X149308772Y-120388946D01*
X149302583Y-120402031D01*
X149295142Y-120414447D01*
X149286519Y-120426073D01*
X149276798Y-120436798D01*
X149266073Y-120446519D01*
X149254447Y-120455142D01*
X149242031Y-120462583D01*
X149228946Y-120468772D01*
X149215317Y-120473649D01*
X149201276Y-120477166D01*
X149186958Y-120479290D01*
X149172500Y-120480000D01*
X148827500Y-120480000D01*
X148813042Y-120479290D01*
X148798724Y-120477166D01*
X148784683Y-120473649D01*
X148771054Y-120468772D01*
X148757969Y-120462583D01*
X148745553Y-120455142D01*
X148733927Y-120446519D01*
X148723202Y-120436798D01*
X148713481Y-120426073D01*
X148704858Y-120414447D01*
X148697417Y-120402031D01*
X148691228Y-120388946D01*
X148686351Y-120375317D01*
X148682834Y-120361276D01*
X148680710Y-120346958D01*
X148680000Y-120332500D01*
X148680000Y-120037500D01*
X148680710Y-120023042D01*
X148682834Y-120008724D01*
X148686351Y-119994683D01*
X148691228Y-119981054D01*
X148697417Y-119967969D01*
X148704858Y-119955553D01*
X148713481Y-119943927D01*
X148723202Y-119933202D01*
X148733927Y-119923481D01*
X148745553Y-119914858D01*
X148757969Y-119907417D01*
X148771054Y-119901228D01*
X148784683Y-119896351D01*
X148798724Y-119892834D01*
X148813042Y-119890710D01*
X148827500Y-119890000D01*
X149172500Y-119890000D01*
X149186958Y-119890710D01*
X149186958Y-119890710D01*
G37*
D12*
X149000000Y-120185000D03*
D11*
G36*
X177586958Y-119990710D02*
G01*
X177601276Y-119992834D01*
X177615317Y-119996351D01*
X177628946Y-120001228D01*
X177642031Y-120007417D01*
X177654447Y-120014858D01*
X177666073Y-120023481D01*
X177676798Y-120033202D01*
X177686519Y-120043927D01*
X177695142Y-120055553D01*
X177702583Y-120067969D01*
X177708772Y-120081054D01*
X177713649Y-120094683D01*
X177717166Y-120108724D01*
X177719290Y-120123042D01*
X177720000Y-120137500D01*
X177720000Y-120432500D01*
X177719290Y-120446958D01*
X177717166Y-120461276D01*
X177713649Y-120475317D01*
X177708772Y-120488946D01*
X177702583Y-120502031D01*
X177695142Y-120514447D01*
X177686519Y-120526073D01*
X177676798Y-120536798D01*
X177666073Y-120546519D01*
X177654447Y-120555142D01*
X177642031Y-120562583D01*
X177628946Y-120568772D01*
X177615317Y-120573649D01*
X177601276Y-120577166D01*
X177586958Y-120579290D01*
X177572500Y-120580000D01*
X177227500Y-120580000D01*
X177213042Y-120579290D01*
X177198724Y-120577166D01*
X177184683Y-120573649D01*
X177171054Y-120568772D01*
X177157969Y-120562583D01*
X177145553Y-120555142D01*
X177133927Y-120546519D01*
X177123202Y-120536798D01*
X177113481Y-120526073D01*
X177104858Y-120514447D01*
X177097417Y-120502031D01*
X177091228Y-120488946D01*
X177086351Y-120475317D01*
X177082834Y-120461276D01*
X177080710Y-120446958D01*
X177080000Y-120432500D01*
X177080000Y-120137500D01*
X177080710Y-120123042D01*
X177082834Y-120108724D01*
X177086351Y-120094683D01*
X177091228Y-120081054D01*
X177097417Y-120067969D01*
X177104858Y-120055553D01*
X177113481Y-120043927D01*
X177123202Y-120033202D01*
X177133927Y-120023481D01*
X177145553Y-120014858D01*
X177157969Y-120007417D01*
X177171054Y-120001228D01*
X177184683Y-119996351D01*
X177198724Y-119992834D01*
X177213042Y-119990710D01*
X177227500Y-119990000D01*
X177572500Y-119990000D01*
X177586958Y-119990710D01*
X177586958Y-119990710D01*
G37*
D12*
X177400000Y-120285000D03*
D11*
G36*
X177586958Y-119020710D02*
G01*
X177601276Y-119022834D01*
X177615317Y-119026351D01*
X177628946Y-119031228D01*
X177642031Y-119037417D01*
X177654447Y-119044858D01*
X177666073Y-119053481D01*
X177676798Y-119063202D01*
X177686519Y-119073927D01*
X177695142Y-119085553D01*
X177702583Y-119097969D01*
X177708772Y-119111054D01*
X177713649Y-119124683D01*
X177717166Y-119138724D01*
X177719290Y-119153042D01*
X177720000Y-119167500D01*
X177720000Y-119462500D01*
X177719290Y-119476958D01*
X177717166Y-119491276D01*
X177713649Y-119505317D01*
X177708772Y-119518946D01*
X177702583Y-119532031D01*
X177695142Y-119544447D01*
X177686519Y-119556073D01*
X177676798Y-119566798D01*
X177666073Y-119576519D01*
X177654447Y-119585142D01*
X177642031Y-119592583D01*
X177628946Y-119598772D01*
X177615317Y-119603649D01*
X177601276Y-119607166D01*
X177586958Y-119609290D01*
X177572500Y-119610000D01*
X177227500Y-119610000D01*
X177213042Y-119609290D01*
X177198724Y-119607166D01*
X177184683Y-119603649D01*
X177171054Y-119598772D01*
X177157969Y-119592583D01*
X177145553Y-119585142D01*
X177133927Y-119576519D01*
X177123202Y-119566798D01*
X177113481Y-119556073D01*
X177104858Y-119544447D01*
X177097417Y-119532031D01*
X177091228Y-119518946D01*
X177086351Y-119505317D01*
X177082834Y-119491276D01*
X177080710Y-119476958D01*
X177080000Y-119462500D01*
X177080000Y-119167500D01*
X177080710Y-119153042D01*
X177082834Y-119138724D01*
X177086351Y-119124683D01*
X177091228Y-119111054D01*
X177097417Y-119097969D01*
X177104858Y-119085553D01*
X177113481Y-119073927D01*
X177123202Y-119063202D01*
X177133927Y-119053481D01*
X177145553Y-119044858D01*
X177157969Y-119037417D01*
X177171054Y-119031228D01*
X177184683Y-119026351D01*
X177198724Y-119022834D01*
X177213042Y-119020710D01*
X177227500Y-119020000D01*
X177572500Y-119020000D01*
X177586958Y-119020710D01*
X177586958Y-119020710D01*
G37*
D12*
X177400000Y-119315000D03*
D11*
G36*
X185586958Y-93890710D02*
G01*
X185601276Y-93892834D01*
X185615317Y-93896351D01*
X185628946Y-93901228D01*
X185642031Y-93907417D01*
X185654447Y-93914858D01*
X185666073Y-93923481D01*
X185676798Y-93933202D01*
X185686519Y-93943927D01*
X185695142Y-93955553D01*
X185702583Y-93967969D01*
X185708772Y-93981054D01*
X185713649Y-93994683D01*
X185717166Y-94008724D01*
X185719290Y-94023042D01*
X185720000Y-94037500D01*
X185720000Y-94332500D01*
X185719290Y-94346958D01*
X185717166Y-94361276D01*
X185713649Y-94375317D01*
X185708772Y-94388946D01*
X185702583Y-94402031D01*
X185695142Y-94414447D01*
X185686519Y-94426073D01*
X185676798Y-94436798D01*
X185666073Y-94446519D01*
X185654447Y-94455142D01*
X185642031Y-94462583D01*
X185628946Y-94468772D01*
X185615317Y-94473649D01*
X185601276Y-94477166D01*
X185586958Y-94479290D01*
X185572500Y-94480000D01*
X185227500Y-94480000D01*
X185213042Y-94479290D01*
X185198724Y-94477166D01*
X185184683Y-94473649D01*
X185171054Y-94468772D01*
X185157969Y-94462583D01*
X185145553Y-94455142D01*
X185133927Y-94446519D01*
X185123202Y-94436798D01*
X185113481Y-94426073D01*
X185104858Y-94414447D01*
X185097417Y-94402031D01*
X185091228Y-94388946D01*
X185086351Y-94375317D01*
X185082834Y-94361276D01*
X185080710Y-94346958D01*
X185080000Y-94332500D01*
X185080000Y-94037500D01*
X185080710Y-94023042D01*
X185082834Y-94008724D01*
X185086351Y-93994683D01*
X185091228Y-93981054D01*
X185097417Y-93967969D01*
X185104858Y-93955553D01*
X185113481Y-93943927D01*
X185123202Y-93933202D01*
X185133927Y-93923481D01*
X185145553Y-93914858D01*
X185157969Y-93907417D01*
X185171054Y-93901228D01*
X185184683Y-93896351D01*
X185198724Y-93892834D01*
X185213042Y-93890710D01*
X185227500Y-93890000D01*
X185572500Y-93890000D01*
X185586958Y-93890710D01*
X185586958Y-93890710D01*
G37*
D12*
X185400000Y-94185000D03*
D11*
G36*
X185586958Y-92920710D02*
G01*
X185601276Y-92922834D01*
X185615317Y-92926351D01*
X185628946Y-92931228D01*
X185642031Y-92937417D01*
X185654447Y-92944858D01*
X185666073Y-92953481D01*
X185676798Y-92963202D01*
X185686519Y-92973927D01*
X185695142Y-92985553D01*
X185702583Y-92997969D01*
X185708772Y-93011054D01*
X185713649Y-93024683D01*
X185717166Y-93038724D01*
X185719290Y-93053042D01*
X185720000Y-93067500D01*
X185720000Y-93362500D01*
X185719290Y-93376958D01*
X185717166Y-93391276D01*
X185713649Y-93405317D01*
X185708772Y-93418946D01*
X185702583Y-93432031D01*
X185695142Y-93444447D01*
X185686519Y-93456073D01*
X185676798Y-93466798D01*
X185666073Y-93476519D01*
X185654447Y-93485142D01*
X185642031Y-93492583D01*
X185628946Y-93498772D01*
X185615317Y-93503649D01*
X185601276Y-93507166D01*
X185586958Y-93509290D01*
X185572500Y-93510000D01*
X185227500Y-93510000D01*
X185213042Y-93509290D01*
X185198724Y-93507166D01*
X185184683Y-93503649D01*
X185171054Y-93498772D01*
X185157969Y-93492583D01*
X185145553Y-93485142D01*
X185133927Y-93476519D01*
X185123202Y-93466798D01*
X185113481Y-93456073D01*
X185104858Y-93444447D01*
X185097417Y-93432031D01*
X185091228Y-93418946D01*
X185086351Y-93405317D01*
X185082834Y-93391276D01*
X185080710Y-93376958D01*
X185080000Y-93362500D01*
X185080000Y-93067500D01*
X185080710Y-93053042D01*
X185082834Y-93038724D01*
X185086351Y-93024683D01*
X185091228Y-93011054D01*
X185097417Y-92997969D01*
X185104858Y-92985553D01*
X185113481Y-92973927D01*
X185123202Y-92963202D01*
X185133927Y-92953481D01*
X185145553Y-92944858D01*
X185157969Y-92937417D01*
X185171054Y-92931228D01*
X185184683Y-92926351D01*
X185198724Y-92922834D01*
X185213042Y-92920710D01*
X185227500Y-92920000D01*
X185572500Y-92920000D01*
X185586958Y-92920710D01*
X185586958Y-92920710D01*
G37*
D12*
X185400000Y-93215000D03*
D10*
X181725001Y-92075001D03*
X181725001Y-93025001D03*
X181725001Y-93975001D03*
X183925001Y-93975001D03*
X183925001Y-92075001D03*
X183925001Y-93025001D03*
M02*
