G04 #@! TF.GenerationSoftware,KiCad,Pcbnew,5.0.2-bee76a0~70~ubuntu18.04.1*
G04 #@! TF.CreationDate,2019-08-19T12:56:06+02:00*
G04 #@! TF.ProjectId,roboy_3.0_40mm_ball_sensor,726f626f-795f-4332-9e30-5f34306d6d5f,rev?*
G04 #@! TF.SameCoordinates,Original*
G04 #@! TF.FileFunction,Soldermask,Top*
G04 #@! TF.FilePolarity,Negative*
%FSLAX46Y46*%
G04 Gerber Fmt 4.6, Leading zero omitted, Abs format (unit mm)*
G04 Created by KiCad (PCBNEW 5.0.2-bee76a0~70~ubuntu18.04.1) date Mo 19 Aug 2019 12:56:06 CEST*
%MOMM*%
%LPD*%
G01*
G04 APERTURE LIST*
%ADD10C,0.010000*%
%ADD11C,0.060000*%
%ADD12C,0.100000*%
G04 APERTURE END LIST*
D10*
G04 #@! TO.C,G\002A\002A\002A*
G36*
X180111411Y-82247658D02*
X180160303Y-82249034D01*
X180201791Y-82251227D01*
X180204248Y-82251404D01*
X180370730Y-82268617D01*
X180534856Y-82295619D01*
X180696263Y-82332236D01*
X180854589Y-82378297D01*
X181009470Y-82433628D01*
X181160545Y-82498056D01*
X181307451Y-82571410D01*
X181449824Y-82653515D01*
X181587304Y-82744199D01*
X181719526Y-82843290D01*
X181846128Y-82950614D01*
X181966748Y-83065999D01*
X182011488Y-83112506D01*
X182122388Y-83237802D01*
X182224852Y-83368680D01*
X182318766Y-83504894D01*
X182404014Y-83646197D01*
X182480485Y-83792344D01*
X182548064Y-83943091D01*
X182606637Y-84098190D01*
X182656090Y-84257396D01*
X182696310Y-84420465D01*
X182727184Y-84587149D01*
X182741027Y-84687580D01*
X182743688Y-84715614D01*
X182746056Y-84752158D01*
X182748107Y-84795565D01*
X182749818Y-84844188D01*
X182751168Y-84896379D01*
X182752131Y-84950493D01*
X182752687Y-85004881D01*
X182752810Y-85057898D01*
X182752479Y-85107897D01*
X182751671Y-85153229D01*
X182750362Y-85192250D01*
X182748529Y-85223311D01*
X182748521Y-85223409D01*
X182730425Y-85387738D01*
X182702523Y-85549947D01*
X182665024Y-85709636D01*
X182618137Y-85866405D01*
X182562068Y-86019853D01*
X182497026Y-86169580D01*
X182423220Y-86315186D01*
X182340858Y-86456271D01*
X182250147Y-86592433D01*
X182151295Y-86723273D01*
X182044512Y-86848391D01*
X181930005Y-86967385D01*
X181807982Y-87079856D01*
X181763827Y-87117365D01*
X181632339Y-87220164D01*
X181495556Y-87314370D01*
X181353820Y-87399844D01*
X181207475Y-87476444D01*
X181056863Y-87544030D01*
X180902328Y-87602462D01*
X180744213Y-87651599D01*
X180582861Y-87691300D01*
X180418615Y-87721425D01*
X180251818Y-87741834D01*
X180236220Y-87743230D01*
X180204605Y-87745421D01*
X180165273Y-87747283D01*
X180120337Y-87748791D01*
X180071909Y-87749916D01*
X180022102Y-87750634D01*
X179973029Y-87750917D01*
X179926802Y-87750740D01*
X179885534Y-87750076D01*
X179851338Y-87748899D01*
X179838694Y-87748187D01*
X179669062Y-87732042D01*
X179502378Y-87706308D01*
X179338908Y-87671099D01*
X179178916Y-87626529D01*
X179022667Y-87572712D01*
X178870427Y-87509763D01*
X178722461Y-87437796D01*
X178579033Y-87356925D01*
X178440408Y-87267265D01*
X178306852Y-87168929D01*
X178178630Y-87062031D01*
X178117269Y-87006036D01*
X177998879Y-86887867D01*
X177888479Y-86763571D01*
X177786241Y-86633510D01*
X177692338Y-86498048D01*
X177606943Y-86357546D01*
X177530229Y-86212369D01*
X177462370Y-86062880D01*
X177403537Y-85909441D01*
X177353904Y-85752416D01*
X177313644Y-85592168D01*
X177282930Y-85429060D01*
X177261935Y-85263454D01*
X177256484Y-85199168D01*
X177254235Y-85158243D01*
X177252806Y-85109784D01*
X177252158Y-85055741D01*
X177252254Y-84998065D01*
X177252845Y-84954280D01*
X178935866Y-84954280D01*
X178936087Y-85014867D01*
X178936800Y-85067255D01*
X178938154Y-85113398D01*
X178940296Y-85155249D01*
X178943376Y-85194763D01*
X178947541Y-85233895D01*
X178952939Y-85274598D01*
X178959719Y-85318827D01*
X178966683Y-85360680D01*
X178991321Y-85485767D01*
X179023172Y-85615784D01*
X179061644Y-85749155D01*
X179106146Y-85884306D01*
X179156085Y-86019660D01*
X179210869Y-86153644D01*
X179269907Y-86284683D01*
X179332605Y-86411201D01*
X179398373Y-86531623D01*
X179422138Y-86572260D01*
X179447850Y-86614150D01*
X179472392Y-86651070D01*
X179497458Y-86685163D01*
X179524739Y-86718577D01*
X179555927Y-86753455D01*
X179592714Y-86791944D01*
X179606237Y-86805668D01*
X179674539Y-86872063D01*
X179740032Y-86930339D01*
X179804180Y-86981594D01*
X179868445Y-87026927D01*
X179934292Y-87067436D01*
X180003183Y-87104220D01*
X180005625Y-87105432D01*
X180072865Y-87136631D01*
X180140523Y-87163591D01*
X180209818Y-87186574D01*
X180281972Y-87205841D01*
X180358208Y-87221653D01*
X180439746Y-87234271D01*
X180527807Y-87243955D01*
X180623614Y-87250968D01*
X180704301Y-87254743D01*
X180718468Y-87254065D01*
X180739174Y-87251605D01*
X180763042Y-87247805D01*
X180776346Y-87245295D01*
X180882126Y-87218969D01*
X180986227Y-87182724D01*
X181088740Y-87136520D01*
X181189759Y-87080316D01*
X181268715Y-87028715D01*
X181304948Y-87002443D01*
X181345856Y-86971048D01*
X181390005Y-86935764D01*
X181435964Y-86897826D01*
X181482299Y-86858467D01*
X181527577Y-86818921D01*
X181570365Y-86780423D01*
X181609230Y-86744207D01*
X181642740Y-86711506D01*
X181669357Y-86683669D01*
X181719078Y-86626571D01*
X181768026Y-86565833D01*
X181815342Y-86502772D01*
X181860168Y-86438702D01*
X181901646Y-86374939D01*
X181938916Y-86312800D01*
X181971120Y-86253600D01*
X181997399Y-86198654D01*
X182015547Y-86153160D01*
X182027166Y-86116683D01*
X182033669Y-86086920D01*
X182035291Y-86061946D01*
X182032266Y-86039838D01*
X182030229Y-86032655D01*
X182021899Y-85999183D01*
X182015174Y-85955850D01*
X182010045Y-85902582D01*
X182008557Y-85880480D01*
X182006914Y-85857285D01*
X182005091Y-85837827D01*
X182003327Y-85824354D01*
X182002048Y-85819279D01*
X181995985Y-85815091D01*
X181983461Y-85808816D01*
X181971213Y-85803494D01*
X181935191Y-85785805D01*
X181905050Y-85764111D01*
X181880055Y-85737333D01*
X181859472Y-85704396D01*
X181842567Y-85664221D01*
X181828606Y-85615733D01*
X181821731Y-85584200D01*
X181813109Y-85529984D01*
X181806872Y-85467299D01*
X181803003Y-85397547D01*
X181801488Y-85322131D01*
X181802310Y-85242453D01*
X181805454Y-85159917D01*
X181810904Y-85075924D01*
X181818644Y-84991878D01*
X181828658Y-84909181D01*
X181829391Y-84903857D01*
X181837683Y-84852621D01*
X181848851Y-84798523D01*
X181863299Y-84739881D01*
X181881436Y-84675012D01*
X181897507Y-84621894D01*
X181908001Y-84586596D01*
X181914749Y-84560223D01*
X181917856Y-84542298D01*
X181917630Y-84532994D01*
X181916992Y-84525817D01*
X181916273Y-84509339D01*
X181915490Y-84484422D01*
X181914662Y-84451926D01*
X181913807Y-84412708D01*
X181912943Y-84367631D01*
X181912087Y-84317553D01*
X181911258Y-84263335D01*
X181910474Y-84205836D01*
X181910024Y-84169420D01*
X181909099Y-84094866D01*
X181908178Y-84029436D01*
X181907209Y-83972094D01*
X181906143Y-83921802D01*
X181904928Y-83877525D01*
X181903514Y-83838228D01*
X181901851Y-83802872D01*
X181899886Y-83770422D01*
X181897570Y-83739843D01*
X181894853Y-83710097D01*
X181891682Y-83680148D01*
X181888009Y-83648961D01*
X181883781Y-83615498D01*
X181882415Y-83604995D01*
X181873450Y-83542533D01*
X181862637Y-83477182D01*
X181850663Y-83412772D01*
X181838216Y-83353131D01*
X181833201Y-83331220D01*
X181827194Y-83305740D01*
X181821859Y-83283078D01*
X181817719Y-83265465D01*
X181815300Y-83255135D01*
X181815099Y-83254273D01*
X181809514Y-83244596D01*
X181796770Y-83230140D01*
X181778059Y-83211912D01*
X181754573Y-83190920D01*
X181727505Y-83168170D01*
X181698047Y-83144671D01*
X181667391Y-83121430D01*
X181636729Y-83099454D01*
X181612900Y-83083398D01*
X181519663Y-83028561D01*
X181420366Y-82981665D01*
X181314885Y-82942665D01*
X181203099Y-82911515D01*
X181084885Y-82888173D01*
X181074420Y-82886529D01*
X181029797Y-82880994D01*
X180977546Y-82876733D01*
X180920123Y-82873789D01*
X180859984Y-82872208D01*
X180799587Y-82872036D01*
X180741389Y-82873316D01*
X180687846Y-82876094D01*
X180655320Y-82878864D01*
X180518305Y-82896876D01*
X180386889Y-82922248D01*
X180261374Y-82954863D01*
X180142065Y-82994607D01*
X180029262Y-83041362D01*
X179923270Y-83095014D01*
X179824391Y-83155447D01*
X179732928Y-83222544D01*
X179712307Y-83239465D01*
X179679118Y-83268484D01*
X179646726Y-83299428D01*
X179613635Y-83333870D01*
X179578349Y-83373378D01*
X179539372Y-83419524D01*
X179530517Y-83430280D01*
X179426906Y-83562732D01*
X179333379Y-83695187D01*
X179249858Y-83827797D01*
X179176268Y-83960716D01*
X179112533Y-84094098D01*
X179058577Y-84228098D01*
X179014324Y-84362867D01*
X178979697Y-84498561D01*
X178964339Y-84575820D01*
X178956862Y-84618964D01*
X178950787Y-84657561D01*
X178945975Y-84693452D01*
X178942287Y-84728477D01*
X178939585Y-84764477D01*
X178937730Y-84803291D01*
X178936585Y-84846762D01*
X178936009Y-84896729D01*
X178935866Y-84954280D01*
X177252845Y-84954280D01*
X177253056Y-84938704D01*
X177254526Y-84879611D01*
X177256624Y-84822735D01*
X177259314Y-84770027D01*
X177262556Y-84723437D01*
X177266314Y-84684915D01*
X177266582Y-84682680D01*
X177292056Y-84513148D01*
X177326728Y-84347926D01*
X177370629Y-84186938D01*
X177423792Y-84030112D01*
X177486249Y-83877374D01*
X177558030Y-83728650D01*
X177639169Y-83583866D01*
X177729697Y-83442948D01*
X177829646Y-83305822D01*
X177897157Y-83221718D01*
X177922254Y-83192734D01*
X177953460Y-83158564D01*
X177989254Y-83120728D01*
X178028116Y-83080747D01*
X178068523Y-83040143D01*
X178108955Y-83000438D01*
X178147890Y-82963151D01*
X178183808Y-82929805D01*
X178215186Y-82901920D01*
X178226798Y-82892077D01*
X178343126Y-82799763D01*
X178460135Y-82716075D01*
X178579986Y-82639586D01*
X178704836Y-82568870D01*
X178757940Y-82541230D01*
X178903201Y-82472517D01*
X179050453Y-82413076D01*
X179200545Y-82362650D01*
X179354324Y-82320984D01*
X179512640Y-82287823D01*
X179676342Y-82262911D01*
X179687760Y-82261502D01*
X179725674Y-82257711D01*
X179771787Y-82254433D01*
X179824148Y-82251705D01*
X179880806Y-82249566D01*
X179939812Y-82248054D01*
X179999215Y-82247206D01*
X180057065Y-82247062D01*
X180111411Y-82247658D01*
X180111411Y-82247658D01*
G37*
X180111411Y-82247658D02*
X180160303Y-82249034D01*
X180201791Y-82251227D01*
X180204248Y-82251404D01*
X180370730Y-82268617D01*
X180534856Y-82295619D01*
X180696263Y-82332236D01*
X180854589Y-82378297D01*
X181009470Y-82433628D01*
X181160545Y-82498056D01*
X181307451Y-82571410D01*
X181449824Y-82653515D01*
X181587304Y-82744199D01*
X181719526Y-82843290D01*
X181846128Y-82950614D01*
X181966748Y-83065999D01*
X182011488Y-83112506D01*
X182122388Y-83237802D01*
X182224852Y-83368680D01*
X182318766Y-83504894D01*
X182404014Y-83646197D01*
X182480485Y-83792344D01*
X182548064Y-83943091D01*
X182606637Y-84098190D01*
X182656090Y-84257396D01*
X182696310Y-84420465D01*
X182727184Y-84587149D01*
X182741027Y-84687580D01*
X182743688Y-84715614D01*
X182746056Y-84752158D01*
X182748107Y-84795565D01*
X182749818Y-84844188D01*
X182751168Y-84896379D01*
X182752131Y-84950493D01*
X182752687Y-85004881D01*
X182752810Y-85057898D01*
X182752479Y-85107897D01*
X182751671Y-85153229D01*
X182750362Y-85192250D01*
X182748529Y-85223311D01*
X182748521Y-85223409D01*
X182730425Y-85387738D01*
X182702523Y-85549947D01*
X182665024Y-85709636D01*
X182618137Y-85866405D01*
X182562068Y-86019853D01*
X182497026Y-86169580D01*
X182423220Y-86315186D01*
X182340858Y-86456271D01*
X182250147Y-86592433D01*
X182151295Y-86723273D01*
X182044512Y-86848391D01*
X181930005Y-86967385D01*
X181807982Y-87079856D01*
X181763827Y-87117365D01*
X181632339Y-87220164D01*
X181495556Y-87314370D01*
X181353820Y-87399844D01*
X181207475Y-87476444D01*
X181056863Y-87544030D01*
X180902328Y-87602462D01*
X180744213Y-87651599D01*
X180582861Y-87691300D01*
X180418615Y-87721425D01*
X180251818Y-87741834D01*
X180236220Y-87743230D01*
X180204605Y-87745421D01*
X180165273Y-87747283D01*
X180120337Y-87748791D01*
X180071909Y-87749916D01*
X180022102Y-87750634D01*
X179973029Y-87750917D01*
X179926802Y-87750740D01*
X179885534Y-87750076D01*
X179851338Y-87748899D01*
X179838694Y-87748187D01*
X179669062Y-87732042D01*
X179502378Y-87706308D01*
X179338908Y-87671099D01*
X179178916Y-87626529D01*
X179022667Y-87572712D01*
X178870427Y-87509763D01*
X178722461Y-87437796D01*
X178579033Y-87356925D01*
X178440408Y-87267265D01*
X178306852Y-87168929D01*
X178178630Y-87062031D01*
X178117269Y-87006036D01*
X177998879Y-86887867D01*
X177888479Y-86763571D01*
X177786241Y-86633510D01*
X177692338Y-86498048D01*
X177606943Y-86357546D01*
X177530229Y-86212369D01*
X177462370Y-86062880D01*
X177403537Y-85909441D01*
X177353904Y-85752416D01*
X177313644Y-85592168D01*
X177282930Y-85429060D01*
X177261935Y-85263454D01*
X177256484Y-85199168D01*
X177254235Y-85158243D01*
X177252806Y-85109784D01*
X177252158Y-85055741D01*
X177252254Y-84998065D01*
X177252845Y-84954280D01*
X178935866Y-84954280D01*
X178936087Y-85014867D01*
X178936800Y-85067255D01*
X178938154Y-85113398D01*
X178940296Y-85155249D01*
X178943376Y-85194763D01*
X178947541Y-85233895D01*
X178952939Y-85274598D01*
X178959719Y-85318827D01*
X178966683Y-85360680D01*
X178991321Y-85485767D01*
X179023172Y-85615784D01*
X179061644Y-85749155D01*
X179106146Y-85884306D01*
X179156085Y-86019660D01*
X179210869Y-86153644D01*
X179269907Y-86284683D01*
X179332605Y-86411201D01*
X179398373Y-86531623D01*
X179422138Y-86572260D01*
X179447850Y-86614150D01*
X179472392Y-86651070D01*
X179497458Y-86685163D01*
X179524739Y-86718577D01*
X179555927Y-86753455D01*
X179592714Y-86791944D01*
X179606237Y-86805668D01*
X179674539Y-86872063D01*
X179740032Y-86930339D01*
X179804180Y-86981594D01*
X179868445Y-87026927D01*
X179934292Y-87067436D01*
X180003183Y-87104220D01*
X180005625Y-87105432D01*
X180072865Y-87136631D01*
X180140523Y-87163591D01*
X180209818Y-87186574D01*
X180281972Y-87205841D01*
X180358208Y-87221653D01*
X180439746Y-87234271D01*
X180527807Y-87243955D01*
X180623614Y-87250968D01*
X180704301Y-87254743D01*
X180718468Y-87254065D01*
X180739174Y-87251605D01*
X180763042Y-87247805D01*
X180776346Y-87245295D01*
X180882126Y-87218969D01*
X180986227Y-87182724D01*
X181088740Y-87136520D01*
X181189759Y-87080316D01*
X181268715Y-87028715D01*
X181304948Y-87002443D01*
X181345856Y-86971048D01*
X181390005Y-86935764D01*
X181435964Y-86897826D01*
X181482299Y-86858467D01*
X181527577Y-86818921D01*
X181570365Y-86780423D01*
X181609230Y-86744207D01*
X181642740Y-86711506D01*
X181669357Y-86683669D01*
X181719078Y-86626571D01*
X181768026Y-86565833D01*
X181815342Y-86502772D01*
X181860168Y-86438702D01*
X181901646Y-86374939D01*
X181938916Y-86312800D01*
X181971120Y-86253600D01*
X181997399Y-86198654D01*
X182015547Y-86153160D01*
X182027166Y-86116683D01*
X182033669Y-86086920D01*
X182035291Y-86061946D01*
X182032266Y-86039838D01*
X182030229Y-86032655D01*
X182021899Y-85999183D01*
X182015174Y-85955850D01*
X182010045Y-85902582D01*
X182008557Y-85880480D01*
X182006914Y-85857285D01*
X182005091Y-85837827D01*
X182003327Y-85824354D01*
X182002048Y-85819279D01*
X181995985Y-85815091D01*
X181983461Y-85808816D01*
X181971213Y-85803494D01*
X181935191Y-85785805D01*
X181905050Y-85764111D01*
X181880055Y-85737333D01*
X181859472Y-85704396D01*
X181842567Y-85664221D01*
X181828606Y-85615733D01*
X181821731Y-85584200D01*
X181813109Y-85529984D01*
X181806872Y-85467299D01*
X181803003Y-85397547D01*
X181801488Y-85322131D01*
X181802310Y-85242453D01*
X181805454Y-85159917D01*
X181810904Y-85075924D01*
X181818644Y-84991878D01*
X181828658Y-84909181D01*
X181829391Y-84903857D01*
X181837683Y-84852621D01*
X181848851Y-84798523D01*
X181863299Y-84739881D01*
X181881436Y-84675012D01*
X181897507Y-84621894D01*
X181908001Y-84586596D01*
X181914749Y-84560223D01*
X181917856Y-84542298D01*
X181917630Y-84532994D01*
X181916992Y-84525817D01*
X181916273Y-84509339D01*
X181915490Y-84484422D01*
X181914662Y-84451926D01*
X181913807Y-84412708D01*
X181912943Y-84367631D01*
X181912087Y-84317553D01*
X181911258Y-84263335D01*
X181910474Y-84205836D01*
X181910024Y-84169420D01*
X181909099Y-84094866D01*
X181908178Y-84029436D01*
X181907209Y-83972094D01*
X181906143Y-83921802D01*
X181904928Y-83877525D01*
X181903514Y-83838228D01*
X181901851Y-83802872D01*
X181899886Y-83770422D01*
X181897570Y-83739843D01*
X181894853Y-83710097D01*
X181891682Y-83680148D01*
X181888009Y-83648961D01*
X181883781Y-83615498D01*
X181882415Y-83604995D01*
X181873450Y-83542533D01*
X181862637Y-83477182D01*
X181850663Y-83412772D01*
X181838216Y-83353131D01*
X181833201Y-83331220D01*
X181827194Y-83305740D01*
X181821859Y-83283078D01*
X181817719Y-83265465D01*
X181815300Y-83255135D01*
X181815099Y-83254273D01*
X181809514Y-83244596D01*
X181796770Y-83230140D01*
X181778059Y-83211912D01*
X181754573Y-83190920D01*
X181727505Y-83168170D01*
X181698047Y-83144671D01*
X181667391Y-83121430D01*
X181636729Y-83099454D01*
X181612900Y-83083398D01*
X181519663Y-83028561D01*
X181420366Y-82981665D01*
X181314885Y-82942665D01*
X181203099Y-82911515D01*
X181084885Y-82888173D01*
X181074420Y-82886529D01*
X181029797Y-82880994D01*
X180977546Y-82876733D01*
X180920123Y-82873789D01*
X180859984Y-82872208D01*
X180799587Y-82872036D01*
X180741389Y-82873316D01*
X180687846Y-82876094D01*
X180655320Y-82878864D01*
X180518305Y-82896876D01*
X180386889Y-82922248D01*
X180261374Y-82954863D01*
X180142065Y-82994607D01*
X180029262Y-83041362D01*
X179923270Y-83095014D01*
X179824391Y-83155447D01*
X179732928Y-83222544D01*
X179712307Y-83239465D01*
X179679118Y-83268484D01*
X179646726Y-83299428D01*
X179613635Y-83333870D01*
X179578349Y-83373378D01*
X179539372Y-83419524D01*
X179530517Y-83430280D01*
X179426906Y-83562732D01*
X179333379Y-83695187D01*
X179249858Y-83827797D01*
X179176268Y-83960716D01*
X179112533Y-84094098D01*
X179058577Y-84228098D01*
X179014324Y-84362867D01*
X178979697Y-84498561D01*
X178964339Y-84575820D01*
X178956862Y-84618964D01*
X178950787Y-84657561D01*
X178945975Y-84693452D01*
X178942287Y-84728477D01*
X178939585Y-84764477D01*
X178937730Y-84803291D01*
X178936585Y-84846762D01*
X178936009Y-84896729D01*
X178935866Y-84954280D01*
X177252845Y-84954280D01*
X177253056Y-84938704D01*
X177254526Y-84879611D01*
X177256624Y-84822735D01*
X177259314Y-84770027D01*
X177262556Y-84723437D01*
X177266314Y-84684915D01*
X177266582Y-84682680D01*
X177292056Y-84513148D01*
X177326728Y-84347926D01*
X177370629Y-84186938D01*
X177423792Y-84030112D01*
X177486249Y-83877374D01*
X177558030Y-83728650D01*
X177639169Y-83583866D01*
X177729697Y-83442948D01*
X177829646Y-83305822D01*
X177897157Y-83221718D01*
X177922254Y-83192734D01*
X177953460Y-83158564D01*
X177989254Y-83120728D01*
X178028116Y-83080747D01*
X178068523Y-83040143D01*
X178108955Y-83000438D01*
X178147890Y-82963151D01*
X178183808Y-82929805D01*
X178215186Y-82901920D01*
X178226798Y-82892077D01*
X178343126Y-82799763D01*
X178460135Y-82716075D01*
X178579986Y-82639586D01*
X178704836Y-82568870D01*
X178757940Y-82541230D01*
X178903201Y-82472517D01*
X179050453Y-82413076D01*
X179200545Y-82362650D01*
X179354324Y-82320984D01*
X179512640Y-82287823D01*
X179676342Y-82262911D01*
X179687760Y-82261502D01*
X179725674Y-82257711D01*
X179771787Y-82254433D01*
X179824148Y-82251705D01*
X179880806Y-82249566D01*
X179939812Y-82248054D01*
X179999215Y-82247206D01*
X180057065Y-82247062D01*
X180111411Y-82247658D01*
G36*
X179524466Y-85929926D02*
X179539554Y-85941333D01*
X179541789Y-85943610D01*
X179557997Y-85964076D01*
X179571303Y-85987188D01*
X179581395Y-86011348D01*
X179587961Y-86034960D01*
X179590691Y-86056426D01*
X179589274Y-86074150D01*
X179583397Y-86086535D01*
X179572750Y-86091983D01*
X179570740Y-86092103D01*
X179563319Y-86089690D01*
X179551818Y-86083702D01*
X179550097Y-86082671D01*
X179533099Y-86067908D01*
X179517367Y-86046401D01*
X179503917Y-86020683D01*
X179493764Y-85993289D01*
X179487921Y-85966754D01*
X179487405Y-85943613D01*
X179490003Y-85932595D01*
X179497422Y-85925074D01*
X179509666Y-85924345D01*
X179524466Y-85929926D01*
X179524466Y-85929926D01*
G37*
X179524466Y-85929926D02*
X179539554Y-85941333D01*
X179541789Y-85943610D01*
X179557997Y-85964076D01*
X179571303Y-85987188D01*
X179581395Y-86011348D01*
X179587961Y-86034960D01*
X179590691Y-86056426D01*
X179589274Y-86074150D01*
X179583397Y-86086535D01*
X179572750Y-86091983D01*
X179570740Y-86092103D01*
X179563319Y-86089690D01*
X179551818Y-86083702D01*
X179550097Y-86082671D01*
X179533099Y-86067908D01*
X179517367Y-86046401D01*
X179503917Y-86020683D01*
X179493764Y-85993289D01*
X179487921Y-85966754D01*
X179487405Y-85943613D01*
X179490003Y-85932595D01*
X179497422Y-85925074D01*
X179509666Y-85924345D01*
X179524466Y-85929926D01*
G36*
X180963667Y-85651102D02*
X180976744Y-85654493D01*
X180988048Y-85661622D01*
X180990392Y-85663545D01*
X181009692Y-85685382D01*
X181019619Y-85709859D01*
X181019926Y-85735768D01*
X181010441Y-85761765D01*
X180996012Y-85780859D01*
X180977537Y-85792325D01*
X180953024Y-85797210D01*
X180942228Y-85797560D01*
X180924829Y-85796947D01*
X180913155Y-85793934D01*
X180902794Y-85786758D01*
X180893903Y-85778259D01*
X180877278Y-85755369D01*
X180869936Y-85730434D01*
X180871832Y-85705206D01*
X180882919Y-85681436D01*
X180896859Y-85665951D01*
X180908713Y-85656754D01*
X180920030Y-85652033D01*
X180935130Y-85650369D01*
X180944667Y-85650240D01*
X180963667Y-85651102D01*
X180963667Y-85651102D01*
G37*
X180963667Y-85651102D02*
X180976744Y-85654493D01*
X180988048Y-85661622D01*
X180990392Y-85663545D01*
X181009692Y-85685382D01*
X181019619Y-85709859D01*
X181019926Y-85735768D01*
X181010441Y-85761765D01*
X180996012Y-85780859D01*
X180977537Y-85792325D01*
X180953024Y-85797210D01*
X180942228Y-85797560D01*
X180924829Y-85796947D01*
X180913155Y-85793934D01*
X180902794Y-85786758D01*
X180893903Y-85778259D01*
X180877278Y-85755369D01*
X180869936Y-85730434D01*
X180871832Y-85705206D01*
X180882919Y-85681436D01*
X180896859Y-85665951D01*
X180908713Y-85656754D01*
X180920030Y-85652033D01*
X180935130Y-85650369D01*
X180944667Y-85650240D01*
X180963667Y-85651102D01*
G36*
X180918423Y-85401777D02*
X180956263Y-85405066D01*
X180976759Y-85408897D01*
X181028390Y-85425874D01*
X181073060Y-85449654D01*
X181110646Y-85479527D01*
X181141024Y-85514781D01*
X181164071Y-85554703D01*
X181179661Y-85598583D01*
X181187672Y-85645708D01*
X181187980Y-85695366D01*
X181180461Y-85746846D01*
X181164990Y-85799436D01*
X181141445Y-85852424D01*
X181109701Y-85905099D01*
X181071669Y-85954398D01*
X181022024Y-86005506D01*
X180967034Y-86050255D01*
X180907863Y-86088142D01*
X180845678Y-86118666D01*
X180781645Y-86141325D01*
X180716929Y-86155617D01*
X180652695Y-86161041D01*
X180598218Y-86158169D01*
X180543393Y-86147107D01*
X180494297Y-86128036D01*
X180451371Y-86101148D01*
X180432887Y-86085333D01*
X180401140Y-86051436D01*
X180378000Y-86016962D01*
X180362118Y-85979320D01*
X180352141Y-85935916D01*
X180350986Y-85928145D01*
X180348426Y-85873755D01*
X180355286Y-85818691D01*
X180370934Y-85763752D01*
X180384275Y-85733475D01*
X180749164Y-85733475D01*
X180751545Y-85755112D01*
X180764506Y-85799304D01*
X180785689Y-85838657D01*
X180814198Y-85872122D01*
X180849137Y-85898653D01*
X180889610Y-85917204D01*
X180890453Y-85917481D01*
X180910411Y-85921460D01*
X180937461Y-85923152D01*
X180955684Y-85922976D01*
X180979938Y-85921571D01*
X180998324Y-85918634D01*
X181015122Y-85913176D01*
X181032690Y-85905155D01*
X181069679Y-85881788D01*
X181100282Y-85851948D01*
X181123754Y-85817048D01*
X181139349Y-85778504D01*
X181146322Y-85737728D01*
X181143925Y-85696134D01*
X181143670Y-85694722D01*
X181130966Y-85652824D01*
X181109644Y-85614438D01*
X181080985Y-85581215D01*
X181046270Y-85554806D01*
X181027445Y-85544858D01*
X180997518Y-85535350D01*
X180962396Y-85530786D01*
X180925790Y-85531225D01*
X180891413Y-85536724D01*
X180873531Y-85542426D01*
X180838383Y-85561486D01*
X180807691Y-85587944D01*
X180782440Y-85620087D01*
X180763613Y-85656199D01*
X180752193Y-85694567D01*
X180749164Y-85733475D01*
X180384275Y-85733475D01*
X180394736Y-85709736D01*
X180426061Y-85657441D01*
X180464274Y-85607666D01*
X180508745Y-85561207D01*
X180558840Y-85518864D01*
X180613926Y-85481434D01*
X180673370Y-85449716D01*
X180736541Y-85424507D01*
X180754886Y-85418701D01*
X180791263Y-85410238D01*
X180832757Y-85404503D01*
X180876199Y-85401636D01*
X180918423Y-85401777D01*
X180918423Y-85401777D01*
G37*
X180918423Y-85401777D02*
X180956263Y-85405066D01*
X180976759Y-85408897D01*
X181028390Y-85425874D01*
X181073060Y-85449654D01*
X181110646Y-85479527D01*
X181141024Y-85514781D01*
X181164071Y-85554703D01*
X181179661Y-85598583D01*
X181187672Y-85645708D01*
X181187980Y-85695366D01*
X181180461Y-85746846D01*
X181164990Y-85799436D01*
X181141445Y-85852424D01*
X181109701Y-85905099D01*
X181071669Y-85954398D01*
X181022024Y-86005506D01*
X180967034Y-86050255D01*
X180907863Y-86088142D01*
X180845678Y-86118666D01*
X180781645Y-86141325D01*
X180716929Y-86155617D01*
X180652695Y-86161041D01*
X180598218Y-86158169D01*
X180543393Y-86147107D01*
X180494297Y-86128036D01*
X180451371Y-86101148D01*
X180432887Y-86085333D01*
X180401140Y-86051436D01*
X180378000Y-86016962D01*
X180362118Y-85979320D01*
X180352141Y-85935916D01*
X180350986Y-85928145D01*
X180348426Y-85873755D01*
X180355286Y-85818691D01*
X180370934Y-85763752D01*
X180384275Y-85733475D01*
X180749164Y-85733475D01*
X180751545Y-85755112D01*
X180764506Y-85799304D01*
X180785689Y-85838657D01*
X180814198Y-85872122D01*
X180849137Y-85898653D01*
X180889610Y-85917204D01*
X180890453Y-85917481D01*
X180910411Y-85921460D01*
X180937461Y-85923152D01*
X180955684Y-85922976D01*
X180979938Y-85921571D01*
X180998324Y-85918634D01*
X181015122Y-85913176D01*
X181032690Y-85905155D01*
X181069679Y-85881788D01*
X181100282Y-85851948D01*
X181123754Y-85817048D01*
X181139349Y-85778504D01*
X181146322Y-85737728D01*
X181143925Y-85696134D01*
X181143670Y-85694722D01*
X181130966Y-85652824D01*
X181109644Y-85614438D01*
X181080985Y-85581215D01*
X181046270Y-85554806D01*
X181027445Y-85544858D01*
X180997518Y-85535350D01*
X180962396Y-85530786D01*
X180925790Y-85531225D01*
X180891413Y-85536724D01*
X180873531Y-85542426D01*
X180838383Y-85561486D01*
X180807691Y-85587944D01*
X180782440Y-85620087D01*
X180763613Y-85656199D01*
X180752193Y-85694567D01*
X180749164Y-85733475D01*
X180384275Y-85733475D01*
X180394736Y-85709736D01*
X180426061Y-85657441D01*
X180464274Y-85607666D01*
X180508745Y-85561207D01*
X180558840Y-85518864D01*
X180613926Y-85481434D01*
X180673370Y-85449716D01*
X180736541Y-85424507D01*
X180754886Y-85418701D01*
X180791263Y-85410238D01*
X180832757Y-85404503D01*
X180876199Y-85401636D01*
X180918423Y-85401777D01*
G36*
X179293665Y-85592400D02*
X179311199Y-85594815D01*
X179327879Y-85600076D01*
X179346678Y-85608404D01*
X179396544Y-85636810D01*
X179446028Y-85674026D01*
X179494186Y-85718713D01*
X179540077Y-85769536D01*
X179582757Y-85825158D01*
X179621285Y-85884244D01*
X179654717Y-85945456D01*
X179682112Y-86007459D01*
X179702526Y-86068917D01*
X179715018Y-86128492D01*
X179715381Y-86131129D01*
X179718149Y-86174196D01*
X179714456Y-86212257D01*
X179704593Y-86244427D01*
X179688853Y-86269822D01*
X179667525Y-86287556D01*
X179663187Y-86289832D01*
X179635219Y-86298318D01*
X179603409Y-86299581D01*
X179571189Y-86293488D01*
X179570740Y-86293346D01*
X179527203Y-86275057D01*
X179482270Y-86247842D01*
X179436881Y-86212665D01*
X179391976Y-86170487D01*
X179348495Y-86122272D01*
X179307378Y-86068982D01*
X179269565Y-86011579D01*
X179235996Y-85951026D01*
X179235540Y-85950119D01*
X179210181Y-85895845D01*
X179201711Y-85873574D01*
X179355284Y-85873574D01*
X179355543Y-85901315D01*
X179358121Y-85929311D01*
X179362567Y-85952702D01*
X179372407Y-85982865D01*
X179386999Y-86017156D01*
X179404535Y-86051944D01*
X179423208Y-86083596D01*
X179438382Y-86105022D01*
X179469895Y-86140806D01*
X179501152Y-86168895D01*
X179531506Y-86189000D01*
X179560309Y-86200834D01*
X179586913Y-86204109D01*
X179610670Y-86198538D01*
X179626133Y-86188466D01*
X179640767Y-86171999D01*
X179650019Y-86152003D01*
X179654606Y-86126313D01*
X179655402Y-86100316D01*
X179651584Y-86061085D01*
X179641587Y-86020767D01*
X179626265Y-85980451D01*
X179606466Y-85941228D01*
X179583042Y-85904188D01*
X179556844Y-85870421D01*
X179528723Y-85841018D01*
X179499529Y-85817069D01*
X179470113Y-85799664D01*
X179441326Y-85789894D01*
X179414019Y-85788849D01*
X179412521Y-85789075D01*
X179390226Y-85797610D01*
X179371870Y-85814429D01*
X179361805Y-85831686D01*
X179357365Y-85849295D01*
X179355284Y-85873574D01*
X179201711Y-85873574D01*
X179191505Y-85846742D01*
X179178956Y-85800850D01*
X179171980Y-85756209D01*
X179170024Y-85718820D01*
X179170147Y-85693734D01*
X179171356Y-85675780D01*
X179174108Y-85661950D01*
X179178861Y-85649235D01*
X179181443Y-85643751D01*
X179192212Y-85626421D01*
X179205671Y-85610733D01*
X179211471Y-85605651D01*
X179221774Y-85598608D01*
X179231873Y-85594452D01*
X179244939Y-85592443D01*
X179264145Y-85591838D01*
X179270641Y-85591820D01*
X179293665Y-85592400D01*
X179293665Y-85592400D01*
G37*
X179293665Y-85592400D02*
X179311199Y-85594815D01*
X179327879Y-85600076D01*
X179346678Y-85608404D01*
X179396544Y-85636810D01*
X179446028Y-85674026D01*
X179494186Y-85718713D01*
X179540077Y-85769536D01*
X179582757Y-85825158D01*
X179621285Y-85884244D01*
X179654717Y-85945456D01*
X179682112Y-86007459D01*
X179702526Y-86068917D01*
X179715018Y-86128492D01*
X179715381Y-86131129D01*
X179718149Y-86174196D01*
X179714456Y-86212257D01*
X179704593Y-86244427D01*
X179688853Y-86269822D01*
X179667525Y-86287556D01*
X179663187Y-86289832D01*
X179635219Y-86298318D01*
X179603409Y-86299581D01*
X179571189Y-86293488D01*
X179570740Y-86293346D01*
X179527203Y-86275057D01*
X179482270Y-86247842D01*
X179436881Y-86212665D01*
X179391976Y-86170487D01*
X179348495Y-86122272D01*
X179307378Y-86068982D01*
X179269565Y-86011579D01*
X179235996Y-85951026D01*
X179235540Y-85950119D01*
X179210181Y-85895845D01*
X179201711Y-85873574D01*
X179355284Y-85873574D01*
X179355543Y-85901315D01*
X179358121Y-85929311D01*
X179362567Y-85952702D01*
X179372407Y-85982865D01*
X179386999Y-86017156D01*
X179404535Y-86051944D01*
X179423208Y-86083596D01*
X179438382Y-86105022D01*
X179469895Y-86140806D01*
X179501152Y-86168895D01*
X179531506Y-86189000D01*
X179560309Y-86200834D01*
X179586913Y-86204109D01*
X179610670Y-86198538D01*
X179626133Y-86188466D01*
X179640767Y-86171999D01*
X179650019Y-86152003D01*
X179654606Y-86126313D01*
X179655402Y-86100316D01*
X179651584Y-86061085D01*
X179641587Y-86020767D01*
X179626265Y-85980451D01*
X179606466Y-85941228D01*
X179583042Y-85904188D01*
X179556844Y-85870421D01*
X179528723Y-85841018D01*
X179499529Y-85817069D01*
X179470113Y-85799664D01*
X179441326Y-85789894D01*
X179414019Y-85788849D01*
X179412521Y-85789075D01*
X179390226Y-85797610D01*
X179371870Y-85814429D01*
X179361805Y-85831686D01*
X179357365Y-85849295D01*
X179355284Y-85873574D01*
X179201711Y-85873574D01*
X179191505Y-85846742D01*
X179178956Y-85800850D01*
X179171980Y-85756209D01*
X179170024Y-85718820D01*
X179170147Y-85693734D01*
X179171356Y-85675780D01*
X179174108Y-85661950D01*
X179178861Y-85649235D01*
X179181443Y-85643751D01*
X179192212Y-85626421D01*
X179205671Y-85610733D01*
X179211471Y-85605651D01*
X179221774Y-85598608D01*
X179231873Y-85594452D01*
X179244939Y-85592443D01*
X179264145Y-85591838D01*
X179270641Y-85591820D01*
X179293665Y-85592400D01*
D11*
G36*
X180624692Y-87031830D02*
X180628884Y-87037238D01*
X180629842Y-87045434D01*
X180625424Y-87050854D01*
X180613375Y-87058710D01*
X180595655Y-87068093D01*
X180574225Y-87078090D01*
X180551046Y-87087791D01*
X180528078Y-87096284D01*
X180507282Y-87102659D01*
X180505917Y-87103013D01*
X180462856Y-87110486D01*
X180414361Y-87112860D01*
X180363785Y-87110138D01*
X180317500Y-87102965D01*
X180290200Y-87097186D01*
X180271309Y-87092973D01*
X180259286Y-87089840D01*
X180252588Y-87087302D01*
X180249673Y-87084876D01*
X180248999Y-87082076D01*
X180248997Y-87081433D01*
X180250026Y-87073727D01*
X180253898Y-87069084D01*
X180262140Y-87067369D01*
X180276276Y-87068449D01*
X180297832Y-87072190D01*
X180314960Y-87075657D01*
X180373922Y-87085109D01*
X180427388Y-87087441D01*
X180477312Y-87082442D01*
X180525646Y-87069901D01*
X180574342Y-87049609D01*
X180579221Y-87047188D01*
X180601207Y-87036758D01*
X180615915Y-87031654D01*
X180624692Y-87031830D01*
X180624692Y-87031830D01*
G37*
X180624692Y-87031830D02*
X180628884Y-87037238D01*
X180629842Y-87045434D01*
X180625424Y-87050854D01*
X180613375Y-87058710D01*
X180595655Y-87068093D01*
X180574225Y-87078090D01*
X180551046Y-87087791D01*
X180528078Y-87096284D01*
X180507282Y-87102659D01*
X180505917Y-87103013D01*
X180462856Y-87110486D01*
X180414361Y-87112860D01*
X180363785Y-87110138D01*
X180317500Y-87102965D01*
X180290200Y-87097186D01*
X180271309Y-87092973D01*
X180259286Y-87089840D01*
X180252588Y-87087302D01*
X180249673Y-87084876D01*
X180248999Y-87082076D01*
X180248997Y-87081433D01*
X180250026Y-87073727D01*
X180253898Y-87069084D01*
X180262140Y-87067369D01*
X180276276Y-87068449D01*
X180297832Y-87072190D01*
X180314960Y-87075657D01*
X180373922Y-87085109D01*
X180427388Y-87087441D01*
X180477312Y-87082442D01*
X180525646Y-87069901D01*
X180574342Y-87049609D01*
X180579221Y-87047188D01*
X180601207Y-87036758D01*
X180615915Y-87031654D01*
X180624692Y-87031830D01*
D12*
G36*
X160875256Y-123211298D02*
X160981579Y-123232447D01*
X161282042Y-123356903D01*
X161548852Y-123535180D01*
X161552454Y-123537587D01*
X161782413Y-123767546D01*
X161963098Y-124037960D01*
X162087553Y-124338422D01*
X162151000Y-124657389D01*
X162151000Y-124982611D01*
X162087553Y-125301578D01*
X161963098Y-125602040D01*
X161782413Y-125872454D01*
X161552454Y-126102413D01*
X161552451Y-126102415D01*
X161282042Y-126283097D01*
X160981579Y-126407553D01*
X160875256Y-126428702D01*
X160662611Y-126471000D01*
X160337389Y-126471000D01*
X160124744Y-126428702D01*
X160018421Y-126407553D01*
X159717958Y-126283097D01*
X159447549Y-126102415D01*
X159447546Y-126102413D01*
X159217587Y-125872454D01*
X159036902Y-125602040D01*
X158912447Y-125301578D01*
X158849000Y-124982611D01*
X158849000Y-124657389D01*
X158912447Y-124338422D01*
X159036902Y-124037960D01*
X159217587Y-123767546D01*
X159447546Y-123537587D01*
X159451148Y-123535180D01*
X159717958Y-123356903D01*
X160018421Y-123232447D01*
X160124744Y-123211298D01*
X160337389Y-123169000D01*
X160662611Y-123169000D01*
X160875256Y-123211298D01*
X160875256Y-123211298D01*
G37*
G36*
X151781938Y-117641716D02*
X151802556Y-117647970D01*
X151821556Y-117658126D01*
X151838208Y-117671792D01*
X151851874Y-117688444D01*
X151862030Y-117707444D01*
X151868284Y-117728062D01*
X151871000Y-117755640D01*
X151871000Y-118214360D01*
X151868284Y-118241938D01*
X151862030Y-118262556D01*
X151851874Y-118281556D01*
X151838208Y-118298208D01*
X151821556Y-118311874D01*
X151802556Y-118322030D01*
X151781938Y-118328284D01*
X151754360Y-118331000D01*
X151245640Y-118331000D01*
X151218062Y-118328284D01*
X151197444Y-118322030D01*
X151178444Y-118311874D01*
X151161792Y-118298208D01*
X151148126Y-118281556D01*
X151137970Y-118262556D01*
X151131716Y-118241938D01*
X151129000Y-118214360D01*
X151129000Y-117755640D01*
X151131716Y-117728062D01*
X151137970Y-117707444D01*
X151148126Y-117688444D01*
X151161792Y-117671792D01*
X151178444Y-117658126D01*
X151197444Y-117647970D01*
X151218062Y-117641716D01*
X151245640Y-117639000D01*
X151754360Y-117639000D01*
X151781938Y-117641716D01*
X151781938Y-117641716D01*
G37*
G36*
X151781938Y-116671716D02*
X151802556Y-116677970D01*
X151821556Y-116688126D01*
X151838208Y-116701792D01*
X151851874Y-116718444D01*
X151862030Y-116737444D01*
X151868284Y-116758062D01*
X151871000Y-116785640D01*
X151871000Y-117244360D01*
X151868284Y-117271938D01*
X151862030Y-117292556D01*
X151851874Y-117311556D01*
X151838208Y-117328208D01*
X151821556Y-117341874D01*
X151802556Y-117352030D01*
X151781938Y-117358284D01*
X151754360Y-117361000D01*
X151245640Y-117361000D01*
X151218062Y-117358284D01*
X151197444Y-117352030D01*
X151178444Y-117341874D01*
X151161792Y-117328208D01*
X151148126Y-117311556D01*
X151137970Y-117292556D01*
X151131716Y-117271938D01*
X151129000Y-117244360D01*
X151129000Y-116785640D01*
X151131716Y-116758062D01*
X151137970Y-116737444D01*
X151148126Y-116718444D01*
X151161792Y-116701792D01*
X151178444Y-116688126D01*
X151197444Y-116677970D01*
X151218062Y-116671716D01*
X151245640Y-116669000D01*
X151754360Y-116669000D01*
X151781938Y-116671716D01*
X151781938Y-116671716D01*
G37*
G36*
X150681000Y-117326000D02*
X149519000Y-117326000D01*
X149519000Y-114674000D01*
X150681000Y-114674000D01*
X150681000Y-117326000D01*
X150681000Y-117326000D01*
G37*
G36*
X148481000Y-117326000D02*
X147319000Y-117326000D01*
X147319000Y-114674000D01*
X148481000Y-114674000D01*
X148481000Y-117326000D01*
X148481000Y-117326000D01*
G37*
G36*
X137334230Y-106107741D02*
X137440553Y-106128890D01*
X137741016Y-106253346D01*
X138007826Y-106431623D01*
X138011428Y-106434030D01*
X138241387Y-106663989D01*
X138422072Y-106934403D01*
X138546527Y-107234865D01*
X138609974Y-107553832D01*
X138609974Y-107879054D01*
X138546527Y-108198021D01*
X138422072Y-108498483D01*
X138241387Y-108768897D01*
X138011428Y-108998856D01*
X138011425Y-108998858D01*
X137741016Y-109179540D01*
X137440553Y-109303996D01*
X137334230Y-109325145D01*
X137121585Y-109367443D01*
X136796363Y-109367443D01*
X136583718Y-109325145D01*
X136477395Y-109303996D01*
X136176932Y-109179540D01*
X135906523Y-108998858D01*
X135906520Y-108998856D01*
X135676561Y-108768897D01*
X135495876Y-108498483D01*
X135371421Y-108198021D01*
X135307974Y-107879054D01*
X135307974Y-107553832D01*
X135371421Y-107234865D01*
X135495876Y-106934403D01*
X135676561Y-106663989D01*
X135906520Y-106434030D01*
X135910122Y-106431623D01*
X136176932Y-106253346D01*
X136477395Y-106128890D01*
X136583718Y-106107741D01*
X136796363Y-106065443D01*
X137121585Y-106065443D01*
X137334230Y-106107741D01*
X137334230Y-106107741D01*
G37*
G36*
X184416282Y-106107741D02*
X184522605Y-106128890D01*
X184823068Y-106253346D01*
X185089878Y-106431623D01*
X185093480Y-106434030D01*
X185323439Y-106663989D01*
X185504124Y-106934403D01*
X185628579Y-107234865D01*
X185692026Y-107553832D01*
X185692026Y-107879054D01*
X185628579Y-108198021D01*
X185504124Y-108498483D01*
X185323439Y-108768897D01*
X185093480Y-108998856D01*
X185093477Y-108998858D01*
X184823068Y-109179540D01*
X184522605Y-109303996D01*
X184416282Y-109325145D01*
X184203637Y-109367443D01*
X183878415Y-109367443D01*
X183665770Y-109325145D01*
X183559447Y-109303996D01*
X183258984Y-109179540D01*
X182988575Y-108998858D01*
X182988572Y-108998856D01*
X182758613Y-108768897D01*
X182577928Y-108498483D01*
X182453473Y-108198021D01*
X182390026Y-107879054D01*
X182390026Y-107553832D01*
X182453473Y-107234865D01*
X182577928Y-106934403D01*
X182758613Y-106663989D01*
X182988572Y-106434030D01*
X182992174Y-106431623D01*
X183258984Y-106253346D01*
X183559447Y-106128890D01*
X183665770Y-106107741D01*
X183878415Y-106065443D01*
X184203637Y-106065443D01*
X184416282Y-106107741D01*
X184416282Y-106107741D01*
G37*
G36*
X180241938Y-105031716D02*
X180262556Y-105037970D01*
X180281556Y-105048126D01*
X180298208Y-105061792D01*
X180311874Y-105078444D01*
X180322030Y-105097444D01*
X180328284Y-105118062D01*
X180331000Y-105145640D01*
X180331000Y-105654360D01*
X180328284Y-105681938D01*
X180322030Y-105702556D01*
X180311874Y-105721556D01*
X180298208Y-105738208D01*
X180281556Y-105751874D01*
X180262556Y-105762030D01*
X180241938Y-105768284D01*
X180214360Y-105771000D01*
X179755640Y-105771000D01*
X179728062Y-105768284D01*
X179707444Y-105762030D01*
X179688444Y-105751874D01*
X179671792Y-105738208D01*
X179658126Y-105721556D01*
X179647970Y-105702556D01*
X179641716Y-105681938D01*
X179639000Y-105654360D01*
X179639000Y-105145640D01*
X179641716Y-105118062D01*
X179647970Y-105097444D01*
X179658126Y-105078444D01*
X179671792Y-105061792D01*
X179688444Y-105048126D01*
X179707444Y-105037970D01*
X179728062Y-105031716D01*
X179755640Y-105029000D01*
X180214360Y-105029000D01*
X180241938Y-105031716D01*
X180241938Y-105031716D01*
G37*
G36*
X179271938Y-105031716D02*
X179292556Y-105037970D01*
X179311556Y-105048126D01*
X179328208Y-105061792D01*
X179341874Y-105078444D01*
X179352030Y-105097444D01*
X179358284Y-105118062D01*
X179361000Y-105145640D01*
X179361000Y-105654360D01*
X179358284Y-105681938D01*
X179352030Y-105702556D01*
X179341874Y-105721556D01*
X179328208Y-105738208D01*
X179311556Y-105751874D01*
X179292556Y-105762030D01*
X179271938Y-105768284D01*
X179244360Y-105771000D01*
X178785640Y-105771000D01*
X178758062Y-105768284D01*
X178737444Y-105762030D01*
X178718444Y-105751874D01*
X178701792Y-105738208D01*
X178688126Y-105721556D01*
X178677970Y-105702556D01*
X178671716Y-105681938D01*
X178669000Y-105654360D01*
X178669000Y-105145640D01*
X178671716Y-105118062D01*
X178677970Y-105097444D01*
X178688126Y-105078444D01*
X178701792Y-105061792D01*
X178718444Y-105048126D01*
X178737444Y-105037970D01*
X178758062Y-105031716D01*
X178785640Y-105029000D01*
X179244360Y-105029000D01*
X179271938Y-105031716D01*
X179271938Y-105031716D01*
G37*
G36*
X179481000Y-104276000D02*
X178319000Y-104276000D01*
X178319000Y-101624000D01*
X179481000Y-101624000D01*
X179481000Y-104276000D01*
X179481000Y-104276000D01*
G37*
G36*
X181681000Y-104276000D02*
X180519000Y-104276000D01*
X180519000Y-101624000D01*
X181681000Y-101624000D01*
X181681000Y-104276000D01*
X181681000Y-104276000D01*
G37*
G36*
X152481000Y-83326000D02*
X151319000Y-83326000D01*
X151319000Y-80674000D01*
X152481000Y-80674000D01*
X152481000Y-83326000D01*
X152481000Y-83326000D01*
G37*
G36*
X154681000Y-83326000D02*
X153519000Y-83326000D01*
X153519000Y-80674000D01*
X154681000Y-80674000D01*
X154681000Y-83326000D01*
X154681000Y-83326000D01*
G37*
G36*
X155981938Y-81541716D02*
X156002556Y-81547970D01*
X156021556Y-81558126D01*
X156038208Y-81571792D01*
X156051874Y-81588444D01*
X156062030Y-81607444D01*
X156068284Y-81628062D01*
X156071000Y-81655640D01*
X156071000Y-82114360D01*
X156068284Y-82141938D01*
X156062030Y-82162556D01*
X156051874Y-82181556D01*
X156038208Y-82198208D01*
X156021556Y-82211874D01*
X156002556Y-82222030D01*
X155981938Y-82228284D01*
X155954360Y-82231000D01*
X155445640Y-82231000D01*
X155418062Y-82228284D01*
X155397444Y-82222030D01*
X155378444Y-82211874D01*
X155361792Y-82198208D01*
X155348126Y-82181556D01*
X155337970Y-82162556D01*
X155331716Y-82141938D01*
X155329000Y-82114360D01*
X155329000Y-81655640D01*
X155331716Y-81628062D01*
X155337970Y-81607444D01*
X155348126Y-81588444D01*
X155361792Y-81571792D01*
X155378444Y-81558126D01*
X155397444Y-81547970D01*
X155418062Y-81541716D01*
X155445640Y-81539000D01*
X155954360Y-81539000D01*
X155981938Y-81541716D01*
X155981938Y-81541716D01*
G37*
G36*
X146326102Y-78433605D02*
X146432425Y-78454754D01*
X146732888Y-78579210D01*
X146999698Y-78757487D01*
X147003300Y-78759894D01*
X147233259Y-78989853D01*
X147233261Y-78989856D01*
X147413943Y-79260265D01*
X147538399Y-79560728D01*
X147601846Y-79879698D01*
X147601846Y-80204916D01*
X147538399Y-80523886D01*
X147487865Y-80645886D01*
X147413944Y-80824347D01*
X147233259Y-81094761D01*
X147003300Y-81324720D01*
X147003297Y-81324722D01*
X146732888Y-81505404D01*
X146432425Y-81629860D01*
X146352309Y-81645796D01*
X146113457Y-81693307D01*
X145788235Y-81693307D01*
X145549383Y-81645796D01*
X145469267Y-81629860D01*
X145168804Y-81505404D01*
X144898395Y-81324722D01*
X144898392Y-81324720D01*
X144668433Y-81094761D01*
X144487748Y-80824347D01*
X144413827Y-80645886D01*
X144363293Y-80523886D01*
X144299846Y-80204916D01*
X144299846Y-79879698D01*
X144363293Y-79560728D01*
X144487749Y-79260265D01*
X144668431Y-78989856D01*
X144668433Y-78989853D01*
X144898392Y-78759894D01*
X144901994Y-78757487D01*
X145168804Y-78579210D01*
X145469267Y-78454754D01*
X145575590Y-78433605D01*
X145788235Y-78391307D01*
X146113457Y-78391307D01*
X146326102Y-78433605D01*
X146326102Y-78433605D01*
G37*
G36*
X175424410Y-78433605D02*
X175530733Y-78454754D01*
X175831196Y-78579210D01*
X176098006Y-78757487D01*
X176101608Y-78759894D01*
X176331567Y-78989853D01*
X176331569Y-78989856D01*
X176512251Y-79260265D01*
X176636707Y-79560728D01*
X176700154Y-79879698D01*
X176700154Y-80204916D01*
X176636707Y-80523886D01*
X176586173Y-80645886D01*
X176512252Y-80824347D01*
X176331567Y-81094761D01*
X176101608Y-81324720D01*
X176101605Y-81324722D01*
X175831196Y-81505404D01*
X175530733Y-81629860D01*
X175450617Y-81645796D01*
X175211765Y-81693307D01*
X174886543Y-81693307D01*
X174647691Y-81645796D01*
X174567575Y-81629860D01*
X174267112Y-81505404D01*
X173996703Y-81324722D01*
X173996700Y-81324720D01*
X173766741Y-81094761D01*
X173586056Y-80824347D01*
X173512135Y-80645886D01*
X173461601Y-80523886D01*
X173398154Y-80204916D01*
X173398154Y-79879698D01*
X173461601Y-79560728D01*
X173586057Y-79260265D01*
X173766739Y-78989856D01*
X173766741Y-78989853D01*
X173996700Y-78759894D01*
X174000302Y-78757487D01*
X174267112Y-78579210D01*
X174567575Y-78454754D01*
X174673898Y-78433605D01*
X174886543Y-78391307D01*
X175211765Y-78391307D01*
X175424410Y-78433605D01*
X175424410Y-78433605D01*
G37*
G36*
X155981938Y-80571716D02*
X156002556Y-80577970D01*
X156021556Y-80588126D01*
X156038208Y-80601792D01*
X156051874Y-80618444D01*
X156062030Y-80637444D01*
X156068284Y-80658062D01*
X156071000Y-80685640D01*
X156071000Y-81144360D01*
X156068284Y-81171938D01*
X156062030Y-81192556D01*
X156051874Y-81211556D01*
X156038208Y-81228208D01*
X156021556Y-81241874D01*
X156002556Y-81252030D01*
X155981938Y-81258284D01*
X155954360Y-81261000D01*
X155445640Y-81261000D01*
X155418062Y-81258284D01*
X155397444Y-81252030D01*
X155378444Y-81241874D01*
X155361792Y-81228208D01*
X155348126Y-81211556D01*
X155337970Y-81192556D01*
X155331716Y-81171938D01*
X155329000Y-81144360D01*
X155329000Y-80685640D01*
X155331716Y-80658062D01*
X155337970Y-80637444D01*
X155348126Y-80618444D01*
X155361792Y-80601792D01*
X155378444Y-80588126D01*
X155397444Y-80577970D01*
X155418062Y-80571716D01*
X155445640Y-80569000D01*
X155954360Y-80569000D01*
X155981938Y-80571716D01*
X155981938Y-80571716D01*
G37*
G36*
X164030442Y-74105518D02*
X164096627Y-74112037D01*
X164209853Y-74146384D01*
X164266467Y-74163557D01*
X164405087Y-74237652D01*
X164422991Y-74247222D01*
X164458729Y-74276552D01*
X164560186Y-74359814D01*
X164643448Y-74461271D01*
X164672778Y-74497009D01*
X164672779Y-74497011D01*
X164756443Y-74653533D01*
X164756443Y-74653534D01*
X164807963Y-74823373D01*
X164825359Y-75000000D01*
X164807963Y-75176627D01*
X164773616Y-75289853D01*
X164756443Y-75346467D01*
X164682348Y-75485087D01*
X164672778Y-75502991D01*
X164643448Y-75538729D01*
X164560186Y-75640186D01*
X164458729Y-75723448D01*
X164422991Y-75752778D01*
X164422989Y-75752779D01*
X164266467Y-75836443D01*
X164209853Y-75853616D01*
X164096627Y-75887963D01*
X164030443Y-75894481D01*
X163964260Y-75901000D01*
X163875740Y-75901000D01*
X163809557Y-75894481D01*
X163743373Y-75887963D01*
X163630147Y-75853616D01*
X163573533Y-75836443D01*
X163417011Y-75752779D01*
X163417009Y-75752778D01*
X163381271Y-75723448D01*
X163279814Y-75640186D01*
X163196552Y-75538729D01*
X163167222Y-75502991D01*
X163157652Y-75485087D01*
X163083557Y-75346467D01*
X163066384Y-75289853D01*
X163032037Y-75176627D01*
X163014641Y-75000000D01*
X163032037Y-74823373D01*
X163083557Y-74653534D01*
X163083557Y-74653533D01*
X163167221Y-74497011D01*
X163167222Y-74497009D01*
X163196552Y-74461271D01*
X163279814Y-74359814D01*
X163381271Y-74276552D01*
X163417009Y-74247222D01*
X163434913Y-74237652D01*
X163573533Y-74163557D01*
X163630147Y-74146384D01*
X163743373Y-74112037D01*
X163809558Y-74105518D01*
X163875740Y-74099000D01*
X163964260Y-74099000D01*
X164030442Y-74105518D01*
X164030442Y-74105518D01*
G37*
G36*
X166570442Y-74105518D02*
X166636627Y-74112037D01*
X166749853Y-74146384D01*
X166806467Y-74163557D01*
X166945087Y-74237652D01*
X166962991Y-74247222D01*
X166998729Y-74276552D01*
X167100186Y-74359814D01*
X167183448Y-74461271D01*
X167212778Y-74497009D01*
X167212779Y-74497011D01*
X167296443Y-74653533D01*
X167296443Y-74653534D01*
X167347963Y-74823373D01*
X167365359Y-75000000D01*
X167347963Y-75176627D01*
X167313616Y-75289853D01*
X167296443Y-75346467D01*
X167222348Y-75485087D01*
X167212778Y-75502991D01*
X167183448Y-75538729D01*
X167100186Y-75640186D01*
X166998729Y-75723448D01*
X166962991Y-75752778D01*
X166962989Y-75752779D01*
X166806467Y-75836443D01*
X166749853Y-75853616D01*
X166636627Y-75887963D01*
X166570443Y-75894481D01*
X166504260Y-75901000D01*
X166415740Y-75901000D01*
X166349557Y-75894481D01*
X166283373Y-75887963D01*
X166170147Y-75853616D01*
X166113533Y-75836443D01*
X165957011Y-75752779D01*
X165957009Y-75752778D01*
X165921271Y-75723448D01*
X165819814Y-75640186D01*
X165736552Y-75538729D01*
X165707222Y-75502991D01*
X165697652Y-75485087D01*
X165623557Y-75346467D01*
X165606384Y-75289853D01*
X165572037Y-75176627D01*
X165554641Y-75000000D01*
X165572037Y-74823373D01*
X165623557Y-74653534D01*
X165623557Y-74653533D01*
X165707221Y-74497011D01*
X165707222Y-74497009D01*
X165736552Y-74461271D01*
X165819814Y-74359814D01*
X165921271Y-74276552D01*
X165957009Y-74247222D01*
X165974913Y-74237652D01*
X166113533Y-74163557D01*
X166170147Y-74146384D01*
X166283373Y-74112037D01*
X166349558Y-74105518D01*
X166415740Y-74099000D01*
X166504260Y-74099000D01*
X166570442Y-74105518D01*
X166570442Y-74105518D01*
G37*
G36*
X161490442Y-74105518D02*
X161556627Y-74112037D01*
X161669853Y-74146384D01*
X161726467Y-74163557D01*
X161865087Y-74237652D01*
X161882991Y-74247222D01*
X161918729Y-74276552D01*
X162020186Y-74359814D01*
X162103448Y-74461271D01*
X162132778Y-74497009D01*
X162132779Y-74497011D01*
X162216443Y-74653533D01*
X162216443Y-74653534D01*
X162267963Y-74823373D01*
X162285359Y-75000000D01*
X162267963Y-75176627D01*
X162233616Y-75289853D01*
X162216443Y-75346467D01*
X162142348Y-75485087D01*
X162132778Y-75502991D01*
X162103448Y-75538729D01*
X162020186Y-75640186D01*
X161918729Y-75723448D01*
X161882991Y-75752778D01*
X161882989Y-75752779D01*
X161726467Y-75836443D01*
X161669853Y-75853616D01*
X161556627Y-75887963D01*
X161490443Y-75894481D01*
X161424260Y-75901000D01*
X161335740Y-75901000D01*
X161269557Y-75894481D01*
X161203373Y-75887963D01*
X161090147Y-75853616D01*
X161033533Y-75836443D01*
X160877011Y-75752779D01*
X160877009Y-75752778D01*
X160841271Y-75723448D01*
X160739814Y-75640186D01*
X160656552Y-75538729D01*
X160627222Y-75502991D01*
X160617652Y-75485087D01*
X160543557Y-75346467D01*
X160526384Y-75289853D01*
X160492037Y-75176627D01*
X160474641Y-75000000D01*
X160492037Y-74823373D01*
X160543557Y-74653534D01*
X160543557Y-74653533D01*
X160627221Y-74497011D01*
X160627222Y-74497009D01*
X160656552Y-74461271D01*
X160739814Y-74359814D01*
X160841271Y-74276552D01*
X160877009Y-74247222D01*
X160894913Y-74237652D01*
X161033533Y-74163557D01*
X161090147Y-74146384D01*
X161203373Y-74112037D01*
X161269558Y-74105518D01*
X161335740Y-74099000D01*
X161424260Y-74099000D01*
X161490442Y-74105518D01*
X161490442Y-74105518D01*
G37*
G36*
X158950442Y-74105518D02*
X159016627Y-74112037D01*
X159129853Y-74146384D01*
X159186467Y-74163557D01*
X159325087Y-74237652D01*
X159342991Y-74247222D01*
X159378729Y-74276552D01*
X159480186Y-74359814D01*
X159563448Y-74461271D01*
X159592778Y-74497009D01*
X159592779Y-74497011D01*
X159676443Y-74653533D01*
X159676443Y-74653534D01*
X159727963Y-74823373D01*
X159745359Y-75000000D01*
X159727963Y-75176627D01*
X159693616Y-75289853D01*
X159676443Y-75346467D01*
X159602348Y-75485087D01*
X159592778Y-75502991D01*
X159563448Y-75538729D01*
X159480186Y-75640186D01*
X159378729Y-75723448D01*
X159342991Y-75752778D01*
X159342989Y-75752779D01*
X159186467Y-75836443D01*
X159129853Y-75853616D01*
X159016627Y-75887963D01*
X158950443Y-75894481D01*
X158884260Y-75901000D01*
X158795740Y-75901000D01*
X158729557Y-75894481D01*
X158663373Y-75887963D01*
X158550147Y-75853616D01*
X158493533Y-75836443D01*
X158337011Y-75752779D01*
X158337009Y-75752778D01*
X158301271Y-75723448D01*
X158199814Y-75640186D01*
X158116552Y-75538729D01*
X158087222Y-75502991D01*
X158077652Y-75485087D01*
X158003557Y-75346467D01*
X157986384Y-75289853D01*
X157952037Y-75176627D01*
X157934641Y-75000000D01*
X157952037Y-74823373D01*
X158003557Y-74653534D01*
X158003557Y-74653533D01*
X158087221Y-74497011D01*
X158087222Y-74497009D01*
X158116552Y-74461271D01*
X158199814Y-74359814D01*
X158301271Y-74276552D01*
X158337009Y-74247222D01*
X158354913Y-74237652D01*
X158493533Y-74163557D01*
X158550147Y-74146384D01*
X158663373Y-74112037D01*
X158729558Y-74105518D01*
X158795740Y-74099000D01*
X158884260Y-74099000D01*
X158950442Y-74105518D01*
X158950442Y-74105518D01*
G37*
G36*
X151330442Y-74105518D02*
X151396627Y-74112037D01*
X151509853Y-74146384D01*
X151566467Y-74163557D01*
X151705087Y-74237652D01*
X151722991Y-74247222D01*
X151758729Y-74276552D01*
X151860186Y-74359814D01*
X151943448Y-74461271D01*
X151972778Y-74497009D01*
X151972779Y-74497011D01*
X152056443Y-74653533D01*
X152056443Y-74653534D01*
X152107963Y-74823373D01*
X152125359Y-75000000D01*
X152107963Y-75176627D01*
X152073616Y-75289853D01*
X152056443Y-75346467D01*
X151982348Y-75485087D01*
X151972778Y-75502991D01*
X151943448Y-75538729D01*
X151860186Y-75640186D01*
X151758729Y-75723448D01*
X151722991Y-75752778D01*
X151722989Y-75752779D01*
X151566467Y-75836443D01*
X151509853Y-75853616D01*
X151396627Y-75887963D01*
X151330443Y-75894481D01*
X151264260Y-75901000D01*
X151175740Y-75901000D01*
X151109557Y-75894481D01*
X151043373Y-75887963D01*
X150930147Y-75853616D01*
X150873533Y-75836443D01*
X150717011Y-75752779D01*
X150717009Y-75752778D01*
X150681271Y-75723448D01*
X150579814Y-75640186D01*
X150496552Y-75538729D01*
X150467222Y-75502991D01*
X150457652Y-75485087D01*
X150383557Y-75346467D01*
X150366384Y-75289853D01*
X150332037Y-75176627D01*
X150314641Y-75000000D01*
X150332037Y-74823373D01*
X150383557Y-74653534D01*
X150383557Y-74653533D01*
X150467221Y-74497011D01*
X150467222Y-74497009D01*
X150496552Y-74461271D01*
X150579814Y-74359814D01*
X150681271Y-74276552D01*
X150717009Y-74247222D01*
X150734913Y-74237652D01*
X150873533Y-74163557D01*
X150930147Y-74146384D01*
X151043373Y-74112037D01*
X151109558Y-74105518D01*
X151175740Y-74099000D01*
X151264260Y-74099000D01*
X151330442Y-74105518D01*
X151330442Y-74105518D01*
G37*
G36*
X153870442Y-74105518D02*
X153936627Y-74112037D01*
X154049853Y-74146384D01*
X154106467Y-74163557D01*
X154245087Y-74237652D01*
X154262991Y-74247222D01*
X154298729Y-74276552D01*
X154400186Y-74359814D01*
X154483448Y-74461271D01*
X154512778Y-74497009D01*
X154512779Y-74497011D01*
X154596443Y-74653533D01*
X154596443Y-74653534D01*
X154647963Y-74823373D01*
X154665359Y-75000000D01*
X154647963Y-75176627D01*
X154613616Y-75289853D01*
X154596443Y-75346467D01*
X154522348Y-75485087D01*
X154512778Y-75502991D01*
X154483448Y-75538729D01*
X154400186Y-75640186D01*
X154298729Y-75723448D01*
X154262991Y-75752778D01*
X154262989Y-75752779D01*
X154106467Y-75836443D01*
X154049853Y-75853616D01*
X153936627Y-75887963D01*
X153870443Y-75894481D01*
X153804260Y-75901000D01*
X153715740Y-75901000D01*
X153649557Y-75894481D01*
X153583373Y-75887963D01*
X153470147Y-75853616D01*
X153413533Y-75836443D01*
X153257011Y-75752779D01*
X153257009Y-75752778D01*
X153221271Y-75723448D01*
X153119814Y-75640186D01*
X153036552Y-75538729D01*
X153007222Y-75502991D01*
X152997652Y-75485087D01*
X152923557Y-75346467D01*
X152906384Y-75289853D01*
X152872037Y-75176627D01*
X152854641Y-75000000D01*
X152872037Y-74823373D01*
X152923557Y-74653534D01*
X152923557Y-74653533D01*
X153007221Y-74497011D01*
X153007222Y-74497009D01*
X153036552Y-74461271D01*
X153119814Y-74359814D01*
X153221271Y-74276552D01*
X153257009Y-74247222D01*
X153274913Y-74237652D01*
X153413533Y-74163557D01*
X153470147Y-74146384D01*
X153583373Y-74112037D01*
X153649558Y-74105518D01*
X153715740Y-74099000D01*
X153804260Y-74099000D01*
X153870442Y-74105518D01*
X153870442Y-74105518D01*
G37*
G36*
X156410442Y-74105518D02*
X156476627Y-74112037D01*
X156589853Y-74146384D01*
X156646467Y-74163557D01*
X156785087Y-74237652D01*
X156802991Y-74247222D01*
X156838729Y-74276552D01*
X156940186Y-74359814D01*
X157023448Y-74461271D01*
X157052778Y-74497009D01*
X157052779Y-74497011D01*
X157136443Y-74653533D01*
X157136443Y-74653534D01*
X157187963Y-74823373D01*
X157205359Y-75000000D01*
X157187963Y-75176627D01*
X157153616Y-75289853D01*
X157136443Y-75346467D01*
X157062348Y-75485087D01*
X157052778Y-75502991D01*
X157023448Y-75538729D01*
X156940186Y-75640186D01*
X156838729Y-75723448D01*
X156802991Y-75752778D01*
X156802989Y-75752779D01*
X156646467Y-75836443D01*
X156589853Y-75853616D01*
X156476627Y-75887963D01*
X156410443Y-75894481D01*
X156344260Y-75901000D01*
X156255740Y-75901000D01*
X156189557Y-75894481D01*
X156123373Y-75887963D01*
X156010147Y-75853616D01*
X155953533Y-75836443D01*
X155797011Y-75752779D01*
X155797009Y-75752778D01*
X155761271Y-75723448D01*
X155659814Y-75640186D01*
X155576552Y-75538729D01*
X155547222Y-75502991D01*
X155537652Y-75485087D01*
X155463557Y-75346467D01*
X155446384Y-75289853D01*
X155412037Y-75176627D01*
X155394641Y-75000000D01*
X155412037Y-74823373D01*
X155463557Y-74653534D01*
X155463557Y-74653533D01*
X155547221Y-74497011D01*
X155547222Y-74497009D01*
X155576552Y-74461271D01*
X155659814Y-74359814D01*
X155761271Y-74276552D01*
X155797009Y-74247222D01*
X155814913Y-74237652D01*
X155953533Y-74163557D01*
X156010147Y-74146384D01*
X156123373Y-74112037D01*
X156189558Y-74105518D01*
X156255740Y-74099000D01*
X156344260Y-74099000D01*
X156410442Y-74105518D01*
X156410442Y-74105518D01*
G37*
G36*
X169901000Y-75901000D02*
X168099000Y-75901000D01*
X168099000Y-74099000D01*
X169901000Y-74099000D01*
X169901000Y-75901000D01*
X169901000Y-75901000D01*
G37*
M02*
