G04 #@! TF.GenerationSoftware,KiCad,Pcbnew,5.0.2-bee76a0~70~ubuntu18.04.1*
G04 #@! TF.CreationDate,2019-08-19T12:56:06+02:00*
G04 #@! TF.ProjectId,roboy_3.0_40mm_ball_sensor,726f626f-795f-4332-9e30-5f34306d6d5f,rev?*
G04 #@! TF.SameCoordinates,Original*
G04 #@! TF.FileFunction,Copper,L1,Top*
G04 #@! TF.FilePolarity,Positive*
%FSLAX46Y46*%
G04 Gerber Fmt 4.6, Leading zero omitted, Abs format (unit mm)*
G04 Created by KiCad (PCBNEW 5.0.2-bee76a0~70~ubuntu18.04.1) date Mo 19 Aug 2019 12:56:06 CEST*
%MOMM*%
%LPD*%
G01*
G04 APERTURE LIST*
G04 #@! TA.AperFunction,SMDPad,CuDef*
%ADD10R,1.060000X0.650000*%
G04 #@! TD*
G04 #@! TA.AperFunction,ComponentPad*
%ADD11R,1.700000X1.700000*%
G04 #@! TD*
G04 #@! TA.AperFunction,ComponentPad*
%ADD12O,1.700000X1.700000*%
G04 #@! TD*
G04 #@! TA.AperFunction,Conductor*
%ADD13C,0.100000*%
G04 #@! TD*
G04 #@! TA.AperFunction,SMDPad,CuDef*
%ADD14C,0.590000*%
G04 #@! TD*
G04 #@! TA.AperFunction,ViaPad*
%ADD15C,0.800000*%
G04 #@! TD*
G04 #@! TA.AperFunction,Conductor*
%ADD16C,0.250000*%
G04 #@! TD*
G04 #@! TA.AperFunction,Conductor*
%ADD17C,0.254000*%
G04 #@! TD*
G04 APERTURE END LIST*
D10*
G04 #@! TO.P,U1,5*
G04 #@! TO.N,GND*
X181100000Y-102950000D03*
G04 #@! TO.P,U1,6*
G04 #@! TO.N,/SDA_0*
X181100000Y-102000000D03*
G04 #@! TO.P,U1,4*
G04 #@! TO.N,+3V3*
X181100000Y-103900000D03*
G04 #@! TO.P,U1,3*
G04 #@! TO.N,GND*
X178900000Y-103900000D03*
G04 #@! TO.P,U1,2*
X178900000Y-102950000D03*
G04 #@! TO.P,U1,1*
G04 #@! TO.N,/SCL_0*
X178900000Y-102000000D03*
G04 #@! TD*
G04 #@! TO.P,U2,1*
G04 #@! TO.N,/SCL_1*
X151900000Y-81050000D03*
G04 #@! TO.P,U2,2*
G04 #@! TO.N,GND*
X151900000Y-82000000D03*
G04 #@! TO.P,U2,3*
X151900000Y-82950000D03*
G04 #@! TO.P,U2,4*
G04 #@! TO.N,+3V3*
X154100000Y-82950000D03*
G04 #@! TO.P,U2,6*
G04 #@! TO.N,/SDA_1*
X154100000Y-81050000D03*
G04 #@! TO.P,U2,5*
G04 #@! TO.N,GND*
X154100000Y-82000000D03*
G04 #@! TD*
G04 #@! TO.P,U3,1*
G04 #@! TO.N,/SCL_2*
X147900000Y-115050000D03*
G04 #@! TO.P,U3,2*
G04 #@! TO.N,GND*
X147900000Y-116000000D03*
G04 #@! TO.P,U3,3*
X147900000Y-116950000D03*
G04 #@! TO.P,U3,4*
G04 #@! TO.N,+3V3*
X150100000Y-116950000D03*
G04 #@! TO.P,U3,6*
G04 #@! TO.N,/SDA_2*
X150100000Y-115050000D03*
G04 #@! TO.P,U3,5*
G04 #@! TO.N,GND*
X150100000Y-116000000D03*
G04 #@! TD*
D11*
G04 #@! TO.P,J1,1*
G04 #@! TO.N,GND*
X169000000Y-75000000D03*
D12*
G04 #@! TO.P,J1,2*
G04 #@! TO.N,+3V3*
X166460000Y-75000000D03*
G04 #@! TO.P,J1,3*
G04 #@! TO.N,/SDA_0*
X163920000Y-75000000D03*
G04 #@! TO.P,J1,4*
G04 #@! TO.N,/SCL_0*
X161380000Y-75000000D03*
G04 #@! TO.P,J1,5*
G04 #@! TO.N,/SDA_1*
X158840000Y-75000000D03*
G04 #@! TO.P,J1,6*
G04 #@! TO.N,/SCL_1*
X156300000Y-75000000D03*
G04 #@! TO.P,J1,7*
G04 #@! TO.N,/SDA_2*
X153760000Y-75000000D03*
G04 #@! TO.P,J1,8*
G04 #@! TO.N,/SCL_2*
X151220000Y-75000000D03*
G04 #@! TD*
D13*
G04 #@! TO.N,+3V3*
G04 #@! TO.C,C1*
G36*
X180146958Y-105080710D02*
X180161276Y-105082834D01*
X180175317Y-105086351D01*
X180188946Y-105091228D01*
X180202031Y-105097417D01*
X180214447Y-105104858D01*
X180226073Y-105113481D01*
X180236798Y-105123202D01*
X180246519Y-105133927D01*
X180255142Y-105145553D01*
X180262583Y-105157969D01*
X180268772Y-105171054D01*
X180273649Y-105184683D01*
X180277166Y-105198724D01*
X180279290Y-105213042D01*
X180280000Y-105227500D01*
X180280000Y-105572500D01*
X180279290Y-105586958D01*
X180277166Y-105601276D01*
X180273649Y-105615317D01*
X180268772Y-105628946D01*
X180262583Y-105642031D01*
X180255142Y-105654447D01*
X180246519Y-105666073D01*
X180236798Y-105676798D01*
X180226073Y-105686519D01*
X180214447Y-105695142D01*
X180202031Y-105702583D01*
X180188946Y-105708772D01*
X180175317Y-105713649D01*
X180161276Y-105717166D01*
X180146958Y-105719290D01*
X180132500Y-105720000D01*
X179837500Y-105720000D01*
X179823042Y-105719290D01*
X179808724Y-105717166D01*
X179794683Y-105713649D01*
X179781054Y-105708772D01*
X179767969Y-105702583D01*
X179755553Y-105695142D01*
X179743927Y-105686519D01*
X179733202Y-105676798D01*
X179723481Y-105666073D01*
X179714858Y-105654447D01*
X179707417Y-105642031D01*
X179701228Y-105628946D01*
X179696351Y-105615317D01*
X179692834Y-105601276D01*
X179690710Y-105586958D01*
X179690000Y-105572500D01*
X179690000Y-105227500D01*
X179690710Y-105213042D01*
X179692834Y-105198724D01*
X179696351Y-105184683D01*
X179701228Y-105171054D01*
X179707417Y-105157969D01*
X179714858Y-105145553D01*
X179723481Y-105133927D01*
X179733202Y-105123202D01*
X179743927Y-105113481D01*
X179755553Y-105104858D01*
X179767969Y-105097417D01*
X179781054Y-105091228D01*
X179794683Y-105086351D01*
X179808724Y-105082834D01*
X179823042Y-105080710D01*
X179837500Y-105080000D01*
X180132500Y-105080000D01*
X180146958Y-105080710D01*
X180146958Y-105080710D01*
G37*
D14*
G04 #@! TD*
G04 #@! TO.P,C1,1*
G04 #@! TO.N,+3V3*
X179985000Y-105400000D03*
D13*
G04 #@! TO.N,GND*
G04 #@! TO.C,C1*
G36*
X179176958Y-105080710D02*
X179191276Y-105082834D01*
X179205317Y-105086351D01*
X179218946Y-105091228D01*
X179232031Y-105097417D01*
X179244447Y-105104858D01*
X179256073Y-105113481D01*
X179266798Y-105123202D01*
X179276519Y-105133927D01*
X179285142Y-105145553D01*
X179292583Y-105157969D01*
X179298772Y-105171054D01*
X179303649Y-105184683D01*
X179307166Y-105198724D01*
X179309290Y-105213042D01*
X179310000Y-105227500D01*
X179310000Y-105572500D01*
X179309290Y-105586958D01*
X179307166Y-105601276D01*
X179303649Y-105615317D01*
X179298772Y-105628946D01*
X179292583Y-105642031D01*
X179285142Y-105654447D01*
X179276519Y-105666073D01*
X179266798Y-105676798D01*
X179256073Y-105686519D01*
X179244447Y-105695142D01*
X179232031Y-105702583D01*
X179218946Y-105708772D01*
X179205317Y-105713649D01*
X179191276Y-105717166D01*
X179176958Y-105719290D01*
X179162500Y-105720000D01*
X178867500Y-105720000D01*
X178853042Y-105719290D01*
X178838724Y-105717166D01*
X178824683Y-105713649D01*
X178811054Y-105708772D01*
X178797969Y-105702583D01*
X178785553Y-105695142D01*
X178773927Y-105686519D01*
X178763202Y-105676798D01*
X178753481Y-105666073D01*
X178744858Y-105654447D01*
X178737417Y-105642031D01*
X178731228Y-105628946D01*
X178726351Y-105615317D01*
X178722834Y-105601276D01*
X178720710Y-105586958D01*
X178720000Y-105572500D01*
X178720000Y-105227500D01*
X178720710Y-105213042D01*
X178722834Y-105198724D01*
X178726351Y-105184683D01*
X178731228Y-105171054D01*
X178737417Y-105157969D01*
X178744858Y-105145553D01*
X178753481Y-105133927D01*
X178763202Y-105123202D01*
X178773927Y-105113481D01*
X178785553Y-105104858D01*
X178797969Y-105097417D01*
X178811054Y-105091228D01*
X178824683Y-105086351D01*
X178838724Y-105082834D01*
X178853042Y-105080710D01*
X178867500Y-105080000D01*
X179162500Y-105080000D01*
X179176958Y-105080710D01*
X179176958Y-105080710D01*
G37*
D14*
G04 #@! TD*
G04 #@! TO.P,C1,2*
G04 #@! TO.N,GND*
X179015000Y-105400000D03*
D13*
G04 #@! TO.N,GND*
G04 #@! TO.C,C2*
G36*
X155886958Y-80620710D02*
X155901276Y-80622834D01*
X155915317Y-80626351D01*
X155928946Y-80631228D01*
X155942031Y-80637417D01*
X155954447Y-80644858D01*
X155966073Y-80653481D01*
X155976798Y-80663202D01*
X155986519Y-80673927D01*
X155995142Y-80685553D01*
X156002583Y-80697969D01*
X156008772Y-80711054D01*
X156013649Y-80724683D01*
X156017166Y-80738724D01*
X156019290Y-80753042D01*
X156020000Y-80767500D01*
X156020000Y-81062500D01*
X156019290Y-81076958D01*
X156017166Y-81091276D01*
X156013649Y-81105317D01*
X156008772Y-81118946D01*
X156002583Y-81132031D01*
X155995142Y-81144447D01*
X155986519Y-81156073D01*
X155976798Y-81166798D01*
X155966073Y-81176519D01*
X155954447Y-81185142D01*
X155942031Y-81192583D01*
X155928946Y-81198772D01*
X155915317Y-81203649D01*
X155901276Y-81207166D01*
X155886958Y-81209290D01*
X155872500Y-81210000D01*
X155527500Y-81210000D01*
X155513042Y-81209290D01*
X155498724Y-81207166D01*
X155484683Y-81203649D01*
X155471054Y-81198772D01*
X155457969Y-81192583D01*
X155445553Y-81185142D01*
X155433927Y-81176519D01*
X155423202Y-81166798D01*
X155413481Y-81156073D01*
X155404858Y-81144447D01*
X155397417Y-81132031D01*
X155391228Y-81118946D01*
X155386351Y-81105317D01*
X155382834Y-81091276D01*
X155380710Y-81076958D01*
X155380000Y-81062500D01*
X155380000Y-80767500D01*
X155380710Y-80753042D01*
X155382834Y-80738724D01*
X155386351Y-80724683D01*
X155391228Y-80711054D01*
X155397417Y-80697969D01*
X155404858Y-80685553D01*
X155413481Y-80673927D01*
X155423202Y-80663202D01*
X155433927Y-80653481D01*
X155445553Y-80644858D01*
X155457969Y-80637417D01*
X155471054Y-80631228D01*
X155484683Y-80626351D01*
X155498724Y-80622834D01*
X155513042Y-80620710D01*
X155527500Y-80620000D01*
X155872500Y-80620000D01*
X155886958Y-80620710D01*
X155886958Y-80620710D01*
G37*
D14*
G04 #@! TD*
G04 #@! TO.P,C2,2*
G04 #@! TO.N,GND*
X155700000Y-80915000D03*
D13*
G04 #@! TO.N,+3V3*
G04 #@! TO.C,C2*
G36*
X155886958Y-81590710D02*
X155901276Y-81592834D01*
X155915317Y-81596351D01*
X155928946Y-81601228D01*
X155942031Y-81607417D01*
X155954447Y-81614858D01*
X155966073Y-81623481D01*
X155976798Y-81633202D01*
X155986519Y-81643927D01*
X155995142Y-81655553D01*
X156002583Y-81667969D01*
X156008772Y-81681054D01*
X156013649Y-81694683D01*
X156017166Y-81708724D01*
X156019290Y-81723042D01*
X156020000Y-81737500D01*
X156020000Y-82032500D01*
X156019290Y-82046958D01*
X156017166Y-82061276D01*
X156013649Y-82075317D01*
X156008772Y-82088946D01*
X156002583Y-82102031D01*
X155995142Y-82114447D01*
X155986519Y-82126073D01*
X155976798Y-82136798D01*
X155966073Y-82146519D01*
X155954447Y-82155142D01*
X155942031Y-82162583D01*
X155928946Y-82168772D01*
X155915317Y-82173649D01*
X155901276Y-82177166D01*
X155886958Y-82179290D01*
X155872500Y-82180000D01*
X155527500Y-82180000D01*
X155513042Y-82179290D01*
X155498724Y-82177166D01*
X155484683Y-82173649D01*
X155471054Y-82168772D01*
X155457969Y-82162583D01*
X155445553Y-82155142D01*
X155433927Y-82146519D01*
X155423202Y-82136798D01*
X155413481Y-82126073D01*
X155404858Y-82114447D01*
X155397417Y-82102031D01*
X155391228Y-82088946D01*
X155386351Y-82075317D01*
X155382834Y-82061276D01*
X155380710Y-82046958D01*
X155380000Y-82032500D01*
X155380000Y-81737500D01*
X155380710Y-81723042D01*
X155382834Y-81708724D01*
X155386351Y-81694683D01*
X155391228Y-81681054D01*
X155397417Y-81667969D01*
X155404858Y-81655553D01*
X155413481Y-81643927D01*
X155423202Y-81633202D01*
X155433927Y-81623481D01*
X155445553Y-81614858D01*
X155457969Y-81607417D01*
X155471054Y-81601228D01*
X155484683Y-81596351D01*
X155498724Y-81592834D01*
X155513042Y-81590710D01*
X155527500Y-81590000D01*
X155872500Y-81590000D01*
X155886958Y-81590710D01*
X155886958Y-81590710D01*
G37*
D14*
G04 #@! TD*
G04 #@! TO.P,C2,1*
G04 #@! TO.N,+3V3*
X155700000Y-81885000D03*
D13*
G04 #@! TO.N,+3V3*
G04 #@! TO.C,C3*
G36*
X151686958Y-117690710D02*
X151701276Y-117692834D01*
X151715317Y-117696351D01*
X151728946Y-117701228D01*
X151742031Y-117707417D01*
X151754447Y-117714858D01*
X151766073Y-117723481D01*
X151776798Y-117733202D01*
X151786519Y-117743927D01*
X151795142Y-117755553D01*
X151802583Y-117767969D01*
X151808772Y-117781054D01*
X151813649Y-117794683D01*
X151817166Y-117808724D01*
X151819290Y-117823042D01*
X151820000Y-117837500D01*
X151820000Y-118132500D01*
X151819290Y-118146958D01*
X151817166Y-118161276D01*
X151813649Y-118175317D01*
X151808772Y-118188946D01*
X151802583Y-118202031D01*
X151795142Y-118214447D01*
X151786519Y-118226073D01*
X151776798Y-118236798D01*
X151766073Y-118246519D01*
X151754447Y-118255142D01*
X151742031Y-118262583D01*
X151728946Y-118268772D01*
X151715317Y-118273649D01*
X151701276Y-118277166D01*
X151686958Y-118279290D01*
X151672500Y-118280000D01*
X151327500Y-118280000D01*
X151313042Y-118279290D01*
X151298724Y-118277166D01*
X151284683Y-118273649D01*
X151271054Y-118268772D01*
X151257969Y-118262583D01*
X151245553Y-118255142D01*
X151233927Y-118246519D01*
X151223202Y-118236798D01*
X151213481Y-118226073D01*
X151204858Y-118214447D01*
X151197417Y-118202031D01*
X151191228Y-118188946D01*
X151186351Y-118175317D01*
X151182834Y-118161276D01*
X151180710Y-118146958D01*
X151180000Y-118132500D01*
X151180000Y-117837500D01*
X151180710Y-117823042D01*
X151182834Y-117808724D01*
X151186351Y-117794683D01*
X151191228Y-117781054D01*
X151197417Y-117767969D01*
X151204858Y-117755553D01*
X151213481Y-117743927D01*
X151223202Y-117733202D01*
X151233927Y-117723481D01*
X151245553Y-117714858D01*
X151257969Y-117707417D01*
X151271054Y-117701228D01*
X151284683Y-117696351D01*
X151298724Y-117692834D01*
X151313042Y-117690710D01*
X151327500Y-117690000D01*
X151672500Y-117690000D01*
X151686958Y-117690710D01*
X151686958Y-117690710D01*
G37*
D14*
G04 #@! TD*
G04 #@! TO.P,C3,1*
G04 #@! TO.N,+3V3*
X151500000Y-117985000D03*
D13*
G04 #@! TO.N,GND*
G04 #@! TO.C,C3*
G36*
X151686958Y-116720710D02*
X151701276Y-116722834D01*
X151715317Y-116726351D01*
X151728946Y-116731228D01*
X151742031Y-116737417D01*
X151754447Y-116744858D01*
X151766073Y-116753481D01*
X151776798Y-116763202D01*
X151786519Y-116773927D01*
X151795142Y-116785553D01*
X151802583Y-116797969D01*
X151808772Y-116811054D01*
X151813649Y-116824683D01*
X151817166Y-116838724D01*
X151819290Y-116853042D01*
X151820000Y-116867500D01*
X151820000Y-117162500D01*
X151819290Y-117176958D01*
X151817166Y-117191276D01*
X151813649Y-117205317D01*
X151808772Y-117218946D01*
X151802583Y-117232031D01*
X151795142Y-117244447D01*
X151786519Y-117256073D01*
X151776798Y-117266798D01*
X151766073Y-117276519D01*
X151754447Y-117285142D01*
X151742031Y-117292583D01*
X151728946Y-117298772D01*
X151715317Y-117303649D01*
X151701276Y-117307166D01*
X151686958Y-117309290D01*
X151672500Y-117310000D01*
X151327500Y-117310000D01*
X151313042Y-117309290D01*
X151298724Y-117307166D01*
X151284683Y-117303649D01*
X151271054Y-117298772D01*
X151257969Y-117292583D01*
X151245553Y-117285142D01*
X151233927Y-117276519D01*
X151223202Y-117266798D01*
X151213481Y-117256073D01*
X151204858Y-117244447D01*
X151197417Y-117232031D01*
X151191228Y-117218946D01*
X151186351Y-117205317D01*
X151182834Y-117191276D01*
X151180710Y-117176958D01*
X151180000Y-117162500D01*
X151180000Y-116867500D01*
X151180710Y-116853042D01*
X151182834Y-116838724D01*
X151186351Y-116824683D01*
X151191228Y-116811054D01*
X151197417Y-116797969D01*
X151204858Y-116785553D01*
X151213481Y-116773927D01*
X151223202Y-116763202D01*
X151233927Y-116753481D01*
X151245553Y-116744858D01*
X151257969Y-116737417D01*
X151271054Y-116731228D01*
X151284683Y-116726351D01*
X151298724Y-116722834D01*
X151313042Y-116720710D01*
X151327500Y-116720000D01*
X151672500Y-116720000D01*
X151686958Y-116720710D01*
X151686958Y-116720710D01*
G37*
D14*
G04 #@! TD*
G04 #@! TO.P,C3,2*
G04 #@! TO.N,GND*
X151500000Y-117015000D03*
D15*
G04 #@! TO.N,GND*
X183000000Y-101300000D03*
X178300000Y-107200000D03*
X148700000Y-86000000D03*
X142400000Y-85700000D03*
X143800000Y-116100000D03*
X153800000Y-117900000D03*
G04 #@! TO.N,/SCL_0*
X179000000Y-100000000D03*
G04 #@! TO.N,/SDA_0*
X181000000Y-100000000D03*
G04 #@! TD*
D16*
G04 #@! TO.N,GND*
X180320000Y-102950000D02*
X179270000Y-104000000D01*
X181100000Y-102950000D02*
X180320000Y-102950000D01*
X179000000Y-104000000D02*
X178900000Y-103900000D01*
X179270000Y-104000000D02*
X179000000Y-104000000D01*
X178900000Y-102950000D02*
X178900000Y-103900000D01*
X150100000Y-116000000D02*
X147900000Y-116000000D01*
X147900000Y-116000000D02*
X147900000Y-116950000D01*
X154100000Y-82000000D02*
X151900000Y-82000000D01*
X151900000Y-82000000D02*
X151900000Y-82950000D01*
X154590002Y-82000000D02*
X154100000Y-82000000D01*
X155340834Y-81249168D02*
X154590002Y-82000000D01*
X155365832Y-81249168D02*
X155340834Y-81249168D01*
X155700000Y-80915000D02*
X155365832Y-81249168D01*
G04 #@! TO.N,+3V3*
X165610001Y-75849999D02*
X166460000Y-75000000D01*
X161654999Y-76175001D02*
X165284999Y-76175001D01*
X165284999Y-76175001D02*
X165610001Y-75849999D01*
X154100000Y-82950000D02*
X154880000Y-82950000D01*
X181100000Y-103900000D02*
X180320000Y-103900000D01*
X150305000Y-116950000D02*
X153355000Y-120000000D01*
X150100000Y-116950000D02*
X150305000Y-116950000D01*
X153355000Y-120000000D02*
X170000000Y-120000000D01*
X170000000Y-120000000D02*
X180110000Y-109890000D01*
X180110000Y-109890000D02*
X180110000Y-104110000D01*
X180320000Y-103900000D02*
X180110000Y-104110000D01*
X155700000Y-82130000D02*
X155600000Y-82230000D01*
X154880000Y-82950000D02*
X155600000Y-82230000D01*
X155700000Y-81885000D02*
X155700000Y-82130000D01*
X155600000Y-82230000D02*
X161654999Y-76175001D01*
X181880000Y-103900000D02*
X181100000Y-103900000D01*
X181955001Y-103824999D02*
X181880000Y-103900000D01*
X181955001Y-91697082D02*
X181955001Y-103824999D01*
X166460000Y-76202081D02*
X181955001Y-91697082D01*
X166460000Y-75000000D02*
X166460000Y-76202081D01*
G04 #@! TO.N,/SCL_0*
X178900000Y-102000000D02*
X178900000Y-100100000D01*
X178900000Y-100100000D02*
X179000000Y-100000000D01*
G04 #@! TO.N,/SDA_0*
X181000000Y-101900000D02*
X181100000Y-102000000D01*
X181000000Y-100000000D02*
X181000000Y-101900000D01*
G04 #@! TO.N,/SCL_1*
X152105000Y-81050000D02*
X151900000Y-81050000D01*
X156300000Y-76855000D02*
X152105000Y-81050000D01*
X156300000Y-75000000D02*
X156300000Y-76855000D01*
G04 #@! TO.N,/SDA_1*
X154100000Y-79740000D02*
X154100000Y-81050000D01*
X158840000Y-75000000D02*
X154100000Y-79740000D01*
G04 #@! TO.N,/SCL_2*
X147050000Y-115050000D02*
X147900000Y-115050000D01*
X140000000Y-108000000D02*
X147050000Y-115050000D01*
X140000000Y-91000000D02*
X140000000Y-108000000D01*
X149110000Y-81890000D02*
X140000000Y-91000000D01*
X151220000Y-75000000D02*
X149110000Y-77110000D01*
X149110000Y-77110000D02*
X149110000Y-81890000D01*
G04 #@! TO.N,/SDA_2*
X150100000Y-78660000D02*
X153760000Y-75000000D01*
X150100000Y-81900000D02*
X150100000Y-78660000D01*
X150100000Y-115050000D02*
X150100000Y-114100000D01*
X150000000Y-114000000D02*
X147000000Y-114000000D01*
X140450010Y-107450010D02*
X140450010Y-91549990D01*
X150100000Y-114100000D02*
X150000000Y-114000000D01*
X147000000Y-114000000D02*
X140450010Y-107450010D01*
X140450010Y-91549990D02*
X150100000Y-81900000D01*
G04 #@! TD*
D17*
G04 #@! TO.N,GND*
G36*
X172334750Y-75187931D02*
X174161814Y-76145128D01*
X175911966Y-77236621D01*
X176455691Y-77635297D01*
X182875512Y-84055118D01*
X183182370Y-84469057D01*
X184034360Y-85819379D01*
X187366920Y-102482179D01*
X185567123Y-106081773D01*
X185465755Y-105980405D01*
X185099695Y-105735812D01*
X184692951Y-105567333D01*
X184261154Y-105481443D01*
X183820898Y-105481443D01*
X183389101Y-105567333D01*
X182982357Y-105735812D01*
X182616297Y-105980405D01*
X182304988Y-106291714D01*
X182060395Y-106657774D01*
X181891916Y-107064518D01*
X181806026Y-107496315D01*
X181806026Y-107936571D01*
X181891916Y-108368368D01*
X182060395Y-108775112D01*
X182304988Y-109141172D01*
X182616297Y-109452481D01*
X182982357Y-109697074D01*
X183389101Y-109865553D01*
X183649350Y-109917320D01*
X179899816Y-117416388D01*
X169957667Y-124873000D01*
X162735000Y-124873000D01*
X162735000Y-124599872D01*
X162649110Y-124168075D01*
X162480631Y-123761331D01*
X162236038Y-123395271D01*
X161924729Y-123083962D01*
X161558669Y-122839369D01*
X161151925Y-122670890D01*
X160720128Y-122585000D01*
X160279872Y-122585000D01*
X159848075Y-122670890D01*
X159441331Y-122839369D01*
X159075271Y-123083962D01*
X158763962Y-123395271D01*
X158519369Y-123761331D01*
X158350890Y-124168075D01*
X158265000Y-124599872D01*
X158265000Y-124873000D01*
X155024459Y-124873000D01*
X142586890Y-119897972D01*
X140989557Y-117235750D01*
X146735000Y-117235750D01*
X146735000Y-117337542D01*
X146759403Y-117460223D01*
X146807270Y-117575785D01*
X146876763Y-117679789D01*
X146965211Y-117768237D01*
X147069215Y-117837730D01*
X147184777Y-117885597D01*
X147307458Y-117910000D01*
X147614250Y-117910000D01*
X147773000Y-117751250D01*
X147773000Y-117077000D01*
X146893750Y-117077000D01*
X146735000Y-117235750D01*
X140989557Y-117235750D01*
X136602727Y-109924367D01*
X136738846Y-109951443D01*
X137179102Y-109951443D01*
X137610899Y-109865553D01*
X138017643Y-109697074D01*
X138383703Y-109452481D01*
X138695012Y-109141172D01*
X138939605Y-108775112D01*
X139108084Y-108368368D01*
X139193974Y-107936571D01*
X139193974Y-107496315D01*
X139108084Y-107064518D01*
X138939605Y-106657774D01*
X138695012Y-106291714D01*
X138383703Y-105980405D01*
X138017643Y-105735812D01*
X137610899Y-105567333D01*
X137179102Y-105481443D01*
X136738846Y-105481443D01*
X136307049Y-105567333D01*
X135900305Y-105735812D01*
X135534245Y-105980405D01*
X135222936Y-106291714D01*
X135127000Y-106435293D01*
X135127000Y-97515634D01*
X137616988Y-87555683D01*
X143876702Y-79209398D01*
X143801736Y-79390382D01*
X143715846Y-79822179D01*
X143715846Y-80262435D01*
X143801736Y-80694232D01*
X143970215Y-81100976D01*
X144214808Y-81467036D01*
X144526117Y-81778345D01*
X144892177Y-82022938D01*
X145298921Y-82191417D01*
X145730718Y-82277307D01*
X146170974Y-82277307D01*
X146602771Y-82191417D01*
X147009515Y-82022938D01*
X147375575Y-81778345D01*
X147686884Y-81467036D01*
X147931477Y-81100976D01*
X148099956Y-80694232D01*
X148185846Y-80262435D01*
X148185846Y-79822179D01*
X148099956Y-79390382D01*
X147931477Y-78983638D01*
X147686884Y-78617578D01*
X147375575Y-78306269D01*
X147009515Y-78061676D01*
X146602771Y-77893197D01*
X146170974Y-77807307D01*
X145730718Y-77807307D01*
X145298921Y-77893197D01*
X144892177Y-78061676D01*
X144582107Y-78268858D01*
X145077797Y-77607938D01*
X148766993Y-76378206D01*
X148599003Y-76546196D01*
X148569999Y-76569999D01*
X148523748Y-76626357D01*
X148475026Y-76685724D01*
X148446656Y-76738800D01*
X148404454Y-76817754D01*
X148360997Y-76961015D01*
X148350000Y-77072668D01*
X148350000Y-77072678D01*
X148346324Y-77110000D01*
X148350000Y-77147323D01*
X148350001Y-81575197D01*
X139489003Y-90436196D01*
X139459999Y-90459999D01*
X139404871Y-90527174D01*
X139365026Y-90575724D01*
X139294455Y-90707753D01*
X139294454Y-90707754D01*
X139250997Y-90851015D01*
X139240000Y-90962668D01*
X139240000Y-90962678D01*
X139236324Y-91000000D01*
X139240000Y-91037322D01*
X139240001Y-107962667D01*
X139236324Y-108000000D01*
X139250998Y-108148985D01*
X139294454Y-108292246D01*
X139365026Y-108424276D01*
X139436201Y-108511002D01*
X139460000Y-108540001D01*
X139488998Y-108563799D01*
X146486201Y-115561003D01*
X146509999Y-115590001D01*
X146538997Y-115613799D01*
X146625724Y-115684974D01*
X146757753Y-115755546D01*
X146784370Y-115763620D01*
X146893750Y-115873000D01*
X146975859Y-115873000D01*
X147015506Y-115905537D01*
X147125820Y-115964502D01*
X147245518Y-116000812D01*
X147250591Y-116001312D01*
X147184777Y-116014403D01*
X147069215Y-116062270D01*
X146972339Y-116127000D01*
X146893750Y-116127000D01*
X146735000Y-116285750D01*
X146735000Y-116387542D01*
X146752397Y-116475000D01*
X146735000Y-116562458D01*
X146735000Y-116664250D01*
X146893750Y-116823000D01*
X146972339Y-116823000D01*
X147069215Y-116887730D01*
X147184777Y-116935597D01*
X147307458Y-116960000D01*
X147614250Y-116960000D01*
X147751250Y-116823000D01*
X147773000Y-116823000D01*
X147773000Y-116803000D01*
X148027000Y-116803000D01*
X148027000Y-116823000D01*
X148047000Y-116823000D01*
X148047000Y-117077000D01*
X148027000Y-117077000D01*
X148027000Y-117751250D01*
X148185750Y-117910000D01*
X148492542Y-117910000D01*
X148615223Y-117885597D01*
X148730785Y-117837730D01*
X148834789Y-117768237D01*
X148923237Y-117679789D01*
X148992730Y-117575785D01*
X149000599Y-117556786D01*
X149039463Y-117629494D01*
X149118815Y-117726185D01*
X149215506Y-117805537D01*
X149325820Y-117864502D01*
X149445518Y-117900812D01*
X149570000Y-117913072D01*
X150193271Y-117913072D01*
X150556047Y-118275848D01*
X150557023Y-118285757D01*
X150601726Y-118433125D01*
X150674321Y-118568940D01*
X150772017Y-118687983D01*
X150891060Y-118785679D01*
X151026875Y-118858274D01*
X151174243Y-118902977D01*
X151184151Y-118903953D01*
X152791201Y-120511003D01*
X152814999Y-120540001D01*
X152930724Y-120634974D01*
X153062753Y-120705546D01*
X153206014Y-120749003D01*
X153317667Y-120760000D01*
X153317676Y-120760000D01*
X153354999Y-120763676D01*
X153392322Y-120760000D01*
X169962678Y-120760000D01*
X170000000Y-120763676D01*
X170037322Y-120760000D01*
X170037333Y-120760000D01*
X170148986Y-120749003D01*
X170292247Y-120705546D01*
X170424276Y-120634974D01*
X170540001Y-120540001D01*
X170563804Y-120510997D01*
X180621004Y-110453798D01*
X180650001Y-110430001D01*
X180676332Y-110397917D01*
X180744974Y-110314277D01*
X180815546Y-110182247D01*
X180815546Y-110182246D01*
X180859003Y-110038986D01*
X180870000Y-109927333D01*
X180870000Y-109927324D01*
X180873676Y-109890001D01*
X180870000Y-109852678D01*
X180870000Y-105834469D01*
X180902977Y-105725757D01*
X180918072Y-105572500D01*
X180918072Y-105227500D01*
X180902977Y-105074243D01*
X180870000Y-104965531D01*
X180870000Y-104863072D01*
X181630000Y-104863072D01*
X181754482Y-104850812D01*
X181874180Y-104814502D01*
X181984494Y-104755537D01*
X182081185Y-104676185D01*
X182128189Y-104618911D01*
X182172247Y-104605546D01*
X182304276Y-104534974D01*
X182420001Y-104440001D01*
X182443802Y-104411000D01*
X182466002Y-104388800D01*
X182495002Y-104365000D01*
X182589975Y-104249275D01*
X182660547Y-104117246D01*
X182704004Y-103973985D01*
X182715001Y-103862332D01*
X182715001Y-103862322D01*
X182718677Y-103825000D01*
X182715001Y-103787677D01*
X182715001Y-91734415D01*
X182718678Y-91697082D01*
X182704004Y-91548096D01*
X182660547Y-91404835D01*
X182589975Y-91272806D01*
X182518800Y-91186079D01*
X182495002Y-91157081D01*
X182466005Y-91133284D01*
X171154900Y-79822179D01*
X172814154Y-79822179D01*
X172814154Y-80262435D01*
X172900044Y-80694232D01*
X173068523Y-81100976D01*
X173313116Y-81467036D01*
X173624425Y-81778345D01*
X173990485Y-82022938D01*
X174397229Y-82191417D01*
X174829026Y-82277307D01*
X175269282Y-82277307D01*
X175701079Y-82191417D01*
X176107823Y-82022938D01*
X176473883Y-81778345D01*
X176785192Y-81467036D01*
X177029785Y-81100976D01*
X177198264Y-80694232D01*
X177284154Y-80262435D01*
X177284154Y-79822179D01*
X177198264Y-79390382D01*
X177029785Y-78983638D01*
X176785192Y-78617578D01*
X176473883Y-78306269D01*
X176107823Y-78061676D01*
X175701079Y-77893197D01*
X175269282Y-77807307D01*
X174829026Y-77807307D01*
X174397229Y-77893197D01*
X173990485Y-78061676D01*
X173624425Y-78306269D01*
X173313116Y-78617578D01*
X173068523Y-78983638D01*
X172900044Y-79390382D01*
X172814154Y-79822179D01*
X171154900Y-79822179D01*
X167445226Y-76112506D01*
X167515134Y-76055134D01*
X167537856Y-76027447D01*
X167539403Y-76035223D01*
X167587270Y-76150785D01*
X167656763Y-76254789D01*
X167745211Y-76343237D01*
X167849215Y-76412730D01*
X167964777Y-76460597D01*
X168087458Y-76485000D01*
X168714250Y-76485000D01*
X168873000Y-76326250D01*
X168873000Y-75127000D01*
X169127000Y-75127000D01*
X169127000Y-76326250D01*
X169285750Y-76485000D01*
X169912542Y-76485000D01*
X170035223Y-76460597D01*
X170150785Y-76412730D01*
X170254789Y-76343237D01*
X170343237Y-76254789D01*
X170412730Y-76150785D01*
X170460597Y-76035223D01*
X170485000Y-75912542D01*
X170485000Y-75285750D01*
X170326250Y-75127000D01*
X169127000Y-75127000D01*
X168873000Y-75127000D01*
X168853000Y-75127000D01*
X168853000Y-74873000D01*
X168873000Y-74873000D01*
X168873000Y-74853000D01*
X169127000Y-74853000D01*
X169127000Y-74873000D01*
X170326250Y-74873000D01*
X170485000Y-74714250D01*
X170485000Y-74389388D01*
X172334750Y-75187931D01*
X172334750Y-75187931D01*
G37*
X172334750Y-75187931D02*
X174161814Y-76145128D01*
X175911966Y-77236621D01*
X176455691Y-77635297D01*
X182875512Y-84055118D01*
X183182370Y-84469057D01*
X184034360Y-85819379D01*
X187366920Y-102482179D01*
X185567123Y-106081773D01*
X185465755Y-105980405D01*
X185099695Y-105735812D01*
X184692951Y-105567333D01*
X184261154Y-105481443D01*
X183820898Y-105481443D01*
X183389101Y-105567333D01*
X182982357Y-105735812D01*
X182616297Y-105980405D01*
X182304988Y-106291714D01*
X182060395Y-106657774D01*
X181891916Y-107064518D01*
X181806026Y-107496315D01*
X181806026Y-107936571D01*
X181891916Y-108368368D01*
X182060395Y-108775112D01*
X182304988Y-109141172D01*
X182616297Y-109452481D01*
X182982357Y-109697074D01*
X183389101Y-109865553D01*
X183649350Y-109917320D01*
X179899816Y-117416388D01*
X169957667Y-124873000D01*
X162735000Y-124873000D01*
X162735000Y-124599872D01*
X162649110Y-124168075D01*
X162480631Y-123761331D01*
X162236038Y-123395271D01*
X161924729Y-123083962D01*
X161558669Y-122839369D01*
X161151925Y-122670890D01*
X160720128Y-122585000D01*
X160279872Y-122585000D01*
X159848075Y-122670890D01*
X159441331Y-122839369D01*
X159075271Y-123083962D01*
X158763962Y-123395271D01*
X158519369Y-123761331D01*
X158350890Y-124168075D01*
X158265000Y-124599872D01*
X158265000Y-124873000D01*
X155024459Y-124873000D01*
X142586890Y-119897972D01*
X140989557Y-117235750D01*
X146735000Y-117235750D01*
X146735000Y-117337542D01*
X146759403Y-117460223D01*
X146807270Y-117575785D01*
X146876763Y-117679789D01*
X146965211Y-117768237D01*
X147069215Y-117837730D01*
X147184777Y-117885597D01*
X147307458Y-117910000D01*
X147614250Y-117910000D01*
X147773000Y-117751250D01*
X147773000Y-117077000D01*
X146893750Y-117077000D01*
X146735000Y-117235750D01*
X140989557Y-117235750D01*
X136602727Y-109924367D01*
X136738846Y-109951443D01*
X137179102Y-109951443D01*
X137610899Y-109865553D01*
X138017643Y-109697074D01*
X138383703Y-109452481D01*
X138695012Y-109141172D01*
X138939605Y-108775112D01*
X139108084Y-108368368D01*
X139193974Y-107936571D01*
X139193974Y-107496315D01*
X139108084Y-107064518D01*
X138939605Y-106657774D01*
X138695012Y-106291714D01*
X138383703Y-105980405D01*
X138017643Y-105735812D01*
X137610899Y-105567333D01*
X137179102Y-105481443D01*
X136738846Y-105481443D01*
X136307049Y-105567333D01*
X135900305Y-105735812D01*
X135534245Y-105980405D01*
X135222936Y-106291714D01*
X135127000Y-106435293D01*
X135127000Y-97515634D01*
X137616988Y-87555683D01*
X143876702Y-79209398D01*
X143801736Y-79390382D01*
X143715846Y-79822179D01*
X143715846Y-80262435D01*
X143801736Y-80694232D01*
X143970215Y-81100976D01*
X144214808Y-81467036D01*
X144526117Y-81778345D01*
X144892177Y-82022938D01*
X145298921Y-82191417D01*
X145730718Y-82277307D01*
X146170974Y-82277307D01*
X146602771Y-82191417D01*
X147009515Y-82022938D01*
X147375575Y-81778345D01*
X147686884Y-81467036D01*
X147931477Y-81100976D01*
X148099956Y-80694232D01*
X148185846Y-80262435D01*
X148185846Y-79822179D01*
X148099956Y-79390382D01*
X147931477Y-78983638D01*
X147686884Y-78617578D01*
X147375575Y-78306269D01*
X147009515Y-78061676D01*
X146602771Y-77893197D01*
X146170974Y-77807307D01*
X145730718Y-77807307D01*
X145298921Y-77893197D01*
X144892177Y-78061676D01*
X144582107Y-78268858D01*
X145077797Y-77607938D01*
X148766993Y-76378206D01*
X148599003Y-76546196D01*
X148569999Y-76569999D01*
X148523748Y-76626357D01*
X148475026Y-76685724D01*
X148446656Y-76738800D01*
X148404454Y-76817754D01*
X148360997Y-76961015D01*
X148350000Y-77072668D01*
X148350000Y-77072678D01*
X148346324Y-77110000D01*
X148350000Y-77147323D01*
X148350001Y-81575197D01*
X139489003Y-90436196D01*
X139459999Y-90459999D01*
X139404871Y-90527174D01*
X139365026Y-90575724D01*
X139294455Y-90707753D01*
X139294454Y-90707754D01*
X139250997Y-90851015D01*
X139240000Y-90962668D01*
X139240000Y-90962678D01*
X139236324Y-91000000D01*
X139240000Y-91037322D01*
X139240001Y-107962667D01*
X139236324Y-108000000D01*
X139250998Y-108148985D01*
X139294454Y-108292246D01*
X139365026Y-108424276D01*
X139436201Y-108511002D01*
X139460000Y-108540001D01*
X139488998Y-108563799D01*
X146486201Y-115561003D01*
X146509999Y-115590001D01*
X146538997Y-115613799D01*
X146625724Y-115684974D01*
X146757753Y-115755546D01*
X146784370Y-115763620D01*
X146893750Y-115873000D01*
X146975859Y-115873000D01*
X147015506Y-115905537D01*
X147125820Y-115964502D01*
X147245518Y-116000812D01*
X147250591Y-116001312D01*
X147184777Y-116014403D01*
X147069215Y-116062270D01*
X146972339Y-116127000D01*
X146893750Y-116127000D01*
X146735000Y-116285750D01*
X146735000Y-116387542D01*
X146752397Y-116475000D01*
X146735000Y-116562458D01*
X146735000Y-116664250D01*
X146893750Y-116823000D01*
X146972339Y-116823000D01*
X147069215Y-116887730D01*
X147184777Y-116935597D01*
X147307458Y-116960000D01*
X147614250Y-116960000D01*
X147751250Y-116823000D01*
X147773000Y-116823000D01*
X147773000Y-116803000D01*
X148027000Y-116803000D01*
X148027000Y-116823000D01*
X148047000Y-116823000D01*
X148047000Y-117077000D01*
X148027000Y-117077000D01*
X148027000Y-117751250D01*
X148185750Y-117910000D01*
X148492542Y-117910000D01*
X148615223Y-117885597D01*
X148730785Y-117837730D01*
X148834789Y-117768237D01*
X148923237Y-117679789D01*
X148992730Y-117575785D01*
X149000599Y-117556786D01*
X149039463Y-117629494D01*
X149118815Y-117726185D01*
X149215506Y-117805537D01*
X149325820Y-117864502D01*
X149445518Y-117900812D01*
X149570000Y-117913072D01*
X150193271Y-117913072D01*
X150556047Y-118275848D01*
X150557023Y-118285757D01*
X150601726Y-118433125D01*
X150674321Y-118568940D01*
X150772017Y-118687983D01*
X150891060Y-118785679D01*
X151026875Y-118858274D01*
X151174243Y-118902977D01*
X151184151Y-118903953D01*
X152791201Y-120511003D01*
X152814999Y-120540001D01*
X152930724Y-120634974D01*
X153062753Y-120705546D01*
X153206014Y-120749003D01*
X153317667Y-120760000D01*
X153317676Y-120760000D01*
X153354999Y-120763676D01*
X153392322Y-120760000D01*
X169962678Y-120760000D01*
X170000000Y-120763676D01*
X170037322Y-120760000D01*
X170037333Y-120760000D01*
X170148986Y-120749003D01*
X170292247Y-120705546D01*
X170424276Y-120634974D01*
X170540001Y-120540001D01*
X170563804Y-120510997D01*
X180621004Y-110453798D01*
X180650001Y-110430001D01*
X180676332Y-110397917D01*
X180744974Y-110314277D01*
X180815546Y-110182247D01*
X180815546Y-110182246D01*
X180859003Y-110038986D01*
X180870000Y-109927333D01*
X180870000Y-109927324D01*
X180873676Y-109890001D01*
X180870000Y-109852678D01*
X180870000Y-105834469D01*
X180902977Y-105725757D01*
X180918072Y-105572500D01*
X180918072Y-105227500D01*
X180902977Y-105074243D01*
X180870000Y-104965531D01*
X180870000Y-104863072D01*
X181630000Y-104863072D01*
X181754482Y-104850812D01*
X181874180Y-104814502D01*
X181984494Y-104755537D01*
X182081185Y-104676185D01*
X182128189Y-104618911D01*
X182172247Y-104605546D01*
X182304276Y-104534974D01*
X182420001Y-104440001D01*
X182443802Y-104411000D01*
X182466002Y-104388800D01*
X182495002Y-104365000D01*
X182589975Y-104249275D01*
X182660547Y-104117246D01*
X182704004Y-103973985D01*
X182715001Y-103862332D01*
X182715001Y-103862322D01*
X182718677Y-103825000D01*
X182715001Y-103787677D01*
X182715001Y-91734415D01*
X182718678Y-91697082D01*
X182704004Y-91548096D01*
X182660547Y-91404835D01*
X182589975Y-91272806D01*
X182518800Y-91186079D01*
X182495002Y-91157081D01*
X182466005Y-91133284D01*
X171154900Y-79822179D01*
X172814154Y-79822179D01*
X172814154Y-80262435D01*
X172900044Y-80694232D01*
X173068523Y-81100976D01*
X173313116Y-81467036D01*
X173624425Y-81778345D01*
X173990485Y-82022938D01*
X174397229Y-82191417D01*
X174829026Y-82277307D01*
X175269282Y-82277307D01*
X175701079Y-82191417D01*
X176107823Y-82022938D01*
X176473883Y-81778345D01*
X176785192Y-81467036D01*
X177029785Y-81100976D01*
X177198264Y-80694232D01*
X177284154Y-80262435D01*
X177284154Y-79822179D01*
X177198264Y-79390382D01*
X177029785Y-78983638D01*
X176785192Y-78617578D01*
X176473883Y-78306269D01*
X176107823Y-78061676D01*
X175701079Y-77893197D01*
X175269282Y-77807307D01*
X174829026Y-77807307D01*
X174397229Y-77893197D01*
X173990485Y-78061676D01*
X173624425Y-78306269D01*
X173313116Y-78617578D01*
X173068523Y-78983638D01*
X172900044Y-79390382D01*
X172814154Y-79822179D01*
X171154900Y-79822179D01*
X167445226Y-76112506D01*
X167515134Y-76055134D01*
X167537856Y-76027447D01*
X167539403Y-76035223D01*
X167587270Y-76150785D01*
X167656763Y-76254789D01*
X167745211Y-76343237D01*
X167849215Y-76412730D01*
X167964777Y-76460597D01*
X168087458Y-76485000D01*
X168714250Y-76485000D01*
X168873000Y-76326250D01*
X168873000Y-75127000D01*
X169127000Y-75127000D01*
X169127000Y-76326250D01*
X169285750Y-76485000D01*
X169912542Y-76485000D01*
X170035223Y-76460597D01*
X170150785Y-76412730D01*
X170254789Y-76343237D01*
X170343237Y-76254789D01*
X170412730Y-76150785D01*
X170460597Y-76035223D01*
X170485000Y-75912542D01*
X170485000Y-75285750D01*
X170326250Y-75127000D01*
X169127000Y-75127000D01*
X168873000Y-75127000D01*
X168853000Y-75127000D01*
X168853000Y-74873000D01*
X168873000Y-74873000D01*
X168873000Y-74853000D01*
X169127000Y-74853000D01*
X169127000Y-74873000D01*
X170326250Y-74873000D01*
X170485000Y-74714250D01*
X170485000Y-74389388D01*
X172334750Y-75187931D01*
G36*
X179027000Y-103773000D02*
X179047000Y-103773000D01*
X179047000Y-104027000D01*
X179027000Y-104027000D01*
X179027000Y-104701250D01*
X179142000Y-104816250D01*
X179142000Y-104870237D01*
X179111726Y-104926875D01*
X179067023Y-105074243D01*
X179051928Y-105227500D01*
X179051928Y-105572500D01*
X179067023Y-105725757D01*
X179111726Y-105873125D01*
X179142000Y-105929763D01*
X179142000Y-106196250D01*
X179300750Y-106355000D01*
X179350001Y-106355000D01*
X179350000Y-109575198D01*
X169685199Y-119240000D01*
X153669802Y-119240000D01*
X152458072Y-118028270D01*
X152458072Y-117837500D01*
X152442977Y-117684243D01*
X152404645Y-117557877D01*
X152430597Y-117495223D01*
X152455000Y-117372542D01*
X152455000Y-117300750D01*
X152296250Y-117142000D01*
X152029763Y-117142000D01*
X151973125Y-117111726D01*
X151825757Y-117067023D01*
X151672500Y-117051928D01*
X151481729Y-117051928D01*
X151353000Y-116923199D01*
X151353000Y-116888000D01*
X151373000Y-116888000D01*
X151373000Y-116243750D01*
X151627000Y-116243750D01*
X151627000Y-116888000D01*
X152296250Y-116888000D01*
X152455000Y-116729250D01*
X152455000Y-116657458D01*
X152430597Y-116534777D01*
X152382730Y-116419215D01*
X152313237Y-116315211D01*
X152224789Y-116226763D01*
X152120785Y-116157270D01*
X152005223Y-116109403D01*
X151882542Y-116085000D01*
X151785750Y-116085000D01*
X151627000Y-116243750D01*
X151373000Y-116243750D01*
X151214250Y-116085000D01*
X151117458Y-116085000D01*
X151001153Y-116108135D01*
X150984494Y-116094463D01*
X150874180Y-116035498D01*
X150757159Y-116000000D01*
X150874180Y-115964502D01*
X150984494Y-115905537D01*
X151024141Y-115873000D01*
X151106250Y-115873000D01*
X151265000Y-115714250D01*
X151265000Y-115612458D01*
X151247789Y-115525931D01*
X151255812Y-115499482D01*
X151264062Y-115415717D01*
X152762936Y-116221091D01*
X154353279Y-116887977D01*
X156000218Y-117399365D01*
X157688590Y-117750547D01*
X159402847Y-117938289D01*
X161127207Y-117960862D01*
X162845792Y-117818059D01*
X164542778Y-117511194D01*
X166202539Y-117043093D01*
X167809794Y-116418065D01*
X169349743Y-115641867D01*
X170808207Y-114721645D01*
X172171757Y-113665872D01*
X173427838Y-112484268D01*
X174564885Y-111187715D01*
X175572428Y-109788149D01*
X176441190Y-108298458D01*
X177163172Y-106732359D01*
X177528664Y-105685750D01*
X178085000Y-105685750D01*
X178085000Y-105782542D01*
X178109403Y-105905223D01*
X178157270Y-106020785D01*
X178226763Y-106124789D01*
X178315211Y-106213237D01*
X178419215Y-106282730D01*
X178534777Y-106330597D01*
X178657458Y-106355000D01*
X178729250Y-106355000D01*
X178888000Y-106196250D01*
X178888000Y-105527000D01*
X178243750Y-105527000D01*
X178085000Y-105685750D01*
X177528664Y-105685750D01*
X177731726Y-105104270D01*
X177855586Y-104598095D01*
X177876763Y-104629789D01*
X177965211Y-104718237D01*
X178069215Y-104787730D01*
X178141364Y-104817615D01*
X178109403Y-104894777D01*
X178085000Y-105017458D01*
X178085000Y-105114250D01*
X178243750Y-105273000D01*
X178888000Y-105273000D01*
X178888000Y-104603750D01*
X178773000Y-104488750D01*
X178773000Y-104027000D01*
X178753000Y-104027000D01*
X178753000Y-103773000D01*
X178773000Y-103773000D01*
X178773000Y-103753000D01*
X179027000Y-103753000D01*
X179027000Y-103773000D01*
X179027000Y-103773000D01*
G37*
X179027000Y-103773000D02*
X179047000Y-103773000D01*
X179047000Y-104027000D01*
X179027000Y-104027000D01*
X179027000Y-104701250D01*
X179142000Y-104816250D01*
X179142000Y-104870237D01*
X179111726Y-104926875D01*
X179067023Y-105074243D01*
X179051928Y-105227500D01*
X179051928Y-105572500D01*
X179067023Y-105725757D01*
X179111726Y-105873125D01*
X179142000Y-105929763D01*
X179142000Y-106196250D01*
X179300750Y-106355000D01*
X179350001Y-106355000D01*
X179350000Y-109575198D01*
X169685199Y-119240000D01*
X153669802Y-119240000D01*
X152458072Y-118028270D01*
X152458072Y-117837500D01*
X152442977Y-117684243D01*
X152404645Y-117557877D01*
X152430597Y-117495223D01*
X152455000Y-117372542D01*
X152455000Y-117300750D01*
X152296250Y-117142000D01*
X152029763Y-117142000D01*
X151973125Y-117111726D01*
X151825757Y-117067023D01*
X151672500Y-117051928D01*
X151481729Y-117051928D01*
X151353000Y-116923199D01*
X151353000Y-116888000D01*
X151373000Y-116888000D01*
X151373000Y-116243750D01*
X151627000Y-116243750D01*
X151627000Y-116888000D01*
X152296250Y-116888000D01*
X152455000Y-116729250D01*
X152455000Y-116657458D01*
X152430597Y-116534777D01*
X152382730Y-116419215D01*
X152313237Y-116315211D01*
X152224789Y-116226763D01*
X152120785Y-116157270D01*
X152005223Y-116109403D01*
X151882542Y-116085000D01*
X151785750Y-116085000D01*
X151627000Y-116243750D01*
X151373000Y-116243750D01*
X151214250Y-116085000D01*
X151117458Y-116085000D01*
X151001153Y-116108135D01*
X150984494Y-116094463D01*
X150874180Y-116035498D01*
X150757159Y-116000000D01*
X150874180Y-115964502D01*
X150984494Y-115905537D01*
X151024141Y-115873000D01*
X151106250Y-115873000D01*
X151265000Y-115714250D01*
X151265000Y-115612458D01*
X151247789Y-115525931D01*
X151255812Y-115499482D01*
X151264062Y-115415717D01*
X152762936Y-116221091D01*
X154353279Y-116887977D01*
X156000218Y-117399365D01*
X157688590Y-117750547D01*
X159402847Y-117938289D01*
X161127207Y-117960862D01*
X162845792Y-117818059D01*
X164542778Y-117511194D01*
X166202539Y-117043093D01*
X167809794Y-116418065D01*
X169349743Y-115641867D01*
X170808207Y-114721645D01*
X172171757Y-113665872D01*
X173427838Y-112484268D01*
X174564885Y-111187715D01*
X175572428Y-109788149D01*
X176441190Y-108298458D01*
X177163172Y-106732359D01*
X177528664Y-105685750D01*
X178085000Y-105685750D01*
X178085000Y-105782542D01*
X178109403Y-105905223D01*
X178157270Y-106020785D01*
X178226763Y-106124789D01*
X178315211Y-106213237D01*
X178419215Y-106282730D01*
X178534777Y-106330597D01*
X178657458Y-106355000D01*
X178729250Y-106355000D01*
X178888000Y-106196250D01*
X178888000Y-105527000D01*
X178243750Y-105527000D01*
X178085000Y-105685750D01*
X177528664Y-105685750D01*
X177731726Y-105104270D01*
X177855586Y-104598095D01*
X177876763Y-104629789D01*
X177965211Y-104718237D01*
X178069215Y-104787730D01*
X178141364Y-104817615D01*
X178109403Y-104894777D01*
X178085000Y-105017458D01*
X178085000Y-105114250D01*
X178243750Y-105273000D01*
X178888000Y-105273000D01*
X178888000Y-104603750D01*
X178773000Y-104488750D01*
X178773000Y-104027000D01*
X178753000Y-104027000D01*
X178753000Y-103773000D01*
X178773000Y-103773000D01*
X178773000Y-103753000D01*
X179027000Y-103753000D01*
X179027000Y-103773000D01*
G36*
X148048750Y-116127000D02*
X148027002Y-116127000D01*
X148027002Y-116013072D01*
X148162678Y-116013072D01*
X148048750Y-116127000D01*
X148048750Y-116127000D01*
G37*
X148048750Y-116127000D02*
X148027002Y-116127000D01*
X148027002Y-116013072D01*
X148162678Y-116013072D01*
X148048750Y-116127000D01*
G36*
X147772998Y-116127000D02*
X147751250Y-116127000D01*
X147637322Y-116013072D01*
X147772998Y-116013072D01*
X147772998Y-116127000D01*
X147772998Y-116127000D01*
G37*
X147772998Y-116127000D02*
X147751250Y-116127000D01*
X147637322Y-116013072D01*
X147772998Y-116013072D01*
X147772998Y-116127000D01*
G36*
X150735000Y-82387542D02*
X150752397Y-82475000D01*
X150735000Y-82562458D01*
X150735000Y-82664250D01*
X150893750Y-82823000D01*
X150972339Y-82823000D01*
X151069215Y-82887730D01*
X151184777Y-82935597D01*
X151307458Y-82960000D01*
X151614250Y-82960000D01*
X151751250Y-82823000D01*
X151773000Y-82823000D01*
X151773000Y-82803000D01*
X152027000Y-82803000D01*
X152027000Y-82823000D01*
X152047000Y-82823000D01*
X152047000Y-83077000D01*
X152027000Y-83077000D01*
X152027000Y-83751250D01*
X152185750Y-83910000D01*
X152492542Y-83910000D01*
X152562685Y-83896048D01*
X152062746Y-84131834D01*
X150580693Y-85013562D01*
X149189974Y-86033280D01*
X147903392Y-87181598D01*
X146732795Y-88447943D01*
X145688961Y-89820655D01*
X144781501Y-91287094D01*
X144018771Y-92833757D01*
X143407793Y-94446405D01*
X142954194Y-96110188D01*
X142662149Y-97809787D01*
X142534348Y-99529553D01*
X142571968Y-101253650D01*
X142774663Y-102966204D01*
X143140565Y-104651447D01*
X143666305Y-106293861D01*
X144347044Y-107878323D01*
X145176513Y-109390245D01*
X146147074Y-110815705D01*
X147249792Y-112141579D01*
X148357840Y-113240000D01*
X147314802Y-113240000D01*
X141210010Y-107135209D01*
X141210010Y-91864791D01*
X149839051Y-83235750D01*
X150735000Y-83235750D01*
X150735000Y-83337542D01*
X150759403Y-83460223D01*
X150807270Y-83575785D01*
X150876763Y-83679789D01*
X150965211Y-83768237D01*
X151069215Y-83837730D01*
X151184777Y-83885597D01*
X151307458Y-83910000D01*
X151614250Y-83910000D01*
X151773000Y-83751250D01*
X151773000Y-83077000D01*
X150893750Y-83077000D01*
X150735000Y-83235750D01*
X149839051Y-83235750D01*
X150611004Y-82463798D01*
X150640001Y-82440001D01*
X150734974Y-82324276D01*
X150735000Y-82324227D01*
X150735000Y-82387542D01*
X150735000Y-82387542D01*
G37*
X150735000Y-82387542D02*
X150752397Y-82475000D01*
X150735000Y-82562458D01*
X150735000Y-82664250D01*
X150893750Y-82823000D01*
X150972339Y-82823000D01*
X151069215Y-82887730D01*
X151184777Y-82935597D01*
X151307458Y-82960000D01*
X151614250Y-82960000D01*
X151751250Y-82823000D01*
X151773000Y-82823000D01*
X151773000Y-82803000D01*
X152027000Y-82803000D01*
X152027000Y-82823000D01*
X152047000Y-82823000D01*
X152047000Y-83077000D01*
X152027000Y-83077000D01*
X152027000Y-83751250D01*
X152185750Y-83910000D01*
X152492542Y-83910000D01*
X152562685Y-83896048D01*
X152062746Y-84131834D01*
X150580693Y-85013562D01*
X149189974Y-86033280D01*
X147903392Y-87181598D01*
X146732795Y-88447943D01*
X145688961Y-89820655D01*
X144781501Y-91287094D01*
X144018771Y-92833757D01*
X143407793Y-94446405D01*
X142954194Y-96110188D01*
X142662149Y-97809787D01*
X142534348Y-99529553D01*
X142571968Y-101253650D01*
X142774663Y-102966204D01*
X143140565Y-104651447D01*
X143666305Y-106293861D01*
X144347044Y-107878323D01*
X145176513Y-109390245D01*
X146147074Y-110815705D01*
X147249792Y-112141579D01*
X148357840Y-113240000D01*
X147314802Y-113240000D01*
X141210010Y-107135209D01*
X141210010Y-91864791D01*
X149839051Y-83235750D01*
X150735000Y-83235750D01*
X150735000Y-83337542D01*
X150759403Y-83460223D01*
X150807270Y-83575785D01*
X150876763Y-83679789D01*
X150965211Y-83768237D01*
X151069215Y-83837730D01*
X151184777Y-83885597D01*
X151307458Y-83910000D01*
X151614250Y-83910000D01*
X151773000Y-83751250D01*
X151773000Y-83077000D01*
X150893750Y-83077000D01*
X150735000Y-83235750D01*
X149839051Y-83235750D01*
X150611004Y-82463798D01*
X150640001Y-82440001D01*
X150734974Y-82324276D01*
X150735000Y-82324227D01*
X150735000Y-82387542D01*
G36*
X180093750Y-102823000D02*
X180175859Y-102823000D01*
X180215506Y-102855537D01*
X180325820Y-102914502D01*
X180442841Y-102950000D01*
X180325820Y-102985498D01*
X180215506Y-103044463D01*
X180175859Y-103077000D01*
X180093750Y-103077000D01*
X180000000Y-103170750D01*
X179906250Y-103077000D01*
X179827661Y-103077000D01*
X179730785Y-103012270D01*
X179615223Y-102964403D01*
X179549409Y-102951312D01*
X179554482Y-102950812D01*
X179674180Y-102914502D01*
X179784494Y-102855537D01*
X179824141Y-102823000D01*
X179906250Y-102823000D01*
X180000000Y-102729250D01*
X180093750Y-102823000D01*
X180093750Y-102823000D01*
G37*
X180093750Y-102823000D02*
X180175859Y-102823000D01*
X180215506Y-102855537D01*
X180325820Y-102914502D01*
X180442841Y-102950000D01*
X180325820Y-102985498D01*
X180215506Y-103044463D01*
X180175859Y-103077000D01*
X180093750Y-103077000D01*
X180000000Y-103170750D01*
X179906250Y-103077000D01*
X179827661Y-103077000D01*
X179730785Y-103012270D01*
X179615223Y-102964403D01*
X179549409Y-102951312D01*
X179554482Y-102950812D01*
X179674180Y-102914502D01*
X179784494Y-102855537D01*
X179824141Y-102823000D01*
X179906250Y-102823000D01*
X180000000Y-102729250D01*
X180093750Y-102823000D01*
G36*
X179048750Y-103077000D02*
X179027002Y-103077000D01*
X179027002Y-102963072D01*
X179162678Y-102963072D01*
X179048750Y-103077000D01*
X179048750Y-103077000D01*
G37*
X179048750Y-103077000D02*
X179027002Y-103077000D01*
X179027002Y-102963072D01*
X179162678Y-102963072D01*
X179048750Y-103077000D01*
G36*
X178772998Y-103077000D02*
X178753000Y-103077000D01*
X178753000Y-102963072D01*
X178772998Y-102963072D01*
X178772998Y-103077000D01*
X178772998Y-103077000D01*
G37*
X178772998Y-103077000D02*
X178753000Y-103077000D01*
X178753000Y-102963072D01*
X178772998Y-102963072D01*
X178772998Y-103077000D01*
G36*
X152048750Y-82127000D02*
X152027002Y-82127000D01*
X152027002Y-82013072D01*
X152162678Y-82013072D01*
X152048750Y-82127000D01*
X152048750Y-82127000D01*
G37*
X152048750Y-82127000D02*
X152027002Y-82127000D01*
X152027002Y-82013072D01*
X152162678Y-82013072D01*
X152048750Y-82127000D01*
G36*
X151772998Y-82127000D02*
X151753000Y-82127000D01*
X151753000Y-82013072D01*
X151772998Y-82013072D01*
X151772998Y-82127000D01*
X151772998Y-82127000D01*
G37*
X151772998Y-82127000D02*
X151753000Y-82127000D01*
X151753000Y-82013072D01*
X151772998Y-82013072D01*
X151772998Y-82127000D01*
G36*
X160139294Y-75829014D02*
X160324866Y-76055134D01*
X160530942Y-76224256D01*
X156523952Y-80231247D01*
X156513237Y-80215211D01*
X156424789Y-80126763D01*
X156320785Y-80057270D01*
X156205223Y-80009403D01*
X156082542Y-79985000D01*
X155985750Y-79985000D01*
X155827000Y-80143750D01*
X155827000Y-80788000D01*
X155847000Y-80788000D01*
X155847000Y-80908199D01*
X155803271Y-80951928D01*
X155553000Y-80951928D01*
X155553000Y-80788000D01*
X155573000Y-80788000D01*
X155573000Y-80143750D01*
X155414250Y-79985000D01*
X155317458Y-79985000D01*
X155194777Y-80009403D01*
X155079215Y-80057270D01*
X154975211Y-80126763D01*
X154934327Y-80167647D01*
X154874180Y-80135498D01*
X154860000Y-80131197D01*
X154860000Y-80054801D01*
X158474005Y-76440797D01*
X158548889Y-76463513D01*
X158767050Y-76485000D01*
X158912950Y-76485000D01*
X159131111Y-76463513D01*
X159411034Y-76378599D01*
X159669014Y-76240706D01*
X159895134Y-76055134D01*
X160080706Y-75829014D01*
X160110000Y-75774209D01*
X160139294Y-75829014D01*
X160139294Y-75829014D01*
G37*
X160139294Y-75829014D02*
X160324866Y-76055134D01*
X160530942Y-76224256D01*
X156523952Y-80231247D01*
X156513237Y-80215211D01*
X156424789Y-80126763D01*
X156320785Y-80057270D01*
X156205223Y-80009403D01*
X156082542Y-79985000D01*
X155985750Y-79985000D01*
X155827000Y-80143750D01*
X155827000Y-80788000D01*
X155847000Y-80788000D01*
X155847000Y-80908199D01*
X155803271Y-80951928D01*
X155553000Y-80951928D01*
X155553000Y-80788000D01*
X155573000Y-80788000D01*
X155573000Y-80143750D01*
X155414250Y-79985000D01*
X155317458Y-79985000D01*
X155194777Y-80009403D01*
X155079215Y-80057270D01*
X154975211Y-80126763D01*
X154934327Y-80167647D01*
X154874180Y-80135498D01*
X154860000Y-80131197D01*
X154860000Y-80054801D01*
X158474005Y-76440797D01*
X158548889Y-76463513D01*
X158767050Y-76485000D01*
X158912950Y-76485000D01*
X159131111Y-76463513D01*
X159411034Y-76378599D01*
X159669014Y-76240706D01*
X159895134Y-76055134D01*
X160080706Y-75829014D01*
X160110000Y-75774209D01*
X160139294Y-75829014D01*
G04 #@! TD*
M02*
