G04 #@! TF.GenerationSoftware,KiCad,Pcbnew,5.0.2-bee76a0~70~ubuntu18.04.1*
G04 #@! TF.CreationDate,2019-08-19T12:56:06+02:00*
G04 #@! TF.ProjectId,roboy_3.0_40mm_ball_sensor,726f626f-795f-4332-9e30-5f34306d6d5f,rev?*
G04 #@! TF.SameCoordinates,Original*
G04 #@! TF.FileFunction,Paste,Top*
G04 #@! TF.FilePolarity,Positive*
%FSLAX46Y46*%
G04 Gerber Fmt 4.6, Leading zero omitted, Abs format (unit mm)*
G04 Created by KiCad (PCBNEW 5.0.2-bee76a0~70~ubuntu18.04.1) date Mo 19 Aug 2019 12:56:06 CEST*
%MOMM*%
%LPD*%
G01*
G04 APERTURE LIST*
%ADD10R,1.060000X0.650000*%
%ADD11C,0.100000*%
%ADD12C,0.590000*%
G04 APERTURE END LIST*
D10*
G04 #@! TO.C,U1*
X181100000Y-102950000D03*
X181100000Y-102000000D03*
X181100000Y-103900000D03*
X178900000Y-103900000D03*
X178900000Y-102950000D03*
X178900000Y-102000000D03*
G04 #@! TD*
G04 #@! TO.C,U2*
X151900000Y-81050000D03*
X151900000Y-82000000D03*
X151900000Y-82950000D03*
X154100000Y-82950000D03*
X154100000Y-81050000D03*
X154100000Y-82000000D03*
G04 #@! TD*
G04 #@! TO.C,U3*
X147900000Y-115050000D03*
X147900000Y-116000000D03*
X147900000Y-116950000D03*
X150100000Y-116950000D03*
X150100000Y-115050000D03*
X150100000Y-116000000D03*
G04 #@! TD*
D11*
G04 #@! TO.C,C1*
G36*
X180146958Y-105080710D02*
X180161276Y-105082834D01*
X180175317Y-105086351D01*
X180188946Y-105091228D01*
X180202031Y-105097417D01*
X180214447Y-105104858D01*
X180226073Y-105113481D01*
X180236798Y-105123202D01*
X180246519Y-105133927D01*
X180255142Y-105145553D01*
X180262583Y-105157969D01*
X180268772Y-105171054D01*
X180273649Y-105184683D01*
X180277166Y-105198724D01*
X180279290Y-105213042D01*
X180280000Y-105227500D01*
X180280000Y-105572500D01*
X180279290Y-105586958D01*
X180277166Y-105601276D01*
X180273649Y-105615317D01*
X180268772Y-105628946D01*
X180262583Y-105642031D01*
X180255142Y-105654447D01*
X180246519Y-105666073D01*
X180236798Y-105676798D01*
X180226073Y-105686519D01*
X180214447Y-105695142D01*
X180202031Y-105702583D01*
X180188946Y-105708772D01*
X180175317Y-105713649D01*
X180161276Y-105717166D01*
X180146958Y-105719290D01*
X180132500Y-105720000D01*
X179837500Y-105720000D01*
X179823042Y-105719290D01*
X179808724Y-105717166D01*
X179794683Y-105713649D01*
X179781054Y-105708772D01*
X179767969Y-105702583D01*
X179755553Y-105695142D01*
X179743927Y-105686519D01*
X179733202Y-105676798D01*
X179723481Y-105666073D01*
X179714858Y-105654447D01*
X179707417Y-105642031D01*
X179701228Y-105628946D01*
X179696351Y-105615317D01*
X179692834Y-105601276D01*
X179690710Y-105586958D01*
X179690000Y-105572500D01*
X179690000Y-105227500D01*
X179690710Y-105213042D01*
X179692834Y-105198724D01*
X179696351Y-105184683D01*
X179701228Y-105171054D01*
X179707417Y-105157969D01*
X179714858Y-105145553D01*
X179723481Y-105133927D01*
X179733202Y-105123202D01*
X179743927Y-105113481D01*
X179755553Y-105104858D01*
X179767969Y-105097417D01*
X179781054Y-105091228D01*
X179794683Y-105086351D01*
X179808724Y-105082834D01*
X179823042Y-105080710D01*
X179837500Y-105080000D01*
X180132500Y-105080000D01*
X180146958Y-105080710D01*
X180146958Y-105080710D01*
G37*
D12*
X179985000Y-105400000D03*
D11*
G36*
X179176958Y-105080710D02*
X179191276Y-105082834D01*
X179205317Y-105086351D01*
X179218946Y-105091228D01*
X179232031Y-105097417D01*
X179244447Y-105104858D01*
X179256073Y-105113481D01*
X179266798Y-105123202D01*
X179276519Y-105133927D01*
X179285142Y-105145553D01*
X179292583Y-105157969D01*
X179298772Y-105171054D01*
X179303649Y-105184683D01*
X179307166Y-105198724D01*
X179309290Y-105213042D01*
X179310000Y-105227500D01*
X179310000Y-105572500D01*
X179309290Y-105586958D01*
X179307166Y-105601276D01*
X179303649Y-105615317D01*
X179298772Y-105628946D01*
X179292583Y-105642031D01*
X179285142Y-105654447D01*
X179276519Y-105666073D01*
X179266798Y-105676798D01*
X179256073Y-105686519D01*
X179244447Y-105695142D01*
X179232031Y-105702583D01*
X179218946Y-105708772D01*
X179205317Y-105713649D01*
X179191276Y-105717166D01*
X179176958Y-105719290D01*
X179162500Y-105720000D01*
X178867500Y-105720000D01*
X178853042Y-105719290D01*
X178838724Y-105717166D01*
X178824683Y-105713649D01*
X178811054Y-105708772D01*
X178797969Y-105702583D01*
X178785553Y-105695142D01*
X178773927Y-105686519D01*
X178763202Y-105676798D01*
X178753481Y-105666073D01*
X178744858Y-105654447D01*
X178737417Y-105642031D01*
X178731228Y-105628946D01*
X178726351Y-105615317D01*
X178722834Y-105601276D01*
X178720710Y-105586958D01*
X178720000Y-105572500D01*
X178720000Y-105227500D01*
X178720710Y-105213042D01*
X178722834Y-105198724D01*
X178726351Y-105184683D01*
X178731228Y-105171054D01*
X178737417Y-105157969D01*
X178744858Y-105145553D01*
X178753481Y-105133927D01*
X178763202Y-105123202D01*
X178773927Y-105113481D01*
X178785553Y-105104858D01*
X178797969Y-105097417D01*
X178811054Y-105091228D01*
X178824683Y-105086351D01*
X178838724Y-105082834D01*
X178853042Y-105080710D01*
X178867500Y-105080000D01*
X179162500Y-105080000D01*
X179176958Y-105080710D01*
X179176958Y-105080710D01*
G37*
D12*
X179015000Y-105400000D03*
G04 #@! TD*
D11*
G04 #@! TO.C,C2*
G36*
X155886958Y-80620710D02*
X155901276Y-80622834D01*
X155915317Y-80626351D01*
X155928946Y-80631228D01*
X155942031Y-80637417D01*
X155954447Y-80644858D01*
X155966073Y-80653481D01*
X155976798Y-80663202D01*
X155986519Y-80673927D01*
X155995142Y-80685553D01*
X156002583Y-80697969D01*
X156008772Y-80711054D01*
X156013649Y-80724683D01*
X156017166Y-80738724D01*
X156019290Y-80753042D01*
X156020000Y-80767500D01*
X156020000Y-81062500D01*
X156019290Y-81076958D01*
X156017166Y-81091276D01*
X156013649Y-81105317D01*
X156008772Y-81118946D01*
X156002583Y-81132031D01*
X155995142Y-81144447D01*
X155986519Y-81156073D01*
X155976798Y-81166798D01*
X155966073Y-81176519D01*
X155954447Y-81185142D01*
X155942031Y-81192583D01*
X155928946Y-81198772D01*
X155915317Y-81203649D01*
X155901276Y-81207166D01*
X155886958Y-81209290D01*
X155872500Y-81210000D01*
X155527500Y-81210000D01*
X155513042Y-81209290D01*
X155498724Y-81207166D01*
X155484683Y-81203649D01*
X155471054Y-81198772D01*
X155457969Y-81192583D01*
X155445553Y-81185142D01*
X155433927Y-81176519D01*
X155423202Y-81166798D01*
X155413481Y-81156073D01*
X155404858Y-81144447D01*
X155397417Y-81132031D01*
X155391228Y-81118946D01*
X155386351Y-81105317D01*
X155382834Y-81091276D01*
X155380710Y-81076958D01*
X155380000Y-81062500D01*
X155380000Y-80767500D01*
X155380710Y-80753042D01*
X155382834Y-80738724D01*
X155386351Y-80724683D01*
X155391228Y-80711054D01*
X155397417Y-80697969D01*
X155404858Y-80685553D01*
X155413481Y-80673927D01*
X155423202Y-80663202D01*
X155433927Y-80653481D01*
X155445553Y-80644858D01*
X155457969Y-80637417D01*
X155471054Y-80631228D01*
X155484683Y-80626351D01*
X155498724Y-80622834D01*
X155513042Y-80620710D01*
X155527500Y-80620000D01*
X155872500Y-80620000D01*
X155886958Y-80620710D01*
X155886958Y-80620710D01*
G37*
D12*
X155700000Y-80915000D03*
D11*
G36*
X155886958Y-81590710D02*
X155901276Y-81592834D01*
X155915317Y-81596351D01*
X155928946Y-81601228D01*
X155942031Y-81607417D01*
X155954447Y-81614858D01*
X155966073Y-81623481D01*
X155976798Y-81633202D01*
X155986519Y-81643927D01*
X155995142Y-81655553D01*
X156002583Y-81667969D01*
X156008772Y-81681054D01*
X156013649Y-81694683D01*
X156017166Y-81708724D01*
X156019290Y-81723042D01*
X156020000Y-81737500D01*
X156020000Y-82032500D01*
X156019290Y-82046958D01*
X156017166Y-82061276D01*
X156013649Y-82075317D01*
X156008772Y-82088946D01*
X156002583Y-82102031D01*
X155995142Y-82114447D01*
X155986519Y-82126073D01*
X155976798Y-82136798D01*
X155966073Y-82146519D01*
X155954447Y-82155142D01*
X155942031Y-82162583D01*
X155928946Y-82168772D01*
X155915317Y-82173649D01*
X155901276Y-82177166D01*
X155886958Y-82179290D01*
X155872500Y-82180000D01*
X155527500Y-82180000D01*
X155513042Y-82179290D01*
X155498724Y-82177166D01*
X155484683Y-82173649D01*
X155471054Y-82168772D01*
X155457969Y-82162583D01*
X155445553Y-82155142D01*
X155433927Y-82146519D01*
X155423202Y-82136798D01*
X155413481Y-82126073D01*
X155404858Y-82114447D01*
X155397417Y-82102031D01*
X155391228Y-82088946D01*
X155386351Y-82075317D01*
X155382834Y-82061276D01*
X155380710Y-82046958D01*
X155380000Y-82032500D01*
X155380000Y-81737500D01*
X155380710Y-81723042D01*
X155382834Y-81708724D01*
X155386351Y-81694683D01*
X155391228Y-81681054D01*
X155397417Y-81667969D01*
X155404858Y-81655553D01*
X155413481Y-81643927D01*
X155423202Y-81633202D01*
X155433927Y-81623481D01*
X155445553Y-81614858D01*
X155457969Y-81607417D01*
X155471054Y-81601228D01*
X155484683Y-81596351D01*
X155498724Y-81592834D01*
X155513042Y-81590710D01*
X155527500Y-81590000D01*
X155872500Y-81590000D01*
X155886958Y-81590710D01*
X155886958Y-81590710D01*
G37*
D12*
X155700000Y-81885000D03*
G04 #@! TD*
D11*
G04 #@! TO.C,C3*
G36*
X151686958Y-117690710D02*
X151701276Y-117692834D01*
X151715317Y-117696351D01*
X151728946Y-117701228D01*
X151742031Y-117707417D01*
X151754447Y-117714858D01*
X151766073Y-117723481D01*
X151776798Y-117733202D01*
X151786519Y-117743927D01*
X151795142Y-117755553D01*
X151802583Y-117767969D01*
X151808772Y-117781054D01*
X151813649Y-117794683D01*
X151817166Y-117808724D01*
X151819290Y-117823042D01*
X151820000Y-117837500D01*
X151820000Y-118132500D01*
X151819290Y-118146958D01*
X151817166Y-118161276D01*
X151813649Y-118175317D01*
X151808772Y-118188946D01*
X151802583Y-118202031D01*
X151795142Y-118214447D01*
X151786519Y-118226073D01*
X151776798Y-118236798D01*
X151766073Y-118246519D01*
X151754447Y-118255142D01*
X151742031Y-118262583D01*
X151728946Y-118268772D01*
X151715317Y-118273649D01*
X151701276Y-118277166D01*
X151686958Y-118279290D01*
X151672500Y-118280000D01*
X151327500Y-118280000D01*
X151313042Y-118279290D01*
X151298724Y-118277166D01*
X151284683Y-118273649D01*
X151271054Y-118268772D01*
X151257969Y-118262583D01*
X151245553Y-118255142D01*
X151233927Y-118246519D01*
X151223202Y-118236798D01*
X151213481Y-118226073D01*
X151204858Y-118214447D01*
X151197417Y-118202031D01*
X151191228Y-118188946D01*
X151186351Y-118175317D01*
X151182834Y-118161276D01*
X151180710Y-118146958D01*
X151180000Y-118132500D01*
X151180000Y-117837500D01*
X151180710Y-117823042D01*
X151182834Y-117808724D01*
X151186351Y-117794683D01*
X151191228Y-117781054D01*
X151197417Y-117767969D01*
X151204858Y-117755553D01*
X151213481Y-117743927D01*
X151223202Y-117733202D01*
X151233927Y-117723481D01*
X151245553Y-117714858D01*
X151257969Y-117707417D01*
X151271054Y-117701228D01*
X151284683Y-117696351D01*
X151298724Y-117692834D01*
X151313042Y-117690710D01*
X151327500Y-117690000D01*
X151672500Y-117690000D01*
X151686958Y-117690710D01*
X151686958Y-117690710D01*
G37*
D12*
X151500000Y-117985000D03*
D11*
G36*
X151686958Y-116720710D02*
X151701276Y-116722834D01*
X151715317Y-116726351D01*
X151728946Y-116731228D01*
X151742031Y-116737417D01*
X151754447Y-116744858D01*
X151766073Y-116753481D01*
X151776798Y-116763202D01*
X151786519Y-116773927D01*
X151795142Y-116785553D01*
X151802583Y-116797969D01*
X151808772Y-116811054D01*
X151813649Y-116824683D01*
X151817166Y-116838724D01*
X151819290Y-116853042D01*
X151820000Y-116867500D01*
X151820000Y-117162500D01*
X151819290Y-117176958D01*
X151817166Y-117191276D01*
X151813649Y-117205317D01*
X151808772Y-117218946D01*
X151802583Y-117232031D01*
X151795142Y-117244447D01*
X151786519Y-117256073D01*
X151776798Y-117266798D01*
X151766073Y-117276519D01*
X151754447Y-117285142D01*
X151742031Y-117292583D01*
X151728946Y-117298772D01*
X151715317Y-117303649D01*
X151701276Y-117307166D01*
X151686958Y-117309290D01*
X151672500Y-117310000D01*
X151327500Y-117310000D01*
X151313042Y-117309290D01*
X151298724Y-117307166D01*
X151284683Y-117303649D01*
X151271054Y-117298772D01*
X151257969Y-117292583D01*
X151245553Y-117285142D01*
X151233927Y-117276519D01*
X151223202Y-117266798D01*
X151213481Y-117256073D01*
X151204858Y-117244447D01*
X151197417Y-117232031D01*
X151191228Y-117218946D01*
X151186351Y-117205317D01*
X151182834Y-117191276D01*
X151180710Y-117176958D01*
X151180000Y-117162500D01*
X151180000Y-116867500D01*
X151180710Y-116853042D01*
X151182834Y-116838724D01*
X151186351Y-116824683D01*
X151191228Y-116811054D01*
X151197417Y-116797969D01*
X151204858Y-116785553D01*
X151213481Y-116773927D01*
X151223202Y-116763202D01*
X151233927Y-116753481D01*
X151245553Y-116744858D01*
X151257969Y-116737417D01*
X151271054Y-116731228D01*
X151284683Y-116726351D01*
X151298724Y-116722834D01*
X151313042Y-116720710D01*
X151327500Y-116720000D01*
X151672500Y-116720000D01*
X151686958Y-116720710D01*
X151686958Y-116720710D01*
G37*
D12*
X151500000Y-117015000D03*
G04 #@! TD*
M02*
