G04 #@! TF.GenerationSoftware,KiCad,Pcbnew,5.1.2-f72e74a~84~ubuntu18.04.1*
G04 #@! TF.CreationDate,2019-09-23T03:00:40+02:00*
G04 #@! TF.ProjectId,roboy_3.0_40mm_ball_sensor,726f626f-795f-4332-9e30-5f34306d6d5f,rev?*
G04 #@! TF.SameCoordinates,Original*
G04 #@! TF.FileFunction,Soldermask,Top*
G04 #@! TF.FilePolarity,Negative*
%FSLAX46Y46*%
G04 Gerber Fmt 4.6, Leading zero omitted, Abs format (unit mm)*
G04 Created by KiCad (PCBNEW 5.1.2-f72e74a~84~ubuntu18.04.1) date 2019-09-23 03:00:40*
%MOMM*%
%LPD*%
G04 APERTURE LIST*
%ADD10C,0.010000*%
%ADD11C,0.060000*%
%ADD12C,0.100000*%
G04 APERTURE END LIST*
D10*
G36*
X180111411Y-82247658D02*
G01*
X180160303Y-82249034D01*
X180201791Y-82251227D01*
X180204248Y-82251404D01*
X180370730Y-82268617D01*
X180534856Y-82295619D01*
X180696263Y-82332236D01*
X180854589Y-82378297D01*
X181009470Y-82433628D01*
X181160545Y-82498056D01*
X181307451Y-82571410D01*
X181449824Y-82653515D01*
X181587304Y-82744199D01*
X181719526Y-82843290D01*
X181846128Y-82950614D01*
X181966748Y-83065999D01*
X182011488Y-83112506D01*
X182122388Y-83237802D01*
X182224852Y-83368680D01*
X182318766Y-83504894D01*
X182404014Y-83646197D01*
X182480485Y-83792344D01*
X182548064Y-83943091D01*
X182606637Y-84098190D01*
X182656090Y-84257396D01*
X182696310Y-84420465D01*
X182727184Y-84587149D01*
X182741027Y-84687580D01*
X182743688Y-84715614D01*
X182746056Y-84752158D01*
X182748107Y-84795565D01*
X182749818Y-84844188D01*
X182751168Y-84896379D01*
X182752131Y-84950493D01*
X182752687Y-85004881D01*
X182752810Y-85057898D01*
X182752479Y-85107897D01*
X182751671Y-85153229D01*
X182750362Y-85192250D01*
X182748529Y-85223311D01*
X182748521Y-85223409D01*
X182730425Y-85387738D01*
X182702523Y-85549947D01*
X182665024Y-85709636D01*
X182618137Y-85866405D01*
X182562068Y-86019853D01*
X182497026Y-86169580D01*
X182423220Y-86315186D01*
X182340858Y-86456271D01*
X182250147Y-86592433D01*
X182151295Y-86723273D01*
X182044512Y-86848391D01*
X181930005Y-86967385D01*
X181807982Y-87079856D01*
X181763827Y-87117365D01*
X181632339Y-87220164D01*
X181495556Y-87314370D01*
X181353820Y-87399844D01*
X181207475Y-87476444D01*
X181056863Y-87544030D01*
X180902328Y-87602462D01*
X180744213Y-87651599D01*
X180582861Y-87691300D01*
X180418615Y-87721425D01*
X180251818Y-87741834D01*
X180236220Y-87743230D01*
X180204605Y-87745421D01*
X180165273Y-87747283D01*
X180120337Y-87748791D01*
X180071909Y-87749916D01*
X180022102Y-87750634D01*
X179973029Y-87750917D01*
X179926802Y-87750740D01*
X179885534Y-87750076D01*
X179851338Y-87748899D01*
X179838694Y-87748187D01*
X179669062Y-87732042D01*
X179502378Y-87706308D01*
X179338908Y-87671099D01*
X179178916Y-87626529D01*
X179022667Y-87572712D01*
X178870427Y-87509763D01*
X178722461Y-87437796D01*
X178579033Y-87356925D01*
X178440408Y-87267265D01*
X178306852Y-87168929D01*
X178178630Y-87062031D01*
X178117269Y-87006036D01*
X177998879Y-86887867D01*
X177888479Y-86763571D01*
X177786241Y-86633510D01*
X177692338Y-86498048D01*
X177606943Y-86357546D01*
X177530229Y-86212369D01*
X177462370Y-86062880D01*
X177403537Y-85909441D01*
X177353904Y-85752416D01*
X177313644Y-85592168D01*
X177282930Y-85429060D01*
X177261935Y-85263454D01*
X177256484Y-85199168D01*
X177254235Y-85158243D01*
X177252806Y-85109784D01*
X177252158Y-85055741D01*
X177252254Y-84998065D01*
X177252845Y-84954280D01*
X178935866Y-84954280D01*
X178936087Y-85014867D01*
X178936800Y-85067255D01*
X178938154Y-85113398D01*
X178940296Y-85155249D01*
X178943376Y-85194763D01*
X178947541Y-85233895D01*
X178952939Y-85274598D01*
X178959719Y-85318827D01*
X178966683Y-85360680D01*
X178991321Y-85485767D01*
X179023172Y-85615784D01*
X179061644Y-85749155D01*
X179106146Y-85884306D01*
X179156085Y-86019660D01*
X179210869Y-86153644D01*
X179269907Y-86284683D01*
X179332605Y-86411201D01*
X179398373Y-86531623D01*
X179422138Y-86572260D01*
X179447850Y-86614150D01*
X179472392Y-86651070D01*
X179497458Y-86685163D01*
X179524739Y-86718577D01*
X179555927Y-86753455D01*
X179592714Y-86791944D01*
X179606237Y-86805668D01*
X179674539Y-86872063D01*
X179740032Y-86930339D01*
X179804180Y-86981594D01*
X179868445Y-87026927D01*
X179934292Y-87067436D01*
X180003183Y-87104220D01*
X180005625Y-87105432D01*
X180072865Y-87136631D01*
X180140523Y-87163591D01*
X180209818Y-87186574D01*
X180281972Y-87205841D01*
X180358208Y-87221653D01*
X180439746Y-87234271D01*
X180527807Y-87243955D01*
X180623614Y-87250968D01*
X180704301Y-87254743D01*
X180718468Y-87254065D01*
X180739174Y-87251605D01*
X180763042Y-87247805D01*
X180776346Y-87245295D01*
X180882126Y-87218969D01*
X180986227Y-87182724D01*
X181088740Y-87136520D01*
X181189759Y-87080316D01*
X181268715Y-87028715D01*
X181304948Y-87002443D01*
X181345856Y-86971048D01*
X181390005Y-86935764D01*
X181435964Y-86897826D01*
X181482299Y-86858467D01*
X181527577Y-86818921D01*
X181570365Y-86780423D01*
X181609230Y-86744207D01*
X181642740Y-86711506D01*
X181669357Y-86683669D01*
X181719078Y-86626571D01*
X181768026Y-86565833D01*
X181815342Y-86502772D01*
X181860168Y-86438702D01*
X181901646Y-86374939D01*
X181938916Y-86312800D01*
X181971120Y-86253600D01*
X181997399Y-86198654D01*
X182015547Y-86153160D01*
X182027166Y-86116683D01*
X182033669Y-86086920D01*
X182035291Y-86061946D01*
X182032266Y-86039838D01*
X182030229Y-86032655D01*
X182021899Y-85999183D01*
X182015174Y-85955850D01*
X182010045Y-85902582D01*
X182008557Y-85880480D01*
X182006914Y-85857285D01*
X182005091Y-85837827D01*
X182003327Y-85824354D01*
X182002048Y-85819279D01*
X181995985Y-85815091D01*
X181983461Y-85808816D01*
X181971213Y-85803494D01*
X181935191Y-85785805D01*
X181905050Y-85764111D01*
X181880055Y-85737333D01*
X181859472Y-85704396D01*
X181842567Y-85664221D01*
X181828606Y-85615733D01*
X181821731Y-85584200D01*
X181813109Y-85529984D01*
X181806872Y-85467299D01*
X181803003Y-85397547D01*
X181801488Y-85322131D01*
X181802310Y-85242453D01*
X181805454Y-85159917D01*
X181810904Y-85075924D01*
X181818644Y-84991878D01*
X181828658Y-84909181D01*
X181829391Y-84903857D01*
X181837683Y-84852621D01*
X181848851Y-84798523D01*
X181863299Y-84739881D01*
X181881436Y-84675012D01*
X181897507Y-84621894D01*
X181908001Y-84586596D01*
X181914749Y-84560223D01*
X181917856Y-84542298D01*
X181917630Y-84532994D01*
X181916992Y-84525817D01*
X181916273Y-84509339D01*
X181915490Y-84484422D01*
X181914662Y-84451926D01*
X181913807Y-84412708D01*
X181912943Y-84367631D01*
X181912087Y-84317553D01*
X181911258Y-84263335D01*
X181910474Y-84205836D01*
X181910024Y-84169420D01*
X181909099Y-84094866D01*
X181908178Y-84029436D01*
X181907209Y-83972094D01*
X181906143Y-83921802D01*
X181904928Y-83877525D01*
X181903514Y-83838228D01*
X181901851Y-83802872D01*
X181899886Y-83770422D01*
X181897570Y-83739843D01*
X181894853Y-83710097D01*
X181891682Y-83680148D01*
X181888009Y-83648961D01*
X181883781Y-83615498D01*
X181882415Y-83604995D01*
X181873450Y-83542533D01*
X181862637Y-83477182D01*
X181850663Y-83412772D01*
X181838216Y-83353131D01*
X181833201Y-83331220D01*
X181827194Y-83305740D01*
X181821859Y-83283078D01*
X181817719Y-83265465D01*
X181815300Y-83255135D01*
X181815099Y-83254273D01*
X181809514Y-83244596D01*
X181796770Y-83230140D01*
X181778059Y-83211912D01*
X181754573Y-83190920D01*
X181727505Y-83168170D01*
X181698047Y-83144671D01*
X181667391Y-83121430D01*
X181636729Y-83099454D01*
X181612900Y-83083398D01*
X181519663Y-83028561D01*
X181420366Y-82981665D01*
X181314885Y-82942665D01*
X181203099Y-82911515D01*
X181084885Y-82888173D01*
X181074420Y-82886529D01*
X181029797Y-82880994D01*
X180977546Y-82876733D01*
X180920123Y-82873789D01*
X180859984Y-82872208D01*
X180799587Y-82872036D01*
X180741389Y-82873316D01*
X180687846Y-82876094D01*
X180655320Y-82878864D01*
X180518305Y-82896876D01*
X180386889Y-82922248D01*
X180261374Y-82954863D01*
X180142065Y-82994607D01*
X180029262Y-83041362D01*
X179923270Y-83095014D01*
X179824391Y-83155447D01*
X179732928Y-83222544D01*
X179712307Y-83239465D01*
X179679118Y-83268484D01*
X179646726Y-83299428D01*
X179613635Y-83333870D01*
X179578349Y-83373378D01*
X179539372Y-83419524D01*
X179530517Y-83430280D01*
X179426906Y-83562732D01*
X179333379Y-83695187D01*
X179249858Y-83827797D01*
X179176268Y-83960716D01*
X179112533Y-84094098D01*
X179058577Y-84228098D01*
X179014324Y-84362867D01*
X178979697Y-84498561D01*
X178964339Y-84575820D01*
X178956862Y-84618964D01*
X178950787Y-84657561D01*
X178945975Y-84693452D01*
X178942287Y-84728477D01*
X178939585Y-84764477D01*
X178937730Y-84803291D01*
X178936585Y-84846762D01*
X178936009Y-84896729D01*
X178935866Y-84954280D01*
X177252845Y-84954280D01*
X177253056Y-84938704D01*
X177254526Y-84879611D01*
X177256624Y-84822735D01*
X177259314Y-84770027D01*
X177262556Y-84723437D01*
X177266314Y-84684915D01*
X177266582Y-84682680D01*
X177292056Y-84513148D01*
X177326728Y-84347926D01*
X177370629Y-84186938D01*
X177423792Y-84030112D01*
X177486249Y-83877374D01*
X177558030Y-83728650D01*
X177639169Y-83583866D01*
X177729697Y-83442948D01*
X177829646Y-83305822D01*
X177897157Y-83221718D01*
X177922254Y-83192734D01*
X177953460Y-83158564D01*
X177989254Y-83120728D01*
X178028116Y-83080747D01*
X178068523Y-83040143D01*
X178108955Y-83000438D01*
X178147890Y-82963151D01*
X178183808Y-82929805D01*
X178215186Y-82901920D01*
X178226798Y-82892077D01*
X178343126Y-82799763D01*
X178460135Y-82716075D01*
X178579986Y-82639586D01*
X178704836Y-82568870D01*
X178757940Y-82541230D01*
X178903201Y-82472517D01*
X179050453Y-82413076D01*
X179200545Y-82362650D01*
X179354324Y-82320984D01*
X179512640Y-82287823D01*
X179676342Y-82262911D01*
X179687760Y-82261502D01*
X179725674Y-82257711D01*
X179771787Y-82254433D01*
X179824148Y-82251705D01*
X179880806Y-82249566D01*
X179939812Y-82248054D01*
X179999215Y-82247206D01*
X180057065Y-82247062D01*
X180111411Y-82247658D01*
X180111411Y-82247658D01*
G37*
X180111411Y-82247658D02*
X180160303Y-82249034D01*
X180201791Y-82251227D01*
X180204248Y-82251404D01*
X180370730Y-82268617D01*
X180534856Y-82295619D01*
X180696263Y-82332236D01*
X180854589Y-82378297D01*
X181009470Y-82433628D01*
X181160545Y-82498056D01*
X181307451Y-82571410D01*
X181449824Y-82653515D01*
X181587304Y-82744199D01*
X181719526Y-82843290D01*
X181846128Y-82950614D01*
X181966748Y-83065999D01*
X182011488Y-83112506D01*
X182122388Y-83237802D01*
X182224852Y-83368680D01*
X182318766Y-83504894D01*
X182404014Y-83646197D01*
X182480485Y-83792344D01*
X182548064Y-83943091D01*
X182606637Y-84098190D01*
X182656090Y-84257396D01*
X182696310Y-84420465D01*
X182727184Y-84587149D01*
X182741027Y-84687580D01*
X182743688Y-84715614D01*
X182746056Y-84752158D01*
X182748107Y-84795565D01*
X182749818Y-84844188D01*
X182751168Y-84896379D01*
X182752131Y-84950493D01*
X182752687Y-85004881D01*
X182752810Y-85057898D01*
X182752479Y-85107897D01*
X182751671Y-85153229D01*
X182750362Y-85192250D01*
X182748529Y-85223311D01*
X182748521Y-85223409D01*
X182730425Y-85387738D01*
X182702523Y-85549947D01*
X182665024Y-85709636D01*
X182618137Y-85866405D01*
X182562068Y-86019853D01*
X182497026Y-86169580D01*
X182423220Y-86315186D01*
X182340858Y-86456271D01*
X182250147Y-86592433D01*
X182151295Y-86723273D01*
X182044512Y-86848391D01*
X181930005Y-86967385D01*
X181807982Y-87079856D01*
X181763827Y-87117365D01*
X181632339Y-87220164D01*
X181495556Y-87314370D01*
X181353820Y-87399844D01*
X181207475Y-87476444D01*
X181056863Y-87544030D01*
X180902328Y-87602462D01*
X180744213Y-87651599D01*
X180582861Y-87691300D01*
X180418615Y-87721425D01*
X180251818Y-87741834D01*
X180236220Y-87743230D01*
X180204605Y-87745421D01*
X180165273Y-87747283D01*
X180120337Y-87748791D01*
X180071909Y-87749916D01*
X180022102Y-87750634D01*
X179973029Y-87750917D01*
X179926802Y-87750740D01*
X179885534Y-87750076D01*
X179851338Y-87748899D01*
X179838694Y-87748187D01*
X179669062Y-87732042D01*
X179502378Y-87706308D01*
X179338908Y-87671099D01*
X179178916Y-87626529D01*
X179022667Y-87572712D01*
X178870427Y-87509763D01*
X178722461Y-87437796D01*
X178579033Y-87356925D01*
X178440408Y-87267265D01*
X178306852Y-87168929D01*
X178178630Y-87062031D01*
X178117269Y-87006036D01*
X177998879Y-86887867D01*
X177888479Y-86763571D01*
X177786241Y-86633510D01*
X177692338Y-86498048D01*
X177606943Y-86357546D01*
X177530229Y-86212369D01*
X177462370Y-86062880D01*
X177403537Y-85909441D01*
X177353904Y-85752416D01*
X177313644Y-85592168D01*
X177282930Y-85429060D01*
X177261935Y-85263454D01*
X177256484Y-85199168D01*
X177254235Y-85158243D01*
X177252806Y-85109784D01*
X177252158Y-85055741D01*
X177252254Y-84998065D01*
X177252845Y-84954280D01*
X178935866Y-84954280D01*
X178936087Y-85014867D01*
X178936800Y-85067255D01*
X178938154Y-85113398D01*
X178940296Y-85155249D01*
X178943376Y-85194763D01*
X178947541Y-85233895D01*
X178952939Y-85274598D01*
X178959719Y-85318827D01*
X178966683Y-85360680D01*
X178991321Y-85485767D01*
X179023172Y-85615784D01*
X179061644Y-85749155D01*
X179106146Y-85884306D01*
X179156085Y-86019660D01*
X179210869Y-86153644D01*
X179269907Y-86284683D01*
X179332605Y-86411201D01*
X179398373Y-86531623D01*
X179422138Y-86572260D01*
X179447850Y-86614150D01*
X179472392Y-86651070D01*
X179497458Y-86685163D01*
X179524739Y-86718577D01*
X179555927Y-86753455D01*
X179592714Y-86791944D01*
X179606237Y-86805668D01*
X179674539Y-86872063D01*
X179740032Y-86930339D01*
X179804180Y-86981594D01*
X179868445Y-87026927D01*
X179934292Y-87067436D01*
X180003183Y-87104220D01*
X180005625Y-87105432D01*
X180072865Y-87136631D01*
X180140523Y-87163591D01*
X180209818Y-87186574D01*
X180281972Y-87205841D01*
X180358208Y-87221653D01*
X180439746Y-87234271D01*
X180527807Y-87243955D01*
X180623614Y-87250968D01*
X180704301Y-87254743D01*
X180718468Y-87254065D01*
X180739174Y-87251605D01*
X180763042Y-87247805D01*
X180776346Y-87245295D01*
X180882126Y-87218969D01*
X180986227Y-87182724D01*
X181088740Y-87136520D01*
X181189759Y-87080316D01*
X181268715Y-87028715D01*
X181304948Y-87002443D01*
X181345856Y-86971048D01*
X181390005Y-86935764D01*
X181435964Y-86897826D01*
X181482299Y-86858467D01*
X181527577Y-86818921D01*
X181570365Y-86780423D01*
X181609230Y-86744207D01*
X181642740Y-86711506D01*
X181669357Y-86683669D01*
X181719078Y-86626571D01*
X181768026Y-86565833D01*
X181815342Y-86502772D01*
X181860168Y-86438702D01*
X181901646Y-86374939D01*
X181938916Y-86312800D01*
X181971120Y-86253600D01*
X181997399Y-86198654D01*
X182015547Y-86153160D01*
X182027166Y-86116683D01*
X182033669Y-86086920D01*
X182035291Y-86061946D01*
X182032266Y-86039838D01*
X182030229Y-86032655D01*
X182021899Y-85999183D01*
X182015174Y-85955850D01*
X182010045Y-85902582D01*
X182008557Y-85880480D01*
X182006914Y-85857285D01*
X182005091Y-85837827D01*
X182003327Y-85824354D01*
X182002048Y-85819279D01*
X181995985Y-85815091D01*
X181983461Y-85808816D01*
X181971213Y-85803494D01*
X181935191Y-85785805D01*
X181905050Y-85764111D01*
X181880055Y-85737333D01*
X181859472Y-85704396D01*
X181842567Y-85664221D01*
X181828606Y-85615733D01*
X181821731Y-85584200D01*
X181813109Y-85529984D01*
X181806872Y-85467299D01*
X181803003Y-85397547D01*
X181801488Y-85322131D01*
X181802310Y-85242453D01*
X181805454Y-85159917D01*
X181810904Y-85075924D01*
X181818644Y-84991878D01*
X181828658Y-84909181D01*
X181829391Y-84903857D01*
X181837683Y-84852621D01*
X181848851Y-84798523D01*
X181863299Y-84739881D01*
X181881436Y-84675012D01*
X181897507Y-84621894D01*
X181908001Y-84586596D01*
X181914749Y-84560223D01*
X181917856Y-84542298D01*
X181917630Y-84532994D01*
X181916992Y-84525817D01*
X181916273Y-84509339D01*
X181915490Y-84484422D01*
X181914662Y-84451926D01*
X181913807Y-84412708D01*
X181912943Y-84367631D01*
X181912087Y-84317553D01*
X181911258Y-84263335D01*
X181910474Y-84205836D01*
X181910024Y-84169420D01*
X181909099Y-84094866D01*
X181908178Y-84029436D01*
X181907209Y-83972094D01*
X181906143Y-83921802D01*
X181904928Y-83877525D01*
X181903514Y-83838228D01*
X181901851Y-83802872D01*
X181899886Y-83770422D01*
X181897570Y-83739843D01*
X181894853Y-83710097D01*
X181891682Y-83680148D01*
X181888009Y-83648961D01*
X181883781Y-83615498D01*
X181882415Y-83604995D01*
X181873450Y-83542533D01*
X181862637Y-83477182D01*
X181850663Y-83412772D01*
X181838216Y-83353131D01*
X181833201Y-83331220D01*
X181827194Y-83305740D01*
X181821859Y-83283078D01*
X181817719Y-83265465D01*
X181815300Y-83255135D01*
X181815099Y-83254273D01*
X181809514Y-83244596D01*
X181796770Y-83230140D01*
X181778059Y-83211912D01*
X181754573Y-83190920D01*
X181727505Y-83168170D01*
X181698047Y-83144671D01*
X181667391Y-83121430D01*
X181636729Y-83099454D01*
X181612900Y-83083398D01*
X181519663Y-83028561D01*
X181420366Y-82981665D01*
X181314885Y-82942665D01*
X181203099Y-82911515D01*
X181084885Y-82888173D01*
X181074420Y-82886529D01*
X181029797Y-82880994D01*
X180977546Y-82876733D01*
X180920123Y-82873789D01*
X180859984Y-82872208D01*
X180799587Y-82872036D01*
X180741389Y-82873316D01*
X180687846Y-82876094D01*
X180655320Y-82878864D01*
X180518305Y-82896876D01*
X180386889Y-82922248D01*
X180261374Y-82954863D01*
X180142065Y-82994607D01*
X180029262Y-83041362D01*
X179923270Y-83095014D01*
X179824391Y-83155447D01*
X179732928Y-83222544D01*
X179712307Y-83239465D01*
X179679118Y-83268484D01*
X179646726Y-83299428D01*
X179613635Y-83333870D01*
X179578349Y-83373378D01*
X179539372Y-83419524D01*
X179530517Y-83430280D01*
X179426906Y-83562732D01*
X179333379Y-83695187D01*
X179249858Y-83827797D01*
X179176268Y-83960716D01*
X179112533Y-84094098D01*
X179058577Y-84228098D01*
X179014324Y-84362867D01*
X178979697Y-84498561D01*
X178964339Y-84575820D01*
X178956862Y-84618964D01*
X178950787Y-84657561D01*
X178945975Y-84693452D01*
X178942287Y-84728477D01*
X178939585Y-84764477D01*
X178937730Y-84803291D01*
X178936585Y-84846762D01*
X178936009Y-84896729D01*
X178935866Y-84954280D01*
X177252845Y-84954280D01*
X177253056Y-84938704D01*
X177254526Y-84879611D01*
X177256624Y-84822735D01*
X177259314Y-84770027D01*
X177262556Y-84723437D01*
X177266314Y-84684915D01*
X177266582Y-84682680D01*
X177292056Y-84513148D01*
X177326728Y-84347926D01*
X177370629Y-84186938D01*
X177423792Y-84030112D01*
X177486249Y-83877374D01*
X177558030Y-83728650D01*
X177639169Y-83583866D01*
X177729697Y-83442948D01*
X177829646Y-83305822D01*
X177897157Y-83221718D01*
X177922254Y-83192734D01*
X177953460Y-83158564D01*
X177989254Y-83120728D01*
X178028116Y-83080747D01*
X178068523Y-83040143D01*
X178108955Y-83000438D01*
X178147890Y-82963151D01*
X178183808Y-82929805D01*
X178215186Y-82901920D01*
X178226798Y-82892077D01*
X178343126Y-82799763D01*
X178460135Y-82716075D01*
X178579986Y-82639586D01*
X178704836Y-82568870D01*
X178757940Y-82541230D01*
X178903201Y-82472517D01*
X179050453Y-82413076D01*
X179200545Y-82362650D01*
X179354324Y-82320984D01*
X179512640Y-82287823D01*
X179676342Y-82262911D01*
X179687760Y-82261502D01*
X179725674Y-82257711D01*
X179771787Y-82254433D01*
X179824148Y-82251705D01*
X179880806Y-82249566D01*
X179939812Y-82248054D01*
X179999215Y-82247206D01*
X180057065Y-82247062D01*
X180111411Y-82247658D01*
G36*
X179524466Y-85929926D02*
G01*
X179539554Y-85941333D01*
X179541789Y-85943610D01*
X179557997Y-85964076D01*
X179571303Y-85987188D01*
X179581395Y-86011348D01*
X179587961Y-86034960D01*
X179590691Y-86056426D01*
X179589274Y-86074150D01*
X179583397Y-86086535D01*
X179572750Y-86091983D01*
X179570740Y-86092103D01*
X179563319Y-86089690D01*
X179551818Y-86083702D01*
X179550097Y-86082671D01*
X179533099Y-86067908D01*
X179517367Y-86046401D01*
X179503917Y-86020683D01*
X179493764Y-85993289D01*
X179487921Y-85966754D01*
X179487405Y-85943613D01*
X179490003Y-85932595D01*
X179497422Y-85925074D01*
X179509666Y-85924345D01*
X179524466Y-85929926D01*
X179524466Y-85929926D01*
G37*
X179524466Y-85929926D02*
X179539554Y-85941333D01*
X179541789Y-85943610D01*
X179557997Y-85964076D01*
X179571303Y-85987188D01*
X179581395Y-86011348D01*
X179587961Y-86034960D01*
X179590691Y-86056426D01*
X179589274Y-86074150D01*
X179583397Y-86086535D01*
X179572750Y-86091983D01*
X179570740Y-86092103D01*
X179563319Y-86089690D01*
X179551818Y-86083702D01*
X179550097Y-86082671D01*
X179533099Y-86067908D01*
X179517367Y-86046401D01*
X179503917Y-86020683D01*
X179493764Y-85993289D01*
X179487921Y-85966754D01*
X179487405Y-85943613D01*
X179490003Y-85932595D01*
X179497422Y-85925074D01*
X179509666Y-85924345D01*
X179524466Y-85929926D01*
G36*
X180963667Y-85651102D02*
G01*
X180976744Y-85654493D01*
X180988048Y-85661622D01*
X180990392Y-85663545D01*
X181009692Y-85685382D01*
X181019619Y-85709859D01*
X181019926Y-85735768D01*
X181010441Y-85761765D01*
X180996012Y-85780859D01*
X180977537Y-85792325D01*
X180953024Y-85797210D01*
X180942228Y-85797560D01*
X180924829Y-85796947D01*
X180913155Y-85793934D01*
X180902794Y-85786758D01*
X180893903Y-85778259D01*
X180877278Y-85755369D01*
X180869936Y-85730434D01*
X180871832Y-85705206D01*
X180882919Y-85681436D01*
X180896859Y-85665951D01*
X180908713Y-85656754D01*
X180920030Y-85652033D01*
X180935130Y-85650369D01*
X180944667Y-85650240D01*
X180963667Y-85651102D01*
X180963667Y-85651102D01*
G37*
X180963667Y-85651102D02*
X180976744Y-85654493D01*
X180988048Y-85661622D01*
X180990392Y-85663545D01*
X181009692Y-85685382D01*
X181019619Y-85709859D01*
X181019926Y-85735768D01*
X181010441Y-85761765D01*
X180996012Y-85780859D01*
X180977537Y-85792325D01*
X180953024Y-85797210D01*
X180942228Y-85797560D01*
X180924829Y-85796947D01*
X180913155Y-85793934D01*
X180902794Y-85786758D01*
X180893903Y-85778259D01*
X180877278Y-85755369D01*
X180869936Y-85730434D01*
X180871832Y-85705206D01*
X180882919Y-85681436D01*
X180896859Y-85665951D01*
X180908713Y-85656754D01*
X180920030Y-85652033D01*
X180935130Y-85650369D01*
X180944667Y-85650240D01*
X180963667Y-85651102D01*
G36*
X180918423Y-85401777D02*
G01*
X180956263Y-85405066D01*
X180976759Y-85408897D01*
X181028390Y-85425874D01*
X181073060Y-85449654D01*
X181110646Y-85479527D01*
X181141024Y-85514781D01*
X181164071Y-85554703D01*
X181179661Y-85598583D01*
X181187672Y-85645708D01*
X181187980Y-85695366D01*
X181180461Y-85746846D01*
X181164990Y-85799436D01*
X181141445Y-85852424D01*
X181109701Y-85905099D01*
X181071669Y-85954398D01*
X181022024Y-86005506D01*
X180967034Y-86050255D01*
X180907863Y-86088142D01*
X180845678Y-86118666D01*
X180781645Y-86141325D01*
X180716929Y-86155617D01*
X180652695Y-86161041D01*
X180598218Y-86158169D01*
X180543393Y-86147107D01*
X180494297Y-86128036D01*
X180451371Y-86101148D01*
X180432887Y-86085333D01*
X180401140Y-86051436D01*
X180378000Y-86016962D01*
X180362118Y-85979320D01*
X180352141Y-85935916D01*
X180350986Y-85928145D01*
X180348426Y-85873755D01*
X180355286Y-85818691D01*
X180370934Y-85763752D01*
X180384275Y-85733475D01*
X180749164Y-85733475D01*
X180751545Y-85755112D01*
X180764506Y-85799304D01*
X180785689Y-85838657D01*
X180814198Y-85872122D01*
X180849137Y-85898653D01*
X180889610Y-85917204D01*
X180890453Y-85917481D01*
X180910411Y-85921460D01*
X180937461Y-85923152D01*
X180955684Y-85922976D01*
X180979938Y-85921571D01*
X180998324Y-85918634D01*
X181015122Y-85913176D01*
X181032690Y-85905155D01*
X181069679Y-85881788D01*
X181100282Y-85851948D01*
X181123754Y-85817048D01*
X181139349Y-85778504D01*
X181146322Y-85737728D01*
X181143925Y-85696134D01*
X181143670Y-85694722D01*
X181130966Y-85652824D01*
X181109644Y-85614438D01*
X181080985Y-85581215D01*
X181046270Y-85554806D01*
X181027445Y-85544858D01*
X180997518Y-85535350D01*
X180962396Y-85530786D01*
X180925790Y-85531225D01*
X180891413Y-85536724D01*
X180873531Y-85542426D01*
X180838383Y-85561486D01*
X180807691Y-85587944D01*
X180782440Y-85620087D01*
X180763613Y-85656199D01*
X180752193Y-85694567D01*
X180749164Y-85733475D01*
X180384275Y-85733475D01*
X180394736Y-85709736D01*
X180426061Y-85657441D01*
X180464274Y-85607666D01*
X180508745Y-85561207D01*
X180558840Y-85518864D01*
X180613926Y-85481434D01*
X180673370Y-85449716D01*
X180736541Y-85424507D01*
X180754886Y-85418701D01*
X180791263Y-85410238D01*
X180832757Y-85404503D01*
X180876199Y-85401636D01*
X180918423Y-85401777D01*
X180918423Y-85401777D01*
G37*
X180918423Y-85401777D02*
X180956263Y-85405066D01*
X180976759Y-85408897D01*
X181028390Y-85425874D01*
X181073060Y-85449654D01*
X181110646Y-85479527D01*
X181141024Y-85514781D01*
X181164071Y-85554703D01*
X181179661Y-85598583D01*
X181187672Y-85645708D01*
X181187980Y-85695366D01*
X181180461Y-85746846D01*
X181164990Y-85799436D01*
X181141445Y-85852424D01*
X181109701Y-85905099D01*
X181071669Y-85954398D01*
X181022024Y-86005506D01*
X180967034Y-86050255D01*
X180907863Y-86088142D01*
X180845678Y-86118666D01*
X180781645Y-86141325D01*
X180716929Y-86155617D01*
X180652695Y-86161041D01*
X180598218Y-86158169D01*
X180543393Y-86147107D01*
X180494297Y-86128036D01*
X180451371Y-86101148D01*
X180432887Y-86085333D01*
X180401140Y-86051436D01*
X180378000Y-86016962D01*
X180362118Y-85979320D01*
X180352141Y-85935916D01*
X180350986Y-85928145D01*
X180348426Y-85873755D01*
X180355286Y-85818691D01*
X180370934Y-85763752D01*
X180384275Y-85733475D01*
X180749164Y-85733475D01*
X180751545Y-85755112D01*
X180764506Y-85799304D01*
X180785689Y-85838657D01*
X180814198Y-85872122D01*
X180849137Y-85898653D01*
X180889610Y-85917204D01*
X180890453Y-85917481D01*
X180910411Y-85921460D01*
X180937461Y-85923152D01*
X180955684Y-85922976D01*
X180979938Y-85921571D01*
X180998324Y-85918634D01*
X181015122Y-85913176D01*
X181032690Y-85905155D01*
X181069679Y-85881788D01*
X181100282Y-85851948D01*
X181123754Y-85817048D01*
X181139349Y-85778504D01*
X181146322Y-85737728D01*
X181143925Y-85696134D01*
X181143670Y-85694722D01*
X181130966Y-85652824D01*
X181109644Y-85614438D01*
X181080985Y-85581215D01*
X181046270Y-85554806D01*
X181027445Y-85544858D01*
X180997518Y-85535350D01*
X180962396Y-85530786D01*
X180925790Y-85531225D01*
X180891413Y-85536724D01*
X180873531Y-85542426D01*
X180838383Y-85561486D01*
X180807691Y-85587944D01*
X180782440Y-85620087D01*
X180763613Y-85656199D01*
X180752193Y-85694567D01*
X180749164Y-85733475D01*
X180384275Y-85733475D01*
X180394736Y-85709736D01*
X180426061Y-85657441D01*
X180464274Y-85607666D01*
X180508745Y-85561207D01*
X180558840Y-85518864D01*
X180613926Y-85481434D01*
X180673370Y-85449716D01*
X180736541Y-85424507D01*
X180754886Y-85418701D01*
X180791263Y-85410238D01*
X180832757Y-85404503D01*
X180876199Y-85401636D01*
X180918423Y-85401777D01*
G36*
X179293665Y-85592400D02*
G01*
X179311199Y-85594815D01*
X179327879Y-85600076D01*
X179346678Y-85608404D01*
X179396544Y-85636810D01*
X179446028Y-85674026D01*
X179494186Y-85718713D01*
X179540077Y-85769536D01*
X179582757Y-85825158D01*
X179621285Y-85884244D01*
X179654717Y-85945456D01*
X179682112Y-86007459D01*
X179702526Y-86068917D01*
X179715018Y-86128492D01*
X179715381Y-86131129D01*
X179718149Y-86174196D01*
X179714456Y-86212257D01*
X179704593Y-86244427D01*
X179688853Y-86269822D01*
X179667525Y-86287556D01*
X179663187Y-86289832D01*
X179635219Y-86298318D01*
X179603409Y-86299581D01*
X179571189Y-86293488D01*
X179570740Y-86293346D01*
X179527203Y-86275057D01*
X179482270Y-86247842D01*
X179436881Y-86212665D01*
X179391976Y-86170487D01*
X179348495Y-86122272D01*
X179307378Y-86068982D01*
X179269565Y-86011579D01*
X179235996Y-85951026D01*
X179235540Y-85950119D01*
X179210181Y-85895845D01*
X179201711Y-85873574D01*
X179355284Y-85873574D01*
X179355543Y-85901315D01*
X179358121Y-85929311D01*
X179362567Y-85952702D01*
X179372407Y-85982865D01*
X179386999Y-86017156D01*
X179404535Y-86051944D01*
X179423208Y-86083596D01*
X179438382Y-86105022D01*
X179469895Y-86140806D01*
X179501152Y-86168895D01*
X179531506Y-86189000D01*
X179560309Y-86200834D01*
X179586913Y-86204109D01*
X179610670Y-86198538D01*
X179626133Y-86188466D01*
X179640767Y-86171999D01*
X179650019Y-86152003D01*
X179654606Y-86126313D01*
X179655402Y-86100316D01*
X179651584Y-86061085D01*
X179641587Y-86020767D01*
X179626265Y-85980451D01*
X179606466Y-85941228D01*
X179583042Y-85904188D01*
X179556844Y-85870421D01*
X179528723Y-85841018D01*
X179499529Y-85817069D01*
X179470113Y-85799664D01*
X179441326Y-85789894D01*
X179414019Y-85788849D01*
X179412521Y-85789075D01*
X179390226Y-85797610D01*
X179371870Y-85814429D01*
X179361805Y-85831686D01*
X179357365Y-85849295D01*
X179355284Y-85873574D01*
X179201711Y-85873574D01*
X179191505Y-85846742D01*
X179178956Y-85800850D01*
X179171980Y-85756209D01*
X179170024Y-85718820D01*
X179170147Y-85693734D01*
X179171356Y-85675780D01*
X179174108Y-85661950D01*
X179178861Y-85649235D01*
X179181443Y-85643751D01*
X179192212Y-85626421D01*
X179205671Y-85610733D01*
X179211471Y-85605651D01*
X179221774Y-85598608D01*
X179231873Y-85594452D01*
X179244939Y-85592443D01*
X179264145Y-85591838D01*
X179270641Y-85591820D01*
X179293665Y-85592400D01*
X179293665Y-85592400D01*
G37*
X179293665Y-85592400D02*
X179311199Y-85594815D01*
X179327879Y-85600076D01*
X179346678Y-85608404D01*
X179396544Y-85636810D01*
X179446028Y-85674026D01*
X179494186Y-85718713D01*
X179540077Y-85769536D01*
X179582757Y-85825158D01*
X179621285Y-85884244D01*
X179654717Y-85945456D01*
X179682112Y-86007459D01*
X179702526Y-86068917D01*
X179715018Y-86128492D01*
X179715381Y-86131129D01*
X179718149Y-86174196D01*
X179714456Y-86212257D01*
X179704593Y-86244427D01*
X179688853Y-86269822D01*
X179667525Y-86287556D01*
X179663187Y-86289832D01*
X179635219Y-86298318D01*
X179603409Y-86299581D01*
X179571189Y-86293488D01*
X179570740Y-86293346D01*
X179527203Y-86275057D01*
X179482270Y-86247842D01*
X179436881Y-86212665D01*
X179391976Y-86170487D01*
X179348495Y-86122272D01*
X179307378Y-86068982D01*
X179269565Y-86011579D01*
X179235996Y-85951026D01*
X179235540Y-85950119D01*
X179210181Y-85895845D01*
X179201711Y-85873574D01*
X179355284Y-85873574D01*
X179355543Y-85901315D01*
X179358121Y-85929311D01*
X179362567Y-85952702D01*
X179372407Y-85982865D01*
X179386999Y-86017156D01*
X179404535Y-86051944D01*
X179423208Y-86083596D01*
X179438382Y-86105022D01*
X179469895Y-86140806D01*
X179501152Y-86168895D01*
X179531506Y-86189000D01*
X179560309Y-86200834D01*
X179586913Y-86204109D01*
X179610670Y-86198538D01*
X179626133Y-86188466D01*
X179640767Y-86171999D01*
X179650019Y-86152003D01*
X179654606Y-86126313D01*
X179655402Y-86100316D01*
X179651584Y-86061085D01*
X179641587Y-86020767D01*
X179626265Y-85980451D01*
X179606466Y-85941228D01*
X179583042Y-85904188D01*
X179556844Y-85870421D01*
X179528723Y-85841018D01*
X179499529Y-85817069D01*
X179470113Y-85799664D01*
X179441326Y-85789894D01*
X179414019Y-85788849D01*
X179412521Y-85789075D01*
X179390226Y-85797610D01*
X179371870Y-85814429D01*
X179361805Y-85831686D01*
X179357365Y-85849295D01*
X179355284Y-85873574D01*
X179201711Y-85873574D01*
X179191505Y-85846742D01*
X179178956Y-85800850D01*
X179171980Y-85756209D01*
X179170024Y-85718820D01*
X179170147Y-85693734D01*
X179171356Y-85675780D01*
X179174108Y-85661950D01*
X179178861Y-85649235D01*
X179181443Y-85643751D01*
X179192212Y-85626421D01*
X179205671Y-85610733D01*
X179211471Y-85605651D01*
X179221774Y-85598608D01*
X179231873Y-85594452D01*
X179244939Y-85592443D01*
X179264145Y-85591838D01*
X179270641Y-85591820D01*
X179293665Y-85592400D01*
D11*
G36*
X180624692Y-87031830D02*
G01*
X180628884Y-87037238D01*
X180629842Y-87045434D01*
X180625424Y-87050854D01*
X180613375Y-87058710D01*
X180595655Y-87068093D01*
X180574225Y-87078090D01*
X180551046Y-87087791D01*
X180528078Y-87096284D01*
X180507282Y-87102659D01*
X180505917Y-87103013D01*
X180462856Y-87110486D01*
X180414361Y-87112860D01*
X180363785Y-87110138D01*
X180317500Y-87102965D01*
X180290200Y-87097186D01*
X180271309Y-87092973D01*
X180259286Y-87089840D01*
X180252588Y-87087302D01*
X180249673Y-87084876D01*
X180248999Y-87082076D01*
X180248997Y-87081433D01*
X180250026Y-87073727D01*
X180253898Y-87069084D01*
X180262140Y-87067369D01*
X180276276Y-87068449D01*
X180297832Y-87072190D01*
X180314960Y-87075657D01*
X180373922Y-87085109D01*
X180427388Y-87087441D01*
X180477312Y-87082442D01*
X180525646Y-87069901D01*
X180574342Y-87049609D01*
X180579221Y-87047188D01*
X180601207Y-87036758D01*
X180615915Y-87031654D01*
X180624692Y-87031830D01*
X180624692Y-87031830D01*
G37*
X180624692Y-87031830D02*
X180628884Y-87037238D01*
X180629842Y-87045434D01*
X180625424Y-87050854D01*
X180613375Y-87058710D01*
X180595655Y-87068093D01*
X180574225Y-87078090D01*
X180551046Y-87087791D01*
X180528078Y-87096284D01*
X180507282Y-87102659D01*
X180505917Y-87103013D01*
X180462856Y-87110486D01*
X180414361Y-87112860D01*
X180363785Y-87110138D01*
X180317500Y-87102965D01*
X180290200Y-87097186D01*
X180271309Y-87092973D01*
X180259286Y-87089840D01*
X180252588Y-87087302D01*
X180249673Y-87084876D01*
X180248999Y-87082076D01*
X180248997Y-87081433D01*
X180250026Y-87073727D01*
X180253898Y-87069084D01*
X180262140Y-87067369D01*
X180276276Y-87068449D01*
X180297832Y-87072190D01*
X180314960Y-87075657D01*
X180373922Y-87085109D01*
X180427388Y-87087441D01*
X180477312Y-87082442D01*
X180525646Y-87069901D01*
X180574342Y-87049609D01*
X180579221Y-87047188D01*
X180601207Y-87036758D01*
X180615915Y-87031654D01*
X180624692Y-87031830D01*
D12*
G36*
X160875256Y-123211298D02*
G01*
X160981579Y-123232447D01*
X161282042Y-123356903D01*
X161552451Y-123537585D01*
X161782415Y-123767549D01*
X161963097Y-124037958D01*
X162087553Y-124338421D01*
X162151000Y-124657391D01*
X162151000Y-124982609D01*
X162087553Y-125301579D01*
X161963097Y-125602042D01*
X161782415Y-125872451D01*
X161552451Y-126102415D01*
X161282042Y-126283097D01*
X160981579Y-126407553D01*
X160875256Y-126428702D01*
X160662611Y-126471000D01*
X160337389Y-126471000D01*
X160124744Y-126428702D01*
X160018421Y-126407553D01*
X159717958Y-126283097D01*
X159447549Y-126102415D01*
X159217585Y-125872451D01*
X159036903Y-125602042D01*
X158912447Y-125301579D01*
X158849000Y-124982609D01*
X158849000Y-124657391D01*
X158912447Y-124338421D01*
X159036903Y-124037958D01*
X159217585Y-123767549D01*
X159447549Y-123537585D01*
X159717958Y-123356903D01*
X160018421Y-123232447D01*
X160124744Y-123211298D01*
X160337389Y-123169000D01*
X160662611Y-123169000D01*
X160875256Y-123211298D01*
X160875256Y-123211298D01*
G37*
G36*
X177681938Y-119941716D02*
G01*
X177702557Y-119947971D01*
X177721553Y-119958124D01*
X177738208Y-119971792D01*
X177751876Y-119988447D01*
X177762029Y-120007443D01*
X177768284Y-120028062D01*
X177771000Y-120055640D01*
X177771000Y-120514360D01*
X177768284Y-120541938D01*
X177762029Y-120562557D01*
X177751876Y-120581553D01*
X177738208Y-120598208D01*
X177721553Y-120611876D01*
X177702557Y-120622029D01*
X177681938Y-120628284D01*
X177654360Y-120631000D01*
X177145640Y-120631000D01*
X177118062Y-120628284D01*
X177097443Y-120622029D01*
X177078447Y-120611876D01*
X177061792Y-120598208D01*
X177048124Y-120581553D01*
X177037971Y-120562557D01*
X177031716Y-120541938D01*
X177029000Y-120514360D01*
X177029000Y-120055640D01*
X177031716Y-120028062D01*
X177037971Y-120007443D01*
X177048124Y-119988447D01*
X177061792Y-119971792D01*
X177078447Y-119958124D01*
X177097443Y-119947971D01*
X177118062Y-119941716D01*
X177145640Y-119939000D01*
X177654360Y-119939000D01*
X177681938Y-119941716D01*
X177681938Y-119941716D01*
G37*
G36*
X174281000Y-120626000D02*
G01*
X173119000Y-120626000D01*
X173119000Y-117974000D01*
X174281000Y-117974000D01*
X174281000Y-120626000D01*
X174281000Y-120626000D01*
G37*
G36*
X176481000Y-120626000D02*
G01*
X175319000Y-120626000D01*
X175319000Y-117974000D01*
X176481000Y-117974000D01*
X176481000Y-120626000D01*
X176481000Y-120626000D01*
G37*
G36*
X149281938Y-119841716D02*
G01*
X149302557Y-119847971D01*
X149321553Y-119858124D01*
X149338208Y-119871792D01*
X149351876Y-119888447D01*
X149362029Y-119907443D01*
X149368284Y-119928062D01*
X149371000Y-119955640D01*
X149371000Y-120414360D01*
X149368284Y-120441938D01*
X149362029Y-120462557D01*
X149351876Y-120481553D01*
X149338208Y-120498208D01*
X149321553Y-120511876D01*
X149302557Y-120522029D01*
X149281938Y-120528284D01*
X149254360Y-120531000D01*
X148745640Y-120531000D01*
X148718062Y-120528284D01*
X148697443Y-120522029D01*
X148678447Y-120511876D01*
X148661792Y-120498208D01*
X148648124Y-120481553D01*
X148637971Y-120462557D01*
X148631716Y-120441938D01*
X148629000Y-120414360D01*
X148629000Y-119955640D01*
X148631716Y-119928062D01*
X148637971Y-119907443D01*
X148648124Y-119888447D01*
X148661792Y-119871792D01*
X148678447Y-119858124D01*
X148697443Y-119847971D01*
X148718062Y-119841716D01*
X148745640Y-119839000D01*
X149254360Y-119839000D01*
X149281938Y-119841716D01*
X149281938Y-119841716D01*
G37*
G36*
X148181000Y-120526000D02*
G01*
X147019000Y-120526000D01*
X147019000Y-117874000D01*
X148181000Y-117874000D01*
X148181000Y-120526000D01*
X148181000Y-120526000D01*
G37*
G36*
X145981000Y-120526000D02*
G01*
X144819000Y-120526000D01*
X144819000Y-117874000D01*
X145981000Y-117874000D01*
X145981000Y-120526000D01*
X145981000Y-120526000D01*
G37*
G36*
X177681938Y-118971716D02*
G01*
X177702557Y-118977971D01*
X177721553Y-118988124D01*
X177738208Y-119001792D01*
X177751876Y-119018447D01*
X177762029Y-119037443D01*
X177768284Y-119058062D01*
X177771000Y-119085640D01*
X177771000Y-119544360D01*
X177768284Y-119571938D01*
X177762029Y-119592557D01*
X177751876Y-119611553D01*
X177738208Y-119628208D01*
X177721553Y-119641876D01*
X177702557Y-119652029D01*
X177681938Y-119658284D01*
X177654360Y-119661000D01*
X177145640Y-119661000D01*
X177118062Y-119658284D01*
X177097443Y-119652029D01*
X177078447Y-119641876D01*
X177061792Y-119628208D01*
X177048124Y-119611553D01*
X177037971Y-119592557D01*
X177031716Y-119571938D01*
X177029000Y-119544360D01*
X177029000Y-119085640D01*
X177031716Y-119058062D01*
X177037971Y-119037443D01*
X177048124Y-119018447D01*
X177061792Y-119001792D01*
X177078447Y-118988124D01*
X177097443Y-118977971D01*
X177118062Y-118971716D01*
X177145640Y-118969000D01*
X177654360Y-118969000D01*
X177681938Y-118971716D01*
X177681938Y-118971716D01*
G37*
G36*
X149281938Y-118871716D02*
G01*
X149302557Y-118877971D01*
X149321553Y-118888124D01*
X149338208Y-118901792D01*
X149351876Y-118918447D01*
X149362029Y-118937443D01*
X149368284Y-118958062D01*
X149371000Y-118985640D01*
X149371000Y-119444360D01*
X149368284Y-119471938D01*
X149362029Y-119492557D01*
X149351876Y-119511553D01*
X149338208Y-119528208D01*
X149321553Y-119541876D01*
X149302557Y-119552029D01*
X149281938Y-119558284D01*
X149254360Y-119561000D01*
X148745640Y-119561000D01*
X148718062Y-119558284D01*
X148697443Y-119552029D01*
X148678447Y-119541876D01*
X148661792Y-119528208D01*
X148648124Y-119511553D01*
X148637971Y-119492557D01*
X148631716Y-119471938D01*
X148629000Y-119444360D01*
X148629000Y-118985640D01*
X148631716Y-118958062D01*
X148637971Y-118937443D01*
X148648124Y-118918447D01*
X148661792Y-118901792D01*
X148678447Y-118888124D01*
X148697443Y-118877971D01*
X148718062Y-118871716D01*
X148745640Y-118869000D01*
X149254360Y-118869000D01*
X149281938Y-118871716D01*
X149281938Y-118871716D01*
G37*
G36*
X184416282Y-106107741D02*
G01*
X184522605Y-106128890D01*
X184823068Y-106253346D01*
X185093477Y-106434028D01*
X185323441Y-106663992D01*
X185504123Y-106934401D01*
X185628579Y-107234864D01*
X185692026Y-107553834D01*
X185692026Y-107879052D01*
X185628579Y-108198022D01*
X185504123Y-108498485D01*
X185323441Y-108768894D01*
X185093477Y-108998858D01*
X184823068Y-109179540D01*
X184522605Y-109303996D01*
X184416282Y-109325145D01*
X184203637Y-109367443D01*
X183878415Y-109367443D01*
X183665770Y-109325145D01*
X183559447Y-109303996D01*
X183258984Y-109179540D01*
X182988575Y-108998858D01*
X182758611Y-108768894D01*
X182577929Y-108498485D01*
X182453473Y-108198022D01*
X182390026Y-107879052D01*
X182390026Y-107553834D01*
X182453473Y-107234864D01*
X182577929Y-106934401D01*
X182758611Y-106663992D01*
X182988575Y-106434028D01*
X183258984Y-106253346D01*
X183559447Y-106128890D01*
X183665770Y-106107741D01*
X183878415Y-106065443D01*
X184203637Y-106065443D01*
X184416282Y-106107741D01*
X184416282Y-106107741D01*
G37*
G36*
X137334230Y-106107741D02*
G01*
X137440553Y-106128890D01*
X137741016Y-106253346D01*
X138011425Y-106434028D01*
X138241389Y-106663992D01*
X138422071Y-106934401D01*
X138546527Y-107234864D01*
X138609974Y-107553834D01*
X138609974Y-107879052D01*
X138546527Y-108198022D01*
X138422071Y-108498485D01*
X138241389Y-108768894D01*
X138011425Y-108998858D01*
X137741016Y-109179540D01*
X137440553Y-109303996D01*
X137334230Y-109325145D01*
X137121585Y-109367443D01*
X136796363Y-109367443D01*
X136583718Y-109325145D01*
X136477395Y-109303996D01*
X136176932Y-109179540D01*
X135906523Y-108998858D01*
X135676559Y-108768894D01*
X135495877Y-108498485D01*
X135371421Y-108198022D01*
X135307974Y-107879052D01*
X135307974Y-107553834D01*
X135371421Y-107234864D01*
X135495877Y-106934401D01*
X135676559Y-106663992D01*
X135906523Y-106434028D01*
X136176932Y-106253346D01*
X136477395Y-106128890D01*
X136583718Y-106107741D01*
X136796363Y-106065443D01*
X137121585Y-106065443D01*
X137334230Y-106107741D01*
X137334230Y-106107741D01*
G37*
G36*
X138341938Y-94531716D02*
G01*
X138362557Y-94537971D01*
X138381553Y-94548124D01*
X138398208Y-94561792D01*
X138411876Y-94578447D01*
X138422029Y-94597443D01*
X138428284Y-94618062D01*
X138431000Y-94645640D01*
X138431000Y-95154360D01*
X138428284Y-95181938D01*
X138422029Y-95202557D01*
X138411876Y-95221553D01*
X138398208Y-95238208D01*
X138381553Y-95251876D01*
X138362557Y-95262029D01*
X138341938Y-95268284D01*
X138314360Y-95271000D01*
X137855640Y-95271000D01*
X137828062Y-95268284D01*
X137807443Y-95262029D01*
X137788447Y-95251876D01*
X137771792Y-95238208D01*
X137758124Y-95221553D01*
X137747971Y-95202557D01*
X137741716Y-95181938D01*
X137739000Y-95154360D01*
X137739000Y-94645640D01*
X137741716Y-94618062D01*
X137747971Y-94597443D01*
X137758124Y-94578447D01*
X137771792Y-94561792D01*
X137788447Y-94548124D01*
X137807443Y-94537971D01*
X137828062Y-94531716D01*
X137855640Y-94529000D01*
X138314360Y-94529000D01*
X138341938Y-94531716D01*
X138341938Y-94531716D01*
G37*
G36*
X137371938Y-94531716D02*
G01*
X137392557Y-94537971D01*
X137411553Y-94548124D01*
X137428208Y-94561792D01*
X137441876Y-94578447D01*
X137452029Y-94597443D01*
X137458284Y-94618062D01*
X137461000Y-94645640D01*
X137461000Y-95154360D01*
X137458284Y-95181938D01*
X137452029Y-95202557D01*
X137441876Y-95221553D01*
X137428208Y-95238208D01*
X137411553Y-95251876D01*
X137392557Y-95262029D01*
X137371938Y-95268284D01*
X137344360Y-95271000D01*
X136885640Y-95271000D01*
X136858062Y-95268284D01*
X136837443Y-95262029D01*
X136818447Y-95251876D01*
X136801792Y-95238208D01*
X136788124Y-95221553D01*
X136777971Y-95202557D01*
X136771716Y-95181938D01*
X136769000Y-95154360D01*
X136769000Y-94645640D01*
X136771716Y-94618062D01*
X136777971Y-94597443D01*
X136788124Y-94578447D01*
X136801792Y-94561792D01*
X136818447Y-94548124D01*
X136837443Y-94537971D01*
X136858062Y-94531716D01*
X136885640Y-94529000D01*
X137344360Y-94529000D01*
X137371938Y-94531716D01*
X137371938Y-94531716D01*
G37*
G36*
X185681938Y-93841716D02*
G01*
X185702557Y-93847971D01*
X185721553Y-93858124D01*
X185738208Y-93871792D01*
X185751876Y-93888447D01*
X185762029Y-93907443D01*
X185768284Y-93928062D01*
X185771000Y-93955640D01*
X185771000Y-94414360D01*
X185768284Y-94441938D01*
X185762029Y-94462557D01*
X185751876Y-94481553D01*
X185738208Y-94498208D01*
X185721553Y-94511876D01*
X185702557Y-94522029D01*
X185681938Y-94528284D01*
X185654360Y-94531000D01*
X185145640Y-94531000D01*
X185118062Y-94528284D01*
X185097443Y-94522029D01*
X185078447Y-94511876D01*
X185061792Y-94498208D01*
X185048124Y-94481553D01*
X185037971Y-94462557D01*
X185031716Y-94441938D01*
X185029000Y-94414360D01*
X185029000Y-93955640D01*
X185031716Y-93928062D01*
X185037971Y-93907443D01*
X185048124Y-93888447D01*
X185061792Y-93871792D01*
X185078447Y-93858124D01*
X185097443Y-93847971D01*
X185118062Y-93841716D01*
X185145640Y-93839000D01*
X185654360Y-93839000D01*
X185681938Y-93841716D01*
X185681938Y-93841716D01*
G37*
G36*
X182306001Y-94351001D02*
G01*
X181144001Y-94351001D01*
X181144001Y-91699001D01*
X182306001Y-91699001D01*
X182306001Y-94351001D01*
X182306001Y-94351001D01*
G37*
G36*
X184506001Y-94351001D02*
G01*
X183344001Y-94351001D01*
X183344001Y-91699001D01*
X184506001Y-91699001D01*
X184506001Y-94351001D01*
X184506001Y-94351001D01*
G37*
G36*
X137581000Y-93776000D02*
G01*
X136419000Y-93776000D01*
X136419000Y-91124000D01*
X137581000Y-91124000D01*
X137581000Y-93776000D01*
X137581000Y-93776000D01*
G37*
G36*
X139781000Y-93776000D02*
G01*
X138619000Y-93776000D01*
X138619000Y-91124000D01*
X139781000Y-91124000D01*
X139781000Y-93776000D01*
X139781000Y-93776000D01*
G37*
G36*
X185681938Y-92871716D02*
G01*
X185702557Y-92877971D01*
X185721553Y-92888124D01*
X185738208Y-92901792D01*
X185751876Y-92918447D01*
X185762029Y-92937443D01*
X185768284Y-92958062D01*
X185771000Y-92985640D01*
X185771000Y-93444360D01*
X185768284Y-93471938D01*
X185762029Y-93492557D01*
X185751876Y-93511553D01*
X185738208Y-93528208D01*
X185721553Y-93541876D01*
X185702557Y-93552029D01*
X185681938Y-93558284D01*
X185654360Y-93561000D01*
X185145640Y-93561000D01*
X185118062Y-93558284D01*
X185097443Y-93552029D01*
X185078447Y-93541876D01*
X185061792Y-93528208D01*
X185048124Y-93511553D01*
X185037971Y-93492557D01*
X185031716Y-93471938D01*
X185029000Y-93444360D01*
X185029000Y-92985640D01*
X185031716Y-92958062D01*
X185037971Y-92937443D01*
X185048124Y-92918447D01*
X185061792Y-92901792D01*
X185078447Y-92888124D01*
X185097443Y-92877971D01*
X185118062Y-92871716D01*
X185145640Y-92869000D01*
X185654360Y-92869000D01*
X185681938Y-92871716D01*
X185681938Y-92871716D01*
G37*
G36*
X175424410Y-78433605D02*
G01*
X175530733Y-78454754D01*
X175831196Y-78579210D01*
X176101605Y-78759892D01*
X176331569Y-78989856D01*
X176512251Y-79260265D01*
X176636707Y-79560728D01*
X176700154Y-79879698D01*
X176700154Y-80204916D01*
X176636707Y-80523886D01*
X176512251Y-80824349D01*
X176331569Y-81094758D01*
X176101605Y-81324722D01*
X175831196Y-81505404D01*
X175530733Y-81629860D01*
X175424410Y-81651009D01*
X175211765Y-81693307D01*
X174886543Y-81693307D01*
X174673898Y-81651009D01*
X174567575Y-81629860D01*
X174267112Y-81505404D01*
X173996703Y-81324722D01*
X173766739Y-81094758D01*
X173586057Y-80824349D01*
X173461601Y-80523886D01*
X173398154Y-80204916D01*
X173398154Y-79879698D01*
X173461601Y-79560728D01*
X173586057Y-79260265D01*
X173766739Y-78989856D01*
X173996703Y-78759892D01*
X174267112Y-78579210D01*
X174567575Y-78454754D01*
X174673898Y-78433605D01*
X174886543Y-78391307D01*
X175211765Y-78391307D01*
X175424410Y-78433605D01*
X175424410Y-78433605D01*
G37*
G36*
X146326102Y-78433605D02*
G01*
X146432425Y-78454754D01*
X146732888Y-78579210D01*
X147003297Y-78759892D01*
X147233261Y-78989856D01*
X147413943Y-79260265D01*
X147538399Y-79560728D01*
X147601846Y-79879698D01*
X147601846Y-80204916D01*
X147538399Y-80523886D01*
X147413943Y-80824349D01*
X147233261Y-81094758D01*
X147003297Y-81324722D01*
X146732888Y-81505404D01*
X146432425Y-81629860D01*
X146326102Y-81651009D01*
X146113457Y-81693307D01*
X145788235Y-81693307D01*
X145575590Y-81651009D01*
X145469267Y-81629860D01*
X145168804Y-81505404D01*
X144898395Y-81324722D01*
X144668431Y-81094758D01*
X144487749Y-80824349D01*
X144363293Y-80523886D01*
X144299846Y-80204916D01*
X144299846Y-79879698D01*
X144363293Y-79560728D01*
X144487749Y-79260265D01*
X144668431Y-78989856D01*
X144898395Y-78759892D01*
X145168804Y-78579210D01*
X145469267Y-78454754D01*
X145575590Y-78433605D01*
X145788235Y-78391307D01*
X146113457Y-78391307D01*
X146326102Y-78433605D01*
X146326102Y-78433605D01*
G37*
G36*
X156367395Y-77125546D02*
G01*
X156540466Y-77197234D01*
X156540467Y-77197235D01*
X156696227Y-77301310D01*
X156828690Y-77433773D01*
X156828691Y-77433775D01*
X156932766Y-77589534D01*
X157004454Y-77762605D01*
X157041000Y-77946333D01*
X157041000Y-78133667D01*
X157004454Y-78317395D01*
X156932766Y-78490466D01*
X156932765Y-78490467D01*
X156828690Y-78646227D01*
X156696227Y-78778690D01*
X156617818Y-78831081D01*
X156540466Y-78882766D01*
X156367395Y-78954454D01*
X156183667Y-78991000D01*
X155996333Y-78991000D01*
X155812605Y-78954454D01*
X155639534Y-78882766D01*
X155562182Y-78831081D01*
X155483773Y-78778690D01*
X155351310Y-78646227D01*
X155247235Y-78490467D01*
X155247234Y-78490466D01*
X155175546Y-78317395D01*
X155139000Y-78133667D01*
X155139000Y-77946333D01*
X155175546Y-77762605D01*
X155247234Y-77589534D01*
X155351309Y-77433775D01*
X155351310Y-77433773D01*
X155483773Y-77301310D01*
X155639533Y-77197235D01*
X155639534Y-77197234D01*
X155812605Y-77125546D01*
X155996333Y-77089000D01*
X156183667Y-77089000D01*
X156367395Y-77125546D01*
X156367395Y-77125546D01*
G37*
G36*
X158907395Y-77125546D02*
G01*
X159080466Y-77197234D01*
X159080467Y-77197235D01*
X159236227Y-77301310D01*
X159368690Y-77433773D01*
X159368691Y-77433775D01*
X159472766Y-77589534D01*
X159544454Y-77762605D01*
X159581000Y-77946333D01*
X159581000Y-78133667D01*
X159544454Y-78317395D01*
X159472766Y-78490466D01*
X159472765Y-78490467D01*
X159368690Y-78646227D01*
X159236227Y-78778690D01*
X159157818Y-78831081D01*
X159080466Y-78882766D01*
X158907395Y-78954454D01*
X158723667Y-78991000D01*
X158536333Y-78991000D01*
X158352605Y-78954454D01*
X158179534Y-78882766D01*
X158102182Y-78831081D01*
X158023773Y-78778690D01*
X157891310Y-78646227D01*
X157787235Y-78490467D01*
X157787234Y-78490466D01*
X157715546Y-78317395D01*
X157679000Y-78133667D01*
X157679000Y-77946333D01*
X157715546Y-77762605D01*
X157787234Y-77589534D01*
X157891309Y-77433775D01*
X157891310Y-77433773D01*
X158023773Y-77301310D01*
X158179533Y-77197235D01*
X158179534Y-77197234D01*
X158352605Y-77125546D01*
X158536333Y-77089000D01*
X158723667Y-77089000D01*
X158907395Y-77125546D01*
X158907395Y-77125546D01*
G37*
G36*
X161447395Y-77125546D02*
G01*
X161620466Y-77197234D01*
X161620467Y-77197235D01*
X161776227Y-77301310D01*
X161908690Y-77433773D01*
X161908691Y-77433775D01*
X162012766Y-77589534D01*
X162084454Y-77762605D01*
X162121000Y-77946333D01*
X162121000Y-78133667D01*
X162084454Y-78317395D01*
X162012766Y-78490466D01*
X162012765Y-78490467D01*
X161908690Y-78646227D01*
X161776227Y-78778690D01*
X161697818Y-78831081D01*
X161620466Y-78882766D01*
X161447395Y-78954454D01*
X161263667Y-78991000D01*
X161076333Y-78991000D01*
X160892605Y-78954454D01*
X160719534Y-78882766D01*
X160642182Y-78831081D01*
X160563773Y-78778690D01*
X160431310Y-78646227D01*
X160327235Y-78490467D01*
X160327234Y-78490466D01*
X160255546Y-78317395D01*
X160219000Y-78133667D01*
X160219000Y-77946333D01*
X160255546Y-77762605D01*
X160327234Y-77589534D01*
X160431309Y-77433775D01*
X160431310Y-77433773D01*
X160563773Y-77301310D01*
X160719533Y-77197235D01*
X160719534Y-77197234D01*
X160892605Y-77125546D01*
X161076333Y-77089000D01*
X161263667Y-77089000D01*
X161447395Y-77125546D01*
X161447395Y-77125546D01*
G37*
G36*
X163987395Y-77125546D02*
G01*
X164160466Y-77197234D01*
X164160467Y-77197235D01*
X164316227Y-77301310D01*
X164448690Y-77433773D01*
X164448691Y-77433775D01*
X164552766Y-77589534D01*
X164624454Y-77762605D01*
X164661000Y-77946333D01*
X164661000Y-78133667D01*
X164624454Y-78317395D01*
X164552766Y-78490466D01*
X164552765Y-78490467D01*
X164448690Y-78646227D01*
X164316227Y-78778690D01*
X164237818Y-78831081D01*
X164160466Y-78882766D01*
X163987395Y-78954454D01*
X163803667Y-78991000D01*
X163616333Y-78991000D01*
X163432605Y-78954454D01*
X163259534Y-78882766D01*
X163182182Y-78831081D01*
X163103773Y-78778690D01*
X162971310Y-78646227D01*
X162867235Y-78490467D01*
X162867234Y-78490466D01*
X162795546Y-78317395D01*
X162759000Y-78133667D01*
X162759000Y-77946333D01*
X162795546Y-77762605D01*
X162867234Y-77589534D01*
X162971309Y-77433775D01*
X162971310Y-77433773D01*
X163103773Y-77301310D01*
X163259533Y-77197235D01*
X163259534Y-77197234D01*
X163432605Y-77125546D01*
X163616333Y-77089000D01*
X163803667Y-77089000D01*
X163987395Y-77125546D01*
X163987395Y-77125546D01*
G37*
G36*
X166527395Y-77125546D02*
G01*
X166700466Y-77197234D01*
X166700467Y-77197235D01*
X166856227Y-77301310D01*
X166988690Y-77433773D01*
X166988691Y-77433775D01*
X167092766Y-77589534D01*
X167164454Y-77762605D01*
X167201000Y-77946333D01*
X167201000Y-78133667D01*
X167164454Y-78317395D01*
X167092766Y-78490466D01*
X167092765Y-78490467D01*
X166988690Y-78646227D01*
X166856227Y-78778690D01*
X166777818Y-78831081D01*
X166700466Y-78882766D01*
X166527395Y-78954454D01*
X166343667Y-78991000D01*
X166156333Y-78991000D01*
X165972605Y-78954454D01*
X165799534Y-78882766D01*
X165722182Y-78831081D01*
X165643773Y-78778690D01*
X165511310Y-78646227D01*
X165407235Y-78490467D01*
X165407234Y-78490466D01*
X165335546Y-78317395D01*
X165299000Y-78133667D01*
X165299000Y-77946333D01*
X165335546Y-77762605D01*
X165407234Y-77589534D01*
X165511309Y-77433775D01*
X165511310Y-77433773D01*
X165643773Y-77301310D01*
X165799533Y-77197235D01*
X165799534Y-77197234D01*
X165972605Y-77125546D01*
X166156333Y-77089000D01*
X166343667Y-77089000D01*
X166527395Y-77125546D01*
X166527395Y-77125546D01*
G37*
G36*
X155771000Y-76451000D02*
G01*
X154003300Y-76451000D01*
X153978914Y-76453402D01*
X153955465Y-76460515D01*
X153933854Y-76472066D01*
X153914912Y-76487611D01*
X153899367Y-76506553D01*
X153887816Y-76528164D01*
X153880703Y-76551613D01*
X153878301Y-76575999D01*
X153880703Y-76600385D01*
X153887816Y-76623834D01*
X153899367Y-76645445D01*
X153914912Y-76664387D01*
X153927904Y-76675049D01*
X153930637Y-76677782D01*
X153930640Y-76677784D01*
X154042216Y-76789360D01*
X154042217Y-76789362D01*
X154129882Y-76920562D01*
X154190267Y-77066343D01*
X154221050Y-77221102D01*
X154221050Y-77378898D01*
X154190267Y-77533657D01*
X154129882Y-77679438D01*
X154129881Y-77679439D01*
X154042216Y-77810640D01*
X153930640Y-77922216D01*
X153894546Y-77946333D01*
X153799438Y-78009882D01*
X153653657Y-78070267D01*
X153498898Y-78101050D01*
X153341102Y-78101050D01*
X153186343Y-78070267D01*
X153040562Y-78009882D01*
X152945454Y-77946333D01*
X152909360Y-77922216D01*
X152797784Y-77810640D01*
X152710119Y-77679439D01*
X152710118Y-77679438D01*
X152649733Y-77533657D01*
X152618950Y-77378898D01*
X152618950Y-77221102D01*
X152649733Y-77066343D01*
X152710118Y-76920562D01*
X152797783Y-76789362D01*
X152797784Y-76789360D01*
X152909360Y-76677784D01*
X152975406Y-76633654D01*
X153040562Y-76590118D01*
X153186343Y-76529733D01*
X153341102Y-76498950D01*
X153498898Y-76498950D01*
X153653655Y-76529733D01*
X153653657Y-76529734D01*
X153653658Y-76529734D01*
X153668278Y-76535790D01*
X153696165Y-76547341D01*
X153719614Y-76554454D01*
X153744000Y-76556856D01*
X153768386Y-76554454D01*
X153791835Y-76547341D01*
X153813446Y-76535790D01*
X153832388Y-76520245D01*
X153847933Y-76501303D01*
X153859485Y-76479693D01*
X153866598Y-76456244D01*
X153869000Y-76431857D01*
X153869000Y-74549000D01*
X155771000Y-74549000D01*
X155771000Y-76451000D01*
X155771000Y-76451000D01*
G37*
G36*
X157637395Y-74585546D02*
G01*
X157810466Y-74657234D01*
X157810467Y-74657235D01*
X157966227Y-74761310D01*
X158098690Y-74893773D01*
X158098691Y-74893775D01*
X158202766Y-75049534D01*
X158274454Y-75222605D01*
X158311000Y-75406333D01*
X158311000Y-75593667D01*
X158274454Y-75777395D01*
X158202766Y-75950466D01*
X158202765Y-75950467D01*
X158098690Y-76106227D01*
X157966227Y-76238690D01*
X157887818Y-76291081D01*
X157810466Y-76342766D01*
X157637395Y-76414454D01*
X157453667Y-76451000D01*
X157266333Y-76451000D01*
X157082605Y-76414454D01*
X156909534Y-76342766D01*
X156832182Y-76291081D01*
X156753773Y-76238690D01*
X156621310Y-76106227D01*
X156517235Y-75950467D01*
X156517234Y-75950466D01*
X156445546Y-75777395D01*
X156409000Y-75593667D01*
X156409000Y-75406333D01*
X156445546Y-75222605D01*
X156517234Y-75049534D01*
X156621309Y-74893775D01*
X156621310Y-74893773D01*
X156753773Y-74761310D01*
X156909533Y-74657235D01*
X156909534Y-74657234D01*
X157082605Y-74585546D01*
X157266333Y-74549000D01*
X157453667Y-74549000D01*
X157637395Y-74585546D01*
X157637395Y-74585546D01*
G37*
G36*
X160177395Y-74585546D02*
G01*
X160350466Y-74657234D01*
X160350467Y-74657235D01*
X160506227Y-74761310D01*
X160638690Y-74893773D01*
X160638691Y-74893775D01*
X160742766Y-75049534D01*
X160814454Y-75222605D01*
X160851000Y-75406333D01*
X160851000Y-75593667D01*
X160814454Y-75777395D01*
X160742766Y-75950466D01*
X160742765Y-75950467D01*
X160638690Y-76106227D01*
X160506227Y-76238690D01*
X160427818Y-76291081D01*
X160350466Y-76342766D01*
X160177395Y-76414454D01*
X159993667Y-76451000D01*
X159806333Y-76451000D01*
X159622605Y-76414454D01*
X159449534Y-76342766D01*
X159372182Y-76291081D01*
X159293773Y-76238690D01*
X159161310Y-76106227D01*
X159057235Y-75950467D01*
X159057234Y-75950466D01*
X158985546Y-75777395D01*
X158949000Y-75593667D01*
X158949000Y-75406333D01*
X158985546Y-75222605D01*
X159057234Y-75049534D01*
X159161309Y-74893775D01*
X159161310Y-74893773D01*
X159293773Y-74761310D01*
X159449533Y-74657235D01*
X159449534Y-74657234D01*
X159622605Y-74585546D01*
X159806333Y-74549000D01*
X159993667Y-74549000D01*
X160177395Y-74585546D01*
X160177395Y-74585546D01*
G37*
G36*
X162717395Y-74585546D02*
G01*
X162890466Y-74657234D01*
X162890467Y-74657235D01*
X163046227Y-74761310D01*
X163178690Y-74893773D01*
X163178691Y-74893775D01*
X163282766Y-75049534D01*
X163354454Y-75222605D01*
X163391000Y-75406333D01*
X163391000Y-75593667D01*
X163354454Y-75777395D01*
X163282766Y-75950466D01*
X163282765Y-75950467D01*
X163178690Y-76106227D01*
X163046227Y-76238690D01*
X162967818Y-76291081D01*
X162890466Y-76342766D01*
X162717395Y-76414454D01*
X162533667Y-76451000D01*
X162346333Y-76451000D01*
X162162605Y-76414454D01*
X161989534Y-76342766D01*
X161912182Y-76291081D01*
X161833773Y-76238690D01*
X161701310Y-76106227D01*
X161597235Y-75950467D01*
X161597234Y-75950466D01*
X161525546Y-75777395D01*
X161489000Y-75593667D01*
X161489000Y-75406333D01*
X161525546Y-75222605D01*
X161597234Y-75049534D01*
X161701309Y-74893775D01*
X161701310Y-74893773D01*
X161833773Y-74761310D01*
X161989533Y-74657235D01*
X161989534Y-74657234D01*
X162162605Y-74585546D01*
X162346333Y-74549000D01*
X162533667Y-74549000D01*
X162717395Y-74585546D01*
X162717395Y-74585546D01*
G37*
G36*
X165257395Y-74585546D02*
G01*
X165430466Y-74657234D01*
X165430467Y-74657235D01*
X165586227Y-74761310D01*
X165718690Y-74893773D01*
X165718691Y-74893775D01*
X165822766Y-75049534D01*
X165894454Y-75222605D01*
X165931000Y-75406333D01*
X165931000Y-75593667D01*
X165894454Y-75777395D01*
X165822766Y-75950466D01*
X165822765Y-75950467D01*
X165718690Y-76106227D01*
X165586227Y-76238690D01*
X165507818Y-76291081D01*
X165430466Y-76342766D01*
X165257395Y-76414454D01*
X165073667Y-76451000D01*
X164886333Y-76451000D01*
X164702605Y-76414454D01*
X164529534Y-76342766D01*
X164452182Y-76291081D01*
X164373773Y-76238690D01*
X164241310Y-76106227D01*
X164137235Y-75950467D01*
X164137234Y-75950466D01*
X164065546Y-75777395D01*
X164029000Y-75593667D01*
X164029000Y-75406333D01*
X164065546Y-75222605D01*
X164137234Y-75049534D01*
X164241309Y-74893775D01*
X164241310Y-74893773D01*
X164373773Y-74761310D01*
X164529533Y-74657235D01*
X164529534Y-74657234D01*
X164702605Y-74585546D01*
X164886333Y-74549000D01*
X165073667Y-74549000D01*
X165257395Y-74585546D01*
X165257395Y-74585546D01*
G37*
M02*
