G04 #@! TF.GenerationSoftware,KiCad,Pcbnew,5.0.2-bee76a0~70~ubuntu18.04.1*
G04 #@! TF.CreationDate,2019-08-19T12:56:06+02:00*
G04 #@! TF.ProjectId,roboy_3.0_40mm_ball_sensor,726f626f-795f-4332-9e30-5f34306d6d5f,rev?*
G04 #@! TF.SameCoordinates,Original*
G04 #@! TF.FileFunction,Soldermask,Bot*
G04 #@! TF.FilePolarity,Negative*
%FSLAX46Y46*%
G04 Gerber Fmt 4.6, Leading zero omitted, Abs format (unit mm)*
G04 Created by KiCad (PCBNEW 5.0.2-bee76a0~70~ubuntu18.04.1) date Mo 19 Aug 2019 12:56:06 CEST*
%MOMM*%
%LPD*%
G01*
G04 APERTURE LIST*
%ADD10C,0.100000*%
G04 APERTURE END LIST*
D10*
G36*
X160875256Y-123211298D02*
X160981579Y-123232447D01*
X161282042Y-123356903D01*
X161548852Y-123535180D01*
X161552454Y-123537587D01*
X161782413Y-123767546D01*
X161963098Y-124037960D01*
X162087553Y-124338422D01*
X162151000Y-124657389D01*
X162151000Y-124982611D01*
X162087553Y-125301578D01*
X161963098Y-125602040D01*
X161782413Y-125872454D01*
X161552454Y-126102413D01*
X161552451Y-126102415D01*
X161282042Y-126283097D01*
X160981579Y-126407553D01*
X160875256Y-126428702D01*
X160662611Y-126471000D01*
X160337389Y-126471000D01*
X160124744Y-126428702D01*
X160018421Y-126407553D01*
X159717958Y-126283097D01*
X159447549Y-126102415D01*
X159447546Y-126102413D01*
X159217587Y-125872454D01*
X159036902Y-125602040D01*
X158912447Y-125301578D01*
X158849000Y-124982611D01*
X158849000Y-124657389D01*
X158912447Y-124338422D01*
X159036902Y-124037960D01*
X159217587Y-123767546D01*
X159447546Y-123537587D01*
X159451148Y-123535180D01*
X159717958Y-123356903D01*
X160018421Y-123232447D01*
X160124744Y-123211298D01*
X160337389Y-123169000D01*
X160662611Y-123169000D01*
X160875256Y-123211298D01*
X160875256Y-123211298D01*
G37*
G36*
X184416282Y-106107741D02*
X184522605Y-106128890D01*
X184823068Y-106253346D01*
X185089878Y-106431623D01*
X185093480Y-106434030D01*
X185323439Y-106663989D01*
X185504124Y-106934403D01*
X185628579Y-107234865D01*
X185692026Y-107553832D01*
X185692026Y-107879054D01*
X185628579Y-108198021D01*
X185504124Y-108498483D01*
X185323439Y-108768897D01*
X185093480Y-108998856D01*
X185093477Y-108998858D01*
X184823068Y-109179540D01*
X184522605Y-109303996D01*
X184416282Y-109325145D01*
X184203637Y-109367443D01*
X183878415Y-109367443D01*
X183665770Y-109325145D01*
X183559447Y-109303996D01*
X183258984Y-109179540D01*
X182988575Y-108998858D01*
X182988572Y-108998856D01*
X182758613Y-108768897D01*
X182577928Y-108498483D01*
X182453473Y-108198021D01*
X182390026Y-107879054D01*
X182390026Y-107553832D01*
X182453473Y-107234865D01*
X182577928Y-106934403D01*
X182758613Y-106663989D01*
X182988572Y-106434030D01*
X182992174Y-106431623D01*
X183258984Y-106253346D01*
X183559447Y-106128890D01*
X183665770Y-106107741D01*
X183878415Y-106065443D01*
X184203637Y-106065443D01*
X184416282Y-106107741D01*
X184416282Y-106107741D01*
G37*
G36*
X137334230Y-106107741D02*
X137440553Y-106128890D01*
X137741016Y-106253346D01*
X138007826Y-106431623D01*
X138011428Y-106434030D01*
X138241387Y-106663989D01*
X138422072Y-106934403D01*
X138546527Y-107234865D01*
X138609974Y-107553832D01*
X138609974Y-107879054D01*
X138546527Y-108198021D01*
X138422072Y-108498483D01*
X138241387Y-108768897D01*
X138011428Y-108998856D01*
X138011425Y-108998858D01*
X137741016Y-109179540D01*
X137440553Y-109303996D01*
X137334230Y-109325145D01*
X137121585Y-109367443D01*
X136796363Y-109367443D01*
X136583718Y-109325145D01*
X136477395Y-109303996D01*
X136176932Y-109179540D01*
X135906523Y-108998858D01*
X135906520Y-108998856D01*
X135676561Y-108768897D01*
X135495876Y-108498483D01*
X135371421Y-108198021D01*
X135307974Y-107879054D01*
X135307974Y-107553832D01*
X135371421Y-107234865D01*
X135495876Y-106934403D01*
X135676561Y-106663989D01*
X135906520Y-106434030D01*
X135910122Y-106431623D01*
X136176932Y-106253346D01*
X136477395Y-106128890D01*
X136583718Y-106107741D01*
X136796363Y-106065443D01*
X137121585Y-106065443D01*
X137334230Y-106107741D01*
X137334230Y-106107741D01*
G37*
G36*
X146326102Y-78433605D02*
X146432425Y-78454754D01*
X146732888Y-78579210D01*
X146999698Y-78757487D01*
X147003300Y-78759894D01*
X147233259Y-78989853D01*
X147413944Y-79260267D01*
X147538399Y-79560729D01*
X147601846Y-79879696D01*
X147601846Y-80204918D01*
X147538399Y-80523885D01*
X147413944Y-80824347D01*
X147233259Y-81094761D01*
X147003300Y-81324720D01*
X147003297Y-81324722D01*
X146732888Y-81505404D01*
X146432425Y-81629860D01*
X146326102Y-81651009D01*
X146113457Y-81693307D01*
X145788235Y-81693307D01*
X145575590Y-81651009D01*
X145469267Y-81629860D01*
X145168804Y-81505404D01*
X144898395Y-81324722D01*
X144898392Y-81324720D01*
X144668433Y-81094761D01*
X144487748Y-80824347D01*
X144363293Y-80523885D01*
X144299846Y-80204918D01*
X144299846Y-79879696D01*
X144363293Y-79560729D01*
X144487748Y-79260267D01*
X144668433Y-78989853D01*
X144898392Y-78759894D01*
X144901994Y-78757487D01*
X145168804Y-78579210D01*
X145469267Y-78454754D01*
X145575590Y-78433605D01*
X145788235Y-78391307D01*
X146113457Y-78391307D01*
X146326102Y-78433605D01*
X146326102Y-78433605D01*
G37*
G36*
X175424410Y-78433605D02*
X175530733Y-78454754D01*
X175831196Y-78579210D01*
X176098006Y-78757487D01*
X176101608Y-78759894D01*
X176331567Y-78989853D01*
X176512252Y-79260267D01*
X176636707Y-79560729D01*
X176700154Y-79879696D01*
X176700154Y-80204918D01*
X176636707Y-80523885D01*
X176512252Y-80824347D01*
X176331567Y-81094761D01*
X176101608Y-81324720D01*
X176101605Y-81324722D01*
X175831196Y-81505404D01*
X175530733Y-81629860D01*
X175424410Y-81651009D01*
X175211765Y-81693307D01*
X174886543Y-81693307D01*
X174673898Y-81651009D01*
X174567575Y-81629860D01*
X174267112Y-81505404D01*
X173996703Y-81324722D01*
X173996700Y-81324720D01*
X173766741Y-81094761D01*
X173586056Y-80824347D01*
X173461601Y-80523885D01*
X173398154Y-80204918D01*
X173398154Y-79879696D01*
X173461601Y-79560729D01*
X173586056Y-79260267D01*
X173766741Y-78989853D01*
X173996700Y-78759894D01*
X174000302Y-78757487D01*
X174267112Y-78579210D01*
X174567575Y-78454754D01*
X174673898Y-78433605D01*
X174886543Y-78391307D01*
X175211765Y-78391307D01*
X175424410Y-78433605D01*
X175424410Y-78433605D01*
G37*
G36*
X151330442Y-74105518D02*
X151396627Y-74112037D01*
X151509853Y-74146384D01*
X151566467Y-74163557D01*
X151705087Y-74237652D01*
X151722991Y-74247222D01*
X151758729Y-74276552D01*
X151860186Y-74359814D01*
X151943448Y-74461271D01*
X151972778Y-74497009D01*
X151972779Y-74497011D01*
X152056443Y-74653533D01*
X152056443Y-74653534D01*
X152107963Y-74823373D01*
X152125359Y-75000000D01*
X152107963Y-75176627D01*
X152073616Y-75289853D01*
X152056443Y-75346467D01*
X151982348Y-75485087D01*
X151972778Y-75502991D01*
X151943448Y-75538729D01*
X151860186Y-75640186D01*
X151758729Y-75723448D01*
X151722991Y-75752778D01*
X151722989Y-75752779D01*
X151566467Y-75836443D01*
X151509853Y-75853616D01*
X151396627Y-75887963D01*
X151330443Y-75894481D01*
X151264260Y-75901000D01*
X151175740Y-75901000D01*
X151109557Y-75894481D01*
X151043373Y-75887963D01*
X150930147Y-75853616D01*
X150873533Y-75836443D01*
X150717011Y-75752779D01*
X150717009Y-75752778D01*
X150681271Y-75723448D01*
X150579814Y-75640186D01*
X150496552Y-75538729D01*
X150467222Y-75502991D01*
X150457652Y-75485087D01*
X150383557Y-75346467D01*
X150366384Y-75289853D01*
X150332037Y-75176627D01*
X150314641Y-75000000D01*
X150332037Y-74823373D01*
X150383557Y-74653534D01*
X150383557Y-74653533D01*
X150467221Y-74497011D01*
X150467222Y-74497009D01*
X150496552Y-74461271D01*
X150579814Y-74359814D01*
X150681271Y-74276552D01*
X150717009Y-74247222D01*
X150734913Y-74237652D01*
X150873533Y-74163557D01*
X150930147Y-74146384D01*
X151043373Y-74112037D01*
X151109558Y-74105518D01*
X151175740Y-74099000D01*
X151264260Y-74099000D01*
X151330442Y-74105518D01*
X151330442Y-74105518D01*
G37*
G36*
X169901000Y-75901000D02*
X168099000Y-75901000D01*
X168099000Y-74099000D01*
X169901000Y-74099000D01*
X169901000Y-75901000D01*
X169901000Y-75901000D01*
G37*
G36*
X153870442Y-74105518D02*
X153936627Y-74112037D01*
X154049853Y-74146384D01*
X154106467Y-74163557D01*
X154245087Y-74237652D01*
X154262991Y-74247222D01*
X154298729Y-74276552D01*
X154400186Y-74359814D01*
X154483448Y-74461271D01*
X154512778Y-74497009D01*
X154512779Y-74497011D01*
X154596443Y-74653533D01*
X154596443Y-74653534D01*
X154647963Y-74823373D01*
X154665359Y-75000000D01*
X154647963Y-75176627D01*
X154613616Y-75289853D01*
X154596443Y-75346467D01*
X154522348Y-75485087D01*
X154512778Y-75502991D01*
X154483448Y-75538729D01*
X154400186Y-75640186D01*
X154298729Y-75723448D01*
X154262991Y-75752778D01*
X154262989Y-75752779D01*
X154106467Y-75836443D01*
X154049853Y-75853616D01*
X153936627Y-75887963D01*
X153870443Y-75894481D01*
X153804260Y-75901000D01*
X153715740Y-75901000D01*
X153649557Y-75894481D01*
X153583373Y-75887963D01*
X153470147Y-75853616D01*
X153413533Y-75836443D01*
X153257011Y-75752779D01*
X153257009Y-75752778D01*
X153221271Y-75723448D01*
X153119814Y-75640186D01*
X153036552Y-75538729D01*
X153007222Y-75502991D01*
X152997652Y-75485087D01*
X152923557Y-75346467D01*
X152906384Y-75289853D01*
X152872037Y-75176627D01*
X152854641Y-75000000D01*
X152872037Y-74823373D01*
X152923557Y-74653534D01*
X152923557Y-74653533D01*
X153007221Y-74497011D01*
X153007222Y-74497009D01*
X153036552Y-74461271D01*
X153119814Y-74359814D01*
X153221271Y-74276552D01*
X153257009Y-74247222D01*
X153274913Y-74237652D01*
X153413533Y-74163557D01*
X153470147Y-74146384D01*
X153583373Y-74112037D01*
X153649558Y-74105518D01*
X153715740Y-74099000D01*
X153804260Y-74099000D01*
X153870442Y-74105518D01*
X153870442Y-74105518D01*
G37*
G36*
X156410442Y-74105518D02*
X156476627Y-74112037D01*
X156589853Y-74146384D01*
X156646467Y-74163557D01*
X156785087Y-74237652D01*
X156802991Y-74247222D01*
X156838729Y-74276552D01*
X156940186Y-74359814D01*
X157023448Y-74461271D01*
X157052778Y-74497009D01*
X157052779Y-74497011D01*
X157136443Y-74653533D01*
X157136443Y-74653534D01*
X157187963Y-74823373D01*
X157205359Y-75000000D01*
X157187963Y-75176627D01*
X157153616Y-75289853D01*
X157136443Y-75346467D01*
X157062348Y-75485087D01*
X157052778Y-75502991D01*
X157023448Y-75538729D01*
X156940186Y-75640186D01*
X156838729Y-75723448D01*
X156802991Y-75752778D01*
X156802989Y-75752779D01*
X156646467Y-75836443D01*
X156589853Y-75853616D01*
X156476627Y-75887963D01*
X156410443Y-75894481D01*
X156344260Y-75901000D01*
X156255740Y-75901000D01*
X156189557Y-75894481D01*
X156123373Y-75887963D01*
X156010147Y-75853616D01*
X155953533Y-75836443D01*
X155797011Y-75752779D01*
X155797009Y-75752778D01*
X155761271Y-75723448D01*
X155659814Y-75640186D01*
X155576552Y-75538729D01*
X155547222Y-75502991D01*
X155537652Y-75485087D01*
X155463557Y-75346467D01*
X155446384Y-75289853D01*
X155412037Y-75176627D01*
X155394641Y-75000000D01*
X155412037Y-74823373D01*
X155463557Y-74653534D01*
X155463557Y-74653533D01*
X155547221Y-74497011D01*
X155547222Y-74497009D01*
X155576552Y-74461271D01*
X155659814Y-74359814D01*
X155761271Y-74276552D01*
X155797009Y-74247222D01*
X155814913Y-74237652D01*
X155953533Y-74163557D01*
X156010147Y-74146384D01*
X156123373Y-74112037D01*
X156189558Y-74105518D01*
X156255740Y-74099000D01*
X156344260Y-74099000D01*
X156410442Y-74105518D01*
X156410442Y-74105518D01*
G37*
G36*
X158950442Y-74105518D02*
X159016627Y-74112037D01*
X159129853Y-74146384D01*
X159186467Y-74163557D01*
X159325087Y-74237652D01*
X159342991Y-74247222D01*
X159378729Y-74276552D01*
X159480186Y-74359814D01*
X159563448Y-74461271D01*
X159592778Y-74497009D01*
X159592779Y-74497011D01*
X159676443Y-74653533D01*
X159676443Y-74653534D01*
X159727963Y-74823373D01*
X159745359Y-75000000D01*
X159727963Y-75176627D01*
X159693616Y-75289853D01*
X159676443Y-75346467D01*
X159602348Y-75485087D01*
X159592778Y-75502991D01*
X159563448Y-75538729D01*
X159480186Y-75640186D01*
X159378729Y-75723448D01*
X159342991Y-75752778D01*
X159342989Y-75752779D01*
X159186467Y-75836443D01*
X159129853Y-75853616D01*
X159016627Y-75887963D01*
X158950443Y-75894481D01*
X158884260Y-75901000D01*
X158795740Y-75901000D01*
X158729557Y-75894481D01*
X158663373Y-75887963D01*
X158550147Y-75853616D01*
X158493533Y-75836443D01*
X158337011Y-75752779D01*
X158337009Y-75752778D01*
X158301271Y-75723448D01*
X158199814Y-75640186D01*
X158116552Y-75538729D01*
X158087222Y-75502991D01*
X158077652Y-75485087D01*
X158003557Y-75346467D01*
X157986384Y-75289853D01*
X157952037Y-75176627D01*
X157934641Y-75000000D01*
X157952037Y-74823373D01*
X158003557Y-74653534D01*
X158003557Y-74653533D01*
X158087221Y-74497011D01*
X158087222Y-74497009D01*
X158116552Y-74461271D01*
X158199814Y-74359814D01*
X158301271Y-74276552D01*
X158337009Y-74247222D01*
X158354913Y-74237652D01*
X158493533Y-74163557D01*
X158550147Y-74146384D01*
X158663373Y-74112037D01*
X158729558Y-74105518D01*
X158795740Y-74099000D01*
X158884260Y-74099000D01*
X158950442Y-74105518D01*
X158950442Y-74105518D01*
G37*
G36*
X161490442Y-74105518D02*
X161556627Y-74112037D01*
X161669853Y-74146384D01*
X161726467Y-74163557D01*
X161865087Y-74237652D01*
X161882991Y-74247222D01*
X161918729Y-74276552D01*
X162020186Y-74359814D01*
X162103448Y-74461271D01*
X162132778Y-74497009D01*
X162132779Y-74497011D01*
X162216443Y-74653533D01*
X162216443Y-74653534D01*
X162267963Y-74823373D01*
X162285359Y-75000000D01*
X162267963Y-75176627D01*
X162233616Y-75289853D01*
X162216443Y-75346467D01*
X162142348Y-75485087D01*
X162132778Y-75502991D01*
X162103448Y-75538729D01*
X162020186Y-75640186D01*
X161918729Y-75723448D01*
X161882991Y-75752778D01*
X161882989Y-75752779D01*
X161726467Y-75836443D01*
X161669853Y-75853616D01*
X161556627Y-75887963D01*
X161490443Y-75894481D01*
X161424260Y-75901000D01*
X161335740Y-75901000D01*
X161269557Y-75894481D01*
X161203373Y-75887963D01*
X161090147Y-75853616D01*
X161033533Y-75836443D01*
X160877011Y-75752779D01*
X160877009Y-75752778D01*
X160841271Y-75723448D01*
X160739814Y-75640186D01*
X160656552Y-75538729D01*
X160627222Y-75502991D01*
X160617652Y-75485087D01*
X160543557Y-75346467D01*
X160526384Y-75289853D01*
X160492037Y-75176627D01*
X160474641Y-75000000D01*
X160492037Y-74823373D01*
X160543557Y-74653534D01*
X160543557Y-74653533D01*
X160627221Y-74497011D01*
X160627222Y-74497009D01*
X160656552Y-74461271D01*
X160739814Y-74359814D01*
X160841271Y-74276552D01*
X160877009Y-74247222D01*
X160894913Y-74237652D01*
X161033533Y-74163557D01*
X161090147Y-74146384D01*
X161203373Y-74112037D01*
X161269558Y-74105518D01*
X161335740Y-74099000D01*
X161424260Y-74099000D01*
X161490442Y-74105518D01*
X161490442Y-74105518D01*
G37*
G36*
X164030442Y-74105518D02*
X164096627Y-74112037D01*
X164209853Y-74146384D01*
X164266467Y-74163557D01*
X164405087Y-74237652D01*
X164422991Y-74247222D01*
X164458729Y-74276552D01*
X164560186Y-74359814D01*
X164643448Y-74461271D01*
X164672778Y-74497009D01*
X164672779Y-74497011D01*
X164756443Y-74653533D01*
X164756443Y-74653534D01*
X164807963Y-74823373D01*
X164825359Y-75000000D01*
X164807963Y-75176627D01*
X164773616Y-75289853D01*
X164756443Y-75346467D01*
X164682348Y-75485087D01*
X164672778Y-75502991D01*
X164643448Y-75538729D01*
X164560186Y-75640186D01*
X164458729Y-75723448D01*
X164422991Y-75752778D01*
X164422989Y-75752779D01*
X164266467Y-75836443D01*
X164209853Y-75853616D01*
X164096627Y-75887963D01*
X164030443Y-75894481D01*
X163964260Y-75901000D01*
X163875740Y-75901000D01*
X163809557Y-75894481D01*
X163743373Y-75887963D01*
X163630147Y-75853616D01*
X163573533Y-75836443D01*
X163417011Y-75752779D01*
X163417009Y-75752778D01*
X163381271Y-75723448D01*
X163279814Y-75640186D01*
X163196552Y-75538729D01*
X163167222Y-75502991D01*
X163157652Y-75485087D01*
X163083557Y-75346467D01*
X163066384Y-75289853D01*
X163032037Y-75176627D01*
X163014641Y-75000000D01*
X163032037Y-74823373D01*
X163083557Y-74653534D01*
X163083557Y-74653533D01*
X163167221Y-74497011D01*
X163167222Y-74497009D01*
X163196552Y-74461271D01*
X163279814Y-74359814D01*
X163381271Y-74276552D01*
X163417009Y-74247222D01*
X163434913Y-74237652D01*
X163573533Y-74163557D01*
X163630147Y-74146384D01*
X163743373Y-74112037D01*
X163809558Y-74105518D01*
X163875740Y-74099000D01*
X163964260Y-74099000D01*
X164030442Y-74105518D01*
X164030442Y-74105518D01*
G37*
G36*
X166570442Y-74105518D02*
X166636627Y-74112037D01*
X166749853Y-74146384D01*
X166806467Y-74163557D01*
X166945087Y-74237652D01*
X166962991Y-74247222D01*
X166998729Y-74276552D01*
X167100186Y-74359814D01*
X167183448Y-74461271D01*
X167212778Y-74497009D01*
X167212779Y-74497011D01*
X167296443Y-74653533D01*
X167296443Y-74653534D01*
X167347963Y-74823373D01*
X167365359Y-75000000D01*
X167347963Y-75176627D01*
X167313616Y-75289853D01*
X167296443Y-75346467D01*
X167222348Y-75485087D01*
X167212778Y-75502991D01*
X167183448Y-75538729D01*
X167100186Y-75640186D01*
X166998729Y-75723448D01*
X166962991Y-75752778D01*
X166962989Y-75752779D01*
X166806467Y-75836443D01*
X166749853Y-75853616D01*
X166636627Y-75887963D01*
X166570443Y-75894481D01*
X166504260Y-75901000D01*
X166415740Y-75901000D01*
X166349557Y-75894481D01*
X166283373Y-75887963D01*
X166170147Y-75853616D01*
X166113533Y-75836443D01*
X165957011Y-75752779D01*
X165957009Y-75752778D01*
X165921271Y-75723448D01*
X165819814Y-75640186D01*
X165736552Y-75538729D01*
X165707222Y-75502991D01*
X165697652Y-75485087D01*
X165623557Y-75346467D01*
X165606384Y-75289853D01*
X165572037Y-75176627D01*
X165554641Y-75000000D01*
X165572037Y-74823373D01*
X165623557Y-74653534D01*
X165623557Y-74653533D01*
X165707221Y-74497011D01*
X165707222Y-74497009D01*
X165736552Y-74461271D01*
X165819814Y-74359814D01*
X165921271Y-74276552D01*
X165957009Y-74247222D01*
X165974913Y-74237652D01*
X166113533Y-74163557D01*
X166170147Y-74146384D01*
X166283373Y-74112037D01*
X166349558Y-74105518D01*
X166415740Y-74099000D01*
X166504260Y-74099000D01*
X166570442Y-74105518D01*
X166570442Y-74105518D01*
G37*
M02*
