M48
; DRILL file {KiCad 5.1.2-f72e74a~84~ubuntu18.04.1} date Mo 23 Sep 2019 03:00:44 CEST
; FORMAT={-:-/ absolute / inch / decimal}
; #@! TF.CreationDate,2019-09-23T03:00:44+02:00
; #@! TF.GenerationSoftware,Kicad,Pcbnew,5.1.2-f72e74a~84~ubuntu18.04.1
; #@! TF.FileFunction,Plated,1,2,PTH
FMAT,2
INCH
T1C0.0157
T2C0.0315
%
G90
G05
T1
X5.2795Y-3.8189
X5.437Y-3.6398
X5.5315Y-3.6772
X5.6535Y-4.6654
X5.811Y-4.7795
X6.9213Y-4.7795
X7.0591Y-4.6693
X7.2087Y-3.563
X7.2087Y-3.9173
X7.2205Y-3.4016
X7.2402Y-3.748
T2
X6.0953Y-2.9724
X6.1453Y-3.0724
X6.1953Y-2.9724
X6.2453Y-3.0724
X6.2953Y-2.9724
X6.3453Y-3.0724
X6.3953Y-2.9724
X6.4453Y-3.0724
X6.4953Y-2.9724
X6.5453Y-3.0724
T0
M30
