G04 #@! TF.GenerationSoftware,KiCad,Pcbnew,5.1.5-52549c5~84~ubuntu18.04.1*
G04 #@! TF.CreationDate,2020-06-09T16:27:21+02:00*
G04 #@! TF.ProjectId,roboy_3.0_40mm_ball_sensor,726f626f-795f-4332-9e30-5f34306d6d5f,rev?*
G04 #@! TF.SameCoordinates,Original*
G04 #@! TF.FileFunction,Other,Fab,Top*
%FSLAX46Y46*%
G04 Gerber Fmt 4.6, Leading zero omitted, Abs format (unit mm)*
G04 Created by KiCad (PCBNEW 5.1.5-52549c5~84~ubuntu18.04.1) date 2020-06-09 16:27:21*
%MOMM*%
%LPD*%
G04 APERTURE LIST*
%ADD10C,0.150000*%
%ADD11C,0.120000*%
%ADD12C,0.010000*%
%ADD13C,0.100000*%
%ADD14C,0.040000*%
G04 APERTURE END LIST*
D10*
X186783455Y-100000000D02*
G75*
G03X186783455Y-100000000I-26283455J0D01*
G01*
D11*
X182505681Y-100000000D02*
G75*
G03X182505681Y-100000000I-22005681J0D01*
G01*
D12*
X148817797Y-82719877D02*
X147201543Y-80133330D01*
X150119551Y-81906451D02*
X148503297Y-79319904D01*
X148503297Y-79319904D02*
X147201543Y-80133330D01*
X150119551Y-81906451D02*
X148817797Y-82719877D01*
D13*
X150908948Y-79461640D02*
X151332972Y-79196680D01*
X151332972Y-79196680D02*
X151862892Y-80044728D01*
X151862892Y-80044728D02*
X151438868Y-80309688D01*
X151438868Y-80309688D02*
X150908948Y-79461640D01*
X140809688Y-109061132D02*
X139961640Y-109591052D01*
X140544728Y-108637108D02*
X140809688Y-109061132D01*
X139696680Y-109167028D02*
X140544728Y-108637108D01*
X139961640Y-109591052D02*
X139696680Y-109167028D01*
X170091052Y-120538360D02*
X169667028Y-120803320D01*
X169667028Y-120803320D02*
X169137108Y-119955272D01*
X169137108Y-119955272D02*
X169561132Y-119690312D01*
X169561132Y-119690312D02*
X170091052Y-120538360D01*
X181038360Y-90408948D02*
X181303320Y-90832972D01*
X181303320Y-90832972D02*
X180455272Y-91362892D01*
X180455272Y-91362892D02*
X180190312Y-90938868D01*
X180190312Y-90938868D02*
X181038360Y-90408948D01*
D12*
X143219877Y-111682203D02*
X140633330Y-113298457D01*
X142406451Y-110380449D02*
X139819904Y-111996703D01*
X139819904Y-111996703D02*
X140633330Y-113298457D01*
X142406451Y-110380449D02*
X143219877Y-111682203D01*
X170880449Y-118093549D02*
X172182203Y-117280123D01*
X172496703Y-120680096D02*
X173798457Y-119866670D01*
X170880449Y-118093549D02*
X172496703Y-120680096D01*
X172182203Y-117280123D02*
X173798457Y-119866670D01*
X178593549Y-89619551D02*
X177780123Y-88317797D01*
X181180096Y-88003297D02*
X180366670Y-86701543D01*
X178593549Y-89619551D02*
X181180096Y-88003297D01*
X177780123Y-88317797D02*
X180366670Y-86701543D01*
D13*
X137900000Y-94400000D02*
G75*
G03X137900000Y-94400000I-500000J0D01*
G01*
X184600000Y-96900000D02*
G75*
G03X184600000Y-96900000I-500000J0D01*
G01*
X155400000Y-123800000D02*
G75*
G03X155400000Y-123800000I-500000J0D01*
G01*
D10*
X145368556Y-79299091D02*
X145671367Y-79783690D01*
X144671913Y-80071309D02*
X145519961Y-79541390D01*
X145252301Y-81000124D02*
X144999959Y-80596292D01*
X145848007Y-80066372D01*
X145873156Y-81005230D02*
X146049796Y-81287913D01*
X145681283Y-81686639D02*
X145428941Y-81282807D01*
X146276989Y-80752887D01*
X146529331Y-81156720D01*
X146700865Y-82060258D02*
X146135500Y-82413538D01*
X146897760Y-81656468D02*
X146165840Y-81833065D01*
X146493885Y-82358047D01*
X146438311Y-82898136D02*
X146539248Y-83059669D01*
X146630100Y-83115202D01*
X146695717Y-83130351D01*
X146867335Y-83135414D01*
X147054103Y-83074861D01*
X147377168Y-82872987D01*
X147432701Y-82782135D01*
X147447850Y-82716517D01*
X147437764Y-82610517D01*
X147336827Y-82448984D01*
X147245976Y-82393451D01*
X147180358Y-82378302D01*
X147074357Y-82388388D01*
X146872441Y-82514559D01*
X146816909Y-82605411D01*
X146801760Y-82671028D01*
X146811845Y-82777029D01*
X146912782Y-82938562D01*
X147003634Y-82994094D01*
X147069252Y-83009243D01*
X147175252Y-82999158D01*
X147715341Y-83054732D02*
X148043386Y-83579714D01*
X147543681Y-83498906D01*
X147619384Y-83620055D01*
X147629469Y-83726056D01*
X147614320Y-83791674D01*
X147558788Y-83882525D01*
X147356871Y-84008697D01*
X147250871Y-84018782D01*
X147185253Y-84003633D01*
X147094401Y-83948101D01*
X146942996Y-83705801D01*
X146932911Y-83599801D01*
X146948060Y-83534183D01*
X147649555Y-84836532D02*
X148497603Y-84306613D01*
X147689938Y-84811298D02*
X147599086Y-84755766D01*
X147498149Y-84594233D01*
X147488064Y-84488232D01*
X147503213Y-84422614D01*
X147558745Y-84331763D01*
X147801045Y-84180357D01*
X147907046Y-84170272D01*
X147972663Y-84185421D01*
X148063515Y-84240953D01*
X148164452Y-84402486D01*
X148174537Y-84508487D01*
X150254852Y-80824937D02*
X150189234Y-80809788D01*
X150073148Y-80713873D01*
X150022680Y-80633107D01*
X149987360Y-80486723D01*
X150017658Y-80355488D01*
X150073191Y-80264636D01*
X150209489Y-80123316D01*
X150330639Y-80047613D01*
X150517406Y-79987059D01*
X150623407Y-79976974D01*
X150754642Y-80007272D01*
X150870728Y-80103187D01*
X150921196Y-80183954D01*
X150956516Y-80330338D01*
X150941367Y-80395955D01*
D14*
X151288121Y-79765162D02*
X151271717Y-79761375D01*
X151242695Y-79737396D01*
X151230078Y-79717205D01*
X151221248Y-79680609D01*
X151228823Y-79647800D01*
X151242706Y-79625087D01*
X151276780Y-79589757D01*
X151307068Y-79570831D01*
X151353760Y-79555693D01*
X151380260Y-79553171D01*
X151413068Y-79560746D01*
X151442090Y-79584725D01*
X151454707Y-79604916D01*
X151463537Y-79641512D01*
X151459750Y-79657917D01*
X151394101Y-79979696D02*
X151318398Y-79858546D01*
X151356249Y-79919121D02*
X151568261Y-79786641D01*
X151525357Y-79785375D01*
X151492548Y-79777801D01*
X151469835Y-79763918D01*
D10*
X141324937Y-110245147D02*
X141309788Y-110310765D01*
X141213873Y-110426851D01*
X141133107Y-110477319D01*
X140986723Y-110512639D01*
X140855488Y-110482341D01*
X140764636Y-110426808D01*
X140623316Y-110290510D01*
X140547613Y-110169360D01*
X140487059Y-109982593D01*
X140476974Y-109876592D01*
X140507272Y-109745357D01*
X140603187Y-109629271D01*
X140683954Y-109578803D01*
X140830338Y-109543483D01*
X140895955Y-109558632D01*
D14*
X140265162Y-109211878D02*
X140261375Y-109228282D01*
X140237396Y-109257304D01*
X140217205Y-109269921D01*
X140180609Y-109278751D01*
X140147800Y-109271176D01*
X140125087Y-109257293D01*
X140089757Y-109223219D01*
X140070831Y-109192931D01*
X140055693Y-109146239D01*
X140053171Y-109119739D01*
X140060746Y-109086931D01*
X140084725Y-109057909D01*
X140104916Y-109045292D01*
X140141512Y-109036462D01*
X140157917Y-109040249D01*
X140238683Y-108989781D02*
X140242471Y-108973376D01*
X140256354Y-108950663D01*
X140306833Y-108919121D01*
X140333333Y-108916599D01*
X140349737Y-108920387D01*
X140372450Y-108934270D01*
X140385067Y-108954461D01*
X140393897Y-108991057D01*
X140348450Y-109187910D01*
X140479696Y-109105898D01*
D10*
X170467444Y-120078557D02*
X170401826Y-120063408D01*
X170285740Y-119967493D01*
X170235272Y-119886727D01*
X170199952Y-119740343D01*
X170230250Y-119609108D01*
X170285783Y-119518256D01*
X170422081Y-119376936D01*
X170543231Y-119301233D01*
X170729998Y-119240679D01*
X170835999Y-119230594D01*
X170967234Y-119260892D01*
X171083320Y-119356807D01*
X171133788Y-119437574D01*
X171169108Y-119583958D01*
X171153959Y-119649575D01*
D14*
X169516281Y-120258794D02*
X169499877Y-120255007D01*
X169470855Y-120231028D01*
X169458238Y-120210837D01*
X169449408Y-120174241D01*
X169456983Y-120141432D01*
X169470866Y-120118719D01*
X169504940Y-120083389D01*
X169535228Y-120064463D01*
X169581920Y-120049325D01*
X169608420Y-120046803D01*
X169641228Y-120054378D01*
X169670250Y-120078357D01*
X169682867Y-120098548D01*
X169691697Y-120135144D01*
X169687910Y-120151549D01*
X169752261Y-120209602D02*
X169834273Y-120340848D01*
X169709346Y-120320646D01*
X169728272Y-120350933D01*
X169730793Y-120377433D01*
X169727006Y-120393838D01*
X169713123Y-120416551D01*
X169662644Y-120448093D01*
X169636144Y-120450615D01*
X169619739Y-120446828D01*
X169597026Y-120432944D01*
X169559175Y-120372370D01*
X169556654Y-120345869D01*
X169560441Y-120329465D01*
D10*
X180578557Y-90032555D02*
X180563408Y-90098173D01*
X180467493Y-90214259D01*
X180386727Y-90264727D01*
X180240343Y-90300047D01*
X180109108Y-90269749D01*
X180018256Y-90214216D01*
X179876936Y-90077918D01*
X179801233Y-89956768D01*
X179740679Y-89770001D01*
X179730594Y-89664000D01*
X179760892Y-89532765D01*
X179856807Y-89416679D01*
X179937574Y-89366211D01*
X180083958Y-89330891D01*
X180149575Y-89346040D01*
D14*
X180758794Y-90983718D02*
X180755007Y-91000122D01*
X180731028Y-91029144D01*
X180710837Y-91041761D01*
X180674241Y-91050591D01*
X180641432Y-91043016D01*
X180618719Y-91029133D01*
X180583389Y-90995059D01*
X180564463Y-90964771D01*
X180549325Y-90918079D01*
X180546803Y-90891579D01*
X180554378Y-90858771D01*
X180578357Y-90829749D01*
X180598548Y-90817132D01*
X180635144Y-90808302D01*
X180651549Y-90812089D01*
X180864816Y-90749014D02*
X180953136Y-90890356D01*
X180763869Y-90699791D02*
X180808018Y-90882770D01*
X180939264Y-90800759D01*
D10*
X139799091Y-115131443D02*
X140283690Y-114828632D01*
X140571309Y-115828086D02*
X140041390Y-114980038D01*
X141500124Y-115247698D02*
X141096292Y-115500040D01*
X140566372Y-114651992D01*
X141505230Y-114626843D02*
X141787913Y-114450203D01*
X142186639Y-114818716D02*
X141782807Y-115071058D01*
X141252887Y-114223010D01*
X141656720Y-113970668D01*
X142560258Y-113799134D02*
X142913538Y-114364499D01*
X142156468Y-113602239D02*
X142333065Y-114334159D01*
X142858047Y-114006114D01*
X143398136Y-114061688D02*
X143559669Y-113960751D01*
X143615202Y-113869899D01*
X143630351Y-113804282D01*
X143635414Y-113632664D01*
X143574861Y-113445896D01*
X143372987Y-113122831D01*
X143282135Y-113067298D01*
X143216517Y-113052149D01*
X143110517Y-113062235D01*
X142948984Y-113163172D01*
X142893451Y-113254023D01*
X142878302Y-113319641D01*
X142888388Y-113425642D01*
X143014559Y-113627558D01*
X143105411Y-113683090D01*
X143171028Y-113698239D01*
X143277029Y-113688154D01*
X143438562Y-113587217D01*
X143494094Y-113496365D01*
X143509243Y-113430747D01*
X143499158Y-113324747D01*
X143554732Y-112784658D02*
X144079714Y-112456613D01*
X143998906Y-112956318D01*
X144120055Y-112880615D01*
X144226056Y-112870530D01*
X144291674Y-112885679D01*
X144382525Y-112941211D01*
X144508697Y-113143128D01*
X144518782Y-113249128D01*
X144503633Y-113314746D01*
X144448101Y-113405598D01*
X144205801Y-113557003D01*
X144099801Y-113567088D01*
X144034183Y-113551939D01*
X145336532Y-112850444D02*
X144806613Y-112002396D01*
X145311298Y-112810061D02*
X145255766Y-112900913D01*
X145094233Y-113001850D01*
X144988232Y-113011935D01*
X144922614Y-112996786D01*
X144831763Y-112941254D01*
X144680357Y-112698954D01*
X144670272Y-112592953D01*
X144685421Y-112527336D01*
X144740953Y-112436484D01*
X144902486Y-112335547D01*
X145008487Y-112325462D01*
X173355508Y-114991849D02*
X173658319Y-115476448D01*
X172658865Y-115764067D02*
X173506913Y-115234148D01*
X173239253Y-116692882D02*
X172986911Y-116289050D01*
X173834959Y-115759130D01*
X173860108Y-116697988D02*
X174036748Y-116980671D01*
X173668235Y-117379397D02*
X173415893Y-116975565D01*
X174263941Y-116445645D01*
X174516283Y-116849478D01*
X174687817Y-117753016D02*
X174122452Y-118106296D01*
X174884712Y-117349226D02*
X174152792Y-117525823D01*
X174480837Y-118050805D01*
X174425263Y-118590894D02*
X174526200Y-118752427D01*
X174617052Y-118807960D01*
X174682669Y-118823109D01*
X174854287Y-118828172D01*
X175041055Y-118767619D01*
X175364120Y-118565745D01*
X175419653Y-118474893D01*
X175434802Y-118409275D01*
X175424716Y-118303275D01*
X175323779Y-118141742D01*
X175232928Y-118086209D01*
X175167310Y-118071060D01*
X175061309Y-118081146D01*
X174859393Y-118207317D01*
X174803861Y-118298169D01*
X174788712Y-118363786D01*
X174798797Y-118469787D01*
X174899734Y-118631320D01*
X174990586Y-118686852D01*
X175056204Y-118702001D01*
X175162204Y-118691916D01*
X175702293Y-118747490D02*
X176030338Y-119272472D01*
X175530633Y-119191664D01*
X175606336Y-119312813D01*
X175616421Y-119418814D01*
X175601272Y-119484432D01*
X175545740Y-119575283D01*
X175343823Y-119701455D01*
X175237823Y-119711540D01*
X175172205Y-119696391D01*
X175081353Y-119640859D01*
X174929948Y-119398559D01*
X174919863Y-119292559D01*
X174935012Y-119226941D01*
X175636507Y-120529290D02*
X176484555Y-119999371D01*
X175676890Y-120504056D02*
X175586038Y-120448524D01*
X175485101Y-120286991D01*
X175475016Y-120180990D01*
X175490165Y-120115372D01*
X175545697Y-120024521D01*
X175787997Y-119873115D01*
X175893998Y-119863030D01*
X175959615Y-119878179D01*
X176050467Y-119933711D01*
X176151404Y-120095244D01*
X176161489Y-120201245D01*
X175491849Y-87144491D02*
X175976448Y-86841680D01*
X176264067Y-87841134D02*
X175734148Y-86993086D01*
X177192882Y-87260746D02*
X176789050Y-87513088D01*
X176259130Y-86665040D01*
X177197988Y-86639891D02*
X177480671Y-86463251D01*
X177879397Y-86831764D02*
X177475565Y-87084106D01*
X176945645Y-86236058D01*
X177349478Y-85983716D01*
X178253016Y-85812182D02*
X178606296Y-86377547D01*
X177849226Y-85615287D02*
X178025823Y-86347207D01*
X178550805Y-86019162D01*
X179090894Y-86074736D02*
X179252427Y-85973799D01*
X179307960Y-85882947D01*
X179323109Y-85817330D01*
X179328172Y-85645712D01*
X179267619Y-85458944D01*
X179065745Y-85135879D01*
X178974893Y-85080346D01*
X178909275Y-85065197D01*
X178803275Y-85075283D01*
X178641742Y-85176220D01*
X178586209Y-85267071D01*
X178571060Y-85332689D01*
X178581146Y-85438690D01*
X178707317Y-85640606D01*
X178798169Y-85696138D01*
X178863786Y-85711287D01*
X178969787Y-85701202D01*
X179131320Y-85600265D01*
X179186852Y-85509413D01*
X179202001Y-85443795D01*
X179191916Y-85337795D01*
X179247490Y-84797706D02*
X179772472Y-84469661D01*
X179691664Y-84969366D01*
X179812813Y-84893663D01*
X179918814Y-84883578D01*
X179984432Y-84898727D01*
X180075283Y-84954259D01*
X180201455Y-85156176D01*
X180211540Y-85262176D01*
X180196391Y-85327794D01*
X180140859Y-85418646D01*
X179898559Y-85570051D01*
X179792559Y-85580136D01*
X179726941Y-85564987D01*
X181029290Y-84863492D02*
X180499371Y-84015444D01*
X181004056Y-84823109D02*
X180948524Y-84913961D01*
X180786991Y-85014898D01*
X180680990Y-85024983D01*
X180615372Y-85009834D01*
X180524521Y-84954302D01*
X180373115Y-84712002D01*
X180363030Y-84606001D01*
X180378179Y-84540384D01*
X180433711Y-84449532D01*
X180595244Y-84348595D01*
X180701245Y-84338510D01*
X176382964Y-77349013D02*
X177090071Y-76641906D01*
X176820697Y-77382685D01*
X177561475Y-77113311D01*
X176854368Y-77820418D01*
X177292101Y-78258150D02*
X177258429Y-78157135D01*
X177258429Y-78089792D01*
X177292101Y-77988776D01*
X177494132Y-77786746D01*
X177595147Y-77753074D01*
X177662490Y-77753074D01*
X177763506Y-77786746D01*
X177864521Y-77887761D01*
X177898193Y-77988776D01*
X177898193Y-78056120D01*
X177864521Y-78157135D01*
X177662490Y-78359166D01*
X177561475Y-78392837D01*
X177494132Y-78392837D01*
X177393116Y-78359166D01*
X177292101Y-78258150D01*
X178605299Y-78628540D02*
X178133895Y-79099944D01*
X178302254Y-78325494D02*
X177931864Y-78695883D01*
X177898193Y-78796898D01*
X177931864Y-78897914D01*
X178032880Y-78998929D01*
X178133895Y-79032601D01*
X178201238Y-79032601D01*
X178942017Y-78965257D02*
X178470612Y-79436662D01*
X178874673Y-79032601D02*
X178942017Y-79032601D01*
X179043032Y-79066272D01*
X179144047Y-79167288D01*
X179177719Y-79268303D01*
X179144047Y-79369318D01*
X178773658Y-79739707D01*
X179480765Y-79504005D02*
X179750139Y-79773379D01*
X179817482Y-79369318D02*
X179211391Y-79975410D01*
X179177719Y-80076425D01*
X179211391Y-80177440D01*
X179278734Y-80244784D01*
X179514437Y-80480486D02*
X179985841Y-80009081D01*
X180221544Y-79773379D02*
X180154200Y-79773379D01*
X180154200Y-79840723D01*
X180221544Y-79840723D01*
X180221544Y-79773379D01*
X180154200Y-79840723D01*
X180322559Y-80345799D02*
X179851154Y-80817204D01*
X180255215Y-80413143D02*
X180322559Y-80413142D01*
X180423574Y-80446814D01*
X180524589Y-80547830D01*
X180558261Y-80648845D01*
X180524589Y-80749860D01*
X180154200Y-81120249D01*
X181265368Y-81288608D02*
X180692948Y-81861028D01*
X180591933Y-81894700D01*
X180524589Y-81894700D01*
X180423574Y-81861028D01*
X180322559Y-81760013D01*
X180288887Y-81658997D01*
X180827635Y-81726341D02*
X180726620Y-81692669D01*
X180591933Y-81557982D01*
X180558261Y-81456967D01*
X180558261Y-81389623D01*
X180591933Y-81288608D01*
X180793963Y-81086578D01*
X180894979Y-81052906D01*
X180962322Y-81052906D01*
X181063337Y-81086578D01*
X181198024Y-81221265D01*
X181231696Y-81322280D01*
X181130681Y-82096730D02*
X181837788Y-81389623D01*
X181501070Y-81726341D02*
X181905131Y-82130402D01*
X181534742Y-82500791D02*
X182241849Y-81793684D01*
X181972475Y-82938524D02*
X181938803Y-82837509D01*
X181938803Y-82770165D01*
X181972475Y-82669150D01*
X182174505Y-82467119D01*
X182275520Y-82433448D01*
X182342864Y-82433448D01*
X182443879Y-82467119D01*
X182544894Y-82568135D01*
X182578566Y-82669150D01*
X182578566Y-82736493D01*
X182544894Y-82837509D01*
X182342864Y-83039539D01*
X182241849Y-83073211D01*
X182174505Y-83073211D01*
X182073490Y-83039539D01*
X181972475Y-82938524D01*
X182612238Y-83578287D02*
X182578566Y-83477272D01*
X182612238Y-83376257D01*
X183218329Y-82770165D01*
X183184658Y-84083363D02*
X183083642Y-84049692D01*
X182948955Y-83915005D01*
X182915284Y-83813989D01*
X182948955Y-83712974D01*
X183218329Y-83443600D01*
X183319345Y-83409928D01*
X183420360Y-83443600D01*
X183555047Y-83578287D01*
X183588719Y-83679302D01*
X183555047Y-83780318D01*
X183487703Y-83847661D01*
X183083642Y-83578287D01*
X176046247Y-82951992D02*
X176753354Y-82244885D01*
X176416636Y-82581603D02*
X176820697Y-82985664D01*
X176450308Y-83356053D02*
X177157415Y-82648946D01*
X177157415Y-84063160D02*
X176753354Y-83659099D01*
X176955384Y-83861129D02*
X177662491Y-83154023D01*
X177494132Y-83187694D01*
X177359445Y-83187694D01*
X177258430Y-83154023D01*
X137849013Y-84117035D02*
X137141906Y-83409928D01*
X137882685Y-83679302D01*
X137613311Y-82938524D01*
X138320418Y-83645631D01*
X138758150Y-83207898D02*
X138657135Y-83241570D01*
X138589792Y-83241570D01*
X138488776Y-83207898D01*
X138286746Y-83005867D01*
X138253074Y-82904852D01*
X138253074Y-82837509D01*
X138286746Y-82736493D01*
X138387761Y-82635478D01*
X138488776Y-82601806D01*
X138556120Y-82601806D01*
X138657135Y-82635478D01*
X138859166Y-82837509D01*
X138892837Y-82938524D01*
X138892837Y-83005867D01*
X138859166Y-83106883D01*
X138758150Y-83207898D01*
X139128540Y-81894700D02*
X139599944Y-82366104D01*
X138825494Y-82197745D02*
X139195883Y-82568135D01*
X139296898Y-82601806D01*
X139397914Y-82568135D01*
X139498929Y-82467119D01*
X139532601Y-82366104D01*
X139532601Y-82298761D01*
X139465257Y-81557982D02*
X139936662Y-82029387D01*
X139532601Y-81625326D02*
X139532601Y-81557982D01*
X139566272Y-81456967D01*
X139667288Y-81355952D01*
X139768303Y-81322280D01*
X139869318Y-81355952D01*
X140239707Y-81726341D01*
X140004005Y-81019234D02*
X140273379Y-80749860D01*
X139869318Y-80682517D02*
X140475410Y-81288608D01*
X140576425Y-81322280D01*
X140677440Y-81288608D01*
X140744784Y-81221265D01*
X140980486Y-80985562D02*
X140509081Y-80514158D01*
X140273379Y-80278455D02*
X140273379Y-80345799D01*
X140340723Y-80345799D01*
X140340723Y-80278455D01*
X140273379Y-80278455D01*
X140340723Y-80345799D01*
X140845799Y-80177440D02*
X141317204Y-80648845D01*
X140913143Y-80244784D02*
X140913143Y-80177440D01*
X140946814Y-80076425D01*
X141047830Y-79975410D01*
X141148845Y-79941738D01*
X141249860Y-79975410D01*
X141620249Y-80345799D01*
X141788608Y-79234631D02*
X142361028Y-79807051D01*
X142394700Y-79908066D01*
X142394700Y-79975410D01*
X142361028Y-80076425D01*
X142260013Y-80177440D01*
X142158997Y-80211112D01*
X142226341Y-79672364D02*
X142192669Y-79773379D01*
X142057982Y-79908066D01*
X141956967Y-79941738D01*
X141889623Y-79941738D01*
X141788608Y-79908066D01*
X141586578Y-79706036D01*
X141552906Y-79605020D01*
X141552906Y-79537677D01*
X141586578Y-79436662D01*
X141721265Y-79301975D01*
X141822280Y-79268303D01*
X142596730Y-79369318D02*
X141889623Y-78662211D01*
X142226341Y-78998929D02*
X142630402Y-78594868D01*
X143000791Y-78965257D02*
X142293684Y-78258150D01*
X143438524Y-78527524D02*
X143337509Y-78561196D01*
X143270165Y-78561196D01*
X143169150Y-78527524D01*
X142967119Y-78325494D01*
X142933448Y-78224479D01*
X142933448Y-78157135D01*
X142967119Y-78056120D01*
X143068135Y-77955105D01*
X143169150Y-77921433D01*
X143236493Y-77921433D01*
X143337509Y-77955105D01*
X143539539Y-78157135D01*
X143573211Y-78258150D01*
X143573211Y-78325494D01*
X143539539Y-78426509D01*
X143438524Y-78527524D01*
X144078287Y-77887761D02*
X143977272Y-77921433D01*
X143876257Y-77887761D01*
X143270165Y-77281670D01*
X144583363Y-77315341D02*
X144549692Y-77416357D01*
X144415005Y-77551044D01*
X144313989Y-77584715D01*
X144212974Y-77551044D01*
X143943600Y-77281670D01*
X143909928Y-77180654D01*
X143943600Y-77079639D01*
X144078287Y-76944952D01*
X144179302Y-76911280D01*
X144280318Y-76944952D01*
X144347661Y-77012296D01*
X144078287Y-77416357D01*
X143451992Y-84453752D02*
X142744885Y-83746645D01*
X143081603Y-84083363D02*
X143485664Y-83679302D01*
X143856053Y-84049691D02*
X143148946Y-83342584D01*
X143519336Y-83106882D02*
X143519336Y-83039539D01*
X143553007Y-82938523D01*
X143721366Y-82770165D01*
X143822381Y-82736493D01*
X143889725Y-82736493D01*
X143990740Y-82770165D01*
X144058084Y-82837508D01*
X144125427Y-82972195D01*
X144125427Y-83780317D01*
X144563160Y-83342584D01*
X132026096Y-102167119D02*
X132996392Y-101925197D01*
X132383964Y-102421431D01*
X133157673Y-102572061D01*
X132187377Y-102813983D01*
X132337139Y-103414642D02*
X132360303Y-103310713D01*
X132394987Y-103252988D01*
X132475876Y-103183744D01*
X132753104Y-103114623D01*
X132857033Y-103137788D01*
X132914758Y-103172472D01*
X132984002Y-103253361D01*
X133018563Y-103391975D01*
X132995398Y-103495904D01*
X132960714Y-103553629D01*
X132879825Y-103622873D01*
X132602597Y-103691994D01*
X132498668Y-103668829D01*
X132440944Y-103634145D01*
X132371699Y-103553256D01*
X132337139Y-103414642D01*
X133272005Y-104408475D02*
X132625141Y-104569756D01*
X133168324Y-103992634D02*
X132660074Y-104119355D01*
X132579185Y-104188600D01*
X132556020Y-104292529D01*
X132590581Y-104431143D01*
X132659825Y-104512032D01*
X132717550Y-104546716D01*
X133387206Y-104870521D02*
X132740342Y-105031802D01*
X133294796Y-104893561D02*
X133352521Y-104928245D01*
X133421766Y-105009134D01*
X133456326Y-105147748D01*
X133433162Y-105251677D01*
X133352273Y-105320922D01*
X132844023Y-105447643D01*
X133571527Y-105609794D02*
X133663688Y-105979430D01*
X133929519Y-105667767D02*
X133097837Y-105875128D01*
X133016948Y-105944373D01*
X132993784Y-106048302D01*
X133016824Y-106140711D01*
X133097465Y-106464143D02*
X133744328Y-106302862D01*
X134067760Y-106222221D02*
X134010036Y-106187537D01*
X133975351Y-106245261D01*
X134033076Y-106279946D01*
X134067760Y-106222221D01*
X133975351Y-106245261D01*
X133859529Y-106764907D02*
X133212665Y-106926189D01*
X133767120Y-106787948D02*
X133824845Y-106822632D01*
X133894090Y-106903521D01*
X133928650Y-107042135D01*
X133905485Y-107146064D01*
X133824596Y-107215309D01*
X133316346Y-107342030D01*
X134182092Y-108058635D02*
X133396614Y-108254477D01*
X133292685Y-108231312D01*
X133234960Y-108196628D01*
X133165716Y-108115739D01*
X133131155Y-107977125D01*
X133154320Y-107873196D01*
X133581433Y-108208396D02*
X133512188Y-108127507D01*
X133466107Y-107942689D01*
X133489272Y-107838760D01*
X133523956Y-107781035D01*
X133604845Y-107711790D01*
X133882073Y-107642670D01*
X133986002Y-107665834D01*
X134043726Y-107700519D01*
X134112971Y-107781408D01*
X134159052Y-107966226D01*
X134135887Y-108070155D01*
X133650429Y-108681962D02*
X134620725Y-108440040D01*
X134158679Y-108555241D02*
X134296920Y-109109696D01*
X133788670Y-109236417D02*
X134758966Y-108994495D01*
X133938431Y-109837076D02*
X133961595Y-109733147D01*
X133996280Y-109675422D01*
X134077169Y-109606177D01*
X134354396Y-109537057D01*
X134458326Y-109560221D01*
X134516050Y-109594906D01*
X134585295Y-109675795D01*
X134619855Y-109814408D01*
X134596691Y-109918338D01*
X134562006Y-109976062D01*
X134481117Y-110045307D01*
X134203890Y-110114427D01*
X134099961Y-110091263D01*
X134042236Y-110056579D01*
X133972991Y-109975690D01*
X133938431Y-109837076D01*
X134157313Y-110714963D02*
X134180477Y-110611033D01*
X134261366Y-110541789D01*
X135093048Y-110334427D01*
X134387839Y-111442715D02*
X134318594Y-111361826D01*
X134272514Y-111177008D01*
X134295678Y-111073079D01*
X134376567Y-111003834D01*
X134746204Y-110911673D01*
X134850133Y-110934838D01*
X134919378Y-111015727D01*
X134965458Y-111200545D01*
X134942294Y-111304474D01*
X134861404Y-111373719D01*
X134768995Y-111396759D01*
X134561385Y-110957754D01*
X137147363Y-105346421D02*
X138117658Y-105104500D01*
X137655613Y-105219700D02*
X137793854Y-105774155D01*
X137285604Y-105900876D02*
X138255900Y-105658954D01*
X138348060Y-106028591D02*
X138497821Y-106629250D01*
X138047544Y-106397979D01*
X138082105Y-106536592D01*
X138058940Y-106640522D01*
X138024256Y-106698246D01*
X137943367Y-106767491D01*
X137712344Y-106825091D01*
X137608415Y-106801927D01*
X137550690Y-106767243D01*
X137481445Y-106686354D01*
X137412325Y-106409126D01*
X137435489Y-106305197D01*
X137470174Y-106247472D01*
X155714285Y-128152380D02*
X155714285Y-127152380D01*
X156047619Y-127866666D01*
X156380952Y-127152380D01*
X156380952Y-128152380D01*
X157000000Y-128152380D02*
X156904761Y-128104761D01*
X156857142Y-128057142D01*
X156809523Y-127961904D01*
X156809523Y-127676190D01*
X156857142Y-127580952D01*
X156904761Y-127533333D01*
X157000000Y-127485714D01*
X157142857Y-127485714D01*
X157238095Y-127533333D01*
X157285714Y-127580952D01*
X157333333Y-127676190D01*
X157333333Y-127961904D01*
X157285714Y-128057142D01*
X157238095Y-128104761D01*
X157142857Y-128152380D01*
X157000000Y-128152380D01*
X158190476Y-127485714D02*
X158190476Y-128152380D01*
X157761904Y-127485714D02*
X157761904Y-128009523D01*
X157809523Y-128104761D01*
X157904761Y-128152380D01*
X158047619Y-128152380D01*
X158142857Y-128104761D01*
X158190476Y-128057142D01*
X158666666Y-127485714D02*
X158666666Y-128152380D01*
X158666666Y-127580952D02*
X158714285Y-127533333D01*
X158809523Y-127485714D01*
X158952380Y-127485714D01*
X159047619Y-127533333D01*
X159095238Y-127628571D01*
X159095238Y-128152380D01*
X159428571Y-127485714D02*
X159809523Y-127485714D01*
X159571428Y-127152380D02*
X159571428Y-128009523D01*
X159619047Y-128104761D01*
X159714285Y-128152380D01*
X159809523Y-128152380D01*
X160142857Y-128152380D02*
X160142857Y-127485714D01*
X160142857Y-127152380D02*
X160095238Y-127200000D01*
X160142857Y-127247619D01*
X160190476Y-127200000D01*
X160142857Y-127152380D01*
X160142857Y-127247619D01*
X160619047Y-127485714D02*
X160619047Y-128152380D01*
X160619047Y-127580952D02*
X160666666Y-127533333D01*
X160761904Y-127485714D01*
X160904761Y-127485714D01*
X161000000Y-127533333D01*
X161047619Y-127628571D01*
X161047619Y-128152380D01*
X161952380Y-127485714D02*
X161952380Y-128295238D01*
X161904761Y-128390476D01*
X161857142Y-128438095D01*
X161761904Y-128485714D01*
X161619047Y-128485714D01*
X161523809Y-128438095D01*
X161952380Y-128104761D02*
X161857142Y-128152380D01*
X161666666Y-128152380D01*
X161571428Y-128104761D01*
X161523809Y-128057142D01*
X161476190Y-127961904D01*
X161476190Y-127676190D01*
X161523809Y-127580952D01*
X161571428Y-127533333D01*
X161666666Y-127485714D01*
X161857142Y-127485714D01*
X161952380Y-127533333D01*
X162428571Y-128152380D02*
X162428571Y-127152380D01*
X162428571Y-127628571D02*
X163000000Y-127628571D01*
X163000000Y-128152380D02*
X163000000Y-127152380D01*
X163619047Y-128152380D02*
X163523809Y-128104761D01*
X163476190Y-128057142D01*
X163428571Y-127961904D01*
X163428571Y-127676190D01*
X163476190Y-127580952D01*
X163523809Y-127533333D01*
X163619047Y-127485714D01*
X163761904Y-127485714D01*
X163857142Y-127533333D01*
X163904761Y-127580952D01*
X163952380Y-127676190D01*
X163952380Y-127961904D01*
X163904761Y-128057142D01*
X163857142Y-128104761D01*
X163761904Y-128152380D01*
X163619047Y-128152380D01*
X164523809Y-128152380D02*
X164428571Y-128104761D01*
X164380952Y-128009523D01*
X164380952Y-127152380D01*
X165285714Y-128104761D02*
X165190476Y-128152380D01*
X165000000Y-128152380D01*
X164904761Y-128104761D01*
X164857142Y-128009523D01*
X164857142Y-127628571D01*
X164904761Y-127533333D01*
X165000000Y-127485714D01*
X165190476Y-127485714D01*
X165285714Y-127533333D01*
X165333333Y-127628571D01*
X165333333Y-127723809D01*
X164857142Y-127819047D01*
X160038095Y-123952380D02*
X160038095Y-122952380D01*
X160038095Y-123428571D02*
X160609523Y-123428571D01*
X160609523Y-123952380D02*
X160609523Y-122952380D01*
X161514285Y-123285714D02*
X161514285Y-123952380D01*
X161276190Y-122904761D02*
X161038095Y-123619047D01*
X161657142Y-123619047D01*
X186658366Y-111454235D02*
X185688070Y-111212314D01*
X186461779Y-111061683D01*
X185849351Y-110565450D01*
X186819647Y-110807372D01*
X186969408Y-110206712D02*
X186900163Y-110287601D01*
X186842439Y-110322286D01*
X186738510Y-110345450D01*
X186461282Y-110276330D01*
X186380393Y-110207085D01*
X186345709Y-110149360D01*
X186322544Y-110045431D01*
X186357105Y-109906817D01*
X186426349Y-109825928D01*
X186484074Y-109791244D01*
X186588003Y-109768080D01*
X186865231Y-109837200D01*
X186946120Y-109906445D01*
X186980804Y-109964170D01*
X187003968Y-110068099D01*
X186969408Y-110206712D01*
X186610547Y-108890317D02*
X187257410Y-109051598D01*
X186506866Y-109306158D02*
X187015116Y-109432879D01*
X187119045Y-109409715D01*
X187188290Y-109328826D01*
X187222850Y-109190212D01*
X187199686Y-109086283D01*
X187165001Y-109028558D01*
X186725748Y-108428272D02*
X187372611Y-108589553D01*
X186818157Y-108451312D02*
X186783472Y-108393587D01*
X186760308Y-108289658D01*
X186794868Y-108151044D01*
X186864113Y-108070155D01*
X186968042Y-108046991D01*
X187476292Y-108173712D01*
X186910069Y-107688999D02*
X187002230Y-107319362D01*
X186621197Y-107469744D02*
X187452879Y-107677106D01*
X187556809Y-107653942D01*
X187626053Y-107573053D01*
X187649093Y-107480643D01*
X187729734Y-107157212D02*
X187082870Y-106995930D01*
X186759438Y-106915290D02*
X186794123Y-106973014D01*
X186851848Y-106938330D01*
X186817163Y-106880605D01*
X186759438Y-106915290D01*
X186851848Y-106938330D01*
X187198071Y-106533885D02*
X187844935Y-106695166D01*
X187290480Y-106556925D02*
X187255796Y-106499200D01*
X187232631Y-106395271D01*
X187267192Y-106256657D01*
X187336436Y-106175768D01*
X187440366Y-106152604D01*
X187948616Y-106279325D01*
X187520634Y-105240157D02*
X188306111Y-105435999D01*
X188387000Y-105505243D01*
X188421685Y-105562968D01*
X188444849Y-105666897D01*
X188410289Y-105805511D01*
X188341044Y-105886400D01*
X188121293Y-105389918D02*
X188144457Y-105493847D01*
X188098377Y-105678666D01*
X188029132Y-105759555D01*
X187971408Y-105794239D01*
X187867478Y-105817404D01*
X187590251Y-105748283D01*
X187509362Y-105679038D01*
X187474678Y-105621314D01*
X187451513Y-105517384D01*
X187497594Y-105332566D01*
X187566838Y-105251677D01*
X188282698Y-104939393D02*
X187312403Y-104697471D01*
X187774448Y-104812672D02*
X187912689Y-104258217D01*
X188420940Y-104384938D02*
X187450644Y-104143016D01*
X188570701Y-103784279D02*
X188501456Y-103865168D01*
X188443731Y-103899852D01*
X188339802Y-103923017D01*
X188062575Y-103853896D01*
X187981686Y-103784651D01*
X187947001Y-103726927D01*
X187923837Y-103622998D01*
X187958397Y-103484384D01*
X188027642Y-103403495D01*
X188085367Y-103368810D01*
X188189296Y-103345646D01*
X188466523Y-103414767D01*
X188547412Y-103484011D01*
X188582097Y-103541736D01*
X188605261Y-103645665D01*
X188570701Y-103784279D01*
X188789582Y-102906392D02*
X188720338Y-102987281D01*
X188616408Y-103010446D01*
X187784726Y-102803084D01*
X188927699Y-102155599D02*
X188950864Y-102259528D01*
X188904783Y-102444347D01*
X188835539Y-102525236D01*
X188731609Y-102548400D01*
X188361973Y-102456239D01*
X188281084Y-102386995D01*
X188257920Y-102283065D01*
X188304000Y-102098247D01*
X188373245Y-102017358D01*
X188477174Y-101994194D01*
X188569583Y-102017234D01*
X188546791Y-102502320D01*
X183629148Y-106242789D02*
X182658853Y-106000867D01*
X183120898Y-106116068D02*
X183259139Y-105561614D01*
X183767389Y-105688335D02*
X182797094Y-105446413D01*
X183027496Y-104522322D02*
X182912295Y-104984367D01*
X183362820Y-105145773D01*
X183328136Y-105088048D01*
X183304971Y-104984119D01*
X183362572Y-104753096D01*
X183431816Y-104672207D01*
X183489541Y-104637522D01*
X183593470Y-104614358D01*
X183824493Y-104671959D01*
X183905382Y-104741203D01*
X183940067Y-104798928D01*
X183963231Y-104902857D01*
X183905631Y-105133880D01*
X183836386Y-105214769D01*
X183778661Y-105249453D01*
X136328571Y-95828571D02*
X135995238Y-95828571D01*
X135995238Y-96352380D02*
X135995238Y-95352380D01*
X136471428Y-95352380D01*
X136852380Y-96352380D02*
X136852380Y-95352380D01*
X137328571Y-96352380D02*
X137328571Y-95352380D01*
X137566666Y-95352380D01*
X137709523Y-95400000D01*
X137804761Y-95495238D01*
X137852380Y-95590476D01*
X137900000Y-95780952D01*
X137900000Y-95923809D01*
X137852380Y-96114285D01*
X137804761Y-96209523D01*
X137709523Y-96304761D01*
X137566666Y-96352380D01*
X137328571Y-96352380D01*
X138852380Y-96352380D02*
X138280952Y-96352380D01*
X138566666Y-96352380D02*
X138566666Y-95352380D01*
X138471428Y-95495238D01*
X138376190Y-95590476D01*
X138280952Y-95638095D01*
D14*
X137185714Y-94385714D02*
X137119047Y-94385714D01*
X137119047Y-94490476D02*
X137119047Y-94290476D01*
X137214285Y-94290476D01*
X137290476Y-94490476D02*
X137290476Y-94290476D01*
X137385714Y-94490476D02*
X137385714Y-94290476D01*
X137433333Y-94290476D01*
X137461904Y-94300000D01*
X137480952Y-94319047D01*
X137490476Y-94338095D01*
X137500000Y-94376190D01*
X137500000Y-94404761D01*
X137490476Y-94442857D01*
X137480952Y-94461904D01*
X137461904Y-94480952D01*
X137433333Y-94490476D01*
X137385714Y-94490476D01*
X137690476Y-94490476D02*
X137576190Y-94490476D01*
X137633333Y-94490476D02*
X137633333Y-94290476D01*
X137614285Y-94319047D01*
X137595238Y-94338095D01*
X137576190Y-94347619D01*
D10*
X183028571Y-98328571D02*
X182695238Y-98328571D01*
X182695238Y-98852380D02*
X182695238Y-97852380D01*
X183171428Y-97852380D01*
X183552380Y-98852380D02*
X183552380Y-97852380D01*
X184028571Y-98852380D02*
X184028571Y-97852380D01*
X184266666Y-97852380D01*
X184409523Y-97900000D01*
X184504761Y-97995238D01*
X184552380Y-98090476D01*
X184600000Y-98280952D01*
X184600000Y-98423809D01*
X184552380Y-98614285D01*
X184504761Y-98709523D01*
X184409523Y-98804761D01*
X184266666Y-98852380D01*
X184028571Y-98852380D01*
X184980952Y-97947619D02*
X185028571Y-97900000D01*
X185123809Y-97852380D01*
X185361904Y-97852380D01*
X185457142Y-97900000D01*
X185504761Y-97947619D01*
X185552380Y-98042857D01*
X185552380Y-98138095D01*
X185504761Y-98280952D01*
X184933333Y-98852380D01*
X185552380Y-98852380D01*
D14*
X183885714Y-96885714D02*
X183819047Y-96885714D01*
X183819047Y-96990476D02*
X183819047Y-96790476D01*
X183914285Y-96790476D01*
X183990476Y-96990476D02*
X183990476Y-96790476D01*
X184085714Y-96990476D02*
X184085714Y-96790476D01*
X184133333Y-96790476D01*
X184161904Y-96800000D01*
X184180952Y-96819047D01*
X184190476Y-96838095D01*
X184200000Y-96876190D01*
X184200000Y-96904761D01*
X184190476Y-96942857D01*
X184180952Y-96961904D01*
X184161904Y-96980952D01*
X184133333Y-96990476D01*
X184085714Y-96990476D01*
X184276190Y-96809523D02*
X184285714Y-96800000D01*
X184304761Y-96790476D01*
X184352380Y-96790476D01*
X184371428Y-96800000D01*
X184380952Y-96809523D01*
X184390476Y-96828571D01*
X184390476Y-96847619D01*
X184380952Y-96876190D01*
X184266666Y-96990476D01*
X184390476Y-96990476D01*
D10*
X153828571Y-125228571D02*
X153495238Y-125228571D01*
X153495238Y-125752380D02*
X153495238Y-124752380D01*
X153971428Y-124752380D01*
X154352380Y-125752380D02*
X154352380Y-124752380D01*
X154828571Y-125752380D02*
X154828571Y-124752380D01*
X155066666Y-124752380D01*
X155209523Y-124800000D01*
X155304761Y-124895238D01*
X155352380Y-124990476D01*
X155400000Y-125180952D01*
X155400000Y-125323809D01*
X155352380Y-125514285D01*
X155304761Y-125609523D01*
X155209523Y-125704761D01*
X155066666Y-125752380D01*
X154828571Y-125752380D01*
X155733333Y-124752380D02*
X156352380Y-124752380D01*
X156019047Y-125133333D01*
X156161904Y-125133333D01*
X156257142Y-125180952D01*
X156304761Y-125228571D01*
X156352380Y-125323809D01*
X156352380Y-125561904D01*
X156304761Y-125657142D01*
X156257142Y-125704761D01*
X156161904Y-125752380D01*
X155876190Y-125752380D01*
X155780952Y-125704761D01*
X155733333Y-125657142D01*
D14*
X154685714Y-123785714D02*
X154619047Y-123785714D01*
X154619047Y-123890476D02*
X154619047Y-123690476D01*
X154714285Y-123690476D01*
X154790476Y-123890476D02*
X154790476Y-123690476D01*
X154885714Y-123890476D02*
X154885714Y-123690476D01*
X154933333Y-123690476D01*
X154961904Y-123700000D01*
X154980952Y-123719047D01*
X154990476Y-123738095D01*
X155000000Y-123776190D01*
X155000000Y-123804761D01*
X154990476Y-123842857D01*
X154980952Y-123861904D01*
X154961904Y-123880952D01*
X154933333Y-123890476D01*
X154885714Y-123890476D01*
X155066666Y-123690476D02*
X155190476Y-123690476D01*
X155123809Y-123766666D01*
X155152380Y-123766666D01*
X155171428Y-123776190D01*
X155180952Y-123785714D01*
X155190476Y-123804761D01*
X155190476Y-123852380D01*
X155180952Y-123871428D01*
X155171428Y-123880952D01*
X155152380Y-123890476D01*
X155095238Y-123890476D01*
X155076190Y-123880952D01*
X155066666Y-123871428D01*
M02*
