G04 #@! TF.GenerationSoftware,KiCad,Pcbnew,5.1.2-f72e74a~84~ubuntu18.04.1*
G04 #@! TF.CreationDate,2019-09-23T03:00:40+02:00*
G04 #@! TF.ProjectId,roboy_3.0_40mm_ball_sensor,726f626f-795f-4332-9e30-5f34306d6d5f,rev?*
G04 #@! TF.SameCoordinates,Original*
G04 #@! TF.FileFunction,Legend,Top*
G04 #@! TF.FilePolarity,Positive*
%FSLAX46Y46*%
G04 Gerber Fmt 4.6, Leading zero omitted, Abs format (unit mm)*
G04 Created by KiCad (PCBNEW 5.1.2-f72e74a~84~ubuntu18.04.1) date 2019-09-23 03:00:40*
%MOMM*%
%LPD*%
G04 APERTURE LIST*
%ADD10C,0.200000*%
%ADD11C,0.150000*%
%ADD12C,0.120000*%
%ADD13C,0.010000*%
G04 APERTURE END LIST*
D10*
X156600000Y-124800000D02*
X154000000Y-124800000D01*
X155200000Y-120600000D02*
X155200000Y-127000000D01*
X155200000Y-127000000D02*
X156600000Y-124800000D01*
X154000000Y-124800000D02*
X155200000Y-127000000D01*
D11*
X159328571Y-121728571D02*
X159128571Y-121728571D01*
X159128571Y-122252380D02*
X159128571Y-121252380D01*
X159414285Y-121252380D01*
X159985714Y-122252380D02*
X159785714Y-121776190D01*
X159642857Y-122252380D02*
X159642857Y-121252380D01*
X159871428Y-121252380D01*
X159928571Y-121300000D01*
X159957142Y-121347619D01*
X159985714Y-121442857D01*
X159985714Y-121585714D01*
X159957142Y-121680952D01*
X159928571Y-121728571D01*
X159871428Y-121776190D01*
X159642857Y-121776190D01*
X160357142Y-121252380D02*
X160471428Y-121252380D01*
X160528571Y-121300000D01*
X160585714Y-121395238D01*
X160614285Y-121585714D01*
X160614285Y-121919047D01*
X160585714Y-122109523D01*
X160528571Y-122204761D01*
X160471428Y-122252380D01*
X160357142Y-122252380D01*
X160300000Y-122204761D01*
X160242857Y-122109523D01*
X160214285Y-121919047D01*
X160214285Y-121585714D01*
X160242857Y-121395238D01*
X160300000Y-121300000D01*
X160357142Y-121252380D01*
X160871428Y-122252380D02*
X160871428Y-121252380D01*
X161214285Y-122252380D01*
X161214285Y-121252380D01*
X161414285Y-121252380D02*
X161757142Y-121252380D01*
X161585714Y-122252380D02*
X161585714Y-121252380D01*
D10*
X164400000Y-124800000D02*
X165600000Y-127000000D01*
X167000000Y-124800000D02*
X164400000Y-124800000D01*
X165600000Y-127000000D02*
X167000000Y-124800000D01*
X165600000Y-120600000D02*
X165600000Y-127000000D01*
D11*
X181057142Y-91004761D02*
X181142857Y-91052380D01*
X181285714Y-91052380D01*
X181342857Y-91004761D01*
X181371428Y-90957142D01*
X181400000Y-90861904D01*
X181400000Y-90766666D01*
X181371428Y-90671428D01*
X181342857Y-90623809D01*
X181285714Y-90576190D01*
X181171428Y-90528571D01*
X181114285Y-90480952D01*
X181085714Y-90433333D01*
X181057142Y-90338095D01*
X181057142Y-90242857D01*
X181085714Y-90147619D01*
X181114285Y-90100000D01*
X181171428Y-90052380D01*
X181314285Y-90052380D01*
X181400000Y-90100000D01*
X181657142Y-90528571D02*
X181857142Y-90528571D01*
X181942857Y-91052380D02*
X181657142Y-91052380D01*
X181657142Y-90052380D01*
X181942857Y-90052380D01*
X182200000Y-91052380D02*
X182200000Y-90052380D01*
X182542857Y-91052380D01*
X182542857Y-90052380D01*
X182800000Y-91004761D02*
X182885714Y-91052380D01*
X183028571Y-91052380D01*
X183085714Y-91004761D01*
X183114285Y-90957142D01*
X183142857Y-90861904D01*
X183142857Y-90766666D01*
X183114285Y-90671428D01*
X183085714Y-90623809D01*
X183028571Y-90576190D01*
X182914285Y-90528571D01*
X182857142Y-90480952D01*
X182828571Y-90433333D01*
X182800000Y-90338095D01*
X182800000Y-90242857D01*
X182828571Y-90147619D01*
X182857142Y-90100000D01*
X182914285Y-90052380D01*
X183057142Y-90052380D01*
X183142857Y-90100000D01*
X183514285Y-90052380D02*
X183628571Y-90052380D01*
X183685714Y-90100000D01*
X183742857Y-90195238D01*
X183771428Y-90385714D01*
X183771428Y-90719047D01*
X183742857Y-90909523D01*
X183685714Y-91004761D01*
X183628571Y-91052380D01*
X183514285Y-91052380D01*
X183457142Y-91004761D01*
X183400000Y-90909523D01*
X183371428Y-90719047D01*
X183371428Y-90385714D01*
X183400000Y-90195238D01*
X183457142Y-90100000D01*
X183514285Y-90052380D01*
X184371428Y-91052380D02*
X184171428Y-90576190D01*
X184028571Y-91052380D02*
X184028571Y-90052380D01*
X184257142Y-90052380D01*
X184314285Y-90100000D01*
X184342857Y-90147619D01*
X184371428Y-90242857D01*
X184371428Y-90385714D01*
X184342857Y-90480952D01*
X184314285Y-90528571D01*
X184257142Y-90576190D01*
X184028571Y-90576190D01*
X184571428Y-90052380D02*
X184942857Y-90052380D01*
X184742857Y-90433333D01*
X184828571Y-90433333D01*
X184885714Y-90480952D01*
X184914285Y-90528571D01*
X184942857Y-90623809D01*
X184942857Y-90861904D01*
X184914285Y-90957142D01*
X184885714Y-91004761D01*
X184828571Y-91052380D01*
X184657142Y-91052380D01*
X184600000Y-91004761D01*
X184571428Y-90957142D01*
X172857142Y-117204761D02*
X172942857Y-117252380D01*
X173085714Y-117252380D01*
X173142857Y-117204761D01*
X173171428Y-117157142D01*
X173200000Y-117061904D01*
X173200000Y-116966666D01*
X173171428Y-116871428D01*
X173142857Y-116823809D01*
X173085714Y-116776190D01*
X172971428Y-116728571D01*
X172914285Y-116680952D01*
X172885714Y-116633333D01*
X172857142Y-116538095D01*
X172857142Y-116442857D01*
X172885714Y-116347619D01*
X172914285Y-116300000D01*
X172971428Y-116252380D01*
X173114285Y-116252380D01*
X173200000Y-116300000D01*
X173457142Y-116728571D02*
X173657142Y-116728571D01*
X173742857Y-117252380D02*
X173457142Y-117252380D01*
X173457142Y-116252380D01*
X173742857Y-116252380D01*
X174000000Y-117252380D02*
X174000000Y-116252380D01*
X174342857Y-117252380D01*
X174342857Y-116252380D01*
X174600000Y-117204761D02*
X174685714Y-117252380D01*
X174828571Y-117252380D01*
X174885714Y-117204761D01*
X174914285Y-117157142D01*
X174942857Y-117061904D01*
X174942857Y-116966666D01*
X174914285Y-116871428D01*
X174885714Y-116823809D01*
X174828571Y-116776190D01*
X174714285Y-116728571D01*
X174657142Y-116680952D01*
X174628571Y-116633333D01*
X174600000Y-116538095D01*
X174600000Y-116442857D01*
X174628571Y-116347619D01*
X174657142Y-116300000D01*
X174714285Y-116252380D01*
X174857142Y-116252380D01*
X174942857Y-116300000D01*
X175314285Y-116252380D02*
X175428571Y-116252380D01*
X175485714Y-116300000D01*
X175542857Y-116395238D01*
X175571428Y-116585714D01*
X175571428Y-116919047D01*
X175542857Y-117109523D01*
X175485714Y-117204761D01*
X175428571Y-117252380D01*
X175314285Y-117252380D01*
X175257142Y-117204761D01*
X175200000Y-117109523D01*
X175171428Y-116919047D01*
X175171428Y-116585714D01*
X175200000Y-116395238D01*
X175257142Y-116300000D01*
X175314285Y-116252380D01*
X176171428Y-117252380D02*
X175971428Y-116776190D01*
X175828571Y-117252380D02*
X175828571Y-116252380D01*
X176057142Y-116252380D01*
X176114285Y-116300000D01*
X176142857Y-116347619D01*
X176171428Y-116442857D01*
X176171428Y-116585714D01*
X176142857Y-116680952D01*
X176114285Y-116728571D01*
X176057142Y-116776190D01*
X175828571Y-116776190D01*
X176400000Y-116347619D02*
X176428571Y-116300000D01*
X176485714Y-116252380D01*
X176628571Y-116252380D01*
X176685714Y-116300000D01*
X176714285Y-116347619D01*
X176742857Y-116442857D01*
X176742857Y-116538095D01*
X176714285Y-116680952D01*
X176371428Y-117252380D01*
X176742857Y-117252380D01*
X144457142Y-117204761D02*
X144542857Y-117252380D01*
X144685714Y-117252380D01*
X144742857Y-117204761D01*
X144771428Y-117157142D01*
X144800000Y-117061904D01*
X144800000Y-116966666D01*
X144771428Y-116871428D01*
X144742857Y-116823809D01*
X144685714Y-116776190D01*
X144571428Y-116728571D01*
X144514285Y-116680952D01*
X144485714Y-116633333D01*
X144457142Y-116538095D01*
X144457142Y-116442857D01*
X144485714Y-116347619D01*
X144514285Y-116300000D01*
X144571428Y-116252380D01*
X144714285Y-116252380D01*
X144800000Y-116300000D01*
X145057142Y-116728571D02*
X145257142Y-116728571D01*
X145342857Y-117252380D02*
X145057142Y-117252380D01*
X145057142Y-116252380D01*
X145342857Y-116252380D01*
X145600000Y-117252380D02*
X145600000Y-116252380D01*
X145942857Y-117252380D01*
X145942857Y-116252380D01*
X146200000Y-117204761D02*
X146285714Y-117252380D01*
X146428571Y-117252380D01*
X146485714Y-117204761D01*
X146514285Y-117157142D01*
X146542857Y-117061904D01*
X146542857Y-116966666D01*
X146514285Y-116871428D01*
X146485714Y-116823809D01*
X146428571Y-116776190D01*
X146314285Y-116728571D01*
X146257142Y-116680952D01*
X146228571Y-116633333D01*
X146200000Y-116538095D01*
X146200000Y-116442857D01*
X146228571Y-116347619D01*
X146257142Y-116300000D01*
X146314285Y-116252380D01*
X146457142Y-116252380D01*
X146542857Y-116300000D01*
X146914285Y-116252380D02*
X147028571Y-116252380D01*
X147085714Y-116300000D01*
X147142857Y-116395238D01*
X147171428Y-116585714D01*
X147171428Y-116919047D01*
X147142857Y-117109523D01*
X147085714Y-117204761D01*
X147028571Y-117252380D01*
X146914285Y-117252380D01*
X146857142Y-117204761D01*
X146800000Y-117109523D01*
X146771428Y-116919047D01*
X146771428Y-116585714D01*
X146800000Y-116395238D01*
X146857142Y-116300000D01*
X146914285Y-116252380D01*
X147771428Y-117252380D02*
X147571428Y-116776190D01*
X147428571Y-117252380D02*
X147428571Y-116252380D01*
X147657142Y-116252380D01*
X147714285Y-116300000D01*
X147742857Y-116347619D01*
X147771428Y-116442857D01*
X147771428Y-116585714D01*
X147742857Y-116680952D01*
X147714285Y-116728571D01*
X147657142Y-116776190D01*
X147428571Y-116776190D01*
X148342857Y-117252380D02*
X148000000Y-117252380D01*
X148171428Y-117252380D02*
X148171428Y-116252380D01*
X148114285Y-116395238D01*
X148057142Y-116490476D01*
X148000000Y-116538095D01*
X136257142Y-90404761D02*
X136342857Y-90452380D01*
X136485714Y-90452380D01*
X136542857Y-90404761D01*
X136571428Y-90357142D01*
X136600000Y-90261904D01*
X136600000Y-90166666D01*
X136571428Y-90071428D01*
X136542857Y-90023809D01*
X136485714Y-89976190D01*
X136371428Y-89928571D01*
X136314285Y-89880952D01*
X136285714Y-89833333D01*
X136257142Y-89738095D01*
X136257142Y-89642857D01*
X136285714Y-89547619D01*
X136314285Y-89500000D01*
X136371428Y-89452380D01*
X136514285Y-89452380D01*
X136600000Y-89500000D01*
X136857142Y-89928571D02*
X137057142Y-89928571D01*
X137142857Y-90452380D02*
X136857142Y-90452380D01*
X136857142Y-89452380D01*
X137142857Y-89452380D01*
X137400000Y-90452380D02*
X137400000Y-89452380D01*
X137742857Y-90452380D01*
X137742857Y-89452380D01*
X138000000Y-90404761D02*
X138085714Y-90452380D01*
X138228571Y-90452380D01*
X138285714Y-90404761D01*
X138314285Y-90357142D01*
X138342857Y-90261904D01*
X138342857Y-90166666D01*
X138314285Y-90071428D01*
X138285714Y-90023809D01*
X138228571Y-89976190D01*
X138114285Y-89928571D01*
X138057142Y-89880952D01*
X138028571Y-89833333D01*
X138000000Y-89738095D01*
X138000000Y-89642857D01*
X138028571Y-89547619D01*
X138057142Y-89500000D01*
X138114285Y-89452380D01*
X138257142Y-89452380D01*
X138342857Y-89500000D01*
X138714285Y-89452380D02*
X138828571Y-89452380D01*
X138885714Y-89500000D01*
X138942857Y-89595238D01*
X138971428Y-89785714D01*
X138971428Y-90119047D01*
X138942857Y-90309523D01*
X138885714Y-90404761D01*
X138828571Y-90452380D01*
X138714285Y-90452380D01*
X138657142Y-90404761D01*
X138600000Y-90309523D01*
X138571428Y-90119047D01*
X138571428Y-89785714D01*
X138600000Y-89595238D01*
X138657142Y-89500000D01*
X138714285Y-89452380D01*
X139571428Y-90452380D02*
X139371428Y-89976190D01*
X139228571Y-90452380D02*
X139228571Y-89452380D01*
X139457142Y-89452380D01*
X139514285Y-89500000D01*
X139542857Y-89547619D01*
X139571428Y-89642857D01*
X139571428Y-89785714D01*
X139542857Y-89880952D01*
X139514285Y-89928571D01*
X139457142Y-89976190D01*
X139228571Y-89976190D01*
X139942857Y-89452380D02*
X140000000Y-89452380D01*
X140057142Y-89500000D01*
X140085714Y-89547619D01*
X140114285Y-89642857D01*
X140142857Y-89833333D01*
X140142857Y-90071428D01*
X140114285Y-90261904D01*
X140085714Y-90357142D01*
X140057142Y-90404761D01*
X140000000Y-90452380D01*
X139942857Y-90452380D01*
X139885714Y-90404761D01*
X139857142Y-90357142D01*
X139828571Y-90261904D01*
X139800000Y-90071428D01*
X139800000Y-89833333D01*
X139828571Y-89642857D01*
X139857142Y-89547619D01*
X139885714Y-89500000D01*
X139942857Y-89452380D01*
X156428571Y-73552380D02*
X156428571Y-72552380D01*
X156685714Y-72647619D02*
X156714285Y-72600000D01*
X156771428Y-72552380D01*
X156914285Y-72552380D01*
X156971428Y-72600000D01*
X157000000Y-72647619D01*
X157028571Y-72742857D01*
X157028571Y-72838095D01*
X157000000Y-72980952D01*
X156657142Y-73552380D01*
X157028571Y-73552380D01*
X157628571Y-73457142D02*
X157600000Y-73504761D01*
X157514285Y-73552380D01*
X157457142Y-73552380D01*
X157371428Y-73504761D01*
X157314285Y-73409523D01*
X157285714Y-73314285D01*
X157257142Y-73123809D01*
X157257142Y-72980952D01*
X157285714Y-72790476D01*
X157314285Y-72695238D01*
X157371428Y-72600000D01*
X157457142Y-72552380D01*
X157514285Y-72552380D01*
X157600000Y-72600000D01*
X157628571Y-72647619D01*
X158000000Y-72552380D02*
X158057142Y-72552380D01*
X158114285Y-72600000D01*
X158142857Y-72647619D01*
X158171428Y-72742857D01*
X158200000Y-72933333D01*
X158200000Y-73171428D01*
X158171428Y-73361904D01*
X158142857Y-73457142D01*
X158114285Y-73504761D01*
X158057142Y-73552380D01*
X158000000Y-73552380D01*
X157942857Y-73504761D01*
X157914285Y-73457142D01*
X157885714Y-73361904D01*
X157857142Y-73171428D01*
X157857142Y-72933333D01*
X157885714Y-72742857D01*
X157914285Y-72647619D01*
X157942857Y-72600000D01*
X158000000Y-72552380D01*
X158928571Y-73552380D02*
X158928571Y-72552380D01*
X159185714Y-72647619D02*
X159214285Y-72600000D01*
X159271428Y-72552380D01*
X159414285Y-72552380D01*
X159471428Y-72600000D01*
X159500000Y-72647619D01*
X159528571Y-72742857D01*
X159528571Y-72838095D01*
X159500000Y-72980952D01*
X159157142Y-73552380D01*
X159528571Y-73552380D01*
X160128571Y-73457142D02*
X160100000Y-73504761D01*
X160014285Y-73552380D01*
X159957142Y-73552380D01*
X159871428Y-73504761D01*
X159814285Y-73409523D01*
X159785714Y-73314285D01*
X159757142Y-73123809D01*
X159757142Y-72980952D01*
X159785714Y-72790476D01*
X159814285Y-72695238D01*
X159871428Y-72600000D01*
X159957142Y-72552380D01*
X160014285Y-72552380D01*
X160100000Y-72600000D01*
X160128571Y-72647619D01*
X160700000Y-73552380D02*
X160357142Y-73552380D01*
X160528571Y-73552380D02*
X160528571Y-72552380D01*
X160471428Y-72695238D01*
X160414285Y-72790476D01*
X160357142Y-72838095D01*
X164128571Y-73552380D02*
X164128571Y-72552380D01*
X164385714Y-72647619D02*
X164414285Y-72600000D01*
X164471428Y-72552380D01*
X164614285Y-72552380D01*
X164671428Y-72600000D01*
X164700000Y-72647619D01*
X164728571Y-72742857D01*
X164728571Y-72838095D01*
X164700000Y-72980952D01*
X164357142Y-73552380D01*
X164728571Y-73552380D01*
X165328571Y-73457142D02*
X165300000Y-73504761D01*
X165214285Y-73552380D01*
X165157142Y-73552380D01*
X165071428Y-73504761D01*
X165014285Y-73409523D01*
X164985714Y-73314285D01*
X164957142Y-73123809D01*
X164957142Y-72980952D01*
X164985714Y-72790476D01*
X165014285Y-72695238D01*
X165071428Y-72600000D01*
X165157142Y-72552380D01*
X165214285Y-72552380D01*
X165300000Y-72600000D01*
X165328571Y-72647619D01*
X165528571Y-72552380D02*
X165900000Y-72552380D01*
X165700000Y-72933333D01*
X165785714Y-72933333D01*
X165842857Y-72980952D01*
X165871428Y-73028571D01*
X165900000Y-73123809D01*
X165900000Y-73361904D01*
X165871428Y-73457142D01*
X165842857Y-73504761D01*
X165785714Y-73552380D01*
X165614285Y-73552380D01*
X165557142Y-73504761D01*
X165528571Y-73457142D01*
X161528571Y-73552380D02*
X161528571Y-72552380D01*
X161785714Y-72647619D02*
X161814285Y-72600000D01*
X161871428Y-72552380D01*
X162014285Y-72552380D01*
X162071428Y-72600000D01*
X162100000Y-72647619D01*
X162128571Y-72742857D01*
X162128571Y-72838095D01*
X162100000Y-72980952D01*
X161757142Y-73552380D01*
X162128571Y-73552380D01*
X162728571Y-73457142D02*
X162700000Y-73504761D01*
X162614285Y-73552380D01*
X162557142Y-73552380D01*
X162471428Y-73504761D01*
X162414285Y-73409523D01*
X162385714Y-73314285D01*
X162357142Y-73123809D01*
X162357142Y-72980952D01*
X162385714Y-72790476D01*
X162414285Y-72695238D01*
X162471428Y-72600000D01*
X162557142Y-72552380D01*
X162614285Y-72552380D01*
X162700000Y-72600000D01*
X162728571Y-72647619D01*
X162957142Y-72647619D02*
X162985714Y-72600000D01*
X163042857Y-72552380D01*
X163185714Y-72552380D01*
X163242857Y-72600000D01*
X163271428Y-72647619D01*
X163300000Y-72742857D01*
X163300000Y-72838095D01*
X163271428Y-72980952D01*
X162928571Y-73552380D01*
X163300000Y-73552380D01*
D12*
X139000000Y-90840000D02*
X136550000Y-90840000D01*
X137200000Y-94060000D02*
X139000000Y-94060000D01*
X145600000Y-120810000D02*
X147400000Y-120810000D01*
X147400000Y-117590000D02*
X144950000Y-117590000D01*
X173900000Y-120910000D02*
X175700000Y-120910000D01*
X175700000Y-117690000D02*
X173250000Y-117690000D01*
D13*
G36*
X182178201Y-84229738D02*
G01*
X182198348Y-84231965D01*
X182215863Y-84235564D01*
X182231188Y-84241308D01*
X182244766Y-84249971D01*
X182257039Y-84262324D01*
X182268450Y-84279140D01*
X182279440Y-84301193D01*
X182290453Y-84329255D01*
X182301931Y-84364099D01*
X182314316Y-84406498D01*
X182328050Y-84457225D01*
X182343577Y-84517052D01*
X182344299Y-84519867D01*
X182361506Y-84592474D01*
X182375540Y-84664276D01*
X182386689Y-84737443D01*
X182395238Y-84814150D01*
X182401474Y-84896569D01*
X182405609Y-84984760D01*
X182406717Y-85018405D01*
X182407222Y-85044525D01*
X182406933Y-85065749D01*
X182405658Y-85084703D01*
X182403208Y-85104014D01*
X182399391Y-85126309D01*
X182394016Y-85154217D01*
X182392872Y-85160020D01*
X182376391Y-85238711D01*
X182358865Y-85313406D01*
X182340546Y-85383339D01*
X182321687Y-85447741D01*
X182302541Y-85505845D01*
X182283359Y-85556882D01*
X182264394Y-85600085D01*
X182245900Y-85634686D01*
X182228657Y-85659293D01*
X182217953Y-85672749D01*
X182203677Y-85691717D01*
X182187975Y-85713311D01*
X182177487Y-85728152D01*
X182151986Y-85762275D01*
X182128222Y-85789201D01*
X182106922Y-85808184D01*
X182089823Y-85818106D01*
X182077848Y-85820698D01*
X182060149Y-85822358D01*
X182045639Y-85822712D01*
X182029049Y-85821866D01*
X182013769Y-85819024D01*
X181996746Y-85813303D01*
X181974929Y-85803818D01*
X181965960Y-85799618D01*
X181943192Y-85787894D01*
X181921706Y-85775181D01*
X181904652Y-85763418D01*
X181898199Y-85757955D01*
X181875298Y-85729710D01*
X181855228Y-85691883D01*
X181837972Y-85644420D01*
X181823507Y-85587269D01*
X181814959Y-85541020D01*
X181812442Y-85523764D01*
X181810422Y-85505587D01*
X181808848Y-85485174D01*
X181807672Y-85461208D01*
X181806843Y-85432375D01*
X181806312Y-85397359D01*
X181806029Y-85354844D01*
X181805945Y-85303516D01*
X181805945Y-85302260D01*
X181806068Y-85245778D01*
X181806514Y-85197431D01*
X181807403Y-85155192D01*
X181808857Y-85117037D01*
X181810997Y-85080942D01*
X181813942Y-85044882D01*
X181817814Y-85006833D01*
X181822734Y-84964769D01*
X181828823Y-84916667D01*
X181829068Y-84914778D01*
X181838126Y-84857754D01*
X181850976Y-84795299D01*
X181867031Y-84729301D01*
X181885706Y-84661648D01*
X181906413Y-84594227D01*
X181928565Y-84528927D01*
X181951577Y-84467635D01*
X181974862Y-84412239D01*
X181997832Y-84364626D01*
X182003030Y-84354937D01*
X182030897Y-84310835D01*
X182061983Y-84273517D01*
X182062588Y-84272896D01*
X182085380Y-84251619D01*
X182106068Y-84237902D01*
X182127763Y-84230583D01*
X182153575Y-84228502D01*
X182178201Y-84229738D01*
X182178201Y-84229738D01*
G37*
X182178201Y-84229738D02*
X182198348Y-84231965D01*
X182215863Y-84235564D01*
X182231188Y-84241308D01*
X182244766Y-84249971D01*
X182257039Y-84262324D01*
X182268450Y-84279140D01*
X182279440Y-84301193D01*
X182290453Y-84329255D01*
X182301931Y-84364099D01*
X182314316Y-84406498D01*
X182328050Y-84457225D01*
X182343577Y-84517052D01*
X182344299Y-84519867D01*
X182361506Y-84592474D01*
X182375540Y-84664276D01*
X182386689Y-84737443D01*
X182395238Y-84814150D01*
X182401474Y-84896569D01*
X182405609Y-84984760D01*
X182406717Y-85018405D01*
X182407222Y-85044525D01*
X182406933Y-85065749D01*
X182405658Y-85084703D01*
X182403208Y-85104014D01*
X182399391Y-85126309D01*
X182394016Y-85154217D01*
X182392872Y-85160020D01*
X182376391Y-85238711D01*
X182358865Y-85313406D01*
X182340546Y-85383339D01*
X182321687Y-85447741D01*
X182302541Y-85505845D01*
X182283359Y-85556882D01*
X182264394Y-85600085D01*
X182245900Y-85634686D01*
X182228657Y-85659293D01*
X182217953Y-85672749D01*
X182203677Y-85691717D01*
X182187975Y-85713311D01*
X182177487Y-85728152D01*
X182151986Y-85762275D01*
X182128222Y-85789201D01*
X182106922Y-85808184D01*
X182089823Y-85818106D01*
X182077848Y-85820698D01*
X182060149Y-85822358D01*
X182045639Y-85822712D01*
X182029049Y-85821866D01*
X182013769Y-85819024D01*
X181996746Y-85813303D01*
X181974929Y-85803818D01*
X181965960Y-85799618D01*
X181943192Y-85787894D01*
X181921706Y-85775181D01*
X181904652Y-85763418D01*
X181898199Y-85757955D01*
X181875298Y-85729710D01*
X181855228Y-85691883D01*
X181837972Y-85644420D01*
X181823507Y-85587269D01*
X181814959Y-85541020D01*
X181812442Y-85523764D01*
X181810422Y-85505587D01*
X181808848Y-85485174D01*
X181807672Y-85461208D01*
X181806843Y-85432375D01*
X181806312Y-85397359D01*
X181806029Y-85354844D01*
X181805945Y-85303516D01*
X181805945Y-85302260D01*
X181806068Y-85245778D01*
X181806514Y-85197431D01*
X181807403Y-85155192D01*
X181808857Y-85117037D01*
X181810997Y-85080942D01*
X181813942Y-85044882D01*
X181817814Y-85006833D01*
X181822734Y-84964769D01*
X181828823Y-84916667D01*
X181829068Y-84914778D01*
X181838126Y-84857754D01*
X181850976Y-84795299D01*
X181867031Y-84729301D01*
X181885706Y-84661648D01*
X181906413Y-84594227D01*
X181928565Y-84528927D01*
X181951577Y-84467635D01*
X181974862Y-84412239D01*
X181997832Y-84364626D01*
X182003030Y-84354937D01*
X182030897Y-84310835D01*
X182061983Y-84273517D01*
X182062588Y-84272896D01*
X182085380Y-84251619D01*
X182106068Y-84237902D01*
X182127763Y-84230583D01*
X182153575Y-84228502D01*
X182178201Y-84229738D01*
D12*
X181925001Y-94635001D02*
X183725001Y-94635001D01*
X183725001Y-91415001D02*
X181275001Y-91415001D01*
D11*
X184587142Y-93866666D02*
X184634761Y-93914285D01*
X184682380Y-94057142D01*
X184682380Y-94152380D01*
X184634761Y-94295238D01*
X184539523Y-94390476D01*
X184444285Y-94438095D01*
X184253809Y-94485714D01*
X184110952Y-94485714D01*
X183920476Y-94438095D01*
X183825238Y-94390476D01*
X183730000Y-94295238D01*
X183682380Y-94152380D01*
X183682380Y-94057142D01*
X183730000Y-93914285D01*
X183777619Y-93866666D01*
X184015714Y-93009523D02*
X184682380Y-93009523D01*
X183634761Y-93247619D02*
X184349047Y-93485714D01*
X184349047Y-92866666D01*
M02*
