G04 #@! TF.GenerationSoftware,KiCad,Pcbnew,5.1.2-f72e74a~84~ubuntu18.04.1*
G04 #@! TF.CreationDate,2019-09-23T03:00:40+02:00*
G04 #@! TF.ProjectId,roboy_3.0_40mm_ball_sensor,726f626f-795f-4332-9e30-5f34306d6d5f,rev?*
G04 #@! TF.SameCoordinates,Original*
G04 #@! TF.FileFunction,Soldermask,Bot*
G04 #@! TF.FilePolarity,Negative*
%FSLAX46Y46*%
G04 Gerber Fmt 4.6, Leading zero omitted, Abs format (unit mm)*
G04 Created by KiCad (PCBNEW 5.1.2-f72e74a~84~ubuntu18.04.1) date 2019-09-23 03:00:40*
%MOMM*%
%LPD*%
G04 APERTURE LIST*
%ADD10C,0.100000*%
G04 APERTURE END LIST*
D10*
G36*
X160875256Y-123211298D02*
G01*
X160981579Y-123232447D01*
X161282042Y-123356903D01*
X161552451Y-123537585D01*
X161782415Y-123767549D01*
X161963097Y-124037958D01*
X162087553Y-124338421D01*
X162151000Y-124657391D01*
X162151000Y-124982609D01*
X162087553Y-125301579D01*
X161963097Y-125602042D01*
X161782415Y-125872451D01*
X161552451Y-126102415D01*
X161282042Y-126283097D01*
X160981579Y-126407553D01*
X160875256Y-126428702D01*
X160662611Y-126471000D01*
X160337389Y-126471000D01*
X160124744Y-126428702D01*
X160018421Y-126407553D01*
X159717958Y-126283097D01*
X159447549Y-126102415D01*
X159217585Y-125872451D01*
X159036903Y-125602042D01*
X158912447Y-125301579D01*
X158849000Y-124982609D01*
X158849000Y-124657391D01*
X158912447Y-124338421D01*
X159036903Y-124037958D01*
X159217585Y-123767549D01*
X159447549Y-123537585D01*
X159717958Y-123356903D01*
X160018421Y-123232447D01*
X160124744Y-123211298D01*
X160337389Y-123169000D01*
X160662611Y-123169000D01*
X160875256Y-123211298D01*
X160875256Y-123211298D01*
G37*
G36*
X184416282Y-106107741D02*
G01*
X184522605Y-106128890D01*
X184823068Y-106253346D01*
X185093477Y-106434028D01*
X185323441Y-106663992D01*
X185504123Y-106934401D01*
X185628579Y-107234864D01*
X185692026Y-107553834D01*
X185692026Y-107879052D01*
X185628579Y-108198022D01*
X185504123Y-108498485D01*
X185323441Y-108768894D01*
X185093477Y-108998858D01*
X184823068Y-109179540D01*
X184522605Y-109303996D01*
X184416282Y-109325145D01*
X184203637Y-109367443D01*
X183878415Y-109367443D01*
X183665770Y-109325145D01*
X183559447Y-109303996D01*
X183258984Y-109179540D01*
X182988575Y-108998858D01*
X182758611Y-108768894D01*
X182577929Y-108498485D01*
X182453473Y-108198022D01*
X182390026Y-107879052D01*
X182390026Y-107553834D01*
X182453473Y-107234864D01*
X182577929Y-106934401D01*
X182758611Y-106663992D01*
X182988575Y-106434028D01*
X183258984Y-106253346D01*
X183559447Y-106128890D01*
X183665770Y-106107741D01*
X183878415Y-106065443D01*
X184203637Y-106065443D01*
X184416282Y-106107741D01*
X184416282Y-106107741D01*
G37*
G36*
X137334230Y-106107741D02*
G01*
X137440553Y-106128890D01*
X137741016Y-106253346D01*
X138011425Y-106434028D01*
X138241389Y-106663992D01*
X138422071Y-106934401D01*
X138546527Y-107234864D01*
X138609974Y-107553834D01*
X138609974Y-107879052D01*
X138546527Y-108198022D01*
X138422071Y-108498485D01*
X138241389Y-108768894D01*
X138011425Y-108998858D01*
X137741016Y-109179540D01*
X137440553Y-109303996D01*
X137334230Y-109325145D01*
X137121585Y-109367443D01*
X136796363Y-109367443D01*
X136583718Y-109325145D01*
X136477395Y-109303996D01*
X136176932Y-109179540D01*
X135906523Y-108998858D01*
X135676559Y-108768894D01*
X135495877Y-108498485D01*
X135371421Y-108198022D01*
X135307974Y-107879052D01*
X135307974Y-107553834D01*
X135371421Y-107234864D01*
X135495877Y-106934401D01*
X135676559Y-106663992D01*
X135906523Y-106434028D01*
X136176932Y-106253346D01*
X136477395Y-106128890D01*
X136583718Y-106107741D01*
X136796363Y-106065443D01*
X137121585Y-106065443D01*
X137334230Y-106107741D01*
X137334230Y-106107741D01*
G37*
G36*
X175424410Y-78433605D02*
G01*
X175530733Y-78454754D01*
X175831196Y-78579210D01*
X176101605Y-78759892D01*
X176331569Y-78989856D01*
X176512251Y-79260265D01*
X176636707Y-79560728D01*
X176700154Y-79879698D01*
X176700154Y-80204916D01*
X176636707Y-80523886D01*
X176512251Y-80824349D01*
X176331569Y-81094758D01*
X176101605Y-81324722D01*
X175831196Y-81505404D01*
X175530733Y-81629860D01*
X175424410Y-81651009D01*
X175211765Y-81693307D01*
X174886543Y-81693307D01*
X174673898Y-81651009D01*
X174567575Y-81629860D01*
X174267112Y-81505404D01*
X173996703Y-81324722D01*
X173766739Y-81094758D01*
X173586057Y-80824349D01*
X173461601Y-80523886D01*
X173398154Y-80204916D01*
X173398154Y-79879698D01*
X173461601Y-79560728D01*
X173586057Y-79260265D01*
X173766739Y-78989856D01*
X173996703Y-78759892D01*
X174267112Y-78579210D01*
X174567575Y-78454754D01*
X174673898Y-78433605D01*
X174886543Y-78391307D01*
X175211765Y-78391307D01*
X175424410Y-78433605D01*
X175424410Y-78433605D01*
G37*
G36*
X146326102Y-78433605D02*
G01*
X146432425Y-78454754D01*
X146732888Y-78579210D01*
X147003297Y-78759892D01*
X147233261Y-78989856D01*
X147413943Y-79260265D01*
X147538399Y-79560728D01*
X147601846Y-79879698D01*
X147601846Y-80204916D01*
X147538399Y-80523886D01*
X147413943Y-80824349D01*
X147233261Y-81094758D01*
X147003297Y-81324722D01*
X146732888Y-81505404D01*
X146432425Y-81629860D01*
X146326102Y-81651009D01*
X146113457Y-81693307D01*
X145788235Y-81693307D01*
X145575590Y-81651009D01*
X145469267Y-81629860D01*
X145168804Y-81505404D01*
X144898395Y-81324722D01*
X144668431Y-81094758D01*
X144487749Y-80824349D01*
X144363293Y-80523886D01*
X144299846Y-80204916D01*
X144299846Y-79879698D01*
X144363293Y-79560728D01*
X144487749Y-79260265D01*
X144668431Y-78989856D01*
X144898395Y-78759892D01*
X145168804Y-78579210D01*
X145469267Y-78454754D01*
X145575590Y-78433605D01*
X145788235Y-78391307D01*
X146113457Y-78391307D01*
X146326102Y-78433605D01*
X146326102Y-78433605D01*
G37*
G36*
X163987395Y-77125546D02*
G01*
X164160466Y-77197234D01*
X164160467Y-77197235D01*
X164316227Y-77301310D01*
X164448690Y-77433773D01*
X164448691Y-77433775D01*
X164552766Y-77589534D01*
X164624454Y-77762605D01*
X164661000Y-77946333D01*
X164661000Y-78133667D01*
X164624454Y-78317395D01*
X164552766Y-78490466D01*
X164552765Y-78490467D01*
X164448690Y-78646227D01*
X164316227Y-78778690D01*
X164237818Y-78831081D01*
X164160466Y-78882766D01*
X163987395Y-78954454D01*
X163803667Y-78991000D01*
X163616333Y-78991000D01*
X163432605Y-78954454D01*
X163259534Y-78882766D01*
X163182182Y-78831081D01*
X163103773Y-78778690D01*
X162971310Y-78646227D01*
X162867235Y-78490467D01*
X162867234Y-78490466D01*
X162795546Y-78317395D01*
X162759000Y-78133667D01*
X162759000Y-77946333D01*
X162795546Y-77762605D01*
X162867234Y-77589534D01*
X162971309Y-77433775D01*
X162971310Y-77433773D01*
X163103773Y-77301310D01*
X163259533Y-77197235D01*
X163259534Y-77197234D01*
X163432605Y-77125546D01*
X163616333Y-77089000D01*
X163803667Y-77089000D01*
X163987395Y-77125546D01*
X163987395Y-77125546D01*
G37*
G36*
X158907395Y-77125546D02*
G01*
X159080466Y-77197234D01*
X159080467Y-77197235D01*
X159236227Y-77301310D01*
X159368690Y-77433773D01*
X159368691Y-77433775D01*
X159472766Y-77589534D01*
X159544454Y-77762605D01*
X159581000Y-77946333D01*
X159581000Y-78133667D01*
X159544454Y-78317395D01*
X159472766Y-78490466D01*
X159472765Y-78490467D01*
X159368690Y-78646227D01*
X159236227Y-78778690D01*
X159157818Y-78831081D01*
X159080466Y-78882766D01*
X158907395Y-78954454D01*
X158723667Y-78991000D01*
X158536333Y-78991000D01*
X158352605Y-78954454D01*
X158179534Y-78882766D01*
X158102182Y-78831081D01*
X158023773Y-78778690D01*
X157891310Y-78646227D01*
X157787235Y-78490467D01*
X157787234Y-78490466D01*
X157715546Y-78317395D01*
X157679000Y-78133667D01*
X157679000Y-77946333D01*
X157715546Y-77762605D01*
X157787234Y-77589534D01*
X157891309Y-77433775D01*
X157891310Y-77433773D01*
X158023773Y-77301310D01*
X158179533Y-77197235D01*
X158179534Y-77197234D01*
X158352605Y-77125546D01*
X158536333Y-77089000D01*
X158723667Y-77089000D01*
X158907395Y-77125546D01*
X158907395Y-77125546D01*
G37*
G36*
X156367395Y-77125546D02*
G01*
X156540466Y-77197234D01*
X156540467Y-77197235D01*
X156696227Y-77301310D01*
X156828690Y-77433773D01*
X156828691Y-77433775D01*
X156932766Y-77589534D01*
X157004454Y-77762605D01*
X157041000Y-77946333D01*
X157041000Y-78133667D01*
X157004454Y-78317395D01*
X156932766Y-78490466D01*
X156932765Y-78490467D01*
X156828690Y-78646227D01*
X156696227Y-78778690D01*
X156617818Y-78831081D01*
X156540466Y-78882766D01*
X156367395Y-78954454D01*
X156183667Y-78991000D01*
X155996333Y-78991000D01*
X155812605Y-78954454D01*
X155639534Y-78882766D01*
X155562182Y-78831081D01*
X155483773Y-78778690D01*
X155351310Y-78646227D01*
X155247235Y-78490467D01*
X155247234Y-78490466D01*
X155175546Y-78317395D01*
X155139000Y-78133667D01*
X155139000Y-77946333D01*
X155175546Y-77762605D01*
X155247234Y-77589534D01*
X155351309Y-77433775D01*
X155351310Y-77433773D01*
X155483773Y-77301310D01*
X155639533Y-77197235D01*
X155639534Y-77197234D01*
X155812605Y-77125546D01*
X155996333Y-77089000D01*
X156183667Y-77089000D01*
X156367395Y-77125546D01*
X156367395Y-77125546D01*
G37*
G36*
X161447395Y-77125546D02*
G01*
X161620466Y-77197234D01*
X161620467Y-77197235D01*
X161776227Y-77301310D01*
X161908690Y-77433773D01*
X161908691Y-77433775D01*
X162012766Y-77589534D01*
X162084454Y-77762605D01*
X162121000Y-77946333D01*
X162121000Y-78133667D01*
X162084454Y-78317395D01*
X162012766Y-78490466D01*
X162012765Y-78490467D01*
X161908690Y-78646227D01*
X161776227Y-78778690D01*
X161697818Y-78831081D01*
X161620466Y-78882766D01*
X161447395Y-78954454D01*
X161263667Y-78991000D01*
X161076333Y-78991000D01*
X160892605Y-78954454D01*
X160719534Y-78882766D01*
X160642182Y-78831081D01*
X160563773Y-78778690D01*
X160431310Y-78646227D01*
X160327235Y-78490467D01*
X160327234Y-78490466D01*
X160255546Y-78317395D01*
X160219000Y-78133667D01*
X160219000Y-77946333D01*
X160255546Y-77762605D01*
X160327234Y-77589534D01*
X160431309Y-77433775D01*
X160431310Y-77433773D01*
X160563773Y-77301310D01*
X160719533Y-77197235D01*
X160719534Y-77197234D01*
X160892605Y-77125546D01*
X161076333Y-77089000D01*
X161263667Y-77089000D01*
X161447395Y-77125546D01*
X161447395Y-77125546D01*
G37*
G36*
X166527395Y-77125546D02*
G01*
X166700466Y-77197234D01*
X166700467Y-77197235D01*
X166856227Y-77301310D01*
X166988690Y-77433773D01*
X166988691Y-77433775D01*
X167092766Y-77589534D01*
X167164454Y-77762605D01*
X167201000Y-77946333D01*
X167201000Y-78133667D01*
X167164454Y-78317395D01*
X167092766Y-78490466D01*
X167092765Y-78490467D01*
X166988690Y-78646227D01*
X166856227Y-78778690D01*
X166777818Y-78831081D01*
X166700466Y-78882766D01*
X166527395Y-78954454D01*
X166343667Y-78991000D01*
X166156333Y-78991000D01*
X165972605Y-78954454D01*
X165799534Y-78882766D01*
X165722182Y-78831081D01*
X165643773Y-78778690D01*
X165511310Y-78646227D01*
X165407235Y-78490467D01*
X165407234Y-78490466D01*
X165335546Y-78317395D01*
X165299000Y-78133667D01*
X165299000Y-77946333D01*
X165335546Y-77762605D01*
X165407234Y-77589534D01*
X165511309Y-77433775D01*
X165511310Y-77433773D01*
X165643773Y-77301310D01*
X165799533Y-77197235D01*
X165799534Y-77197234D01*
X165972605Y-77125546D01*
X166156333Y-77089000D01*
X166343667Y-77089000D01*
X166527395Y-77125546D01*
X166527395Y-77125546D01*
G37*
G36*
X155771000Y-76451000D02*
G01*
X154003300Y-76451000D01*
X153978914Y-76453402D01*
X153955465Y-76460515D01*
X153933854Y-76472066D01*
X153914912Y-76487611D01*
X153899367Y-76506553D01*
X153887816Y-76528164D01*
X153880703Y-76551613D01*
X153878301Y-76575999D01*
X153880703Y-76600385D01*
X153887816Y-76623834D01*
X153899367Y-76645445D01*
X153914912Y-76664387D01*
X153927904Y-76675049D01*
X153930637Y-76677782D01*
X153930640Y-76677784D01*
X154042216Y-76789360D01*
X154042217Y-76789362D01*
X154129882Y-76920562D01*
X154190267Y-77066343D01*
X154221050Y-77221102D01*
X154221050Y-77378898D01*
X154190267Y-77533657D01*
X154129882Y-77679438D01*
X154129881Y-77679439D01*
X154042216Y-77810640D01*
X153930640Y-77922216D01*
X153894546Y-77946333D01*
X153799438Y-78009882D01*
X153653657Y-78070267D01*
X153498898Y-78101050D01*
X153341102Y-78101050D01*
X153186343Y-78070267D01*
X153040562Y-78009882D01*
X152945454Y-77946333D01*
X152909360Y-77922216D01*
X152797784Y-77810640D01*
X152710119Y-77679439D01*
X152710118Y-77679438D01*
X152649733Y-77533657D01*
X152618950Y-77378898D01*
X152618950Y-77221102D01*
X152649733Y-77066343D01*
X152710118Y-76920562D01*
X152797783Y-76789362D01*
X152797784Y-76789360D01*
X152909360Y-76677784D01*
X152975406Y-76633654D01*
X153040562Y-76590118D01*
X153186343Y-76529733D01*
X153341102Y-76498950D01*
X153498898Y-76498950D01*
X153653655Y-76529733D01*
X153653657Y-76529734D01*
X153653658Y-76529734D01*
X153668278Y-76535790D01*
X153696165Y-76547341D01*
X153719614Y-76554454D01*
X153744000Y-76556856D01*
X153768386Y-76554454D01*
X153791835Y-76547341D01*
X153813446Y-76535790D01*
X153832388Y-76520245D01*
X153847933Y-76501303D01*
X153859485Y-76479693D01*
X153866598Y-76456244D01*
X153869000Y-76431857D01*
X153869000Y-74549000D01*
X155771000Y-74549000D01*
X155771000Y-76451000D01*
X155771000Y-76451000D01*
G37*
G36*
X157637395Y-74585546D02*
G01*
X157810466Y-74657234D01*
X157810467Y-74657235D01*
X157966227Y-74761310D01*
X158098690Y-74893773D01*
X158098691Y-74893775D01*
X158202766Y-75049534D01*
X158274454Y-75222605D01*
X158311000Y-75406333D01*
X158311000Y-75593667D01*
X158274454Y-75777395D01*
X158202766Y-75950466D01*
X158202765Y-75950467D01*
X158098690Y-76106227D01*
X157966227Y-76238690D01*
X157887818Y-76291081D01*
X157810466Y-76342766D01*
X157637395Y-76414454D01*
X157453667Y-76451000D01*
X157266333Y-76451000D01*
X157082605Y-76414454D01*
X156909534Y-76342766D01*
X156832182Y-76291081D01*
X156753773Y-76238690D01*
X156621310Y-76106227D01*
X156517235Y-75950467D01*
X156517234Y-75950466D01*
X156445546Y-75777395D01*
X156409000Y-75593667D01*
X156409000Y-75406333D01*
X156445546Y-75222605D01*
X156517234Y-75049534D01*
X156621309Y-74893775D01*
X156621310Y-74893773D01*
X156753773Y-74761310D01*
X156909533Y-74657235D01*
X156909534Y-74657234D01*
X157082605Y-74585546D01*
X157266333Y-74549000D01*
X157453667Y-74549000D01*
X157637395Y-74585546D01*
X157637395Y-74585546D01*
G37*
G36*
X160177395Y-74585546D02*
G01*
X160350466Y-74657234D01*
X160350467Y-74657235D01*
X160506227Y-74761310D01*
X160638690Y-74893773D01*
X160638691Y-74893775D01*
X160742766Y-75049534D01*
X160814454Y-75222605D01*
X160851000Y-75406333D01*
X160851000Y-75593667D01*
X160814454Y-75777395D01*
X160742766Y-75950466D01*
X160742765Y-75950467D01*
X160638690Y-76106227D01*
X160506227Y-76238690D01*
X160427818Y-76291081D01*
X160350466Y-76342766D01*
X160177395Y-76414454D01*
X159993667Y-76451000D01*
X159806333Y-76451000D01*
X159622605Y-76414454D01*
X159449534Y-76342766D01*
X159372182Y-76291081D01*
X159293773Y-76238690D01*
X159161310Y-76106227D01*
X159057235Y-75950467D01*
X159057234Y-75950466D01*
X158985546Y-75777395D01*
X158949000Y-75593667D01*
X158949000Y-75406333D01*
X158985546Y-75222605D01*
X159057234Y-75049534D01*
X159161309Y-74893775D01*
X159161310Y-74893773D01*
X159293773Y-74761310D01*
X159449533Y-74657235D01*
X159449534Y-74657234D01*
X159622605Y-74585546D01*
X159806333Y-74549000D01*
X159993667Y-74549000D01*
X160177395Y-74585546D01*
X160177395Y-74585546D01*
G37*
G36*
X162717395Y-74585546D02*
G01*
X162890466Y-74657234D01*
X162890467Y-74657235D01*
X163046227Y-74761310D01*
X163178690Y-74893773D01*
X163178691Y-74893775D01*
X163282766Y-75049534D01*
X163354454Y-75222605D01*
X163391000Y-75406333D01*
X163391000Y-75593667D01*
X163354454Y-75777395D01*
X163282766Y-75950466D01*
X163282765Y-75950467D01*
X163178690Y-76106227D01*
X163046227Y-76238690D01*
X162967818Y-76291081D01*
X162890466Y-76342766D01*
X162717395Y-76414454D01*
X162533667Y-76451000D01*
X162346333Y-76451000D01*
X162162605Y-76414454D01*
X161989534Y-76342766D01*
X161912182Y-76291081D01*
X161833773Y-76238690D01*
X161701310Y-76106227D01*
X161597235Y-75950467D01*
X161597234Y-75950466D01*
X161525546Y-75777395D01*
X161489000Y-75593667D01*
X161489000Y-75406333D01*
X161525546Y-75222605D01*
X161597234Y-75049534D01*
X161701309Y-74893775D01*
X161701310Y-74893773D01*
X161833773Y-74761310D01*
X161989533Y-74657235D01*
X161989534Y-74657234D01*
X162162605Y-74585546D01*
X162346333Y-74549000D01*
X162533667Y-74549000D01*
X162717395Y-74585546D01*
X162717395Y-74585546D01*
G37*
G36*
X165257395Y-74585546D02*
G01*
X165430466Y-74657234D01*
X165430467Y-74657235D01*
X165586227Y-74761310D01*
X165718690Y-74893773D01*
X165718691Y-74893775D01*
X165822766Y-75049534D01*
X165894454Y-75222605D01*
X165931000Y-75406333D01*
X165931000Y-75593667D01*
X165894454Y-75777395D01*
X165822766Y-75950466D01*
X165822765Y-75950467D01*
X165718690Y-76106227D01*
X165586227Y-76238690D01*
X165507818Y-76291081D01*
X165430466Y-76342766D01*
X165257395Y-76414454D01*
X165073667Y-76451000D01*
X164886333Y-76451000D01*
X164702605Y-76414454D01*
X164529534Y-76342766D01*
X164452182Y-76291081D01*
X164373773Y-76238690D01*
X164241310Y-76106227D01*
X164137235Y-75950467D01*
X164137234Y-75950466D01*
X164065546Y-75777395D01*
X164029000Y-75593667D01*
X164029000Y-75406333D01*
X164065546Y-75222605D01*
X164137234Y-75049534D01*
X164241309Y-74893775D01*
X164241310Y-74893773D01*
X164373773Y-74761310D01*
X164529533Y-74657235D01*
X164529534Y-74657234D01*
X164702605Y-74585546D01*
X164886333Y-74549000D01*
X165073667Y-74549000D01*
X165257395Y-74585546D01*
X165257395Y-74585546D01*
G37*
M02*
