G04 #@! TF.GenerationSoftware,KiCad,Pcbnew,5.1.5-52549c5~84~ubuntu18.04.1*
G04 #@! TF.CreationDate,2020-06-09T16:27:21+02:00*
G04 #@! TF.ProjectId,roboy_3.0_40mm_ball_sensor,726f626f-795f-4332-9e30-5f34306d6d5f,rev?*
G04 #@! TF.SameCoordinates,Original*
G04 #@! TF.FileFunction,Paste,Top*
G04 #@! TF.FilePolarity,Positive*
%FSLAX46Y46*%
G04 Gerber Fmt 4.6, Leading zero omitted, Abs format (unit mm)*
G04 Created by KiCad (PCBNEW 5.1.5-52549c5~84~ubuntu18.04.1) date 2020-06-09 16:27:21*
%MOMM*%
%LPD*%
G04 APERTURE LIST*
%ADD10C,0.100000*%
G04 APERTURE END LIST*
D10*
G36*
X150219868Y-80340313D02*
G01*
X149583832Y-80737753D01*
X149318872Y-80313729D01*
X149954908Y-79916289D01*
X150219868Y-80340313D01*
G37*
G36*
X150723291Y-81145959D02*
G01*
X150087255Y-81543399D01*
X149822295Y-81119375D01*
X150458331Y-80721935D01*
X150723291Y-81145959D01*
G37*
G36*
X149716444Y-79534667D02*
G01*
X149080408Y-79932107D01*
X148815448Y-79508083D01*
X149451484Y-79110643D01*
X149716444Y-79534667D01*
G37*
G36*
X148475963Y-82550245D02*
G01*
X147839927Y-82947685D01*
X147574967Y-82523661D01*
X148211003Y-82126221D01*
X148475963Y-82550245D01*
G37*
G36*
X147972540Y-81744599D02*
G01*
X147336504Y-82142039D01*
X147071544Y-81718015D01*
X147707580Y-81320575D01*
X147972540Y-81744599D01*
G37*
G36*
X147469117Y-80938954D02*
G01*
X146833081Y-81336394D01*
X146568121Y-80912370D01*
X147204157Y-80514930D01*
X147469117Y-80938954D01*
G37*
G36*
X151215967Y-78979103D02*
G01*
X151230214Y-78981663D01*
X151244141Y-78985608D01*
X151257615Y-78990898D01*
X151270505Y-78997484D01*
X151282688Y-79005301D01*
X151294045Y-79014275D01*
X151304469Y-79024318D01*
X151313857Y-79035336D01*
X151322121Y-79047220D01*
X151478447Y-79297394D01*
X151485506Y-79310031D01*
X151491292Y-79323299D01*
X151495750Y-79337070D01*
X151498837Y-79351213D01*
X151500523Y-79365589D01*
X151500791Y-79380061D01*
X151499640Y-79394491D01*
X151497080Y-79408737D01*
X151493135Y-79422665D01*
X151487845Y-79436138D01*
X151481259Y-79449028D01*
X151473442Y-79461211D01*
X151464468Y-79472568D01*
X151454424Y-79482992D01*
X151443407Y-79492380D01*
X151431523Y-79500644D01*
X151138947Y-79683466D01*
X151126310Y-79690525D01*
X151113042Y-79696311D01*
X151099271Y-79700769D01*
X151085129Y-79703856D01*
X151070752Y-79705542D01*
X151056280Y-79705810D01*
X151041851Y-79704659D01*
X151027604Y-79702099D01*
X151013677Y-79698154D01*
X151000203Y-79692864D01*
X150987313Y-79686278D01*
X150975130Y-79678461D01*
X150963773Y-79669487D01*
X150953349Y-79659444D01*
X150943961Y-79648426D01*
X150935697Y-79636542D01*
X150779371Y-79386368D01*
X150772312Y-79373731D01*
X150766526Y-79360463D01*
X150762068Y-79346692D01*
X150758981Y-79332549D01*
X150757295Y-79318173D01*
X150757027Y-79303701D01*
X150758178Y-79289271D01*
X150760738Y-79275025D01*
X150764683Y-79261097D01*
X150769973Y-79247624D01*
X150776559Y-79234734D01*
X150784376Y-79222551D01*
X150793350Y-79211194D01*
X150803394Y-79200770D01*
X150814411Y-79191382D01*
X150826295Y-79183118D01*
X151118871Y-79000296D01*
X151131508Y-78993237D01*
X151144776Y-78987451D01*
X151158547Y-78982993D01*
X151172689Y-78979906D01*
X151187066Y-78978220D01*
X151201538Y-78977952D01*
X151215967Y-78979103D01*
G37*
G36*
X151729989Y-79801709D02*
G01*
X151744236Y-79804269D01*
X151758163Y-79808214D01*
X151771637Y-79813504D01*
X151784527Y-79820090D01*
X151796710Y-79827907D01*
X151808067Y-79836881D01*
X151818491Y-79846924D01*
X151827879Y-79857942D01*
X151836143Y-79869826D01*
X151992469Y-80120000D01*
X151999528Y-80132637D01*
X152005314Y-80145905D01*
X152009772Y-80159676D01*
X152012859Y-80173819D01*
X152014545Y-80188195D01*
X152014813Y-80202667D01*
X152013662Y-80217097D01*
X152011102Y-80231343D01*
X152007157Y-80245271D01*
X152001867Y-80258744D01*
X151995281Y-80271634D01*
X151987464Y-80283817D01*
X151978490Y-80295174D01*
X151968446Y-80305598D01*
X151957429Y-80314986D01*
X151945545Y-80323250D01*
X151652969Y-80506072D01*
X151640332Y-80513131D01*
X151627064Y-80518917D01*
X151613293Y-80523375D01*
X151599151Y-80526462D01*
X151584774Y-80528148D01*
X151570302Y-80528416D01*
X151555873Y-80527265D01*
X151541626Y-80524705D01*
X151527699Y-80520760D01*
X151514225Y-80515470D01*
X151501335Y-80508884D01*
X151489152Y-80501067D01*
X151477795Y-80492093D01*
X151467371Y-80482050D01*
X151457983Y-80471032D01*
X151449719Y-80459148D01*
X151293393Y-80208974D01*
X151286334Y-80196337D01*
X151280548Y-80183069D01*
X151276090Y-80169298D01*
X151273003Y-80155155D01*
X151271317Y-80140779D01*
X151271049Y-80126307D01*
X151272200Y-80111877D01*
X151274760Y-80097631D01*
X151278705Y-80083703D01*
X151283995Y-80070230D01*
X151290581Y-80057340D01*
X151298398Y-80045157D01*
X151307372Y-80033800D01*
X151317416Y-80023376D01*
X151328433Y-80013988D01*
X151340317Y-80005724D01*
X151632893Y-79822902D01*
X151645530Y-79815843D01*
X151658798Y-79810057D01*
X151672569Y-79805599D01*
X151686711Y-79802512D01*
X151701088Y-79800826D01*
X151715560Y-79800558D01*
X151729989Y-79801709D01*
G37*
G36*
X140717097Y-108486338D02*
G01*
X140731343Y-108488898D01*
X140745271Y-108492843D01*
X140758744Y-108498133D01*
X140771634Y-108504719D01*
X140783817Y-108512536D01*
X140795174Y-108521510D01*
X140805598Y-108531554D01*
X140814986Y-108542571D01*
X140823250Y-108554455D01*
X141006072Y-108847031D01*
X141013131Y-108859668D01*
X141018917Y-108872936D01*
X141023375Y-108886707D01*
X141026462Y-108900849D01*
X141028148Y-108915226D01*
X141028416Y-108929698D01*
X141027265Y-108944127D01*
X141024705Y-108958374D01*
X141020760Y-108972301D01*
X141015470Y-108985775D01*
X141008884Y-108998665D01*
X141001067Y-109010848D01*
X140992093Y-109022205D01*
X140982050Y-109032629D01*
X140971032Y-109042017D01*
X140959148Y-109050281D01*
X140708974Y-109206607D01*
X140696337Y-109213666D01*
X140683069Y-109219452D01*
X140669298Y-109223910D01*
X140655155Y-109226997D01*
X140640779Y-109228683D01*
X140626307Y-109228951D01*
X140611877Y-109227800D01*
X140597631Y-109225240D01*
X140583703Y-109221295D01*
X140570230Y-109216005D01*
X140557340Y-109209419D01*
X140545157Y-109201602D01*
X140533800Y-109192628D01*
X140523376Y-109182584D01*
X140513988Y-109171567D01*
X140505724Y-109159683D01*
X140322902Y-108867107D01*
X140315843Y-108854470D01*
X140310057Y-108841202D01*
X140305599Y-108827431D01*
X140302512Y-108813289D01*
X140300826Y-108798912D01*
X140300558Y-108784440D01*
X140301709Y-108770011D01*
X140304269Y-108755764D01*
X140308214Y-108741837D01*
X140313504Y-108728363D01*
X140320090Y-108715473D01*
X140327907Y-108703290D01*
X140336881Y-108691933D01*
X140346924Y-108681509D01*
X140357942Y-108672121D01*
X140369826Y-108663857D01*
X140620000Y-108507531D01*
X140632637Y-108500472D01*
X140645905Y-108494686D01*
X140659676Y-108490228D01*
X140673819Y-108487141D01*
X140688195Y-108485455D01*
X140702667Y-108485187D01*
X140717097Y-108486338D01*
G37*
G36*
X139894491Y-109000360D02*
G01*
X139908737Y-109002920D01*
X139922665Y-109006865D01*
X139936138Y-109012155D01*
X139949028Y-109018741D01*
X139961211Y-109026558D01*
X139972568Y-109035532D01*
X139982992Y-109045576D01*
X139992380Y-109056593D01*
X140000644Y-109068477D01*
X140183466Y-109361053D01*
X140190525Y-109373690D01*
X140196311Y-109386958D01*
X140200769Y-109400729D01*
X140203856Y-109414871D01*
X140205542Y-109429248D01*
X140205810Y-109443720D01*
X140204659Y-109458149D01*
X140202099Y-109472396D01*
X140198154Y-109486323D01*
X140192864Y-109499797D01*
X140186278Y-109512687D01*
X140178461Y-109524870D01*
X140169487Y-109536227D01*
X140159444Y-109546651D01*
X140148426Y-109556039D01*
X140136542Y-109564303D01*
X139886368Y-109720629D01*
X139873731Y-109727688D01*
X139860463Y-109733474D01*
X139846692Y-109737932D01*
X139832549Y-109741019D01*
X139818173Y-109742705D01*
X139803701Y-109742973D01*
X139789271Y-109741822D01*
X139775025Y-109739262D01*
X139761097Y-109735317D01*
X139747624Y-109730027D01*
X139734734Y-109723441D01*
X139722551Y-109715624D01*
X139711194Y-109706650D01*
X139700770Y-109696606D01*
X139691382Y-109685589D01*
X139683118Y-109673705D01*
X139500296Y-109381129D01*
X139493237Y-109368492D01*
X139487451Y-109355224D01*
X139482993Y-109341453D01*
X139479906Y-109327311D01*
X139478220Y-109312934D01*
X139477952Y-109298462D01*
X139479103Y-109284033D01*
X139481663Y-109269786D01*
X139485608Y-109255859D01*
X139490898Y-109242385D01*
X139497484Y-109229495D01*
X139505301Y-109217312D01*
X139514275Y-109205955D01*
X139524318Y-109195531D01*
X139535336Y-109186143D01*
X139547220Y-109177879D01*
X139797394Y-109021553D01*
X139810031Y-109014494D01*
X139823299Y-109008708D01*
X139837070Y-109004250D01*
X139851213Y-109001163D01*
X139865589Y-108999477D01*
X139880061Y-108999209D01*
X139894491Y-109000360D01*
G37*
G36*
X169958149Y-120295341D02*
G01*
X169972396Y-120297901D01*
X169986323Y-120301846D01*
X169999797Y-120307136D01*
X170012687Y-120313722D01*
X170024870Y-120321539D01*
X170036227Y-120330513D01*
X170046651Y-120340556D01*
X170056039Y-120351574D01*
X170064303Y-120363458D01*
X170220629Y-120613632D01*
X170227688Y-120626269D01*
X170233474Y-120639537D01*
X170237932Y-120653308D01*
X170241019Y-120667451D01*
X170242705Y-120681827D01*
X170242973Y-120696299D01*
X170241822Y-120710729D01*
X170239262Y-120724975D01*
X170235317Y-120738903D01*
X170230027Y-120752376D01*
X170223441Y-120765266D01*
X170215624Y-120777449D01*
X170206650Y-120788806D01*
X170196606Y-120799230D01*
X170185589Y-120808618D01*
X170173705Y-120816882D01*
X169881129Y-120999704D01*
X169868492Y-121006763D01*
X169855224Y-121012549D01*
X169841453Y-121017007D01*
X169827311Y-121020094D01*
X169812934Y-121021780D01*
X169798462Y-121022048D01*
X169784033Y-121020897D01*
X169769786Y-121018337D01*
X169755859Y-121014392D01*
X169742385Y-121009102D01*
X169729495Y-121002516D01*
X169717312Y-120994699D01*
X169705955Y-120985725D01*
X169695531Y-120975682D01*
X169686143Y-120964664D01*
X169677879Y-120952780D01*
X169521553Y-120702606D01*
X169514494Y-120689969D01*
X169508708Y-120676701D01*
X169504250Y-120662930D01*
X169501163Y-120648787D01*
X169499477Y-120634411D01*
X169499209Y-120619939D01*
X169500360Y-120605509D01*
X169502920Y-120591263D01*
X169506865Y-120577335D01*
X169512155Y-120563862D01*
X169518741Y-120550972D01*
X169526558Y-120538789D01*
X169535532Y-120527432D01*
X169545576Y-120517008D01*
X169556593Y-120507620D01*
X169568477Y-120499356D01*
X169861053Y-120316534D01*
X169873690Y-120309475D01*
X169886958Y-120303689D01*
X169900729Y-120299231D01*
X169914871Y-120296144D01*
X169929248Y-120294458D01*
X169943720Y-120294190D01*
X169958149Y-120295341D01*
G37*
G36*
X169444127Y-119472735D02*
G01*
X169458374Y-119475295D01*
X169472301Y-119479240D01*
X169485775Y-119484530D01*
X169498665Y-119491116D01*
X169510848Y-119498933D01*
X169522205Y-119507907D01*
X169532629Y-119517950D01*
X169542017Y-119528968D01*
X169550281Y-119540852D01*
X169706607Y-119791026D01*
X169713666Y-119803663D01*
X169719452Y-119816931D01*
X169723910Y-119830702D01*
X169726997Y-119844845D01*
X169728683Y-119859221D01*
X169728951Y-119873693D01*
X169727800Y-119888123D01*
X169725240Y-119902369D01*
X169721295Y-119916297D01*
X169716005Y-119929770D01*
X169709419Y-119942660D01*
X169701602Y-119954843D01*
X169692628Y-119966200D01*
X169682584Y-119976624D01*
X169671567Y-119986012D01*
X169659683Y-119994276D01*
X169367107Y-120177098D01*
X169354470Y-120184157D01*
X169341202Y-120189943D01*
X169327431Y-120194401D01*
X169313289Y-120197488D01*
X169298912Y-120199174D01*
X169284440Y-120199442D01*
X169270011Y-120198291D01*
X169255764Y-120195731D01*
X169241837Y-120191786D01*
X169228363Y-120186496D01*
X169215473Y-120179910D01*
X169203290Y-120172093D01*
X169191933Y-120163119D01*
X169181509Y-120153076D01*
X169172121Y-120142058D01*
X169163857Y-120130174D01*
X169007531Y-119880000D01*
X169000472Y-119867363D01*
X168994686Y-119854095D01*
X168990228Y-119840324D01*
X168987141Y-119826181D01*
X168985455Y-119811805D01*
X168985187Y-119797333D01*
X168986338Y-119782903D01*
X168988898Y-119768657D01*
X168992843Y-119754729D01*
X168998133Y-119741256D01*
X169004719Y-119728366D01*
X169012536Y-119716183D01*
X169021510Y-119704826D01*
X169031554Y-119694402D01*
X169042571Y-119685014D01*
X169054455Y-119676750D01*
X169347031Y-119493928D01*
X169359668Y-119486869D01*
X169372936Y-119481083D01*
X169386707Y-119476625D01*
X169400849Y-119473538D01*
X169415226Y-119471852D01*
X169429698Y-119471584D01*
X169444127Y-119472735D01*
G37*
G36*
X181210729Y-90258178D02*
G01*
X181224975Y-90260738D01*
X181238903Y-90264683D01*
X181252376Y-90269973D01*
X181265266Y-90276559D01*
X181277449Y-90284376D01*
X181288806Y-90293350D01*
X181299230Y-90303394D01*
X181308618Y-90314411D01*
X181316882Y-90326295D01*
X181499704Y-90618871D01*
X181506763Y-90631508D01*
X181512549Y-90644776D01*
X181517007Y-90658547D01*
X181520094Y-90672689D01*
X181521780Y-90687066D01*
X181522048Y-90701538D01*
X181520897Y-90715967D01*
X181518337Y-90730214D01*
X181514392Y-90744141D01*
X181509102Y-90757615D01*
X181502516Y-90770505D01*
X181494699Y-90782688D01*
X181485725Y-90794045D01*
X181475682Y-90804469D01*
X181464664Y-90813857D01*
X181452780Y-90822121D01*
X181202606Y-90978447D01*
X181189969Y-90985506D01*
X181176701Y-90991292D01*
X181162930Y-90995750D01*
X181148787Y-90998837D01*
X181134411Y-91000523D01*
X181119939Y-91000791D01*
X181105509Y-90999640D01*
X181091263Y-90997080D01*
X181077335Y-90993135D01*
X181063862Y-90987845D01*
X181050972Y-90981259D01*
X181038789Y-90973442D01*
X181027432Y-90964468D01*
X181017008Y-90954424D01*
X181007620Y-90943407D01*
X180999356Y-90931523D01*
X180816534Y-90638947D01*
X180809475Y-90626310D01*
X180803689Y-90613042D01*
X180799231Y-90599271D01*
X180796144Y-90585129D01*
X180794458Y-90570752D01*
X180794190Y-90556280D01*
X180795341Y-90541851D01*
X180797901Y-90527604D01*
X180801846Y-90513677D01*
X180807136Y-90500203D01*
X180813722Y-90487313D01*
X180821539Y-90475130D01*
X180830513Y-90463773D01*
X180840556Y-90453349D01*
X180851574Y-90443961D01*
X180863458Y-90435697D01*
X181113632Y-90279371D01*
X181126269Y-90272312D01*
X181139537Y-90266526D01*
X181153308Y-90262068D01*
X181167451Y-90258981D01*
X181181827Y-90257295D01*
X181196299Y-90257027D01*
X181210729Y-90258178D01*
G37*
G36*
X180388123Y-90772200D02*
G01*
X180402369Y-90774760D01*
X180416297Y-90778705D01*
X180429770Y-90783995D01*
X180442660Y-90790581D01*
X180454843Y-90798398D01*
X180466200Y-90807372D01*
X180476624Y-90817416D01*
X180486012Y-90828433D01*
X180494276Y-90840317D01*
X180677098Y-91132893D01*
X180684157Y-91145530D01*
X180689943Y-91158798D01*
X180694401Y-91172569D01*
X180697488Y-91186711D01*
X180699174Y-91201088D01*
X180699442Y-91215560D01*
X180698291Y-91229989D01*
X180695731Y-91244236D01*
X180691786Y-91258163D01*
X180686496Y-91271637D01*
X180679910Y-91284527D01*
X180672093Y-91296710D01*
X180663119Y-91308067D01*
X180653076Y-91318491D01*
X180642058Y-91327879D01*
X180630174Y-91336143D01*
X180380000Y-91492469D01*
X180367363Y-91499528D01*
X180354095Y-91505314D01*
X180340324Y-91509772D01*
X180326181Y-91512859D01*
X180311805Y-91514545D01*
X180297333Y-91514813D01*
X180282903Y-91513662D01*
X180268657Y-91511102D01*
X180254729Y-91507157D01*
X180241256Y-91501867D01*
X180228366Y-91495281D01*
X180216183Y-91487464D01*
X180204826Y-91478490D01*
X180194402Y-91468446D01*
X180185014Y-91457429D01*
X180176750Y-91445545D01*
X179993928Y-91152969D01*
X179986869Y-91140332D01*
X179981083Y-91127064D01*
X179976625Y-91113293D01*
X179973538Y-91099151D01*
X179971852Y-91084774D01*
X179971584Y-91070302D01*
X179972735Y-91055873D01*
X179975295Y-91041626D01*
X179979240Y-91027699D01*
X179984530Y-91014225D01*
X179991116Y-91001335D01*
X179998933Y-90989152D01*
X180007907Y-90977795D01*
X180017950Y-90967371D01*
X180028968Y-90957983D01*
X180040852Y-90949719D01*
X180291026Y-90793393D01*
X180303663Y-90786334D01*
X180316931Y-90780548D01*
X180330702Y-90776090D01*
X180344845Y-90773003D01*
X180359221Y-90771317D01*
X180373693Y-90771049D01*
X180388123Y-90772200D01*
G37*
G36*
X140840313Y-110280132D02*
G01*
X141237753Y-110916168D01*
X140813729Y-111181128D01*
X140416289Y-110545092D01*
X140840313Y-110280132D01*
G37*
G36*
X141645959Y-109776709D02*
G01*
X142043399Y-110412745D01*
X141619375Y-110677705D01*
X141221935Y-110041669D01*
X141645959Y-109776709D01*
G37*
G36*
X140034667Y-110783556D02*
G01*
X140432107Y-111419592D01*
X140008083Y-111684552D01*
X139610643Y-111048516D01*
X140034667Y-110783556D01*
G37*
G36*
X143050245Y-112024037D02*
G01*
X143447685Y-112660073D01*
X143023661Y-112925033D01*
X142626221Y-112288997D01*
X143050245Y-112024037D01*
G37*
G36*
X142244599Y-112527460D02*
G01*
X142642039Y-113163496D01*
X142218015Y-113428456D01*
X141820575Y-112792420D01*
X142244599Y-112527460D01*
G37*
G36*
X141438954Y-113030883D02*
G01*
X141836394Y-113666919D01*
X141412370Y-113931879D01*
X141014930Y-113295843D01*
X141438954Y-113030883D01*
G37*
G36*
X173530883Y-119061046D02*
G01*
X174166919Y-118663606D01*
X174431879Y-119087630D01*
X173795843Y-119485070D01*
X173530883Y-119061046D01*
G37*
G36*
X173027460Y-118255401D02*
G01*
X173663496Y-117857961D01*
X173928456Y-118281985D01*
X173292420Y-118679425D01*
X173027460Y-118255401D01*
G37*
G36*
X172524037Y-117449755D02*
G01*
X173160073Y-117052315D01*
X173425033Y-117476339D01*
X172788997Y-117873779D01*
X172524037Y-117449755D01*
G37*
G36*
X171283556Y-120465333D02*
G01*
X171919592Y-120067893D01*
X172184552Y-120491917D01*
X171548516Y-120889357D01*
X171283556Y-120465333D01*
G37*
G36*
X170276709Y-118854041D02*
G01*
X170912745Y-118456601D01*
X171177705Y-118880625D01*
X170541669Y-119278065D01*
X170276709Y-118854041D01*
G37*
G36*
X170780132Y-119659687D02*
G01*
X171416168Y-119262247D01*
X171681128Y-119686271D01*
X171045092Y-120083711D01*
X170780132Y-119659687D01*
G37*
G36*
X179561046Y-86969117D02*
G01*
X179163606Y-86333081D01*
X179587630Y-86068121D01*
X179985070Y-86704157D01*
X179561046Y-86969117D01*
G37*
G36*
X178755401Y-87472540D02*
G01*
X178357961Y-86836504D01*
X178781985Y-86571544D01*
X179179425Y-87207580D01*
X178755401Y-87472540D01*
G37*
G36*
X177949755Y-87975963D02*
G01*
X177552315Y-87339927D01*
X177976339Y-87074967D01*
X178373779Y-87711003D01*
X177949755Y-87975963D01*
G37*
G36*
X180965333Y-89216444D02*
G01*
X180567893Y-88580408D01*
X180991917Y-88315448D01*
X181389357Y-88951484D01*
X180965333Y-89216444D01*
G37*
G36*
X179354041Y-90223291D02*
G01*
X178956601Y-89587255D01*
X179380625Y-89322295D01*
X179778065Y-89958331D01*
X179354041Y-90223291D01*
G37*
G36*
X180159687Y-89719868D02*
G01*
X179762247Y-89083832D01*
X180186271Y-88818872D01*
X180583711Y-89454908D01*
X180159687Y-89719868D01*
G37*
M02*
