M48
; DRILL file {KiCad 5.1.5-52549c5~84~ubuntu18.04.1} date Sa 06 Jun 2020 17:16:46 CEST
; FORMAT={-:-/ absolute / inch / decimal}
; #@! TF.CreationDate,2020-06-06T17:16:46+02:00
; #@! TF.GenerationSoftware,Kicad,Pcbnew,5.1.5-52549c5~84~ubuntu18.04.1
; #@! TF.FileFunction,Plated,1,2,PTH
FMAT,2
INCH
T1C0.0157
T2C0.0315
T3C0.1181
%
G90
G05
T1
X4.1654Y-2.8858
X4.189Y-3.9331
X4.2087Y-2.8858
X4.2126Y-3.9016
X4.2323Y-3.0197
X4.2348Y-3.2455
X4.2402Y-3.2913
X4.2478Y-3.3543
X4.2492Y-3.4907
X4.2756Y-3.2441
X4.3346Y-3.9764
X4.3584Y-3.0702
X4.3598Y-3.1095
X4.3976Y-2.7165
X4.4472Y-3.3754
X4.4518Y-3.9327
X4.468Y-3.1799
X4.4801Y-3.96
X4.4803Y-4.1693
X4.4937Y-3.6229
X4.5157Y-4.1299
X4.5179Y-3.7602
X4.5257Y-2.9921
X4.5433Y-4.2126
X4.5481Y-3.3431
X4.557Y-3.5203
X4.5733Y-3.1675
X4.5866Y-4.2441
X4.5984Y-4.1417
X4.5994Y-3.6925
X4.6037Y-2.8765
X4.6069Y-3.9355
X4.6276Y-3.3342
X4.6314Y-3.0
X4.6332Y-3.4963
X4.6529Y-3.1739
X4.6654Y-4.311
X4.6697Y-3.6544
X4.674Y-3.8534
X4.6811Y-4.0157
X4.7084Y-3.0214
X4.7205Y-2.8466
X4.7277Y-4.0905
X4.7357Y-3.8026
X4.7422Y-2.6661
X4.7779Y-3.9972
X4.792Y-2.8823
X4.8288Y-3.9356
X4.8372Y-2.713
X4.8858Y-4.6339
X4.9006Y-2.7618
X4.9073Y-4.1185
X4.9291Y-4.6693
X4.9331Y-4.2362
X4.9455Y-4.0483
X5.0459Y-4.3182
X5.0575Y-4.2128
X5.0709Y-4.6024
X5.0816Y-4.1366
X5.0862Y-4.5556
X5.0945Y-4.7126
X5.1181Y-4.4882
X5.1339Y-4.6052
X5.1575Y-4.4882
X5.2229Y-4.2768
X5.232Y-4.1974
X5.2638Y-4.4764
X5.2795Y-4.3504
X5.3031Y-4.7165
X5.3268Y-4.2952
X5.3465Y-4.3819
X5.3543Y-4.563
X5.4567Y-4.5236
X5.4724Y-4.2323
X5.4862Y-4.311
X5.4916Y-4.6451
X5.4921Y-4.5748
X5.4961Y-4.7795
X5.5551Y-4.7598
X5.6142Y-4.5157
X5.634Y-4.2167
X5.6625Y-4.2914
X5.7126Y-4.5472
X5.7244Y-4.6142
X5.7756Y-4.7047
X5.7895Y-4.1706
X5.7913Y-4.4843
X5.8268Y-4.5157
X5.8318Y-4.2385
X5.8937Y-4.7874
X5.8976Y-4.4724
X5.9335Y-4.0957
X5.9819Y-2.7098
X5.9879Y-4.1543
X6.0182Y-2.6386
X6.0591Y-4.7598
X6.0604Y-3.9947
X6.0906Y-4.8456
X6.1015Y-2.8194
X6.122Y-4.3268
X6.125Y-4.0418
X6.1342Y-4.1493
X6.1508Y-2.7565
X6.1575Y-4.2677
X6.1658Y-3.8713
X6.1969Y-4.3307
X6.198Y-2.9499
X6.2173Y-2.5244
X6.2382Y-3.9052
X6.2457Y-3.7301
X6.2515Y-4.2152
X6.2584Y-2.8975
X6.2679Y-3.0963
X6.2835Y-4.5591
X6.2972Y-3.5762
X6.3085Y-3.2534
X6.315Y-4.4409
X6.3184Y-3.4154
X6.3233Y-3.7496
X6.3268Y-4.2362
X6.3268Y-4.4961
X6.3285Y-2.6362
X6.3371Y-3.0564
X6.3525Y-2.5258
X6.3593Y-4.1002
X6.361Y-4.2784
X6.377Y-3.5805
X6.3841Y-3.2275
X6.3937Y-4.5394
X6.3976Y-3.4043
X6.4331Y-3.0866
X6.4355Y-2.7695
X6.452Y-4.0545
X6.4649Y-3.9544
X6.4961Y-4.3622
X6.507Y-4.0944
X6.5157Y-2.689
X6.5236Y-4.3268
X6.5331Y-3.8721
X6.5472Y-2.6339
X6.5591Y-4.5157
X6.5732Y-2.9988
X6.5813Y-3.1055
X6.5866Y-2.685
X6.5934Y-3.6114
X6.6022Y-4.6988
X6.6066Y-3.2836
X6.6067Y-4.124
X6.609Y-3.4413
X6.626Y-2.622
X6.6261Y-3.4821
X6.6415Y-3.1863
X6.6417Y-2.8701
X6.6693Y-4.1693
X6.7008Y-4.7087
X6.7087Y-4.2756
X6.7088Y-3.1769
X6.7126Y-3.5787
X6.7316Y-3.4107
X6.7598Y-4.2283
X6.7598Y-4.5118
X6.7638Y-3.5472
X6.7677Y-2.7323
X6.8011Y-3.1289
X6.8071Y-4.6969
X6.8346Y-3.5315
X6.8819Y-4.1024
X6.9016Y-3.3346
X6.9022Y-4.6988
X6.9409Y-3.2953
T2
X6.1337Y-4.735
X6.1837Y-4.635
X6.2337Y-4.735
X6.2837Y-4.635
T3
X6.8071Y-3.7677
X6.8622Y-2.5512
X4.1535Y-3.685
X4.4173Y-2.5472
T0
M30
