G04 #@! TF.GenerationSoftware,KiCad,Pcbnew,5.1.5-52549c5~84~ubuntu18.04.1*
G04 #@! TF.CreationDate,2020-06-06T17:16:43+02:00*
G04 #@! TF.ProjectId,roboy_3.0_40mm_magnetic_field_calibration,726f626f-795f-4332-9e30-5f34306d6d5f,rev?*
G04 #@! TF.SameCoordinates,Original*
G04 #@! TF.FileFunction,Soldermask,Bot*
G04 #@! TF.FilePolarity,Negative*
%FSLAX46Y46*%
G04 Gerber Fmt 4.6, Leading zero omitted, Abs format (unit mm)*
G04 Created by KiCad (PCBNEW 5.1.5-52549c5~84~ubuntu18.04.1) date 2020-06-06 17:16:43*
%MOMM*%
%LPD*%
G04 APERTURE LIST*
%ADD10C,0.100000*%
G04 APERTURE END LIST*
D10*
G36*
X156072395Y-119355546D02*
G01*
X156245466Y-119427234D01*
X156245467Y-119427235D01*
X156401227Y-119531310D01*
X156533690Y-119663773D01*
X156533691Y-119663775D01*
X156637766Y-119819534D01*
X156709454Y-119992605D01*
X156746000Y-120176333D01*
X156746000Y-120363667D01*
X156709454Y-120547395D01*
X156637766Y-120720466D01*
X156637765Y-120720467D01*
X156533690Y-120876227D01*
X156401227Y-121008690D01*
X156322818Y-121061081D01*
X156245466Y-121112766D01*
X156072395Y-121184454D01*
X155888667Y-121221000D01*
X155701333Y-121221000D01*
X155517605Y-121184454D01*
X155344534Y-121112766D01*
X155267182Y-121061081D01*
X155188773Y-121008690D01*
X155056310Y-120876227D01*
X154952235Y-120720467D01*
X154952234Y-120720466D01*
X154880546Y-120547395D01*
X154844000Y-120363667D01*
X154844000Y-120176333D01*
X154880546Y-119992605D01*
X154952234Y-119819534D01*
X155056309Y-119663775D01*
X155056310Y-119663773D01*
X155188773Y-119531310D01*
X155344533Y-119427235D01*
X155344534Y-119427234D01*
X155517605Y-119355546D01*
X155701333Y-119319000D01*
X155888667Y-119319000D01*
X156072395Y-119355546D01*
G37*
G36*
X158612395Y-119355546D02*
G01*
X158785466Y-119427234D01*
X158785467Y-119427235D01*
X158941227Y-119531310D01*
X159073690Y-119663773D01*
X159073691Y-119663775D01*
X159177766Y-119819534D01*
X159249454Y-119992605D01*
X159286000Y-120176333D01*
X159286000Y-120363667D01*
X159249454Y-120547395D01*
X159177766Y-120720466D01*
X159177765Y-120720467D01*
X159073690Y-120876227D01*
X158941227Y-121008690D01*
X158862818Y-121061081D01*
X158785466Y-121112766D01*
X158612395Y-121184454D01*
X158428667Y-121221000D01*
X158241333Y-121221000D01*
X158057605Y-121184454D01*
X157884534Y-121112766D01*
X157807182Y-121061081D01*
X157728773Y-121008690D01*
X157596310Y-120876227D01*
X157492235Y-120720467D01*
X157492234Y-120720466D01*
X157420546Y-120547395D01*
X157384000Y-120363667D01*
X157384000Y-120176333D01*
X157420546Y-119992605D01*
X157492234Y-119819534D01*
X157596309Y-119663775D01*
X157596310Y-119663773D01*
X157728773Y-119531310D01*
X157884533Y-119427235D01*
X157884534Y-119427234D01*
X158057605Y-119355546D01*
X158241333Y-119319000D01*
X158428667Y-119319000D01*
X158612395Y-119355546D01*
G37*
G36*
X160556000Y-118661857D02*
G01*
X160558402Y-118686243D01*
X160565515Y-118709692D01*
X160577066Y-118731303D01*
X160592611Y-118750245D01*
X160611553Y-118765790D01*
X160633164Y-118777341D01*
X160656613Y-118784454D01*
X160680999Y-118786856D01*
X160705385Y-118784454D01*
X160728835Y-118777341D01*
X160756722Y-118765790D01*
X160771342Y-118759734D01*
X160771343Y-118759734D01*
X160771345Y-118759733D01*
X160926102Y-118728950D01*
X161083898Y-118728950D01*
X161238657Y-118759733D01*
X161384438Y-118820118D01*
X161384439Y-118820119D01*
X161515640Y-118907784D01*
X161627216Y-119019360D01*
X161627217Y-119019362D01*
X161714882Y-119150562D01*
X161775267Y-119296343D01*
X161806050Y-119451102D01*
X161806050Y-119608898D01*
X161775267Y-119763657D01*
X161714882Y-119909438D01*
X161714881Y-119909439D01*
X161627216Y-120040640D01*
X161515640Y-120152216D01*
X161479546Y-120176333D01*
X161384438Y-120239882D01*
X161238657Y-120300267D01*
X161083898Y-120331050D01*
X160926102Y-120331050D01*
X160771343Y-120300267D01*
X160625562Y-120239882D01*
X160530454Y-120176333D01*
X160494360Y-120152216D01*
X160382784Y-120040640D01*
X160295119Y-119909439D01*
X160295118Y-119909438D01*
X160234733Y-119763657D01*
X160203950Y-119608898D01*
X160203950Y-119451102D01*
X160234733Y-119296343D01*
X160295118Y-119150562D01*
X160382783Y-119019362D01*
X160382784Y-119019360D01*
X160494360Y-118907784D01*
X160494363Y-118907782D01*
X160497097Y-118905048D01*
X160510088Y-118894386D01*
X160525633Y-118875444D01*
X160537184Y-118853833D01*
X160544297Y-118830384D01*
X160546699Y-118805998D01*
X160544297Y-118781612D01*
X160537184Y-118758163D01*
X160525633Y-118736553D01*
X160510087Y-118717611D01*
X160491145Y-118702066D01*
X160469534Y-118690515D01*
X160446085Y-118683402D01*
X160421700Y-118681000D01*
X158654000Y-118681000D01*
X158654000Y-116779000D01*
X160556000Y-116779000D01*
X160556000Y-118661857D01*
G37*
G36*
X157342395Y-116815546D02*
G01*
X157515466Y-116887234D01*
X157515467Y-116887235D01*
X157671227Y-116991310D01*
X157803690Y-117123773D01*
X157803691Y-117123775D01*
X157907766Y-117279534D01*
X157979454Y-117452605D01*
X158016000Y-117636333D01*
X158016000Y-117823667D01*
X157979454Y-118007395D01*
X157907766Y-118180466D01*
X157907765Y-118180467D01*
X157803690Y-118336227D01*
X157671227Y-118468690D01*
X157592818Y-118521081D01*
X157515466Y-118572766D01*
X157342395Y-118644454D01*
X157158667Y-118681000D01*
X156971333Y-118681000D01*
X156787605Y-118644454D01*
X156614534Y-118572766D01*
X156537182Y-118521081D01*
X156458773Y-118468690D01*
X156326310Y-118336227D01*
X156222235Y-118180467D01*
X156222234Y-118180466D01*
X156150546Y-118007395D01*
X156114000Y-117823667D01*
X156114000Y-117636333D01*
X156150546Y-117452605D01*
X156222234Y-117279534D01*
X156326309Y-117123775D01*
X156326310Y-117123773D01*
X156458773Y-116991310D01*
X156614533Y-116887235D01*
X156614534Y-116887234D01*
X156787605Y-116815546D01*
X156971333Y-116779000D01*
X157158667Y-116779000D01*
X157342395Y-116815546D01*
G37*
G36*
X173789943Y-92766248D02*
G01*
X174345189Y-92996238D01*
X174345190Y-92996239D01*
X174844899Y-93330134D01*
X175269866Y-93755101D01*
X175367018Y-93900499D01*
X175603762Y-94254811D01*
X175833752Y-94810057D01*
X175951000Y-95399501D01*
X175951000Y-96000499D01*
X175833752Y-96589943D01*
X175603762Y-97145189D01*
X175603761Y-97145190D01*
X175269866Y-97644899D01*
X174844899Y-98069866D01*
X174593347Y-98237948D01*
X174345189Y-98403762D01*
X173789943Y-98633752D01*
X173200499Y-98751000D01*
X172599501Y-98751000D01*
X172010057Y-98633752D01*
X171454811Y-98403762D01*
X171206653Y-98237948D01*
X170955101Y-98069866D01*
X170530134Y-97644899D01*
X170196239Y-97145190D01*
X170196238Y-97145189D01*
X169966248Y-96589943D01*
X169849000Y-96000499D01*
X169849000Y-95399501D01*
X169966248Y-94810057D01*
X170196238Y-94254811D01*
X170432982Y-93900499D01*
X170530134Y-93755101D01*
X170955101Y-93330134D01*
X171454810Y-92996239D01*
X171454811Y-92996238D01*
X172010057Y-92766248D01*
X172599501Y-92649000D01*
X173200499Y-92649000D01*
X173789943Y-92766248D01*
G37*
G36*
X106389943Y-90666248D02*
G01*
X106945189Y-90896238D01*
X106945190Y-90896239D01*
X107444899Y-91230134D01*
X107869866Y-91655101D01*
X107869867Y-91655103D01*
X108203762Y-92154811D01*
X108433752Y-92710057D01*
X108551000Y-93299501D01*
X108551000Y-93900499D01*
X108433752Y-94489943D01*
X108203762Y-95045189D01*
X108203761Y-95045190D01*
X107869866Y-95544899D01*
X107444899Y-95969866D01*
X107399056Y-96000497D01*
X106945189Y-96303762D01*
X106389943Y-96533752D01*
X105800499Y-96651000D01*
X105199501Y-96651000D01*
X104610057Y-96533752D01*
X104054811Y-96303762D01*
X103600944Y-96000497D01*
X103555101Y-95969866D01*
X103130134Y-95544899D01*
X102796239Y-95045190D01*
X102796238Y-95045189D01*
X102566248Y-94489943D01*
X102449000Y-93900499D01*
X102449000Y-93299501D01*
X102566248Y-92710057D01*
X102796238Y-92154811D01*
X103130133Y-91655103D01*
X103130134Y-91655101D01*
X103555101Y-91230134D01*
X104054810Y-90896239D01*
X104054811Y-90896238D01*
X104610057Y-90666248D01*
X105199501Y-90549000D01*
X105800499Y-90549000D01*
X106389943Y-90666248D01*
G37*
G36*
X175189943Y-61866248D02*
G01*
X175745189Y-62096238D01*
X175745190Y-62096239D01*
X176244899Y-62430134D01*
X176669866Y-62855101D01*
X176669867Y-62855103D01*
X177003762Y-63354811D01*
X177233752Y-63910057D01*
X177351000Y-64499501D01*
X177351000Y-65100499D01*
X177233752Y-65689943D01*
X177003762Y-66245189D01*
X177003761Y-66245190D01*
X176669866Y-66744899D01*
X176244899Y-67169866D01*
X175993347Y-67337948D01*
X175745189Y-67503762D01*
X175189943Y-67733752D01*
X174600499Y-67851000D01*
X173999501Y-67851000D01*
X173410057Y-67733752D01*
X172854811Y-67503762D01*
X172606653Y-67337948D01*
X172355101Y-67169866D01*
X171930134Y-66744899D01*
X171596239Y-66245190D01*
X171596238Y-66245189D01*
X171366248Y-65689943D01*
X171249000Y-65100499D01*
X171249000Y-64499501D01*
X171366248Y-63910057D01*
X171596238Y-63354811D01*
X171930133Y-62855103D01*
X171930134Y-62855101D01*
X172355101Y-62430134D01*
X172854810Y-62096239D01*
X172854811Y-62096238D01*
X173410057Y-61866248D01*
X173999501Y-61749000D01*
X174600499Y-61749000D01*
X175189943Y-61866248D01*
G37*
G36*
X113089943Y-61766248D02*
G01*
X113645189Y-61996238D01*
X113645190Y-61996239D01*
X114144899Y-62330134D01*
X114569866Y-62755101D01*
X114569867Y-62755103D01*
X114903762Y-63254811D01*
X115133752Y-63810057D01*
X115251000Y-64399501D01*
X115251000Y-65000499D01*
X115133752Y-65589943D01*
X114903762Y-66145189D01*
X114903761Y-66145190D01*
X114569866Y-66644899D01*
X114144899Y-67069866D01*
X113995238Y-67169866D01*
X113645189Y-67403762D01*
X113089943Y-67633752D01*
X112500499Y-67751000D01*
X111899501Y-67751000D01*
X111310057Y-67633752D01*
X110754811Y-67403762D01*
X110404762Y-67169866D01*
X110255101Y-67069866D01*
X109830134Y-66644899D01*
X109496239Y-66145190D01*
X109496238Y-66145189D01*
X109266248Y-65589943D01*
X109149000Y-65000499D01*
X109149000Y-64399501D01*
X109266248Y-63810057D01*
X109496238Y-63254811D01*
X109830133Y-62755103D01*
X109830134Y-62755101D01*
X110255101Y-62330134D01*
X110754810Y-61996239D01*
X110754811Y-61996238D01*
X111310057Y-61766248D01*
X111899501Y-61649000D01*
X112500499Y-61649000D01*
X113089943Y-61766248D01*
G37*
M02*
