G04 #@! TF.GenerationSoftware,KiCad,Pcbnew,5.1.5-52549c5~84~ubuntu18.04.1*
G04 #@! TF.CreationDate,2020-06-06T17:16:43+02:00*
G04 #@! TF.ProjectId,roboy_3.0_40mm_magnetic_field_calibration,726f626f-795f-4332-9e30-5f34306d6d5f,rev?*
G04 #@! TF.SameCoordinates,Original*
G04 #@! TF.FileFunction,Legend,Top*
G04 #@! TF.FilePolarity,Positive*
%FSLAX46Y46*%
G04 Gerber Fmt 4.6, Leading zero omitted, Abs format (unit mm)*
G04 Created by KiCad (PCBNEW 5.1.5-52549c5~84~ubuntu18.04.1) date 2020-06-06 17:16:43*
%MOMM*%
%LPD*%
G04 APERTURE LIST*
%ADD10C,0.150000*%
%ADD11C,0.100000*%
%ADD12C,0.120000*%
%ADD13C,0.127000*%
%ADD14C,0.200000*%
%ADD15C,0.010000*%
%ADD16C,0.060000*%
%ADD17C,0.125000*%
G04 APERTURE END LIST*
D10*
X176735714Y-113288571D02*
X176735714Y-112907619D01*
X177402380Y-113145714D02*
X176545238Y-113145714D01*
X176450000Y-113098095D01*
X176402380Y-113002857D01*
X176402380Y-112907619D01*
X177402380Y-112574285D02*
X176735714Y-112574285D01*
X176402380Y-112574285D02*
X176450000Y-112621904D01*
X176497619Y-112574285D01*
X176450000Y-112526666D01*
X176402380Y-112574285D01*
X176497619Y-112574285D01*
X177354761Y-111717142D02*
X177402380Y-111812380D01*
X177402380Y-112002857D01*
X177354761Y-112098095D01*
X177259523Y-112145714D01*
X176878571Y-112145714D01*
X176783333Y-112098095D01*
X176735714Y-112002857D01*
X176735714Y-111812380D01*
X176783333Y-111717142D01*
X176878571Y-111669523D01*
X176973809Y-111669523D01*
X177069047Y-112145714D01*
X177402380Y-111098095D02*
X177354761Y-111193333D01*
X177259523Y-111240952D01*
X176402380Y-111240952D01*
X177402380Y-110288571D02*
X176402380Y-110288571D01*
X177354761Y-110288571D02*
X177402380Y-110383809D01*
X177402380Y-110574285D01*
X177354761Y-110669523D01*
X177307142Y-110717142D01*
X177211904Y-110764761D01*
X176926190Y-110764761D01*
X176830952Y-110717142D01*
X176783333Y-110669523D01*
X176735714Y-110574285D01*
X176735714Y-110383809D01*
X176783333Y-110288571D01*
X177497619Y-110050476D02*
X177497619Y-109288571D01*
X177354761Y-108621904D02*
X177402380Y-108717142D01*
X177402380Y-108907619D01*
X177354761Y-109002857D01*
X177307142Y-109050476D01*
X177211904Y-109098095D01*
X176926190Y-109098095D01*
X176830952Y-109050476D01*
X176783333Y-109002857D01*
X176735714Y-108907619D01*
X176735714Y-108717142D01*
X176783333Y-108621904D01*
X177402380Y-107764761D02*
X176878571Y-107764761D01*
X176783333Y-107812380D01*
X176735714Y-107907619D01*
X176735714Y-108098095D01*
X176783333Y-108193333D01*
X177354761Y-107764761D02*
X177402380Y-107860000D01*
X177402380Y-108098095D01*
X177354761Y-108193333D01*
X177259523Y-108240952D01*
X177164285Y-108240952D01*
X177069047Y-108193333D01*
X177021428Y-108098095D01*
X177021428Y-107860000D01*
X176973809Y-107764761D01*
X177402380Y-107145714D02*
X177354761Y-107240952D01*
X177259523Y-107288571D01*
X176402380Y-107288571D01*
X177402380Y-106764761D02*
X176735714Y-106764761D01*
X176402380Y-106764761D02*
X176450000Y-106812380D01*
X176497619Y-106764761D01*
X176450000Y-106717142D01*
X176402380Y-106764761D01*
X176497619Y-106764761D01*
X177402380Y-106288571D02*
X176402380Y-106288571D01*
X176783333Y-106288571D02*
X176735714Y-106193333D01*
X176735714Y-106002857D01*
X176783333Y-105907619D01*
X176830952Y-105860000D01*
X176926190Y-105812380D01*
X177211904Y-105812380D01*
X177307142Y-105860000D01*
X177354761Y-105907619D01*
X177402380Y-106002857D01*
X177402380Y-106193333D01*
X177354761Y-106288571D01*
X177402380Y-105383809D02*
X176735714Y-105383809D01*
X176926190Y-105383809D02*
X176830952Y-105336190D01*
X176783333Y-105288571D01*
X176735714Y-105193333D01*
X176735714Y-105098095D01*
X177402380Y-104336190D02*
X176878571Y-104336190D01*
X176783333Y-104383809D01*
X176735714Y-104479047D01*
X176735714Y-104669523D01*
X176783333Y-104764761D01*
X177354761Y-104336190D02*
X177402380Y-104431428D01*
X177402380Y-104669523D01*
X177354761Y-104764761D01*
X177259523Y-104812380D01*
X177164285Y-104812380D01*
X177069047Y-104764761D01*
X177021428Y-104669523D01*
X177021428Y-104431428D01*
X176973809Y-104336190D01*
X176735714Y-104002857D02*
X176735714Y-103621904D01*
X176402380Y-103860000D02*
X177259523Y-103860000D01*
X177354761Y-103812380D01*
X177402380Y-103717142D01*
X177402380Y-103621904D01*
X177402380Y-103288571D02*
X176735714Y-103288571D01*
X176402380Y-103288571D02*
X176450000Y-103336190D01*
X176497619Y-103288571D01*
X176450000Y-103240952D01*
X176402380Y-103288571D01*
X176497619Y-103288571D01*
X177402380Y-102669523D02*
X177354761Y-102764761D01*
X177307142Y-102812380D01*
X177211904Y-102860000D01*
X176926190Y-102860000D01*
X176830952Y-102812380D01*
X176783333Y-102764761D01*
X176735714Y-102669523D01*
X176735714Y-102526666D01*
X176783333Y-102431428D01*
X176830952Y-102383809D01*
X176926190Y-102336190D01*
X177211904Y-102336190D01*
X177307142Y-102383809D01*
X177354761Y-102431428D01*
X177402380Y-102526666D01*
X177402380Y-102669523D01*
X176735714Y-101907619D02*
X177402380Y-101907619D01*
X176830952Y-101907619D02*
X176783333Y-101860000D01*
X176735714Y-101764761D01*
X176735714Y-101621904D01*
X176783333Y-101526666D01*
X176878571Y-101479047D01*
X177402380Y-101479047D01*
X177497619Y-101240952D02*
X177497619Y-100479047D01*
X176735714Y-100336190D02*
X177402380Y-100098095D01*
X176735714Y-99860000D01*
X176402380Y-99288571D02*
X176402380Y-99193333D01*
X176450000Y-99098095D01*
X176497619Y-99050476D01*
X176592857Y-99002857D01*
X176783333Y-98955238D01*
X177021428Y-98955238D01*
X177211904Y-99002857D01*
X177307142Y-99050476D01*
X177354761Y-99098095D01*
X177402380Y-99193333D01*
X177402380Y-99288571D01*
X177354761Y-99383809D01*
X177307142Y-99431428D01*
X177211904Y-99479047D01*
X177021428Y-99526666D01*
X176783333Y-99526666D01*
X176592857Y-99479047D01*
X176497619Y-99431428D01*
X176450000Y-99383809D01*
X176402380Y-99288571D01*
X177307142Y-98526666D02*
X177354761Y-98479047D01*
X177402380Y-98526666D01*
X177354761Y-98574285D01*
X177307142Y-98526666D01*
X177402380Y-98526666D01*
X177402380Y-97526666D02*
X177402380Y-98098095D01*
X177402380Y-97812380D02*
X176402380Y-97812380D01*
X176545238Y-97907619D01*
X176640476Y-98002857D01*
X176688095Y-98098095D01*
X151465624Y-66037823D02*
G75*
G03X151465624Y-66037823I-190263J0D01*
G01*
D11*
X150903844Y-68906986D02*
X152739380Y-66471148D01*
X152129750Y-69830772D02*
X153965286Y-67394934D01*
X153965286Y-67394934D02*
X152739380Y-66471148D01*
X152129750Y-69830772D02*
X150903844Y-68906986D01*
D12*
X161450000Y-116200000D02*
X161450000Y-117730000D01*
X159605000Y-116200000D02*
X161450000Y-116200000D01*
X158335000Y-119000000D02*
X158335000Y-117130000D01*
X160205000Y-119000000D02*
X158335000Y-119000000D01*
X161450000Y-120270000D02*
X161450000Y-121800000D01*
X161450000Y-121800000D02*
X153950000Y-121800000D01*
X153950000Y-116200000D02*
X153950000Y-121800000D01*
X157065000Y-116200000D02*
X153950000Y-116200000D01*
D11*
X138245000Y-106815000D02*
X139780000Y-106815000D01*
X138245000Y-109865000D02*
X139780000Y-109865000D01*
X138245000Y-106815000D02*
X138245000Y-109865000D01*
X139780000Y-106815000D02*
X139780000Y-109865000D01*
D10*
X141400263Y-109330000D02*
G75*
G03X141400263Y-109330000I-190263J0D01*
G01*
X145811234Y-108479674D02*
G75*
G03X145811234Y-108479674I-190264J0D01*
G01*
D11*
X143737359Y-106283739D02*
X144319326Y-109277702D01*
X142230561Y-106576631D02*
X142812528Y-109570593D01*
X142812528Y-109570593D02*
X144319326Y-109277702D01*
X142230561Y-106576631D02*
X143737359Y-106283739D01*
D10*
X149978911Y-106803319D02*
G75*
G03X149978911Y-106803319I-190263J0D01*
G01*
D11*
X147520640Y-105007139D02*
X148663190Y-107835050D01*
X146097412Y-105582160D02*
X147239962Y-108410071D01*
X147239962Y-108410071D02*
X148663190Y-107835050D01*
X146097412Y-105582160D02*
X147520640Y-105007139D01*
X149703465Y-103868130D02*
X150990825Y-103032109D01*
X151364615Y-106426075D02*
X152651974Y-105590054D01*
X149703465Y-103868130D02*
X151364615Y-106426075D01*
X150990825Y-103032109D02*
X152651974Y-105590054D01*
D10*
X153750153Y-104362532D02*
G75*
G03X153750153Y-104362532I-190262J0D01*
G01*
D13*
X138650000Y-121260000D02*
X143150000Y-121260000D01*
X143150000Y-115940000D02*
X138650000Y-115940000D01*
D14*
X136720000Y-116260000D02*
G75*
G03X136720000Y-116260000I-100000J0D01*
G01*
D10*
X156986383Y-101247003D02*
G75*
G03X156986383Y-101247003I-190262J0D01*
G01*
D11*
X154020399Y-100431225D02*
X156139107Y-102625211D01*
X152916212Y-101497525D02*
X155034920Y-103691512D01*
X155034920Y-103691512D02*
X156139107Y-102625211D01*
X152916212Y-101497525D02*
X154020399Y-100431225D01*
D10*
X159568684Y-97571213D02*
G75*
G03X159568684Y-97571213I-190263J0D01*
G01*
D11*
X156498039Y-97300055D02*
X158996453Y-99049463D01*
X155617600Y-98557454D02*
X158116013Y-100306862D01*
X158116013Y-100306862D02*
X158996453Y-99049463D01*
X155617600Y-98557454D02*
X156498039Y-97300055D01*
D10*
X161402167Y-93470230D02*
G75*
G03X161402167Y-93470230I-190264J0D01*
G01*
D11*
X158332703Y-93753658D02*
X161119017Y-94994204D01*
X157708362Y-95155950D02*
X160494676Y-96396497D01*
X160494676Y-96396497D02*
X161119017Y-94994204D01*
X157708362Y-95155950D02*
X158332703Y-93753658D01*
X159111674Y-91418005D02*
X159456974Y-89922347D01*
X162083503Y-92104106D02*
X162428803Y-90608448D01*
X159111674Y-91418005D02*
X162083503Y-92104106D01*
X159456974Y-89922347D02*
X162428803Y-90608448D01*
D10*
X162419458Y-89094750D02*
G75*
G03X162419458Y-89094750I-190263J0D01*
G01*
D14*
X158408333Y-109420510D02*
G75*
G03X158408333Y-109420510I-100000J0D01*
G01*
D13*
X162783331Y-104654202D02*
X159546302Y-107780164D01*
X163241885Y-111607052D02*
X166478914Y-108481090D01*
D11*
X159775971Y-87480973D02*
X159829541Y-85946908D01*
X162824113Y-87587417D02*
X162877683Y-86053352D01*
X159775971Y-87480973D02*
X162824113Y-87587417D01*
X159829541Y-85946908D02*
X162877683Y-86053352D01*
D10*
X162583179Y-84605552D02*
G75*
G03X162583179Y-84605552I-190263J0D01*
G01*
D11*
X159676840Y-83489522D02*
X159436713Y-81973420D01*
X162689290Y-83012396D02*
X162449163Y-81496295D01*
X159676840Y-83489522D02*
X162689290Y-83012396D01*
X159436713Y-81973420D02*
X162449163Y-81496295D01*
D10*
X161887311Y-80167593D02*
G75*
G03X161887311Y-80167593I-190263J0D01*
G01*
D11*
X158817927Y-79590319D02*
X158292927Y-78147891D01*
X161683990Y-78547157D02*
X161158989Y-77104729D01*
X158817927Y-79590319D02*
X161683990Y-78547157D01*
X158292927Y-78147891D02*
X161158989Y-77104729D01*
D10*
X160357427Y-75943950D02*
G75*
G03X160357427Y-75943950I-190262J0D01*
G01*
X158049743Y-72089822D02*
G75*
G03X158049743Y-72089822I-190264J0D01*
G01*
D11*
X156440208Y-74610892D02*
X159054568Y-73040025D01*
X157230791Y-75926643D02*
X159845152Y-74355777D01*
X159845152Y-74355777D02*
X159054568Y-73040025D01*
X157230791Y-75926643D02*
X156440208Y-74610892D01*
D13*
X174226306Y-87580343D02*
X174383353Y-83083084D01*
X169066594Y-82897419D02*
X168909547Y-87394678D01*
D14*
X169258506Y-89434609D02*
G75*
G03X169258506Y-89434609I-100000J0D01*
G01*
D11*
X154973753Y-72633121D02*
X153946638Y-71492394D01*
X157240345Y-70592273D02*
X156213229Y-69451545D01*
X154973753Y-72633121D02*
X157240345Y-70592273D01*
X153946638Y-71492394D02*
X156213229Y-69451545D01*
D10*
X155049053Y-68746833D02*
G75*
G03X155049053Y-68746833I-190263J0D01*
G01*
D13*
X170482309Y-67192188D02*
X167471221Y-63848037D01*
X163517691Y-67407812D02*
X166528779Y-70751963D01*
D14*
X168224920Y-72046425D02*
G75*
G03X168224920Y-72046425I-100000J0D01*
G01*
D10*
X134683176Y-108996938D02*
G75*
G03X134683176Y-108996938I-190263J0D01*
G01*
D11*
X133836100Y-106179365D02*
X132969853Y-109103765D01*
X132364311Y-105743401D02*
X131498064Y-108667801D01*
X131498064Y-108667801D02*
X132969853Y-109103765D01*
X132364311Y-105743401D02*
X133836100Y-106179365D01*
X128719010Y-104114510D02*
X130080572Y-104823294D01*
X127310677Y-106819893D02*
X128672238Y-107528677D01*
X128719010Y-104114510D02*
X127310677Y-106819893D01*
X130080572Y-104823294D02*
X128672238Y-107528677D01*
D10*
X130377961Y-107714427D02*
G75*
G03X130377961Y-107714427I-190262J0D01*
G01*
X126396562Y-105634005D02*
G75*
G03X126396562Y-105634005I-190264J0D01*
G01*
D11*
X126652792Y-102775550D02*
X124754123Y-105162505D01*
X125451489Y-101819990D02*
X123552819Y-104206945D01*
X123552819Y-104206945D02*
X124754123Y-105162505D01*
X125451489Y-101819990D02*
X126652792Y-102775550D01*
X122681817Y-98944155D02*
X123678720Y-100111378D01*
X120362579Y-100924971D02*
X121359481Y-102092194D01*
X122681817Y-98944155D02*
X120362579Y-100924971D01*
X123678720Y-100111378D02*
X121359481Y-102092194D01*
D10*
X122885271Y-102832120D02*
G75*
G03X122885271Y-102832120I-190262J0D01*
G01*
D14*
X134380000Y-119340000D02*
G75*
G03X134380000Y-119340000I-100000J0D01*
G01*
D13*
X127750000Y-119660000D02*
X132250000Y-119660000D01*
X132250000Y-114340000D02*
X127750000Y-114340000D01*
D11*
X120511767Y-95592678D02*
X121267637Y-96928674D01*
X117857182Y-97094569D02*
X118613052Y-98430565D01*
X120511767Y-95592678D02*
X117857182Y-97094569D01*
X121267637Y-96928674D02*
X118613052Y-98430565D01*
D10*
X119973121Y-99411727D02*
G75*
G03X119973121Y-99411727I-190263J0D01*
G01*
X117767117Y-95498512D02*
G75*
G03X117767117Y-95498512I-190264J0D01*
G01*
D11*
X119508141Y-93344388D02*
X116615754Y-94312168D01*
X119021079Y-91888712D02*
X116128691Y-92856491D01*
X116128691Y-92856491D02*
X116615754Y-94312168D01*
X119021079Y-91888712D02*
X119508141Y-93344388D01*
X118264528Y-87968362D02*
X118464886Y-89490229D01*
X115240621Y-88366466D02*
X115440979Y-89888334D01*
X118264528Y-87968362D02*
X115240621Y-88366466D01*
X118464886Y-89490229D02*
X115440979Y-89888334D01*
D10*
X116348317Y-91236269D02*
G75*
G03X116348317Y-91236269I-190263J0D01*
G01*
X115768860Y-86781615D02*
G75*
G03X115768860Y-86781615I-190263J0D01*
G01*
D11*
X118176206Y-85507820D02*
X115131895Y-85321622D01*
X118269915Y-83975683D02*
X115225604Y-83789485D01*
X115225604Y-83789485D02*
X115131895Y-85321622D01*
X118269915Y-83975683D02*
X118176206Y-85507820D01*
D13*
X114457838Y-101697145D02*
X111220809Y-98571183D01*
X107525226Y-102398071D02*
X110762255Y-105524033D01*
D14*
X112544806Y-106704001D02*
G75*
G03X112544806Y-106704001I-100000J0D01*
G01*
D11*
X119037044Y-80057389D02*
X118652711Y-81543495D01*
X116084194Y-79293730D02*
X115699860Y-80779836D01*
X119037044Y-80057389D02*
X116084194Y-79293730D01*
X118652711Y-81543495D02*
X115699860Y-80779836D01*
D10*
X116050039Y-82298241D02*
G75*
G03X116050039Y-82298241I-190263J0D01*
G01*
X117181519Y-77950890D02*
G75*
G03X117181519Y-77950890I-190263J0D01*
G01*
D11*
X119876889Y-77742928D02*
X117124004Y-76429869D01*
X120537723Y-76357460D02*
X117784838Y-75044401D01*
X117784838Y-75044401D02*
X117124004Y-76429869D01*
X120537723Y-76357460D02*
X119876889Y-77742928D01*
D10*
X119121724Y-73899308D02*
G75*
G03X119121724Y-73899308I-190263J0D01*
G01*
D11*
X121803758Y-74245772D02*
X119351994Y-72431563D01*
X122716811Y-73011852D02*
X120265047Y-71197643D01*
X120265047Y-71197643D02*
X119351994Y-72431563D01*
X122716811Y-73011852D02*
X121803758Y-74245772D01*
X125494234Y-70143502D02*
X124362513Y-71180533D01*
X123433684Y-67894806D02*
X122301963Y-68931837D01*
X125494234Y-70143502D02*
X123433684Y-67894806D01*
X124362513Y-71180533D02*
X122301963Y-68931837D01*
D10*
X121799360Y-70292375D02*
G75*
G03X121799360Y-70292375I-190263J0D01*
G01*
D13*
X110441692Y-80243164D02*
X110284645Y-75745905D01*
X104967886Y-75931570D02*
X105124933Y-80428829D01*
D14*
X105615585Y-82446425D02*
G75*
G03X105615585Y-82446425I-100001J0D01*
G01*
D13*
X165110000Y-119610000D02*
X177730000Y-119600000D01*
X177710000Y-119610000D02*
X177710000Y-114610000D01*
X177730000Y-114600000D02*
X165090000Y-114600000D01*
X165110000Y-114600000D02*
X165110000Y-119620000D01*
X176720000Y-114590000D02*
X176720000Y-119600000D01*
D15*
G36*
X174518423Y-74101777D02*
G01*
X174556263Y-74105066D01*
X174576759Y-74108897D01*
X174628390Y-74125874D01*
X174673060Y-74149654D01*
X174710646Y-74179527D01*
X174741024Y-74214781D01*
X174764071Y-74254703D01*
X174779661Y-74298583D01*
X174787672Y-74345708D01*
X174787980Y-74395366D01*
X174780461Y-74446846D01*
X174764990Y-74499436D01*
X174741445Y-74552424D01*
X174709701Y-74605099D01*
X174671669Y-74654398D01*
X174622024Y-74705506D01*
X174567034Y-74750255D01*
X174507863Y-74788142D01*
X174445678Y-74818666D01*
X174381645Y-74841325D01*
X174316929Y-74855617D01*
X174252695Y-74861041D01*
X174198218Y-74858169D01*
X174143393Y-74847107D01*
X174094297Y-74828036D01*
X174051371Y-74801148D01*
X174032887Y-74785333D01*
X174001140Y-74751436D01*
X173978000Y-74716962D01*
X173962118Y-74679320D01*
X173952141Y-74635916D01*
X173950986Y-74628145D01*
X173948426Y-74573755D01*
X173955286Y-74518691D01*
X173970934Y-74463752D01*
X173984275Y-74433475D01*
X174349164Y-74433475D01*
X174351545Y-74455112D01*
X174364506Y-74499304D01*
X174385689Y-74538657D01*
X174414198Y-74572122D01*
X174449137Y-74598653D01*
X174489610Y-74617204D01*
X174490453Y-74617481D01*
X174510411Y-74621460D01*
X174537461Y-74623152D01*
X174555684Y-74622976D01*
X174579938Y-74621571D01*
X174598324Y-74618634D01*
X174615122Y-74613176D01*
X174632690Y-74605155D01*
X174669679Y-74581788D01*
X174700282Y-74551948D01*
X174723754Y-74517048D01*
X174739349Y-74478504D01*
X174746322Y-74437728D01*
X174743925Y-74396134D01*
X174743670Y-74394722D01*
X174730966Y-74352824D01*
X174709644Y-74314438D01*
X174680985Y-74281215D01*
X174646270Y-74254806D01*
X174627445Y-74244858D01*
X174597518Y-74235350D01*
X174562396Y-74230786D01*
X174525790Y-74231225D01*
X174491413Y-74236724D01*
X174473531Y-74242426D01*
X174438383Y-74261486D01*
X174407691Y-74287944D01*
X174382440Y-74320087D01*
X174363613Y-74356199D01*
X174352193Y-74394567D01*
X174349164Y-74433475D01*
X173984275Y-74433475D01*
X173994736Y-74409736D01*
X174026061Y-74357441D01*
X174064274Y-74307666D01*
X174108745Y-74261207D01*
X174158840Y-74218864D01*
X174213926Y-74181434D01*
X174273370Y-74149716D01*
X174336541Y-74124507D01*
X174354886Y-74118701D01*
X174391263Y-74110238D01*
X174432757Y-74104503D01*
X174476199Y-74101636D01*
X174518423Y-74101777D01*
G37*
X174518423Y-74101777D02*
X174556263Y-74105066D01*
X174576759Y-74108897D01*
X174628390Y-74125874D01*
X174673060Y-74149654D01*
X174710646Y-74179527D01*
X174741024Y-74214781D01*
X174764071Y-74254703D01*
X174779661Y-74298583D01*
X174787672Y-74345708D01*
X174787980Y-74395366D01*
X174780461Y-74446846D01*
X174764990Y-74499436D01*
X174741445Y-74552424D01*
X174709701Y-74605099D01*
X174671669Y-74654398D01*
X174622024Y-74705506D01*
X174567034Y-74750255D01*
X174507863Y-74788142D01*
X174445678Y-74818666D01*
X174381645Y-74841325D01*
X174316929Y-74855617D01*
X174252695Y-74861041D01*
X174198218Y-74858169D01*
X174143393Y-74847107D01*
X174094297Y-74828036D01*
X174051371Y-74801148D01*
X174032887Y-74785333D01*
X174001140Y-74751436D01*
X173978000Y-74716962D01*
X173962118Y-74679320D01*
X173952141Y-74635916D01*
X173950986Y-74628145D01*
X173948426Y-74573755D01*
X173955286Y-74518691D01*
X173970934Y-74463752D01*
X173984275Y-74433475D01*
X174349164Y-74433475D01*
X174351545Y-74455112D01*
X174364506Y-74499304D01*
X174385689Y-74538657D01*
X174414198Y-74572122D01*
X174449137Y-74598653D01*
X174489610Y-74617204D01*
X174490453Y-74617481D01*
X174510411Y-74621460D01*
X174537461Y-74623152D01*
X174555684Y-74622976D01*
X174579938Y-74621571D01*
X174598324Y-74618634D01*
X174615122Y-74613176D01*
X174632690Y-74605155D01*
X174669679Y-74581788D01*
X174700282Y-74551948D01*
X174723754Y-74517048D01*
X174739349Y-74478504D01*
X174746322Y-74437728D01*
X174743925Y-74396134D01*
X174743670Y-74394722D01*
X174730966Y-74352824D01*
X174709644Y-74314438D01*
X174680985Y-74281215D01*
X174646270Y-74254806D01*
X174627445Y-74244858D01*
X174597518Y-74235350D01*
X174562396Y-74230786D01*
X174525790Y-74231225D01*
X174491413Y-74236724D01*
X174473531Y-74242426D01*
X174438383Y-74261486D01*
X174407691Y-74287944D01*
X174382440Y-74320087D01*
X174363613Y-74356199D01*
X174352193Y-74394567D01*
X174349164Y-74433475D01*
X173984275Y-74433475D01*
X173994736Y-74409736D01*
X174026061Y-74357441D01*
X174064274Y-74307666D01*
X174108745Y-74261207D01*
X174158840Y-74218864D01*
X174213926Y-74181434D01*
X174273370Y-74149716D01*
X174336541Y-74124507D01*
X174354886Y-74118701D01*
X174391263Y-74110238D01*
X174432757Y-74104503D01*
X174476199Y-74101636D01*
X174518423Y-74101777D01*
G36*
X172893665Y-74292400D02*
G01*
X172911199Y-74294815D01*
X172927879Y-74300076D01*
X172946678Y-74308404D01*
X172996544Y-74336810D01*
X173046028Y-74374026D01*
X173094186Y-74418713D01*
X173140077Y-74469536D01*
X173182757Y-74525158D01*
X173221285Y-74584244D01*
X173254717Y-74645456D01*
X173282112Y-74707459D01*
X173302526Y-74768917D01*
X173315018Y-74828492D01*
X173315381Y-74831129D01*
X173318149Y-74874196D01*
X173314456Y-74912257D01*
X173304593Y-74944427D01*
X173288853Y-74969822D01*
X173267525Y-74987556D01*
X173263187Y-74989832D01*
X173235219Y-74998318D01*
X173203409Y-74999581D01*
X173171189Y-74993488D01*
X173170740Y-74993346D01*
X173127203Y-74975057D01*
X173082270Y-74947842D01*
X173036881Y-74912665D01*
X172991976Y-74870487D01*
X172948495Y-74822272D01*
X172907378Y-74768982D01*
X172869565Y-74711579D01*
X172835996Y-74651026D01*
X172835540Y-74650119D01*
X172810181Y-74595845D01*
X172801711Y-74573574D01*
X172955284Y-74573574D01*
X172955543Y-74601315D01*
X172958121Y-74629311D01*
X172962567Y-74652702D01*
X172972407Y-74682865D01*
X172986999Y-74717156D01*
X173004535Y-74751944D01*
X173023208Y-74783596D01*
X173038382Y-74805022D01*
X173069895Y-74840806D01*
X173101152Y-74868895D01*
X173131506Y-74889000D01*
X173160309Y-74900834D01*
X173186913Y-74904109D01*
X173210670Y-74898538D01*
X173226133Y-74888466D01*
X173240767Y-74871999D01*
X173250019Y-74852003D01*
X173254606Y-74826313D01*
X173255402Y-74800316D01*
X173251584Y-74761085D01*
X173241587Y-74720767D01*
X173226265Y-74680451D01*
X173206466Y-74641228D01*
X173183042Y-74604188D01*
X173156844Y-74570421D01*
X173128723Y-74541018D01*
X173099529Y-74517069D01*
X173070113Y-74499664D01*
X173041326Y-74489894D01*
X173014019Y-74488849D01*
X173012521Y-74489075D01*
X172990226Y-74497610D01*
X172971870Y-74514429D01*
X172961805Y-74531686D01*
X172957365Y-74549295D01*
X172955284Y-74573574D01*
X172801711Y-74573574D01*
X172791505Y-74546742D01*
X172778956Y-74500850D01*
X172771980Y-74456209D01*
X172770024Y-74418820D01*
X172770147Y-74393734D01*
X172771356Y-74375780D01*
X172774108Y-74361950D01*
X172778861Y-74349235D01*
X172781443Y-74343751D01*
X172792212Y-74326421D01*
X172805671Y-74310733D01*
X172811471Y-74305651D01*
X172821774Y-74298608D01*
X172831873Y-74294452D01*
X172844939Y-74292443D01*
X172864145Y-74291838D01*
X172870641Y-74291820D01*
X172893665Y-74292400D01*
G37*
X172893665Y-74292400D02*
X172911199Y-74294815D01*
X172927879Y-74300076D01*
X172946678Y-74308404D01*
X172996544Y-74336810D01*
X173046028Y-74374026D01*
X173094186Y-74418713D01*
X173140077Y-74469536D01*
X173182757Y-74525158D01*
X173221285Y-74584244D01*
X173254717Y-74645456D01*
X173282112Y-74707459D01*
X173302526Y-74768917D01*
X173315018Y-74828492D01*
X173315381Y-74831129D01*
X173318149Y-74874196D01*
X173314456Y-74912257D01*
X173304593Y-74944427D01*
X173288853Y-74969822D01*
X173267525Y-74987556D01*
X173263187Y-74989832D01*
X173235219Y-74998318D01*
X173203409Y-74999581D01*
X173171189Y-74993488D01*
X173170740Y-74993346D01*
X173127203Y-74975057D01*
X173082270Y-74947842D01*
X173036881Y-74912665D01*
X172991976Y-74870487D01*
X172948495Y-74822272D01*
X172907378Y-74768982D01*
X172869565Y-74711579D01*
X172835996Y-74651026D01*
X172835540Y-74650119D01*
X172810181Y-74595845D01*
X172801711Y-74573574D01*
X172955284Y-74573574D01*
X172955543Y-74601315D01*
X172958121Y-74629311D01*
X172962567Y-74652702D01*
X172972407Y-74682865D01*
X172986999Y-74717156D01*
X173004535Y-74751944D01*
X173023208Y-74783596D01*
X173038382Y-74805022D01*
X173069895Y-74840806D01*
X173101152Y-74868895D01*
X173131506Y-74889000D01*
X173160309Y-74900834D01*
X173186913Y-74904109D01*
X173210670Y-74898538D01*
X173226133Y-74888466D01*
X173240767Y-74871999D01*
X173250019Y-74852003D01*
X173254606Y-74826313D01*
X173255402Y-74800316D01*
X173251584Y-74761085D01*
X173241587Y-74720767D01*
X173226265Y-74680451D01*
X173206466Y-74641228D01*
X173183042Y-74604188D01*
X173156844Y-74570421D01*
X173128723Y-74541018D01*
X173099529Y-74517069D01*
X173070113Y-74499664D01*
X173041326Y-74489894D01*
X173014019Y-74488849D01*
X173012521Y-74489075D01*
X172990226Y-74497610D01*
X172971870Y-74514429D01*
X172961805Y-74531686D01*
X172957365Y-74549295D01*
X172955284Y-74573574D01*
X172801711Y-74573574D01*
X172791505Y-74546742D01*
X172778956Y-74500850D01*
X172771980Y-74456209D01*
X172770024Y-74418820D01*
X172770147Y-74393734D01*
X172771356Y-74375780D01*
X172774108Y-74361950D01*
X172778861Y-74349235D01*
X172781443Y-74343751D01*
X172792212Y-74326421D01*
X172805671Y-74310733D01*
X172811471Y-74305651D01*
X172821774Y-74298608D01*
X172831873Y-74294452D01*
X172844939Y-74292443D01*
X172864145Y-74291838D01*
X172870641Y-74291820D01*
X172893665Y-74292400D01*
D16*
G36*
X174224692Y-75731830D02*
G01*
X174228884Y-75737238D01*
X174229842Y-75745434D01*
X174225424Y-75750854D01*
X174213375Y-75758710D01*
X174195655Y-75768093D01*
X174174225Y-75778090D01*
X174151046Y-75787791D01*
X174128078Y-75796284D01*
X174107282Y-75802659D01*
X174105917Y-75803013D01*
X174062856Y-75810486D01*
X174014361Y-75812860D01*
X173963785Y-75810138D01*
X173917500Y-75802965D01*
X173890200Y-75797186D01*
X173871309Y-75792973D01*
X173859286Y-75789840D01*
X173852588Y-75787302D01*
X173849673Y-75784876D01*
X173848999Y-75782076D01*
X173848997Y-75781433D01*
X173850026Y-75773727D01*
X173853898Y-75769084D01*
X173862140Y-75767369D01*
X173876276Y-75768449D01*
X173897832Y-75772190D01*
X173914960Y-75775657D01*
X173973922Y-75785109D01*
X174027388Y-75787441D01*
X174077312Y-75782442D01*
X174125646Y-75769901D01*
X174174342Y-75749609D01*
X174179221Y-75747188D01*
X174201207Y-75736758D01*
X174215915Y-75731654D01*
X174224692Y-75731830D01*
G37*
X174224692Y-75731830D02*
X174228884Y-75737238D01*
X174229842Y-75745434D01*
X174225424Y-75750854D01*
X174213375Y-75758710D01*
X174195655Y-75768093D01*
X174174225Y-75778090D01*
X174151046Y-75787791D01*
X174128078Y-75796284D01*
X174107282Y-75802659D01*
X174105917Y-75803013D01*
X174062856Y-75810486D01*
X174014361Y-75812860D01*
X173963785Y-75810138D01*
X173917500Y-75802965D01*
X173890200Y-75797186D01*
X173871309Y-75792973D01*
X173859286Y-75789840D01*
X173852588Y-75787302D01*
X173849673Y-75784876D01*
X173848999Y-75782076D01*
X173848997Y-75781433D01*
X173850026Y-75773727D01*
X173853898Y-75769084D01*
X173862140Y-75767369D01*
X173876276Y-75768449D01*
X173897832Y-75772190D01*
X173914960Y-75775657D01*
X173973922Y-75785109D01*
X174027388Y-75787441D01*
X174077312Y-75782442D01*
X174125646Y-75769901D01*
X174174342Y-75749609D01*
X174179221Y-75747188D01*
X174201207Y-75736758D01*
X174215915Y-75731654D01*
X174224692Y-75731830D01*
D15*
G36*
X175778201Y-72929738D02*
G01*
X175798348Y-72931965D01*
X175815863Y-72935564D01*
X175831188Y-72941308D01*
X175844766Y-72949971D01*
X175857039Y-72962324D01*
X175868450Y-72979140D01*
X175879440Y-73001193D01*
X175890453Y-73029255D01*
X175901931Y-73064099D01*
X175914316Y-73106498D01*
X175928050Y-73157225D01*
X175943577Y-73217052D01*
X175944299Y-73219867D01*
X175961506Y-73292474D01*
X175975540Y-73364276D01*
X175986689Y-73437443D01*
X175995238Y-73514150D01*
X176001474Y-73596569D01*
X176005609Y-73684760D01*
X176006717Y-73718405D01*
X176007222Y-73744525D01*
X176006933Y-73765749D01*
X176005658Y-73784703D01*
X176003208Y-73804014D01*
X175999391Y-73826309D01*
X175994016Y-73854217D01*
X175992872Y-73860020D01*
X175976391Y-73938711D01*
X175958865Y-74013406D01*
X175940546Y-74083339D01*
X175921687Y-74147741D01*
X175902541Y-74205845D01*
X175883359Y-74256882D01*
X175864394Y-74300085D01*
X175845900Y-74334686D01*
X175828657Y-74359293D01*
X175817953Y-74372749D01*
X175803677Y-74391717D01*
X175787975Y-74413311D01*
X175777487Y-74428152D01*
X175751986Y-74462275D01*
X175728222Y-74489201D01*
X175706922Y-74508184D01*
X175689823Y-74518106D01*
X175677848Y-74520698D01*
X175660149Y-74522358D01*
X175645639Y-74522712D01*
X175629049Y-74521866D01*
X175613769Y-74519024D01*
X175596746Y-74513303D01*
X175574929Y-74503818D01*
X175565960Y-74499618D01*
X175543192Y-74487894D01*
X175521706Y-74475181D01*
X175504652Y-74463418D01*
X175498199Y-74457955D01*
X175475298Y-74429710D01*
X175455228Y-74391883D01*
X175437972Y-74344420D01*
X175423507Y-74287269D01*
X175414959Y-74241020D01*
X175412442Y-74223764D01*
X175410422Y-74205587D01*
X175408848Y-74185174D01*
X175407672Y-74161208D01*
X175406843Y-74132375D01*
X175406312Y-74097359D01*
X175406029Y-74054844D01*
X175405945Y-74003516D01*
X175405945Y-74002260D01*
X175406068Y-73945778D01*
X175406514Y-73897431D01*
X175407403Y-73855192D01*
X175408857Y-73817037D01*
X175410997Y-73780942D01*
X175413942Y-73744882D01*
X175417814Y-73706833D01*
X175422734Y-73664769D01*
X175428823Y-73616667D01*
X175429068Y-73614778D01*
X175438126Y-73557754D01*
X175450976Y-73495299D01*
X175467031Y-73429301D01*
X175485706Y-73361648D01*
X175506413Y-73294227D01*
X175528565Y-73228927D01*
X175551577Y-73167635D01*
X175574862Y-73112239D01*
X175597832Y-73064626D01*
X175603030Y-73054937D01*
X175630897Y-73010835D01*
X175661983Y-72973517D01*
X175662588Y-72972896D01*
X175685380Y-72951619D01*
X175706068Y-72937902D01*
X175727763Y-72930583D01*
X175753575Y-72928502D01*
X175778201Y-72929738D01*
G37*
X175778201Y-72929738D02*
X175798348Y-72931965D01*
X175815863Y-72935564D01*
X175831188Y-72941308D01*
X175844766Y-72949971D01*
X175857039Y-72962324D01*
X175868450Y-72979140D01*
X175879440Y-73001193D01*
X175890453Y-73029255D01*
X175901931Y-73064099D01*
X175914316Y-73106498D01*
X175928050Y-73157225D01*
X175943577Y-73217052D01*
X175944299Y-73219867D01*
X175961506Y-73292474D01*
X175975540Y-73364276D01*
X175986689Y-73437443D01*
X175995238Y-73514150D01*
X176001474Y-73596569D01*
X176005609Y-73684760D01*
X176006717Y-73718405D01*
X176007222Y-73744525D01*
X176006933Y-73765749D01*
X176005658Y-73784703D01*
X176003208Y-73804014D01*
X175999391Y-73826309D01*
X175994016Y-73854217D01*
X175992872Y-73860020D01*
X175976391Y-73938711D01*
X175958865Y-74013406D01*
X175940546Y-74083339D01*
X175921687Y-74147741D01*
X175902541Y-74205845D01*
X175883359Y-74256882D01*
X175864394Y-74300085D01*
X175845900Y-74334686D01*
X175828657Y-74359293D01*
X175817953Y-74372749D01*
X175803677Y-74391717D01*
X175787975Y-74413311D01*
X175777487Y-74428152D01*
X175751986Y-74462275D01*
X175728222Y-74489201D01*
X175706922Y-74508184D01*
X175689823Y-74518106D01*
X175677848Y-74520698D01*
X175660149Y-74522358D01*
X175645639Y-74522712D01*
X175629049Y-74521866D01*
X175613769Y-74519024D01*
X175596746Y-74513303D01*
X175574929Y-74503818D01*
X175565960Y-74499618D01*
X175543192Y-74487894D01*
X175521706Y-74475181D01*
X175504652Y-74463418D01*
X175498199Y-74457955D01*
X175475298Y-74429710D01*
X175455228Y-74391883D01*
X175437972Y-74344420D01*
X175423507Y-74287269D01*
X175414959Y-74241020D01*
X175412442Y-74223764D01*
X175410422Y-74205587D01*
X175408848Y-74185174D01*
X175407672Y-74161208D01*
X175406843Y-74132375D01*
X175406312Y-74097359D01*
X175406029Y-74054844D01*
X175405945Y-74003516D01*
X175405945Y-74002260D01*
X175406068Y-73945778D01*
X175406514Y-73897431D01*
X175407403Y-73855192D01*
X175408857Y-73817037D01*
X175410997Y-73780942D01*
X175413942Y-73744882D01*
X175417814Y-73706833D01*
X175422734Y-73664769D01*
X175428823Y-73616667D01*
X175429068Y-73614778D01*
X175438126Y-73557754D01*
X175450976Y-73495299D01*
X175467031Y-73429301D01*
X175485706Y-73361648D01*
X175506413Y-73294227D01*
X175528565Y-73228927D01*
X175551577Y-73167635D01*
X175574862Y-73112239D01*
X175597832Y-73064626D01*
X175603030Y-73054937D01*
X175630897Y-73010835D01*
X175661983Y-72973517D01*
X175662588Y-72972896D01*
X175685380Y-72951619D01*
X175706068Y-72937902D01*
X175727763Y-72930583D01*
X175753575Y-72928502D01*
X175778201Y-72929738D01*
D17*
X152576218Y-65451727D02*
X152899476Y-65695319D01*
X152951835Y-65704962D01*
X152985179Y-65700276D01*
X153032852Y-65676574D01*
X153090168Y-65600514D01*
X153099810Y-65548154D01*
X153095124Y-65514810D01*
X153071423Y-65467137D01*
X152748165Y-65223546D01*
X153448391Y-65125135D02*
X153276444Y-65353317D01*
X153362417Y-65239226D02*
X152963099Y-64938319D01*
X152991487Y-65019336D01*
X153000859Y-65086024D01*
X152991217Y-65138383D01*
X153149375Y-64691122D02*
X153349981Y-64424910D01*
X153620338Y-64896954D01*
D10*
X154666666Y-114552380D02*
X154666666Y-115266666D01*
X154619047Y-115409523D01*
X154523809Y-115504761D01*
X154380952Y-115552380D01*
X154285714Y-115552380D01*
X155666666Y-115552380D02*
X155095238Y-115552380D01*
X155380952Y-115552380D02*
X155380952Y-114552380D01*
X155285714Y-114695238D01*
X155190476Y-114790476D01*
X155095238Y-114838095D01*
X138833333Y-112027142D02*
X138785714Y-112074761D01*
X138642857Y-112122380D01*
X138547619Y-112122380D01*
X138404761Y-112074761D01*
X138309523Y-111979523D01*
X138261904Y-111884285D01*
X138214285Y-111693809D01*
X138214285Y-111550952D01*
X138261904Y-111360476D01*
X138309523Y-111265238D01*
X138404761Y-111170000D01*
X138547619Y-111122380D01*
X138642857Y-111122380D01*
X138785714Y-111170000D01*
X138833333Y-111217619D01*
X139785714Y-112122380D02*
X139214285Y-112122380D01*
X139500000Y-112122380D02*
X139500000Y-111122380D01*
X139404761Y-111265238D01*
X139309523Y-111360476D01*
X139214285Y-111408095D01*
X143762779Y-111614237D02*
X143727192Y-111671410D01*
X143598846Y-111750169D01*
X143506086Y-111771754D01*
X143356154Y-111757753D01*
X143241808Y-111686580D01*
X143173843Y-111604613D01*
X143084291Y-111429887D01*
X143051912Y-111290747D01*
X143055121Y-111094435D01*
X143079914Y-110990882D01*
X143151088Y-110876537D01*
X143279435Y-110797778D01*
X143372194Y-110776193D01*
X143522127Y-110790194D01*
X143579299Y-110825781D01*
X143950338Y-110739437D02*
X143985925Y-110682264D01*
X144067891Y-110614299D01*
X144299791Y-110560334D01*
X144403343Y-110585128D01*
X144460516Y-110620715D01*
X144528481Y-110702682D01*
X144550067Y-110795441D01*
X144536066Y-110945374D01*
X144109024Y-111631446D01*
X144711961Y-111491139D01*
X148562702Y-110234851D02*
X148538678Y-110297763D01*
X148427717Y-110399565D01*
X148340781Y-110438453D01*
X148190931Y-110453318D01*
X148065106Y-110405270D01*
X147982749Y-110337778D01*
X147861504Y-110183349D01*
X147803171Y-110052944D01*
X147768862Y-109859626D01*
X147773442Y-109753245D01*
X147821490Y-109627420D01*
X147932450Y-109525619D01*
X148019387Y-109486730D01*
X148169236Y-109471866D01*
X148232149Y-109495890D01*
X148497538Y-109272843D02*
X149062626Y-109020067D01*
X148913902Y-109503924D01*
X149044307Y-109445591D01*
X149150688Y-109450170D01*
X149213601Y-109474194D01*
X149295958Y-109541687D01*
X149393179Y-109759028D01*
X149388599Y-109865409D01*
X149364575Y-109928322D01*
X149297083Y-110010678D01*
X149036273Y-110127344D01*
X148929892Y-110122765D01*
X148866980Y-110098741D01*
X153011235Y-107964938D02*
X152999657Y-108031279D01*
X152910160Y-108152382D01*
X152832241Y-108207144D01*
X152687981Y-108250328D01*
X152555299Y-108227172D01*
X152461578Y-108176634D01*
X152313093Y-108048177D01*
X152230950Y-107931299D01*
X152160384Y-107748079D01*
X152144581Y-107642779D01*
X152167738Y-107510098D01*
X152257235Y-107388995D01*
X152335154Y-107334232D01*
X152479414Y-107291048D01*
X152545755Y-107302626D01*
X153383932Y-107004562D02*
X153767269Y-107549995D01*
X152970085Y-106829792D02*
X153186005Y-107551091D01*
X153692479Y-107195135D01*
X156944917Y-104887910D02*
X156946210Y-104955241D01*
X156881465Y-105091196D01*
X156815426Y-105159820D01*
X156682057Y-105229737D01*
X156547395Y-105232322D01*
X156445752Y-105200596D01*
X156275485Y-105102831D01*
X156172549Y-105003774D01*
X156068320Y-104837385D01*
X156032715Y-104737035D01*
X156030130Y-104602373D01*
X156094875Y-104466418D01*
X156160913Y-104397794D01*
X156294283Y-104327877D01*
X156361614Y-104326585D01*
X156920354Y-103608619D02*
X156590162Y-103951739D01*
X156900263Y-104316242D01*
X156898970Y-104248911D01*
X156930696Y-104147268D01*
X157095792Y-103975708D01*
X157196142Y-103940103D01*
X157263473Y-103938810D01*
X157365116Y-103970537D01*
X157536676Y-104135632D01*
X157572281Y-104235983D01*
X157573574Y-104303314D01*
X157541847Y-104404957D01*
X157376752Y-104576517D01*
X157276401Y-104612121D01*
X157209070Y-104613414D01*
X160219203Y-101116835D02*
X160233319Y-101182682D01*
X160195705Y-101328494D01*
X160143974Y-101408457D01*
X160026396Y-101502538D01*
X159894701Y-101530770D01*
X159788872Y-101519021D01*
X159603079Y-101455542D01*
X159483133Y-101377945D01*
X159349071Y-101234501D01*
X159294972Y-101142789D01*
X159266739Y-101011094D01*
X159304354Y-100865283D01*
X159356085Y-100785319D01*
X159473663Y-100691239D01*
X159539510Y-100677122D01*
X159925125Y-99905717D02*
X159821663Y-100065645D01*
X159809914Y-100171474D01*
X159824030Y-100237321D01*
X159892245Y-100394882D01*
X160026307Y-100538325D01*
X160346162Y-100745249D01*
X160451992Y-100756998D01*
X160517839Y-100742881D01*
X160609552Y-100688783D01*
X160713014Y-100528856D01*
X160724763Y-100423026D01*
X160710646Y-100357179D01*
X160656548Y-100265466D01*
X160456638Y-100136139D01*
X160350809Y-100124390D01*
X160284962Y-100138506D01*
X160193249Y-100192605D01*
X160089787Y-100352532D01*
X160078038Y-100458362D01*
X160092155Y-100524209D01*
X160146253Y-100615922D01*
X162713773Y-96790282D02*
X162740194Y-96852226D01*
X162731093Y-97002535D01*
X162695570Y-97090901D01*
X162598104Y-97205687D01*
X162474216Y-97258530D01*
X162368089Y-97267190D01*
X162173597Y-97240327D01*
X162041049Y-97187043D01*
X161882080Y-97071815D01*
X161811476Y-96992110D01*
X161758633Y-96868222D01*
X161767734Y-96717913D01*
X161803257Y-96629547D01*
X161900723Y-96514761D01*
X161962667Y-96488339D01*
X161998631Y-96143538D02*
X162247290Y-95524980D01*
X163015274Y-96295612D01*
X164336968Y-92067232D02*
X164374724Y-92122997D01*
X164394470Y-92272281D01*
X164376461Y-92365801D01*
X164302687Y-92497076D01*
X164191158Y-92572587D01*
X164088634Y-92601338D01*
X163892589Y-92612080D01*
X163752310Y-92585066D01*
X163574274Y-92502288D01*
X163489759Y-92437519D01*
X163414248Y-92325990D01*
X163394502Y-92176706D01*
X163412511Y-92083186D01*
X163486285Y-91951911D01*
X163542049Y-91914155D01*
X163977423Y-91416068D02*
X163912654Y-91500583D01*
X163856890Y-91538338D01*
X163754365Y-91567089D01*
X163707605Y-91558085D01*
X163623090Y-91493316D01*
X163585335Y-91437551D01*
X163556584Y-91335027D01*
X163592602Y-91147987D01*
X163657371Y-91063472D01*
X163713136Y-91025716D01*
X163815660Y-90996965D01*
X163862420Y-91005970D01*
X163946935Y-91070739D01*
X163984691Y-91126503D01*
X164013441Y-91229028D01*
X163977423Y-91416068D01*
X164006174Y-91518592D01*
X164043930Y-91574357D01*
X164128445Y-91639126D01*
X164315485Y-91675144D01*
X164418009Y-91646393D01*
X164473774Y-91608638D01*
X164538543Y-91524122D01*
X164574561Y-91337082D01*
X164545810Y-91234558D01*
X164508054Y-91178794D01*
X164423539Y-91114025D01*
X164236499Y-91078006D01*
X164133975Y-91106757D01*
X164078210Y-91144513D01*
X164013441Y-91229028D01*
X164314272Y-86789151D02*
X164266570Y-86741616D01*
X164218702Y-86598842D01*
X164218536Y-86503604D01*
X164265905Y-86360664D01*
X164360977Y-86265260D01*
X164456132Y-86217474D01*
X164646525Y-86169523D01*
X164789382Y-86169274D01*
X164979941Y-86216560D01*
X165075262Y-86264013D01*
X165170666Y-86359085D01*
X165218534Y-86501858D01*
X165218700Y-86597096D01*
X165171331Y-86740036D01*
X165123795Y-86787739D01*
X164219865Y-87265507D02*
X164220198Y-87455983D01*
X164267983Y-87551138D01*
X164315685Y-87598674D01*
X164458708Y-87693663D01*
X164649267Y-87740949D01*
X165030219Y-87740284D01*
X165125374Y-87692499D01*
X165172910Y-87644797D01*
X165220363Y-87549476D01*
X165220030Y-87359000D01*
X165172245Y-87263845D01*
X165124543Y-87216309D01*
X165029222Y-87168857D01*
X164791127Y-87169272D01*
X164695972Y-87217057D01*
X164648436Y-87264759D01*
X164600983Y-87360080D01*
X164601316Y-87550556D01*
X164649101Y-87645711D01*
X164696803Y-87693247D01*
X164792124Y-87740700D01*
X164856529Y-82601327D02*
X164912425Y-82638887D01*
X164986657Y-82769904D01*
X165004992Y-82863361D01*
X164985767Y-83012713D01*
X164910646Y-83124505D01*
X164826357Y-83189568D01*
X164648612Y-83272968D01*
X164508427Y-83300471D01*
X164312347Y-83290413D01*
X164209723Y-83262020D01*
X164097931Y-83186899D01*
X164023699Y-83055883D01*
X164005364Y-82962426D01*
X164024589Y-82813074D01*
X164062150Y-82757178D01*
X164766631Y-81648427D02*
X164876644Y-82209165D01*
X164821638Y-81928796D02*
X163840345Y-82121318D01*
X163998865Y-82187271D01*
X164110657Y-82262392D01*
X164175721Y-82346681D01*
X163666159Y-81233482D02*
X163647823Y-81140025D01*
X163676216Y-81037401D01*
X163713776Y-80981505D01*
X163798065Y-80916442D01*
X163975810Y-80833043D01*
X164209451Y-80787204D01*
X164405532Y-80797261D01*
X164508156Y-80825654D01*
X164564052Y-80863215D01*
X164629116Y-80947503D01*
X164647451Y-81040960D01*
X164619058Y-81143584D01*
X164581498Y-81199480D01*
X164497209Y-81264544D01*
X164319464Y-81347943D01*
X164085823Y-81393781D01*
X163889742Y-81383724D01*
X163787118Y-81355331D01*
X163731222Y-81317771D01*
X163666159Y-81233482D01*
X163732974Y-77730110D02*
X163795010Y-77756315D01*
X163892877Y-77870761D01*
X163928708Y-77959002D01*
X163938333Y-78109278D01*
X163885923Y-78233350D01*
X163815598Y-78313301D01*
X163657032Y-78429084D01*
X163524671Y-78482830D01*
X163330274Y-78510371D01*
X163224117Y-78502082D01*
X163100046Y-78449672D01*
X163002179Y-78335226D01*
X162966348Y-78246985D01*
X162956722Y-78096709D01*
X162982927Y-78034673D01*
X163462906Y-76811871D02*
X163677891Y-77341316D01*
X163570399Y-77076594D02*
X162643870Y-77452818D01*
X162812062Y-77487312D01*
X162936134Y-77539722D01*
X163016085Y-77610048D01*
X163104597Y-75929463D02*
X163319583Y-76458908D01*
X163212090Y-76194185D02*
X162285561Y-76570410D01*
X162453753Y-76604904D01*
X162577825Y-76657314D01*
X162657776Y-76727639D01*
X161700592Y-73162778D02*
X161766489Y-73176664D01*
X161884394Y-73270333D01*
X161936404Y-73350116D01*
X161974527Y-73495795D01*
X161946754Y-73627587D01*
X161892976Y-73719489D01*
X161759416Y-73863399D01*
X161639742Y-73941414D01*
X161454171Y-74005542D01*
X161348384Y-74017660D01*
X161216591Y-73989887D01*
X161098685Y-73896218D01*
X161046676Y-73816435D01*
X161008553Y-73670756D01*
X161022439Y-73604860D01*
X161260278Y-72312940D02*
X161572336Y-72791637D01*
X161416307Y-72552289D02*
X160578588Y-73098391D01*
X160750272Y-73100159D01*
X160882065Y-73127932D01*
X160973966Y-73181710D01*
X160294303Y-72487902D02*
X160228407Y-72474015D01*
X160136506Y-72420237D01*
X160006482Y-72220781D01*
X159994363Y-72114993D01*
X160008250Y-72049097D01*
X160062028Y-71957196D01*
X160141810Y-71905186D01*
X160287489Y-71867063D01*
X161078244Y-72033701D01*
X160740181Y-71515113D01*
X140952380Y-113666666D02*
X140476190Y-114000000D01*
X140952380Y-114238095D02*
X139952380Y-114238095D01*
X139952380Y-113857142D01*
X140000000Y-113761904D01*
X140047619Y-113714285D01*
X140142857Y-113666666D01*
X140285714Y-113666666D01*
X140380952Y-113714285D01*
X140428571Y-113761904D01*
X140476190Y-113857142D01*
X140476190Y-114238095D01*
X140952380Y-112714285D02*
X140952380Y-113285714D01*
X140952380Y-113000000D02*
X139952380Y-113000000D01*
X140095238Y-113095238D01*
X140190476Y-113190476D01*
X140238095Y-113285714D01*
X145243817Y-112631247D02*
X145647655Y-112213177D01*
X145134783Y-112070318D02*
X146116410Y-111879509D01*
X146189099Y-112253462D01*
X146160527Y-112356036D01*
X146122869Y-112411866D01*
X146038467Y-112476783D01*
X145898235Y-112504041D01*
X145795660Y-112475469D01*
X145739830Y-112437811D01*
X145674914Y-112353409D01*
X145602224Y-111979456D01*
X146204645Y-112832564D02*
X146260475Y-112870222D01*
X146325391Y-112954624D01*
X146370822Y-113188345D01*
X146342250Y-113290919D01*
X146304592Y-113346749D01*
X146220190Y-113411666D01*
X146126702Y-113429838D01*
X145977383Y-113410352D01*
X145307420Y-112958456D01*
X145425539Y-113566130D01*
X150210582Y-110950580D02*
X150527229Y-110463134D01*
X149996521Y-110420760D02*
X150923705Y-110046154D01*
X151066412Y-110399367D01*
X151057937Y-110505508D01*
X151031624Y-110567498D01*
X150961159Y-110647327D01*
X150828704Y-110700842D01*
X150722563Y-110692367D01*
X150660573Y-110666054D01*
X150580744Y-110595589D01*
X150438037Y-110242376D01*
X151262634Y-110885034D02*
X151494534Y-111459005D01*
X151016452Y-111292651D01*
X151069967Y-111425106D01*
X151061492Y-111531248D01*
X151035179Y-111593238D01*
X150964714Y-111673066D01*
X150743956Y-111762258D01*
X150637815Y-111753784D01*
X150575825Y-111727470D01*
X150495996Y-111657006D01*
X150388966Y-111392096D01*
X150397441Y-111285954D01*
X150423754Y-111223964D01*
X154765407Y-108353087D02*
X154983227Y-107814179D01*
X154454184Y-107873847D02*
X155292855Y-107329208D01*
X155500337Y-107648702D01*
X155512270Y-107754510D01*
X155498269Y-107820382D01*
X155444331Y-107912189D01*
X155324520Y-107989995D01*
X155218712Y-108001928D01*
X155152840Y-107987927D01*
X155061033Y-107933989D01*
X154853551Y-107614495D01*
X155791354Y-108708855D02*
X155232240Y-109071948D01*
X155981171Y-108301690D02*
X155252445Y-108491035D01*
X155589603Y-109010212D01*
X136782380Y-113666666D02*
X136306190Y-114000000D01*
X136782380Y-114238095D02*
X135782380Y-114238095D01*
X135782380Y-113857142D01*
X135830000Y-113761904D01*
X135877619Y-113714285D01*
X135972857Y-113666666D01*
X136115714Y-113666666D01*
X136210952Y-113714285D01*
X136258571Y-113761904D01*
X136306190Y-113857142D01*
X136306190Y-114238095D01*
X135782380Y-112761904D02*
X135782380Y-113238095D01*
X136258571Y-113285714D01*
X136210952Y-113238095D01*
X136163333Y-113142857D01*
X136163333Y-112904761D01*
X136210952Y-112809523D01*
X136258571Y-112761904D01*
X136353809Y-112714285D01*
X136591904Y-112714285D01*
X136687142Y-112761904D01*
X136734761Y-112809523D01*
X136782380Y-112904761D01*
X136782380Y-113142857D01*
X136734761Y-113238095D01*
X136687142Y-113285714D01*
X141150432Y-113426921D02*
X141554270Y-113008851D01*
X141041398Y-112865992D02*
X142023025Y-112675183D01*
X142095714Y-113049136D01*
X142067142Y-113151710D01*
X142029484Y-113207540D01*
X141945082Y-113272457D01*
X141804850Y-113299715D01*
X141702275Y-113271143D01*
X141646445Y-113233485D01*
X141581529Y-113149083D01*
X141508839Y-112775130D01*
X142295609Y-114077507D02*
X142259265Y-113890530D01*
X142194348Y-113806128D01*
X142138518Y-113768470D01*
X141980113Y-113702240D01*
X141784051Y-113691841D01*
X141410097Y-113764530D01*
X141325695Y-113829446D01*
X141288037Y-113885277D01*
X141259465Y-113987851D01*
X141295810Y-114174828D01*
X141360726Y-114259230D01*
X141416557Y-114296888D01*
X141519131Y-114325460D01*
X141752852Y-114280029D01*
X141837254Y-114215113D01*
X141874912Y-114159282D01*
X141903484Y-114056708D01*
X141867139Y-113869731D01*
X141802223Y-113785329D01*
X141746393Y-113747671D01*
X141643818Y-113719099D01*
X146344226Y-112512690D02*
X146660873Y-112025244D01*
X146130165Y-111982870D02*
X147057349Y-111608264D01*
X147200056Y-111961477D01*
X147191581Y-112067618D01*
X147165268Y-112129608D01*
X147094803Y-112209437D01*
X146962348Y-112262952D01*
X146856207Y-112254477D01*
X146794217Y-112228164D01*
X146714388Y-112157699D01*
X146571681Y-111804486D01*
X147396278Y-112447144D02*
X147646016Y-113065267D01*
X146558287Y-113042509D01*
X151268151Y-110624232D02*
X151485971Y-110085324D01*
X150956928Y-110144992D02*
X151795599Y-109600353D01*
X152003081Y-109919847D01*
X152015014Y-110025655D01*
X152001013Y-110091527D01*
X151947075Y-110183334D01*
X151827264Y-110261140D01*
X151721456Y-110273073D01*
X151655584Y-110259072D01*
X151563777Y-110205134D01*
X151356295Y-109885640D01*
X152058613Y-110792250D02*
X152046680Y-110686442D01*
X152060681Y-110620570D01*
X152114619Y-110528763D01*
X152154556Y-110502828D01*
X152260365Y-110490894D01*
X152326237Y-110504895D01*
X152418044Y-110558834D01*
X152521784Y-110718580D01*
X152533718Y-110824389D01*
X152519717Y-110890261D01*
X152465778Y-110982068D01*
X152425842Y-111008003D01*
X152320033Y-111019937D01*
X152254161Y-111005935D01*
X152162354Y-110951997D01*
X152058613Y-110792250D01*
X151966806Y-110738312D01*
X151900934Y-110724311D01*
X151795126Y-110736244D01*
X151635379Y-110839985D01*
X151581441Y-110931792D01*
X151567439Y-110997664D01*
X151579373Y-111103473D01*
X151683114Y-111263219D01*
X151774921Y-111317158D01*
X151840793Y-111331159D01*
X151946601Y-111319226D01*
X152106348Y-111215485D01*
X152160286Y-111123678D01*
X152174288Y-111057806D01*
X152162354Y-110951997D01*
X158740922Y-104934217D02*
X158851912Y-104363647D01*
X158343975Y-104523165D02*
X159063315Y-103828507D01*
X159327946Y-104102541D01*
X159359850Y-104204129D01*
X159358675Y-104271462D01*
X159323245Y-104371874D01*
X159220482Y-104471111D01*
X159118895Y-104503015D01*
X159051562Y-104501840D01*
X158951149Y-104466410D01*
X158686518Y-104192376D01*
X159071712Y-105276760D02*
X159204028Y-105413777D01*
X159304440Y-105449206D01*
X159371774Y-105450382D01*
X159540694Y-105419653D01*
X159710790Y-105321592D01*
X159984825Y-105056960D01*
X160020254Y-104956548D01*
X160021429Y-104889214D01*
X159989526Y-104787627D01*
X159857210Y-104650610D01*
X159756798Y-104615180D01*
X159689464Y-104614005D01*
X159587877Y-104645908D01*
X159416606Y-104811303D01*
X159381176Y-104911716D01*
X159380001Y-104979049D01*
X159411904Y-105080636D01*
X159544220Y-105217653D01*
X159644632Y-105253083D01*
X159711966Y-105254258D01*
X159813553Y-105222355D01*
X161600973Y-100546465D02*
X161601054Y-99965200D01*
X161132886Y-100218707D02*
X161706462Y-99399555D01*
X162018520Y-99618060D01*
X162069221Y-99711693D01*
X162080916Y-99778014D01*
X162065296Y-99883341D01*
X161983357Y-100000363D01*
X161889723Y-100051065D01*
X161823403Y-100062759D01*
X161718075Y-100047140D01*
X161406017Y-99828634D01*
X162381118Y-101092728D02*
X161913031Y-100764970D01*
X162147074Y-100928849D02*
X162720651Y-100109697D01*
X162560697Y-100172092D01*
X162428056Y-100195480D01*
X162322728Y-100179861D01*
X163461788Y-100628647D02*
X163539803Y-100683273D01*
X163590504Y-100776907D01*
X163602198Y-100843227D01*
X163586579Y-100948555D01*
X163516333Y-101131897D01*
X163379768Y-101326933D01*
X163231508Y-101455649D01*
X163137874Y-101506350D01*
X163071554Y-101518044D01*
X162966226Y-101502425D01*
X162888212Y-101447799D01*
X162837510Y-101354165D01*
X162825816Y-101287845D01*
X162841435Y-101182517D01*
X162911681Y-100999175D01*
X163048247Y-100804139D01*
X163196506Y-100675423D01*
X163290140Y-100624722D01*
X163356460Y-100613028D01*
X163461788Y-100628647D01*
X163961325Y-95966737D02*
X163850494Y-95396136D01*
X163439299Y-95734316D02*
X163846036Y-94820770D01*
X164194053Y-94975717D01*
X164261689Y-95057956D01*
X164285823Y-95120827D01*
X164290588Y-95227200D01*
X164232483Y-95357706D01*
X164150244Y-95425342D01*
X164087374Y-95449476D01*
X163981001Y-95454241D01*
X163632984Y-95299294D01*
X164831369Y-96354105D02*
X164309343Y-96121684D01*
X164570356Y-96237894D02*
X164977092Y-95324349D01*
X164831983Y-95416118D01*
X164706242Y-95464386D01*
X164599869Y-95469151D01*
X165701412Y-96741473D02*
X165179386Y-96509052D01*
X165440399Y-96625263D02*
X165847136Y-95711717D01*
X165702026Y-95803487D01*
X165576285Y-95851754D01*
X165469912Y-95856520D01*
X165404459Y-91020774D02*
X165186789Y-90481804D01*
X164847676Y-90892230D02*
X165072627Y-89917860D01*
X165443816Y-90003556D01*
X165525901Y-90071378D01*
X165561588Y-90128489D01*
X165586562Y-90231998D01*
X165554427Y-90371194D01*
X165486604Y-90453279D01*
X165429494Y-90488965D01*
X165325984Y-90513940D01*
X164954796Y-90428244D01*
X166332431Y-91235013D02*
X165775648Y-91106469D01*
X166054039Y-91170741D02*
X166278990Y-90196371D01*
X166154057Y-90314143D01*
X166039836Y-90385516D01*
X165936327Y-90410491D01*
X166907146Y-90439135D02*
X166964257Y-90403449D01*
X167067766Y-90378474D01*
X167299759Y-90432034D01*
X167381844Y-90499856D01*
X167417531Y-90556967D01*
X167442505Y-90660476D01*
X167421081Y-90753273D01*
X167342547Y-90881757D01*
X166657221Y-91309996D01*
X167260402Y-91449252D01*
X155410485Y-107488399D02*
X155521475Y-106917829D01*
X155013537Y-107077348D02*
X155732877Y-106382689D01*
X155997509Y-106656724D01*
X156029412Y-106758311D01*
X156028237Y-106825644D01*
X155992807Y-106926056D01*
X155890045Y-107025293D01*
X155788457Y-107057197D01*
X155721124Y-107056022D01*
X155620712Y-107020592D01*
X155356080Y-106746558D01*
X156072064Y-108173485D02*
X155675117Y-107762433D01*
X155873590Y-107967959D02*
X156592930Y-107273300D01*
X156424009Y-107304029D01*
X156289343Y-107301678D01*
X156188931Y-107266249D01*
X157022957Y-107718606D02*
X157452983Y-108163912D01*
X156947396Y-108188763D01*
X157046633Y-108291526D01*
X157078537Y-108393114D01*
X157077362Y-108460447D01*
X157041932Y-108560859D01*
X156870661Y-108726254D01*
X156769073Y-108758158D01*
X156701740Y-108756983D01*
X156601328Y-108721553D01*
X156402854Y-108516027D01*
X156370950Y-108414440D01*
X156372126Y-108347107D01*
X159209160Y-103962329D02*
X159209241Y-103381064D01*
X158741073Y-103634571D02*
X159314649Y-102815419D01*
X159626707Y-103033924D01*
X159677408Y-103127557D01*
X159689103Y-103193878D01*
X159673483Y-103299205D01*
X159591544Y-103416227D01*
X159497910Y-103466929D01*
X159431590Y-103478623D01*
X159326262Y-103463004D01*
X159014204Y-103244498D01*
X159989305Y-104508592D02*
X159521218Y-104180834D01*
X159755261Y-104344713D02*
X160328838Y-103525561D01*
X160168884Y-103587956D01*
X160036243Y-103611344D01*
X159930915Y-103595725D01*
X161073819Y-104454127D02*
X160691435Y-105000229D01*
X161097288Y-104005504D02*
X160492555Y-104454046D01*
X160999649Y-104809118D01*
X162265233Y-99776221D02*
X162154402Y-99205620D01*
X161743207Y-99543800D02*
X162149944Y-98630254D01*
X162497961Y-98785201D01*
X162565597Y-98867440D01*
X162589731Y-98930311D01*
X162594496Y-99036684D01*
X162536391Y-99167190D01*
X162454152Y-99234826D01*
X162391282Y-99258960D01*
X162284909Y-99263725D01*
X161936892Y-99108778D01*
X163135277Y-100163589D02*
X162613251Y-99931168D01*
X162874264Y-100047378D02*
X163281000Y-99133833D01*
X163135891Y-99225602D01*
X163010150Y-99273870D01*
X162903777Y-99278635D01*
X164368554Y-99618043D02*
X163933533Y-99424359D01*
X163696347Y-99840012D01*
X163759217Y-99815878D01*
X163865590Y-99811113D01*
X164083101Y-99907955D01*
X164150737Y-99990194D01*
X164174870Y-100053065D01*
X164179636Y-100159437D01*
X164082794Y-100376948D01*
X164000555Y-100444584D01*
X163937684Y-100468718D01*
X163831311Y-100473483D01*
X163613800Y-100376641D01*
X163546165Y-100294402D01*
X163522031Y-100231532D01*
X164466412Y-95083897D02*
X164248742Y-94544927D01*
X163909629Y-94955353D02*
X164134580Y-93980983D01*
X164505769Y-94066679D01*
X164587854Y-94134501D01*
X164623541Y-94191612D01*
X164648515Y-94295121D01*
X164616380Y-94434317D01*
X164548557Y-94516402D01*
X164491447Y-94552088D01*
X164387937Y-94577063D01*
X164016749Y-94491367D01*
X165394384Y-95298136D02*
X164837601Y-95169592D01*
X165115992Y-95233864D02*
X165340943Y-94259494D01*
X165216010Y-94377266D01*
X165101789Y-94448639D01*
X164998280Y-94473614D01*
X166454509Y-94516581D02*
X166268915Y-94473733D01*
X166165406Y-94498708D01*
X166108295Y-94534394D01*
X165983362Y-94652166D01*
X165894116Y-94827048D01*
X165808420Y-95198237D01*
X165833395Y-95301746D01*
X165869081Y-95358857D01*
X165951167Y-95426679D01*
X166136761Y-95469527D01*
X166240270Y-95444552D01*
X166297380Y-95408866D01*
X166365203Y-95326780D01*
X166418763Y-95094788D01*
X166393788Y-94991278D01*
X166358101Y-94934168D01*
X166276016Y-94866345D01*
X166090422Y-94823498D01*
X165986913Y-94848472D01*
X165929802Y-94884159D01*
X165861980Y-94966244D01*
X165877343Y-85890319D02*
X165560832Y-85402786D01*
X165306263Y-85870377D02*
X165341162Y-84870986D01*
X165721882Y-84884281D01*
X165815401Y-84935195D01*
X165861329Y-84984447D01*
X165905595Y-85081289D01*
X165900609Y-85224059D01*
X165849696Y-85317577D01*
X165800444Y-85363505D01*
X165703602Y-85407772D01*
X165322881Y-85394477D01*
X166829144Y-85923557D02*
X166258063Y-85903615D01*
X166543604Y-85913586D02*
X166578503Y-84914195D01*
X166478337Y-85053641D01*
X166379834Y-85145498D01*
X166282992Y-85189764D01*
X167197174Y-84935799D02*
X167863434Y-84959066D01*
X167400224Y-85943500D01*
X165362602Y-80763895D02*
X164958880Y-80345712D01*
X164798209Y-80853286D02*
X164641774Y-79865598D01*
X165018036Y-79806004D01*
X165119551Y-79838138D01*
X165174033Y-79877721D01*
X165235965Y-79964338D01*
X165258312Y-80105436D01*
X165226178Y-80206951D01*
X165186595Y-80261433D01*
X165099978Y-80323364D01*
X164723716Y-80382958D01*
X166303258Y-80614910D02*
X165738864Y-80704301D01*
X166021061Y-80659605D02*
X165864626Y-79671917D01*
X165792909Y-79827914D01*
X165713742Y-79936878D01*
X165627125Y-79998809D01*
X166778260Y-79961125D02*
X166676745Y-79928991D01*
X166622263Y-79889407D01*
X166560332Y-79802791D01*
X166552882Y-79755758D01*
X166585017Y-79654244D01*
X166624600Y-79599762D01*
X166711216Y-79537830D01*
X166899348Y-79508033D01*
X167000862Y-79540167D01*
X167055344Y-79579751D01*
X167117276Y-79666367D01*
X167124725Y-79713400D01*
X167092591Y-79814915D01*
X167053007Y-79869397D01*
X166966391Y-79931328D01*
X166778260Y-79961125D01*
X166691643Y-80023057D01*
X166652060Y-80077539D01*
X166619926Y-80179053D01*
X166649723Y-80367185D01*
X166711654Y-80453801D01*
X166766136Y-80493384D01*
X166867651Y-80525519D01*
X167055782Y-80495722D01*
X167142398Y-80433790D01*
X167181982Y-80379308D01*
X167214116Y-80277793D01*
X167184319Y-80089662D01*
X167122388Y-80003046D01*
X167067906Y-79963462D01*
X166966391Y-79931328D01*
X163879152Y-75829876D02*
X163403054Y-75496410D01*
X163342185Y-76025316D02*
X163000164Y-75085623D01*
X163358143Y-74955330D01*
X163463924Y-74967504D01*
X163524958Y-74995964D01*
X163602278Y-75069172D01*
X163651138Y-75203414D01*
X163638964Y-75309195D01*
X163610504Y-75370229D01*
X163537296Y-75447550D01*
X163179318Y-75577843D01*
X164774097Y-75504142D02*
X164237130Y-75699582D01*
X164505614Y-75601862D02*
X164163593Y-74662170D01*
X164122959Y-74828985D01*
X164066038Y-74951053D01*
X163992830Y-75028373D01*
X165221570Y-75341275D02*
X165400559Y-75276129D01*
X165473767Y-75198808D01*
X165502227Y-75137774D01*
X165542862Y-74970959D01*
X165522462Y-74775683D01*
X165392169Y-74417705D01*
X165314848Y-74344497D01*
X165253814Y-74316037D01*
X165148033Y-74303863D01*
X164969044Y-74369009D01*
X164895836Y-74446330D01*
X164867376Y-74507364D01*
X164855202Y-74613145D01*
X164936635Y-74836882D01*
X165013956Y-74910089D01*
X165074990Y-74938550D01*
X165180771Y-74950724D01*
X165359760Y-74885577D01*
X165432968Y-74808257D01*
X165461428Y-74747223D01*
X165473602Y-74641441D01*
X161481501Y-71269564D02*
X160950522Y-71033068D01*
X160991691Y-71563871D02*
X160476653Y-70706704D01*
X160803193Y-70510499D01*
X160909353Y-70502265D01*
X160974696Y-70518557D01*
X161064565Y-70575666D01*
X161138142Y-70698119D01*
X161146376Y-70804279D01*
X161130084Y-70869622D01*
X161072975Y-70959491D01*
X160746435Y-71155696D01*
X161342054Y-70297826D02*
X161358346Y-70232483D01*
X161415455Y-70142614D01*
X161619543Y-70019986D01*
X161725703Y-70011753D01*
X161791046Y-70028044D01*
X161880915Y-70085154D01*
X161929966Y-70166789D01*
X161962726Y-70313767D01*
X161767223Y-71097884D01*
X162297851Y-70779051D01*
X162313440Y-69603051D02*
X162395075Y-69553999D01*
X162501235Y-69545766D01*
X162566579Y-69562058D01*
X162656447Y-69619167D01*
X162795367Y-69757911D01*
X162917995Y-69961999D01*
X162975280Y-70149794D01*
X162983514Y-70255955D01*
X162967222Y-70321298D01*
X162910113Y-70411167D01*
X162828478Y-70460218D01*
X162722317Y-70468452D01*
X162656974Y-70452160D01*
X162567106Y-70395051D01*
X162428186Y-70256306D01*
X162305557Y-70052219D01*
X162248272Y-69864423D01*
X162240039Y-69758263D01*
X162256331Y-69692919D01*
X162313440Y-69603051D01*
X165731812Y-90057778D02*
X165415301Y-89570245D01*
X165160732Y-90037836D02*
X165195631Y-89038445D01*
X165576351Y-89051740D01*
X165669870Y-89102654D01*
X165715798Y-89151906D01*
X165760064Y-89248748D01*
X165755078Y-89391518D01*
X165704165Y-89485036D01*
X165654913Y-89530964D01*
X165558071Y-89575231D01*
X165177350Y-89561936D01*
X166144108Y-89166863D02*
X166193360Y-89120935D01*
X166290202Y-89076668D01*
X166528152Y-89084978D01*
X166621670Y-89135892D01*
X166667599Y-89185143D01*
X166711865Y-89281985D01*
X166708541Y-89377166D01*
X166655965Y-89518274D01*
X166064942Y-90069412D01*
X166683613Y-90091016D01*
X167635414Y-90124254D02*
X167064333Y-90104311D01*
X167349873Y-90114282D02*
X167384773Y-89114892D01*
X167284607Y-89254338D01*
X167186103Y-89346194D01*
X167089261Y-89390461D01*
X166014934Y-84882556D02*
X165611212Y-84464373D01*
X165450541Y-84971947D02*
X165294106Y-83984259D01*
X165670368Y-83924665D01*
X165771883Y-83956799D01*
X165826365Y-83996382D01*
X165888297Y-84082999D01*
X165910644Y-84224097D01*
X165878510Y-84325612D01*
X165838927Y-84380094D01*
X165752310Y-84442025D01*
X165376048Y-84501619D01*
X166249660Y-83929339D02*
X166289244Y-83874857D01*
X166375860Y-83812926D01*
X166611024Y-83775679D01*
X166712539Y-83807814D01*
X166767021Y-83847397D01*
X166828952Y-83934013D01*
X166843851Y-84028079D01*
X166819166Y-84176627D01*
X166344163Y-84830411D01*
X166955590Y-84733571D01*
X167190316Y-83780354D02*
X167229899Y-83725872D01*
X167316516Y-83663940D01*
X167551680Y-83626694D01*
X167653194Y-83658828D01*
X167707676Y-83698412D01*
X167769608Y-83785028D01*
X167784506Y-83879094D01*
X167759821Y-84027641D01*
X167284819Y-84681426D01*
X167896245Y-84584585D01*
X165305376Y-79748394D02*
X164829278Y-79414928D01*
X164768409Y-79943834D02*
X164426388Y-79004141D01*
X164784367Y-78873848D01*
X164890148Y-78886022D01*
X164951182Y-78914482D01*
X165028502Y-78987690D01*
X165077362Y-79121932D01*
X165065188Y-79227713D01*
X165036728Y-79288747D01*
X164963520Y-79366068D01*
X164605542Y-79496361D01*
X165353907Y-78767902D02*
X165382368Y-78706868D01*
X165455576Y-78629548D01*
X165679312Y-78548114D01*
X165785093Y-78560288D01*
X165846127Y-78588749D01*
X165923448Y-78661957D01*
X165956021Y-78751451D01*
X165960134Y-78901980D01*
X165618607Y-79634387D01*
X166200321Y-79422660D01*
X166171532Y-78368961D02*
X166753246Y-78157234D01*
X166570309Y-78629219D01*
X166704551Y-78580359D01*
X166810332Y-78592533D01*
X166871366Y-78620993D01*
X166948686Y-78694201D01*
X167030120Y-78917938D01*
X167017946Y-79023719D01*
X166989485Y-79084753D01*
X166916277Y-79162073D01*
X166647794Y-79259793D01*
X166542013Y-79247620D01*
X166480979Y-79219159D01*
X163629210Y-74843952D02*
X163098231Y-74607456D01*
X163139400Y-75138259D02*
X162624362Y-74281092D01*
X162950902Y-74084887D01*
X163057062Y-74076653D01*
X163122405Y-74092945D01*
X163212274Y-74150054D01*
X163285851Y-74272507D01*
X163294085Y-74378667D01*
X163277793Y-74444010D01*
X163220684Y-74533879D01*
X162894144Y-74730084D01*
X163489763Y-73872214D02*
X163506055Y-73806871D01*
X163563164Y-73717002D01*
X163767252Y-73594374D01*
X163873412Y-73586141D01*
X163938755Y-73602432D01*
X164028624Y-73659542D01*
X164077675Y-73741177D01*
X164110435Y-73888155D01*
X163914932Y-74672272D01*
X164445560Y-74353439D01*
X164836916Y-73340533D02*
X165180274Y-73911978D01*
X164436623Y-73136621D02*
X164600420Y-73871512D01*
X165131048Y-73552679D01*
D17*
X139976190Y-111580952D02*
X140380952Y-111580952D01*
X140428571Y-111557142D01*
X140452380Y-111533333D01*
X140476190Y-111485714D01*
X140476190Y-111390476D01*
X140452380Y-111342857D01*
X140428571Y-111319047D01*
X140380952Y-111295238D01*
X139976190Y-111295238D01*
X140476190Y-110795238D02*
X140476190Y-111080952D01*
X140476190Y-110938095D02*
X139976190Y-110938095D01*
X140047619Y-110985714D01*
X140095238Y-111033333D01*
X140119047Y-111080952D01*
X145231510Y-110072295D02*
X144834185Y-110149527D01*
X144791984Y-110181985D01*
X144773155Y-110209901D01*
X144758869Y-110261188D01*
X144777041Y-110354676D01*
X144809499Y-110396877D01*
X144837415Y-110415706D01*
X144888702Y-110429992D01*
X145286027Y-110352760D01*
X145280171Y-110572195D02*
X145308086Y-110591024D01*
X145340544Y-110633225D01*
X145363259Y-110750085D01*
X145348973Y-110801372D01*
X145330144Y-110829288D01*
X145287943Y-110861746D01*
X145241199Y-110870832D01*
X145166540Y-110861089D01*
X144831558Y-110635141D01*
X144890618Y-110938978D01*
X149710230Y-108440991D02*
X149334941Y-108592617D01*
X149299709Y-108632531D01*
X149286552Y-108663526D01*
X149282315Y-108716597D01*
X149317992Y-108804900D01*
X149357906Y-108840133D01*
X149388901Y-108853290D01*
X149441972Y-108857527D01*
X149817260Y-108705900D01*
X149888614Y-108882507D02*
X150004564Y-109169492D01*
X149765523Y-109086315D01*
X149792280Y-109152543D01*
X149788043Y-109205614D01*
X149774886Y-109236609D01*
X149739654Y-109276523D01*
X149629275Y-109321119D01*
X149576204Y-109316881D01*
X149545209Y-109303725D01*
X149505295Y-109268492D01*
X149451780Y-109136038D01*
X149456017Y-109082967D01*
X149469174Y-109051972D01*
X153795396Y-105985078D02*
X153455934Y-106205527D01*
X153428965Y-106251430D01*
X153421964Y-106284366D01*
X153427931Y-106337271D01*
X153479801Y-106417144D01*
X153525705Y-106444113D01*
X153558641Y-106451114D01*
X153611545Y-106445147D01*
X153951007Y-106224698D01*
X154057613Y-106694870D02*
X153778056Y-106876416D01*
X154152522Y-106491287D02*
X153788159Y-106585959D01*
X153956737Y-106845548D01*
D10*
X142238095Y-121852380D02*
X142238095Y-122661904D01*
X142285714Y-122757142D01*
X142333333Y-122804761D01*
X142428571Y-122852380D01*
X142619047Y-122852380D01*
X142714285Y-122804761D01*
X142761904Y-122757142D01*
X142809523Y-122661904D01*
X142809523Y-121852380D01*
X143761904Y-121852380D02*
X143285714Y-121852380D01*
X143238095Y-122328571D01*
X143285714Y-122280952D01*
X143380952Y-122233333D01*
X143619047Y-122233333D01*
X143714285Y-122280952D01*
X143761904Y-122328571D01*
X143809523Y-122423809D01*
X143809523Y-122661904D01*
X143761904Y-122757142D01*
X143714285Y-122804761D01*
X143619047Y-122852380D01*
X143380952Y-122852380D01*
X143285714Y-122804761D01*
X143238095Y-122757142D01*
D17*
X157336896Y-102794801D02*
X157045734Y-103075972D01*
X157028020Y-103126179D01*
X157027432Y-103159845D01*
X157043384Y-103210639D01*
X157109542Y-103279148D01*
X157159748Y-103296862D01*
X157193415Y-103297450D01*
X157244208Y-103281498D01*
X157535370Y-103000327D01*
X157849620Y-103325742D02*
X157783462Y-103257234D01*
X157733256Y-103239519D01*
X157699589Y-103238931D01*
X157615129Y-103254296D01*
X157530081Y-103303326D01*
X157393064Y-103435642D01*
X157375349Y-103485848D01*
X157374761Y-103519515D01*
X157390713Y-103570309D01*
X157456871Y-103638817D01*
X157507077Y-103656532D01*
X157540744Y-103657120D01*
X157591537Y-103641168D01*
X157677173Y-103558471D01*
X157694888Y-103508264D01*
X157695476Y-103474598D01*
X157679524Y-103423804D01*
X157613366Y-103355296D01*
X157563160Y-103337581D01*
X157529493Y-103336993D01*
X157478699Y-103352945D01*
X160204594Y-98987390D02*
X159972432Y-99318951D01*
X159964623Y-99371615D01*
X159970470Y-99404775D01*
X159995821Y-99451592D01*
X160073835Y-99506218D01*
X160126499Y-99514028D01*
X160159659Y-99508181D01*
X160206476Y-99482830D01*
X160438638Y-99151269D01*
X160594667Y-99260521D02*
X160867717Y-99451713D01*
X160405397Y-99738380D01*
X162293117Y-94702746D02*
X162128485Y-95072514D01*
X162130868Y-95125701D01*
X162142935Y-95157136D01*
X162176753Y-95198255D01*
X162263757Y-95236992D01*
X162316943Y-95234609D01*
X162348379Y-95222543D01*
X162389498Y-95188725D01*
X162554130Y-94818956D01*
X162749736Y-95140611D02*
X162715918Y-95099491D01*
X162703851Y-95068056D01*
X162701468Y-95014869D01*
X162711152Y-94993118D01*
X162752272Y-94959300D01*
X162783707Y-94947234D01*
X162836894Y-94944851D01*
X162923898Y-94983588D01*
X162957716Y-95024707D01*
X162969783Y-95056143D01*
X162972165Y-95109329D01*
X162962481Y-95131080D01*
X162921362Y-95164898D01*
X162889926Y-95176965D01*
X162836740Y-95179347D01*
X162749736Y-95140611D01*
X162696549Y-95142993D01*
X162665114Y-95155060D01*
X162623995Y-95188878D01*
X162585258Y-95275882D01*
X162587640Y-95329069D01*
X162599707Y-95360504D01*
X162633525Y-95401624D01*
X162720530Y-95440360D01*
X162773716Y-95437978D01*
X162805151Y-95425911D01*
X162846271Y-95392093D01*
X162885008Y-95305089D01*
X162882625Y-95251902D01*
X162870558Y-95220467D01*
X162836740Y-95179347D01*
X163525719Y-90098316D02*
X163434667Y-90492704D01*
X163447154Y-90544458D01*
X163464998Y-90573014D01*
X163506040Y-90606925D01*
X163598837Y-90628349D01*
X163650592Y-90615862D01*
X163679147Y-90598018D01*
X163713058Y-90556976D01*
X163804110Y-90162588D01*
X163946827Y-90708689D02*
X164039624Y-90730112D01*
X164091378Y-90717625D01*
X164119934Y-90699782D01*
X164182400Y-90640896D01*
X164227023Y-90553455D01*
X164269871Y-90367860D01*
X164257384Y-90316106D01*
X164239541Y-90287551D01*
X164198498Y-90253639D01*
X164105701Y-90232215D01*
X164053946Y-90244703D01*
X164025391Y-90262546D01*
X163991480Y-90303589D01*
X163964700Y-90419585D01*
X163977187Y-90471340D01*
X163995031Y-90499895D01*
X164036073Y-90533806D01*
X164128870Y-90555230D01*
X164180625Y-90542743D01*
X164209180Y-90524899D01*
X164243091Y-90483857D01*
D10*
X166528980Y-109066129D02*
X167091323Y-109648451D01*
X167191735Y-109683881D01*
X167259068Y-109685056D01*
X167360656Y-109653152D01*
X167497673Y-109520837D01*
X167533102Y-109420424D01*
X167534278Y-109353091D01*
X167502374Y-109251504D01*
X166940031Y-108669181D01*
X168354030Y-108693862D02*
X167942978Y-109090810D01*
X168148504Y-108892336D02*
X167453846Y-108172996D01*
X167484574Y-108341917D01*
X167482223Y-108476584D01*
X167446794Y-108576996D01*
X168104677Y-107544496D02*
X168173185Y-107478338D01*
X168274773Y-107446434D01*
X168342106Y-107447610D01*
X168442518Y-107483039D01*
X168609089Y-107586977D01*
X168774483Y-107758249D01*
X168872545Y-107928345D01*
X168904449Y-108029932D01*
X168903273Y-108097266D01*
X168867844Y-108197678D01*
X168799335Y-108263836D01*
X168697748Y-108295739D01*
X168630414Y-108294564D01*
X168530002Y-108259134D01*
X168363432Y-108155196D01*
X168198037Y-107983925D01*
X168099976Y-107813829D01*
X168068072Y-107712241D01*
X168069247Y-107644908D01*
X168104677Y-107544496D01*
D17*
X163619158Y-85334981D02*
X163605032Y-85739497D01*
X163627165Y-85787918D01*
X163650129Y-85812544D01*
X163696888Y-85838000D01*
X163792068Y-85841324D01*
X163840489Y-85819191D01*
X163865115Y-85796227D01*
X163890572Y-85749468D01*
X163904698Y-85344953D01*
X164386944Y-85862098D02*
X164101403Y-85852126D01*
X164244174Y-85857112D02*
X164261623Y-85357417D01*
X164211540Y-85427140D01*
X164162289Y-85473068D01*
X164113868Y-85495201D01*
X164862844Y-85878717D02*
X164577304Y-85868745D01*
X164720074Y-85873731D02*
X164737524Y-85374036D01*
X164687441Y-85443759D01*
X164638189Y-85489687D01*
X164589768Y-85511820D01*
X163039943Y-80649642D02*
X163103262Y-81049421D01*
X163134227Y-81092729D01*
X163161469Y-81112521D01*
X163212226Y-81128588D01*
X163306291Y-81113690D01*
X163349600Y-81082724D01*
X163369391Y-81055483D01*
X163385459Y-81004725D01*
X163322140Y-80604947D01*
X163894201Y-81020574D02*
X163612005Y-81065269D01*
X163753103Y-81042922D02*
X163674886Y-80549077D01*
X163639027Y-80627076D01*
X163599443Y-80681558D01*
X163556135Y-80712524D01*
X164011564Y-80543965D02*
X164031356Y-80516724D01*
X164074664Y-80485759D01*
X164192246Y-80467136D01*
X164243004Y-80483203D01*
X164270245Y-80502994D01*
X164301210Y-80546303D01*
X164308660Y-80593335D01*
X164296317Y-80667609D01*
X164058816Y-80994501D01*
X164364529Y-80946081D01*
X161577366Y-76160906D02*
X161715802Y-76541258D01*
X161754463Y-76577862D01*
X161784980Y-76592092D01*
X161837870Y-76598179D01*
X161927365Y-76565606D01*
X161963969Y-76526946D01*
X161978199Y-76496429D01*
X161984286Y-76443538D01*
X161845849Y-76063186D01*
X162486706Y-76362023D02*
X162218222Y-76459743D01*
X162352464Y-76410883D02*
X162181454Y-75941036D01*
X162161137Y-76024444D01*
X162132676Y-76085478D01*
X162096072Y-76124138D01*
X162472311Y-75835173D02*
X162763168Y-75729310D01*
X162671699Y-75965302D01*
X162738820Y-75940872D01*
X162791711Y-75946959D01*
X162822228Y-75961189D01*
X162860888Y-75997793D01*
X162901605Y-76109661D01*
X162895518Y-76162552D01*
X162881288Y-76193069D01*
X162844684Y-76231729D01*
X162710442Y-76280589D01*
X162657551Y-76274502D01*
X162627034Y-76260272D01*
X159285169Y-72033713D02*
X159493637Y-72380662D01*
X159538571Y-72409216D01*
X159571243Y-72417362D01*
X159624323Y-72413245D01*
X159705958Y-72364194D01*
X159734512Y-72319260D01*
X159742658Y-72286588D01*
X159738542Y-72233508D01*
X159530074Y-71886559D01*
X160216176Y-72057624D02*
X159971271Y-72204778D01*
X160093724Y-72131201D02*
X159836205Y-71702617D01*
X159832176Y-71788369D01*
X159815884Y-71853712D01*
X159787329Y-71898646D01*
X160411854Y-71551171D02*
X160583534Y-71836893D01*
X160211708Y-71449215D02*
X160293607Y-71816660D01*
X160558920Y-71657244D01*
D10*
X174909505Y-83618229D02*
X175718536Y-83646481D01*
X175815378Y-83602215D01*
X175864630Y-83556286D01*
X175915543Y-83462768D01*
X175922191Y-83272408D01*
X175877925Y-83175566D01*
X175831997Y-83126314D01*
X175738478Y-83075400D01*
X174929448Y-83047148D01*
X175963738Y-82082657D02*
X175943795Y-82653738D01*
X175953767Y-82368197D02*
X174954376Y-82333298D01*
X175093822Y-82433464D01*
X175185679Y-82531967D01*
X175229945Y-82628809D01*
X174995923Y-81143547D02*
X174979304Y-81619447D01*
X175453543Y-81683656D01*
X175407614Y-81634404D01*
X175363348Y-81537562D01*
X175371658Y-81299612D01*
X175422571Y-81206094D01*
X175471823Y-81160166D01*
X175568665Y-81115899D01*
X175806615Y-81124209D01*
X175900134Y-81175123D01*
X175946062Y-81224375D01*
X175990328Y-81321216D01*
X175982019Y-81559167D01*
X175931105Y-81652685D01*
X175881853Y-81698613D01*
X158834061Y-69067157D02*
X158901396Y-69068215D01*
X159035008Y-69137665D01*
X159101286Y-69206058D01*
X159166506Y-69341787D01*
X159164390Y-69476457D01*
X159129136Y-69576931D01*
X159025488Y-69743682D01*
X158922899Y-69843098D01*
X158752974Y-69941457D01*
X158651443Y-69973538D01*
X158516772Y-69971422D01*
X158383160Y-69901971D01*
X158316882Y-69833578D01*
X158251663Y-69697850D01*
X158252720Y-69630515D01*
X158239680Y-68316950D02*
X158637344Y-68727308D01*
X158438512Y-68522129D02*
X157720386Y-69218041D01*
X157889252Y-69187018D01*
X158023923Y-69189134D01*
X158124397Y-69224388D01*
X157289582Y-68773487D02*
X156858779Y-68328933D01*
X157364322Y-68303198D01*
X157264906Y-68200609D01*
X157232825Y-68099077D01*
X157233883Y-68031742D01*
X157269137Y-67931268D01*
X157440120Y-67765575D01*
X157541651Y-67733494D01*
X157608986Y-67734551D01*
X157709460Y-67769806D01*
X157908293Y-67974985D01*
X157940373Y-68076516D01*
X157939316Y-68143852D01*
X155238715Y-65593743D02*
X155305015Y-65581933D01*
X155449424Y-65624614D01*
X155527534Y-65679104D01*
X155617454Y-65799894D01*
X155641073Y-65932493D01*
X155625638Y-66037848D01*
X155555713Y-66221313D01*
X155473977Y-66338477D01*
X155325942Y-66467452D01*
X155232398Y-66518316D01*
X155099798Y-66541936D01*
X154955388Y-66499256D01*
X154877278Y-66444766D01*
X154787359Y-66323976D01*
X154775549Y-66257676D01*
X154512108Y-64970733D02*
X154980766Y-65297673D01*
X154746437Y-65134203D02*
X154174291Y-65954355D01*
X154334136Y-65891680D01*
X154466736Y-65868061D01*
X154572090Y-65883496D01*
X153427690Y-65027090D02*
X153809121Y-64480322D01*
X153405004Y-65475754D02*
X154008954Y-65026156D01*
X153501241Y-64671971D01*
X158257752Y-67250530D02*
X157691404Y-67119696D01*
X157833098Y-67632891D02*
X157163968Y-66889746D01*
X157447070Y-66634839D01*
X157549710Y-66606500D01*
X157616961Y-66610025D01*
X157716075Y-66648937D01*
X157811665Y-66755101D01*
X157840004Y-66857740D01*
X157836480Y-66924991D01*
X157797567Y-67024105D01*
X157514465Y-67279012D01*
X157935451Y-66323254D02*
X157938976Y-66256003D01*
X157977888Y-66156889D01*
X158154827Y-65997572D01*
X158257467Y-65969233D01*
X158324718Y-65972757D01*
X158423832Y-66011670D01*
X158487559Y-66082445D01*
X158547761Y-66220472D01*
X158505467Y-67027487D01*
X158965509Y-66613263D01*
X158968748Y-65264715D02*
X158614869Y-65583348D01*
X158898115Y-65969090D01*
X158901640Y-65901839D01*
X158940552Y-65802724D01*
X159117491Y-65643407D01*
X159220130Y-65615069D01*
X159287382Y-65618593D01*
X159386496Y-65657505D01*
X159545813Y-65834445D01*
X159574152Y-65937084D01*
X159570627Y-66004335D01*
X159531715Y-66103449D01*
X159354776Y-66262766D01*
X159252137Y-66291105D01*
X159184886Y-66287581D01*
X154326366Y-63920458D02*
X153745458Y-63900091D01*
X153982472Y-64376821D02*
X153183836Y-63775006D01*
X153413099Y-63470764D01*
X153508445Y-63423361D01*
X153575133Y-63413989D01*
X153679851Y-63433274D01*
X153793942Y-63519248D01*
X153841345Y-63614594D01*
X153850717Y-63681282D01*
X153831432Y-63786000D01*
X153602169Y-64090242D01*
X153833054Y-63071716D02*
X153823681Y-63005028D01*
X153842967Y-62900310D01*
X153986256Y-62710158D01*
X154081602Y-62662756D01*
X154148290Y-62653383D01*
X154253009Y-62672669D01*
X154329069Y-62729985D01*
X154414502Y-62853988D01*
X154526971Y-63654246D01*
X154899523Y-63159852D01*
X154616729Y-61873493D02*
X154502098Y-62025614D01*
X154482812Y-62130332D01*
X154492185Y-62197020D01*
X154548960Y-62359054D01*
X154672423Y-62511716D01*
X154976665Y-62740979D01*
X155081383Y-62760264D01*
X155148071Y-62750892D01*
X155243417Y-62703489D01*
X155358049Y-62551368D01*
X155377334Y-62446650D01*
X155367962Y-62379962D01*
X155320559Y-62284616D01*
X155130408Y-62141326D01*
X155025689Y-62122041D01*
X154959001Y-62131413D01*
X154863655Y-62178816D01*
X154749024Y-62330937D01*
X154729739Y-62435656D01*
X154739111Y-62502344D01*
X154786514Y-62597690D01*
X161048027Y-70349444D02*
X160481679Y-70218610D01*
X160623373Y-70731805D02*
X159954243Y-69988660D01*
X160237345Y-69733753D01*
X160339985Y-69705414D01*
X160407236Y-69708939D01*
X160506350Y-69747851D01*
X160601940Y-69854015D01*
X160630279Y-69956654D01*
X160626755Y-70023905D01*
X160587842Y-70123019D01*
X160304740Y-70377926D01*
X160725726Y-69422168D02*
X160729251Y-69354917D01*
X160768163Y-69255803D01*
X160945102Y-69096486D01*
X161047742Y-69068147D01*
X161114993Y-69071671D01*
X161214107Y-69110584D01*
X161277834Y-69181359D01*
X161338036Y-69319386D01*
X161295742Y-70126401D01*
X161755784Y-69712177D01*
X162109663Y-69393544D02*
X162251214Y-69266090D01*
X162290127Y-69166976D01*
X162293651Y-69099724D01*
X162268837Y-68929834D01*
X162176771Y-68756419D01*
X161921864Y-68473317D01*
X161822750Y-68434404D01*
X161755498Y-68430880D01*
X161652859Y-68459219D01*
X161511308Y-68586672D01*
X161472396Y-68685787D01*
X161468871Y-68753038D01*
X161497210Y-68855677D01*
X161656527Y-69032616D01*
X161755641Y-69071528D01*
X161822893Y-69075053D01*
X161925532Y-69046714D01*
X162067083Y-68919261D01*
X162105995Y-68820146D01*
X162109520Y-68752895D01*
X162081181Y-68650256D01*
X157656676Y-66430028D02*
X157075768Y-66409661D01*
X157312782Y-66886391D02*
X156514146Y-66284576D01*
X156743409Y-65980334D01*
X156838755Y-65932931D01*
X156905443Y-65923559D01*
X157010161Y-65942844D01*
X157124252Y-66028818D01*
X157171655Y-66124164D01*
X157181027Y-66190852D01*
X157161742Y-66295570D01*
X156932479Y-66599812D01*
X157058645Y-65562001D02*
X157431198Y-65067607D01*
X157534835Y-65563082D01*
X157620808Y-65448991D01*
X157716154Y-65401589D01*
X157782842Y-65392216D01*
X157887561Y-65411502D01*
X158077712Y-65554791D01*
X158125115Y-65650137D01*
X158134487Y-65716825D01*
X158115202Y-65821543D01*
X157943254Y-66049725D01*
X157847909Y-66097128D01*
X157781220Y-66106500D01*
X157803750Y-64573214D02*
X157861065Y-64497153D01*
X157956411Y-64449751D01*
X158023100Y-64440378D01*
X158127818Y-64459664D01*
X158308597Y-64536265D01*
X158498748Y-64679554D01*
X158622211Y-64832216D01*
X158669614Y-64927562D01*
X158678986Y-64994250D01*
X158659701Y-65098969D01*
X158602385Y-65175029D01*
X158507039Y-65222432D01*
X158440351Y-65231804D01*
X158335633Y-65212519D01*
X158154854Y-65135917D01*
X157964703Y-64992628D01*
X157841239Y-64839966D01*
X157793837Y-64744621D01*
X157784464Y-64677932D01*
X157803750Y-64573214D01*
D17*
X156247579Y-68419721D02*
X156518418Y-68720518D01*
X156567975Y-68739974D01*
X156601601Y-68741736D01*
X156652920Y-68727567D01*
X156723696Y-68663840D01*
X156743152Y-68614283D01*
X156744914Y-68580657D01*
X156730745Y-68529338D01*
X156459906Y-68228541D01*
X157166044Y-68265548D02*
X156953717Y-68456728D01*
X157059880Y-68361138D02*
X156725315Y-67989566D01*
X156737722Y-68074511D01*
X156734198Y-68141762D01*
X156714742Y-68191319D01*
X157149969Y-67607205D02*
X157079194Y-67670932D01*
X157059737Y-67720489D01*
X157057975Y-67754115D01*
X157070382Y-67839060D01*
X157116415Y-67925767D01*
X157243869Y-68067319D01*
X157293426Y-68086775D01*
X157327052Y-68088537D01*
X157378371Y-68074368D01*
X157449147Y-68010641D01*
X157468603Y-67961084D01*
X157470365Y-67927458D01*
X157456196Y-67876139D01*
X157376537Y-67787669D01*
X157326980Y-67768213D01*
X157293354Y-67766451D01*
X157242035Y-67780620D01*
X157171259Y-67844347D01*
X157151803Y-67893904D01*
X157150041Y-67927530D01*
X157164210Y-67978849D01*
D10*
X168078512Y-62113487D02*
X167476919Y-62655164D01*
X167438007Y-62754278D01*
X167434482Y-62821530D01*
X167462821Y-62924169D01*
X167590274Y-63065720D01*
X167689389Y-63104632D01*
X167756640Y-63108157D01*
X167859279Y-63079818D01*
X168460873Y-62538141D01*
X168676867Y-62920358D02*
X168744118Y-62923883D01*
X168843233Y-62962795D01*
X169002550Y-63139734D01*
X169030889Y-63242373D01*
X169027364Y-63309625D01*
X168988452Y-63408739D01*
X168917676Y-63472466D01*
X168779649Y-63532668D01*
X167972635Y-63490374D01*
X168386858Y-63950416D01*
X169544227Y-63741328D02*
X169607954Y-63812104D01*
X169636293Y-63914743D01*
X169632768Y-63981994D01*
X169593856Y-64081108D01*
X169484168Y-64243950D01*
X169307229Y-64403266D01*
X169133814Y-64495332D01*
X169031175Y-64523671D01*
X168963923Y-64520146D01*
X168864809Y-64481234D01*
X168801082Y-64410458D01*
X168772743Y-64307819D01*
X168776268Y-64240568D01*
X168815180Y-64141454D01*
X168924868Y-63978612D01*
X169101807Y-63819295D01*
X169275222Y-63727230D01*
X169377861Y-63698891D01*
X169445112Y-63702415D01*
X169544227Y-63741328D01*
X130936068Y-110800890D02*
X130878103Y-110835171D01*
X130727891Y-110845767D01*
X130635645Y-110822082D01*
X130509119Y-110740432D01*
X130440557Y-110624501D01*
X130418119Y-110520412D01*
X130419366Y-110324078D01*
X130454893Y-110185709D01*
X130548385Y-110013059D01*
X130618193Y-109932656D01*
X130734124Y-109864094D01*
X130884335Y-109853499D01*
X130976581Y-109877183D01*
X131103108Y-109958833D01*
X131137388Y-110016799D01*
X131834843Y-111129984D02*
X131281367Y-110987875D01*
X131558105Y-111058929D02*
X131806795Y-110090346D01*
X131679022Y-110205030D01*
X131563091Y-110273592D01*
X131459003Y-110296030D01*
X132406394Y-110244297D02*
X133052117Y-110410090D01*
X132388320Y-111272092D01*
X126351993Y-108806557D02*
X126288551Y-108829148D01*
X126139078Y-108810887D01*
X126053046Y-108770036D01*
X125944424Y-108665744D01*
X125899243Y-108538861D01*
X125897078Y-108432404D01*
X125935764Y-108239914D01*
X125997040Y-108110866D01*
X126121758Y-107959228D01*
X126205625Y-107893621D01*
X126332508Y-107848440D01*
X126481981Y-107866701D01*
X126568013Y-107907552D01*
X126676636Y-108011844D01*
X126699226Y-108075286D01*
X127171461Y-109301099D02*
X126655270Y-109055993D01*
X126913365Y-109178546D02*
X127342301Y-108275211D01*
X127194992Y-108363408D01*
X127068109Y-108408589D01*
X126961652Y-108410754D01*
X127932759Y-109030013D02*
X127867152Y-108946146D01*
X127844562Y-108882705D01*
X127842397Y-108776247D01*
X127862822Y-108733231D01*
X127946689Y-108667625D01*
X128010131Y-108645034D01*
X128116588Y-108642869D01*
X128288652Y-108724571D01*
X128354258Y-108808438D01*
X128376849Y-108871880D01*
X128379014Y-108978337D01*
X128358588Y-109021353D01*
X128274721Y-109086959D01*
X128211280Y-109109550D01*
X128104822Y-109111715D01*
X127932759Y-109030013D01*
X127826301Y-109032178D01*
X127762860Y-109054768D01*
X127678993Y-109120375D01*
X127597291Y-109292439D01*
X127599456Y-109398896D01*
X127622046Y-109462338D01*
X127687653Y-109546205D01*
X127859717Y-109627907D01*
X127966174Y-109625742D01*
X128029616Y-109603151D01*
X128113482Y-109537545D01*
X128195184Y-109365481D01*
X128193019Y-109259023D01*
X128170429Y-109195582D01*
X128104822Y-109111715D01*
X122232675Y-105974183D02*
X122166089Y-105984253D01*
X122022846Y-105937807D01*
X121946190Y-105881291D01*
X121859463Y-105758189D01*
X121839322Y-105625016D01*
X121857510Y-105520102D01*
X121932214Y-105338531D01*
X122016988Y-105223546D01*
X122168349Y-105098491D01*
X122263193Y-105050092D01*
X122396366Y-105029952D01*
X122539609Y-105076398D01*
X122616265Y-105132914D01*
X122702992Y-105256016D01*
X122713062Y-105322602D01*
X122942725Y-106616000D02*
X122482786Y-106276904D01*
X122712755Y-106446452D02*
X123306174Y-105641558D01*
X123144743Y-105700027D01*
X123011571Y-105720168D01*
X122906656Y-105701980D01*
X123326008Y-106898581D02*
X123479321Y-107011613D01*
X123584235Y-107029801D01*
X123650822Y-107019731D01*
X123812252Y-106961262D01*
X123963613Y-106836207D01*
X124189677Y-106529581D01*
X124207865Y-106424666D01*
X124197795Y-106358080D01*
X124149396Y-106263235D01*
X123996083Y-106150203D01*
X123891168Y-106132015D01*
X123824582Y-106142086D01*
X123729738Y-106190484D01*
X123588448Y-106382125D01*
X123570260Y-106487040D01*
X123580330Y-106553626D01*
X123628729Y-106648471D01*
X123782042Y-106761503D01*
X123886956Y-106779691D01*
X123953543Y-106769620D01*
X124048387Y-106721222D01*
X118729485Y-102407845D02*
X118662201Y-102405025D01*
X118530452Y-102332100D01*
X118465988Y-102261996D01*
X118404343Y-102124607D01*
X118409983Y-101990038D01*
X118447856Y-101890521D01*
X118555832Y-101726540D01*
X118660989Y-101629844D01*
X118833430Y-101535967D01*
X118935767Y-101506555D01*
X119070336Y-101512195D01*
X119202085Y-101585120D01*
X119266549Y-101655224D01*
X119328193Y-101792613D01*
X119325373Y-101859897D01*
X119583231Y-102140315D02*
X119650515Y-102143135D01*
X119750032Y-102181008D01*
X119911193Y-102356269D01*
X119940605Y-102458606D01*
X119937785Y-102525890D01*
X119899913Y-102625407D01*
X119829808Y-102689871D01*
X119692419Y-102751515D01*
X118885006Y-102717675D01*
X119304024Y-103173354D01*
X120459140Y-102952157D02*
X120523604Y-103022262D01*
X120553016Y-103124598D01*
X120550196Y-103191883D01*
X120512324Y-103291399D01*
X120404347Y-103455380D01*
X120229086Y-103616541D01*
X120056645Y-103710418D01*
X119954308Y-103739830D01*
X119887024Y-103737010D01*
X119787507Y-103699138D01*
X119723043Y-103629033D01*
X119693631Y-103526696D01*
X119696451Y-103459412D01*
X119734323Y-103359895D01*
X119842300Y-103195914D01*
X120017561Y-103034753D01*
X120190002Y-102940877D01*
X120292339Y-102911465D01*
X120359623Y-102914285D01*
X120459140Y-102952157D01*
X115971146Y-98238591D02*
X115905636Y-98222984D01*
X115790223Y-98126260D01*
X115740319Y-98045143D01*
X115706022Y-97898516D01*
X115737236Y-97767496D01*
X115793401Y-97677034D01*
X115930683Y-97536669D01*
X116052358Y-97461814D01*
X116239544Y-97402566D01*
X116345612Y-97393221D01*
X116476632Y-97424434D01*
X116592046Y-97521158D01*
X116641949Y-97602274D01*
X116676246Y-97748901D01*
X116660639Y-97814412D01*
X116860253Y-98138879D02*
X116925763Y-98154486D01*
X117016225Y-98210651D01*
X117140984Y-98413443D01*
X117150329Y-98519511D01*
X117134722Y-98585022D01*
X117078557Y-98675483D01*
X116997440Y-98725387D01*
X116850813Y-98759684D01*
X116064691Y-98572403D01*
X116389064Y-99099663D01*
X116888098Y-99910831D02*
X116588677Y-99424130D01*
X116738388Y-99667480D02*
X117590114Y-99143495D01*
X117418536Y-99137233D01*
X117287515Y-99106019D01*
X117197054Y-99049854D01*
X114059019Y-93619620D02*
X113997690Y-93591800D01*
X113902853Y-93474831D01*
X113869344Y-93385683D01*
X113863655Y-93235206D01*
X113919295Y-93112548D01*
X113991689Y-93034465D01*
X114153232Y-92922874D01*
X114286955Y-92872611D01*
X114482006Y-92850167D01*
X114587909Y-92861233D01*
X114710566Y-92916873D01*
X114805403Y-93033841D01*
X114838912Y-93122990D01*
X114844601Y-93273467D01*
X114816781Y-93334795D01*
X114950816Y-93691390D02*
X115012145Y-93719209D01*
X115090228Y-93791604D01*
X115173999Y-94014475D01*
X115162934Y-94120378D01*
X115135114Y-94181706D01*
X115062720Y-94259789D01*
X114973571Y-94293298D01*
X114823094Y-94298987D01*
X114087151Y-93965148D01*
X114304957Y-94544614D01*
X115285903Y-94582875D02*
X115347232Y-94610695D01*
X115425315Y-94683089D01*
X115509087Y-94905960D01*
X115498021Y-95011863D01*
X115470201Y-95073192D01*
X115397807Y-95151275D01*
X115308659Y-95184783D01*
X115158181Y-95190472D01*
X114422238Y-94856634D01*
X114640045Y-95436099D01*
X113063364Y-88720663D02*
X113008470Y-88681652D01*
X112937694Y-88548737D01*
X112921811Y-88454833D01*
X112944939Y-88306035D01*
X113022961Y-88196248D01*
X113108924Y-88133413D01*
X113288791Y-88054695D01*
X113429648Y-88030871D01*
X113625398Y-88046058D01*
X113727244Y-88077127D01*
X113837031Y-88155149D01*
X113907807Y-88288064D01*
X113923690Y-88381968D01*
X113900562Y-88530766D01*
X113861551Y-88585660D01*
X113925082Y-88961277D02*
X113979975Y-89000288D01*
X114042810Y-89086251D01*
X114082517Y-89321012D01*
X114051448Y-89422858D01*
X114012437Y-89477752D01*
X113926474Y-89540586D01*
X113832569Y-89556469D01*
X113683772Y-89533341D01*
X113025049Y-89065211D01*
X113128287Y-89675590D01*
X114169872Y-89837486D02*
X114273110Y-90447865D01*
X113841903Y-90182730D01*
X113865727Y-90323587D01*
X113834658Y-90425433D01*
X113795647Y-90480326D01*
X113709684Y-90543161D01*
X113474923Y-90582868D01*
X113373077Y-90551799D01*
X113318183Y-90512788D01*
X113255348Y-90426825D01*
X113207700Y-90145112D01*
X113238770Y-90043266D01*
X113277781Y-89988372D01*
X113703424Y-85024516D02*
X113749866Y-85073284D01*
X113793980Y-85217262D01*
X113791653Y-85312471D01*
X113740558Y-85454122D01*
X113643022Y-85547005D01*
X113546649Y-85592283D01*
X113355066Y-85635234D01*
X113212251Y-85631744D01*
X113022995Y-85579485D01*
X112928949Y-85529554D01*
X112836066Y-85432017D01*
X112791952Y-85288039D01*
X112794279Y-85192830D01*
X112845374Y-85051178D01*
X112894142Y-85004737D01*
X112903450Y-84623898D02*
X112857008Y-84575130D01*
X112811730Y-84478757D01*
X112817548Y-84240733D01*
X112867479Y-84146687D01*
X112916247Y-84100245D01*
X113012621Y-84054967D01*
X113107830Y-84057294D01*
X113249481Y-84108389D01*
X113806778Y-84693609D01*
X113821903Y-84074746D01*
X113176377Y-83201571D02*
X113842845Y-83217859D01*
X112789721Y-83430287D02*
X113497976Y-83685763D01*
X113513101Y-83066900D01*
X114354324Y-80215623D02*
X114390607Y-80272357D01*
X114406438Y-80422107D01*
X114385987Y-80515124D01*
X114308803Y-80644423D01*
X114195335Y-80716988D01*
X114092093Y-80743045D01*
X113895835Y-80748652D01*
X113756310Y-80717975D01*
X113580503Y-80630565D01*
X113497712Y-80563606D01*
X113425147Y-80450138D01*
X113409315Y-80300388D01*
X113429766Y-80207372D01*
X113506951Y-80078073D01*
X113563684Y-80041790D01*
X113645488Y-79669724D02*
X113609206Y-79612991D01*
X113583148Y-79509749D01*
X113634276Y-79277208D01*
X113701235Y-79194417D01*
X113757969Y-79158134D01*
X113861211Y-79132077D01*
X113954227Y-79152528D01*
X114083526Y-79229713D01*
X114518919Y-79910517D01*
X114651850Y-79305910D01*
X113869462Y-78207519D02*
X113767207Y-78672601D01*
X114222064Y-78821364D01*
X114185781Y-78764631D01*
X114159724Y-78661389D01*
X114210851Y-78428848D01*
X114277811Y-78346057D01*
X114334544Y-78309774D01*
X114437786Y-78283717D01*
X114670327Y-78334844D01*
X114753118Y-78401803D01*
X114789401Y-78458537D01*
X114815458Y-78561779D01*
X114764331Y-78794320D01*
X114697371Y-78877111D01*
X114640638Y-78913394D01*
X115910847Y-75619282D02*
X115935637Y-75681897D01*
X115922605Y-75831916D01*
X115884781Y-75919321D01*
X115784343Y-76031517D01*
X115659114Y-76081099D01*
X115552797Y-76086978D01*
X115359075Y-76055033D01*
X115227967Y-75998298D01*
X115072069Y-75878948D01*
X115003575Y-75797422D01*
X114953994Y-75672193D01*
X114967026Y-75522173D01*
X115004850Y-75434768D01*
X115105288Y-75322572D01*
X115167902Y-75297781D01*
X115319197Y-74948161D02*
X115294406Y-74885546D01*
X115288527Y-74779229D01*
X115383086Y-74560716D01*
X115464612Y-74492223D01*
X115527227Y-74467432D01*
X115633544Y-74461553D01*
X115720949Y-74499377D01*
X115833145Y-74599815D01*
X116130634Y-75351188D01*
X116376488Y-74783054D01*
X115799146Y-73599259D02*
X115723499Y-73774069D01*
X115729378Y-73880386D01*
X115754168Y-73943001D01*
X115847453Y-74087141D01*
X116003351Y-74206491D01*
X116352972Y-74357786D01*
X116459289Y-74351907D01*
X116521903Y-74327116D01*
X116603430Y-74258623D01*
X116679077Y-74083812D01*
X116673198Y-73977495D01*
X116648407Y-73914881D01*
X116579914Y-73833354D01*
X116361401Y-73738795D01*
X116255084Y-73744674D01*
X116192469Y-73769465D01*
X116110943Y-73837959D01*
X116035296Y-74012769D01*
X116041175Y-74119086D01*
X116065966Y-74181700D01*
X116134459Y-74263227D01*
X118315793Y-71404389D02*
X118328181Y-71470583D01*
X118286762Y-71615359D01*
X118232956Y-71693942D01*
X118112955Y-71784912D01*
X117980567Y-71809688D01*
X117875081Y-71795172D01*
X117691014Y-71726851D01*
X117573140Y-71646141D01*
X117442879Y-71499237D01*
X117391200Y-71406140D01*
X117366424Y-71273751D01*
X117407842Y-71128975D01*
X117461649Y-71050392D01*
X117581649Y-70959422D01*
X117647844Y-70947034D01*
X117863069Y-70632705D02*
X117850681Y-70566511D01*
X117865197Y-70461026D01*
X117999713Y-70264570D01*
X118092810Y-70212891D01*
X118159004Y-70200503D01*
X118264490Y-70215018D01*
X118343072Y-70268825D01*
X118434042Y-70388825D01*
X118582697Y-71183157D01*
X118932439Y-70672373D01*
X118295648Y-69832368D02*
X118672292Y-69282292D01*
X119255277Y-70200879D01*
X121480794Y-67725818D02*
X121480324Y-67793159D01*
X121412042Y-67927373D01*
X121344230Y-67994245D01*
X121209076Y-68060646D01*
X121074393Y-68059706D01*
X120973615Y-68025330D01*
X120805965Y-67923142D01*
X120705658Y-67821424D01*
X120605820Y-67652364D01*
X120572855Y-67551116D01*
X120573795Y-67416432D01*
X120642077Y-67282219D01*
X120709889Y-67215347D01*
X120845043Y-67148945D01*
X120912385Y-67149416D01*
X121183633Y-66881929D02*
X121184103Y-66814587D01*
X121218479Y-66713809D01*
X121388009Y-66546630D01*
X121489257Y-66513664D01*
X121556599Y-66514134D01*
X121657377Y-66548510D01*
X121724248Y-66616322D01*
X121790650Y-66751476D01*
X121785008Y-67559579D01*
X122225786Y-67124912D01*
X122231428Y-66316810D02*
X122130180Y-66349776D01*
X122062838Y-66349306D01*
X121962060Y-66314930D01*
X121928625Y-66281024D01*
X121895659Y-66179776D01*
X121896129Y-66112434D01*
X121930505Y-66011656D01*
X122066129Y-65877913D01*
X122167377Y-65844947D01*
X122234719Y-65845417D01*
X122335497Y-65879793D01*
X122368932Y-65913699D01*
X122401898Y-66014947D01*
X122401428Y-66082289D01*
X122367052Y-66183067D01*
X122231428Y-66316810D01*
X122197052Y-66417588D01*
X122196582Y-66484930D01*
X122229547Y-66586178D01*
X122363291Y-66721802D01*
X122464068Y-66756178D01*
X122531410Y-66756648D01*
X122632658Y-66723682D01*
X122768282Y-66589939D01*
X122802658Y-66489161D01*
X122803129Y-66421819D01*
X122770163Y-66320571D01*
X122636419Y-66184947D01*
X122535642Y-66150571D01*
X122468300Y-66150101D01*
X122367052Y-66183067D01*
X132878978Y-113538433D02*
X132327725Y-113722794D01*
X132716684Y-114086330D02*
X131757864Y-113802314D01*
X131866060Y-113437050D01*
X131938767Y-113359258D01*
X131997950Y-113327125D01*
X132102791Y-113308516D01*
X132239765Y-113349089D01*
X132317556Y-113421796D01*
X132349690Y-113480979D01*
X132368299Y-113585820D01*
X132260103Y-113951084D01*
X132014830Y-112934811D02*
X132190649Y-112341256D01*
X132461242Y-112769059D01*
X132501816Y-112632084D01*
X132574523Y-112554293D01*
X132633705Y-112522159D01*
X132738546Y-112503550D01*
X132966836Y-112571173D01*
X133044628Y-112643880D01*
X133076762Y-112703063D01*
X133095371Y-112807903D01*
X133014223Y-113081852D01*
X132941516Y-113159644D01*
X132882334Y-113191777D01*
X132285321Y-112021649D02*
X132461140Y-111428094D01*
X132731733Y-111855897D01*
X132772306Y-111718923D01*
X132845014Y-111641131D01*
X132904196Y-111608998D01*
X133009037Y-111590389D01*
X133237327Y-111658011D01*
X133315119Y-111730718D01*
X133347252Y-111789901D01*
X133365861Y-111894742D01*
X133284714Y-112168690D01*
X133212007Y-112246482D01*
X133152824Y-112278615D01*
X127736857Y-111864528D02*
X127160555Y-111940318D01*
X127473001Y-112371391D02*
X126585990Y-111909643D01*
X126761894Y-111571734D01*
X126848109Y-111509245D01*
X126912335Y-111488994D01*
X127018801Y-111490732D01*
X127145516Y-111556696D01*
X127208006Y-111642910D01*
X127228256Y-111707137D01*
X127226519Y-111813602D01*
X127050614Y-112151511D01*
X127003762Y-111107109D02*
X127289607Y-110558007D01*
X127473599Y-111029582D01*
X127539563Y-110902866D01*
X127625778Y-110840377D01*
X127690005Y-110820126D01*
X127796470Y-110821864D01*
X128007663Y-110931804D01*
X128070152Y-111018018D01*
X128090403Y-111082245D01*
X128088665Y-111188710D01*
X127956737Y-111442142D01*
X127870523Y-111504631D01*
X127806296Y-111524882D01*
X127981061Y-109951628D02*
X128572402Y-110259461D01*
X127533212Y-109986917D02*
X128056851Y-110527931D01*
X128342696Y-109978829D01*
X123008608Y-109240215D02*
X122428432Y-109204648D01*
X122652885Y-109687419D02*
X121870277Y-109064905D01*
X122107425Y-108766768D01*
X122203979Y-108721878D01*
X122270890Y-108714254D01*
X122375068Y-108736274D01*
X122486869Y-108825205D01*
X122531759Y-108921759D01*
X122539383Y-108988670D01*
X122517363Y-109092847D01*
X122280214Y-109390984D01*
X122433504Y-108356830D02*
X122818870Y-107872359D01*
X122909502Y-108370377D01*
X122998433Y-108258575D01*
X123094987Y-108213685D01*
X123161897Y-108206061D01*
X123266075Y-108228081D01*
X123452410Y-108376299D01*
X123497301Y-108472853D01*
X123504924Y-108539764D01*
X123482904Y-108643942D01*
X123305043Y-108867544D01*
X123208489Y-108912435D01*
X123141578Y-108920058D01*
X123382098Y-107164285D02*
X123085662Y-107536955D01*
X123428689Y-107870658D01*
X123421066Y-107803747D01*
X123443086Y-107699570D01*
X123591304Y-107513234D01*
X123687858Y-107468344D01*
X123754769Y-107460720D01*
X123858946Y-107482740D01*
X124045281Y-107630958D01*
X124090172Y-107727512D01*
X124097796Y-107794423D01*
X124075775Y-107898601D01*
X123927558Y-108084936D01*
X123831004Y-108129826D01*
X123764093Y-108137450D01*
X118705611Y-105571823D02*
X118142881Y-105426208D01*
X118271093Y-105942936D02*
X117621645Y-105182530D01*
X117911324Y-104935121D01*
X118014669Y-104909479D01*
X118081805Y-104914763D01*
X118179867Y-104956256D01*
X118272646Y-105064886D01*
X118298288Y-105168231D01*
X118293004Y-105235367D01*
X118251511Y-105333429D01*
X117961832Y-105580838D01*
X118309632Y-104594934D02*
X118780359Y-104192895D01*
X118774299Y-104699056D01*
X118882929Y-104606278D01*
X118986274Y-104580636D01*
X119053410Y-104585919D01*
X119151472Y-104627413D01*
X119306103Y-104808462D01*
X119331745Y-104911808D01*
X119326461Y-104978943D01*
X119284968Y-105077005D01*
X119067709Y-105262562D01*
X118964363Y-105288204D01*
X118897227Y-105282921D01*
X119432136Y-103636225D02*
X119287296Y-103759930D01*
X119245803Y-103857992D01*
X119240519Y-103925128D01*
X119260878Y-104095609D01*
X119348372Y-104271375D01*
X119595781Y-104561053D01*
X119693843Y-104602547D01*
X119760979Y-104607830D01*
X119864325Y-104582188D01*
X120009164Y-104458483D01*
X120050658Y-104360421D01*
X120055941Y-104293286D01*
X120030299Y-104189940D01*
X119875668Y-104008891D01*
X119777606Y-103967397D01*
X119710471Y-103962114D01*
X119607125Y-103987756D01*
X119462286Y-104111460D01*
X119420792Y-104209522D01*
X119415508Y-104276658D01*
X119441151Y-104380004D01*
X128880699Y-112354089D02*
X128329446Y-112538450D01*
X128718405Y-112901986D02*
X127759585Y-112617970D01*
X127867781Y-112252706D01*
X127940488Y-112174914D01*
X127999671Y-112142781D01*
X128104512Y-112124172D01*
X128241486Y-112164745D01*
X128319277Y-112237452D01*
X128351411Y-112296635D01*
X128370020Y-112401476D01*
X128261824Y-112766740D01*
X128016551Y-111750467D02*
X128192370Y-111156912D01*
X128462963Y-111584715D01*
X128503537Y-111447740D01*
X128576244Y-111369949D01*
X128635426Y-111337815D01*
X128740267Y-111319206D01*
X128968557Y-111386829D01*
X129046349Y-111459536D01*
X129078483Y-111518719D01*
X129097092Y-111623559D01*
X129015944Y-111897508D01*
X128943237Y-111975300D01*
X128884055Y-112007433D01*
X128287042Y-110837305D02*
X128476385Y-110198092D01*
X129313484Y-110893030D01*
X124038022Y-109939036D02*
X123461720Y-110014826D01*
X123774166Y-110445899D02*
X122887155Y-109984151D01*
X123063059Y-109646242D01*
X123149274Y-109583753D01*
X123213500Y-109563502D01*
X123319966Y-109565240D01*
X123446681Y-109631204D01*
X123509171Y-109717418D01*
X123529421Y-109781645D01*
X123527684Y-109888110D01*
X123351779Y-110226019D01*
X123304927Y-109181617D02*
X123590772Y-108632515D01*
X123774764Y-109104090D01*
X123840728Y-108977374D01*
X123926943Y-108914885D01*
X123991170Y-108894634D01*
X124097635Y-108896372D01*
X124308828Y-109006312D01*
X124371317Y-109092526D01*
X124391568Y-109156753D01*
X124389830Y-109263218D01*
X124257902Y-109516650D01*
X124171688Y-109579139D01*
X124107461Y-109599390D01*
X124234776Y-108323544D02*
X124148561Y-108386033D01*
X124084334Y-108406284D01*
X123977869Y-108404546D01*
X123935630Y-108382558D01*
X123873141Y-108296344D01*
X123852891Y-108232117D01*
X123854628Y-108125652D01*
X123942580Y-107956697D01*
X124028795Y-107894208D01*
X124093021Y-107873958D01*
X124199487Y-107875695D01*
X124241725Y-107897683D01*
X124304214Y-107983898D01*
X124324465Y-108048124D01*
X124322728Y-108154590D01*
X124234776Y-108323544D01*
X124233038Y-108430009D01*
X124253289Y-108494236D01*
X124315778Y-108580451D01*
X124484732Y-108668403D01*
X124591198Y-108670140D01*
X124655424Y-108649890D01*
X124741639Y-108587400D01*
X124829591Y-108418446D01*
X124831328Y-108311981D01*
X124811078Y-108247754D01*
X124748589Y-108161539D01*
X124579634Y-108073587D01*
X124473169Y-108071850D01*
X124408942Y-108092100D01*
X124322728Y-108154590D01*
X119745132Y-106644329D02*
X119164956Y-106608762D01*
X119389409Y-107091533D02*
X118606801Y-106469019D01*
X118843949Y-106170882D01*
X118940503Y-106125992D01*
X119007414Y-106118368D01*
X119111592Y-106140388D01*
X119223393Y-106229319D01*
X119268283Y-106325873D01*
X119275907Y-106392784D01*
X119253887Y-106496961D01*
X119016738Y-106795098D01*
X119170028Y-105760944D02*
X119555394Y-105276473D01*
X119646026Y-105774491D01*
X119734957Y-105662689D01*
X119831511Y-105617799D01*
X119898421Y-105610175D01*
X120002599Y-105632195D01*
X120188934Y-105780413D01*
X120233825Y-105876967D01*
X120241448Y-105943878D01*
X120219428Y-106048056D01*
X120041567Y-106271658D01*
X119945013Y-106316549D01*
X119878102Y-106324172D01*
X120634438Y-105526317D02*
X120753012Y-105377249D01*
X120775032Y-105273071D01*
X120767409Y-105206160D01*
X120714895Y-105042696D01*
X120595470Y-104886854D01*
X120297334Y-104649706D01*
X120193156Y-104627686D01*
X120126245Y-104635309D01*
X120029691Y-104680200D01*
X119911117Y-104829268D01*
X119889097Y-104933446D01*
X119896721Y-105000356D01*
X119941611Y-105096911D01*
X120127946Y-105245128D01*
X120232124Y-105267148D01*
X120299035Y-105259525D01*
X120395589Y-105214634D01*
X120514163Y-105065566D01*
X120536183Y-104961388D01*
X120528560Y-104894478D01*
X120483669Y-104797924D01*
X116159775Y-102591032D02*
X115597045Y-102445417D01*
X115725257Y-102962145D02*
X115075809Y-102201739D01*
X115365488Y-101954330D01*
X115468833Y-101928688D01*
X115535969Y-101933972D01*
X115634031Y-101975465D01*
X115726810Y-102084095D01*
X115752452Y-102187440D01*
X115747168Y-102254576D01*
X115705675Y-102352638D01*
X115415996Y-102600047D01*
X116378586Y-101527425D02*
X116811552Y-102034362D01*
X115950128Y-101392377D02*
X116232971Y-102090155D01*
X116703698Y-101688115D01*
X116705251Y-100810065D02*
X116777670Y-100748213D01*
X116881016Y-100722570D01*
X116948152Y-100727854D01*
X117046214Y-100769347D01*
X117206128Y-100883261D01*
X117360759Y-101064310D01*
X117448253Y-101240075D01*
X117473896Y-101343421D01*
X117468612Y-101410557D01*
X117427118Y-101508619D01*
X117354699Y-101570471D01*
X117251353Y-101596113D01*
X117184217Y-101590829D01*
X117086155Y-101549336D01*
X116926241Y-101435423D01*
X116771610Y-101254374D01*
X116684116Y-101078608D01*
X116658473Y-100975263D01*
X116663757Y-100908127D01*
X116705251Y-100810065D01*
X115467101Y-101557472D02*
X114942495Y-101307158D01*
X114969755Y-101838857D02*
X114477331Y-100968501D01*
X114808896Y-100780911D01*
X114915235Y-100775459D01*
X114980130Y-100793456D01*
X115068473Y-100852898D01*
X115138819Y-100977235D01*
X115144271Y-101083574D01*
X115126274Y-101148469D01*
X115066832Y-101236812D01*
X114735268Y-101424402D01*
X115884838Y-100555157D02*
X116213120Y-101135395D01*
X115490020Y-100340837D02*
X115634524Y-101079763D01*
X116173316Y-100774930D01*
X117124922Y-100619522D02*
X116627575Y-100900907D01*
X116876248Y-100760215D02*
X116383825Y-99889859D01*
X116371280Y-100061093D01*
X116335287Y-100190881D01*
X116275844Y-100279224D01*
X112930961Y-96781348D02*
X112463756Y-96435533D01*
X112389062Y-96962665D02*
X112071758Y-96014341D01*
X112433024Y-95893463D01*
X112538450Y-95908402D01*
X112598718Y-95938450D01*
X112674096Y-96013657D01*
X112719425Y-96149132D01*
X112704486Y-96254558D01*
X112674438Y-96314826D01*
X112599231Y-96390204D01*
X112237965Y-96511082D01*
X113532274Y-95877156D02*
X113743810Y-96509372D01*
X113185605Y-95591439D02*
X113186459Y-96344362D01*
X113773517Y-96147935D01*
X113908308Y-95500268D02*
X113938356Y-95440000D01*
X114013563Y-95364622D01*
X114239354Y-95289073D01*
X114344781Y-95304012D01*
X114405049Y-95334060D01*
X114480427Y-95409267D01*
X114510646Y-95499584D01*
X114510817Y-95650168D01*
X114150235Y-96373384D01*
X114737292Y-96176958D01*
X111352745Y-91609057D02*
X110960108Y-91180449D01*
X110786205Y-91683643D02*
X110655679Y-90692198D01*
X111033372Y-90642474D01*
X111134011Y-90677255D01*
X111187438Y-90718251D01*
X111247081Y-90806459D01*
X111265727Y-90948094D01*
X111230947Y-91048733D01*
X111189950Y-91102160D01*
X111101743Y-91161802D01*
X110724049Y-91211527D01*
X112115537Y-90836214D02*
X112202555Y-91497177D01*
X111829755Y-90489599D02*
X111686929Y-91228851D01*
X112300681Y-91148049D01*
X112496933Y-90449793D02*
X113110685Y-90368991D01*
X112829928Y-90790193D01*
X112971562Y-90771546D01*
X113072201Y-90806327D01*
X113125629Y-90847323D01*
X113185271Y-90935531D01*
X113216349Y-91171589D01*
X113181568Y-91272228D01*
X113140572Y-91325655D01*
X113052364Y-91385298D01*
X112769094Y-91422591D01*
X112668456Y-91387810D01*
X112615028Y-91346814D01*
X110805706Y-85981124D02*
X110502065Y-85485472D01*
X110235343Y-85946239D02*
X110296392Y-84948105D01*
X110676634Y-84971361D01*
X110768787Y-85024705D01*
X110813410Y-85075143D01*
X110855126Y-85173110D01*
X110846405Y-85315701D01*
X110793061Y-85407854D01*
X110742624Y-85452478D01*
X110644656Y-85494194D01*
X110264414Y-85470937D01*
X111701949Y-85368028D02*
X111661250Y-86033452D01*
X111487555Y-84973251D02*
X111206298Y-85671669D01*
X111824191Y-85709461D01*
X112652554Y-85426170D02*
X112611855Y-86091593D01*
X112438159Y-85031393D02*
X112156902Y-85729811D01*
X112774795Y-85767603D01*
X113413695Y-97928088D02*
X112889089Y-97677774D01*
X112916349Y-98209473D02*
X112423925Y-97339117D01*
X112755490Y-97151527D01*
X112861829Y-97146075D01*
X112926724Y-97164072D01*
X113015067Y-97223514D01*
X113085413Y-97347851D01*
X113090865Y-97454190D01*
X113072868Y-97519085D01*
X113013426Y-97607428D01*
X112681862Y-97795018D01*
X113831432Y-96925773D02*
X114159714Y-97506011D01*
X113436614Y-96711453D02*
X113581118Y-97450379D01*
X114119910Y-97145546D01*
X114537646Y-96143231D02*
X114123191Y-96377719D01*
X114316233Y-96815622D01*
X114334230Y-96750728D01*
X114393672Y-96662385D01*
X114600900Y-96545142D01*
X114707240Y-96539690D01*
X114772134Y-96557686D01*
X114860477Y-96617129D01*
X114977721Y-96824356D01*
X114983173Y-96930696D01*
X114965176Y-96995590D01*
X114905733Y-97083933D01*
X114698506Y-97201177D01*
X114592166Y-97206629D01*
X114527272Y-97188632D01*
X111607801Y-92826839D02*
X111140596Y-92481024D01*
X111065902Y-93008156D02*
X110748598Y-92059832D01*
X111109864Y-91938954D01*
X111215290Y-91953893D01*
X111275558Y-91983941D01*
X111350936Y-92059148D01*
X111396265Y-92194623D01*
X111381326Y-92300049D01*
X111351278Y-92360317D01*
X111276071Y-92435695D01*
X110914805Y-92556573D01*
X112209114Y-91922647D02*
X112420650Y-92554863D01*
X111862445Y-91636930D02*
X111863299Y-92389853D01*
X112450357Y-92193426D01*
X113006511Y-91304345D02*
X112825878Y-91364784D01*
X112750671Y-91440161D01*
X112720623Y-91500429D01*
X112675635Y-91666124D01*
X112690916Y-91861867D01*
X112811794Y-92223133D01*
X112887172Y-92298339D01*
X112947440Y-92328388D01*
X113052866Y-92343327D01*
X113233499Y-92282888D01*
X113308706Y-92207510D01*
X113338754Y-92147242D01*
X113353693Y-92041816D01*
X113278145Y-91816024D01*
X113202767Y-91740818D01*
X113142499Y-91710769D01*
X113037072Y-91695830D01*
X112856439Y-91756269D01*
X112781233Y-91831647D01*
X112751184Y-91891915D01*
X112736245Y-91997341D01*
X110808451Y-87474733D02*
X110415814Y-87046125D01*
X110241911Y-87549319D02*
X110111385Y-86557874D01*
X110489078Y-86508150D01*
X110589717Y-86542931D01*
X110643144Y-86583927D01*
X110702787Y-86672135D01*
X110721433Y-86813770D01*
X110686653Y-86914409D01*
X110645656Y-86967836D01*
X110557449Y-87027478D01*
X110179755Y-87077203D01*
X111571243Y-86701890D02*
X111658261Y-87362853D01*
X111285461Y-86355275D02*
X111142635Y-87094527D01*
X111756387Y-87013725D01*
X111952639Y-86315469D02*
X112613603Y-86228451D01*
X112319224Y-87275836D01*
X111045017Y-82068436D02*
X110741376Y-81572784D01*
X110474654Y-82033551D02*
X110535703Y-81035417D01*
X110915945Y-81058673D01*
X111008098Y-81112017D01*
X111052721Y-81162455D01*
X111094437Y-81260422D01*
X111085716Y-81403013D01*
X111032372Y-81495166D01*
X110981935Y-81539790D01*
X110883967Y-81581506D01*
X110503725Y-81558249D01*
X111941260Y-81455340D02*
X111900561Y-82120764D01*
X111726866Y-81060563D02*
X111445609Y-81758981D01*
X112063502Y-81796773D01*
X112600869Y-81591100D02*
X112508716Y-81537755D01*
X112464093Y-81487318D01*
X112422377Y-81389351D01*
X112425284Y-81341820D01*
X112478628Y-81249667D01*
X112529066Y-81205044D01*
X112627033Y-81163328D01*
X112817154Y-81174956D01*
X112909307Y-81228300D01*
X112953931Y-81278738D01*
X112995647Y-81376705D01*
X112992740Y-81424235D01*
X112939395Y-81516389D01*
X112888958Y-81561012D01*
X112790990Y-81602728D01*
X112600869Y-81591100D01*
X112502902Y-81632816D01*
X112452465Y-81677439D01*
X112399120Y-81769592D01*
X112387492Y-81959713D01*
X112429208Y-82057681D01*
X112473831Y-82108118D01*
X112565985Y-82161463D01*
X112756105Y-82173091D01*
X112854073Y-82131375D01*
X112904510Y-82086752D01*
X112957855Y-81994598D01*
X112969483Y-81804477D01*
X112927767Y-81706510D01*
X112883144Y-81656072D01*
X112790990Y-81602728D01*
X111327317Y-80601747D02*
X111123829Y-80057265D01*
X110774090Y-80458673D02*
X111024470Y-79490526D01*
X111393288Y-79585908D01*
X111473569Y-79655856D01*
X111507749Y-79713882D01*
X111530005Y-79818009D01*
X111494237Y-79956316D01*
X111424289Y-80036597D01*
X111366264Y-80070777D01*
X111262136Y-80093033D01*
X110893318Y-79997651D01*
X112324078Y-80170927D02*
X112157158Y-80816359D01*
X112188949Y-79742495D02*
X111779595Y-80374414D01*
X112378924Y-80529412D01*
X112710385Y-80959433D02*
X112894794Y-81007125D01*
X112998921Y-80984868D01*
X113056946Y-80950689D01*
X113184919Y-80836228D01*
X113278713Y-80663741D01*
X113374096Y-80294923D01*
X113351839Y-80190796D01*
X113317660Y-80132771D01*
X113237378Y-80062823D01*
X113052969Y-80015131D01*
X112948842Y-80037388D01*
X112890817Y-80071567D01*
X112820869Y-80151849D01*
X112761255Y-80382360D01*
X112783511Y-80486488D01*
X112817691Y-80544513D01*
X112897972Y-80614461D01*
X113082381Y-80662152D01*
X113186509Y-80639896D01*
X113244534Y-80605716D01*
X113314482Y-80525435D01*
X112865777Y-75420732D02*
X112769921Y-74847426D01*
X112350014Y-75174725D02*
X112780525Y-74272140D01*
X113124367Y-74436144D01*
X113189827Y-74520126D01*
X113212307Y-74583606D01*
X113214286Y-74690067D01*
X113152784Y-74819008D01*
X113068803Y-74884468D01*
X113005322Y-74906948D01*
X112898861Y-74908927D01*
X112555019Y-74744923D01*
X114112913Y-74907657D02*
X113683110Y-74702651D01*
X113435125Y-75111953D01*
X113498606Y-75089473D01*
X113605067Y-75087494D01*
X113819968Y-75189997D01*
X113885428Y-75273978D01*
X113907908Y-75337459D01*
X113909887Y-75443920D01*
X113807384Y-75658821D01*
X113723403Y-75724281D01*
X113659922Y-75746761D01*
X113553461Y-75748740D01*
X113338560Y-75646238D01*
X113273100Y-75562256D01*
X113250620Y-75498775D01*
X114714636Y-75194664D02*
X114800597Y-75235665D01*
X114866057Y-75319646D01*
X114888537Y-75383127D01*
X114890516Y-75489588D01*
X114851494Y-75682010D01*
X114748991Y-75896911D01*
X114624009Y-76048331D01*
X114540028Y-76113791D01*
X114476547Y-76136271D01*
X114370086Y-76138250D01*
X114284125Y-76097249D01*
X114218665Y-76013268D01*
X114196186Y-75949787D01*
X114194206Y-75843326D01*
X114233228Y-75650905D01*
X114335731Y-75436003D01*
X114460713Y-75284583D01*
X114544695Y-75219123D01*
X114608175Y-75196643D01*
X114714636Y-75194664D01*
X115364556Y-70628457D02*
X115379853Y-70047394D01*
X114905209Y-70288558D02*
X115500032Y-69484701D01*
X115806263Y-69711301D01*
X115854496Y-69806229D01*
X115864450Y-69872833D01*
X115846079Y-69977716D01*
X115761104Y-70092552D01*
X115666176Y-70140785D01*
X115599572Y-70150739D01*
X115494689Y-70132368D01*
X115188458Y-69905769D01*
X116686678Y-70362773D02*
X116303889Y-70079524D01*
X115982361Y-70433988D01*
X116048965Y-70424034D01*
X116153847Y-70442405D01*
X116345242Y-70584030D01*
X116393475Y-70678958D01*
X116403429Y-70745562D01*
X116385058Y-70850445D01*
X116243433Y-71041839D01*
X116148505Y-71090072D01*
X116081901Y-71100026D01*
X115977018Y-71081655D01*
X115785624Y-70940031D01*
X115737391Y-70845102D01*
X115727437Y-70778498D01*
X116895712Y-71761453D02*
X116436365Y-71421554D01*
X116666038Y-71591503D02*
X117260861Y-70787647D01*
X117099329Y-70845833D01*
X116966121Y-70865741D01*
X116861238Y-70847371D01*
X118731833Y-66401021D02*
X118857721Y-65833552D01*
X118345782Y-65979719D02*
X119083059Y-65304129D01*
X119340427Y-65584997D01*
X119369660Y-65687385D01*
X119366723Y-65754664D01*
X119328677Y-65854114D01*
X119223352Y-65950627D01*
X119120964Y-65979861D01*
X119053684Y-65976923D01*
X118954234Y-65938877D01*
X118696866Y-65658010D01*
X120080359Y-66392491D02*
X119758649Y-66041406D01*
X119375394Y-66328008D01*
X119442673Y-66330945D01*
X119542124Y-66368991D01*
X119702978Y-66544533D01*
X119732212Y-66646921D01*
X119729274Y-66714201D01*
X119691229Y-66813651D01*
X119515686Y-66974506D01*
X119413298Y-67003739D01*
X119346019Y-67000802D01*
X119246569Y-66962756D01*
X119085714Y-66787214D01*
X119056480Y-66684826D01*
X119059418Y-66617546D01*
X120299681Y-66772809D02*
X120366960Y-66775746D01*
X120466410Y-66813792D01*
X120627265Y-66989334D01*
X120656499Y-67091722D01*
X120653561Y-67159002D01*
X120615515Y-67258452D01*
X120545298Y-67322794D01*
X120407802Y-67384198D01*
X119600449Y-67348949D01*
X120018672Y-67805358D01*
X112308807Y-76806607D02*
X112105319Y-76262125D01*
X111755580Y-76663533D02*
X112005960Y-75695386D01*
X112374778Y-75790768D01*
X112455059Y-75860716D01*
X112489239Y-75918742D01*
X112511495Y-76022869D01*
X112475727Y-76161176D01*
X112405779Y-76241457D01*
X112347754Y-76275637D01*
X112243626Y-76297893D01*
X111874808Y-76202511D01*
X113435130Y-76064994D02*
X112974107Y-75945766D01*
X112808776Y-76394865D01*
X112866801Y-76360686D01*
X112970929Y-76338429D01*
X113201440Y-76398044D01*
X113281722Y-76467992D01*
X113315901Y-76526017D01*
X113338158Y-76630144D01*
X113278544Y-76860656D01*
X113208596Y-76940937D01*
X113150570Y-76975117D01*
X113046443Y-76997373D01*
X112815932Y-76937759D01*
X112735650Y-76867811D01*
X112701471Y-76809786D01*
X113803948Y-76160377D02*
X114403277Y-76315374D01*
X113985179Y-76600732D01*
X114123486Y-76636501D01*
X114203767Y-76706449D01*
X114237947Y-76764474D01*
X114260203Y-76868601D01*
X114200589Y-77099113D01*
X114130641Y-77179394D01*
X114072616Y-77213574D01*
X113968488Y-77235830D01*
X113691875Y-77164293D01*
X113611593Y-77094345D01*
X113577414Y-77036320D01*
X114553380Y-71882597D02*
X114457524Y-71309291D01*
X114037617Y-71636590D02*
X114468128Y-70734005D01*
X114811970Y-70898009D01*
X114877430Y-70981991D01*
X114899910Y-71045471D01*
X114901889Y-71151932D01*
X114840387Y-71280873D01*
X114756406Y-71346333D01*
X114692925Y-71368813D01*
X114586464Y-71370792D01*
X114242622Y-71206788D01*
X115800516Y-71369522D02*
X115370713Y-71164516D01*
X115122728Y-71573818D01*
X115186209Y-71551338D01*
X115292670Y-71549359D01*
X115507571Y-71651862D01*
X115573031Y-71735843D01*
X115595511Y-71799324D01*
X115597490Y-71905785D01*
X115494987Y-72120686D01*
X115411006Y-72186146D01*
X115347525Y-72208626D01*
X115241064Y-72210605D01*
X115026163Y-72108103D01*
X114960703Y-72024121D01*
X114938223Y-71960640D01*
X116473637Y-72059893D02*
X116186630Y-72661617D01*
X116422740Y-71613549D02*
X115900331Y-72155750D01*
X116459074Y-72422257D01*
X117696262Y-67477338D02*
X117711559Y-66896275D01*
X117236915Y-67137439D02*
X117831738Y-66333582D01*
X118137969Y-66560182D01*
X118186202Y-66655110D01*
X118196156Y-66721714D01*
X118177785Y-66826597D01*
X118092810Y-66941433D01*
X117997882Y-66989666D01*
X117931278Y-66999620D01*
X117826395Y-66981249D01*
X117520164Y-66754650D01*
X119018384Y-67211654D02*
X118635595Y-66928405D01*
X118314067Y-67282869D01*
X118380671Y-67272915D01*
X118485553Y-67291286D01*
X118676948Y-67432911D01*
X118725181Y-67527839D01*
X118735135Y-67594443D01*
X118716764Y-67699326D01*
X118575139Y-67890720D01*
X118480211Y-67938953D01*
X118413607Y-67948907D01*
X118308724Y-67930536D01*
X118117330Y-67788912D01*
X118069097Y-67693983D01*
X118059143Y-67627379D01*
X119783962Y-67778152D02*
X119401173Y-67494903D01*
X119079645Y-67849367D01*
X119146249Y-67839413D01*
X119251131Y-67857784D01*
X119442526Y-67999408D01*
X119490759Y-68094337D01*
X119500713Y-68160941D01*
X119482342Y-68265824D01*
X119340717Y-68457218D01*
X119245789Y-68505451D01*
X119179185Y-68515405D01*
X119074302Y-68497034D01*
X118882908Y-68355410D01*
X118834675Y-68260481D01*
X118824721Y-68193877D01*
X121621960Y-63752707D02*
X121747848Y-63185238D01*
X121235909Y-63331405D02*
X121973186Y-62655815D01*
X122230554Y-62936683D01*
X122259787Y-63039071D01*
X122256850Y-63106350D01*
X122218804Y-63205800D01*
X122113479Y-63302313D01*
X122011091Y-63331547D01*
X121943811Y-63328609D01*
X121844361Y-63290563D01*
X121586993Y-63009696D01*
X122970486Y-63744177D02*
X122648776Y-63393092D01*
X122265521Y-63679694D01*
X122332800Y-63682631D01*
X122432251Y-63720677D01*
X122593105Y-63896219D01*
X122622339Y-63998607D01*
X122619401Y-64065887D01*
X122581356Y-64165337D01*
X122405813Y-64326192D01*
X122303425Y-64355425D01*
X122236146Y-64352488D01*
X122136696Y-64314442D01*
X121975841Y-64138900D01*
X121946607Y-64036512D01*
X121949545Y-63969232D01*
X123581734Y-64411237D02*
X123453050Y-64270804D01*
X123353600Y-64232758D01*
X123286321Y-64229820D01*
X123116653Y-64256116D01*
X122944049Y-64349692D01*
X122663181Y-64607059D01*
X122625135Y-64706510D01*
X122622198Y-64773789D01*
X122651431Y-64876177D01*
X122780115Y-65016611D01*
X122879565Y-65054657D01*
X122946845Y-65057594D01*
X123049233Y-65028361D01*
X123224775Y-64867506D01*
X123262821Y-64768055D01*
X123265758Y-64700776D01*
X123236525Y-64598388D01*
X123107841Y-64457954D01*
X123008390Y-64419908D01*
X122941111Y-64416971D01*
X122838723Y-64446204D01*
D17*
X132602985Y-111033064D02*
X132991078Y-111148023D01*
X133043499Y-111138719D01*
X133073090Y-111122652D01*
X133109443Y-111083756D01*
X133136493Y-110992440D01*
X133127188Y-110940019D01*
X133111121Y-110910428D01*
X133072225Y-110874075D01*
X132684132Y-110759116D01*
X132790650Y-110567179D02*
X132774583Y-110537588D01*
X132765279Y-110485167D01*
X132799090Y-110371022D01*
X132835444Y-110332126D01*
X132865035Y-110316060D01*
X132917456Y-110306755D01*
X132963114Y-110320280D01*
X133024839Y-110363396D01*
X133217640Y-110718491D01*
X133305549Y-110421714D01*
X133440795Y-109965133D02*
X133359647Y-110239081D01*
X133400221Y-110102107D02*
X132920811Y-109960100D01*
X132975774Y-110026044D01*
X133007907Y-110085227D01*
X133017212Y-110137647D01*
X127943982Y-109352528D02*
X128303010Y-109539427D01*
X128356243Y-109540295D01*
X128388356Y-109530170D01*
X128431464Y-109498925D01*
X128475440Y-109414448D01*
X128476308Y-109361216D01*
X128466183Y-109329102D01*
X128434938Y-109285995D01*
X128075910Y-109099097D01*
X128217095Y-108931011D02*
X128206970Y-108898898D01*
X128207838Y-108845665D01*
X128262809Y-108740068D01*
X128305916Y-108708824D01*
X128338029Y-108698699D01*
X128391262Y-108699567D01*
X128433500Y-108721555D01*
X128485864Y-108775657D01*
X128607368Y-109161016D01*
X128750290Y-108886465D01*
X128436975Y-108508625D02*
X128426850Y-108476511D01*
X128427719Y-108423279D01*
X128482689Y-108317682D01*
X128525796Y-108286438D01*
X128557909Y-108276312D01*
X128611142Y-108277181D01*
X128653381Y-108299169D01*
X128705745Y-108353271D01*
X128827248Y-108738630D01*
X128970170Y-108464079D01*
X123691239Y-106813889D02*
X124008009Y-107065859D01*
X124060098Y-107076869D01*
X124093553Y-107073057D01*
X124141830Y-107050612D01*
X124201117Y-106976078D01*
X124212127Y-106923989D01*
X124208315Y-106890534D01*
X124185870Y-106842257D01*
X123869100Y-106590286D01*
X124039763Y-106452228D02*
X124035951Y-106418773D01*
X124046961Y-106366684D01*
X124121070Y-106273516D01*
X124169347Y-106251071D01*
X124202803Y-106247259D01*
X124254891Y-106258269D01*
X124292159Y-106287913D01*
X124333237Y-106351012D01*
X124378978Y-106752476D01*
X124571661Y-106510240D01*
X124284110Y-106068548D02*
X124476793Y-105826312D01*
X124522109Y-106075321D01*
X124566574Y-106019420D01*
X124614851Y-105996975D01*
X124648306Y-105993163D01*
X124700395Y-106004173D01*
X124793563Y-106078282D01*
X124816008Y-106126559D01*
X124819820Y-106160014D01*
X124808810Y-106212103D01*
X124719879Y-106323904D01*
X124671602Y-106346350D01*
X124638147Y-106350161D01*
X120001027Y-103510430D02*
X120263899Y-103818214D01*
X120312930Y-103838960D01*
X120346498Y-103841602D01*
X120398171Y-103828781D01*
X120470590Y-103766929D01*
X120491337Y-103717898D01*
X120493979Y-103684330D01*
X120481158Y-103632657D01*
X120218286Y-103324874D01*
X120412156Y-103221916D02*
X120414798Y-103188348D01*
X120435545Y-103139317D01*
X120526069Y-103062002D01*
X120577742Y-103049181D01*
X120611310Y-103051823D01*
X120660341Y-103072569D01*
X120691267Y-103108779D01*
X120719551Y-103178557D01*
X120687849Y-103581372D01*
X120923213Y-103380353D01*
X121032618Y-102848549D02*
X121249101Y-103102018D01*
X120818389Y-102781025D02*
X120959811Y-103129914D01*
X121195174Y-102928894D01*
D10*
X129161904Y-120252380D02*
X129161904Y-121061904D01*
X129209523Y-121157142D01*
X129257142Y-121204761D01*
X129352380Y-121252380D01*
X129542857Y-121252380D01*
X129638095Y-121204761D01*
X129685714Y-121157142D01*
X129733333Y-121061904D01*
X129733333Y-120252380D01*
X130161904Y-120347619D02*
X130209523Y-120300000D01*
X130304761Y-120252380D01*
X130542857Y-120252380D01*
X130638095Y-120300000D01*
X130685714Y-120347619D01*
X130733333Y-120442857D01*
X130733333Y-120538095D01*
X130685714Y-120680952D01*
X130114285Y-121252380D01*
X130733333Y-121252380D01*
X131638095Y-120252380D02*
X131161904Y-120252380D01*
X131114285Y-120728571D01*
X131161904Y-120680952D01*
X131257142Y-120633333D01*
X131495238Y-120633333D01*
X131590476Y-120680952D01*
X131638095Y-120728571D01*
X131685714Y-120823809D01*
X131685714Y-121061904D01*
X131638095Y-121157142D01*
X131590476Y-121204761D01*
X131495238Y-121252380D01*
X131257142Y-121252380D01*
X131161904Y-121204761D01*
X131114285Y-121157142D01*
D17*
X117008944Y-99563539D02*
X117208258Y-99915826D01*
X117252429Y-99945547D01*
X117284877Y-99954546D01*
X117338046Y-99951820D01*
X117420937Y-99904922D01*
X117450659Y-99860751D01*
X117459657Y-99828304D01*
X117456931Y-99775134D01*
X117257617Y-99422847D01*
X117467570Y-99358773D02*
X117476569Y-99326326D01*
X117506290Y-99282155D01*
X117609904Y-99223533D01*
X117663073Y-99220807D01*
X117695521Y-99229805D01*
X117739692Y-99259526D01*
X117763141Y-99300972D01*
X117777591Y-99374864D01*
X117669610Y-99764230D01*
X117939006Y-99611813D01*
X118065804Y-98965597D02*
X117982913Y-99012494D01*
X117953192Y-99056666D01*
X117944194Y-99089113D01*
X117937921Y-99174730D01*
X117964096Y-99269345D01*
X118057891Y-99435127D01*
X118102062Y-99464848D01*
X118134509Y-99473847D01*
X118187679Y-99471121D01*
X118270570Y-99424223D01*
X118300292Y-99380052D01*
X118309290Y-99347605D01*
X118306564Y-99294435D01*
X118247942Y-99190821D01*
X118203771Y-99161100D01*
X118171323Y-99152101D01*
X118118154Y-99154827D01*
X118035263Y-99201725D01*
X118005541Y-99245896D01*
X117996543Y-99278343D01*
X117999269Y-99331513D01*
X114824936Y-95118247D02*
X114953369Y-95502092D01*
X114991058Y-95539696D01*
X115021192Y-95554720D01*
X115073905Y-95562189D01*
X115164221Y-95531970D01*
X115201825Y-95494281D01*
X115216849Y-95464147D01*
X115224318Y-95411434D01*
X115095886Y-95027589D01*
X115314208Y-95004753D02*
X115329232Y-94974619D01*
X115366835Y-94936930D01*
X115479731Y-94899156D01*
X115532444Y-94906625D01*
X115562578Y-94921649D01*
X115600267Y-94959253D01*
X115615377Y-95004411D01*
X115615462Y-95079703D01*
X115435171Y-95441312D01*
X115728700Y-95343098D01*
X115728101Y-94816052D02*
X116044209Y-94710284D01*
X115999649Y-95252440D01*
X113529256Y-90337900D02*
X113582088Y-90739199D01*
X113611909Y-90783303D01*
X113638623Y-90803801D01*
X113688942Y-90821192D01*
X113783365Y-90808761D01*
X113827469Y-90778939D01*
X113847967Y-90752226D01*
X113865358Y-90701906D01*
X113812526Y-90300607D01*
X114031194Y-90319849D02*
X114051692Y-90293135D01*
X114095796Y-90263314D01*
X114213825Y-90247775D01*
X114264144Y-90265165D01*
X114290858Y-90285664D01*
X114320679Y-90329767D01*
X114326895Y-90376979D01*
X114312612Y-90450904D01*
X114066635Y-90771467D01*
X114373511Y-90731067D01*
X114619488Y-90410503D02*
X114569168Y-90393113D01*
X114542455Y-90372615D01*
X114512633Y-90328511D01*
X114509526Y-90304905D01*
X114526916Y-90254586D01*
X114547414Y-90227872D01*
X114591518Y-90198051D01*
X114685941Y-90185620D01*
X114736261Y-90203010D01*
X114762974Y-90223508D01*
X114792796Y-90267612D01*
X114795903Y-90291218D01*
X114778513Y-90341537D01*
X114758015Y-90368251D01*
X114713911Y-90398072D01*
X114619488Y-90410503D01*
X114575384Y-90440325D01*
X114554886Y-90467038D01*
X114537496Y-90517358D01*
X114549927Y-90611781D01*
X114579748Y-90655885D01*
X114606462Y-90676383D01*
X114656781Y-90693773D01*
X114751204Y-90681342D01*
X114795308Y-90651521D01*
X114815806Y-90624807D01*
X114833197Y-90574488D01*
X114820766Y-90480065D01*
X114790944Y-90435961D01*
X114764231Y-90415463D01*
X114713911Y-90398072D01*
X113169514Y-85398154D02*
X113144804Y-85802161D01*
X113165662Y-85851144D01*
X113187974Y-85876363D01*
X113234050Y-85903035D01*
X113329111Y-85908849D01*
X113378095Y-85887991D01*
X113403313Y-85865680D01*
X113429985Y-85819603D01*
X113454696Y-85415596D01*
X113665675Y-85476208D02*
X113690893Y-85453897D01*
X113739877Y-85433039D01*
X113858703Y-85440306D01*
X113904779Y-85466978D01*
X113927091Y-85492197D01*
X113947949Y-85541181D01*
X113945042Y-85588711D01*
X113916916Y-85658553D01*
X113614292Y-85926292D01*
X113923239Y-85945188D01*
X114160890Y-85959723D02*
X114255950Y-85965537D01*
X114304934Y-85944679D01*
X114330153Y-85922368D01*
X114382044Y-85853979D01*
X114411623Y-85760373D01*
X114423251Y-85570252D01*
X114402393Y-85521268D01*
X114380081Y-85496049D01*
X114334005Y-85469377D01*
X114238944Y-85463563D01*
X114189961Y-85484421D01*
X114164742Y-85506733D01*
X114138070Y-85552809D01*
X114130802Y-85671635D01*
X114151660Y-85720619D01*
X114173972Y-85745837D01*
X114220048Y-85772509D01*
X114315109Y-85778324D01*
X114364093Y-85757465D01*
X114389311Y-85735154D01*
X114415983Y-85689077D01*
D10*
X107889796Y-103546022D02*
X107327454Y-104128345D01*
X107295550Y-104229932D01*
X107296726Y-104297266D01*
X107332155Y-104397678D01*
X107469172Y-104529994D01*
X107570760Y-104561897D01*
X107638093Y-104560722D01*
X107738505Y-104525292D01*
X108300848Y-103942970D01*
X108574882Y-104207602D02*
X109020188Y-104637628D01*
X108515776Y-104680110D01*
X108618539Y-104779346D01*
X108653968Y-104879759D01*
X108655144Y-104947092D01*
X108623240Y-105048679D01*
X108457845Y-105219951D01*
X108357433Y-105255380D01*
X108290100Y-105256556D01*
X108188512Y-105224652D01*
X107982986Y-105026178D01*
X107947557Y-104925766D01*
X107946382Y-104858433D01*
X109465493Y-105067655D02*
X109534002Y-105133813D01*
X109569431Y-105234225D01*
X109570607Y-105301558D01*
X109538703Y-105403146D01*
X109440641Y-105573242D01*
X109275247Y-105744513D01*
X109108676Y-105848451D01*
X109008264Y-105883881D01*
X108940931Y-105885056D01*
X108839343Y-105853152D01*
X108770835Y-105786995D01*
X108735405Y-105686582D01*
X108734230Y-105619249D01*
X108766134Y-105517662D01*
X108864195Y-105347565D01*
X109029590Y-105176294D01*
X109196160Y-105072356D01*
X109296572Y-105036926D01*
X109363906Y-105035751D01*
X109465493Y-105067655D01*
D17*
X113758931Y-80480523D02*
X113657587Y-80872393D01*
X113668715Y-80924456D01*
X113685805Y-80953469D01*
X113725946Y-80988443D01*
X113818151Y-81012289D01*
X113870214Y-81001160D01*
X113899227Y-80984071D01*
X113934201Y-80943930D01*
X114035545Y-80552060D01*
X114219954Y-80599752D02*
X114519619Y-80677250D01*
X114310570Y-80819930D01*
X114379723Y-80837814D01*
X114419864Y-80872788D01*
X114436953Y-80901800D01*
X114448082Y-80953864D01*
X114418275Y-81069120D01*
X114383301Y-81109261D01*
X114354288Y-81126350D01*
X114302224Y-81137479D01*
X114163918Y-81101710D01*
X114123777Y-81066736D01*
X114106687Y-81037723D01*
X114855452Y-81280553D02*
X114578838Y-81209016D01*
X114717145Y-81244784D02*
X114842335Y-80760710D01*
X114778348Y-80817941D01*
X114720323Y-80852120D01*
X114668259Y-80863249D01*
X115275846Y-75765708D02*
X115101592Y-76131040D01*
X115102581Y-76184271D01*
X115113821Y-76216011D01*
X115146551Y-76258002D01*
X115232512Y-76299003D01*
X115285742Y-76298013D01*
X115317483Y-76286773D01*
X115359473Y-76254043D01*
X115533728Y-75888711D01*
X115705649Y-75970713D02*
X115985020Y-76103967D01*
X115752587Y-76204136D01*
X115817058Y-76234887D01*
X115849788Y-76276878D01*
X115861028Y-76308618D01*
X115862017Y-76361848D01*
X115810766Y-76469299D01*
X115768775Y-76502029D01*
X115737035Y-76513269D01*
X115683804Y-76514258D01*
X115554864Y-76452757D01*
X115522134Y-76410766D01*
X115510894Y-76379026D01*
X116136441Y-76228949D02*
X116168181Y-76217709D01*
X116221412Y-76216720D01*
X116328862Y-76267971D01*
X116361592Y-76309962D01*
X116372832Y-76341702D01*
X116373822Y-76394933D01*
X116353321Y-76437913D01*
X116301080Y-76492133D01*
X115920196Y-76627011D01*
X116199567Y-76760265D01*
X117664521Y-71426959D02*
X117423759Y-71752330D01*
X117414574Y-71804771D01*
X117419551Y-71838073D01*
X117443667Y-71885537D01*
X117520225Y-71942187D01*
X117572667Y-71951373D01*
X117605968Y-71946396D01*
X117653433Y-71922279D01*
X117894194Y-71596909D01*
X118047310Y-71710208D02*
X118296123Y-71894320D01*
X118048847Y-71948298D01*
X118106265Y-71990786D01*
X118130382Y-72038250D01*
X118135359Y-72071552D01*
X118126173Y-72123993D01*
X118055361Y-72219691D01*
X118007897Y-72243807D01*
X117974595Y-72248784D01*
X117922154Y-72239599D01*
X117807317Y-72154624D01*
X117783200Y-72107160D01*
X117778223Y-72073858D01*
X118430099Y-71993457D02*
X118678912Y-72177569D01*
X118431636Y-72231547D01*
X118489054Y-72274035D01*
X118513171Y-72321499D01*
X118518148Y-72354801D01*
X118508962Y-72407242D01*
X118438150Y-72502940D01*
X118390686Y-72527056D01*
X118357384Y-72532033D01*
X118304943Y-72522848D01*
X118190106Y-72437873D01*
X118165989Y-72390409D01*
X118161012Y-72357107D01*
X120837181Y-67623706D02*
X120538759Y-67897159D01*
X120519736Y-67946884D01*
X120518267Y-67980524D01*
X120532884Y-68031718D01*
X120597226Y-68101935D01*
X120646951Y-68120958D01*
X120680591Y-68122426D01*
X120731785Y-68107810D01*
X121030206Y-67834356D01*
X121158890Y-67974790D02*
X121368001Y-68202995D01*
X121114969Y-68208799D01*
X121163226Y-68261462D01*
X121177842Y-68312656D01*
X121176374Y-68346296D01*
X121157351Y-68396021D01*
X121069580Y-68476448D01*
X121018386Y-68491065D01*
X120984746Y-68489596D01*
X120935021Y-68470573D01*
X120838508Y-68365248D01*
X120823891Y-68314054D01*
X120825360Y-68280414D01*
X121534661Y-68631569D02*
X121288901Y-68856766D01*
X121594667Y-68415114D02*
X121250926Y-68568626D01*
X121460037Y-68796830D01*
D10*
X104604076Y-77143547D02*
X103795045Y-77171799D01*
X103701527Y-77222713D01*
X103655599Y-77271965D01*
X103611333Y-77368807D01*
X103617980Y-77559167D01*
X103668894Y-77652685D01*
X103718146Y-77698613D01*
X103814988Y-77742879D01*
X104624019Y-77714627D01*
X104637314Y-78095348D02*
X104658918Y-78714018D01*
X104266565Y-78394183D01*
X104271550Y-78536953D01*
X104227284Y-78633795D01*
X104181356Y-78683047D01*
X104087838Y-78733961D01*
X103849887Y-78742270D01*
X103753045Y-78698004D01*
X103703794Y-78652076D01*
X103652880Y-78558557D01*
X103642908Y-78273017D01*
X103687175Y-78176175D01*
X103733103Y-78126923D01*
X104690494Y-79618229D02*
X104673875Y-79142329D01*
X104196313Y-79111357D01*
X104245565Y-79157285D01*
X104296478Y-79250804D01*
X104304788Y-79488754D01*
X104260522Y-79585596D01*
X104214593Y-79634848D01*
X104121075Y-79685762D01*
X103883125Y-79694071D01*
X103786283Y-79649805D01*
X103737031Y-79603876D01*
X103686117Y-79510358D01*
X103677808Y-79272408D01*
X103722074Y-79175566D01*
X103768002Y-79126314D01*
X166157142Y-122052380D02*
X165823809Y-121576190D01*
X165585714Y-122052380D02*
X165585714Y-121052380D01*
X165966666Y-121052380D01*
X166061904Y-121100000D01*
X166109523Y-121147619D01*
X166157142Y-121242857D01*
X166157142Y-121385714D01*
X166109523Y-121480952D01*
X166061904Y-121528571D01*
X165966666Y-121576190D01*
X165585714Y-121576190D01*
X167061904Y-121052380D02*
X166585714Y-121052380D01*
X166538095Y-121528571D01*
X166585714Y-121480952D01*
X166680952Y-121433333D01*
X166919047Y-121433333D01*
X167014285Y-121480952D01*
X167061904Y-121528571D01*
X167109523Y-121623809D01*
X167109523Y-121861904D01*
X167061904Y-121957142D01*
X167014285Y-122004761D01*
X166919047Y-122052380D01*
X166680952Y-122052380D01*
X166585714Y-122004761D01*
X166538095Y-121957142D01*
X167442857Y-121052380D02*
X168109523Y-121052380D01*
X167680952Y-122052380D01*
X167157142Y-110982380D02*
X166823809Y-110506190D01*
X166585714Y-110982380D02*
X166585714Y-109982380D01*
X166966666Y-109982380D01*
X167061904Y-110030000D01*
X167109523Y-110077619D01*
X167157142Y-110172857D01*
X167157142Y-110315714D01*
X167109523Y-110410952D01*
X167061904Y-110458571D01*
X166966666Y-110506190D01*
X166585714Y-110506190D01*
X168061904Y-109982380D02*
X167585714Y-109982380D01*
X167538095Y-110458571D01*
X167585714Y-110410952D01*
X167680952Y-110363333D01*
X167919047Y-110363333D01*
X168014285Y-110410952D01*
X168061904Y-110458571D01*
X168109523Y-110553809D01*
X168109523Y-110791904D01*
X168061904Y-110887142D01*
X168014285Y-110934761D01*
X167919047Y-110982380D01*
X167680952Y-110982380D01*
X167585714Y-110934761D01*
X167538095Y-110887142D01*
X168680952Y-110410952D02*
X168585714Y-110363333D01*
X168538095Y-110315714D01*
X168490476Y-110220476D01*
X168490476Y-110172857D01*
X168538095Y-110077619D01*
X168585714Y-110030000D01*
X168680952Y-109982380D01*
X168871428Y-109982380D01*
X168966666Y-110030000D01*
X169014285Y-110077619D01*
X169061904Y-110172857D01*
X169061904Y-110220476D01*
X169014285Y-110315714D01*
X168966666Y-110363333D01*
X168871428Y-110410952D01*
X168680952Y-110410952D01*
X168585714Y-110458571D01*
X168538095Y-110506190D01*
X168490476Y-110601428D01*
X168490476Y-110791904D01*
X168538095Y-110887142D01*
X168585714Y-110934761D01*
X168680952Y-110982380D01*
X168871428Y-110982380D01*
X168966666Y-110934761D01*
X169014285Y-110887142D01*
X169061904Y-110791904D01*
X169061904Y-110601428D01*
X169014285Y-110506190D01*
X168966666Y-110458571D01*
X168871428Y-110410952D01*
X168857142Y-122052380D02*
X168523809Y-121576190D01*
X168285714Y-122052380D02*
X168285714Y-121052380D01*
X168666666Y-121052380D01*
X168761904Y-121100000D01*
X168809523Y-121147619D01*
X168857142Y-121242857D01*
X168857142Y-121385714D01*
X168809523Y-121480952D01*
X168761904Y-121528571D01*
X168666666Y-121576190D01*
X168285714Y-121576190D01*
X169761904Y-121052380D02*
X169285714Y-121052380D01*
X169238095Y-121528571D01*
X169285714Y-121480952D01*
X169380952Y-121433333D01*
X169619047Y-121433333D01*
X169714285Y-121480952D01*
X169761904Y-121528571D01*
X169809523Y-121623809D01*
X169809523Y-121861904D01*
X169761904Y-121957142D01*
X169714285Y-122004761D01*
X169619047Y-122052380D01*
X169380952Y-122052380D01*
X169285714Y-122004761D01*
X169238095Y-121957142D01*
X170285714Y-122052380D02*
X170476190Y-122052380D01*
X170571428Y-122004761D01*
X170619047Y-121957142D01*
X170714285Y-121814285D01*
X170761904Y-121623809D01*
X170761904Y-121242857D01*
X170714285Y-121147619D01*
X170666666Y-121100000D01*
X170571428Y-121052380D01*
X170380952Y-121052380D01*
X170285714Y-121100000D01*
X170238095Y-121147619D01*
X170190476Y-121242857D01*
X170190476Y-121480952D01*
X170238095Y-121576190D01*
X170285714Y-121623809D01*
X170380952Y-121671428D01*
X170571428Y-121671428D01*
X170666666Y-121623809D01*
X170714285Y-121576190D01*
X170761904Y-121480952D01*
X169957142Y-110982380D02*
X169623809Y-110506190D01*
X169385714Y-110982380D02*
X169385714Y-109982380D01*
X169766666Y-109982380D01*
X169861904Y-110030000D01*
X169909523Y-110077619D01*
X169957142Y-110172857D01*
X169957142Y-110315714D01*
X169909523Y-110410952D01*
X169861904Y-110458571D01*
X169766666Y-110506190D01*
X169385714Y-110506190D01*
X170814285Y-109982380D02*
X170623809Y-109982380D01*
X170528571Y-110030000D01*
X170480952Y-110077619D01*
X170385714Y-110220476D01*
X170338095Y-110410952D01*
X170338095Y-110791904D01*
X170385714Y-110887142D01*
X170433333Y-110934761D01*
X170528571Y-110982380D01*
X170719047Y-110982380D01*
X170814285Y-110934761D01*
X170861904Y-110887142D01*
X170909523Y-110791904D01*
X170909523Y-110553809D01*
X170861904Y-110458571D01*
X170814285Y-110410952D01*
X170719047Y-110363333D01*
X170528571Y-110363333D01*
X170433333Y-110410952D01*
X170385714Y-110458571D01*
X170338095Y-110553809D01*
X171528571Y-109982380D02*
X171623809Y-109982380D01*
X171719047Y-110030000D01*
X171766666Y-110077619D01*
X171814285Y-110172857D01*
X171861904Y-110363333D01*
X171861904Y-110601428D01*
X171814285Y-110791904D01*
X171766666Y-110887142D01*
X171719047Y-110934761D01*
X171623809Y-110982380D01*
X171528571Y-110982380D01*
X171433333Y-110934761D01*
X171385714Y-110887142D01*
X171338095Y-110791904D01*
X171290476Y-110601428D01*
X171290476Y-110363333D01*
X171338095Y-110172857D01*
X171385714Y-110077619D01*
X171433333Y-110030000D01*
X171528571Y-109982380D01*
X171557142Y-121982380D02*
X171223809Y-121506190D01*
X170985714Y-121982380D02*
X170985714Y-120982380D01*
X171366666Y-120982380D01*
X171461904Y-121030000D01*
X171509523Y-121077619D01*
X171557142Y-121172857D01*
X171557142Y-121315714D01*
X171509523Y-121410952D01*
X171461904Y-121458571D01*
X171366666Y-121506190D01*
X170985714Y-121506190D01*
X172414285Y-120982380D02*
X172223809Y-120982380D01*
X172128571Y-121030000D01*
X172080952Y-121077619D01*
X171985714Y-121220476D01*
X171938095Y-121410952D01*
X171938095Y-121791904D01*
X171985714Y-121887142D01*
X172033333Y-121934761D01*
X172128571Y-121982380D01*
X172319047Y-121982380D01*
X172414285Y-121934761D01*
X172461904Y-121887142D01*
X172509523Y-121791904D01*
X172509523Y-121553809D01*
X172461904Y-121458571D01*
X172414285Y-121410952D01*
X172319047Y-121363333D01*
X172128571Y-121363333D01*
X172033333Y-121410952D01*
X171985714Y-121458571D01*
X171938095Y-121553809D01*
X173461904Y-121982380D02*
X172890476Y-121982380D01*
X173176190Y-121982380D02*
X173176190Y-120982380D01*
X173080952Y-121125238D01*
X172985714Y-121220476D01*
X172890476Y-121268095D01*
X172757142Y-110982380D02*
X172423809Y-110506190D01*
X172185714Y-110982380D02*
X172185714Y-109982380D01*
X172566666Y-109982380D01*
X172661904Y-110030000D01*
X172709523Y-110077619D01*
X172757142Y-110172857D01*
X172757142Y-110315714D01*
X172709523Y-110410952D01*
X172661904Y-110458571D01*
X172566666Y-110506190D01*
X172185714Y-110506190D01*
X173614285Y-109982380D02*
X173423809Y-109982380D01*
X173328571Y-110030000D01*
X173280952Y-110077619D01*
X173185714Y-110220476D01*
X173138095Y-110410952D01*
X173138095Y-110791904D01*
X173185714Y-110887142D01*
X173233333Y-110934761D01*
X173328571Y-110982380D01*
X173519047Y-110982380D01*
X173614285Y-110934761D01*
X173661904Y-110887142D01*
X173709523Y-110791904D01*
X173709523Y-110553809D01*
X173661904Y-110458571D01*
X173614285Y-110410952D01*
X173519047Y-110363333D01*
X173328571Y-110363333D01*
X173233333Y-110410952D01*
X173185714Y-110458571D01*
X173138095Y-110553809D01*
X174090476Y-110077619D02*
X174138095Y-110030000D01*
X174233333Y-109982380D01*
X174471428Y-109982380D01*
X174566666Y-110030000D01*
X174614285Y-110077619D01*
X174661904Y-110172857D01*
X174661904Y-110268095D01*
X174614285Y-110410952D01*
X174042857Y-110982380D01*
X174661904Y-110982380D01*
X153052380Y-119142857D02*
X152576190Y-119476190D01*
X153052380Y-119714285D02*
X152052380Y-119714285D01*
X152052380Y-119333333D01*
X152100000Y-119238095D01*
X152147619Y-119190476D01*
X152242857Y-119142857D01*
X152385714Y-119142857D01*
X152480952Y-119190476D01*
X152528571Y-119238095D01*
X152576190Y-119333333D01*
X152576190Y-119714285D01*
X152052380Y-118285714D02*
X152052380Y-118476190D01*
X152100000Y-118571428D01*
X152147619Y-118619047D01*
X152290476Y-118714285D01*
X152480952Y-118761904D01*
X152861904Y-118761904D01*
X152957142Y-118714285D01*
X153004761Y-118666666D01*
X153052380Y-118571428D01*
X153052380Y-118380952D01*
X153004761Y-118285714D01*
X152957142Y-118238095D01*
X152861904Y-118190476D01*
X152623809Y-118190476D01*
X152528571Y-118238095D01*
X152480952Y-118285714D01*
X152433333Y-118380952D01*
X152433333Y-118571428D01*
X152480952Y-118666666D01*
X152528571Y-118714285D01*
X152623809Y-118761904D01*
X152052380Y-117857142D02*
X152052380Y-117238095D01*
X152433333Y-117571428D01*
X152433333Y-117428571D01*
X152480952Y-117333333D01*
X152528571Y-117285714D01*
X152623809Y-117238095D01*
X152861904Y-117238095D01*
X152957142Y-117285714D01*
X153004761Y-117333333D01*
X153052380Y-117428571D01*
X153052380Y-117714285D01*
X153004761Y-117809523D01*
X152957142Y-117857142D01*
X174257142Y-121982380D02*
X173923809Y-121506190D01*
X173685714Y-121982380D02*
X173685714Y-120982380D01*
X174066666Y-120982380D01*
X174161904Y-121030000D01*
X174209523Y-121077619D01*
X174257142Y-121172857D01*
X174257142Y-121315714D01*
X174209523Y-121410952D01*
X174161904Y-121458571D01*
X174066666Y-121506190D01*
X173685714Y-121506190D01*
X175114285Y-120982380D02*
X174923809Y-120982380D01*
X174828571Y-121030000D01*
X174780952Y-121077619D01*
X174685714Y-121220476D01*
X174638095Y-121410952D01*
X174638095Y-121791904D01*
X174685714Y-121887142D01*
X174733333Y-121934761D01*
X174828571Y-121982380D01*
X175019047Y-121982380D01*
X175114285Y-121934761D01*
X175161904Y-121887142D01*
X175209523Y-121791904D01*
X175209523Y-121553809D01*
X175161904Y-121458571D01*
X175114285Y-121410952D01*
X175019047Y-121363333D01*
X174828571Y-121363333D01*
X174733333Y-121410952D01*
X174685714Y-121458571D01*
X174638095Y-121553809D01*
X176066666Y-121315714D02*
X176066666Y-121982380D01*
X175828571Y-120934761D02*
X175590476Y-121649047D01*
X176209523Y-121649047D01*
X154257142Y-123452380D02*
X153923809Y-122976190D01*
X153685714Y-123452380D02*
X153685714Y-122452380D01*
X154066666Y-122452380D01*
X154161904Y-122500000D01*
X154209523Y-122547619D01*
X154257142Y-122642857D01*
X154257142Y-122785714D01*
X154209523Y-122880952D01*
X154161904Y-122928571D01*
X154066666Y-122976190D01*
X153685714Y-122976190D01*
X155114285Y-122452380D02*
X154923809Y-122452380D01*
X154828571Y-122500000D01*
X154780952Y-122547619D01*
X154685714Y-122690476D01*
X154638095Y-122880952D01*
X154638095Y-123261904D01*
X154685714Y-123357142D01*
X154733333Y-123404761D01*
X154828571Y-123452380D01*
X155019047Y-123452380D01*
X155114285Y-123404761D01*
X155161904Y-123357142D01*
X155209523Y-123261904D01*
X155209523Y-123023809D01*
X155161904Y-122928571D01*
X155114285Y-122880952D01*
X155019047Y-122833333D01*
X154828571Y-122833333D01*
X154733333Y-122880952D01*
X154685714Y-122928571D01*
X154638095Y-123023809D01*
X156114285Y-122452380D02*
X155638095Y-122452380D01*
X155590476Y-122928571D01*
X155638095Y-122880952D01*
X155733333Y-122833333D01*
X155971428Y-122833333D01*
X156066666Y-122880952D01*
X156114285Y-122928571D01*
X156161904Y-123023809D01*
X156161904Y-123261904D01*
X156114285Y-123357142D01*
X156066666Y-123404761D01*
X155971428Y-123452380D01*
X155733333Y-123452380D01*
X155638095Y-123404761D01*
X155590476Y-123357142D01*
X107228571Y-67628571D02*
X106895238Y-67628571D01*
X106895238Y-68152380D02*
X106895238Y-67152380D01*
X107371428Y-67152380D01*
X107752380Y-68152380D02*
X107752380Y-67152380D01*
X108228571Y-68152380D02*
X108228571Y-67152380D01*
X108466666Y-67152380D01*
X108609523Y-67200000D01*
X108704761Y-67295238D01*
X108752380Y-67390476D01*
X108800000Y-67580952D01*
X108800000Y-67723809D01*
X108752380Y-67914285D01*
X108704761Y-68009523D01*
X108609523Y-68104761D01*
X108466666Y-68152380D01*
X108228571Y-68152380D01*
X109752380Y-68152380D02*
X109180952Y-68152380D01*
X109466666Y-68152380D02*
X109466666Y-67152380D01*
X109371428Y-67295238D01*
X109276190Y-67390476D01*
X109180952Y-67438095D01*
X155628571Y-111128571D02*
X155295238Y-111128571D01*
X155295238Y-111652380D02*
X155295238Y-110652380D01*
X155771428Y-110652380D01*
X156152380Y-111652380D02*
X156152380Y-110652380D01*
X156628571Y-111652380D02*
X156628571Y-110652380D01*
X156866666Y-110652380D01*
X157009523Y-110700000D01*
X157104761Y-110795238D01*
X157152380Y-110890476D01*
X157200000Y-111080952D01*
X157200000Y-111223809D01*
X157152380Y-111414285D01*
X157104761Y-111509523D01*
X157009523Y-111604761D01*
X156866666Y-111652380D01*
X156628571Y-111652380D01*
X157580952Y-110747619D02*
X157628571Y-110700000D01*
X157723809Y-110652380D01*
X157961904Y-110652380D01*
X158057142Y-110700000D01*
X158104761Y-110747619D01*
X158152380Y-110842857D01*
X158152380Y-110938095D01*
X158104761Y-111080952D01*
X157533333Y-111652380D01*
X158152380Y-111652380D01*
X175228571Y-68628571D02*
X174895238Y-68628571D01*
X174895238Y-69152380D02*
X174895238Y-68152380D01*
X175371428Y-68152380D01*
X175752380Y-69152380D02*
X175752380Y-68152380D01*
X176228571Y-69152380D02*
X176228571Y-68152380D01*
X176466666Y-68152380D01*
X176609523Y-68200000D01*
X176704761Y-68295238D01*
X176752380Y-68390476D01*
X176800000Y-68580952D01*
X176800000Y-68723809D01*
X176752380Y-68914285D01*
X176704761Y-69009523D01*
X176609523Y-69104761D01*
X176466666Y-69152380D01*
X176228571Y-69152380D01*
X177133333Y-68152380D02*
X177752380Y-68152380D01*
X177419047Y-68533333D01*
X177561904Y-68533333D01*
X177657142Y-68580952D01*
X177704761Y-68628571D01*
X177752380Y-68723809D01*
X177752380Y-68961904D01*
X177704761Y-69057142D01*
X177657142Y-69104761D01*
X177561904Y-69152380D01*
X177276190Y-69152380D01*
X177180952Y-69104761D01*
X177133333Y-69057142D01*
M02*
