G04 #@! TF.GenerationSoftware,KiCad,Pcbnew,5.1.5-52549c5~84~ubuntu18.04.1*
G04 #@! TF.CreationDate,2020-06-06T17:16:43+02:00*
G04 #@! TF.ProjectId,roboy_3.0_40mm_magnetic_field_calibration,726f626f-795f-4332-9e30-5f34306d6d5f,rev?*
G04 #@! TF.SameCoordinates,Original*
G04 #@! TF.FileFunction,Copper,L2,Bot*
G04 #@! TF.FilePolarity,Positive*
%FSLAX46Y46*%
G04 Gerber Fmt 4.6, Leading zero omitted, Abs format (unit mm)*
G04 Created by KiCad (PCBNEW 5.1.5-52549c5~84~ubuntu18.04.1) date 2020-06-06 17:16:43*
%MOMM*%
%LPD*%
G04 APERTURE LIST*
%ADD10C,1.800000*%
%ADD11R,1.800000X1.800000*%
%ADD12C,6.000000*%
%ADD13C,0.800000*%
%ADD14C,0.254000*%
G04 APERTURE END LIST*
D10*
X155795000Y-120270000D03*
X157065000Y-117730000D03*
X158335000Y-120270000D03*
D11*
X159605000Y-117730000D03*
D12*
X174300000Y-64800000D03*
X172900000Y-95700000D03*
X105500000Y-93600000D03*
X112200000Y-64700000D03*
D13*
X139000000Y-107500000D03*
X139349998Y-109500000D03*
X143102393Y-107104984D03*
X143827579Y-109001456D03*
X147054042Y-105934453D03*
X148127767Y-107657709D03*
X152092550Y-105518136D03*
X150709740Y-104031417D03*
X155576239Y-102661357D03*
X153935156Y-101465805D03*
X156611770Y-98331892D03*
X158450824Y-99192345D03*
X160610676Y-95238572D03*
X158641228Y-94744836D03*
X161976430Y-90945322D03*
X159948957Y-90836446D03*
X162497900Y-86470353D03*
X160486903Y-86750337D03*
X160235299Y-82636657D03*
X162155925Y-81978101D03*
X159203391Y-78646565D03*
X160963071Y-77633636D03*
X158963170Y-73596598D03*
X157429096Y-74926680D03*
X156229710Y-70015331D03*
X154977613Y-71613691D03*
X151939022Y-68829336D03*
X152863133Y-67021431D03*
X132893670Y-106614624D03*
X132661224Y-108631669D03*
X128459359Y-107006366D03*
X129072405Y-105070733D03*
X124644817Y-104609171D03*
X125615935Y-102826075D03*
X122651272Y-99963133D03*
X121357765Y-101528170D03*
X120287353Y-96587107D03*
X118718988Y-97876577D03*
X118611042Y-92822051D03*
X116825450Y-93788571D03*
X117683936Y-88806314D03*
X115746730Y-89414369D03*
X115522466Y-84914704D03*
X117540102Y-84687457D03*
X116160899Y-80454919D03*
X118184826Y-80616831D03*
X117638569Y-76198892D03*
X119594416Y-76744013D03*
X121717077Y-73211312D03*
X119901178Y-72303013D03*
X122865585Y-68910438D03*
X124474810Y-70148539D03*
X142600000Y-114700000D03*
X145100000Y-115500000D03*
X138600000Y-114900000D03*
X163880395Y-102983108D03*
X161526319Y-104144282D03*
X158787891Y-107066784D03*
X168694917Y-80933251D03*
X167808155Y-83403808D03*
X167868435Y-87408352D03*
X157919386Y-64120630D03*
X160744538Y-66959384D03*
X129400000Y-119700000D03*
X107700000Y-83600000D03*
X107500000Y-76700000D03*
X110100000Y-101000000D03*
X128800000Y-116900000D03*
X153900000Y-120900000D03*
X148000000Y-114700000D03*
X116500000Y-107800000D03*
X116800000Y-105200000D03*
X134100000Y-110500000D03*
X135300000Y-109097000D03*
X145400000Y-117200000D03*
X139500000Y-116200000D03*
X165277116Y-103997588D03*
X170404351Y-80692763D03*
X160700000Y-107600000D03*
X168301951Y-88444122D03*
X166300000Y-66900000D03*
X163400000Y-78400000D03*
X107895379Y-85200080D03*
X115400000Y-107000000D03*
X133700000Y-113700000D03*
X173600000Y-89700000D03*
X171900000Y-69400000D03*
X160400000Y-112800000D03*
X166600000Y-114700000D03*
X135800000Y-111300000D03*
X136000000Y-115900000D03*
X155808240Y-105392043D03*
X156400000Y-108400000D03*
X157400000Y-110000000D03*
X118900000Y-102000000D03*
X106900000Y-73300000D03*
X107000000Y-99100000D03*
X124100000Y-117700000D03*
X139600000Y-121400000D03*
X167300000Y-68200000D03*
X176300000Y-83700000D03*
X162400000Y-115300000D03*
X159600000Y-115800000D03*
X105800000Y-73300000D03*
X106400000Y-99900000D03*
X125200000Y-118600000D03*
X141100000Y-120900000D03*
X165500000Y-68300000D03*
X175300000Y-84700000D03*
X160700000Y-114200000D03*
X149800000Y-113600000D03*
X155500000Y-109900000D03*
X146700000Y-119500000D03*
X147100000Y-113900000D03*
X167471442Y-91730358D03*
X165941441Y-98351468D03*
X167809972Y-104749014D03*
X164207621Y-100442848D03*
X166960101Y-76169805D03*
X163461283Y-70344149D03*
X167165690Y-78878630D03*
X172748319Y-79473824D03*
X139485933Y-117985933D03*
X149700000Y-121600000D03*
X154699998Y-123077460D03*
X175315000Y-119350000D03*
X161568847Y-108671197D03*
X165700000Y-109900000D03*
X170983407Y-86630656D03*
X172900000Y-119300000D03*
X174800000Y-104200000D03*
X171800000Y-90100000D03*
X161354057Y-64154782D03*
X168300000Y-66600000D03*
X171700000Y-114600000D03*
X171700000Y-107400000D03*
X170500000Y-90900000D03*
X168700000Y-72900000D03*
X131000000Y-114000000D03*
X128165208Y-109682969D03*
X118500000Y-109500000D03*
X120082359Y-103899682D03*
X130000000Y-114000000D03*
X125300000Y-107600000D03*
X114700000Y-104900000D03*
X117014509Y-99961158D03*
X113794847Y-100584247D03*
X114754530Y-95509623D03*
X107929062Y-88663989D03*
X112957624Y-85734656D03*
X113075507Y-99889589D03*
X114140424Y-92020920D03*
X108600000Y-82400000D03*
X113486726Y-80770412D03*
X110737861Y-78982059D03*
X114953329Y-75998332D03*
X111700000Y-69000000D03*
X120451005Y-67718574D03*
X110702961Y-77982668D03*
X116935035Y-73062175D03*
X170200000Y-119600000D03*
X134700000Y-119800000D03*
X165000000Y-110800000D03*
X130400000Y-116973000D03*
X129188933Y-115711067D03*
X113800000Y-105900000D03*
X167695000Y-119350000D03*
X170400000Y-108600000D03*
X169400000Y-105900000D03*
X107564133Y-82435999D03*
D14*
X139000000Y-107500000D02*
X139000000Y-109150002D01*
X139000000Y-109150002D02*
X139349998Y-109500000D01*
X143102393Y-107104984D02*
X143417229Y-108724671D01*
X143417229Y-108724671D02*
X143827579Y-109001456D01*
X147054042Y-105934453D02*
X147672143Y-107464308D01*
X147672143Y-107464308D02*
X148127767Y-107657709D01*
X150709740Y-104031417D02*
X151608394Y-105415225D01*
X151608394Y-105415225D02*
X152092550Y-105518136D01*
X153935156Y-101465805D02*
X155081342Y-102652718D01*
X155081342Y-102652718D02*
X155576239Y-102661357D01*
X157963371Y-99278296D02*
X158450824Y-99192345D01*
X156611770Y-98331892D02*
X157963371Y-99278296D01*
X158641228Y-94744836D02*
X160148579Y-95415955D01*
X160148579Y-95415955D02*
X160610676Y-95238572D01*
X161556669Y-91207618D02*
X161976430Y-90945322D01*
X159948957Y-90836446D02*
X161556669Y-91207618D01*
X160486903Y-86750337D02*
X162135900Y-86807924D01*
X162135900Y-86807924D02*
X162497900Y-86470353D01*
X161864988Y-82378542D02*
X162155925Y-81978101D01*
X160235299Y-82636657D02*
X161864988Y-82378542D01*
X160753887Y-78082233D02*
X160963071Y-77633636D01*
X159203391Y-78646565D02*
X160753887Y-78082233D01*
X157429096Y-74926680D02*
X158843426Y-74076867D01*
X158843426Y-74076867D02*
X158963170Y-73596598D01*
X154977613Y-71613691D02*
X156203805Y-70509624D01*
X156203805Y-70509624D02*
X156229710Y-70015331D01*
X152932020Y-67511585D02*
X152863133Y-67021431D01*
X151939022Y-68829336D02*
X152932020Y-67511585D01*
X128310518Y-106534303D02*
X128459359Y-107006366D01*
X129072405Y-105070733D02*
X128310518Y-106534303D01*
X124588784Y-104117381D02*
X124644817Y-104609171D01*
X125615935Y-102826075D02*
X124588784Y-104117381D01*
X122651272Y-99963133D02*
X121396599Y-101034724D01*
X121396599Y-101034724D02*
X121357765Y-101528170D01*
X117046304Y-93345604D02*
X116825450Y-93788571D01*
X118611042Y-92822051D02*
X117046304Y-93345604D01*
X116048048Y-89021682D02*
X115746730Y-89414369D01*
X117683936Y-88806314D02*
X116048048Y-89021682D01*
X117540102Y-84687457D02*
X115893176Y-84586726D01*
X115893176Y-84586726D02*
X115522466Y-84914704D01*
X118184826Y-80616831D02*
X116587379Y-80203702D01*
X116587379Y-80203702D02*
X116160899Y-80454919D01*
X119594416Y-76744013D02*
X118105148Y-76033667D01*
X118105148Y-76033667D02*
X117638569Y-76198892D01*
X120390711Y-72229851D02*
X119901178Y-72303013D01*
X121717077Y-73211312D02*
X120390711Y-72229851D01*
X124474810Y-70148539D02*
X123360084Y-68932028D01*
X123360084Y-68932028D02*
X122865585Y-68910438D01*
X142600000Y-114700000D02*
X143400000Y-115500000D01*
X143400000Y-115500000D02*
X145100000Y-115500000D01*
X142400000Y-114900000D02*
X142600000Y-114700000D01*
X138600000Y-114900000D02*
X142400000Y-114900000D01*
X145883511Y-107104984D02*
X147054042Y-105934453D01*
X143102393Y-107104984D02*
X145883511Y-107104984D01*
X148806704Y-105934453D02*
X150709740Y-104031417D01*
X147054042Y-105934453D02*
X148806704Y-105934453D01*
X162657517Y-104164027D02*
X163880395Y-102983108D01*
X158787891Y-107066784D02*
X161521382Y-104427082D01*
X158641228Y-94744838D02*
X159901987Y-93527336D01*
X158612337Y-96399966D02*
X158641228Y-94744838D01*
X161526319Y-104144282D02*
X162657517Y-104164027D01*
X156611768Y-98331893D02*
X158612337Y-96399966D01*
X159901987Y-93527336D02*
X159948957Y-90836447D01*
X161521382Y-104427082D02*
X161526319Y-104144282D01*
X167868435Y-87408352D02*
X168001053Y-83610667D01*
X160235298Y-82636659D02*
X160332358Y-79857235D01*
X167808155Y-83403808D02*
X168635587Y-82632215D01*
X159264558Y-76894972D02*
X157429097Y-74926680D01*
X168001053Y-83610667D02*
X167808155Y-83403808D01*
X160332358Y-79857235D02*
X159203392Y-78646567D01*
X159203392Y-78646567D02*
X159264558Y-76894972D01*
X168635587Y-82632215D02*
X168694917Y-80933251D01*
X158201842Y-64135433D02*
X157919386Y-64120630D01*
X160744538Y-66959384D02*
X158201842Y-64135433D01*
X133779046Y-107500000D02*
X132893670Y-106614624D01*
X130616296Y-106614624D02*
X129072405Y-105070733D01*
X132893670Y-106614624D02*
X130616296Y-106614624D01*
X127860593Y-105070733D02*
X125615935Y-102826075D01*
X129072405Y-105070733D02*
X127860593Y-105070733D01*
X122752993Y-99963133D02*
X122651272Y-99963133D01*
X125615935Y-102826075D02*
X122752993Y-99963133D01*
X120287353Y-96587106D02*
X118649147Y-95005109D01*
X118649147Y-95005109D02*
X118611041Y-92822050D01*
X118611041Y-92822050D02*
X117739337Y-91980255D01*
X117739337Y-91980255D02*
X117683936Y-88806313D01*
X117683936Y-88806313D02*
X117613274Y-84758118D01*
X121717078Y-73211310D02*
X124478361Y-70250197D01*
X119594416Y-76744011D02*
X119552125Y-75532938D01*
X119552125Y-75532938D02*
X121717078Y-73211310D01*
X118105347Y-78340843D02*
X119594416Y-76744011D01*
X118184826Y-80616830D02*
X118105347Y-78340843D01*
X122651272Y-98951026D02*
X120287353Y-96587107D01*
X122651272Y-99963133D02*
X122651272Y-98951026D01*
X118184826Y-84042733D02*
X118184826Y-80616831D01*
X117540102Y-84687457D02*
X118184826Y-84042733D01*
X151369544Y-104031417D02*
X153935156Y-101465805D01*
X150709740Y-104031417D02*
X151369544Y-104031417D01*
X159948957Y-87288283D02*
X160486903Y-86750337D01*
X159948957Y-90836446D02*
X159948957Y-87288283D01*
X109014704Y-84914704D02*
X115522466Y-84914704D01*
X107700000Y-83600000D02*
X109014704Y-84914704D01*
X157429096Y-74065174D02*
X154977613Y-71613691D01*
X157429096Y-74926680D02*
X157429096Y-74065174D01*
X115760900Y-80054920D02*
X116160899Y-80454919D01*
X115749391Y-80043411D02*
X115760900Y-80054920D01*
X110277726Y-80043411D02*
X115749391Y-80043411D01*
X107500000Y-77265685D02*
X110277726Y-80043411D01*
X107500000Y-76700000D02*
X107500000Y-77265685D01*
X118153303Y-97876577D02*
X118718988Y-97876577D01*
X114588457Y-101311248D02*
X118023128Y-97876577D01*
X113134638Y-101000000D02*
X113445886Y-101311248D01*
X118023128Y-97876577D02*
X118153303Y-97876577D01*
X113445886Y-101311248D02*
X114588457Y-101311248D01*
X110100000Y-101000000D02*
X113134638Y-101000000D01*
X132661224Y-109197354D02*
X132661224Y-108631669D01*
X129365685Y-116900000D02*
X132661224Y-113604461D01*
X128800000Y-116900000D02*
X129365685Y-116900000D01*
X160486903Y-82888261D02*
X160235299Y-82636657D01*
X160486903Y-86750337D02*
X160486903Y-82888261D01*
X156611770Y-98789191D02*
X156611770Y-98331892D01*
X153935156Y-101465805D02*
X156611770Y-98789191D01*
X157435001Y-119370001D02*
X158335000Y-120270000D01*
X157107999Y-119042999D02*
X157435001Y-119370001D01*
X155206039Y-119042999D02*
X157107999Y-119042999D01*
X154567999Y-119681039D02*
X155206039Y-119042999D01*
X154567999Y-120232001D02*
X154567999Y-119681039D01*
X153900000Y-120900000D02*
X154567999Y-120232001D01*
X152342999Y-119042999D02*
X155300000Y-119042999D01*
X148000000Y-114700000D02*
X152342999Y-119042999D01*
X116500000Y-107800000D02*
X116500000Y-105500000D01*
X116500000Y-105500000D02*
X116800000Y-105200000D01*
X132661224Y-111938776D02*
X134100000Y-110500000D01*
X132661224Y-111938776D02*
X132661224Y-109197354D01*
X132661224Y-113604461D02*
X132661224Y-111938776D01*
X135400000Y-108431315D02*
X135400000Y-107500000D01*
X135300000Y-108531315D02*
X135400000Y-108431315D01*
X139000000Y-107500000D02*
X135400000Y-107500000D01*
X135300000Y-109097000D02*
X135300000Y-108531315D01*
X135400000Y-107500000D02*
X133779046Y-107500000D01*
X163570000Y-117730000D02*
X166600000Y-114700000D01*
X159605000Y-117730000D02*
X163570000Y-117730000D01*
X159605000Y-113595000D02*
X160400000Y-112800000D01*
X159605000Y-117730000D02*
X159605000Y-117695000D01*
X159605000Y-117695000D02*
X160700000Y-116600000D01*
X160700000Y-116600000D02*
X160700000Y-115600000D01*
X159605000Y-114505000D02*
X159605000Y-113595000D01*
X160700000Y-115600000D02*
X159605000Y-114505000D01*
X155808240Y-105392043D02*
X156400000Y-105983803D01*
X156400000Y-105983803D02*
X156400000Y-108400000D01*
X107399999Y-99499999D02*
X107399999Y-102499999D01*
X107000000Y-99100000D02*
X107399999Y-99499999D01*
X107399999Y-102499999D02*
X122600000Y-117700000D01*
X122600000Y-117700000D02*
X124100000Y-117700000D01*
X124100000Y-117700000D02*
X135924038Y-117700000D01*
X135924038Y-117700000D02*
X135924038Y-117724038D01*
X135924038Y-117724038D02*
X139600000Y-121400000D01*
X167300000Y-68200000D02*
X176300000Y-77200000D01*
X176300000Y-77200000D02*
X176300000Y-83700000D01*
X157065000Y-117730000D02*
X158995000Y-115800000D01*
X158995000Y-115800000D02*
X159600000Y-115800000D01*
X162771034Y-114928966D02*
X162400000Y-115300000D01*
X177600000Y-100042067D02*
X162771034Y-114871034D01*
X162771034Y-114871034D02*
X162771034Y-114928966D01*
X177600000Y-88500000D02*
X177600000Y-100042067D01*
X176300000Y-83700000D02*
X176300000Y-87200000D01*
X176300000Y-87200000D02*
X177600000Y-88500000D01*
X106500001Y-73699999D02*
X106500001Y-84999999D01*
X106900000Y-73300000D02*
X106500001Y-73699999D01*
X110200000Y-95900000D02*
X107000000Y-99100000D01*
X106300000Y-85200000D02*
X106300000Y-88752956D01*
X106500001Y-84999999D02*
X106300000Y-85200000D01*
X106300000Y-88752956D02*
X110200000Y-92652956D01*
X110200000Y-92652956D02*
X110200000Y-95900000D01*
X106400000Y-99900000D02*
X106400000Y-102700000D01*
X106400000Y-102700000D02*
X122300000Y-118600000D01*
X122300000Y-118600000D02*
X125200000Y-118600000D01*
X125200000Y-118600000D02*
X135400000Y-118600000D01*
X135400000Y-118600000D02*
X139200000Y-122400000D01*
X153665000Y-122400000D02*
X155795000Y-120270000D01*
X141100000Y-121465685D02*
X141100000Y-122400000D01*
X141100000Y-120900000D02*
X141100000Y-121465685D01*
X139200000Y-122400000D02*
X141100000Y-122400000D01*
X141100000Y-122400000D02*
X153665000Y-122400000D01*
X165500000Y-68300000D02*
X175300000Y-78100000D01*
X175300000Y-78100000D02*
X175300000Y-84700000D01*
X175300000Y-87500000D02*
X175300000Y-87600000D01*
X175300000Y-84700000D02*
X175300000Y-87500000D01*
X176800000Y-100200000D02*
X162800000Y-114200000D01*
X176800000Y-89200000D02*
X176800000Y-100200000D01*
X162800000Y-114200000D02*
X160700000Y-114200000D01*
X175300000Y-87500000D02*
X175300000Y-87700000D01*
X175300000Y-87700000D02*
X176800000Y-89200000D01*
X106000001Y-99500001D02*
X106400000Y-99900000D01*
X106000001Y-99024037D02*
X106000001Y-99500001D01*
X108827001Y-96197037D02*
X106000001Y-99024037D01*
X106223962Y-89400000D02*
X108827001Y-92003039D01*
X108827001Y-92003039D02*
X108827001Y-96197037D01*
X105800000Y-88895022D02*
X105800000Y-88800000D01*
X106223962Y-89318984D02*
X105800000Y-88895022D01*
X106223962Y-89400000D02*
X106223962Y-89318984D01*
X105800000Y-73300000D02*
X105800000Y-88800000D01*
X149800000Y-113600000D02*
X151800000Y-113600000D01*
X151800000Y-113600000D02*
X155500000Y-109900000D01*
X146700000Y-119500000D02*
X147100000Y-119100000D01*
X147100000Y-119100000D02*
X147100000Y-113900000D01*
X165941441Y-98351468D02*
X167380120Y-96962151D01*
X167380120Y-96962151D02*
X167471442Y-91730358D01*
X167819844Y-104183415D02*
X164207621Y-100442848D01*
X167809972Y-104749014D02*
X167819844Y-104183415D01*
X167029900Y-74171024D02*
X163461283Y-70344149D01*
X166960101Y-76169805D02*
X167029900Y-74171024D01*
X172748319Y-79473824D02*
X172362522Y-79060108D01*
X172362522Y-79060108D02*
X167165690Y-78878630D01*
X139485933Y-117985933D02*
X143100000Y-121600000D01*
X143100000Y-121600000D02*
X149700000Y-121600000D01*
X154699998Y-123077460D02*
X171587540Y-123077460D01*
X171587540Y-123077460D02*
X175315000Y-119350000D01*
X161568847Y-108671197D02*
X164471197Y-108671197D01*
X164471197Y-108671197D02*
X165700000Y-109900000D01*
X172900000Y-119300000D02*
X175700000Y-116500000D01*
X175700000Y-116500000D02*
X175700000Y-105100000D01*
X175700000Y-105100000D02*
X174800000Y-104200000D01*
X171800000Y-87447249D02*
X170983407Y-86630656D01*
X171800000Y-90100000D02*
X171800000Y-87447249D01*
X161354057Y-64154782D02*
X165154782Y-64154782D01*
X165154782Y-64154782D02*
X167600000Y-66600000D01*
X167600000Y-66600000D02*
X168300000Y-66600000D01*
X171700000Y-114600000D02*
X171700000Y-107400000D01*
X173475320Y-77675320D02*
X168700000Y-72900000D01*
X173475320Y-79822785D02*
X173475320Y-77675320D01*
X170100001Y-83198104D02*
X173475320Y-79822785D01*
X170500000Y-90900000D02*
X170100001Y-90500001D01*
X170100001Y-90500001D02*
X170100001Y-83198104D01*
X131000000Y-114000000D02*
X131000000Y-112517761D01*
X131000000Y-112517761D02*
X128165208Y-109682969D01*
X118500000Y-109500000D02*
X120082359Y-107917641D01*
X120082359Y-107917641D02*
X120082359Y-103899682D01*
X125300000Y-109300000D02*
X125300000Y-107600000D01*
X130000000Y-114000000D02*
X125300000Y-109300000D01*
X114700000Y-104900000D02*
X114700000Y-102275667D01*
X114700000Y-102275667D02*
X117014509Y-99961158D01*
X113794847Y-100584247D02*
X114824497Y-99518014D01*
X114824497Y-99518014D02*
X114754530Y-95509623D01*
X110166515Y-88624934D02*
X112957624Y-85734656D01*
X107929062Y-88663989D02*
X110166515Y-88624934D01*
X113075507Y-99889589D02*
X112959505Y-93243798D01*
X112959505Y-93243798D02*
X114140424Y-92020920D01*
X108600000Y-82400000D02*
X110229588Y-80770412D01*
X110229588Y-80770412D02*
X113486726Y-80770412D01*
X110737861Y-78982059D02*
X112219197Y-78930330D01*
X112219197Y-78930330D02*
X114953329Y-75998332D01*
X111700000Y-69000000D02*
X119169579Y-69000000D01*
X119169579Y-69000000D02*
X120451005Y-67718574D01*
X115236071Y-73121504D02*
X116935035Y-73062175D01*
X110702961Y-77982668D02*
X115236071Y-73121504D01*
X153853057Y-122854010D02*
X137754010Y-122854010D01*
X155210065Y-121497001D02*
X153853057Y-122854010D01*
X137754010Y-122854010D02*
X134700000Y-119800000D01*
X170200000Y-119600000D02*
X168302999Y-121497001D01*
X168302999Y-121497001D02*
X155210065Y-121497001D01*
X131502962Y-116973000D02*
X130400000Y-116973000D01*
X155242066Y-110800000D02*
X151715065Y-114327001D01*
X165000000Y-110800000D02*
X155242066Y-110800000D01*
X151715065Y-114327001D02*
X149451039Y-114327001D01*
X149451039Y-114327001D02*
X148272557Y-113148519D01*
X148272557Y-113148519D02*
X135327443Y-113148519D01*
X135327443Y-113148519D02*
X131502962Y-116973000D01*
X129188933Y-115711067D02*
X126677866Y-113200000D01*
X113800000Y-106475962D02*
X113800000Y-105900000D01*
X126677866Y-113200000D02*
X120524038Y-113200000D01*
X120524038Y-113200000D02*
X113800000Y-106475962D01*
X167695000Y-117596000D02*
X170400000Y-114891000D01*
X167695000Y-119350000D02*
X167695000Y-117596000D01*
X170400000Y-114891000D02*
X170400000Y-108600000D01*
X143677996Y-110227001D02*
X136327001Y-110227001D01*
X144731998Y-109172999D02*
X143677996Y-110227001D01*
X157757638Y-109172999D02*
X144731998Y-109172999D01*
X169400000Y-105900000D02*
X161030637Y-105900000D01*
X161030637Y-105900000D02*
X157757638Y-109172999D01*
X126509329Y-107733367D02*
X121775962Y-103000000D01*
X132838884Y-107733367D02*
X126509329Y-107733367D01*
X136327001Y-110227001D02*
X135332518Y-110227001D01*
X135332518Y-110227001D02*
X132838884Y-107733367D01*
X114867425Y-91671959D02*
X113695466Y-90500000D01*
X114867425Y-92906508D02*
X114867425Y-91671959D01*
X121775962Y-103000000D02*
X121753633Y-103000000D01*
X119445989Y-97485072D02*
X114867425Y-92906508D01*
X119445989Y-100692356D02*
X119445989Y-97485072D01*
X121753633Y-103000000D02*
X119445989Y-100692356D01*
X113695466Y-90500000D02*
X110400000Y-90500000D01*
X106972999Y-83027133D02*
X107564133Y-82435999D01*
X106972999Y-88783888D02*
X106972999Y-83027133D01*
X110400000Y-90500000D02*
X108689111Y-90500000D01*
X108689111Y-90500000D02*
X106972999Y-88783888D01*
G36*
X173996063Y-104859774D02*
G01*
X174140226Y-105003937D01*
X174309744Y-105117205D01*
X174498102Y-105195226D01*
X174698061Y-105235000D01*
X174757369Y-105235000D01*
X174938001Y-105415632D01*
X174938000Y-116184369D01*
X172857370Y-118265000D01*
X172798061Y-118265000D01*
X172598102Y-118304774D01*
X172409744Y-118382795D01*
X172240226Y-118496063D01*
X172096063Y-118640226D01*
X171982795Y-118809744D01*
X171904774Y-118998102D01*
X171865000Y-119198061D01*
X171865000Y-119401939D01*
X171904774Y-119601898D01*
X171982795Y-119790256D01*
X172096063Y-119959774D01*
X172240226Y-120103937D01*
X172409744Y-120217205D01*
X172598102Y-120295226D01*
X172798061Y-120335000D01*
X173001939Y-120335000D01*
X173201898Y-120295226D01*
X173355957Y-120231412D01*
X171271910Y-122315460D01*
X155469236Y-122315460D01*
X155525695Y-122259001D01*
X168265576Y-122259001D01*
X168302999Y-122262687D01*
X168340422Y-122259001D01*
X168340425Y-122259001D01*
X168452377Y-122247975D01*
X168596014Y-122204403D01*
X168728391Y-122133646D01*
X168844421Y-122038423D01*
X168868283Y-122009347D01*
X170242630Y-120635000D01*
X170301939Y-120635000D01*
X170501898Y-120595226D01*
X170690256Y-120517205D01*
X170859774Y-120403937D01*
X171003937Y-120259774D01*
X171117205Y-120090256D01*
X171195226Y-119901898D01*
X171235000Y-119701939D01*
X171235000Y-119498061D01*
X171195226Y-119298102D01*
X171117205Y-119109744D01*
X171003937Y-118940226D01*
X170859774Y-118796063D01*
X170690256Y-118682795D01*
X170501898Y-118604774D01*
X170301939Y-118565000D01*
X170098061Y-118565000D01*
X169898102Y-118604774D01*
X169709744Y-118682795D01*
X169540226Y-118796063D01*
X169396063Y-118940226D01*
X169282795Y-119109744D01*
X169204774Y-119298102D01*
X169165000Y-119498061D01*
X169165000Y-119557370D01*
X167987369Y-120735001D01*
X161694613Y-120735001D01*
X161887918Y-120605839D01*
X162080839Y-120412918D01*
X162232416Y-120186067D01*
X162336824Y-119934004D01*
X162390050Y-119666416D01*
X162390050Y-119393584D01*
X162336824Y-119125996D01*
X162232416Y-118873933D01*
X162080839Y-118647082D01*
X161887918Y-118454161D01*
X161661067Y-118302584D01*
X161409004Y-118198176D01*
X161141416Y-118144950D01*
X161140646Y-118144950D01*
X161140000Y-118015750D01*
X160981250Y-117857000D01*
X159732000Y-117857000D01*
X159732000Y-118983982D01*
X159673176Y-119125996D01*
X159619950Y-119393584D01*
X159619950Y-119430137D01*
X159527312Y-119291495D01*
X159410034Y-119174217D01*
X159478000Y-119106250D01*
X159478000Y-117857000D01*
X159458000Y-117857000D01*
X159458000Y-117603000D01*
X159478000Y-117603000D01*
X159478000Y-117583000D01*
X159732000Y-117583000D01*
X159732000Y-117603000D01*
X160981250Y-117603000D01*
X161140000Y-117444250D01*
X161143072Y-116830000D01*
X161130812Y-116705518D01*
X161094502Y-116585820D01*
X161035537Y-116475506D01*
X160956185Y-116378815D01*
X160859494Y-116299463D01*
X160749180Y-116240498D01*
X160629482Y-116204188D01*
X160555859Y-116196937D01*
X160595226Y-116101898D01*
X160635000Y-115901939D01*
X160635000Y-115698061D01*
X160595226Y-115498102D01*
X160517205Y-115309744D01*
X160447214Y-115204995D01*
X160598061Y-115235000D01*
X160801939Y-115235000D01*
X161001898Y-115195226D01*
X161190256Y-115117205D01*
X161359774Y-115003937D01*
X161401711Y-114962000D01*
X161419728Y-114962000D01*
X161404774Y-114998102D01*
X161365000Y-115198061D01*
X161365000Y-115401939D01*
X161404774Y-115601898D01*
X161482795Y-115790256D01*
X161596063Y-115959774D01*
X161740226Y-116103937D01*
X161909744Y-116217205D01*
X162098102Y-116295226D01*
X162298061Y-116335000D01*
X162501939Y-116335000D01*
X162701898Y-116295226D01*
X162890256Y-116217205D01*
X163059774Y-116103937D01*
X163203937Y-115959774D01*
X163317205Y-115790256D01*
X163395226Y-115601898D01*
X163435000Y-115401939D01*
X163435000Y-115303243D01*
X163456295Y-115263403D01*
X169541533Y-109178164D01*
X169596063Y-109259774D01*
X169638001Y-109301712D01*
X169638000Y-114575370D01*
X167182649Y-117030721D01*
X167153579Y-117054578D01*
X167129722Y-117083648D01*
X167129721Y-117083649D01*
X167058355Y-117170608D01*
X166987599Y-117302985D01*
X166944027Y-117446622D01*
X166929314Y-117596000D01*
X166933001Y-117633433D01*
X166933000Y-118648289D01*
X166891063Y-118690226D01*
X166777795Y-118859744D01*
X166699774Y-119048102D01*
X166660000Y-119248061D01*
X166660000Y-119451939D01*
X166699774Y-119651898D01*
X166777795Y-119840256D01*
X166891063Y-120009774D01*
X167035226Y-120153937D01*
X167204744Y-120267205D01*
X167393102Y-120345226D01*
X167593061Y-120385000D01*
X167796939Y-120385000D01*
X167996898Y-120345226D01*
X168185256Y-120267205D01*
X168354774Y-120153937D01*
X168498937Y-120009774D01*
X168612205Y-119840256D01*
X168690226Y-119651898D01*
X168730000Y-119451939D01*
X168730000Y-119248061D01*
X168690226Y-119048102D01*
X168612205Y-118859744D01*
X168498937Y-118690226D01*
X168457000Y-118648289D01*
X168457000Y-117911630D01*
X170912347Y-115456283D01*
X170941422Y-115432422D01*
X170998798Y-115362509D01*
X171040226Y-115403937D01*
X171209744Y-115517205D01*
X171398102Y-115595226D01*
X171598061Y-115635000D01*
X171801939Y-115635000D01*
X172001898Y-115595226D01*
X172190256Y-115517205D01*
X172359774Y-115403937D01*
X172503937Y-115259774D01*
X172617205Y-115090256D01*
X172695226Y-114901898D01*
X172735000Y-114701939D01*
X172735000Y-114498061D01*
X172695226Y-114298102D01*
X172617205Y-114109744D01*
X172503937Y-113940226D01*
X172462000Y-113898289D01*
X172462000Y-108101711D01*
X172503937Y-108059774D01*
X172617205Y-107890256D01*
X172695226Y-107701898D01*
X172735000Y-107501939D01*
X172735000Y-107298061D01*
X172695226Y-107098102D01*
X172617205Y-106909744D01*
X172503937Y-106740226D01*
X172359774Y-106596063D01*
X172218219Y-106501479D01*
X173941533Y-104778164D01*
X173996063Y-104859774D01*
G37*
X173996063Y-104859774D02*
X174140226Y-105003937D01*
X174309744Y-105117205D01*
X174498102Y-105195226D01*
X174698061Y-105235000D01*
X174757369Y-105235000D01*
X174938001Y-105415632D01*
X174938000Y-116184369D01*
X172857370Y-118265000D01*
X172798061Y-118265000D01*
X172598102Y-118304774D01*
X172409744Y-118382795D01*
X172240226Y-118496063D01*
X172096063Y-118640226D01*
X171982795Y-118809744D01*
X171904774Y-118998102D01*
X171865000Y-119198061D01*
X171865000Y-119401939D01*
X171904774Y-119601898D01*
X171982795Y-119790256D01*
X172096063Y-119959774D01*
X172240226Y-120103937D01*
X172409744Y-120217205D01*
X172598102Y-120295226D01*
X172798061Y-120335000D01*
X173001939Y-120335000D01*
X173201898Y-120295226D01*
X173355957Y-120231412D01*
X171271910Y-122315460D01*
X155469236Y-122315460D01*
X155525695Y-122259001D01*
X168265576Y-122259001D01*
X168302999Y-122262687D01*
X168340422Y-122259001D01*
X168340425Y-122259001D01*
X168452377Y-122247975D01*
X168596014Y-122204403D01*
X168728391Y-122133646D01*
X168844421Y-122038423D01*
X168868283Y-122009347D01*
X170242630Y-120635000D01*
X170301939Y-120635000D01*
X170501898Y-120595226D01*
X170690256Y-120517205D01*
X170859774Y-120403937D01*
X171003937Y-120259774D01*
X171117205Y-120090256D01*
X171195226Y-119901898D01*
X171235000Y-119701939D01*
X171235000Y-119498061D01*
X171195226Y-119298102D01*
X171117205Y-119109744D01*
X171003937Y-118940226D01*
X170859774Y-118796063D01*
X170690256Y-118682795D01*
X170501898Y-118604774D01*
X170301939Y-118565000D01*
X170098061Y-118565000D01*
X169898102Y-118604774D01*
X169709744Y-118682795D01*
X169540226Y-118796063D01*
X169396063Y-118940226D01*
X169282795Y-119109744D01*
X169204774Y-119298102D01*
X169165000Y-119498061D01*
X169165000Y-119557370D01*
X167987369Y-120735001D01*
X161694613Y-120735001D01*
X161887918Y-120605839D01*
X162080839Y-120412918D01*
X162232416Y-120186067D01*
X162336824Y-119934004D01*
X162390050Y-119666416D01*
X162390050Y-119393584D01*
X162336824Y-119125996D01*
X162232416Y-118873933D01*
X162080839Y-118647082D01*
X161887918Y-118454161D01*
X161661067Y-118302584D01*
X161409004Y-118198176D01*
X161141416Y-118144950D01*
X161140646Y-118144950D01*
X161140000Y-118015750D01*
X160981250Y-117857000D01*
X159732000Y-117857000D01*
X159732000Y-118983982D01*
X159673176Y-119125996D01*
X159619950Y-119393584D01*
X159619950Y-119430137D01*
X159527312Y-119291495D01*
X159410034Y-119174217D01*
X159478000Y-119106250D01*
X159478000Y-117857000D01*
X159458000Y-117857000D01*
X159458000Y-117603000D01*
X159478000Y-117603000D01*
X159478000Y-117583000D01*
X159732000Y-117583000D01*
X159732000Y-117603000D01*
X160981250Y-117603000D01*
X161140000Y-117444250D01*
X161143072Y-116830000D01*
X161130812Y-116705518D01*
X161094502Y-116585820D01*
X161035537Y-116475506D01*
X160956185Y-116378815D01*
X160859494Y-116299463D01*
X160749180Y-116240498D01*
X160629482Y-116204188D01*
X160555859Y-116196937D01*
X160595226Y-116101898D01*
X160635000Y-115901939D01*
X160635000Y-115698061D01*
X160595226Y-115498102D01*
X160517205Y-115309744D01*
X160447214Y-115204995D01*
X160598061Y-115235000D01*
X160801939Y-115235000D01*
X161001898Y-115195226D01*
X161190256Y-115117205D01*
X161359774Y-115003937D01*
X161401711Y-114962000D01*
X161419728Y-114962000D01*
X161404774Y-114998102D01*
X161365000Y-115198061D01*
X161365000Y-115401939D01*
X161404774Y-115601898D01*
X161482795Y-115790256D01*
X161596063Y-115959774D01*
X161740226Y-116103937D01*
X161909744Y-116217205D01*
X162098102Y-116295226D01*
X162298061Y-116335000D01*
X162501939Y-116335000D01*
X162701898Y-116295226D01*
X162890256Y-116217205D01*
X163059774Y-116103937D01*
X163203937Y-115959774D01*
X163317205Y-115790256D01*
X163395226Y-115601898D01*
X163435000Y-115401939D01*
X163435000Y-115303243D01*
X163456295Y-115263403D01*
X169541533Y-109178164D01*
X169596063Y-109259774D01*
X169638001Y-109301712D01*
X169638000Y-114575370D01*
X167182649Y-117030721D01*
X167153579Y-117054578D01*
X167129722Y-117083648D01*
X167129721Y-117083649D01*
X167058355Y-117170608D01*
X166987599Y-117302985D01*
X166944027Y-117446622D01*
X166929314Y-117596000D01*
X166933001Y-117633433D01*
X166933000Y-118648289D01*
X166891063Y-118690226D01*
X166777795Y-118859744D01*
X166699774Y-119048102D01*
X166660000Y-119248061D01*
X166660000Y-119451939D01*
X166699774Y-119651898D01*
X166777795Y-119840256D01*
X166891063Y-120009774D01*
X167035226Y-120153937D01*
X167204744Y-120267205D01*
X167393102Y-120345226D01*
X167593061Y-120385000D01*
X167796939Y-120385000D01*
X167996898Y-120345226D01*
X168185256Y-120267205D01*
X168354774Y-120153937D01*
X168498937Y-120009774D01*
X168612205Y-119840256D01*
X168690226Y-119651898D01*
X168730000Y-119451939D01*
X168730000Y-119248061D01*
X168690226Y-119048102D01*
X168612205Y-118859744D01*
X168498937Y-118690226D01*
X168457000Y-118648289D01*
X168457000Y-117911630D01*
X170912347Y-115456283D01*
X170941422Y-115432422D01*
X170998798Y-115362509D01*
X171040226Y-115403937D01*
X171209744Y-115517205D01*
X171398102Y-115595226D01*
X171598061Y-115635000D01*
X171801939Y-115635000D01*
X172001898Y-115595226D01*
X172190256Y-115517205D01*
X172359774Y-115403937D01*
X172503937Y-115259774D01*
X172617205Y-115090256D01*
X172695226Y-114901898D01*
X172735000Y-114701939D01*
X172735000Y-114498061D01*
X172695226Y-114298102D01*
X172617205Y-114109744D01*
X172503937Y-113940226D01*
X172462000Y-113898289D01*
X172462000Y-108101711D01*
X172503937Y-108059774D01*
X172617205Y-107890256D01*
X172695226Y-107701898D01*
X172735000Y-107501939D01*
X172735000Y-107298061D01*
X172695226Y-107098102D01*
X172617205Y-106909744D01*
X172503937Y-106740226D01*
X172359774Y-106596063D01*
X172218219Y-106501479D01*
X173941533Y-104778164D01*
X173996063Y-104859774D01*
G36*
X138109744Y-113982795D02*
G01*
X137940226Y-114096063D01*
X137796063Y-114240226D01*
X137682795Y-114409744D01*
X137604774Y-114598102D01*
X137565000Y-114798061D01*
X137565000Y-115001939D01*
X137604774Y-115201898D01*
X137682795Y-115390256D01*
X137796063Y-115559774D01*
X137940226Y-115703937D01*
X138109744Y-115817205D01*
X138298102Y-115895226D01*
X138498061Y-115935000D01*
X138701939Y-115935000D01*
X138901898Y-115895226D01*
X139090256Y-115817205D01*
X139259774Y-115703937D01*
X139301711Y-115662000D01*
X142217888Y-115662000D01*
X142298102Y-115695226D01*
X142498061Y-115735000D01*
X142557369Y-115735000D01*
X142834720Y-116012351D01*
X142858578Y-116041422D01*
X142887648Y-116065279D01*
X142974607Y-116136645D01*
X143035258Y-116169063D01*
X143106985Y-116207402D01*
X143250622Y-116250974D01*
X143362574Y-116262000D01*
X143362577Y-116262000D01*
X143400000Y-116265686D01*
X143437423Y-116262000D01*
X144398289Y-116262000D01*
X144440226Y-116303937D01*
X144609744Y-116417205D01*
X144798102Y-116495226D01*
X144998061Y-116535000D01*
X145201939Y-116535000D01*
X145401898Y-116495226D01*
X145590256Y-116417205D01*
X145759774Y-116303937D01*
X145903937Y-116159774D01*
X146017205Y-115990256D01*
X146095226Y-115801898D01*
X146135000Y-115601939D01*
X146135000Y-115398061D01*
X146095226Y-115198102D01*
X146017205Y-115009744D01*
X145903937Y-114840226D01*
X145759774Y-114696063D01*
X145590256Y-114582795D01*
X145401898Y-114504774D01*
X145201939Y-114465000D01*
X144998061Y-114465000D01*
X144798102Y-114504774D01*
X144609744Y-114582795D01*
X144440226Y-114696063D01*
X144398289Y-114738000D01*
X143715631Y-114738000D01*
X143635000Y-114657369D01*
X143635000Y-114598061D01*
X143595226Y-114398102D01*
X143517205Y-114209744D01*
X143403937Y-114040226D01*
X143274230Y-113910519D01*
X146065000Y-113910519D01*
X146065000Y-114001939D01*
X146104774Y-114201898D01*
X146182795Y-114390256D01*
X146296063Y-114559774D01*
X146338001Y-114601712D01*
X146338000Y-118529669D01*
X146209744Y-118582795D01*
X146040226Y-118696063D01*
X145896063Y-118840226D01*
X145782795Y-119009744D01*
X145704774Y-119198102D01*
X145665000Y-119398061D01*
X145665000Y-119601939D01*
X145704774Y-119801898D01*
X145782795Y-119990256D01*
X145896063Y-120159774D01*
X146040226Y-120303937D01*
X146209744Y-120417205D01*
X146398102Y-120495226D01*
X146598061Y-120535000D01*
X146801939Y-120535000D01*
X147001898Y-120495226D01*
X147190256Y-120417205D01*
X147359774Y-120303937D01*
X147503937Y-120159774D01*
X147617205Y-119990256D01*
X147695226Y-119801898D01*
X147735000Y-119601939D01*
X147735000Y-119527396D01*
X147736645Y-119525392D01*
X147807402Y-119393015D01*
X147850974Y-119249378D01*
X147862000Y-119137426D01*
X147862000Y-119137424D01*
X147865686Y-119100001D01*
X147862000Y-119062578D01*
X147862000Y-115727827D01*
X147898061Y-115735000D01*
X147957370Y-115735000D01*
X151777719Y-119555350D01*
X151801577Y-119584421D01*
X151917607Y-119679644D01*
X152049984Y-119750401D01*
X152193621Y-119793973D01*
X152305573Y-119804999D01*
X152305575Y-119804999D01*
X152342998Y-119808685D01*
X152380421Y-119804999D01*
X153805999Y-119804999D01*
X153805999Y-119865000D01*
X153798061Y-119865000D01*
X153598102Y-119904774D01*
X153409744Y-119982795D01*
X153240226Y-120096063D01*
X153096063Y-120240226D01*
X152982795Y-120409744D01*
X152904774Y-120598102D01*
X152865000Y-120798061D01*
X152865000Y-121001939D01*
X152904774Y-121201898D01*
X152982795Y-121390256D01*
X153096063Y-121559774D01*
X153174289Y-121638000D01*
X150735000Y-121638000D01*
X150735000Y-121498061D01*
X150695226Y-121298102D01*
X150617205Y-121109744D01*
X150503937Y-120940226D01*
X150359774Y-120796063D01*
X150190256Y-120682795D01*
X150001898Y-120604774D01*
X149801939Y-120565000D01*
X149598061Y-120565000D01*
X149398102Y-120604774D01*
X149209744Y-120682795D01*
X149040226Y-120796063D01*
X148998289Y-120838000D01*
X143415630Y-120838000D01*
X140520933Y-117943303D01*
X140520933Y-117883994D01*
X140481159Y-117684035D01*
X140403138Y-117495677D01*
X140289870Y-117326159D01*
X140145707Y-117181996D01*
X139976189Y-117068728D01*
X139787831Y-116990707D01*
X139587872Y-116950933D01*
X139383994Y-116950933D01*
X139184035Y-116990707D01*
X138995677Y-117068728D01*
X138826159Y-117181996D01*
X138681996Y-117326159D01*
X138568728Y-117495677D01*
X138490707Y-117684035D01*
X138450933Y-117883994D01*
X138450933Y-118087872D01*
X138490707Y-118287831D01*
X138568728Y-118476189D01*
X138681996Y-118645707D01*
X138826159Y-118789870D01*
X138995677Y-118903138D01*
X139184035Y-118981159D01*
X139383994Y-119020933D01*
X139443303Y-119020933D01*
X140487108Y-120064738D01*
X140440226Y-120096063D01*
X140296063Y-120240226D01*
X140182795Y-120409744D01*
X140139035Y-120515388D01*
X140090256Y-120482795D01*
X139901898Y-120404774D01*
X139701939Y-120365000D01*
X139642631Y-120365000D01*
X136570380Y-117292750D01*
X136560683Y-117274608D01*
X136465460Y-117158578D01*
X136349430Y-117063355D01*
X136217053Y-116992598D01*
X136073416Y-116949026D01*
X135961464Y-116938000D01*
X135961463Y-116938000D01*
X135924038Y-116934314D01*
X135886612Y-116938000D01*
X132615592Y-116938000D01*
X135643074Y-113910519D01*
X138284232Y-113910519D01*
X138109744Y-113982795D01*
G37*
X138109744Y-113982795D02*
X137940226Y-114096063D01*
X137796063Y-114240226D01*
X137682795Y-114409744D01*
X137604774Y-114598102D01*
X137565000Y-114798061D01*
X137565000Y-115001939D01*
X137604774Y-115201898D01*
X137682795Y-115390256D01*
X137796063Y-115559774D01*
X137940226Y-115703937D01*
X138109744Y-115817205D01*
X138298102Y-115895226D01*
X138498061Y-115935000D01*
X138701939Y-115935000D01*
X138901898Y-115895226D01*
X139090256Y-115817205D01*
X139259774Y-115703937D01*
X139301711Y-115662000D01*
X142217888Y-115662000D01*
X142298102Y-115695226D01*
X142498061Y-115735000D01*
X142557369Y-115735000D01*
X142834720Y-116012351D01*
X142858578Y-116041422D01*
X142887648Y-116065279D01*
X142974607Y-116136645D01*
X143035258Y-116169063D01*
X143106985Y-116207402D01*
X143250622Y-116250974D01*
X143362574Y-116262000D01*
X143362577Y-116262000D01*
X143400000Y-116265686D01*
X143437423Y-116262000D01*
X144398289Y-116262000D01*
X144440226Y-116303937D01*
X144609744Y-116417205D01*
X144798102Y-116495226D01*
X144998061Y-116535000D01*
X145201939Y-116535000D01*
X145401898Y-116495226D01*
X145590256Y-116417205D01*
X145759774Y-116303937D01*
X145903937Y-116159774D01*
X146017205Y-115990256D01*
X146095226Y-115801898D01*
X146135000Y-115601939D01*
X146135000Y-115398061D01*
X146095226Y-115198102D01*
X146017205Y-115009744D01*
X145903937Y-114840226D01*
X145759774Y-114696063D01*
X145590256Y-114582795D01*
X145401898Y-114504774D01*
X145201939Y-114465000D01*
X144998061Y-114465000D01*
X144798102Y-114504774D01*
X144609744Y-114582795D01*
X144440226Y-114696063D01*
X144398289Y-114738000D01*
X143715631Y-114738000D01*
X143635000Y-114657369D01*
X143635000Y-114598061D01*
X143595226Y-114398102D01*
X143517205Y-114209744D01*
X143403937Y-114040226D01*
X143274230Y-113910519D01*
X146065000Y-113910519D01*
X146065000Y-114001939D01*
X146104774Y-114201898D01*
X146182795Y-114390256D01*
X146296063Y-114559774D01*
X146338001Y-114601712D01*
X146338000Y-118529669D01*
X146209744Y-118582795D01*
X146040226Y-118696063D01*
X145896063Y-118840226D01*
X145782795Y-119009744D01*
X145704774Y-119198102D01*
X145665000Y-119398061D01*
X145665000Y-119601939D01*
X145704774Y-119801898D01*
X145782795Y-119990256D01*
X145896063Y-120159774D01*
X146040226Y-120303937D01*
X146209744Y-120417205D01*
X146398102Y-120495226D01*
X146598061Y-120535000D01*
X146801939Y-120535000D01*
X147001898Y-120495226D01*
X147190256Y-120417205D01*
X147359774Y-120303937D01*
X147503937Y-120159774D01*
X147617205Y-119990256D01*
X147695226Y-119801898D01*
X147735000Y-119601939D01*
X147735000Y-119527396D01*
X147736645Y-119525392D01*
X147807402Y-119393015D01*
X147850974Y-119249378D01*
X147862000Y-119137426D01*
X147862000Y-119137424D01*
X147865686Y-119100001D01*
X147862000Y-119062578D01*
X147862000Y-115727827D01*
X147898061Y-115735000D01*
X147957370Y-115735000D01*
X151777719Y-119555350D01*
X151801577Y-119584421D01*
X151917607Y-119679644D01*
X152049984Y-119750401D01*
X152193621Y-119793973D01*
X152305573Y-119804999D01*
X152305575Y-119804999D01*
X152342998Y-119808685D01*
X152380421Y-119804999D01*
X153805999Y-119804999D01*
X153805999Y-119865000D01*
X153798061Y-119865000D01*
X153598102Y-119904774D01*
X153409744Y-119982795D01*
X153240226Y-120096063D01*
X153096063Y-120240226D01*
X152982795Y-120409744D01*
X152904774Y-120598102D01*
X152865000Y-120798061D01*
X152865000Y-121001939D01*
X152904774Y-121201898D01*
X152982795Y-121390256D01*
X153096063Y-121559774D01*
X153174289Y-121638000D01*
X150735000Y-121638000D01*
X150735000Y-121498061D01*
X150695226Y-121298102D01*
X150617205Y-121109744D01*
X150503937Y-120940226D01*
X150359774Y-120796063D01*
X150190256Y-120682795D01*
X150001898Y-120604774D01*
X149801939Y-120565000D01*
X149598061Y-120565000D01*
X149398102Y-120604774D01*
X149209744Y-120682795D01*
X149040226Y-120796063D01*
X148998289Y-120838000D01*
X143415630Y-120838000D01*
X140520933Y-117943303D01*
X140520933Y-117883994D01*
X140481159Y-117684035D01*
X140403138Y-117495677D01*
X140289870Y-117326159D01*
X140145707Y-117181996D01*
X139976189Y-117068728D01*
X139787831Y-116990707D01*
X139587872Y-116950933D01*
X139383994Y-116950933D01*
X139184035Y-116990707D01*
X138995677Y-117068728D01*
X138826159Y-117181996D01*
X138681996Y-117326159D01*
X138568728Y-117495677D01*
X138490707Y-117684035D01*
X138450933Y-117883994D01*
X138450933Y-118087872D01*
X138490707Y-118287831D01*
X138568728Y-118476189D01*
X138681996Y-118645707D01*
X138826159Y-118789870D01*
X138995677Y-118903138D01*
X139184035Y-118981159D01*
X139383994Y-119020933D01*
X139443303Y-119020933D01*
X140487108Y-120064738D01*
X140440226Y-120096063D01*
X140296063Y-120240226D01*
X140182795Y-120409744D01*
X140139035Y-120515388D01*
X140090256Y-120482795D01*
X139901898Y-120404774D01*
X139701939Y-120365000D01*
X139642631Y-120365000D01*
X136570380Y-117292750D01*
X136560683Y-117274608D01*
X136465460Y-117158578D01*
X136349430Y-117063355D01*
X136217053Y-116992598D01*
X136073416Y-116949026D01*
X135961464Y-116938000D01*
X135961463Y-116938000D01*
X135924038Y-116934314D01*
X135886612Y-116938000D01*
X132615592Y-116938000D01*
X135643074Y-113910519D01*
X138284232Y-113910519D01*
X138109744Y-113982795D01*
G36*
X164329329Y-111593040D02*
G01*
X162484370Y-113438000D01*
X161401711Y-113438000D01*
X161359774Y-113396063D01*
X161190256Y-113282795D01*
X161001898Y-113204774D01*
X160801939Y-113165000D01*
X160598061Y-113165000D01*
X160398102Y-113204774D01*
X160209744Y-113282795D01*
X160040226Y-113396063D01*
X159896063Y-113540226D01*
X159782795Y-113709744D01*
X159704774Y-113898102D01*
X159665000Y-114098061D01*
X159665000Y-114301939D01*
X159704774Y-114501898D01*
X159782795Y-114690256D01*
X159852786Y-114795005D01*
X159701939Y-114765000D01*
X159498061Y-114765000D01*
X159298102Y-114804774D01*
X159109744Y-114882795D01*
X158940226Y-114996063D01*
X158891812Y-115044477D01*
X158845622Y-115049026D01*
X158701985Y-115092598D01*
X158569608Y-115163355D01*
X158453578Y-115258578D01*
X158429721Y-115287648D01*
X157471570Y-116245799D01*
X157216184Y-116195000D01*
X156913816Y-116195000D01*
X156617257Y-116253989D01*
X156337905Y-116369701D01*
X156086495Y-116537688D01*
X155872688Y-116751495D01*
X155704701Y-117002905D01*
X155588989Y-117282257D01*
X155530000Y-117578816D01*
X155530000Y-117881184D01*
X155588989Y-118177743D01*
X155631759Y-118280999D01*
X155243462Y-118280999D01*
X155206039Y-118277313D01*
X155168616Y-118280999D01*
X152658630Y-118280999D01*
X149468589Y-115090958D01*
X149488461Y-115089001D01*
X151677642Y-115089001D01*
X151715065Y-115092687D01*
X151752488Y-115089001D01*
X151752491Y-115089001D01*
X151864443Y-115077975D01*
X152008080Y-115034403D01*
X152140457Y-114963646D01*
X152256487Y-114868423D01*
X152280349Y-114839347D01*
X155557696Y-111562000D01*
X164298289Y-111562000D01*
X164329329Y-111593040D01*
G37*
X164329329Y-111593040D02*
X162484370Y-113438000D01*
X161401711Y-113438000D01*
X161359774Y-113396063D01*
X161190256Y-113282795D01*
X161001898Y-113204774D01*
X160801939Y-113165000D01*
X160598061Y-113165000D01*
X160398102Y-113204774D01*
X160209744Y-113282795D01*
X160040226Y-113396063D01*
X159896063Y-113540226D01*
X159782795Y-113709744D01*
X159704774Y-113898102D01*
X159665000Y-114098061D01*
X159665000Y-114301939D01*
X159704774Y-114501898D01*
X159782795Y-114690256D01*
X159852786Y-114795005D01*
X159701939Y-114765000D01*
X159498061Y-114765000D01*
X159298102Y-114804774D01*
X159109744Y-114882795D01*
X158940226Y-114996063D01*
X158891812Y-115044477D01*
X158845622Y-115049026D01*
X158701985Y-115092598D01*
X158569608Y-115163355D01*
X158453578Y-115258578D01*
X158429721Y-115287648D01*
X157471570Y-116245799D01*
X157216184Y-116195000D01*
X156913816Y-116195000D01*
X156617257Y-116253989D01*
X156337905Y-116369701D01*
X156086495Y-116537688D01*
X155872688Y-116751495D01*
X155704701Y-117002905D01*
X155588989Y-117282257D01*
X155530000Y-117578816D01*
X155530000Y-117881184D01*
X155588989Y-118177743D01*
X155631759Y-118280999D01*
X155243462Y-118280999D01*
X155206039Y-118277313D01*
X155168616Y-118280999D01*
X152658630Y-118280999D01*
X149468589Y-115090958D01*
X149488461Y-115089001D01*
X151677642Y-115089001D01*
X151715065Y-115092687D01*
X151752488Y-115089001D01*
X151752491Y-115089001D01*
X151864443Y-115077975D01*
X152008080Y-115034403D01*
X152140457Y-114963646D01*
X152256487Y-114868423D01*
X152280349Y-114839347D01*
X155557696Y-111562000D01*
X164298289Y-111562000D01*
X164329329Y-111593040D01*
G36*
X151484370Y-112838000D02*
G01*
X150501711Y-112838000D01*
X150459774Y-112796063D01*
X150290256Y-112682795D01*
X150101898Y-112604774D01*
X149901939Y-112565000D01*
X149698061Y-112565000D01*
X149498102Y-112604774D01*
X149309744Y-112682795D01*
X149140226Y-112796063D01*
X149068979Y-112867310D01*
X148837841Y-112636173D01*
X148813979Y-112607097D01*
X148697949Y-112511874D01*
X148565572Y-112441117D01*
X148421935Y-112397545D01*
X148309983Y-112386519D01*
X148309980Y-112386519D01*
X148272557Y-112382833D01*
X148235134Y-112386519D01*
X135364866Y-112386519D01*
X135327443Y-112382833D01*
X135290020Y-112386519D01*
X135290017Y-112386519D01*
X135178065Y-112397545D01*
X135034428Y-112441117D01*
X135013426Y-112452343D01*
X134902050Y-112511874D01*
X134831263Y-112569968D01*
X134786021Y-112607097D01*
X134762164Y-112636167D01*
X131187332Y-116211000D01*
X131132315Y-116211000D01*
X133173577Y-114169739D01*
X133202646Y-114145883D01*
X133270375Y-114063355D01*
X133297869Y-114029854D01*
X133345776Y-113940226D01*
X133368626Y-113897476D01*
X133412198Y-113753839D01*
X133423224Y-113641887D01*
X133423224Y-113641884D01*
X133426910Y-113604461D01*
X133423224Y-113567038D01*
X133423224Y-112254406D01*
X134142630Y-111535000D01*
X134201939Y-111535000D01*
X134401898Y-111495226D01*
X134590256Y-111417205D01*
X134759774Y-111303937D01*
X134903937Y-111159774D01*
X135017205Y-110990256D01*
X135040247Y-110934629D01*
X135183140Y-110977975D01*
X135295092Y-110989001D01*
X135295094Y-110989001D01*
X135332517Y-110992687D01*
X135369940Y-110989001D01*
X143640573Y-110989001D01*
X143677996Y-110992687D01*
X143715419Y-110989001D01*
X143715422Y-110989001D01*
X143827374Y-110977975D01*
X143971011Y-110934403D01*
X144103388Y-110863646D01*
X144219418Y-110768423D01*
X144243280Y-110739347D01*
X145047629Y-109934999D01*
X154387370Y-109934999D01*
X151484370Y-112838000D01*
G37*
X151484370Y-112838000D02*
X150501711Y-112838000D01*
X150459774Y-112796063D01*
X150290256Y-112682795D01*
X150101898Y-112604774D01*
X149901939Y-112565000D01*
X149698061Y-112565000D01*
X149498102Y-112604774D01*
X149309744Y-112682795D01*
X149140226Y-112796063D01*
X149068979Y-112867310D01*
X148837841Y-112636173D01*
X148813979Y-112607097D01*
X148697949Y-112511874D01*
X148565572Y-112441117D01*
X148421935Y-112397545D01*
X148309983Y-112386519D01*
X148309980Y-112386519D01*
X148272557Y-112382833D01*
X148235134Y-112386519D01*
X135364866Y-112386519D01*
X135327443Y-112382833D01*
X135290020Y-112386519D01*
X135290017Y-112386519D01*
X135178065Y-112397545D01*
X135034428Y-112441117D01*
X135013426Y-112452343D01*
X134902050Y-112511874D01*
X134831263Y-112569968D01*
X134786021Y-112607097D01*
X134762164Y-112636167D01*
X131187332Y-116211000D01*
X131132315Y-116211000D01*
X133173577Y-114169739D01*
X133202646Y-114145883D01*
X133270375Y-114063355D01*
X133297869Y-114029854D01*
X133345776Y-113940226D01*
X133368626Y-113897476D01*
X133412198Y-113753839D01*
X133423224Y-113641887D01*
X133423224Y-113641884D01*
X133426910Y-113604461D01*
X133423224Y-113567038D01*
X133423224Y-112254406D01*
X134142630Y-111535000D01*
X134201939Y-111535000D01*
X134401898Y-111495226D01*
X134590256Y-111417205D01*
X134759774Y-111303937D01*
X134903937Y-111159774D01*
X135017205Y-110990256D01*
X135040247Y-110934629D01*
X135183140Y-110977975D01*
X135295092Y-110989001D01*
X135295094Y-110989001D01*
X135332517Y-110992687D01*
X135369940Y-110989001D01*
X143640573Y-110989001D01*
X143677996Y-110992687D01*
X143715419Y-110989001D01*
X143715422Y-110989001D01*
X143827374Y-110977975D01*
X143971011Y-110934403D01*
X144103388Y-110863646D01*
X144219418Y-110768423D01*
X144243280Y-110739347D01*
X145047629Y-109934999D01*
X154387370Y-109934999D01*
X151484370Y-112838000D01*
G36*
X118228732Y-98793782D02*
G01*
X118417090Y-98871803D01*
X118617049Y-98911577D01*
X118683990Y-98911577D01*
X118683989Y-100654933D01*
X118680303Y-100692356D01*
X118683989Y-100729779D01*
X118683989Y-100729781D01*
X118695015Y-100841733D01*
X118738587Y-100985370D01*
X118766274Y-101037169D01*
X118809344Y-101117748D01*
X118845554Y-101161870D01*
X118904567Y-101233778D01*
X118933643Y-101257640D01*
X121188353Y-103512351D01*
X121212211Y-103541422D01*
X121328241Y-103636645D01*
X121342712Y-103644380D01*
X124567310Y-106868979D01*
X124496063Y-106940226D01*
X124382795Y-107109744D01*
X124304774Y-107298102D01*
X124265000Y-107498061D01*
X124265000Y-107701939D01*
X124304774Y-107901898D01*
X124382795Y-108090256D01*
X124496063Y-108259774D01*
X124538001Y-108301712D01*
X124538000Y-109262576D01*
X124534314Y-109300000D01*
X124538000Y-109337423D01*
X124538000Y-109337425D01*
X124549026Y-109449377D01*
X124592598Y-109593014D01*
X124608490Y-109622745D01*
X124663355Y-109725392D01*
X124702983Y-109773678D01*
X124758578Y-109841422D01*
X124787654Y-109865284D01*
X128965000Y-114042631D01*
X128965000Y-114101939D01*
X129004774Y-114301898D01*
X129082795Y-114490256D01*
X129157385Y-114601888D01*
X127243150Y-112687654D01*
X127219288Y-112658578D01*
X127103258Y-112563355D01*
X126970881Y-112492598D01*
X126827244Y-112449026D01*
X126715292Y-112438000D01*
X126715289Y-112438000D01*
X126677866Y-112434314D01*
X126640443Y-112438000D01*
X120839669Y-112438000D01*
X118869071Y-110467402D01*
X118990256Y-110417205D01*
X119159774Y-110303937D01*
X119303937Y-110159774D01*
X119417205Y-109990256D01*
X119495226Y-109801898D01*
X119535000Y-109601939D01*
X119535000Y-109542630D01*
X120594706Y-108482924D01*
X120623781Y-108459063D01*
X120685124Y-108384316D01*
X120719004Y-108343034D01*
X120763507Y-108259774D01*
X120789761Y-108210656D01*
X120833333Y-108067019D01*
X120844359Y-107955067D01*
X120844359Y-107955064D01*
X120848045Y-107917641D01*
X120844359Y-107880218D01*
X120844359Y-104601393D01*
X120886296Y-104559456D01*
X120999564Y-104389938D01*
X121077585Y-104201580D01*
X121117359Y-104001621D01*
X121117359Y-103797743D01*
X121077585Y-103597784D01*
X120999564Y-103409426D01*
X120886296Y-103239908D01*
X120742133Y-103095745D01*
X120572615Y-102982477D01*
X120384257Y-102904456D01*
X120184298Y-102864682D01*
X119980420Y-102864682D01*
X119780461Y-102904456D01*
X119592103Y-102982477D01*
X119422585Y-103095745D01*
X119278422Y-103239908D01*
X119165154Y-103409426D01*
X119087133Y-103597784D01*
X119047359Y-103797743D01*
X119047359Y-104001621D01*
X119087133Y-104201580D01*
X119165154Y-104389938D01*
X119278422Y-104559456D01*
X119320360Y-104601394D01*
X119320359Y-107602011D01*
X118457370Y-108465000D01*
X118398061Y-108465000D01*
X118198102Y-108504774D01*
X118009744Y-108582795D01*
X117840226Y-108696063D01*
X117696063Y-108840226D01*
X117582795Y-109009744D01*
X117532598Y-109130929D01*
X117067357Y-108665688D01*
X117159774Y-108603937D01*
X117303937Y-108459774D01*
X117417205Y-108290256D01*
X117495226Y-108101898D01*
X117535000Y-107901939D01*
X117535000Y-107698061D01*
X117495226Y-107498102D01*
X117417205Y-107309744D01*
X117303937Y-107140226D01*
X117262000Y-107098289D01*
X117262000Y-106128909D01*
X117290256Y-106117205D01*
X117459774Y-106003937D01*
X117603937Y-105859774D01*
X117717205Y-105690256D01*
X117795226Y-105501898D01*
X117835000Y-105301939D01*
X117835000Y-105098061D01*
X117795226Y-104898102D01*
X117717205Y-104709744D01*
X117603937Y-104540226D01*
X117459774Y-104396063D01*
X117290256Y-104282795D01*
X117101898Y-104204774D01*
X116901939Y-104165000D01*
X116698061Y-104165000D01*
X116498102Y-104204774D01*
X116309744Y-104282795D01*
X116140226Y-104396063D01*
X115996063Y-104540226D01*
X115882795Y-104709744D01*
X115804774Y-104898102D01*
X115765000Y-105098061D01*
X115765000Y-105297966D01*
X115749027Y-105350622D01*
X115734314Y-105500000D01*
X115738001Y-105537433D01*
X115738000Y-107098289D01*
X115696063Y-107140226D01*
X115634312Y-107232644D01*
X114739090Y-106337422D01*
X114795226Y-106201898D01*
X114835000Y-106001939D01*
X114835000Y-105928424D01*
X115001898Y-105895226D01*
X115190256Y-105817205D01*
X115359774Y-105703937D01*
X115503937Y-105559774D01*
X115617205Y-105390256D01*
X115695226Y-105201898D01*
X115735000Y-105001939D01*
X115735000Y-104798061D01*
X115695226Y-104598102D01*
X115617205Y-104409744D01*
X115503937Y-104240226D01*
X115462000Y-104198289D01*
X115462000Y-102591297D01*
X117057140Y-100996158D01*
X117116448Y-100996158D01*
X117316407Y-100956384D01*
X117504765Y-100878363D01*
X117674283Y-100765095D01*
X117818446Y-100620932D01*
X117931714Y-100451414D01*
X118009735Y-100263056D01*
X118049509Y-100063097D01*
X118049509Y-99859219D01*
X118009735Y-99659260D01*
X117931714Y-99470902D01*
X117818446Y-99301384D01*
X117747199Y-99230137D01*
X118201650Y-98775686D01*
X118228732Y-98793782D01*
G37*
X118228732Y-98793782D02*
X118417090Y-98871803D01*
X118617049Y-98911577D01*
X118683990Y-98911577D01*
X118683989Y-100654933D01*
X118680303Y-100692356D01*
X118683989Y-100729779D01*
X118683989Y-100729781D01*
X118695015Y-100841733D01*
X118738587Y-100985370D01*
X118766274Y-101037169D01*
X118809344Y-101117748D01*
X118845554Y-101161870D01*
X118904567Y-101233778D01*
X118933643Y-101257640D01*
X121188353Y-103512351D01*
X121212211Y-103541422D01*
X121328241Y-103636645D01*
X121342712Y-103644380D01*
X124567310Y-106868979D01*
X124496063Y-106940226D01*
X124382795Y-107109744D01*
X124304774Y-107298102D01*
X124265000Y-107498061D01*
X124265000Y-107701939D01*
X124304774Y-107901898D01*
X124382795Y-108090256D01*
X124496063Y-108259774D01*
X124538001Y-108301712D01*
X124538000Y-109262576D01*
X124534314Y-109300000D01*
X124538000Y-109337423D01*
X124538000Y-109337425D01*
X124549026Y-109449377D01*
X124592598Y-109593014D01*
X124608490Y-109622745D01*
X124663355Y-109725392D01*
X124702983Y-109773678D01*
X124758578Y-109841422D01*
X124787654Y-109865284D01*
X128965000Y-114042631D01*
X128965000Y-114101939D01*
X129004774Y-114301898D01*
X129082795Y-114490256D01*
X129157385Y-114601888D01*
X127243150Y-112687654D01*
X127219288Y-112658578D01*
X127103258Y-112563355D01*
X126970881Y-112492598D01*
X126827244Y-112449026D01*
X126715292Y-112438000D01*
X126715289Y-112438000D01*
X126677866Y-112434314D01*
X126640443Y-112438000D01*
X120839669Y-112438000D01*
X118869071Y-110467402D01*
X118990256Y-110417205D01*
X119159774Y-110303937D01*
X119303937Y-110159774D01*
X119417205Y-109990256D01*
X119495226Y-109801898D01*
X119535000Y-109601939D01*
X119535000Y-109542630D01*
X120594706Y-108482924D01*
X120623781Y-108459063D01*
X120685124Y-108384316D01*
X120719004Y-108343034D01*
X120763507Y-108259774D01*
X120789761Y-108210656D01*
X120833333Y-108067019D01*
X120844359Y-107955067D01*
X120844359Y-107955064D01*
X120848045Y-107917641D01*
X120844359Y-107880218D01*
X120844359Y-104601393D01*
X120886296Y-104559456D01*
X120999564Y-104389938D01*
X121077585Y-104201580D01*
X121117359Y-104001621D01*
X121117359Y-103797743D01*
X121077585Y-103597784D01*
X120999564Y-103409426D01*
X120886296Y-103239908D01*
X120742133Y-103095745D01*
X120572615Y-102982477D01*
X120384257Y-102904456D01*
X120184298Y-102864682D01*
X119980420Y-102864682D01*
X119780461Y-102904456D01*
X119592103Y-102982477D01*
X119422585Y-103095745D01*
X119278422Y-103239908D01*
X119165154Y-103409426D01*
X119087133Y-103597784D01*
X119047359Y-103797743D01*
X119047359Y-104001621D01*
X119087133Y-104201580D01*
X119165154Y-104389938D01*
X119278422Y-104559456D01*
X119320360Y-104601394D01*
X119320359Y-107602011D01*
X118457370Y-108465000D01*
X118398061Y-108465000D01*
X118198102Y-108504774D01*
X118009744Y-108582795D01*
X117840226Y-108696063D01*
X117696063Y-108840226D01*
X117582795Y-109009744D01*
X117532598Y-109130929D01*
X117067357Y-108665688D01*
X117159774Y-108603937D01*
X117303937Y-108459774D01*
X117417205Y-108290256D01*
X117495226Y-108101898D01*
X117535000Y-107901939D01*
X117535000Y-107698061D01*
X117495226Y-107498102D01*
X117417205Y-107309744D01*
X117303937Y-107140226D01*
X117262000Y-107098289D01*
X117262000Y-106128909D01*
X117290256Y-106117205D01*
X117459774Y-106003937D01*
X117603937Y-105859774D01*
X117717205Y-105690256D01*
X117795226Y-105501898D01*
X117835000Y-105301939D01*
X117835000Y-105098061D01*
X117795226Y-104898102D01*
X117717205Y-104709744D01*
X117603937Y-104540226D01*
X117459774Y-104396063D01*
X117290256Y-104282795D01*
X117101898Y-104204774D01*
X116901939Y-104165000D01*
X116698061Y-104165000D01*
X116498102Y-104204774D01*
X116309744Y-104282795D01*
X116140226Y-104396063D01*
X115996063Y-104540226D01*
X115882795Y-104709744D01*
X115804774Y-104898102D01*
X115765000Y-105098061D01*
X115765000Y-105297966D01*
X115749027Y-105350622D01*
X115734314Y-105500000D01*
X115738001Y-105537433D01*
X115738000Y-107098289D01*
X115696063Y-107140226D01*
X115634312Y-107232644D01*
X114739090Y-106337422D01*
X114795226Y-106201898D01*
X114835000Y-106001939D01*
X114835000Y-105928424D01*
X115001898Y-105895226D01*
X115190256Y-105817205D01*
X115359774Y-105703937D01*
X115503937Y-105559774D01*
X115617205Y-105390256D01*
X115695226Y-105201898D01*
X115735000Y-105001939D01*
X115735000Y-104798061D01*
X115695226Y-104598102D01*
X115617205Y-104409744D01*
X115503937Y-104240226D01*
X115462000Y-104198289D01*
X115462000Y-102591297D01*
X117057140Y-100996158D01*
X117116448Y-100996158D01*
X117316407Y-100956384D01*
X117504765Y-100878363D01*
X117674283Y-100765095D01*
X117818446Y-100620932D01*
X117931714Y-100451414D01*
X118009735Y-100263056D01*
X118049509Y-100063097D01*
X118049509Y-99859219D01*
X118009735Y-99659260D01*
X117931714Y-99470902D01*
X117818446Y-99301384D01*
X117747199Y-99230137D01*
X118201650Y-98775686D01*
X118228732Y-98793782D01*
G36*
X168740226Y-106703937D02*
G01*
X168909744Y-106817205D01*
X169047927Y-106874443D01*
X166575316Y-109347053D01*
X166503937Y-109240226D01*
X166359774Y-109096063D01*
X166190256Y-108982795D01*
X166001898Y-108904774D01*
X165801939Y-108865000D01*
X165742631Y-108865000D01*
X165036481Y-108158851D01*
X165012619Y-108129775D01*
X164896589Y-108034552D01*
X164764212Y-107963795D01*
X164620575Y-107920223D01*
X164508623Y-107909197D01*
X164508620Y-107909197D01*
X164471197Y-107905511D01*
X164433774Y-107909197D01*
X162270558Y-107909197D01*
X162228621Y-107867260D01*
X162059103Y-107753992D01*
X161870745Y-107675971D01*
X161670786Y-107636197D01*
X161466908Y-107636197D01*
X161266949Y-107675971D01*
X161078591Y-107753992D01*
X160909073Y-107867260D01*
X160764910Y-108011423D01*
X160651642Y-108180941D01*
X160573621Y-108369299D01*
X160533847Y-108569258D01*
X160533847Y-108773136D01*
X160573621Y-108973095D01*
X160651642Y-109161453D01*
X160764910Y-109330971D01*
X160909073Y-109475134D01*
X161078591Y-109588402D01*
X161266949Y-109666423D01*
X161466908Y-109706197D01*
X161670786Y-109706197D01*
X161870745Y-109666423D01*
X162059103Y-109588402D01*
X162228621Y-109475134D01*
X162270558Y-109433197D01*
X164155567Y-109433197D01*
X164577216Y-109854847D01*
X164509744Y-109882795D01*
X164340226Y-109996063D01*
X164298289Y-110038000D01*
X156527827Y-110038000D01*
X156535000Y-110001939D01*
X156535000Y-109934999D01*
X157720215Y-109934999D01*
X157757638Y-109938685D01*
X157795061Y-109934999D01*
X157795064Y-109934999D01*
X157907016Y-109923973D01*
X158050653Y-109880401D01*
X158183030Y-109809644D01*
X158299060Y-109714421D01*
X158322922Y-109685345D01*
X161346267Y-106662000D01*
X168698289Y-106662000D01*
X168740226Y-106703937D01*
G37*
X168740226Y-106703937D02*
X168909744Y-106817205D01*
X169047927Y-106874443D01*
X166575316Y-109347053D01*
X166503937Y-109240226D01*
X166359774Y-109096063D01*
X166190256Y-108982795D01*
X166001898Y-108904774D01*
X165801939Y-108865000D01*
X165742631Y-108865000D01*
X165036481Y-108158851D01*
X165012619Y-108129775D01*
X164896589Y-108034552D01*
X164764212Y-107963795D01*
X164620575Y-107920223D01*
X164508623Y-107909197D01*
X164508620Y-107909197D01*
X164471197Y-107905511D01*
X164433774Y-107909197D01*
X162270558Y-107909197D01*
X162228621Y-107867260D01*
X162059103Y-107753992D01*
X161870745Y-107675971D01*
X161670786Y-107636197D01*
X161466908Y-107636197D01*
X161266949Y-107675971D01*
X161078591Y-107753992D01*
X160909073Y-107867260D01*
X160764910Y-108011423D01*
X160651642Y-108180941D01*
X160573621Y-108369299D01*
X160533847Y-108569258D01*
X160533847Y-108773136D01*
X160573621Y-108973095D01*
X160651642Y-109161453D01*
X160764910Y-109330971D01*
X160909073Y-109475134D01*
X161078591Y-109588402D01*
X161266949Y-109666423D01*
X161466908Y-109706197D01*
X161670786Y-109706197D01*
X161870745Y-109666423D01*
X162059103Y-109588402D01*
X162228621Y-109475134D01*
X162270558Y-109433197D01*
X164155567Y-109433197D01*
X164577216Y-109854847D01*
X164509744Y-109882795D01*
X164340226Y-109996063D01*
X164298289Y-110038000D01*
X156527827Y-110038000D01*
X156535000Y-110001939D01*
X156535000Y-109934999D01*
X157720215Y-109934999D01*
X157757638Y-109938685D01*
X157795061Y-109934999D01*
X157795064Y-109934999D01*
X157907016Y-109923973D01*
X158050653Y-109880401D01*
X158183030Y-109809644D01*
X158299060Y-109714421D01*
X158322922Y-109685345D01*
X161346267Y-106662000D01*
X168698289Y-106662000D01*
X168740226Y-106703937D01*
G36*
X172257106Y-61772132D02*
G01*
X171920919Y-62241314D01*
X174300000Y-64620395D01*
X176679081Y-62241314D01*
X176342894Y-61772132D01*
X176320440Y-61760000D01*
X177341054Y-61760000D01*
X177342683Y-62779279D01*
X177327868Y-62757106D01*
X176858686Y-62420919D01*
X174479605Y-64800000D01*
X176858686Y-67179081D01*
X177327868Y-66842894D01*
X177349111Y-66803577D01*
X177381700Y-87204070D01*
X177062000Y-86884370D01*
X177062000Y-84401711D01*
X177103937Y-84359774D01*
X177217205Y-84190256D01*
X177295226Y-84001898D01*
X177335000Y-83801939D01*
X177335000Y-83598061D01*
X177295226Y-83398102D01*
X177217205Y-83209744D01*
X177103937Y-83040226D01*
X177062000Y-82998289D01*
X177062000Y-77237422D01*
X177065686Y-77199999D01*
X177062000Y-77162574D01*
X177050974Y-77050622D01*
X177007402Y-76906985D01*
X176936645Y-76774608D01*
X176841422Y-76658578D01*
X176812353Y-76634722D01*
X168335000Y-68157370D01*
X168335000Y-68098061D01*
X168295226Y-67898102D01*
X168217205Y-67709744D01*
X168162542Y-67627935D01*
X168198061Y-67635000D01*
X168401939Y-67635000D01*
X168601898Y-67595226D01*
X168790256Y-67517205D01*
X168959774Y-67403937D01*
X169005025Y-67358686D01*
X171920919Y-67358686D01*
X172257106Y-67827868D01*
X172887068Y-68168237D01*
X173571327Y-68379166D01*
X174283589Y-68452550D01*
X174996482Y-68385569D01*
X175682609Y-68180796D01*
X176315603Y-67846102D01*
X176342894Y-67827868D01*
X176679081Y-67358686D01*
X174300000Y-64979605D01*
X171920919Y-67358686D01*
X169005025Y-67358686D01*
X169103937Y-67259774D01*
X169217205Y-67090256D01*
X169295226Y-66901898D01*
X169335000Y-66701939D01*
X169335000Y-66498061D01*
X169295226Y-66298102D01*
X169217205Y-66109744D01*
X169103937Y-65940226D01*
X168959774Y-65796063D01*
X168790256Y-65682795D01*
X168601898Y-65604774D01*
X168401939Y-65565000D01*
X168198061Y-65565000D01*
X167998102Y-65604774D01*
X167809744Y-65682795D01*
X167780180Y-65702549D01*
X166861220Y-64783589D01*
X170647450Y-64783589D01*
X170714431Y-65496482D01*
X170919204Y-66182609D01*
X171253898Y-66815603D01*
X171272132Y-66842894D01*
X171741314Y-67179081D01*
X174120395Y-64800000D01*
X171741314Y-62420919D01*
X171272132Y-62757106D01*
X170931763Y-63387068D01*
X170720834Y-64071327D01*
X170647450Y-64783589D01*
X166861220Y-64783589D01*
X165720066Y-63642436D01*
X165696204Y-63613360D01*
X165580174Y-63518137D01*
X165447797Y-63447380D01*
X165304160Y-63403808D01*
X165192208Y-63392782D01*
X165192205Y-63392782D01*
X165154782Y-63389096D01*
X165117359Y-63392782D01*
X162055768Y-63392782D01*
X162013831Y-63350845D01*
X161844313Y-63237577D01*
X161655955Y-63159556D01*
X161455996Y-63119782D01*
X161252118Y-63119782D01*
X161052159Y-63159556D01*
X160863801Y-63237577D01*
X160694283Y-63350845D01*
X160550120Y-63495008D01*
X160436852Y-63664526D01*
X160358831Y-63852884D01*
X160319057Y-64052843D01*
X160319057Y-64256721D01*
X160358831Y-64456680D01*
X160436852Y-64645038D01*
X160550120Y-64814556D01*
X160694283Y-64958719D01*
X160863801Y-65071987D01*
X161052159Y-65150008D01*
X161252118Y-65189782D01*
X161455996Y-65189782D01*
X161655955Y-65150008D01*
X161844313Y-65071987D01*
X162013831Y-64958719D01*
X162055768Y-64916782D01*
X164839152Y-64916782D01*
X167034721Y-67112352D01*
X167058578Y-67141422D01*
X167108915Y-67182732D01*
X166998102Y-67204774D01*
X166809744Y-67282795D01*
X166640226Y-67396063D01*
X166496063Y-67540226D01*
X166382795Y-67709744D01*
X166370393Y-67739685D01*
X166303937Y-67640226D01*
X166159774Y-67496063D01*
X165990256Y-67382795D01*
X165801898Y-67304774D01*
X165601939Y-67265000D01*
X165398061Y-67265000D01*
X165198102Y-67304774D01*
X165009744Y-67382795D01*
X164840226Y-67496063D01*
X164696063Y-67640226D01*
X164582795Y-67809744D01*
X164504774Y-67998102D01*
X164465000Y-68198061D01*
X164465000Y-68401939D01*
X164504774Y-68601898D01*
X164582795Y-68790256D01*
X164696063Y-68959774D01*
X164840226Y-69103937D01*
X165009744Y-69217205D01*
X165198102Y-69295226D01*
X165398061Y-69335000D01*
X165457370Y-69335000D01*
X168147053Y-72024684D01*
X168040226Y-72096063D01*
X167896063Y-72240226D01*
X167782795Y-72409744D01*
X167704774Y-72598102D01*
X167665000Y-72798061D01*
X167665000Y-73001939D01*
X167704774Y-73201898D01*
X167782795Y-73390256D01*
X167896063Y-73559774D01*
X168040226Y-73703937D01*
X168209744Y-73817205D01*
X168398102Y-73895226D01*
X168598061Y-73935000D01*
X168657370Y-73935000D01*
X172713321Y-77990952D01*
X172713321Y-78382672D01*
X172680046Y-78363364D01*
X172538017Y-78314805D01*
X172426518Y-78299879D01*
X172426516Y-78299879D01*
X172389243Y-78294889D01*
X172351711Y-78297267D01*
X167892312Y-78141541D01*
X167825464Y-78074693D01*
X167655946Y-77961425D01*
X167467588Y-77883404D01*
X167267629Y-77843630D01*
X167063751Y-77843630D01*
X166863792Y-77883404D01*
X166675434Y-77961425D01*
X166505916Y-78074693D01*
X166361753Y-78218856D01*
X166248485Y-78388374D01*
X166170464Y-78576732D01*
X166130690Y-78776691D01*
X166130690Y-78980569D01*
X166170464Y-79180528D01*
X166248485Y-79368886D01*
X166361753Y-79538404D01*
X166505916Y-79682567D01*
X166675434Y-79795835D01*
X166863792Y-79873856D01*
X167063751Y-79913630D01*
X167267629Y-79913630D01*
X167467588Y-79873856D01*
X167655946Y-79795835D01*
X167825464Y-79682567D01*
X167843275Y-79664756D01*
X171763839Y-79801665D01*
X171831114Y-79964080D01*
X171944382Y-80133598D01*
X172015629Y-80204845D01*
X169587650Y-82632825D01*
X169558580Y-82656682D01*
X169534723Y-82685752D01*
X169534722Y-82685753D01*
X169463356Y-82772712D01*
X169392600Y-82905089D01*
X169349028Y-83048726D01*
X169334315Y-83198104D01*
X169338002Y-83235537D01*
X169338001Y-90462578D01*
X169334315Y-90500001D01*
X169338001Y-90537424D01*
X169338001Y-90537426D01*
X169349027Y-90649378D01*
X169392599Y-90793015D01*
X169419521Y-90843383D01*
X169463356Y-90925393D01*
X169465000Y-90927396D01*
X169465000Y-91001939D01*
X169504774Y-91201898D01*
X169582795Y-91390256D01*
X169696063Y-91559774D01*
X169840226Y-91703937D01*
X170009744Y-91817205D01*
X170198102Y-91895226D01*
X170398061Y-91935000D01*
X170601939Y-91935000D01*
X170801898Y-91895226D01*
X170990256Y-91817205D01*
X171159774Y-91703937D01*
X171303937Y-91559774D01*
X171417205Y-91390256D01*
X171495226Y-91201898D01*
X171515746Y-91098736D01*
X171698061Y-91135000D01*
X171901939Y-91135000D01*
X172101898Y-91095226D01*
X172290256Y-91017205D01*
X172459774Y-90903937D01*
X172603937Y-90759774D01*
X172717205Y-90590256D01*
X172795226Y-90401898D01*
X172835000Y-90201939D01*
X172835000Y-89998061D01*
X172795226Y-89798102D01*
X172717205Y-89609744D01*
X172603937Y-89440226D01*
X172562000Y-89398289D01*
X172562000Y-87484672D01*
X172565686Y-87447249D01*
X172560120Y-87390739D01*
X172550974Y-87297871D01*
X172507402Y-87154234D01*
X172458826Y-87063355D01*
X172436645Y-87021856D01*
X172365279Y-86934897D01*
X172341422Y-86905827D01*
X172312351Y-86881969D01*
X172018407Y-86588025D01*
X172018407Y-86528717D01*
X171978633Y-86328758D01*
X171900612Y-86140400D01*
X171787344Y-85970882D01*
X171643181Y-85826719D01*
X171473663Y-85713451D01*
X171285305Y-85635430D01*
X171085346Y-85595656D01*
X170881468Y-85595656D01*
X170862001Y-85599528D01*
X170862001Y-83513734D01*
X173987673Y-80388063D01*
X174016742Y-80364207D01*
X174058233Y-80313650D01*
X174111965Y-80248178D01*
X174153447Y-80170569D01*
X174182722Y-80115800D01*
X174226294Y-79972163D01*
X174237320Y-79860211D01*
X174237320Y-79860208D01*
X174241006Y-79822785D01*
X174237320Y-79785362D01*
X174237320Y-78114951D01*
X174538000Y-78415631D01*
X174538001Y-83998288D01*
X174496063Y-84040226D01*
X174382795Y-84209744D01*
X174304774Y-84398102D01*
X174265000Y-84598061D01*
X174265000Y-84801939D01*
X174304774Y-85001898D01*
X174382795Y-85190256D01*
X174496063Y-85359774D01*
X174538000Y-85401711D01*
X174538001Y-87462565D01*
X174538000Y-87462575D01*
X174538000Y-87662577D01*
X174534314Y-87700000D01*
X174538000Y-87737423D01*
X174538000Y-87737426D01*
X174549026Y-87849378D01*
X174592598Y-87993015D01*
X174663355Y-88125392D01*
X174758578Y-88241422D01*
X174787652Y-88265283D01*
X176038000Y-89515631D01*
X176038000Y-93858201D01*
X175946102Y-93684397D01*
X175927868Y-93657106D01*
X175458686Y-93320919D01*
X173079605Y-95700000D01*
X175458686Y-98079081D01*
X175927868Y-97742894D01*
X176038001Y-97539058D01*
X176038001Y-99884368D01*
X170374443Y-105547927D01*
X170317205Y-105409744D01*
X170203937Y-105240226D01*
X170059774Y-105096063D01*
X169890256Y-104982795D01*
X169701898Y-104904774D01*
X169501939Y-104865000D01*
X169298061Y-104865000D01*
X169098102Y-104904774D01*
X168909744Y-104982795D01*
X168804202Y-105053315D01*
X168805198Y-105050912D01*
X168844972Y-104850953D01*
X168844972Y-104647075D01*
X168805198Y-104447116D01*
X168727177Y-104258758D01*
X168613909Y-104089240D01*
X168573440Y-104048771D01*
X168573310Y-104047165D01*
X168532251Y-103902789D01*
X168463816Y-103769198D01*
X168393979Y-103681007D01*
X168393974Y-103681001D01*
X168370632Y-103651525D01*
X168341988Y-103627168D01*
X165242621Y-100417681D01*
X165242621Y-100340909D01*
X165202847Y-100140950D01*
X165124826Y-99952592D01*
X165011558Y-99783074D01*
X164867395Y-99638911D01*
X164697877Y-99525643D01*
X164509519Y-99447622D01*
X164309560Y-99407848D01*
X164105682Y-99407848D01*
X163905723Y-99447622D01*
X163717365Y-99525643D01*
X163547847Y-99638911D01*
X163403684Y-99783074D01*
X163290416Y-99952592D01*
X163212395Y-100140950D01*
X163172621Y-100340909D01*
X163172621Y-100544787D01*
X163212395Y-100744746D01*
X163290416Y-100933104D01*
X163403684Y-101102622D01*
X163547847Y-101246785D01*
X163717365Y-101360053D01*
X163905723Y-101438074D01*
X164105682Y-101477848D01*
X164147805Y-101477848D01*
X166874916Y-104301855D01*
X166814746Y-104447116D01*
X166774972Y-104647075D01*
X166774972Y-104850953D01*
X166814746Y-105050912D01*
X166850819Y-105138000D01*
X161882147Y-105138000D01*
X161919919Y-105101523D01*
X162016575Y-105061487D01*
X162186093Y-104948219D01*
X162215878Y-104918434D01*
X162606801Y-104925258D01*
X162644154Y-104929596D01*
X162681635Y-104926564D01*
X162681638Y-104926564D01*
X162773011Y-104919172D01*
X162793766Y-104917493D01*
X162852798Y-104900705D01*
X162938141Y-104876435D01*
X163008314Y-104840487D01*
X163071733Y-104807999D01*
X163159924Y-104738162D01*
X163159925Y-104738161D01*
X163189407Y-104714815D01*
X163213768Y-104686166D01*
X163905562Y-104018108D01*
X163982334Y-104018108D01*
X164182293Y-103978334D01*
X164370651Y-103900313D01*
X164540169Y-103787045D01*
X164684332Y-103642882D01*
X164797600Y-103473364D01*
X164875621Y-103285006D01*
X164915395Y-103085047D01*
X164915395Y-102881169D01*
X164875621Y-102681210D01*
X164797600Y-102492852D01*
X164684332Y-102323334D01*
X164540169Y-102179171D01*
X164370651Y-102065903D01*
X164182293Y-101987882D01*
X163982334Y-101948108D01*
X163778456Y-101948108D01*
X163578497Y-101987882D01*
X163390139Y-102065903D01*
X163220621Y-102179171D01*
X163076458Y-102323334D01*
X162963190Y-102492852D01*
X162885169Y-102681210D01*
X162845395Y-102881169D01*
X162845395Y-102923291D01*
X162355234Y-103396635D01*
X162240378Y-103394630D01*
X162186093Y-103340345D01*
X162016575Y-103227077D01*
X161828217Y-103149056D01*
X161628258Y-103109282D01*
X161424380Y-103109282D01*
X161224421Y-103149056D01*
X161036063Y-103227077D01*
X160866545Y-103340345D01*
X160722382Y-103484508D01*
X160609114Y-103654026D01*
X160531093Y-103842384D01*
X160491319Y-104042343D01*
X160491319Y-104246221D01*
X160510721Y-104343762D01*
X158762724Y-106031784D01*
X158685952Y-106031784D01*
X158485993Y-106071558D01*
X158297635Y-106149579D01*
X158128117Y-106262847D01*
X157983954Y-106407010D01*
X157870686Y-106576528D01*
X157792665Y-106764886D01*
X157752891Y-106964845D01*
X157752891Y-107168723D01*
X157792665Y-107368682D01*
X157870686Y-107557040D01*
X157983954Y-107726558D01*
X158055202Y-107797806D01*
X157442008Y-108410999D01*
X148838188Y-108410999D01*
X148931704Y-108317483D01*
X149044972Y-108147965D01*
X149122993Y-107959607D01*
X149162767Y-107759648D01*
X149162767Y-107555770D01*
X149122993Y-107355811D01*
X149044972Y-107167453D01*
X148931704Y-106997935D01*
X148787541Y-106853772D01*
X148618023Y-106740504D01*
X148511675Y-106696453D01*
X148769281Y-106696453D01*
X148806704Y-106700139D01*
X148844127Y-106696453D01*
X148844130Y-106696453D01*
X148956082Y-106685427D01*
X149099719Y-106641855D01*
X149232096Y-106571098D01*
X149348126Y-106475875D01*
X149371988Y-106446799D01*
X150583174Y-105235614D01*
X150948946Y-105798856D01*
X150966236Y-105832247D01*
X150989707Y-105861622D01*
X150989710Y-105861627D01*
X151059930Y-105949513D01*
X151174703Y-106046246D01*
X151215770Y-106068893D01*
X151288613Y-106177910D01*
X151432776Y-106322073D01*
X151602294Y-106435341D01*
X151790652Y-106513362D01*
X151990611Y-106553136D01*
X152194489Y-106553136D01*
X152394448Y-106513362D01*
X152582806Y-106435341D01*
X152752324Y-106322073D01*
X152896487Y-106177910D01*
X153009755Y-106008392D01*
X153087776Y-105820034D01*
X153127550Y-105620075D01*
X153127550Y-105416197D01*
X153087776Y-105216238D01*
X153009755Y-105027880D01*
X152896487Y-104858362D01*
X152752324Y-104714199D01*
X152582806Y-104600931D01*
X152394448Y-104522910D01*
X152194489Y-104483136D01*
X151995455Y-104483136D01*
X153925669Y-102552923D01*
X154507209Y-103155127D01*
X154530553Y-103184607D01*
X154559200Y-103208966D01*
X154559202Y-103208968D01*
X154644902Y-103281841D01*
X154776023Y-103354897D01*
X154776025Y-103354898D01*
X154820371Y-103369200D01*
X154916465Y-103465294D01*
X155085983Y-103578562D01*
X155274341Y-103656583D01*
X155474300Y-103696357D01*
X155678178Y-103696357D01*
X155878137Y-103656583D01*
X156066495Y-103578562D01*
X156236013Y-103465294D01*
X156380176Y-103321131D01*
X156493444Y-103151613D01*
X156571465Y-102963255D01*
X156611239Y-102763296D01*
X156611239Y-102559418D01*
X156571465Y-102359459D01*
X156493444Y-102171101D01*
X156380176Y-102001583D01*
X156236013Y-101857420D01*
X156066495Y-101744152D01*
X155878137Y-101666131D01*
X155678178Y-101626357D01*
X155474300Y-101626357D01*
X155274341Y-101666131D01*
X155212606Y-101691703D01*
X155003463Y-101475128D01*
X156967431Y-99511160D01*
X157495655Y-99881028D01*
X157524192Y-99905509D01*
X157556956Y-99923952D01*
X157556962Y-99923956D01*
X157654992Y-99979137D01*
X157797644Y-100025832D01*
X157843560Y-100031368D01*
X157960568Y-100109550D01*
X158148926Y-100187571D01*
X158348885Y-100227345D01*
X158552763Y-100227345D01*
X158752722Y-100187571D01*
X158941080Y-100109550D01*
X159110598Y-99996282D01*
X159254761Y-99852119D01*
X159368029Y-99682601D01*
X159446050Y-99494243D01*
X159485824Y-99294284D01*
X159485824Y-99090406D01*
X159446050Y-98890447D01*
X159368029Y-98702089D01*
X159254761Y-98532571D01*
X159110598Y-98388408D01*
X158941080Y-98275140D01*
X158879251Y-98249529D01*
X164906441Y-98249529D01*
X164906441Y-98453407D01*
X164946215Y-98653366D01*
X165024236Y-98841724D01*
X165137504Y-99011242D01*
X165281667Y-99155405D01*
X165451185Y-99268673D01*
X165639543Y-99346694D01*
X165839502Y-99386468D01*
X166043380Y-99386468D01*
X166243339Y-99346694D01*
X166431697Y-99268673D01*
X166601215Y-99155405D01*
X166745378Y-99011242D01*
X166858646Y-98841724D01*
X166936667Y-98653366D01*
X166976441Y-98453407D01*
X166976441Y-98411284D01*
X167134461Y-98258686D01*
X170520919Y-98258686D01*
X170857106Y-98727868D01*
X171487068Y-99068237D01*
X172171327Y-99279166D01*
X172883589Y-99352550D01*
X173596482Y-99285569D01*
X174282609Y-99080796D01*
X174915603Y-98746102D01*
X174942894Y-98727868D01*
X175279081Y-98258686D01*
X172900000Y-95879605D01*
X170520919Y-98258686D01*
X167134461Y-98258686D01*
X167882535Y-97536280D01*
X167912010Y-97512939D01*
X167936364Y-97484298D01*
X167936372Y-97484290D01*
X168009244Y-97398590D01*
X168082300Y-97267468D01*
X168128372Y-97124613D01*
X168145689Y-96975514D01*
X168142656Y-96938027D01*
X168164552Y-95683589D01*
X169247450Y-95683589D01*
X169314431Y-96396482D01*
X169519204Y-97082609D01*
X169853898Y-97715603D01*
X169872132Y-97742894D01*
X170341314Y-98079081D01*
X172720395Y-95700000D01*
X170341314Y-93320919D01*
X169872132Y-93657106D01*
X169531763Y-94287068D01*
X169320834Y-94971327D01*
X169247450Y-95683589D01*
X168164552Y-95683589D01*
X168208929Y-93141314D01*
X170520919Y-93141314D01*
X172900000Y-95520395D01*
X175279081Y-93141314D01*
X174942894Y-92672132D01*
X174312932Y-92331763D01*
X173628673Y-92120834D01*
X172916411Y-92047450D01*
X172203518Y-92114431D01*
X171517391Y-92319204D01*
X170884397Y-92653898D01*
X170857106Y-92672132D01*
X170520919Y-93141314D01*
X168208929Y-93141314D01*
X168221094Y-92444417D01*
X168275379Y-92390132D01*
X168388647Y-92220614D01*
X168466668Y-92032256D01*
X168506442Y-91832297D01*
X168506442Y-91628419D01*
X168466668Y-91428460D01*
X168388647Y-91240102D01*
X168275379Y-91070584D01*
X168131216Y-90926421D01*
X167961698Y-90813153D01*
X167773340Y-90735132D01*
X167573381Y-90695358D01*
X167369503Y-90695358D01*
X167169544Y-90735132D01*
X166981186Y-90813153D01*
X166811668Y-90926421D01*
X166667505Y-91070584D01*
X166554237Y-91240102D01*
X166476216Y-91428460D01*
X166436442Y-91628419D01*
X166436442Y-91832297D01*
X166476216Y-92032256D01*
X166554237Y-92220614D01*
X166667505Y-92390132D01*
X166697290Y-92419917D01*
X166623745Y-96633270D01*
X165916273Y-97316468D01*
X165839502Y-97316468D01*
X165639543Y-97356242D01*
X165451185Y-97434263D01*
X165281667Y-97547531D01*
X165137504Y-97691694D01*
X165024236Y-97861212D01*
X164946215Y-98049570D01*
X164906441Y-98249529D01*
X158879251Y-98249529D01*
X158752722Y-98197119D01*
X158552763Y-98157345D01*
X158348885Y-98157345D01*
X158148926Y-98197119D01*
X157960568Y-98275140D01*
X157908709Y-98309791D01*
X157806041Y-98237901D01*
X159114748Y-96974098D01*
X159144227Y-96950754D01*
X159174341Y-96915339D01*
X159241460Y-96836405D01*
X159314516Y-96705284D01*
X159322179Y-96681526D01*
X159341238Y-96622429D01*
X159360589Y-96562429D01*
X159377906Y-96413330D01*
X159374873Y-96375843D01*
X159383019Y-95909217D01*
X159804459Y-96096856D01*
X159837148Y-96115444D01*
X159872833Y-96127297D01*
X159872834Y-96127298D01*
X159979592Y-96162760D01*
X159979594Y-96162760D01*
X159979596Y-96162761D01*
X160054065Y-96172069D01*
X160128533Y-96181378D01*
X160128537Y-96181378D01*
X160174264Y-96178080D01*
X160308778Y-96233798D01*
X160508737Y-96273572D01*
X160712615Y-96273572D01*
X160912574Y-96233798D01*
X161100932Y-96155777D01*
X161270450Y-96042509D01*
X161414613Y-95898346D01*
X161527881Y-95728828D01*
X161605902Y-95540470D01*
X161645676Y-95340511D01*
X161645676Y-95136633D01*
X161605902Y-94936674D01*
X161527881Y-94748316D01*
X161414613Y-94578798D01*
X161270450Y-94434635D01*
X161100932Y-94321367D01*
X160912574Y-94243346D01*
X160712615Y-94203572D01*
X160508737Y-94203572D01*
X160308778Y-94243346D01*
X160218947Y-94280555D01*
X160404397Y-94101469D01*
X160433877Y-94078124D01*
X160458238Y-94049475D01*
X160531111Y-93963775D01*
X160604167Y-93832653D01*
X160650239Y-93689798D01*
X160667556Y-93540699D01*
X160664523Y-93503212D01*
X160694418Y-91790594D01*
X161348790Y-91941668D01*
X161384428Y-91953679D01*
X161466251Y-91964270D01*
X161533284Y-91972947D01*
X161533287Y-91972947D01*
X161683044Y-91962803D01*
X161726867Y-91950958D01*
X161874491Y-91980322D01*
X162078369Y-91980322D01*
X162278328Y-91940548D01*
X162466686Y-91862527D01*
X162636204Y-91749259D01*
X162780367Y-91605096D01*
X162893635Y-91435578D01*
X162971656Y-91247220D01*
X163011430Y-91047261D01*
X163011430Y-90843383D01*
X162971656Y-90643424D01*
X162893635Y-90455066D01*
X162780367Y-90285548D01*
X162636204Y-90141385D01*
X162466686Y-90028117D01*
X162278328Y-89950096D01*
X162078369Y-89910322D01*
X161874491Y-89910322D01*
X161674532Y-89950096D01*
X161486174Y-90028117D01*
X161316656Y-90141385D01*
X161172493Y-90285548D01*
X161142778Y-90330020D01*
X160802932Y-90251560D01*
X160752894Y-90176672D01*
X160710957Y-90134735D01*
X160710957Y-87761047D01*
X160788801Y-87745563D01*
X160977159Y-87667542D01*
X161146677Y-87554274D01*
X161164487Y-87536464D01*
X162071902Y-87568153D01*
X162109179Y-87573143D01*
X162258979Y-87563653D01*
X162357719Y-87537426D01*
X162404047Y-87525121D01*
X162422598Y-87516023D01*
X162444354Y-87505353D01*
X162599839Y-87505353D01*
X162799798Y-87465579D01*
X162988156Y-87387558D01*
X163157674Y-87274290D01*
X163301837Y-87130127D01*
X163415105Y-86960609D01*
X163493126Y-86772251D01*
X163532900Y-86572292D01*
X163532900Y-86368414D01*
X163493126Y-86168455D01*
X163415105Y-85980097D01*
X163301837Y-85810579D01*
X163157674Y-85666416D01*
X162988156Y-85553148D01*
X162799798Y-85475127D01*
X162599839Y-85435353D01*
X162395961Y-85435353D01*
X162196002Y-85475127D01*
X162007644Y-85553148D01*
X161838126Y-85666416D01*
X161693963Y-85810579D01*
X161580695Y-85980097D01*
X161561923Y-86025416D01*
X161248903Y-86014484D01*
X161248903Y-83301869D01*
X166773155Y-83301869D01*
X166773155Y-83505747D01*
X166812929Y-83705706D01*
X166890950Y-83894064D01*
X167004218Y-84063582D01*
X167148381Y-84207745D01*
X167216157Y-84253032D01*
X167131346Y-86681730D01*
X167064498Y-86748578D01*
X166951230Y-86918096D01*
X166873209Y-87106454D01*
X166833435Y-87306413D01*
X166833435Y-87510291D01*
X166873209Y-87710250D01*
X166951230Y-87898608D01*
X167064498Y-88068126D01*
X167208661Y-88212289D01*
X167378179Y-88325557D01*
X167566537Y-88403578D01*
X167766496Y-88443352D01*
X167970374Y-88443352D01*
X168170333Y-88403578D01*
X168358691Y-88325557D01*
X168528209Y-88212289D01*
X168672372Y-88068126D01*
X168785640Y-87898608D01*
X168863661Y-87710250D01*
X168903435Y-87510291D01*
X168903435Y-87306413D01*
X168863661Y-87106454D01*
X168785640Y-86918096D01*
X168672372Y-86748578D01*
X168654561Y-86730767D01*
X168756222Y-83819557D01*
X168803381Y-83705706D01*
X168843155Y-83505747D01*
X168843155Y-83480558D01*
X169127901Y-83215028D01*
X169157783Y-83192202D01*
X169182637Y-83163986D01*
X169182641Y-83163982D01*
X169256998Y-83079567D01*
X169332331Y-82949740D01*
X169380890Y-82807711D01*
X169400807Y-82658937D01*
X169398429Y-82621398D01*
X169432006Y-81659873D01*
X169498854Y-81593025D01*
X169612122Y-81423507D01*
X169690143Y-81235149D01*
X169729917Y-81035190D01*
X169729917Y-80831312D01*
X169690143Y-80631353D01*
X169612122Y-80442995D01*
X169498854Y-80273477D01*
X169354691Y-80129314D01*
X169185173Y-80016046D01*
X168996815Y-79938025D01*
X168796856Y-79898251D01*
X168592978Y-79898251D01*
X168393019Y-79938025D01*
X168204661Y-80016046D01*
X168035143Y-80129314D01*
X167890980Y-80273477D01*
X167777712Y-80442995D01*
X167699691Y-80631353D01*
X167659917Y-80831312D01*
X167659917Y-81035190D01*
X167699691Y-81235149D01*
X167777712Y-81423507D01*
X167890980Y-81593025D01*
X167908791Y-81610836D01*
X167885068Y-82290183D01*
X167800752Y-82368808D01*
X167706216Y-82368808D01*
X167506257Y-82408582D01*
X167317899Y-82486603D01*
X167148381Y-82599871D01*
X167004218Y-82744034D01*
X166890950Y-82913552D01*
X166812929Y-83101910D01*
X166773155Y-83301869D01*
X161248903Y-83301869D01*
X161248903Y-83247617D01*
X161947228Y-83137015D01*
X161984768Y-83134801D01*
X162021152Y-83125306D01*
X162021155Y-83125306D01*
X162130004Y-83096902D01*
X162265056Y-83031397D01*
X162265058Y-83031396D01*
X162300405Y-83004639D01*
X162457823Y-82973327D01*
X162646181Y-82895306D01*
X162815699Y-82782038D01*
X162959862Y-82637875D01*
X163073130Y-82468357D01*
X163151151Y-82279999D01*
X163190925Y-82080040D01*
X163190925Y-81876162D01*
X163151151Y-81676203D01*
X163073130Y-81487845D01*
X162959862Y-81318327D01*
X162815699Y-81174164D01*
X162646181Y-81060896D01*
X162457823Y-80982875D01*
X162257864Y-80943101D01*
X162053986Y-80943101D01*
X161854027Y-80982875D01*
X161665669Y-81060896D01*
X161496151Y-81174164D01*
X161351988Y-81318327D01*
X161238720Y-81487845D01*
X161160699Y-81676203D01*
X161151993Y-81719970D01*
X161029094Y-81739435D01*
X161092587Y-79921232D01*
X161097577Y-79883956D01*
X161088087Y-79734155D01*
X161061074Y-79632457D01*
X161049555Y-79589087D01*
X161031239Y-79551741D01*
X160983460Y-79454319D01*
X160915173Y-79364923D01*
X160915169Y-79364919D01*
X160892345Y-79335039D01*
X160864130Y-79310187D01*
X160545837Y-78968859D01*
X160979336Y-78811079D01*
X161015767Y-78801742D01*
X161082683Y-78769645D01*
X161151104Y-78736827D01*
X161271176Y-78646756D01*
X161300359Y-78614203D01*
X161453327Y-78550841D01*
X161622845Y-78437573D01*
X161767008Y-78293410D01*
X161880276Y-78123892D01*
X161958297Y-77935534D01*
X161998071Y-77735575D01*
X161998071Y-77531697D01*
X161958297Y-77331738D01*
X161880276Y-77143380D01*
X161767008Y-76973862D01*
X161622845Y-76829699D01*
X161453327Y-76716431D01*
X161264969Y-76638410D01*
X161065010Y-76598636D01*
X160861132Y-76598636D01*
X160661173Y-76638410D01*
X160472815Y-76716431D01*
X160303297Y-76829699D01*
X160159134Y-76973862D01*
X160045866Y-77143380D01*
X160015814Y-77215932D01*
X160024787Y-76958970D01*
X160029777Y-76921694D01*
X160020287Y-76771893D01*
X159981754Y-76626822D01*
X159915661Y-76492057D01*
X159847374Y-76402661D01*
X159847373Y-76402660D01*
X159824545Y-76372775D01*
X159796326Y-76347918D01*
X158628143Y-75095195D01*
X159203814Y-74749299D01*
X159237784Y-74733187D01*
X159267955Y-74710760D01*
X159267964Y-74710754D01*
X159358247Y-74643643D01*
X159458926Y-74532316D01*
X159480054Y-74496979D01*
X159481018Y-74495366D01*
X159622944Y-74400535D01*
X159767107Y-74256372D01*
X159880375Y-74086854D01*
X159958396Y-73898496D01*
X159998170Y-73698537D01*
X159998170Y-73494659D01*
X159958396Y-73294700D01*
X159880375Y-73106342D01*
X159767107Y-72936824D01*
X159622944Y-72792661D01*
X159453426Y-72679393D01*
X159265068Y-72601372D01*
X159065109Y-72561598D01*
X158861231Y-72561598D01*
X158661272Y-72601372D01*
X158472914Y-72679393D01*
X158303396Y-72792661D01*
X158159233Y-72936824D01*
X158045965Y-73106342D01*
X157967944Y-73294700D01*
X157929504Y-73487952D01*
X156084221Y-71642669D01*
X156685869Y-71100943D01*
X156716148Y-71078640D01*
X156778262Y-71010557D01*
X156817313Y-70967754D01*
X156894901Y-70839262D01*
X156895915Y-70836459D01*
X156909288Y-70799464D01*
X157033647Y-70675105D01*
X157146915Y-70505587D01*
X157224936Y-70317229D01*
X157239858Y-70242210D01*
X162426283Y-70242210D01*
X162426283Y-70446088D01*
X162466057Y-70646047D01*
X162544078Y-70834405D01*
X162657346Y-71003923D01*
X162801509Y-71148086D01*
X162971027Y-71261354D01*
X163159385Y-71339375D01*
X163359344Y-71379149D01*
X163384533Y-71379149D01*
X166257350Y-74459870D01*
X166223012Y-75443183D01*
X166156164Y-75510031D01*
X166042896Y-75679549D01*
X165964875Y-75867907D01*
X165925101Y-76067866D01*
X165925101Y-76271744D01*
X165964875Y-76471703D01*
X166042896Y-76660061D01*
X166156164Y-76829579D01*
X166300327Y-76973742D01*
X166469845Y-77087010D01*
X166658203Y-77165031D01*
X166858162Y-77204805D01*
X167062040Y-77204805D01*
X167261999Y-77165031D01*
X167450357Y-77087010D01*
X167619875Y-76973742D01*
X167764038Y-76829579D01*
X167877306Y-76660061D01*
X167955327Y-76471703D01*
X167995101Y-76271744D01*
X167995101Y-76067866D01*
X167955327Y-75867907D01*
X167877306Y-75679549D01*
X167764038Y-75510031D01*
X167746227Y-75492220D01*
X167790129Y-74235022D01*
X167795119Y-74197746D01*
X167785629Y-74047945D01*
X167764139Y-73967039D01*
X167747097Y-73902876D01*
X167731506Y-73871086D01*
X167681003Y-73768109D01*
X167612716Y-73678712D01*
X167612707Y-73678702D01*
X167589887Y-73648828D01*
X167561678Y-73623981D01*
X164496283Y-70336746D01*
X164496283Y-70242210D01*
X164456509Y-70042251D01*
X164378488Y-69853893D01*
X164265220Y-69684375D01*
X164121057Y-69540212D01*
X163951539Y-69426944D01*
X163763181Y-69348923D01*
X163563222Y-69309149D01*
X163359344Y-69309149D01*
X163159385Y-69348923D01*
X162971027Y-69426944D01*
X162801509Y-69540212D01*
X162657346Y-69684375D01*
X162544078Y-69853893D01*
X162466057Y-70042251D01*
X162426283Y-70242210D01*
X157239858Y-70242210D01*
X157264710Y-70117270D01*
X157264710Y-69913392D01*
X157224936Y-69713433D01*
X157146915Y-69525075D01*
X157033647Y-69355557D01*
X156889484Y-69211394D01*
X156719966Y-69098126D01*
X156531608Y-69020105D01*
X156331649Y-68980331D01*
X156127771Y-68980331D01*
X155927812Y-69020105D01*
X155739454Y-69098126D01*
X155569936Y-69211394D01*
X155425773Y-69355557D01*
X155312505Y-69525075D01*
X155234484Y-69713433D01*
X155194710Y-69913392D01*
X155194710Y-70117270D01*
X155234484Y-70317229D01*
X155246492Y-70346220D01*
X154988307Y-70578691D01*
X154875674Y-70578691D01*
X154675715Y-70618465D01*
X154487357Y-70696486D01*
X154317839Y-70809754D01*
X154173676Y-70953917D01*
X154060408Y-71123435D01*
X153982387Y-71311793D01*
X153942613Y-71511752D01*
X153942613Y-71715630D01*
X153954727Y-71776531D01*
X153511700Y-71299796D01*
X153496924Y-71285252D01*
X153482535Y-71270326D01*
X153469847Y-71258597D01*
X152147485Y-70067986D01*
X152131478Y-70054815D01*
X152115816Y-70041224D01*
X152102151Y-70030682D01*
X152102136Y-70030670D01*
X152102125Y-70030662D01*
X151880589Y-69864336D01*
X152040961Y-69864336D01*
X152240920Y-69824562D01*
X152429278Y-69746541D01*
X152598796Y-69633273D01*
X152742959Y-69489110D01*
X152856227Y-69319592D01*
X152934248Y-69131234D01*
X152974022Y-68931275D01*
X152974022Y-68727397D01*
X152973175Y-68723139D01*
X153518058Y-68000056D01*
X153543524Y-67972386D01*
X153578389Y-67915212D01*
X153621672Y-67844235D01*
X153673317Y-67703299D01*
X153679724Y-67662267D01*
X153780338Y-67511687D01*
X153858359Y-67323329D01*
X153898133Y-67123370D01*
X153898133Y-66919492D01*
X153858359Y-66719533D01*
X153780338Y-66531175D01*
X153667070Y-66361657D01*
X153522907Y-66217494D01*
X153353389Y-66104226D01*
X153165031Y-66026205D01*
X152965072Y-65986431D01*
X152761194Y-65986431D01*
X152561235Y-66026205D01*
X152372877Y-66104226D01*
X152203359Y-66217494D01*
X152059196Y-66361657D01*
X151945928Y-66531175D01*
X151867907Y-66719533D01*
X151828133Y-66919492D01*
X151828133Y-67123370D01*
X151867907Y-67323329D01*
X151945928Y-67511687D01*
X151960914Y-67534116D01*
X151752083Y-67811243D01*
X151637124Y-67834110D01*
X151448766Y-67912131D01*
X151279248Y-68025399D01*
X151135085Y-68169562D01*
X151021817Y-68339080D01*
X150943796Y-68527438D01*
X150904022Y-68727397D01*
X150904022Y-68931275D01*
X150943796Y-69131234D01*
X150961692Y-69174438D01*
X150679169Y-68962323D01*
X150662061Y-68950631D01*
X150645247Y-68938483D01*
X150630682Y-68929187D01*
X149728125Y-68369603D01*
X152956294Y-64018691D01*
X156884386Y-64018691D01*
X156884386Y-64222569D01*
X156924160Y-64422528D01*
X157002181Y-64610886D01*
X157115449Y-64780404D01*
X157259612Y-64924567D01*
X157429130Y-65037835D01*
X157617488Y-65115856D01*
X157817447Y-65155630D01*
X158021325Y-65155630D01*
X158083860Y-65143191D01*
X159709538Y-66948691D01*
X159709538Y-67061323D01*
X159749312Y-67261282D01*
X159827333Y-67449640D01*
X159940601Y-67619158D01*
X160084764Y-67763321D01*
X160254282Y-67876589D01*
X160442640Y-67954610D01*
X160642599Y-67994384D01*
X160846477Y-67994384D01*
X161046436Y-67954610D01*
X161234794Y-67876589D01*
X161404312Y-67763321D01*
X161548475Y-67619158D01*
X161661743Y-67449640D01*
X161739764Y-67261282D01*
X161779538Y-67061323D01*
X161779538Y-66857445D01*
X161739764Y-66657486D01*
X161661743Y-66469128D01*
X161548475Y-66299610D01*
X161404312Y-66155447D01*
X161234794Y-66042179D01*
X161046436Y-65964158D01*
X160846477Y-65924384D01*
X160837992Y-65924384D01*
X158891232Y-63762288D01*
X158836591Y-63630374D01*
X158723323Y-63460856D01*
X158579160Y-63316693D01*
X158409642Y-63203425D01*
X158221284Y-63125404D01*
X158021325Y-63085630D01*
X157817447Y-63085630D01*
X157617488Y-63125404D01*
X157429130Y-63203425D01*
X157259612Y-63316693D01*
X157115449Y-63460856D01*
X157002181Y-63630374D01*
X156924160Y-63818732D01*
X156884386Y-64018691D01*
X152956294Y-64018691D01*
X154632136Y-61760000D01*
X172275264Y-61760000D01*
X172257106Y-61772132D01*
G37*
X172257106Y-61772132D02*
X171920919Y-62241314D01*
X174300000Y-64620395D01*
X176679081Y-62241314D01*
X176342894Y-61772132D01*
X176320440Y-61760000D01*
X177341054Y-61760000D01*
X177342683Y-62779279D01*
X177327868Y-62757106D01*
X176858686Y-62420919D01*
X174479605Y-64800000D01*
X176858686Y-67179081D01*
X177327868Y-66842894D01*
X177349111Y-66803577D01*
X177381700Y-87204070D01*
X177062000Y-86884370D01*
X177062000Y-84401711D01*
X177103937Y-84359774D01*
X177217205Y-84190256D01*
X177295226Y-84001898D01*
X177335000Y-83801939D01*
X177335000Y-83598061D01*
X177295226Y-83398102D01*
X177217205Y-83209744D01*
X177103937Y-83040226D01*
X177062000Y-82998289D01*
X177062000Y-77237422D01*
X177065686Y-77199999D01*
X177062000Y-77162574D01*
X177050974Y-77050622D01*
X177007402Y-76906985D01*
X176936645Y-76774608D01*
X176841422Y-76658578D01*
X176812353Y-76634722D01*
X168335000Y-68157370D01*
X168335000Y-68098061D01*
X168295226Y-67898102D01*
X168217205Y-67709744D01*
X168162542Y-67627935D01*
X168198061Y-67635000D01*
X168401939Y-67635000D01*
X168601898Y-67595226D01*
X168790256Y-67517205D01*
X168959774Y-67403937D01*
X169005025Y-67358686D01*
X171920919Y-67358686D01*
X172257106Y-67827868D01*
X172887068Y-68168237D01*
X173571327Y-68379166D01*
X174283589Y-68452550D01*
X174996482Y-68385569D01*
X175682609Y-68180796D01*
X176315603Y-67846102D01*
X176342894Y-67827868D01*
X176679081Y-67358686D01*
X174300000Y-64979605D01*
X171920919Y-67358686D01*
X169005025Y-67358686D01*
X169103937Y-67259774D01*
X169217205Y-67090256D01*
X169295226Y-66901898D01*
X169335000Y-66701939D01*
X169335000Y-66498061D01*
X169295226Y-66298102D01*
X169217205Y-66109744D01*
X169103937Y-65940226D01*
X168959774Y-65796063D01*
X168790256Y-65682795D01*
X168601898Y-65604774D01*
X168401939Y-65565000D01*
X168198061Y-65565000D01*
X167998102Y-65604774D01*
X167809744Y-65682795D01*
X167780180Y-65702549D01*
X166861220Y-64783589D01*
X170647450Y-64783589D01*
X170714431Y-65496482D01*
X170919204Y-66182609D01*
X171253898Y-66815603D01*
X171272132Y-66842894D01*
X171741314Y-67179081D01*
X174120395Y-64800000D01*
X171741314Y-62420919D01*
X171272132Y-62757106D01*
X170931763Y-63387068D01*
X170720834Y-64071327D01*
X170647450Y-64783589D01*
X166861220Y-64783589D01*
X165720066Y-63642436D01*
X165696204Y-63613360D01*
X165580174Y-63518137D01*
X165447797Y-63447380D01*
X165304160Y-63403808D01*
X165192208Y-63392782D01*
X165192205Y-63392782D01*
X165154782Y-63389096D01*
X165117359Y-63392782D01*
X162055768Y-63392782D01*
X162013831Y-63350845D01*
X161844313Y-63237577D01*
X161655955Y-63159556D01*
X161455996Y-63119782D01*
X161252118Y-63119782D01*
X161052159Y-63159556D01*
X160863801Y-63237577D01*
X160694283Y-63350845D01*
X160550120Y-63495008D01*
X160436852Y-63664526D01*
X160358831Y-63852884D01*
X160319057Y-64052843D01*
X160319057Y-64256721D01*
X160358831Y-64456680D01*
X160436852Y-64645038D01*
X160550120Y-64814556D01*
X160694283Y-64958719D01*
X160863801Y-65071987D01*
X161052159Y-65150008D01*
X161252118Y-65189782D01*
X161455996Y-65189782D01*
X161655955Y-65150008D01*
X161844313Y-65071987D01*
X162013831Y-64958719D01*
X162055768Y-64916782D01*
X164839152Y-64916782D01*
X167034721Y-67112352D01*
X167058578Y-67141422D01*
X167108915Y-67182732D01*
X166998102Y-67204774D01*
X166809744Y-67282795D01*
X166640226Y-67396063D01*
X166496063Y-67540226D01*
X166382795Y-67709744D01*
X166370393Y-67739685D01*
X166303937Y-67640226D01*
X166159774Y-67496063D01*
X165990256Y-67382795D01*
X165801898Y-67304774D01*
X165601939Y-67265000D01*
X165398061Y-67265000D01*
X165198102Y-67304774D01*
X165009744Y-67382795D01*
X164840226Y-67496063D01*
X164696063Y-67640226D01*
X164582795Y-67809744D01*
X164504774Y-67998102D01*
X164465000Y-68198061D01*
X164465000Y-68401939D01*
X164504774Y-68601898D01*
X164582795Y-68790256D01*
X164696063Y-68959774D01*
X164840226Y-69103937D01*
X165009744Y-69217205D01*
X165198102Y-69295226D01*
X165398061Y-69335000D01*
X165457370Y-69335000D01*
X168147053Y-72024684D01*
X168040226Y-72096063D01*
X167896063Y-72240226D01*
X167782795Y-72409744D01*
X167704774Y-72598102D01*
X167665000Y-72798061D01*
X167665000Y-73001939D01*
X167704774Y-73201898D01*
X167782795Y-73390256D01*
X167896063Y-73559774D01*
X168040226Y-73703937D01*
X168209744Y-73817205D01*
X168398102Y-73895226D01*
X168598061Y-73935000D01*
X168657370Y-73935000D01*
X172713321Y-77990952D01*
X172713321Y-78382672D01*
X172680046Y-78363364D01*
X172538017Y-78314805D01*
X172426518Y-78299879D01*
X172426516Y-78299879D01*
X172389243Y-78294889D01*
X172351711Y-78297267D01*
X167892312Y-78141541D01*
X167825464Y-78074693D01*
X167655946Y-77961425D01*
X167467588Y-77883404D01*
X167267629Y-77843630D01*
X167063751Y-77843630D01*
X166863792Y-77883404D01*
X166675434Y-77961425D01*
X166505916Y-78074693D01*
X166361753Y-78218856D01*
X166248485Y-78388374D01*
X166170464Y-78576732D01*
X166130690Y-78776691D01*
X166130690Y-78980569D01*
X166170464Y-79180528D01*
X166248485Y-79368886D01*
X166361753Y-79538404D01*
X166505916Y-79682567D01*
X166675434Y-79795835D01*
X166863792Y-79873856D01*
X167063751Y-79913630D01*
X167267629Y-79913630D01*
X167467588Y-79873856D01*
X167655946Y-79795835D01*
X167825464Y-79682567D01*
X167843275Y-79664756D01*
X171763839Y-79801665D01*
X171831114Y-79964080D01*
X171944382Y-80133598D01*
X172015629Y-80204845D01*
X169587650Y-82632825D01*
X169558580Y-82656682D01*
X169534723Y-82685752D01*
X169534722Y-82685753D01*
X169463356Y-82772712D01*
X169392600Y-82905089D01*
X169349028Y-83048726D01*
X169334315Y-83198104D01*
X169338002Y-83235537D01*
X169338001Y-90462578D01*
X169334315Y-90500001D01*
X169338001Y-90537424D01*
X169338001Y-90537426D01*
X169349027Y-90649378D01*
X169392599Y-90793015D01*
X169419521Y-90843383D01*
X169463356Y-90925393D01*
X169465000Y-90927396D01*
X169465000Y-91001939D01*
X169504774Y-91201898D01*
X169582795Y-91390256D01*
X169696063Y-91559774D01*
X169840226Y-91703937D01*
X170009744Y-91817205D01*
X170198102Y-91895226D01*
X170398061Y-91935000D01*
X170601939Y-91935000D01*
X170801898Y-91895226D01*
X170990256Y-91817205D01*
X171159774Y-91703937D01*
X171303937Y-91559774D01*
X171417205Y-91390256D01*
X171495226Y-91201898D01*
X171515746Y-91098736D01*
X171698061Y-91135000D01*
X171901939Y-91135000D01*
X172101898Y-91095226D01*
X172290256Y-91017205D01*
X172459774Y-90903937D01*
X172603937Y-90759774D01*
X172717205Y-90590256D01*
X172795226Y-90401898D01*
X172835000Y-90201939D01*
X172835000Y-89998061D01*
X172795226Y-89798102D01*
X172717205Y-89609744D01*
X172603937Y-89440226D01*
X172562000Y-89398289D01*
X172562000Y-87484672D01*
X172565686Y-87447249D01*
X172560120Y-87390739D01*
X172550974Y-87297871D01*
X172507402Y-87154234D01*
X172458826Y-87063355D01*
X172436645Y-87021856D01*
X172365279Y-86934897D01*
X172341422Y-86905827D01*
X172312351Y-86881969D01*
X172018407Y-86588025D01*
X172018407Y-86528717D01*
X171978633Y-86328758D01*
X171900612Y-86140400D01*
X171787344Y-85970882D01*
X171643181Y-85826719D01*
X171473663Y-85713451D01*
X171285305Y-85635430D01*
X171085346Y-85595656D01*
X170881468Y-85595656D01*
X170862001Y-85599528D01*
X170862001Y-83513734D01*
X173987673Y-80388063D01*
X174016742Y-80364207D01*
X174058233Y-80313650D01*
X174111965Y-80248178D01*
X174153447Y-80170569D01*
X174182722Y-80115800D01*
X174226294Y-79972163D01*
X174237320Y-79860211D01*
X174237320Y-79860208D01*
X174241006Y-79822785D01*
X174237320Y-79785362D01*
X174237320Y-78114951D01*
X174538000Y-78415631D01*
X174538001Y-83998288D01*
X174496063Y-84040226D01*
X174382795Y-84209744D01*
X174304774Y-84398102D01*
X174265000Y-84598061D01*
X174265000Y-84801939D01*
X174304774Y-85001898D01*
X174382795Y-85190256D01*
X174496063Y-85359774D01*
X174538000Y-85401711D01*
X174538001Y-87462565D01*
X174538000Y-87462575D01*
X174538000Y-87662577D01*
X174534314Y-87700000D01*
X174538000Y-87737423D01*
X174538000Y-87737426D01*
X174549026Y-87849378D01*
X174592598Y-87993015D01*
X174663355Y-88125392D01*
X174758578Y-88241422D01*
X174787652Y-88265283D01*
X176038000Y-89515631D01*
X176038000Y-93858201D01*
X175946102Y-93684397D01*
X175927868Y-93657106D01*
X175458686Y-93320919D01*
X173079605Y-95700000D01*
X175458686Y-98079081D01*
X175927868Y-97742894D01*
X176038001Y-97539058D01*
X176038001Y-99884368D01*
X170374443Y-105547927D01*
X170317205Y-105409744D01*
X170203937Y-105240226D01*
X170059774Y-105096063D01*
X169890256Y-104982795D01*
X169701898Y-104904774D01*
X169501939Y-104865000D01*
X169298061Y-104865000D01*
X169098102Y-104904774D01*
X168909744Y-104982795D01*
X168804202Y-105053315D01*
X168805198Y-105050912D01*
X168844972Y-104850953D01*
X168844972Y-104647075D01*
X168805198Y-104447116D01*
X168727177Y-104258758D01*
X168613909Y-104089240D01*
X168573440Y-104048771D01*
X168573310Y-104047165D01*
X168532251Y-103902789D01*
X168463816Y-103769198D01*
X168393979Y-103681007D01*
X168393974Y-103681001D01*
X168370632Y-103651525D01*
X168341988Y-103627168D01*
X165242621Y-100417681D01*
X165242621Y-100340909D01*
X165202847Y-100140950D01*
X165124826Y-99952592D01*
X165011558Y-99783074D01*
X164867395Y-99638911D01*
X164697877Y-99525643D01*
X164509519Y-99447622D01*
X164309560Y-99407848D01*
X164105682Y-99407848D01*
X163905723Y-99447622D01*
X163717365Y-99525643D01*
X163547847Y-99638911D01*
X163403684Y-99783074D01*
X163290416Y-99952592D01*
X163212395Y-100140950D01*
X163172621Y-100340909D01*
X163172621Y-100544787D01*
X163212395Y-100744746D01*
X163290416Y-100933104D01*
X163403684Y-101102622D01*
X163547847Y-101246785D01*
X163717365Y-101360053D01*
X163905723Y-101438074D01*
X164105682Y-101477848D01*
X164147805Y-101477848D01*
X166874916Y-104301855D01*
X166814746Y-104447116D01*
X166774972Y-104647075D01*
X166774972Y-104850953D01*
X166814746Y-105050912D01*
X166850819Y-105138000D01*
X161882147Y-105138000D01*
X161919919Y-105101523D01*
X162016575Y-105061487D01*
X162186093Y-104948219D01*
X162215878Y-104918434D01*
X162606801Y-104925258D01*
X162644154Y-104929596D01*
X162681635Y-104926564D01*
X162681638Y-104926564D01*
X162773011Y-104919172D01*
X162793766Y-104917493D01*
X162852798Y-104900705D01*
X162938141Y-104876435D01*
X163008314Y-104840487D01*
X163071733Y-104807999D01*
X163159924Y-104738162D01*
X163159925Y-104738161D01*
X163189407Y-104714815D01*
X163213768Y-104686166D01*
X163905562Y-104018108D01*
X163982334Y-104018108D01*
X164182293Y-103978334D01*
X164370651Y-103900313D01*
X164540169Y-103787045D01*
X164684332Y-103642882D01*
X164797600Y-103473364D01*
X164875621Y-103285006D01*
X164915395Y-103085047D01*
X164915395Y-102881169D01*
X164875621Y-102681210D01*
X164797600Y-102492852D01*
X164684332Y-102323334D01*
X164540169Y-102179171D01*
X164370651Y-102065903D01*
X164182293Y-101987882D01*
X163982334Y-101948108D01*
X163778456Y-101948108D01*
X163578497Y-101987882D01*
X163390139Y-102065903D01*
X163220621Y-102179171D01*
X163076458Y-102323334D01*
X162963190Y-102492852D01*
X162885169Y-102681210D01*
X162845395Y-102881169D01*
X162845395Y-102923291D01*
X162355234Y-103396635D01*
X162240378Y-103394630D01*
X162186093Y-103340345D01*
X162016575Y-103227077D01*
X161828217Y-103149056D01*
X161628258Y-103109282D01*
X161424380Y-103109282D01*
X161224421Y-103149056D01*
X161036063Y-103227077D01*
X160866545Y-103340345D01*
X160722382Y-103484508D01*
X160609114Y-103654026D01*
X160531093Y-103842384D01*
X160491319Y-104042343D01*
X160491319Y-104246221D01*
X160510721Y-104343762D01*
X158762724Y-106031784D01*
X158685952Y-106031784D01*
X158485993Y-106071558D01*
X158297635Y-106149579D01*
X158128117Y-106262847D01*
X157983954Y-106407010D01*
X157870686Y-106576528D01*
X157792665Y-106764886D01*
X157752891Y-106964845D01*
X157752891Y-107168723D01*
X157792665Y-107368682D01*
X157870686Y-107557040D01*
X157983954Y-107726558D01*
X158055202Y-107797806D01*
X157442008Y-108410999D01*
X148838188Y-108410999D01*
X148931704Y-108317483D01*
X149044972Y-108147965D01*
X149122993Y-107959607D01*
X149162767Y-107759648D01*
X149162767Y-107555770D01*
X149122993Y-107355811D01*
X149044972Y-107167453D01*
X148931704Y-106997935D01*
X148787541Y-106853772D01*
X148618023Y-106740504D01*
X148511675Y-106696453D01*
X148769281Y-106696453D01*
X148806704Y-106700139D01*
X148844127Y-106696453D01*
X148844130Y-106696453D01*
X148956082Y-106685427D01*
X149099719Y-106641855D01*
X149232096Y-106571098D01*
X149348126Y-106475875D01*
X149371988Y-106446799D01*
X150583174Y-105235614D01*
X150948946Y-105798856D01*
X150966236Y-105832247D01*
X150989707Y-105861622D01*
X150989710Y-105861627D01*
X151059930Y-105949513D01*
X151174703Y-106046246D01*
X151215770Y-106068893D01*
X151288613Y-106177910D01*
X151432776Y-106322073D01*
X151602294Y-106435341D01*
X151790652Y-106513362D01*
X151990611Y-106553136D01*
X152194489Y-106553136D01*
X152394448Y-106513362D01*
X152582806Y-106435341D01*
X152752324Y-106322073D01*
X152896487Y-106177910D01*
X153009755Y-106008392D01*
X153087776Y-105820034D01*
X153127550Y-105620075D01*
X153127550Y-105416197D01*
X153087776Y-105216238D01*
X153009755Y-105027880D01*
X152896487Y-104858362D01*
X152752324Y-104714199D01*
X152582806Y-104600931D01*
X152394448Y-104522910D01*
X152194489Y-104483136D01*
X151995455Y-104483136D01*
X153925669Y-102552923D01*
X154507209Y-103155127D01*
X154530553Y-103184607D01*
X154559200Y-103208966D01*
X154559202Y-103208968D01*
X154644902Y-103281841D01*
X154776023Y-103354897D01*
X154776025Y-103354898D01*
X154820371Y-103369200D01*
X154916465Y-103465294D01*
X155085983Y-103578562D01*
X155274341Y-103656583D01*
X155474300Y-103696357D01*
X155678178Y-103696357D01*
X155878137Y-103656583D01*
X156066495Y-103578562D01*
X156236013Y-103465294D01*
X156380176Y-103321131D01*
X156493444Y-103151613D01*
X156571465Y-102963255D01*
X156611239Y-102763296D01*
X156611239Y-102559418D01*
X156571465Y-102359459D01*
X156493444Y-102171101D01*
X156380176Y-102001583D01*
X156236013Y-101857420D01*
X156066495Y-101744152D01*
X155878137Y-101666131D01*
X155678178Y-101626357D01*
X155474300Y-101626357D01*
X155274341Y-101666131D01*
X155212606Y-101691703D01*
X155003463Y-101475128D01*
X156967431Y-99511160D01*
X157495655Y-99881028D01*
X157524192Y-99905509D01*
X157556956Y-99923952D01*
X157556962Y-99923956D01*
X157654992Y-99979137D01*
X157797644Y-100025832D01*
X157843560Y-100031368D01*
X157960568Y-100109550D01*
X158148926Y-100187571D01*
X158348885Y-100227345D01*
X158552763Y-100227345D01*
X158752722Y-100187571D01*
X158941080Y-100109550D01*
X159110598Y-99996282D01*
X159254761Y-99852119D01*
X159368029Y-99682601D01*
X159446050Y-99494243D01*
X159485824Y-99294284D01*
X159485824Y-99090406D01*
X159446050Y-98890447D01*
X159368029Y-98702089D01*
X159254761Y-98532571D01*
X159110598Y-98388408D01*
X158941080Y-98275140D01*
X158879251Y-98249529D01*
X164906441Y-98249529D01*
X164906441Y-98453407D01*
X164946215Y-98653366D01*
X165024236Y-98841724D01*
X165137504Y-99011242D01*
X165281667Y-99155405D01*
X165451185Y-99268673D01*
X165639543Y-99346694D01*
X165839502Y-99386468D01*
X166043380Y-99386468D01*
X166243339Y-99346694D01*
X166431697Y-99268673D01*
X166601215Y-99155405D01*
X166745378Y-99011242D01*
X166858646Y-98841724D01*
X166936667Y-98653366D01*
X166976441Y-98453407D01*
X166976441Y-98411284D01*
X167134461Y-98258686D01*
X170520919Y-98258686D01*
X170857106Y-98727868D01*
X171487068Y-99068237D01*
X172171327Y-99279166D01*
X172883589Y-99352550D01*
X173596482Y-99285569D01*
X174282609Y-99080796D01*
X174915603Y-98746102D01*
X174942894Y-98727868D01*
X175279081Y-98258686D01*
X172900000Y-95879605D01*
X170520919Y-98258686D01*
X167134461Y-98258686D01*
X167882535Y-97536280D01*
X167912010Y-97512939D01*
X167936364Y-97484298D01*
X167936372Y-97484290D01*
X168009244Y-97398590D01*
X168082300Y-97267468D01*
X168128372Y-97124613D01*
X168145689Y-96975514D01*
X168142656Y-96938027D01*
X168164552Y-95683589D01*
X169247450Y-95683589D01*
X169314431Y-96396482D01*
X169519204Y-97082609D01*
X169853898Y-97715603D01*
X169872132Y-97742894D01*
X170341314Y-98079081D01*
X172720395Y-95700000D01*
X170341314Y-93320919D01*
X169872132Y-93657106D01*
X169531763Y-94287068D01*
X169320834Y-94971327D01*
X169247450Y-95683589D01*
X168164552Y-95683589D01*
X168208929Y-93141314D01*
X170520919Y-93141314D01*
X172900000Y-95520395D01*
X175279081Y-93141314D01*
X174942894Y-92672132D01*
X174312932Y-92331763D01*
X173628673Y-92120834D01*
X172916411Y-92047450D01*
X172203518Y-92114431D01*
X171517391Y-92319204D01*
X170884397Y-92653898D01*
X170857106Y-92672132D01*
X170520919Y-93141314D01*
X168208929Y-93141314D01*
X168221094Y-92444417D01*
X168275379Y-92390132D01*
X168388647Y-92220614D01*
X168466668Y-92032256D01*
X168506442Y-91832297D01*
X168506442Y-91628419D01*
X168466668Y-91428460D01*
X168388647Y-91240102D01*
X168275379Y-91070584D01*
X168131216Y-90926421D01*
X167961698Y-90813153D01*
X167773340Y-90735132D01*
X167573381Y-90695358D01*
X167369503Y-90695358D01*
X167169544Y-90735132D01*
X166981186Y-90813153D01*
X166811668Y-90926421D01*
X166667505Y-91070584D01*
X166554237Y-91240102D01*
X166476216Y-91428460D01*
X166436442Y-91628419D01*
X166436442Y-91832297D01*
X166476216Y-92032256D01*
X166554237Y-92220614D01*
X166667505Y-92390132D01*
X166697290Y-92419917D01*
X166623745Y-96633270D01*
X165916273Y-97316468D01*
X165839502Y-97316468D01*
X165639543Y-97356242D01*
X165451185Y-97434263D01*
X165281667Y-97547531D01*
X165137504Y-97691694D01*
X165024236Y-97861212D01*
X164946215Y-98049570D01*
X164906441Y-98249529D01*
X158879251Y-98249529D01*
X158752722Y-98197119D01*
X158552763Y-98157345D01*
X158348885Y-98157345D01*
X158148926Y-98197119D01*
X157960568Y-98275140D01*
X157908709Y-98309791D01*
X157806041Y-98237901D01*
X159114748Y-96974098D01*
X159144227Y-96950754D01*
X159174341Y-96915339D01*
X159241460Y-96836405D01*
X159314516Y-96705284D01*
X159322179Y-96681526D01*
X159341238Y-96622429D01*
X159360589Y-96562429D01*
X159377906Y-96413330D01*
X159374873Y-96375843D01*
X159383019Y-95909217D01*
X159804459Y-96096856D01*
X159837148Y-96115444D01*
X159872833Y-96127297D01*
X159872834Y-96127298D01*
X159979592Y-96162760D01*
X159979594Y-96162760D01*
X159979596Y-96162761D01*
X160054065Y-96172069D01*
X160128533Y-96181378D01*
X160128537Y-96181378D01*
X160174264Y-96178080D01*
X160308778Y-96233798D01*
X160508737Y-96273572D01*
X160712615Y-96273572D01*
X160912574Y-96233798D01*
X161100932Y-96155777D01*
X161270450Y-96042509D01*
X161414613Y-95898346D01*
X161527881Y-95728828D01*
X161605902Y-95540470D01*
X161645676Y-95340511D01*
X161645676Y-95136633D01*
X161605902Y-94936674D01*
X161527881Y-94748316D01*
X161414613Y-94578798D01*
X161270450Y-94434635D01*
X161100932Y-94321367D01*
X160912574Y-94243346D01*
X160712615Y-94203572D01*
X160508737Y-94203572D01*
X160308778Y-94243346D01*
X160218947Y-94280555D01*
X160404397Y-94101469D01*
X160433877Y-94078124D01*
X160458238Y-94049475D01*
X160531111Y-93963775D01*
X160604167Y-93832653D01*
X160650239Y-93689798D01*
X160667556Y-93540699D01*
X160664523Y-93503212D01*
X160694418Y-91790594D01*
X161348790Y-91941668D01*
X161384428Y-91953679D01*
X161466251Y-91964270D01*
X161533284Y-91972947D01*
X161533287Y-91972947D01*
X161683044Y-91962803D01*
X161726867Y-91950958D01*
X161874491Y-91980322D01*
X162078369Y-91980322D01*
X162278328Y-91940548D01*
X162466686Y-91862527D01*
X162636204Y-91749259D01*
X162780367Y-91605096D01*
X162893635Y-91435578D01*
X162971656Y-91247220D01*
X163011430Y-91047261D01*
X163011430Y-90843383D01*
X162971656Y-90643424D01*
X162893635Y-90455066D01*
X162780367Y-90285548D01*
X162636204Y-90141385D01*
X162466686Y-90028117D01*
X162278328Y-89950096D01*
X162078369Y-89910322D01*
X161874491Y-89910322D01*
X161674532Y-89950096D01*
X161486174Y-90028117D01*
X161316656Y-90141385D01*
X161172493Y-90285548D01*
X161142778Y-90330020D01*
X160802932Y-90251560D01*
X160752894Y-90176672D01*
X160710957Y-90134735D01*
X160710957Y-87761047D01*
X160788801Y-87745563D01*
X160977159Y-87667542D01*
X161146677Y-87554274D01*
X161164487Y-87536464D01*
X162071902Y-87568153D01*
X162109179Y-87573143D01*
X162258979Y-87563653D01*
X162357719Y-87537426D01*
X162404047Y-87525121D01*
X162422598Y-87516023D01*
X162444354Y-87505353D01*
X162599839Y-87505353D01*
X162799798Y-87465579D01*
X162988156Y-87387558D01*
X163157674Y-87274290D01*
X163301837Y-87130127D01*
X163415105Y-86960609D01*
X163493126Y-86772251D01*
X163532900Y-86572292D01*
X163532900Y-86368414D01*
X163493126Y-86168455D01*
X163415105Y-85980097D01*
X163301837Y-85810579D01*
X163157674Y-85666416D01*
X162988156Y-85553148D01*
X162799798Y-85475127D01*
X162599839Y-85435353D01*
X162395961Y-85435353D01*
X162196002Y-85475127D01*
X162007644Y-85553148D01*
X161838126Y-85666416D01*
X161693963Y-85810579D01*
X161580695Y-85980097D01*
X161561923Y-86025416D01*
X161248903Y-86014484D01*
X161248903Y-83301869D01*
X166773155Y-83301869D01*
X166773155Y-83505747D01*
X166812929Y-83705706D01*
X166890950Y-83894064D01*
X167004218Y-84063582D01*
X167148381Y-84207745D01*
X167216157Y-84253032D01*
X167131346Y-86681730D01*
X167064498Y-86748578D01*
X166951230Y-86918096D01*
X166873209Y-87106454D01*
X166833435Y-87306413D01*
X166833435Y-87510291D01*
X166873209Y-87710250D01*
X166951230Y-87898608D01*
X167064498Y-88068126D01*
X167208661Y-88212289D01*
X167378179Y-88325557D01*
X167566537Y-88403578D01*
X167766496Y-88443352D01*
X167970374Y-88443352D01*
X168170333Y-88403578D01*
X168358691Y-88325557D01*
X168528209Y-88212289D01*
X168672372Y-88068126D01*
X168785640Y-87898608D01*
X168863661Y-87710250D01*
X168903435Y-87510291D01*
X168903435Y-87306413D01*
X168863661Y-87106454D01*
X168785640Y-86918096D01*
X168672372Y-86748578D01*
X168654561Y-86730767D01*
X168756222Y-83819557D01*
X168803381Y-83705706D01*
X168843155Y-83505747D01*
X168843155Y-83480558D01*
X169127901Y-83215028D01*
X169157783Y-83192202D01*
X169182637Y-83163986D01*
X169182641Y-83163982D01*
X169256998Y-83079567D01*
X169332331Y-82949740D01*
X169380890Y-82807711D01*
X169400807Y-82658937D01*
X169398429Y-82621398D01*
X169432006Y-81659873D01*
X169498854Y-81593025D01*
X169612122Y-81423507D01*
X169690143Y-81235149D01*
X169729917Y-81035190D01*
X169729917Y-80831312D01*
X169690143Y-80631353D01*
X169612122Y-80442995D01*
X169498854Y-80273477D01*
X169354691Y-80129314D01*
X169185173Y-80016046D01*
X168996815Y-79938025D01*
X168796856Y-79898251D01*
X168592978Y-79898251D01*
X168393019Y-79938025D01*
X168204661Y-80016046D01*
X168035143Y-80129314D01*
X167890980Y-80273477D01*
X167777712Y-80442995D01*
X167699691Y-80631353D01*
X167659917Y-80831312D01*
X167659917Y-81035190D01*
X167699691Y-81235149D01*
X167777712Y-81423507D01*
X167890980Y-81593025D01*
X167908791Y-81610836D01*
X167885068Y-82290183D01*
X167800752Y-82368808D01*
X167706216Y-82368808D01*
X167506257Y-82408582D01*
X167317899Y-82486603D01*
X167148381Y-82599871D01*
X167004218Y-82744034D01*
X166890950Y-82913552D01*
X166812929Y-83101910D01*
X166773155Y-83301869D01*
X161248903Y-83301869D01*
X161248903Y-83247617D01*
X161947228Y-83137015D01*
X161984768Y-83134801D01*
X162021152Y-83125306D01*
X162021155Y-83125306D01*
X162130004Y-83096902D01*
X162265056Y-83031397D01*
X162265058Y-83031396D01*
X162300405Y-83004639D01*
X162457823Y-82973327D01*
X162646181Y-82895306D01*
X162815699Y-82782038D01*
X162959862Y-82637875D01*
X163073130Y-82468357D01*
X163151151Y-82279999D01*
X163190925Y-82080040D01*
X163190925Y-81876162D01*
X163151151Y-81676203D01*
X163073130Y-81487845D01*
X162959862Y-81318327D01*
X162815699Y-81174164D01*
X162646181Y-81060896D01*
X162457823Y-80982875D01*
X162257864Y-80943101D01*
X162053986Y-80943101D01*
X161854027Y-80982875D01*
X161665669Y-81060896D01*
X161496151Y-81174164D01*
X161351988Y-81318327D01*
X161238720Y-81487845D01*
X161160699Y-81676203D01*
X161151993Y-81719970D01*
X161029094Y-81739435D01*
X161092587Y-79921232D01*
X161097577Y-79883956D01*
X161088087Y-79734155D01*
X161061074Y-79632457D01*
X161049555Y-79589087D01*
X161031239Y-79551741D01*
X160983460Y-79454319D01*
X160915173Y-79364923D01*
X160915169Y-79364919D01*
X160892345Y-79335039D01*
X160864130Y-79310187D01*
X160545837Y-78968859D01*
X160979336Y-78811079D01*
X161015767Y-78801742D01*
X161082683Y-78769645D01*
X161151104Y-78736827D01*
X161271176Y-78646756D01*
X161300359Y-78614203D01*
X161453327Y-78550841D01*
X161622845Y-78437573D01*
X161767008Y-78293410D01*
X161880276Y-78123892D01*
X161958297Y-77935534D01*
X161998071Y-77735575D01*
X161998071Y-77531697D01*
X161958297Y-77331738D01*
X161880276Y-77143380D01*
X161767008Y-76973862D01*
X161622845Y-76829699D01*
X161453327Y-76716431D01*
X161264969Y-76638410D01*
X161065010Y-76598636D01*
X160861132Y-76598636D01*
X160661173Y-76638410D01*
X160472815Y-76716431D01*
X160303297Y-76829699D01*
X160159134Y-76973862D01*
X160045866Y-77143380D01*
X160015814Y-77215932D01*
X160024787Y-76958970D01*
X160029777Y-76921694D01*
X160020287Y-76771893D01*
X159981754Y-76626822D01*
X159915661Y-76492057D01*
X159847374Y-76402661D01*
X159847373Y-76402660D01*
X159824545Y-76372775D01*
X159796326Y-76347918D01*
X158628143Y-75095195D01*
X159203814Y-74749299D01*
X159237784Y-74733187D01*
X159267955Y-74710760D01*
X159267964Y-74710754D01*
X159358247Y-74643643D01*
X159458926Y-74532316D01*
X159480054Y-74496979D01*
X159481018Y-74495366D01*
X159622944Y-74400535D01*
X159767107Y-74256372D01*
X159880375Y-74086854D01*
X159958396Y-73898496D01*
X159998170Y-73698537D01*
X159998170Y-73494659D01*
X159958396Y-73294700D01*
X159880375Y-73106342D01*
X159767107Y-72936824D01*
X159622944Y-72792661D01*
X159453426Y-72679393D01*
X159265068Y-72601372D01*
X159065109Y-72561598D01*
X158861231Y-72561598D01*
X158661272Y-72601372D01*
X158472914Y-72679393D01*
X158303396Y-72792661D01*
X158159233Y-72936824D01*
X158045965Y-73106342D01*
X157967944Y-73294700D01*
X157929504Y-73487952D01*
X156084221Y-71642669D01*
X156685869Y-71100943D01*
X156716148Y-71078640D01*
X156778262Y-71010557D01*
X156817313Y-70967754D01*
X156894901Y-70839262D01*
X156895915Y-70836459D01*
X156909288Y-70799464D01*
X157033647Y-70675105D01*
X157146915Y-70505587D01*
X157224936Y-70317229D01*
X157239858Y-70242210D01*
X162426283Y-70242210D01*
X162426283Y-70446088D01*
X162466057Y-70646047D01*
X162544078Y-70834405D01*
X162657346Y-71003923D01*
X162801509Y-71148086D01*
X162971027Y-71261354D01*
X163159385Y-71339375D01*
X163359344Y-71379149D01*
X163384533Y-71379149D01*
X166257350Y-74459870D01*
X166223012Y-75443183D01*
X166156164Y-75510031D01*
X166042896Y-75679549D01*
X165964875Y-75867907D01*
X165925101Y-76067866D01*
X165925101Y-76271744D01*
X165964875Y-76471703D01*
X166042896Y-76660061D01*
X166156164Y-76829579D01*
X166300327Y-76973742D01*
X166469845Y-77087010D01*
X166658203Y-77165031D01*
X166858162Y-77204805D01*
X167062040Y-77204805D01*
X167261999Y-77165031D01*
X167450357Y-77087010D01*
X167619875Y-76973742D01*
X167764038Y-76829579D01*
X167877306Y-76660061D01*
X167955327Y-76471703D01*
X167995101Y-76271744D01*
X167995101Y-76067866D01*
X167955327Y-75867907D01*
X167877306Y-75679549D01*
X167764038Y-75510031D01*
X167746227Y-75492220D01*
X167790129Y-74235022D01*
X167795119Y-74197746D01*
X167785629Y-74047945D01*
X167764139Y-73967039D01*
X167747097Y-73902876D01*
X167731506Y-73871086D01*
X167681003Y-73768109D01*
X167612716Y-73678712D01*
X167612707Y-73678702D01*
X167589887Y-73648828D01*
X167561678Y-73623981D01*
X164496283Y-70336746D01*
X164496283Y-70242210D01*
X164456509Y-70042251D01*
X164378488Y-69853893D01*
X164265220Y-69684375D01*
X164121057Y-69540212D01*
X163951539Y-69426944D01*
X163763181Y-69348923D01*
X163563222Y-69309149D01*
X163359344Y-69309149D01*
X163159385Y-69348923D01*
X162971027Y-69426944D01*
X162801509Y-69540212D01*
X162657346Y-69684375D01*
X162544078Y-69853893D01*
X162466057Y-70042251D01*
X162426283Y-70242210D01*
X157239858Y-70242210D01*
X157264710Y-70117270D01*
X157264710Y-69913392D01*
X157224936Y-69713433D01*
X157146915Y-69525075D01*
X157033647Y-69355557D01*
X156889484Y-69211394D01*
X156719966Y-69098126D01*
X156531608Y-69020105D01*
X156331649Y-68980331D01*
X156127771Y-68980331D01*
X155927812Y-69020105D01*
X155739454Y-69098126D01*
X155569936Y-69211394D01*
X155425773Y-69355557D01*
X155312505Y-69525075D01*
X155234484Y-69713433D01*
X155194710Y-69913392D01*
X155194710Y-70117270D01*
X155234484Y-70317229D01*
X155246492Y-70346220D01*
X154988307Y-70578691D01*
X154875674Y-70578691D01*
X154675715Y-70618465D01*
X154487357Y-70696486D01*
X154317839Y-70809754D01*
X154173676Y-70953917D01*
X154060408Y-71123435D01*
X153982387Y-71311793D01*
X153942613Y-71511752D01*
X153942613Y-71715630D01*
X153954727Y-71776531D01*
X153511700Y-71299796D01*
X153496924Y-71285252D01*
X153482535Y-71270326D01*
X153469847Y-71258597D01*
X152147485Y-70067986D01*
X152131478Y-70054815D01*
X152115816Y-70041224D01*
X152102151Y-70030682D01*
X152102136Y-70030670D01*
X152102125Y-70030662D01*
X151880589Y-69864336D01*
X152040961Y-69864336D01*
X152240920Y-69824562D01*
X152429278Y-69746541D01*
X152598796Y-69633273D01*
X152742959Y-69489110D01*
X152856227Y-69319592D01*
X152934248Y-69131234D01*
X152974022Y-68931275D01*
X152974022Y-68727397D01*
X152973175Y-68723139D01*
X153518058Y-68000056D01*
X153543524Y-67972386D01*
X153578389Y-67915212D01*
X153621672Y-67844235D01*
X153673317Y-67703299D01*
X153679724Y-67662267D01*
X153780338Y-67511687D01*
X153858359Y-67323329D01*
X153898133Y-67123370D01*
X153898133Y-66919492D01*
X153858359Y-66719533D01*
X153780338Y-66531175D01*
X153667070Y-66361657D01*
X153522907Y-66217494D01*
X153353389Y-66104226D01*
X153165031Y-66026205D01*
X152965072Y-65986431D01*
X152761194Y-65986431D01*
X152561235Y-66026205D01*
X152372877Y-66104226D01*
X152203359Y-66217494D01*
X152059196Y-66361657D01*
X151945928Y-66531175D01*
X151867907Y-66719533D01*
X151828133Y-66919492D01*
X151828133Y-67123370D01*
X151867907Y-67323329D01*
X151945928Y-67511687D01*
X151960914Y-67534116D01*
X151752083Y-67811243D01*
X151637124Y-67834110D01*
X151448766Y-67912131D01*
X151279248Y-68025399D01*
X151135085Y-68169562D01*
X151021817Y-68339080D01*
X150943796Y-68527438D01*
X150904022Y-68727397D01*
X150904022Y-68931275D01*
X150943796Y-69131234D01*
X150961692Y-69174438D01*
X150679169Y-68962323D01*
X150662061Y-68950631D01*
X150645247Y-68938483D01*
X150630682Y-68929187D01*
X149728125Y-68369603D01*
X152956294Y-64018691D01*
X156884386Y-64018691D01*
X156884386Y-64222569D01*
X156924160Y-64422528D01*
X157002181Y-64610886D01*
X157115449Y-64780404D01*
X157259612Y-64924567D01*
X157429130Y-65037835D01*
X157617488Y-65115856D01*
X157817447Y-65155630D01*
X158021325Y-65155630D01*
X158083860Y-65143191D01*
X159709538Y-66948691D01*
X159709538Y-67061323D01*
X159749312Y-67261282D01*
X159827333Y-67449640D01*
X159940601Y-67619158D01*
X160084764Y-67763321D01*
X160254282Y-67876589D01*
X160442640Y-67954610D01*
X160642599Y-67994384D01*
X160846477Y-67994384D01*
X161046436Y-67954610D01*
X161234794Y-67876589D01*
X161404312Y-67763321D01*
X161548475Y-67619158D01*
X161661743Y-67449640D01*
X161739764Y-67261282D01*
X161779538Y-67061323D01*
X161779538Y-66857445D01*
X161739764Y-66657486D01*
X161661743Y-66469128D01*
X161548475Y-66299610D01*
X161404312Y-66155447D01*
X161234794Y-66042179D01*
X161046436Y-65964158D01*
X160846477Y-65924384D01*
X160837992Y-65924384D01*
X158891232Y-63762288D01*
X158836591Y-63630374D01*
X158723323Y-63460856D01*
X158579160Y-63316693D01*
X158409642Y-63203425D01*
X158221284Y-63125404D01*
X158021325Y-63085630D01*
X157817447Y-63085630D01*
X157617488Y-63125404D01*
X157429130Y-63203425D01*
X157259612Y-63316693D01*
X157115449Y-63460856D01*
X157002181Y-63630374D01*
X156924160Y-63818732D01*
X156884386Y-64018691D01*
X152956294Y-64018691D01*
X154632136Y-61760000D01*
X172275264Y-61760000D01*
X172257106Y-61772132D01*
G36*
X127836881Y-68635655D02*
G01*
X127186532Y-69054938D01*
X127171554Y-69065567D01*
X127156208Y-69075705D01*
X127142364Y-69086044D01*
X125730708Y-70169292D01*
X125714839Y-70182632D01*
X125698623Y-70195554D01*
X125685753Y-70207082D01*
X125480987Y-70395382D01*
X125509810Y-70250478D01*
X125509810Y-70046600D01*
X125470036Y-69846641D01*
X125392015Y-69658283D01*
X125278747Y-69488765D01*
X125134584Y-69344602D01*
X124965066Y-69231334D01*
X124776708Y-69153313D01*
X124576749Y-69113539D01*
X124559940Y-69113539D01*
X123947176Y-68444826D01*
X123924606Y-68414738D01*
X123865798Y-68362019D01*
X123812842Y-68314545D01*
X123683677Y-68238081D01*
X123642436Y-68223578D01*
X123525359Y-68106501D01*
X123355841Y-67993233D01*
X123167483Y-67915212D01*
X122967524Y-67875438D01*
X122763646Y-67875438D01*
X122563687Y-67915212D01*
X122375329Y-67993233D01*
X122205811Y-68106501D01*
X122061648Y-68250664D01*
X121948380Y-68420182D01*
X121870359Y-68608540D01*
X121830585Y-68808499D01*
X121830585Y-69012377D01*
X121870359Y-69212336D01*
X121948380Y-69400694D01*
X122061648Y-69570212D01*
X122205811Y-69714375D01*
X122375329Y-69827643D01*
X122563687Y-69905664D01*
X122763646Y-69945438D01*
X122967524Y-69945438D01*
X123167483Y-69905664D01*
X123204627Y-69890279D01*
X123439810Y-70146936D01*
X123439810Y-70246601D01*
X121640327Y-72176312D01*
X121615138Y-72176312D01*
X121602741Y-72178778D01*
X120874048Y-71639572D01*
X120846157Y-71614349D01*
X120791409Y-71581615D01*
X120717329Y-71537323D01*
X120717328Y-71537323D01*
X120717327Y-71537322D01*
X120575945Y-71486909D01*
X120533360Y-71480640D01*
X120391434Y-71385808D01*
X120203076Y-71307787D01*
X120003117Y-71268013D01*
X119799239Y-71268013D01*
X119599280Y-71307787D01*
X119410922Y-71385808D01*
X119241404Y-71499076D01*
X119097241Y-71643239D01*
X118983973Y-71812757D01*
X118905952Y-72001115D01*
X118866178Y-72201074D01*
X118866178Y-72404952D01*
X118905952Y-72604911D01*
X118983973Y-72793269D01*
X119097241Y-72962787D01*
X119241404Y-73106950D01*
X119410922Y-73220218D01*
X119599280Y-73298239D01*
X119799239Y-73338013D01*
X120003117Y-73338013D01*
X120203076Y-73298239D01*
X120391434Y-73220218D01*
X120421191Y-73200335D01*
X120577531Y-73316021D01*
X119020357Y-74985884D01*
X118992138Y-75010741D01*
X118969311Y-75040625D01*
X118969309Y-75040627D01*
X118901022Y-75130024D01*
X118859144Y-75215414D01*
X118834928Y-75264790D01*
X118801551Y-75390451D01*
X118796396Y-75409860D01*
X118789676Y-75515929D01*
X118466975Y-75362009D01*
X118434783Y-75342570D01*
X118398889Y-75329594D01*
X118360540Y-75315731D01*
X118293622Y-75291540D01*
X118190540Y-75275905D01*
X118145222Y-75269031D01*
X118145219Y-75269031D01*
X118102949Y-75270969D01*
X117940467Y-75203666D01*
X117740508Y-75163892D01*
X117536630Y-75163892D01*
X117336671Y-75203666D01*
X117148313Y-75281687D01*
X116978795Y-75394955D01*
X116834632Y-75539118D01*
X116721364Y-75708636D01*
X116643343Y-75896994D01*
X116603569Y-76096953D01*
X116603569Y-76300831D01*
X116643343Y-76500790D01*
X116721364Y-76689148D01*
X116834632Y-76858666D01*
X116978795Y-77002829D01*
X117148313Y-77116097D01*
X117336671Y-77194118D01*
X117536630Y-77233892D01*
X117740508Y-77233892D01*
X117940467Y-77194118D01*
X118128825Y-77116097D01*
X118298343Y-77002829D01*
X118320531Y-76980641D01*
X118328367Y-76984379D01*
X117573580Y-77793789D01*
X117545360Y-77818647D01*
X117454244Y-77937929D01*
X117388150Y-78072695D01*
X117354679Y-78198711D01*
X117349618Y-78217765D01*
X117340128Y-78367565D01*
X117345118Y-78404841D01*
X117387678Y-79623604D01*
X116814397Y-79475343D01*
X116779090Y-79462405D01*
X116741939Y-79456604D01*
X116741935Y-79456603D01*
X116630788Y-79439248D01*
X116630786Y-79439248D01*
X116480814Y-79445468D01*
X116440459Y-79455250D01*
X116262838Y-79419919D01*
X116190810Y-79419919D01*
X116174783Y-79406766D01*
X116042406Y-79336009D01*
X115898769Y-79292437D01*
X115786817Y-79281411D01*
X115786814Y-79281411D01*
X115749391Y-79277725D01*
X115711968Y-79281411D01*
X112933712Y-79281411D01*
X115030079Y-77033332D01*
X115055268Y-77033332D01*
X115255227Y-76993558D01*
X115443585Y-76915537D01*
X115613103Y-76802269D01*
X115757266Y-76658106D01*
X115870534Y-76488588D01*
X115948555Y-76300230D01*
X115988329Y-76100271D01*
X115988329Y-75896393D01*
X115948555Y-75696434D01*
X115870534Y-75508076D01*
X115757266Y-75338558D01*
X115613103Y-75194395D01*
X115443585Y-75081127D01*
X115255227Y-75003106D01*
X115055268Y-74963332D01*
X114851390Y-74963332D01*
X114651431Y-75003106D01*
X114463073Y-75081127D01*
X114429971Y-75103245D01*
X115578104Y-73872024D01*
X116257449Y-73848300D01*
X116275261Y-73866112D01*
X116444779Y-73979380D01*
X116633137Y-74057401D01*
X116833096Y-74097175D01*
X117036974Y-74097175D01*
X117236933Y-74057401D01*
X117425291Y-73979380D01*
X117594809Y-73866112D01*
X117738972Y-73721949D01*
X117852240Y-73552431D01*
X117930261Y-73364073D01*
X117970035Y-73164114D01*
X117970035Y-72960236D01*
X117930261Y-72760277D01*
X117852240Y-72571919D01*
X117738972Y-72402401D01*
X117594809Y-72258238D01*
X117425291Y-72144970D01*
X117236933Y-72066949D01*
X117036974Y-72027175D01*
X116833096Y-72027175D01*
X116633137Y-72066949D01*
X116444779Y-72144970D01*
X116275261Y-72258238D01*
X116208413Y-72325086D01*
X115246882Y-72358663D01*
X115209349Y-72356285D01*
X115172075Y-72361275D01*
X115060576Y-72376201D01*
X114918547Y-72424759D01*
X114918546Y-72424760D01*
X114918545Y-72424760D01*
X114788719Y-72500093D01*
X114704304Y-72574450D01*
X114704301Y-72574453D01*
X114676084Y-72599308D01*
X114653258Y-72629191D01*
X110626212Y-76947668D01*
X110601022Y-76947668D01*
X110401063Y-76987442D01*
X110212705Y-77065463D01*
X110043187Y-77178731D01*
X109899024Y-77322894D01*
X109785756Y-77492412D01*
X109707735Y-77680770D01*
X109667961Y-77880729D01*
X109667961Y-78084607D01*
X109707735Y-78284566D01*
X109785756Y-78472924D01*
X109787541Y-78475595D01*
X108442100Y-77130155D01*
X108495226Y-77001898D01*
X108535000Y-76801939D01*
X108535000Y-76598061D01*
X108495226Y-76398102D01*
X108417205Y-76209744D01*
X108303937Y-76040226D01*
X108159774Y-75896063D01*
X107990256Y-75782795D01*
X107801898Y-75704774D01*
X107601939Y-75665000D01*
X107398061Y-75665000D01*
X107262001Y-75692064D01*
X107262001Y-74270330D01*
X107390256Y-74217205D01*
X107559774Y-74103937D01*
X107703937Y-73959774D01*
X107817205Y-73790256D01*
X107895226Y-73601898D01*
X107935000Y-73401939D01*
X107935000Y-73198061D01*
X107895226Y-72998102D01*
X107817205Y-72809744D01*
X107703937Y-72640226D01*
X107559774Y-72496063D01*
X107390256Y-72382795D01*
X107201898Y-72304774D01*
X107001939Y-72265000D01*
X106798061Y-72265000D01*
X106598102Y-72304774D01*
X106409744Y-72382795D01*
X106350000Y-72422715D01*
X106290256Y-72382795D01*
X106101898Y-72304774D01*
X105901939Y-72265000D01*
X105698061Y-72265000D01*
X105498102Y-72304774D01*
X105309744Y-72382795D01*
X105140226Y-72496063D01*
X104996063Y-72640226D01*
X104882795Y-72809744D01*
X104804774Y-72998102D01*
X104765000Y-73198061D01*
X104765000Y-73401939D01*
X104804774Y-73601898D01*
X104882795Y-73790256D01*
X104996063Y-73959774D01*
X105038000Y-74001711D01*
X105038001Y-88762564D01*
X105038000Y-88762574D01*
X105038000Y-88857599D01*
X105034314Y-88895022D01*
X105038000Y-88932445D01*
X105038000Y-88932447D01*
X105049026Y-89044399D01*
X105092598Y-89188036D01*
X105107650Y-89216196D01*
X105163355Y-89320414D01*
X105198821Y-89363629D01*
X105258578Y-89436444D01*
X105287654Y-89460306D01*
X105514904Y-89687556D01*
X105516560Y-89693014D01*
X105536197Y-89729752D01*
X105587317Y-89825392D01*
X105604166Y-89845922D01*
X105682540Y-89941422D01*
X105711616Y-89965284D01*
X105714155Y-89967824D01*
X105516411Y-89947450D01*
X104803518Y-90014431D01*
X104117391Y-90219204D01*
X103484397Y-90553898D01*
X103457106Y-90572132D01*
X103120919Y-91041314D01*
X105500000Y-93420395D01*
X105514143Y-93406253D01*
X105693748Y-93585858D01*
X105679605Y-93600000D01*
X105693748Y-93614143D01*
X105514143Y-93793748D01*
X105500000Y-93779605D01*
X105485858Y-93793748D01*
X105306253Y-93614143D01*
X105320395Y-93600000D01*
X102941314Y-91220919D01*
X102472132Y-91557106D01*
X102400476Y-91689729D01*
X102372740Y-91539350D01*
X102091618Y-89164165D01*
X101964359Y-86775795D01*
X101991492Y-84384170D01*
X102172905Y-81999302D01*
X102507843Y-79631091D01*
X102994904Y-77289455D01*
X103632064Y-74984118D01*
X104416664Y-72724705D01*
X105345431Y-70520642D01*
X106414503Y-68381089D01*
X107069069Y-67258686D01*
X109820919Y-67258686D01*
X110157106Y-67727868D01*
X110787068Y-68068237D01*
X111091215Y-68161993D01*
X111040226Y-68196063D01*
X110896063Y-68340226D01*
X110782795Y-68509744D01*
X110704774Y-68698102D01*
X110665000Y-68898061D01*
X110665000Y-69101939D01*
X110704774Y-69301898D01*
X110782795Y-69490256D01*
X110896063Y-69659774D01*
X111040226Y-69803937D01*
X111209744Y-69917205D01*
X111398102Y-69995226D01*
X111598061Y-70035000D01*
X111801939Y-70035000D01*
X112001898Y-69995226D01*
X112190256Y-69917205D01*
X112359774Y-69803937D01*
X112401711Y-69762000D01*
X119132156Y-69762000D01*
X119169579Y-69765686D01*
X119207002Y-69762000D01*
X119207005Y-69762000D01*
X119318957Y-69750974D01*
X119462594Y-69707402D01*
X119594971Y-69636645D01*
X119711001Y-69541422D01*
X119734863Y-69512346D01*
X120493636Y-68753574D01*
X120552944Y-68753574D01*
X120752903Y-68713800D01*
X120941261Y-68635779D01*
X121110779Y-68522511D01*
X121254942Y-68378348D01*
X121368210Y-68208830D01*
X121446231Y-68020472D01*
X121486005Y-67820513D01*
X121486005Y-67616635D01*
X121446231Y-67416676D01*
X121368210Y-67228318D01*
X121254942Y-67058800D01*
X121110779Y-66914637D01*
X120941261Y-66801369D01*
X120752903Y-66723348D01*
X120552944Y-66683574D01*
X120349066Y-66683574D01*
X120149107Y-66723348D01*
X119960749Y-66801369D01*
X119791231Y-66914637D01*
X119647068Y-67058800D01*
X119533800Y-67228318D01*
X119455779Y-67416676D01*
X119416005Y-67616635D01*
X119416005Y-67675943D01*
X118853949Y-68238000D01*
X113055870Y-68238000D01*
X113582609Y-68080796D01*
X114215603Y-67746102D01*
X114242894Y-67727868D01*
X114579081Y-67258686D01*
X112200000Y-64879605D01*
X109820919Y-67258686D01*
X107069069Y-67258686D01*
X107619408Y-66315006D01*
X108568305Y-64905556D01*
X108614431Y-65396482D01*
X108819204Y-66082609D01*
X109153898Y-66715603D01*
X109172132Y-66742894D01*
X109641314Y-67079081D01*
X112020395Y-64700000D01*
X112379605Y-64700000D01*
X114758686Y-67079081D01*
X115227868Y-66742894D01*
X115568237Y-66112932D01*
X115779166Y-65428673D01*
X115852550Y-64716411D01*
X115785569Y-64003518D01*
X115580796Y-63317391D01*
X115246102Y-62684397D01*
X115227868Y-62657106D01*
X114758686Y-62320919D01*
X112379605Y-64700000D01*
X112020395Y-64700000D01*
X112006253Y-64685858D01*
X112185858Y-64506253D01*
X112200000Y-64520395D01*
X114579081Y-62141314D01*
X114377509Y-61860000D01*
X122576833Y-61860000D01*
X127836881Y-68635655D01*
G37*
X127836881Y-68635655D02*
X127186532Y-69054938D01*
X127171554Y-69065567D01*
X127156208Y-69075705D01*
X127142364Y-69086044D01*
X125730708Y-70169292D01*
X125714839Y-70182632D01*
X125698623Y-70195554D01*
X125685753Y-70207082D01*
X125480987Y-70395382D01*
X125509810Y-70250478D01*
X125509810Y-70046600D01*
X125470036Y-69846641D01*
X125392015Y-69658283D01*
X125278747Y-69488765D01*
X125134584Y-69344602D01*
X124965066Y-69231334D01*
X124776708Y-69153313D01*
X124576749Y-69113539D01*
X124559940Y-69113539D01*
X123947176Y-68444826D01*
X123924606Y-68414738D01*
X123865798Y-68362019D01*
X123812842Y-68314545D01*
X123683677Y-68238081D01*
X123642436Y-68223578D01*
X123525359Y-68106501D01*
X123355841Y-67993233D01*
X123167483Y-67915212D01*
X122967524Y-67875438D01*
X122763646Y-67875438D01*
X122563687Y-67915212D01*
X122375329Y-67993233D01*
X122205811Y-68106501D01*
X122061648Y-68250664D01*
X121948380Y-68420182D01*
X121870359Y-68608540D01*
X121830585Y-68808499D01*
X121830585Y-69012377D01*
X121870359Y-69212336D01*
X121948380Y-69400694D01*
X122061648Y-69570212D01*
X122205811Y-69714375D01*
X122375329Y-69827643D01*
X122563687Y-69905664D01*
X122763646Y-69945438D01*
X122967524Y-69945438D01*
X123167483Y-69905664D01*
X123204627Y-69890279D01*
X123439810Y-70146936D01*
X123439810Y-70246601D01*
X121640327Y-72176312D01*
X121615138Y-72176312D01*
X121602741Y-72178778D01*
X120874048Y-71639572D01*
X120846157Y-71614349D01*
X120791409Y-71581615D01*
X120717329Y-71537323D01*
X120717328Y-71537323D01*
X120717327Y-71537322D01*
X120575945Y-71486909D01*
X120533360Y-71480640D01*
X120391434Y-71385808D01*
X120203076Y-71307787D01*
X120003117Y-71268013D01*
X119799239Y-71268013D01*
X119599280Y-71307787D01*
X119410922Y-71385808D01*
X119241404Y-71499076D01*
X119097241Y-71643239D01*
X118983973Y-71812757D01*
X118905952Y-72001115D01*
X118866178Y-72201074D01*
X118866178Y-72404952D01*
X118905952Y-72604911D01*
X118983973Y-72793269D01*
X119097241Y-72962787D01*
X119241404Y-73106950D01*
X119410922Y-73220218D01*
X119599280Y-73298239D01*
X119799239Y-73338013D01*
X120003117Y-73338013D01*
X120203076Y-73298239D01*
X120391434Y-73220218D01*
X120421191Y-73200335D01*
X120577531Y-73316021D01*
X119020357Y-74985884D01*
X118992138Y-75010741D01*
X118969311Y-75040625D01*
X118969309Y-75040627D01*
X118901022Y-75130024D01*
X118859144Y-75215414D01*
X118834928Y-75264790D01*
X118801551Y-75390451D01*
X118796396Y-75409860D01*
X118789676Y-75515929D01*
X118466975Y-75362009D01*
X118434783Y-75342570D01*
X118398889Y-75329594D01*
X118360540Y-75315731D01*
X118293622Y-75291540D01*
X118190540Y-75275905D01*
X118145222Y-75269031D01*
X118145219Y-75269031D01*
X118102949Y-75270969D01*
X117940467Y-75203666D01*
X117740508Y-75163892D01*
X117536630Y-75163892D01*
X117336671Y-75203666D01*
X117148313Y-75281687D01*
X116978795Y-75394955D01*
X116834632Y-75539118D01*
X116721364Y-75708636D01*
X116643343Y-75896994D01*
X116603569Y-76096953D01*
X116603569Y-76300831D01*
X116643343Y-76500790D01*
X116721364Y-76689148D01*
X116834632Y-76858666D01*
X116978795Y-77002829D01*
X117148313Y-77116097D01*
X117336671Y-77194118D01*
X117536630Y-77233892D01*
X117740508Y-77233892D01*
X117940467Y-77194118D01*
X118128825Y-77116097D01*
X118298343Y-77002829D01*
X118320531Y-76980641D01*
X118328367Y-76984379D01*
X117573580Y-77793789D01*
X117545360Y-77818647D01*
X117454244Y-77937929D01*
X117388150Y-78072695D01*
X117354679Y-78198711D01*
X117349618Y-78217765D01*
X117340128Y-78367565D01*
X117345118Y-78404841D01*
X117387678Y-79623604D01*
X116814397Y-79475343D01*
X116779090Y-79462405D01*
X116741939Y-79456604D01*
X116741935Y-79456603D01*
X116630788Y-79439248D01*
X116630786Y-79439248D01*
X116480814Y-79445468D01*
X116440459Y-79455250D01*
X116262838Y-79419919D01*
X116190810Y-79419919D01*
X116174783Y-79406766D01*
X116042406Y-79336009D01*
X115898769Y-79292437D01*
X115786817Y-79281411D01*
X115786814Y-79281411D01*
X115749391Y-79277725D01*
X115711968Y-79281411D01*
X112933712Y-79281411D01*
X115030079Y-77033332D01*
X115055268Y-77033332D01*
X115255227Y-76993558D01*
X115443585Y-76915537D01*
X115613103Y-76802269D01*
X115757266Y-76658106D01*
X115870534Y-76488588D01*
X115948555Y-76300230D01*
X115988329Y-76100271D01*
X115988329Y-75896393D01*
X115948555Y-75696434D01*
X115870534Y-75508076D01*
X115757266Y-75338558D01*
X115613103Y-75194395D01*
X115443585Y-75081127D01*
X115255227Y-75003106D01*
X115055268Y-74963332D01*
X114851390Y-74963332D01*
X114651431Y-75003106D01*
X114463073Y-75081127D01*
X114429971Y-75103245D01*
X115578104Y-73872024D01*
X116257449Y-73848300D01*
X116275261Y-73866112D01*
X116444779Y-73979380D01*
X116633137Y-74057401D01*
X116833096Y-74097175D01*
X117036974Y-74097175D01*
X117236933Y-74057401D01*
X117425291Y-73979380D01*
X117594809Y-73866112D01*
X117738972Y-73721949D01*
X117852240Y-73552431D01*
X117930261Y-73364073D01*
X117970035Y-73164114D01*
X117970035Y-72960236D01*
X117930261Y-72760277D01*
X117852240Y-72571919D01*
X117738972Y-72402401D01*
X117594809Y-72258238D01*
X117425291Y-72144970D01*
X117236933Y-72066949D01*
X117036974Y-72027175D01*
X116833096Y-72027175D01*
X116633137Y-72066949D01*
X116444779Y-72144970D01*
X116275261Y-72258238D01*
X116208413Y-72325086D01*
X115246882Y-72358663D01*
X115209349Y-72356285D01*
X115172075Y-72361275D01*
X115060576Y-72376201D01*
X114918547Y-72424759D01*
X114918546Y-72424760D01*
X114918545Y-72424760D01*
X114788719Y-72500093D01*
X114704304Y-72574450D01*
X114704301Y-72574453D01*
X114676084Y-72599308D01*
X114653258Y-72629191D01*
X110626212Y-76947668D01*
X110601022Y-76947668D01*
X110401063Y-76987442D01*
X110212705Y-77065463D01*
X110043187Y-77178731D01*
X109899024Y-77322894D01*
X109785756Y-77492412D01*
X109707735Y-77680770D01*
X109667961Y-77880729D01*
X109667961Y-78084607D01*
X109707735Y-78284566D01*
X109785756Y-78472924D01*
X109787541Y-78475595D01*
X108442100Y-77130155D01*
X108495226Y-77001898D01*
X108535000Y-76801939D01*
X108535000Y-76598061D01*
X108495226Y-76398102D01*
X108417205Y-76209744D01*
X108303937Y-76040226D01*
X108159774Y-75896063D01*
X107990256Y-75782795D01*
X107801898Y-75704774D01*
X107601939Y-75665000D01*
X107398061Y-75665000D01*
X107262001Y-75692064D01*
X107262001Y-74270330D01*
X107390256Y-74217205D01*
X107559774Y-74103937D01*
X107703937Y-73959774D01*
X107817205Y-73790256D01*
X107895226Y-73601898D01*
X107935000Y-73401939D01*
X107935000Y-73198061D01*
X107895226Y-72998102D01*
X107817205Y-72809744D01*
X107703937Y-72640226D01*
X107559774Y-72496063D01*
X107390256Y-72382795D01*
X107201898Y-72304774D01*
X107001939Y-72265000D01*
X106798061Y-72265000D01*
X106598102Y-72304774D01*
X106409744Y-72382795D01*
X106350000Y-72422715D01*
X106290256Y-72382795D01*
X106101898Y-72304774D01*
X105901939Y-72265000D01*
X105698061Y-72265000D01*
X105498102Y-72304774D01*
X105309744Y-72382795D01*
X105140226Y-72496063D01*
X104996063Y-72640226D01*
X104882795Y-72809744D01*
X104804774Y-72998102D01*
X104765000Y-73198061D01*
X104765000Y-73401939D01*
X104804774Y-73601898D01*
X104882795Y-73790256D01*
X104996063Y-73959774D01*
X105038000Y-74001711D01*
X105038001Y-88762564D01*
X105038000Y-88762574D01*
X105038000Y-88857599D01*
X105034314Y-88895022D01*
X105038000Y-88932445D01*
X105038000Y-88932447D01*
X105049026Y-89044399D01*
X105092598Y-89188036D01*
X105107650Y-89216196D01*
X105163355Y-89320414D01*
X105198821Y-89363629D01*
X105258578Y-89436444D01*
X105287654Y-89460306D01*
X105514904Y-89687556D01*
X105516560Y-89693014D01*
X105536197Y-89729752D01*
X105587317Y-89825392D01*
X105604166Y-89845922D01*
X105682540Y-89941422D01*
X105711616Y-89965284D01*
X105714155Y-89967824D01*
X105516411Y-89947450D01*
X104803518Y-90014431D01*
X104117391Y-90219204D01*
X103484397Y-90553898D01*
X103457106Y-90572132D01*
X103120919Y-91041314D01*
X105500000Y-93420395D01*
X105514143Y-93406253D01*
X105693748Y-93585858D01*
X105679605Y-93600000D01*
X105693748Y-93614143D01*
X105514143Y-93793748D01*
X105500000Y-93779605D01*
X105485858Y-93793748D01*
X105306253Y-93614143D01*
X105320395Y-93600000D01*
X102941314Y-91220919D01*
X102472132Y-91557106D01*
X102400476Y-91689729D01*
X102372740Y-91539350D01*
X102091618Y-89164165D01*
X101964359Y-86775795D01*
X101991492Y-84384170D01*
X102172905Y-81999302D01*
X102507843Y-79631091D01*
X102994904Y-77289455D01*
X103632064Y-74984118D01*
X104416664Y-72724705D01*
X105345431Y-70520642D01*
X106414503Y-68381089D01*
X107069069Y-67258686D01*
X109820919Y-67258686D01*
X110157106Y-67727868D01*
X110787068Y-68068237D01*
X111091215Y-68161993D01*
X111040226Y-68196063D01*
X110896063Y-68340226D01*
X110782795Y-68509744D01*
X110704774Y-68698102D01*
X110665000Y-68898061D01*
X110665000Y-69101939D01*
X110704774Y-69301898D01*
X110782795Y-69490256D01*
X110896063Y-69659774D01*
X111040226Y-69803937D01*
X111209744Y-69917205D01*
X111398102Y-69995226D01*
X111598061Y-70035000D01*
X111801939Y-70035000D01*
X112001898Y-69995226D01*
X112190256Y-69917205D01*
X112359774Y-69803937D01*
X112401711Y-69762000D01*
X119132156Y-69762000D01*
X119169579Y-69765686D01*
X119207002Y-69762000D01*
X119207005Y-69762000D01*
X119318957Y-69750974D01*
X119462594Y-69707402D01*
X119594971Y-69636645D01*
X119711001Y-69541422D01*
X119734863Y-69512346D01*
X120493636Y-68753574D01*
X120552944Y-68753574D01*
X120752903Y-68713800D01*
X120941261Y-68635779D01*
X121110779Y-68522511D01*
X121254942Y-68378348D01*
X121368210Y-68208830D01*
X121446231Y-68020472D01*
X121486005Y-67820513D01*
X121486005Y-67616635D01*
X121446231Y-67416676D01*
X121368210Y-67228318D01*
X121254942Y-67058800D01*
X121110779Y-66914637D01*
X120941261Y-66801369D01*
X120752903Y-66723348D01*
X120552944Y-66683574D01*
X120349066Y-66683574D01*
X120149107Y-66723348D01*
X119960749Y-66801369D01*
X119791231Y-66914637D01*
X119647068Y-67058800D01*
X119533800Y-67228318D01*
X119455779Y-67416676D01*
X119416005Y-67616635D01*
X119416005Y-67675943D01*
X118853949Y-68238000D01*
X113055870Y-68238000D01*
X113582609Y-68080796D01*
X114215603Y-67746102D01*
X114242894Y-67727868D01*
X114579081Y-67258686D01*
X112200000Y-64879605D01*
X109820919Y-67258686D01*
X107069069Y-67258686D01*
X107619408Y-66315006D01*
X108568305Y-64905556D01*
X108614431Y-65396482D01*
X108819204Y-66082609D01*
X109153898Y-66715603D01*
X109172132Y-66742894D01*
X109641314Y-67079081D01*
X112020395Y-64700000D01*
X112379605Y-64700000D01*
X114758686Y-67079081D01*
X115227868Y-66742894D01*
X115568237Y-66112932D01*
X115779166Y-65428673D01*
X115852550Y-64716411D01*
X115785569Y-64003518D01*
X115580796Y-63317391D01*
X115246102Y-62684397D01*
X115227868Y-62657106D01*
X114758686Y-62320919D01*
X112379605Y-64700000D01*
X112020395Y-64700000D01*
X112006253Y-64685858D01*
X112185858Y-64506253D01*
X112200000Y-64520395D01*
X114579081Y-62141314D01*
X114377509Y-61860000D01*
X122576833Y-61860000D01*
X127836881Y-68635655D01*
G36*
X108449425Y-85427056D02*
G01*
X108473282Y-85456126D01*
X108589312Y-85551349D01*
X108721689Y-85622106D01*
X108865326Y-85665678D01*
X108977278Y-85676704D01*
X108977280Y-85676704D01*
X109014703Y-85680390D01*
X109052126Y-85676704D01*
X111922624Y-85676704D01*
X111922624Y-85709488D01*
X109837634Y-87868559D01*
X108618621Y-87889837D01*
X108588836Y-87860052D01*
X108419318Y-87746784D01*
X108230960Y-87668763D01*
X108031001Y-87628989D01*
X107827123Y-87628989D01*
X107734999Y-87647313D01*
X107734999Y-84712629D01*
X108449425Y-85427056D01*
G37*
X108449425Y-85427056D02*
X108473282Y-85456126D01*
X108589312Y-85551349D01*
X108721689Y-85622106D01*
X108865326Y-85665678D01*
X108977278Y-85676704D01*
X108977280Y-85676704D01*
X109014703Y-85680390D01*
X109052126Y-85676704D01*
X111922624Y-85676704D01*
X111922624Y-85709488D01*
X109837634Y-87868559D01*
X108618621Y-87889837D01*
X108588836Y-87860052D01*
X108419318Y-87746784D01*
X108230960Y-87668763D01*
X108031001Y-87628989D01*
X107827123Y-87628989D01*
X107734999Y-87647313D01*
X107734999Y-84712629D01*
X108449425Y-85427056D01*
M02*
